<svg xmlns="http://www.w3.org/2000/svg" width="20" height="20" viewBox="0 0 20 20"><defs><style>.a{fill:none;}.b{fill:#fff;}</style></defs><g transform="translate(-2.285 -2.29)"><rect class="a" width="20" height="20" transform="translate(2.285 2.29)"/><path class="b" d="M18108.689,8971.788h-10.8a1.6,1.6,0,0,1-1.6-1.6v-5.8a1.6,1.6,0,0,1,1.6-1.6h.9v-2.5a4,4,0,0,1,4-4h1a4,4,0,0,1,4,4v.5h-2.4v-.5a1.6,1.6,0,0,0-1.6-1.6h-1a1.6,1.6,0,0,0-1.6,1.6v2.5h7.5a1.6,1.6,0,0,1,1.6,1.6v5.8A1.6,1.6,0,0,1,18108.689,8971.788Zm-5.4-6.713a1.4,1.4,0,0,0-.709,2.6v1.113a.709.709,0,0,0,1.418,0v-1.113a1.4,1.4,0,0,0-.709-2.6Z" transform="translate(-18091.002 -8951.499)"/></g></svg>