<svg xmlns="http://www.w3.org/2000/svg" width="96" height="24.001" viewBox="0 0 96 24.001"><defs><style>.a,.b{fill:#55616d;}.a,.d,.f{opacity:0.75;}.c{fill:none;}.d,.e{fill:#818c98;}.f,.g{fill:#438dec;}.h{opacity:0.3;}</style></defs><g transform="translate(-183.999 -558)"><g transform="translate(182.039 556.04)"><path class="a" d="M13.193,10.591,6.173,15.8a1.385,1.385,0,0,0,0,2.225l7.021,5.213A1.385,1.385,0,0,0,15.4,22.129V11.7a1.385,1.385,0,0,0-2.212-1.113" transform="translate(-1.621 -3.065)"/><path class="b" d="M26.107,9.55,18,15.48a1.386,1.386,0,0,0,0,2.236l8.106,5.93a1.386,1.386,0,0,0,2.2-1.118V10.669a1.386,1.386,0,0,0-2.2-1.118" transform="translate(-5.252 -2.747)"/><rect class="c" width="24" height="24" transform="translate(1.96 1.96)"/></g><g transform="translate(206.039 556.04)"><path class="d" d="M13.193,10.591,6.173,15.8a1.385,1.385,0,0,0,0,2.225l7.021,5.213A1.385,1.385,0,0,0,15.4,22.129V11.7a1.385,1.385,0,0,0-2.212-1.113" transform="translate(-1.621 -3.065)"/><path class="e" d="M26.107,9.55,18,15.48a1.386,1.386,0,0,0,0,2.236l8.106,5.93a1.386,1.386,0,0,0,2.2-1.118V10.669a1.386,1.386,0,0,0-2.2-1.118" transform="translate(-5.252 -2.747)"/><rect class="c" width="24" height="24" transform="translate(1.96 1.96)"/></g><g transform="translate(230.039 556.041)"><path class="f" d="M13.193,10.591,6.173,15.8a1.385,1.385,0,0,0,0,2.225l7.021,5.213A1.385,1.385,0,0,0,15.4,22.129V11.7a1.385,1.385,0,0,0-2.212-1.113" transform="translate(-1.621 -3.065)"/><path class="g" d="M26.107,9.55,18,15.48a1.386,1.386,0,0,0,0,2.236l8.106,5.93a1.386,1.386,0,0,0,2.2-1.118V10.669a1.386,1.386,0,0,0-2.2-1.118" transform="translate(-5.252 -2.747)"/><rect class="c" width="24" height="24" transform="translate(1.96 1.96)"/></g><g class="h" transform="translate(254.039 556.041)"><path class="a" d="M13.193,10.591,6.173,15.8a1.385,1.385,0,0,0,0,2.225l7.021,5.213A1.385,1.385,0,0,0,15.4,22.129V11.7a1.385,1.385,0,0,0-2.212-1.113" transform="translate(-1.621 -3.065)"/><path class="b" d="M26.107,9.55,18,15.48a1.386,1.386,0,0,0,0,2.236l8.106,5.93a1.386,1.386,0,0,0,2.2-1.118V10.669a1.386,1.386,0,0,0-2.2-1.118" transform="translate(-5.252 -2.747)"/><rect class="c" width="24" height="24" transform="translate(1.96 1.96)"/></g></g></svg>