<svg xmlns="http://www.w3.org/2000/svg" width="80" height="20" viewBox="0 0 80 20"><defs><style>.a{fill:#55616d;}.b{fill:none;}.c{opacity:0.3;}.d{fill:#818c98;}.e{fill:#438dec;}</style></defs><g transform="translate(-864 -1068)"><g transform="translate(861.715 1065.71)"><path class="a" d="M17.115,16.416l-3.441-3.745a.7.7,0,0,1,.514-1.169l1.594,0V8.217a.7.7,0,0,1,.7-.7h2.167a.7.7,0,0,1,.7.7v3.3l1.706,0a.7.7,0,0,1,.512,1.167l-3.418,3.727a.7.7,0,0,1-1.027,0" transform="translate(-5.326 -3.122)"/><path class="a" d="M21.915,22.9H8.994A1.394,1.394,0,0,0,7.6,24.294v2.787a1.394,1.394,0,0,0,1.394,1.394H21.915a1.394,1.394,0,0,0,1.394-1.394V24.294A1.394,1.394,0,0,0,21.915,22.9M11.021,26.352a.7.7,0,0,1-.7.7h-.317a.7.7,0,0,1-.7-.7v-1.33a.7.7,0,0,1,.7-.7h.317a.7.7,0,0,1,.7.7Zm2.85,0a.7.7,0,0,1-.7.7h-.317a.7.7,0,0,1-.7-.7v-1.33a.7.7,0,0,1,.7-.7h.317a.7.7,0,0,1,.7.7Zm7.728-.57a.7.7,0,0,1-.7.7h-.317a.7.7,0,0,1-.7-.7v-.19a.7.7,0,0,1,.7-.7H20.9a.7.7,0,0,1,.7.7Z" transform="translate(-3.166 -8.76)"/><rect class="b" width="20" height="20" transform="translate(2.285 2.29)"/></g><g class="c" transform="translate(921.715 1065.71)"><path class="a" d="M17.115,16.416l-3.441-3.745a.7.7,0,0,1,.514-1.169l1.594,0V8.217a.7.7,0,0,1,.7-.7h2.167a.7.7,0,0,1,.7.7v3.3l1.706,0a.7.7,0,0,1,.512,1.167l-3.418,3.727a.7.7,0,0,1-1.027,0" transform="translate(-5.326 -3.122)"/><path class="a" d="M21.915,22.9H8.994A1.394,1.394,0,0,0,7.6,24.294v2.787a1.394,1.394,0,0,0,1.394,1.394H21.915a1.394,1.394,0,0,0,1.394-1.394V24.294A1.394,1.394,0,0,0,21.915,22.9M11.021,26.352a.7.7,0,0,1-.7.7h-.317a.7.7,0,0,1-.7-.7v-1.33a.7.7,0,0,1,.7-.7h.317a.7.7,0,0,1,.7.7Zm2.85,0a.7.7,0,0,1-.7.7h-.317a.7.7,0,0,1-.7-.7v-1.33a.7.7,0,0,1,.7-.7h.317a.7.7,0,0,1,.7.7Zm7.728-.57a.7.7,0,0,1-.7.7h-.317a.7.7,0,0,1-.7-.7v-.19a.7.7,0,0,1,.7-.7H20.9a.7.7,0,0,1,.7.7Z" transform="translate(-3.166 -8.76)"/><rect class="b" width="20" height="20" transform="translate(2.285 2.29)"/></g><g transform="translate(881.715 1065.71)"><path class="d" d="M17.115,16.416l-3.441-3.745a.7.7,0,0,1,.514-1.169l1.594,0V8.217a.7.7,0,0,1,.7-.7h2.167a.7.7,0,0,1,.7.7v3.3l1.706,0a.7.7,0,0,1,.512,1.167l-3.418,3.727a.7.7,0,0,1-1.027,0" transform="translate(-5.326 -3.122)"/><path class="d" d="M21.915,22.9H8.994A1.394,1.394,0,0,0,7.6,24.294v2.787a1.394,1.394,0,0,0,1.394,1.394H21.915a1.394,1.394,0,0,0,1.394-1.394V24.294A1.394,1.394,0,0,0,21.915,22.9M11.021,26.352a.7.7,0,0,1-.7.7h-.317a.7.7,0,0,1-.7-.7v-1.33a.7.7,0,0,1,.7-.7h.317a.7.7,0,0,1,.7.7Zm2.85,0a.7.7,0,0,1-.7.7h-.317a.7.7,0,0,1-.7-.7v-1.33a.7.7,0,0,1,.7-.7h.317a.7.7,0,0,1,.7.7Zm7.728-.57a.7.7,0,0,1-.7.7h-.317a.7.7,0,0,1-.7-.7v-.19a.7.7,0,0,1,.7-.7H20.9a.7.7,0,0,1,.7.7Z" transform="translate(-3.166 -8.76)"/><rect class="b" width="20" height="20" transform="translate(2.285 2.29)"/></g><g transform="translate(901.715 1065.71)"><path class="e" d="M17.115,16.416l-3.441-3.745a.7.7,0,0,1,.514-1.169l1.594,0V8.217a.7.7,0,0,1,.7-.7h2.167a.7.7,0,0,1,.7.7v3.3l1.706,0a.7.7,0,0,1,.512,1.167l-3.418,3.727a.7.7,0,0,1-1.027,0" transform="translate(-5.326 -3.122)"/><path class="e" d="M21.915,22.9H8.994A1.394,1.394,0,0,0,7.6,24.294v2.787a1.394,1.394,0,0,0,1.394,1.394H21.915a1.394,1.394,0,0,0,1.394-1.394V24.294A1.394,1.394,0,0,0,21.915,22.9M11.021,26.352a.7.7,0,0,1-.7.7h-.317a.7.7,0,0,1-.7-.7v-1.33a.7.7,0,0,1,.7-.7h.317a.7.7,0,0,1,.7.7Zm2.85,0a.7.7,0,0,1-.7.7h-.317a.7.7,0,0,1-.7-.7v-1.33a.7.7,0,0,1,.7-.7h.317a.7.7,0,0,1,.7.7Zm7.728-.57a.7.7,0,0,1-.7.7h-.317a.7.7,0,0,1-.7-.7v-.19a.7.7,0,0,1,.7-.7H20.9a.7.7,0,0,1,.7.7Z" transform="translate(-3.166 -8.76)"/><rect class="b" width="20" height="20" transform="translate(2.285 2.29)"/></g></g></svg>