<?xml version="1.0" encoding="utf-8"?>
<!-- Generator: Adobe Illustrator 27.9.0, SVG Export Plug-In . SVG Version: 6.00 Build 0)  -->
<svg version="1.1" id="图层_1" xmlns="http://www.w3.org/2000/svg" xmlns:xlink="http://www.w3.org/1999/xlink" x="0px" y="0px"
	 viewBox="0 0 192 48" style="enable-background:new 0 0 192 48;" xml:space="preserve">
<style type="text/css">
	.st0{display:none;}
	.st1{display:inline;opacity:0.2;fill:#508CD2;enable-background:new    ;}
	.st2{display:inline;}
	.st3{fill:#336ED3;}
	.st4{display:inline;opacity:0.5;}
	.st5{fill:#9C9C9C;}
	.st6{display:inline;opacity:0.1;fill:#9C9C9C;enable-background:new    ;}
	.st7{fill:#508CD2;}
	.st8{fill:none;}
	.st9{opacity:0.2;fill:#508CD2;}
	.st10{fill-rule:evenodd;clip-rule:evenodd;fill:#336ED3;}
	.st11{fill-rule:evenodd;clip-rule:evenodd;fill:#FFFFFF;}
	.st12{fill:#FFFFFF;}
	.st13{fill-rule:evenodd;clip-rule:evenodd;fill:#9C9C9C;}
</style>
<g class="st0">
	<path class="st1" d="M88,6H56c-1.1,0-2,0.9-2,2v32c0,1.1,0.9,2,2,2h32c1.1,0,2-0.9,2-2V8C90,6.9,89.1,6,88,6z"/>
	<g class="st2">
		<path class="st3" d="M104,43c-1.7,0-3-1.3-3-3V8c0-1.7,1.3-3,3-3h32c1.7,0,3,1.3,3,3v32c0,1.7-1.3,3-3,3H104z"/>
		<path class="st3" d="M136,6c1.1,0,2,0.9,2,2v32c0,1.1-0.9,2-2,2h-32c-1.1,0-2-0.9-2-2V8c0-1.1,0.9-2,2-2H136 M136,4h-32
			c-2.2,0-4,1.8-4,4v32c0,2.2,1.8,4,4,4h32c2.2,0,4-1.8,4-4V8C140,5.8,138.2,4,136,4L136,4z"/>
	</g>
	<g class="st4">
		<path class="st5" d="M184,6c1.1,0,2,0.9,2,2v6v20v6c0,1.1-0.9,2-2,2h-6h-26c-1.1,0-2-0.9-2-2V8c0-1.1,0.9-2,2-2h26H184 M184,4h-6
			h-26c-2.2,0-4,1.8-4,4v32c0,2.2,1.8,4,4,4h26h6c2.2,0,4-1.8,4-4v-6V14V8C188,5.8,186.2,4,184,4L184,4z"/>
	</g>
	<path class="st6" d="M184,6h-6h-26c-1.1,0-2,0.9-2,2v32c0,1.1,0.9,2,2,2h26h6c1.1,0,2-0.9,2-2v-6V14V8C186,6.9,185.1,6,184,6z"/>
	<g class="st4">
		<path class="st7" d="M88,6c1.1,0,2,0.9,2,2v32c0,1.1-0.9,2-2,2H56c-1.1,0-2-0.9-2-2V8c0-1.1,0.9-2,2-2H88 M88,4H56
			c-2.2,0-4,1.8-4,4v32c0,2.2,1.8,4,4,4h32c2.2,0,4-1.8,4-4V8C92,5.8,90.2,4,88,4L88,4z"/>
	</g>
	<g class="st4">
		<path class="st7" d="M40,6c1.1,0,2,0.9,2,2v32c0,1.1-0.9,2-2,2H8c-1.1,0-2-0.9-2-2V8c0-1.1,0.9-2,2-2H40 M40,4H8C5.8,4,4,5.8,4,8
			v32c0,2.2,1.8,4,4,4h32c2.2,0,4-1.8,4-4V8C44,5.8,42.2,4,40,4L40,4z"/>
	</g>
</g>
<rect class="st8" width="48" height="48"/>
<rect x="48" class="st8" width="48" height="48"/>
<rect x="96" class="st8" width="48" height="48"/>
<rect x="144" class="st8" width="48" height="48"/>
<g>
	<path class="st9" d="M82,42H62c-4.4,0-8-3.6-8-8V14c0-4.4,3.6-8,8-8h20c4.4,0,8,3.6,8,8v20C90,38.4,86.4,42,82,42"/>
	<path class="st3" d="M130,42h-20c-4.4,0-8-3.6-8-8V14c0-4.4,3.6-8,8-8h20c4.4,0,8,3.6,8,8v20C138,38.4,134.4,42,130,42"/>
</g>
<g id="删除未完成">
	<g>
		<g>
			<path class="st10" d="M66,23c-0.6,0-1,0.4-1,1v5c0,0.6,0.4,1,1,1s1-0.4,1-1v-5C67,23.4,66.6,23,66,23z M79,15h-6v-2
				c0-0.6-0.4-1-1-1h-4c-0.6,0-1,0.4-1,1v2h-6c-1.1,0-2,0.9-2,2v2c0,1.1,0.9,2,2,2h18c1.1,0,2-0.9,2-2v-2C81,15.9,80.1,15,79,15z
				 M69,14h2v1h-2V14z M79,19H61v-2h7h4h7V19z M70,23c-0.6,0-1,0.4-1,1v5c0,0.6,0.4,1,1,1s1-0.4,1-1v-5C71,23.4,70.6,23,70,23z
				 M74,23c-0.6,0-1,0.4-1,1v5c0,0.6,0.4,1,1,1s1-0.4,1-1v-5C75,23.4,74.6,23,74,23z"/>
		</g>
	</g>
	<g>
		<path class="st3" d="M73,34H63c-1.1,0-2-0.9-2-2V20c0-0.6,0.4-1,1-1s1,0.4,1,1v12h10c0.6,0,1,0.4,1,1S73.6,34,73,34z"/>
	</g>
	<g>
		<path class="st3" d="M81,37.4c-0.5,0-0.9-0.4-0.9-0.9v-1.7c0-0.5,0.4-0.9,0.9-0.9s0.9,0.4,0.9,0.9v1.7C81.9,37,81.5,37.4,81,37.4z
			"/>
	</g>
	<g>
		<path class="st3" d="M81,28.1c-0.5,0-0.9-0.4-0.9-0.9v-1.7c0-0.5,0.4-0.9,0.9-0.9s0.9,0.4,0.9,0.9v1.7
			C81.9,27.7,81.5,28.1,81,28.1z"/>
	</g>
	<g>
		<path class="st3" d="M84.9,35.8c-0.2,0-0.5-0.1-0.6-0.3l-1.2-1.2c-0.4-0.4-0.4-0.9,0-1.3c0.4-0.4,0.9-0.4,1.3,0l1.2,1.2
			c0.4,0.4,0.4,0.9,0,1.3C85.4,35.7,85.1,35.8,84.9,35.8z"/>
	</g>
	<g>
		<path class="st3" d="M78.3,29.2c-0.2,0-0.5-0.1-0.6-0.3l-1.2-1.2c-0.4-0.4-0.4-0.9,0-1.3c0.4-0.4,0.9-0.4,1.3,0l1.2,1.2
			c0.4,0.4,0.4,0.9,0,1.3C78.7,29.1,78.5,29.2,78.3,29.2z"/>
	</g>
	<g>
		<path class="st3" d="M86.5,31.9h-1.6c-0.5,0-0.9-0.4-0.9-0.9s0.4-0.9,0.9-0.9h1.6c0.5,0,0.9,0.4,0.9,0.9S87,31.9,86.5,31.9z"/>
	</g>
	<g>
		<path class="st3" d="M77.1,31.9h-1.6c-0.5,0-0.9-0.4-0.9-0.9s0.4-0.9,0.9-0.9h1.6c0.5,0,0.9,0.4,0.9,0.9S77.7,31.9,77.1,31.9z"/>
	</g>
	<g>
		<path class="st3" d="M83.7,29.2c-0.2,0-0.5-0.1-0.6-0.3c-0.4-0.4-0.4-0.9,0-1.3l1.2-1.2c0.4-0.4,0.9-0.4,1.3,0
			c0.4,0.4,0.4,0.9,0,1.3l-1.2,1.2C84.2,29.1,84,29.2,83.7,29.2z"/>
	</g>
	<g>
		<path class="st3" d="M77.1,35.8c-0.2,0-0.5-0.1-0.6-0.3c-0.4-0.4-0.4-0.9,0-1.3l1.2-1.2c0.4-0.4,0.9-0.4,1.3,0
			c0.4,0.4,0.4,0.9,0,1.3l-1.2,1.2C77.6,35.7,77.3,35.8,77.1,35.8z"/>
	</g>
	<g>
		<path class="st3" d="M78,25c-0.6,0-1-0.4-1-1v-4c0-0.6,0.4-1,1-1s1,0.4,1,1v4C79,24.6,78.6,25,78,25z"/>
	</g>
	<g>
		<g>
			<path class="st10" d="M18,23c-0.6,0-1,0.4-1,1v5c0,0.6,0.4,1,1,1s1-0.4,1-1v-5C19,23.4,18.6,23,18,23z M31,15h-6v-2
				c0-0.6-0.4-1-1-1h-4c-0.6,0-1,0.4-1,1v2h-6c-1.1,0-2,0.9-2,2v2c0,1.1,0.9,2,2,2h18c1.1,0,2-0.9,2-2v-2C33,15.9,32.1,15,31,15z
				 M21,14h2v1h-2V14z M31,19H13v-2h7h4h7V19z M22,23c-0.6,0-1,0.4-1,1v5c0,0.6,0.4,1,1,1s1-0.4,1-1v-5C23,23.4,22.6,23,22,23z
				 M26,23c-0.6,0-1,0.4-1,1v5c0,0.6,0.4,1,1,1s1-0.4,1-1v-5C27,23.4,26.6,23,26,23z"/>
		</g>
	</g>
	<g>
		<path class="st3" d="M25,34H15c-1.1,0-2-0.9-2-2V20c0-0.6,0.4-1,1-1s1,0.4,1,1v12h10c0.6,0,1,0.4,1,1S25.6,34,25,34z"/>
	</g>
	<g>
		<path class="st3" d="M33,37.4c-0.5,0-0.9-0.4-0.9-0.9v-1.7c0-0.5,0.4-0.9,0.9-0.9s0.9,0.4,0.9,0.9v1.7C33.9,37,33.5,37.4,33,37.4z
			"/>
	</g>
	<g>
		<path class="st3" d="M33,28.1c-0.5,0-0.9-0.4-0.9-0.9v-1.7c0-0.5,0.4-0.9,0.9-0.9s0.9,0.4,0.9,0.9v1.7
			C33.9,27.7,33.5,28.1,33,28.1z"/>
	</g>
	<g>
		<path class="st3" d="M36.9,35.8c-0.2,0-0.5-0.1-0.6-0.3l-1.2-1.2c-0.4-0.4-0.4-0.9,0-1.3c0.4-0.4,0.9-0.4,1.3,0l1.2,1.2
			c0.4,0.4,0.4,0.9,0,1.3C37.4,35.7,37.1,35.8,36.9,35.8z"/>
	</g>
	<g>
		<path class="st3" d="M30.3,29.2c-0.2,0-0.5-0.1-0.6-0.3l-1.2-1.2c-0.4-0.4-0.4-0.9,0-1.3c0.4-0.4,0.9-0.4,1.3,0l1.2,1.2
			c0.4,0.4,0.4,0.9,0,1.3C30.7,29.1,30.5,29.2,30.3,29.2z"/>
	</g>
	<g>
		<path class="st3" d="M38.5,31.9h-1.6c-0.5,0-0.9-0.4-0.9-0.9s0.4-0.9,0.9-0.9h1.6c0.5,0,0.9,0.4,0.9,0.9S39,31.9,38.5,31.9z"/>
	</g>
	<g>
		<path class="st3" d="M29.1,31.9h-1.6c-0.5,0-0.9-0.4-0.9-0.9s0.4-0.9,0.9-0.9h1.6c0.5,0,0.9,0.4,0.9,0.9S29.7,31.9,29.1,31.9z"/>
	</g>
	<g>
		<path class="st3" d="M35.7,29.2c-0.2,0-0.5-0.1-0.6-0.3c-0.4-0.4-0.4-0.9,0-1.3l1.2-1.2c0.4-0.4,0.9-0.4,1.3,0
			c0.4,0.4,0.4,0.9,0,1.3l-1.2,1.2C36.2,29.1,36,29.2,35.7,29.2z"/>
	</g>
	<g>
		<path class="st3" d="M29.1,35.8c-0.2,0-0.5-0.1-0.6-0.3c-0.4-0.4-0.4-0.9,0-1.3l1.2-1.2c0.4-0.4,0.9-0.4,1.3,0
			c0.4,0.4,0.4,0.9,0,1.3l-1.2,1.2C29.6,35.7,29.3,35.8,29.1,35.8z"/>
	</g>
	<g>
		<path class="st3" d="M30,25c-0.6,0-1-0.4-1-1v-4c0-0.6,0.4-1,1-1s1,0.4,1,1v4C31,24.6,30.6,25,30,25z"/>
	</g>
	<g>
		<g>
			<path class="st11" d="M114,23c-0.6,0-1,0.4-1,1v5c0,0.6,0.4,1,1,1s1-0.4,1-1v-5C115,23.4,114.6,23,114,23z M127,15h-6v-2
				c0-0.6-0.4-1-1-1h-4c-0.6,0-1,0.4-1,1v2h-6c-1.1,0-2,0.9-2,2v2c0,1.1,0.9,2,2,2h18c1.1,0,2-0.9,2-2v-2C129,15.9,128.1,15,127,15z
				 M117,14h2v1h-2V14z M127,19h-18v-2h7h4h7V19z M118,23c-0.6,0-1,0.4-1,1v5c0,0.6,0.4,1,1,1s1-0.4,1-1v-5
				C119,23.4,118.6,23,118,23z M122,23c-0.6,0-1,0.4-1,1v5c0,0.6,0.4,1,1,1s1-0.4,1-1v-5C123,23.4,122.6,23,122,23z"/>
		</g>
	</g>
	<g>
		<path class="st12" d="M121,34h-10c-1.1,0-2-0.9-2-2V20c0-0.6,0.4-1,1-1s1,0.4,1,1v12h10c0.6,0,1,0.4,1,1S121.6,34,121,34z"/>
	</g>
	<g>
		<path class="st12" d="M129,37.4c-0.5,0-0.9-0.4-0.9-0.9v-1.7c0-0.5,0.4-0.9,0.9-0.9s0.9,0.4,0.9,0.9v1.7
			C129.9,37,129.5,37.4,129,37.4z"/>
	</g>
	<g>
		<path class="st12" d="M129,28.1c-0.5,0-0.9-0.4-0.9-0.9v-1.7c0-0.5,0.4-0.9,0.9-0.9s0.9,0.4,0.9,0.9v1.7
			C129.9,27.7,129.5,28.1,129,28.1z"/>
	</g>
	<g>
		<path class="st12" d="M132.9,35.8c-0.2,0-0.5-0.1-0.6-0.3l-1.2-1.2c-0.4-0.4-0.4-0.9,0-1.3c0.4-0.4,0.9-0.4,1.3,0l1.2,1.2
			c0.4,0.4,0.4,0.9,0,1.3C133.4,35.7,133.1,35.8,132.9,35.8z"/>
	</g>
	<g>
		<path class="st12" d="M126.3,29.2c-0.2,0-0.5-0.1-0.6-0.3l-1.2-1.2c-0.4-0.4-0.4-0.9,0-1.3c0.4-0.4,0.9-0.4,1.3,0l1.2,1.2
			c0.4,0.4,0.4,0.9,0,1.3C126.7,29.1,126.5,29.2,126.3,29.2z"/>
	</g>
	<g>
		<path class="st12" d="M134.5,31.9h-1.7c-0.5,0-0.9-0.4-0.9-0.9s0.4-0.9,0.9-0.9h1.7c0.5,0,0.9,0.4,0.9,0.9S135,31.9,134.5,31.9z"
			/>
	</g>
	<g>
		<path class="st12" d="M125.2,31.9h-1.7c-0.5,0-0.9-0.4-0.9-0.9s0.4-0.9,0.9-0.9h1.7c0.5,0,0.9,0.4,0.9,0.9S125.7,31.9,125.2,31.9z
			"/>
	</g>
	<g>
		<path class="st12" d="M131.7,29.2c-0.2,0-0.5-0.1-0.6-0.3c-0.4-0.4-0.4-0.9,0-1.3l1.2-1.2c0.4-0.4,0.9-0.4,1.3,0
			c0.4,0.4,0.4,0.9,0,1.3l-1.2,1.2C132.2,29.1,132,29.2,131.7,29.2z"/>
	</g>
	<g>
		<path class="st12" d="M125.1,35.8c-0.2,0-0.5-0.1-0.6-0.3c-0.4-0.4-0.4-0.9,0-1.3l1.2-1.2c0.4-0.4,0.9-0.4,1.3,0
			c0.4,0.4,0.4,0.9,0,1.3l-1.2,1.2C125.6,35.7,125.3,35.8,125.1,35.8z"/>
	</g>
	<g>
		<path class="st12" d="M126,25c-0.6,0-1-0.4-1-1v-4c0-0.6,0.4-1,1-1s1,0.4,1,1v4C127,24.6,126.6,25,126,25z"/>
	</g>
	<g>
		<g>
			<path class="st13" d="M162,23c-0.6,0-1,0.4-1,1v5c0,0.6,0.4,1,1,1s1-0.4,1-1v-5C163,23.4,162.6,23,162,23z M175,15h-6v-2
				c0-0.6-0.4-1-1-1h-4c-0.6,0-1,0.4-1,1v2h-6c-1.1,0-2,0.9-2,2v2c0,1.1,0.9,2,2,2h18c1.1,0,2-0.9,2-2v-2C177,15.9,176.1,15,175,15z
				 M165,14h2v1h-2V14z M175,19h-18v-2h7h4h7V19z M166,23c-0.6,0-1,0.4-1,1v5c0,0.6,0.4,1,1,1s1-0.4,1-1v-5
				C167,23.4,166.6,23,166,23z M170,23c-0.6,0-1,0.4-1,1v5c0,0.6,0.4,1,1,1s1-0.4,1-1v-5C171,23.4,170.6,23,170,23z"/>
		</g>
	</g>
	<g>
		<path class="st5" d="M169,34h-10c-1.1,0-2-0.9-2-2V20c0-0.6,0.4-1,1-1s1,0.4,1,1v12h10c0.6,0,1,0.4,1,1S169.6,34,169,34z"/>
	</g>
	<g>
		<path class="st5" d="M177,37.4c-0.5,0-0.9-0.4-0.9-0.9v-1.7c0-0.5,0.4-0.9,0.9-0.9s0.9,0.4,0.9,0.9v1.7
			C177.9,37,177.5,37.4,177,37.4z"/>
	</g>
	<g>
		<path class="st5" d="M177,28.1c-0.5,0-0.9-0.4-0.9-0.9v-1.7c0-0.5,0.4-0.9,0.9-0.9s0.9,0.4,0.9,0.9v1.7
			C177.9,27.7,177.5,28.1,177,28.1z"/>
	</g>
	<g>
		<path class="st5" d="M180.9,35.8c-0.2,0-0.5-0.1-0.6-0.3l-1.2-1.2c-0.4-0.4-0.4-0.9,0-1.3c0.4-0.4,0.9-0.4,1.3,0l1.2,1.2
			c0.4,0.4,0.4,0.9,0,1.3C181.4,35.7,181.1,35.8,180.9,35.8z"/>
	</g>
	<g>
		<path class="st5" d="M174.3,29.2c-0.2,0-0.5-0.1-0.6-0.3l-1.2-1.2c-0.4-0.4-0.4-0.9,0-1.3c0.4-0.4,0.9-0.4,1.3,0l1.2,1.2
			c0.4,0.4,0.4,0.9,0,1.3C174.7,29.1,174.5,29.2,174.3,29.2z"/>
	</g>
	<g>
		<path class="st5" d="M182.5,31.9h-1.7c-0.5,0-0.9-0.4-0.9-0.9s0.4-0.9,0.9-0.9h1.7c0.5,0,0.9,0.4,0.9,0.9S183,31.9,182.5,31.9z"/>
	</g>
	<g>
		<path class="st5" d="M173.2,31.9h-1.7c-0.5,0-0.9-0.4-0.9-0.9s0.4-0.9,0.9-0.9h1.7c0.5,0,0.9,0.4,0.9,0.9S173.7,31.9,173.2,31.9z"
			/>
	</g>
	<g>
		<path class="st5" d="M179.7,29.2c-0.2,0-0.5-0.1-0.6-0.3c-0.4-0.4-0.4-0.9,0-1.3l1.2-1.2c0.4-0.4,0.9-0.4,1.3,0
			c0.4,0.4,0.4,0.9,0,1.3l-1.2,1.2C180.2,29.1,180,29.2,179.7,29.2z"/>
	</g>
	<g>
		<path class="st5" d="M173.1,35.8c-0.2,0-0.5-0.1-0.6-0.3c-0.4-0.4-0.4-0.9,0-1.3l1.2-1.2c0.4-0.4,0.9-0.4,1.3,0
			c0.4,0.4,0.4,0.9,0,1.3l-1.2,1.2C173.6,35.7,173.3,35.8,173.1,35.8z"/>
	</g>
	<g>
		<path class="st5" d="M174,25c-0.6,0-1-0.4-1-1v-4c0-0.6,0.4-1,1-1s1,0.4,1,1v4C175,24.6,174.6,25,174,25z"/>
	</g>
</g>
</svg>
