<?xml version="1.0" encoding="utf-8"?>
<!-- Generator: Adobe Illustrator 27.9.0, SVG Export Plug-In . SVG Version: 6.00 Build 0)  -->
<svg version="1.1" id="图层_1" xmlns="http://www.w3.org/2000/svg" xmlns:xlink="http://www.w3.org/1999/xlink" x="0px" y="0px"
	 viewBox="0 0 192 48" style="enable-background:new 0 0 192 48;" xml:space="preserve">
<style type="text/css">
	.st0{display:none;}
	.st1{display:inline;opacity:0.2;fill:#508CD2;enable-background:new    ;}
	.st2{display:inline;}
	.st3{fill:#336ED3;}
	.st4{display:inline;opacity:0.5;}
	.st5{fill:#9C9C9C;}
	.st6{display:inline;opacity:0.1;fill:#9C9C9C;enable-background:new    ;}
	.st7{fill:#508CD2;}
	.st8{fill:none;}
	.st9{opacity:0.2;fill:#508CD2;}
	.st10{fill-rule:evenodd;clip-rule:evenodd;fill:#336ED3;}
	.st11{fill-rule:evenodd;clip-rule:evenodd;fill:#FFFFFF;}
	.st12{fill:#FFFFFF;}
	.st13{fill-rule:evenodd;clip-rule:evenodd;fill:#9C9C9C;}
</style>
<g class="st0">
	<path class="st1" d="M88,6H56c-1.1,0-2,0.9-2,2v32c0,1.1,0.9,2,2,2h32c1.1,0,2-0.9,2-2V8C90,6.9,89.1,6,88,6z"/>
	<g class="st2">
		<path class="st3" d="M104,43c-1.7,0-3-1.3-3-3V8c0-1.7,1.3-3,3-3h32c1.7,0,3,1.3,3,3v32c0,1.7-1.3,3-3,3H104z"/>
		<path class="st3" d="M136,6c1.1,0,2,0.9,2,2v32c0,1.1-0.9,2-2,2h-32c-1.1,0-2-0.9-2-2V8c0-1.1,0.9-2,2-2H136 M136,4h-32
			c-2.2,0-4,1.8-4,4v32c0,2.2,1.8,4,4,4h32c2.2,0,4-1.8,4-4V8C140,5.8,138.2,4,136,4L136,4z"/>
	</g>
	<g class="st4">
		<path class="st5" d="M184,6c1.1,0,2,0.9,2,2v6v20v6c0,1.1-0.9,2-2,2h-6h-26c-1.1,0-2-0.9-2-2V8c0-1.1,0.9-2,2-2h26H184 M184,4h-6
			h-26c-2.2,0-4,1.8-4,4v32c0,2.2,1.8,4,4,4h26h6c2.2,0,4-1.8,4-4v-6V14V8C188,5.8,186.2,4,184,4L184,4z"/>
	</g>
	<path class="st6" d="M184,6h-6h-26c-1.1,0-2,0.9-2,2v32c0,1.1,0.9,2,2,2h26h6c1.1,0,2-0.9,2-2v-6V14V8C186,6.9,185.1,6,184,6z"/>
	<g class="st4">
		<path class="st7" d="M88,6c1.1,0,2,0.9,2,2v32c0,1.1-0.9,2-2,2H56c-1.1,0-2-0.9-2-2V8c0-1.1,0.9-2,2-2H88 M88,4H56
			c-2.2,0-4,1.8-4,4v32c0,2.2,1.8,4,4,4h32c2.2,0,4-1.8,4-4V8C92,5.8,90.2,4,88,4L88,4z"/>
	</g>
	<g class="st4">
		<path class="st7" d="M40,6c1.1,0,2,0.9,2,2v32c0,1.1-0.9,2-2,2H8c-1.1,0-2-0.9-2-2V8c0-1.1,0.9-2,2-2H40 M40,4H8C5.8,4,4,5.8,4,8
			v32c0,2.2,1.8,4,4,4h32c2.2,0,4-1.8,4-4V8C44,5.8,42.2,4,40,4L40,4z"/>
	</g>
</g>
<rect class="st8" width="48" height="48"/>
<rect x="48" class="st8" width="48" height="48"/>
<rect x="96" class="st8" width="48" height="48"/>
<rect x="144" class="st8" width="48" height="48"/>
<g>
	<path class="st9" d="M82,42H62c-4.4,0-8-3.6-8-8V14c0-4.4,3.6-8,8-8h20c4.4,0,8,3.6,8,8v20C90,38.4,86.4,42,82,42"/>
	<path class="st3" d="M130,42h-20c-4.4,0-8-3.6-8-8V14c0-4.4,3.6-8,8-8h20c4.4,0,8,3.6,8,8v20C138,38.4,134.4,42,130,42"/>
</g>
<g id="删除已完成">
	<g>
		<g>
			<path class="st10" d="M71,23c-0.6,0-1,0.4-1,1v5c0,0.6,0.4,1,1,1s1-0.4,1-1v-5C72,23.4,71.6,23,71,23z M67,23c-0.6,0-1,0.4-1,1v5
				c0,0.6,0.4,1,1,1s1-0.4,1-1v-5C68,23.4,67.6,23,67,23z M75,23c-0.6,0-1,0.4-1,1s0.4,1,1,1s1-0.4,1-1S75.6,23,75,23z M80,15h-6v-2
				c0-0.6-0.4-1-1-1h-4c-0.6,0-1,0.4-1,1v2h-6c-1.1,0-2,0.9-2,2v2c0,1.1,0.9,2,2,2h18c1.1,0,2-0.9,2-2v-2C82,15.9,81.1,15,80,15z
				 M70,14h2v1h-2V14z M80,19H62v-2h7h4h7V19z"/>
		</g>
	</g>
	<g>
		<path class="st3" d="M73,34h-9c-1.1,0-2-0.9-2-2V20c0-0.6,0.4-1,1-1s1,0.4,1,1v12h9c0.6,0,1,0.4,1,1S73.6,34,73,34z"/>
	</g>
	<g>
		<path class="st3" d="M79,24c-0.6,0-1-0.4-1-1v-3c0-0.6,0.4-1,1-1s1,0.4,1,1v3C80,23.6,79.6,24,79,24z"/>
	</g>
	<g>
		<path class="st3" d="M78.5,36.4c-3.8,0-6.9-3.1-6.9-6.9s3.1-6.9,6.9-6.9s6.9,3.1,6.9,6.9S82.3,36.4,78.5,36.4z M78.5,24.4
			c-2.8,0-5.1,2.3-5.1,5.1s2.3,5.1,5.1,5.1s5.1-2.3,5.1-5.1S81.3,24.4,78.5,24.4z"/>
	</g>
	<g>
		<path class="st3" d="M78.1,32.5c-0.2,0-0.4-0.1-0.6-0.2l-2.6-2.6c-0.3-0.3-0.3-0.8,0-1.1c0.3-0.3,0.8-0.3,1.1,0l2,2l2.9-2.9
			c0.3-0.3,0.8-0.3,1.1,0s0.3,0.8,0,1.1l-3.4,3.4C78.5,32.4,78.3,32.5,78.1,32.5z"/>
	</g>
	<g>
		<g>
			<path class="st10" d="M27,23c-0.6,0-1,0.4-1,1s0.4,1,1,1s1-0.4,1-1S27.6,23,27,23z M19,23c-0.6,0-1,0.4-1,1v5c0,0.6,0.4,1,1,1
				s1-0.4,1-1v-5C20,23.4,19.6,23,19,23z M23,23c-0.6,0-1,0.4-1,1v5c0,0.6,0.4,1,1,1s1-0.4,1-1v-5C24,23.4,23.6,23,23,23z M32,15h-6
				v-2c0-0.6-0.4-1-1-1h-4c-0.6,0-1,0.4-1,1v2h-6c-1.1,0-2,0.9-2,2v2c0,1.1,0.9,2,2,2h18c1.1,0,2-0.9,2-2v-2C34,15.9,33.1,15,32,15z
				 M22,14h2v1h-2V14z M32,19H14v-2h7h4h7V19z"/>
		</g>
	</g>
	<g>
		<path class="st3" d="M25,34h-9c-1.1,0-2-0.9-2-2V20c0-0.6,0.4-1,1-1s1,0.4,1,1v12h9c0.6,0,1,0.4,1,1S25.6,34,25,34z"/>
	</g>
	<g>
		<path class="st3" d="M31,24c-0.6,0-1-0.4-1-1v-3c0-0.6,0.4-1,1-1s1,0.4,1,1v3C32,23.6,31.6,24,31,24z"/>
	</g>
	<g>
		<path class="st3" d="M30.5,36.4c-3.8,0-6.9-3.1-6.9-6.9s3.1-6.9,6.9-6.9s6.9,3.1,6.9,6.9S34.3,36.4,30.5,36.4z M30.5,24.4
			c-2.8,0-5.1,2.3-5.1,5.1s2.3,5.1,5.1,5.1s5.1-2.3,5.1-5.1S33.3,24.4,30.5,24.4z"/>
	</g>
	<g>
		<path class="st3" d="M30.1,32.5c-0.2,0-0.4-0.1-0.6-0.2l-2.6-2.6c-0.3-0.3-0.3-0.8,0-1.1c0.3-0.3,0.8-0.3,1.1,0l2,2l2.9-2.9
			c0.3-0.3,0.8-0.3,1.1,0s0.3,0.8,0,1.1l-3.4,3.4C30.5,32.4,30.3,32.5,30.1,32.5z"/>
	</g>
	<g>
		<g>
			<path class="st11" d="M119,23c-0.6,0-1,0.4-1,1v5c0,0.6,0.4,1,1,1s1-0.4,1-1v-5C120,23.4,119.6,23,119,23z M123,23
				c-0.6,0-1,0.4-1,1s0.4,1,1,1s1-0.4,1-1S123.6,23,123,23z M115,23c-0.6,0-1,0.4-1,1v5c0,0.6,0.4,1,1,1s1-0.4,1-1v-5
				C116,23.4,115.6,23,115,23z M128,15h-6v-2c0-0.6-0.4-1-1-1h-4c-0.6,0-1,0.4-1,1v2h-6c-1.1,0-2,0.9-2,2v2c0,1.1,0.9,2,2,2h18
				c1.1,0,2-0.9,2-2v-2C130,15.9,129.1,15,128,15z M118,14h2v1h-2V14z M128,19h-18v-2h7h4h7V19z"/>
		</g>
	</g>
	<g>
		<path class="st12" d="M121,34h-9c-1.1,0-2-0.9-2-2V20c0-0.6,0.4-1,1-1s1,0.4,1,1v12h9c0.6,0,1,0.4,1,1S121.6,34,121,34z"/>
	</g>
	<g>
		<path class="st12" d="M127,24c-0.6,0-1-0.4-1-1v-3c0-0.6,0.4-1,1-1s1,0.4,1,1v3C128,23.6,127.6,24,127,24z"/>
	</g>
	<g>
		<path class="st12" d="M126.5,36.4c-3.8,0-6.9-3.1-6.9-6.9s3.1-6.9,6.9-6.9s6.9,3.1,6.9,6.9S130.3,36.4,126.5,36.4z M126.5,24.4
			c-2.8,0-5.1,2.3-5.1,5.1s2.3,5.1,5.1,5.1s5.1-2.3,5.1-5.1S129.3,24.4,126.5,24.4z"/>
	</g>
	<g>
		<path class="st12" d="M126.1,32.5c-0.2,0-0.4-0.1-0.6-0.2l-2.6-2.6c-0.3-0.3-0.3-0.8,0-1.1s0.8-0.3,1.1,0l2,2l2.9-2.9
			c0.3-0.3,0.8-0.3,1.1,0s0.3,0.8,0,1.1l-3.4,3.4C126.5,32.4,126.3,32.5,126.1,32.5z"/>
	</g>
	<g>
		<g>
			<path class="st13" d="M167,23c-0.6,0-1,0.4-1,1v5c0,0.6,0.4,1,1,1s1-0.4,1-1v-5C168,23.4,167.6,23,167,23z M163,23
				c-0.6,0-1,0.4-1,1v5c0,0.6,0.4,1,1,1s1-0.4,1-1v-5C164,23.4,163.6,23,163,23z M171,23c-0.6,0-1,0.4-1,1s0.4,1,1,1s1-0.4,1-1
				S171.6,23,171,23z M176,15h-6v-2c0-0.6-0.4-1-1-1h-4c-0.6,0-1,0.4-1,1v2h-6c-1.1,0-2,0.9-2,2v2c0,1.1,0.9,2,2,2h18
				c1.1,0,2-0.9,2-2v-2C178,15.9,177.1,15,176,15z M166,14h2v1h-2V14z M176,19h-18v-2h7h4h7V19z"/>
		</g>
	</g>
	<g>
		<path class="st5" d="M169,34h-9c-1.1,0-2-0.9-2-2V20c0-0.6,0.4-1,1-1s1,0.4,1,1v12h9c0.6,0,1,0.4,1,1S169.6,34,169,34z"/>
	</g>
	<g>
		<path class="st5" d="M175,24c-0.6,0-1-0.4-1-1v-3c0-0.6,0.4-1,1-1s1,0.4,1,1v3C176,23.6,175.6,24,175,24z"/>
	</g>
	<g>
		<path class="st5" d="M174.5,36.4c-3.8,0-6.9-3.1-6.9-6.9s3.1-6.9,6.9-6.9s6.9,3.1,6.9,6.9S178.3,36.4,174.5,36.4z M174.5,24.4
			c-2.8,0-5.1,2.3-5.1,5.1s2.3,5.1,5.1,5.1s5.1-2.3,5.1-5.1S177.3,24.4,174.5,24.4z"/>
	</g>
	<g>
		<path class="st5" d="M174.1,32.5c-0.2,0-0.4-0.1-0.6-0.2l-2.6-2.6c-0.3-0.3-0.3-0.8,0-1.1s0.8-0.3,1.1,0l2,2l2.9-2.9
			c0.3-0.3,0.8-0.3,1.1,0s0.3,0.8,0,1.1l-3.4,3.4C174.5,32.4,174.3,32.5,174.1,32.5z"/>
	</g>
</g>
</svg>
