<svg xmlns="http://www.w3.org/2000/svg" xmlns:xlink="http://www.w3.org/1999/xlink" width="96" height="24.001" viewBox="0 0 96 24.001"><defs><style>.a{fill:none;}.b{clip-path:url(#a);}.c{fill:#fff;}.d{fill:#aed1ff;}.e{fill:#438dec;}.f{opacity:0.5;}.g{fill:#cecece;}</style><clipPath id="a"><rect class="a" width="24" height="24" transform="translate(2.451 2.451)"/></clipPath></defs><g transform="translate(-64 -558)"><g transform="translate(61.693 555.693)"><g class="b" transform="translate(-0.145 -0.145)"><path class="c" d="M9.3,14.926H11.14v7.256H9.3a1.43,1.43,0,0,1-1.43-1.43v-4.4a1.43,1.43,0,0,1,1.43-1.43" transform="translate(-2.092 -4.103)"/><path class="c" d="M24.692,25.122,8.964,9.393A1.267,1.267,0,0,1,10.755,7.6L26.484,23.33a1.267,1.267,0,0,1-1.791,1.791" transform="translate(-2.724 -1.911)"/><path class="c" d="M15.779,13.315,14.794,14v8.18l5.927,4.149a1.43,1.43,0,0,0,2.25-1.171V20.507Z" transform="translate(-4.065 -3.644)"/><path class="c" d="M24.2,15.442V9.548a1.43,1.43,0,0,0-2.25-1.172l-2.834,1.982Z" transform="translate(-5.298 -2.163)"/><path class="c" d="M29.9,20.917a2.442,2.442,0,0,0-1.54-4.346v2.806Z" transform="translate(-7.931 -4.572)"/></g></g><g transform="translate(85.693 555.693)"><path class="d" d="M9.3,14.926H11.14v7.256H9.3a1.43,1.43,0,0,1-1.43-1.43v-4.4a1.43,1.43,0,0,1,1.43-1.43" transform="translate(-2.236 -4.248)"/><path class="d" d="M24.692,25.122,8.964,9.393A1.267,1.267,0,0,1,10.755,7.6L26.484,23.33a1.267,1.267,0,0,1-1.791,1.791" transform="translate(-2.869 -2.056)"/><path class="d" d="M15.779,13.315,14.794,14v8.18l5.927,4.149a1.43,1.43,0,0,0,2.25-1.171V20.507Z" transform="translate(-4.211 -3.789)"/><path class="d" d="M24.2,15.442V9.548a1.43,1.43,0,0,0-2.25-1.172l-2.834,1.982Z" transform="translate(-5.441 -2.308)"/><path class="d" d="M29.9,20.917a2.442,2.442,0,0,0-1.54-4.346v2.806Z" transform="translate(-8.076 -4.717)"/><rect class="a" width="24" height="24" transform="translate(2.307 2.307)"/></g><g transform="translate(109.693 555.694)"><g class="b" transform="translate(-0.145 -0.145)"><path class="e" d="M9.3,14.926H11.14v7.256H9.3a1.43,1.43,0,0,1-1.43-1.43v-4.4a1.43,1.43,0,0,1,1.43-1.43" transform="translate(-2.092 -4.103)"/><path class="e" d="M24.692,25.122,8.964,9.393A1.267,1.267,0,0,1,10.755,7.6L26.484,23.33a1.267,1.267,0,0,1-1.791,1.791" transform="translate(-2.724 -1.911)"/><path class="e" d="M15.779,13.315,14.794,14v8.18l5.927,4.149a1.43,1.43,0,0,0,2.25-1.171V20.507Z" transform="translate(-4.065 -3.644)"/><path class="e" d="M24.2,15.442V9.548a1.43,1.43,0,0,0-2.25-1.172l-2.834,1.982Z" transform="translate(-5.298 -2.163)"/><path class="e" d="M29.9,20.917a2.442,2.442,0,0,0-1.54-4.346v2.806Z" transform="translate(-7.931 -4.572)"/></g></g><g class="f" transform="translate(133.693 555.694)"><g class="b" transform="translate(-0.145 -0.145)"><path class="g" d="M9.3,14.926H11.14v7.256H9.3a1.43,1.43,0,0,1-1.43-1.43v-4.4a1.43,1.43,0,0,1,1.43-1.43" transform="translate(-2.092 -4.103)"/><path class="g" d="M24.692,25.122,8.964,9.393A1.267,1.267,0,0,1,10.755,7.6L26.484,23.33a1.267,1.267,0,0,1-1.791,1.791" transform="translate(-2.724 -1.911)"/><path class="g" d="M15.779,13.315,14.794,14v8.18l5.927,4.149a1.43,1.43,0,0,0,2.25-1.171V20.507Z" transform="translate(-4.065 -3.644)"/><path class="g" d="M24.2,15.442V9.548a1.43,1.43,0,0,0-2.25-1.172l-2.834,1.982Z" transform="translate(-5.298 -2.163)"/><path class="g" d="M29.9,20.917a2.442,2.442,0,0,0-1.54-4.346v2.806Z" transform="translate(-7.931 -4.572)"/></g></g></g></svg>