<svg xmlns="http://www.w3.org/2000/svg" width="96" height="24" viewBox="0 0 96 24"><defs><style>.a{fill:#fff;}.b{fill:none;}.c{fill:#aed1ff;}.d{fill:#438dec;}.e{fill:#cecece;opacity:0.5;}</style></defs><g transform="translate(-368.001 -824.001)"><g transform="translate(365.504 821.504)"><path class="a" d="M12.45,11H22.6a1.449,1.449,0,0,1,1.45,1.45V22.6a1.449,1.449,0,0,1-1.45,1.45H12.45A1.449,1.449,0,0,1,11,22.6V12.45A1.449,1.449,0,0,1,12.45,11" transform="translate(-3.027 -3.027)"/><rect class="b" width="24" height="24" transform="translate(2.497 2.497)"/></g><g transform="translate(389.504 821.504)"><path class="c" d="M12.45,11H22.6a1.449,1.449,0,0,1,1.45,1.45V22.6a1.449,1.449,0,0,1-1.45,1.45H12.45A1.449,1.449,0,0,1,11,22.6V12.45A1.449,1.449,0,0,1,12.45,11" transform="translate(-3.027 -3.027)"/><rect class="b" width="24" height="24" transform="translate(2.497 2.497)"/></g><g transform="translate(413.504 821.504)"><path class="d" d="M12.45,11H22.6a1.449,1.449,0,0,1,1.45,1.45V22.6a1.449,1.449,0,0,1-1.45,1.45H12.45A1.449,1.449,0,0,1,11,22.6V12.45A1.449,1.449,0,0,1,12.45,11" transform="translate(-3.027 -3.027)"/><rect class="b" width="24" height="24" transform="translate(2.497 2.497)"/></g><g transform="translate(437.504 821.504)"><path class="e" d="M12.45,11H22.6a1.449,1.449,0,0,1,1.45,1.45V22.6a1.449,1.449,0,0,1-1.45,1.45H12.45A1.449,1.449,0,0,1,11,22.6V12.45A1.449,1.449,0,0,1,12.45,11" transform="translate(-3.027 -3.027)"/><rect class="b" width="24" height="24" transform="translate(2.497 2.497)"/></g></g></svg>