<svg xmlns="http://www.w3.org/2000/svg" width="96" height="24.001" viewBox="0 0 96 24.001"><defs><style>.a{fill:none;}.b{fill:#fff;}.c{fill:#aed1ff;}.d{fill:#438dec;}.e{opacity:0.5;}.f{fill:#cecece;}</style></defs><g transform="translate(-63.999 -622)"><g transform="translate(61.582 619.583)"><rect class="a" width="24" height="24" transform="translate(2.417 2.417)"/><rect class="b" width="3.604" height="15.138" rx="1.802" transform="translate(7.93 6.848)"/><rect class="b" width="3.604" height="15.138" rx="1.802" transform="translate(17.301 6.848)"/></g><g transform="translate(85.582 619.583)"><rect class="a" width="24" height="24" transform="translate(2.417 2.417)"/><rect class="c" width="3.604" height="15.138" rx="1.802" transform="translate(7.93 6.848)"/><rect class="c" width="3.604" height="15.138" rx="1.802" transform="translate(17.301 6.848)"/></g><g transform="translate(109.582 619.584)"><rect class="a" width="24" height="24" transform="translate(2.417 2.417)"/><rect class="d" width="3.604" height="15.138" rx="1.802" transform="translate(7.93 6.848)"/><rect class="d" width="3.604" height="15.138" rx="1.802" transform="translate(17.301 6.848)"/></g><g class="e" transform="translate(133.582 619.584)"><rect class="a" width="24" height="24" transform="translate(2.417 2.417)"/><rect class="f" width="3.604" height="15.138" rx="1.802" transform="translate(7.93 6.848)"/><rect class="f" width="3.604" height="15.138" rx="1.802" transform="translate(17.301 6.848)"/></g></g></svg>