<svg xmlns="http://www.w3.org/2000/svg" width="96" height="24.001" viewBox="0 0 96 24.001"><defs><style>.a{fill:#fff;}.b{fill:none;}.c{fill:#aed1ff;}.d{fill:#438dec;}.e{opacity:0.5;}.f{fill:#cecece;}</style></defs><g transform="translate(-304 -526)"><g transform="translate(302.092 524.092)"><path class="a" d="M27.38,9.5h.69a1.38,1.38,0,0,1,1.38,1.38V22.615A1.38,1.38,0,0,1,28.071,24h-.69A1.38,1.38,0,0,1,26,22.615V10.88A1.38,1.38,0,0,1,27.38,9.5" transform="translate(-7.951 -2.84)"/><path class="a" d="M11.69,10.205l7.6,5.563a1.38,1.38,0,0,1,0,2.228l-7.6,5.563a1.381,1.381,0,0,1-2.2-1.114V11.319a1.38,1.38,0,0,1,2.2-1.114" transform="translate(-2.838 -2.975)"/><rect class="b" width="24" height="24" transform="translate(1.908 1.908)"/></g><g transform="translate(326.092 524.092)"><path class="c" d="M27.38,9.5h.69a1.38,1.38,0,0,1,1.38,1.38V22.615A1.38,1.38,0,0,1,28.071,24h-.69A1.38,1.38,0,0,1,26,22.615V10.88A1.38,1.38,0,0,1,27.38,9.5" transform="translate(-7.951 -2.84)"/><path class="c" d="M11.69,10.205l7.6,5.563a1.38,1.38,0,0,1,0,2.228l-7.6,5.563a1.381,1.381,0,0,1-2.2-1.114V11.319a1.38,1.38,0,0,1,2.2-1.114" transform="translate(-2.838 -2.975)"/><rect class="b" width="24" height="24" transform="translate(1.908 1.908)"/></g><g transform="translate(350.092 524.093)"><path class="d" d="M27.38,9.5h.69a1.38,1.38,0,0,1,1.38,1.38V22.615A1.38,1.38,0,0,1,28.071,24h-.69A1.38,1.38,0,0,1,26,22.615V10.88A1.38,1.38,0,0,1,27.38,9.5" transform="translate(-7.951 -2.84)"/><path class="d" d="M11.69,10.205l7.6,5.563a1.38,1.38,0,0,1,0,2.228l-7.6,5.563a1.381,1.381,0,0,1-2.2-1.114V11.319a1.38,1.38,0,0,1,2.2-1.114" transform="translate(-2.838 -2.975)"/><rect class="b" width="24" height="24" transform="translate(1.908 1.908)"/></g><g class="e" transform="translate(374.092 524.093)"><path class="f" d="M27.38,9.5h.69a1.38,1.38,0,0,1,1.38,1.38V22.615A1.38,1.38,0,0,1,28.071,24h-.69A1.38,1.38,0,0,1,26,22.615V10.88A1.38,1.38,0,0,1,27.38,9.5" transform="translate(-7.951 -2.84)"/><path class="f" d="M11.69,10.205l7.6,5.563a1.38,1.38,0,0,1,0,2.228l-7.6,5.563a1.381,1.381,0,0,1-2.2-1.114V11.319a1.38,1.38,0,0,1,2.2-1.114" transform="translate(-2.838 -2.975)"/><rect class="b" width="24" height="24" transform="translate(1.908 1.908)"/></g></g></svg>