<svg xmlns="http://www.w3.org/2000/svg" width="95.996" height="24.003" viewBox="0 0 95.996 24.003"><defs><style>.a,.b{fill:#fff;}.a,.e,.g,.j{stroke:rgba(0,0,0,0);stroke-miterlimit:10;}.c{fill:none;}.d{fill:#ff0300;}.e,.f{fill:#aed1ff;}.g,.h{fill:#438dec;}.i{opacity:0.5;}.j,.k{fill:#cecece;}</style></defs><g transform="translate(-303.997 -621.998)"><g transform="translate(299.57 617.574)"><path class="a" d="M18984.326,10983.081h-6.711l-.822-1.452a3.33,3.33,0,0,0,.328-.387,3.179,3.179,0,0,0,.559-1.906,3.066,3.066,0,0,0-.578-1.925,2.971,2.971,0,0,0-1.471-1.02,5.431,5.431,0,0,0-1.654-.243h-2.635v-.281a1.443,1.443,0,0,1,1.443-1.438h11.541a1.443,1.443,0,0,1,1.443,1.438v5.775A1.443,1.443,0,0,1,18984.326,10983.081Z" transform="translate(-18963.572 -10958.36)"/><path class="b" d="M32,23.8l1.989-.5a.721.721,0,0,1,.9.7v3.2a.721.721,0,0,1-.9.7L32,27.406Z" transform="translate(-8.36 -5.569)"/><path class="b" d="M14.582,12.5a1.082,1.082,0,1,0,1.082,1.082A1.083,1.083,0,0,0,14.582,12.5" transform="translate(-3.205 -2.566)"/><path class="b" d="M13.328,8a4.328,4.328,0,1,0,4.328,4.328A4.328,4.328,0,0,0,13.328,8m0,6.853a2.525,2.525,0,1,1,2.525-2.525,2.528,2.528,0,0,1-2.525,2.525" transform="translate(-1.951 -1.312)"/><path class="b" d="M25.246,11a3.246,3.246,0,1,0,3.246,3.246A3.246,3.246,0,0,0,25.246,11m0,4.689a1.443,1.443,0,1,1,1.443-1.443,1.442,1.442,0,0,1-1.443,1.443" transform="translate(-5.573 -2.148)"/><rect class="c" width="24" height="24" transform="translate(4.427 4.427)"/><path class="d" d="M.86-.52V-7.45H3.4a4.463,4.463,0,0,1,1.358.2,1.945,1.945,0,0,1,.981.674,2.115,2.115,0,0,1,.367,1.316,2.211,2.211,0,0,1-.367,1.321,2.118,2.118,0,0,1-.981.749A3.74,3.74,0,0,1,3.4-2.957H2.525V-.52ZM2.525-4.269h.744a1.4,1.4,0,0,0,.907-.256.9.9,0,0,0,.312-.74.724.724,0,0,0-.312-.679,1.792,1.792,0,0,0-.907-.186H2.525ZM4.6-.52,3.1-3.385,4.227-4.473,6.46-.52Z" transform="translate(6.998 26.242)"/></g><g transform="translate(323.57 617.571)"><path class="e" d="M18960.324,10983.084h-6.709l-.82-1.451a3.784,3.784,0,0,0,.328-.386,3.17,3.17,0,0,0,.559-1.9,3.081,3.081,0,0,0-.576-1.923,2.946,2.946,0,0,0-1.477-1.022,5.413,5.413,0,0,0-1.654-.243h-2.633v-.285a1.444,1.444,0,0,1,1.441-1.442h11.541a1.447,1.447,0,0,1,1.447,1.442v5.772A1.447,1.447,0,0,1,18960.324,10983.084Z" transform="translate(-18938.129 -10958.723)"/><path class="f" d="M32,23.8l1.989-.5a.721.721,0,0,1,.9.7v3.2a.721.721,0,0,1-.9.7L32,27.406Z" transform="translate(-8.36 -5.569)"/><path class="f" d="M14.582,12.5a1.082,1.082,0,1,0,1.082,1.082A1.083,1.083,0,0,0,14.582,12.5" transform="translate(-3.205 -2.566)"/><path class="f" d="M13.328,8a4.328,4.328,0,1,0,4.328,4.328A4.328,4.328,0,0,0,13.328,8m0,6.853a2.525,2.525,0,1,1,2.525-2.525,2.528,2.528,0,0,1-2.525,2.525" transform="translate(-1.951 -1.312)"/><path class="f" d="M25.246,11a3.246,3.246,0,1,0,3.246,3.246A3.246,3.246,0,0,0,25.246,11m0,4.689a1.443,1.443,0,1,1,1.443-1.443,1.442,1.442,0,0,1-1.443,1.443" transform="translate(-5.573 -2.148)"/><rect class="c" width="24" height="24" transform="translate(4.427 4.427)"/><path class="d" d="M.86-.52V-7.45H3.4a4.463,4.463,0,0,1,1.358.2,1.945,1.945,0,0,1,.981.674,2.115,2.115,0,0,1,.367,1.316,2.211,2.211,0,0,1-.367,1.321,2.118,2.118,0,0,1-.981.749A3.74,3.74,0,0,1,3.4-2.957H2.525V-.52ZM2.525-4.269h.744a1.4,1.4,0,0,0,.907-.256.9.9,0,0,0,.312-.74.724.724,0,0,0-.312-.679,1.792,1.792,0,0,0-.907-.186H2.525ZM4.6-.52,3.1-3.385,4.227-4.473,6.46-.52Z" transform="translate(6.998 26.245)"/></g><g transform="translate(347.57 617.571)"><path class="g" d="M18936.326,10983.085h-6.713l-.82-1.45a3.113,3.113,0,0,0,.332-.385,3.2,3.2,0,0,0,.557-1.906,3.056,3.056,0,0,0-.58-1.925,3,3,0,0,0-1.469-1.021,5.394,5.394,0,0,0-1.658-.242h-2.633v-.285a1.444,1.444,0,0,1,1.443-1.44h11.541a1.445,1.445,0,0,1,1.445,1.44v5.774A1.445,1.445,0,0,1,18936.326,10983.085Z" transform="translate(-18915.572 -10958.363)"/><path class="h" d="M32,23.8l1.989-.5a.721.721,0,0,1,.9.7v3.2a.721.721,0,0,1-.9.7L32,27.406Z" transform="translate(-8.36 -5.569)"/><path class="h" d="M14.582,12.5a1.082,1.082,0,1,0,1.082,1.082A1.083,1.083,0,0,0,14.582,12.5" transform="translate(-3.205 -2.566)"/><path class="h" d="M13.328,8a4.328,4.328,0,1,0,4.328,4.328A4.328,4.328,0,0,0,13.328,8m0,6.853a2.525,2.525,0,1,1,2.525-2.525,2.528,2.528,0,0,1-2.525,2.525" transform="translate(-1.951 -1.312)"/><path class="h" d="M25.246,11a3.246,3.246,0,1,0,3.246,3.246A3.246,3.246,0,0,0,25.246,11m0,4.689a1.443,1.443,0,1,1,1.443-1.443,1.442,1.442,0,0,1-1.443,1.443" transform="translate(-5.573 -2.148)"/><rect class="c" width="24" height="24" transform="translate(4.427 4.427)"/><path class="d" d="M.86-.52V-7.45H3.4a4.463,4.463,0,0,1,1.358.2,1.945,1.945,0,0,1,.981.674,2.115,2.115,0,0,1,.367,1.316,2.211,2.211,0,0,1-.367,1.321,2.118,2.118,0,0,1-.981.749A3.74,3.74,0,0,1,3.4-2.957H2.525V-.52ZM2.525-4.269h.744a1.4,1.4,0,0,0,.907-.256.9.9,0,0,0,.312-.74.724.724,0,0,0-.312-.679,1.792,1.792,0,0,0-.907-.186H2.525ZM4.6-.52,3.1-3.385,4.227-4.473,6.46-.52Z" transform="translate(6.998 26.245)"/></g><g class="i" transform="translate(371.566 617.572)"><path class="j" d="M18912.328,10983.083h-6.709l-.82-1.453a3.068,3.068,0,0,0,.328-.384,3.169,3.169,0,0,0,.555-1.9,3.1,3.1,0,0,0-.574-1.928,2.971,2.971,0,0,0-1.471-1.016,5.348,5.348,0,0,0-1.656-.246h-2.641v-.28a1.446,1.446,0,0,1,1.443-1.443h11.545a1.446,1.446,0,0,1,1.443,1.443v5.771A1.443,1.443,0,0,1,18912.328,10983.083Z" transform="translate(-18891.572 -10958.362)"/><path class="k" d="M32,23.8l1.989-.5a.721.721,0,0,1,.9.7v3.2a.721.721,0,0,1-.9.7L32,27.406Z" transform="translate(-8.36 -5.569)"/><path class="k" d="M14.582,12.5a1.082,1.082,0,1,0,1.082,1.082A1.083,1.083,0,0,0,14.582,12.5" transform="translate(-3.205 -2.566)"/><path class="k" d="M13.328,8a4.328,4.328,0,1,0,4.328,4.328A4.328,4.328,0,0,0,13.328,8m0,6.853a2.525,2.525,0,1,1,2.525-2.525,2.528,2.528,0,0,1-2.525,2.525" transform="translate(-1.951 -1.312)"/><path class="k" d="M25.246,11a3.246,3.246,0,1,0,3.246,3.246A3.246,3.246,0,0,0,25.246,11m0,4.689a1.443,1.443,0,1,1,1.443-1.443,1.442,1.442,0,0,1-1.443,1.443" transform="translate(-5.573 -2.148)"/><rect class="c" width="24" height="24" transform="translate(4.427 4.427)"/><path class="d" d="M.86-.52V-7.45H3.4a4.463,4.463,0,0,1,1.358.2,1.945,1.945,0,0,1,.981.674,2.115,2.115,0,0,1,.367,1.316,2.211,2.211,0,0,1-.367,1.321,2.118,2.118,0,0,1-.981.749A3.74,3.74,0,0,1,3.4-2.957H2.525V-.52ZM2.525-4.269h.744a1.4,1.4,0,0,0,.907-.256.9.9,0,0,0,.312-.74.724.724,0,0,0-.312-.679,1.792,1.792,0,0,0-.907-.186H2.525ZM4.6-.52,3.1-3.385,4.227-4.473,6.46-.52Z" transform="translate(7.002 26.244)"/></g></g></svg>