<svg xmlns="http://www.w3.org/2000/svg" width="96" height="24" viewBox="0 0 96 24"><defs><style>.a,.b{fill:#fff;}.a,.d,.f,.h{stroke:rgba(0,0,0,0);stroke-miterlimit:10;}.c{fill:none;}.d,.e{fill:#aed1ff;}.f,.g{fill:#438dec;}.h,.i{fill:#cecece;opacity:0.5;}</style></defs><g transform="translate(-487.999 -760.001)"><g transform="translate(483.352 755.354)"><path class="a" d="M-1804.723-346.352a1.583,1.583,0,0,1-1.127-.466l-7.035-7.035a1.605,1.605,0,0,1-.467-1.127v-6.778a1.6,1.6,0,0,1,1.594-1.594h6.778a1.6,1.6,0,0,1,1.127.467l3.886,3.886a6.5,6.5,0,0,0-4.384,6.148,6.438,6.438,0,0,0,2.051,4.739l-1.3,1.3A1.583,1.583,0,0,1-1804.723-346.352Zm-4.91-14.875a1.6,1.6,0,0,0-1.594,1.594,1.6,1.6,0,0,0,1.594,1.594,1.6,1.6,0,0,0,1.594-1.594A1.6,1.6,0,0,0-1809.634-361.228Z" transform="translate(1820 372)"/><path class="b" d="M-1808.852-354.352a4.505,4.505,0,0,1-4.5-4.5,4.506,4.506,0,0,1,4.5-4.5,4.505,4.505,0,0,1,4.5,4.5A4.5,4.5,0,0,1-1808.852-354.352Zm-2.243-5.247a.748.748,0,0,0-.747.747.748.748,0,0,0,.747.747h1.5v1.494a.748.748,0,0,0,.747.747.748.748,0,0,0,.747-.747V-358.1h1.494a.748.748,0,0,0,.747-.747.748.748,0,0,0-.747-.747h-1.494v-1.5a.748.748,0,0,0-.747-.747.748.748,0,0,0-.747.747v1.5Z" transform="translate(1831 378)"/><rect class="c" width="24" height="24" transform="translate(4.648 4.648)"/></g><g transform="translate(507.352 755.354)"><path class="d" d="M-1804.723-346.352a1.583,1.583,0,0,1-1.127-.466l-7.035-7.035a1.605,1.605,0,0,1-.467-1.127v-6.778a1.6,1.6,0,0,1,1.594-1.594h6.778a1.6,1.6,0,0,1,1.127.467l3.886,3.886a6.5,6.5,0,0,0-4.384,6.148,6.438,6.438,0,0,0,2.051,4.739l-1.3,1.3A1.583,1.583,0,0,1-1804.723-346.352Zm-4.91-14.875a1.6,1.6,0,0,0-1.594,1.594,1.6,1.6,0,0,0,1.594,1.594,1.6,1.6,0,0,0,1.594-1.594A1.6,1.6,0,0,0-1809.634-361.228Z" transform="translate(1820 372)"/><path class="e" d="M-1808.852-354.352a4.505,4.505,0,0,1-4.5-4.5,4.506,4.506,0,0,1,4.5-4.5,4.505,4.505,0,0,1,4.5,4.5A4.5,4.5,0,0,1-1808.852-354.352Zm-2.243-5.247a.748.748,0,0,0-.747.747.748.748,0,0,0,.747.747h1.5v1.494a.748.748,0,0,0,.747.747.748.748,0,0,0,.747-.747V-358.1h1.494a.748.748,0,0,0,.747-.747.748.748,0,0,0-.747-.747h-1.494v-1.5a.748.748,0,0,0-.747-.747.748.748,0,0,0-.747.747v1.5Z" transform="translate(1831 378)"/><rect class="c" width="24" height="24" transform="translate(4.648 4.648)"/></g><g transform="translate(531.352 755.354)"><path class="f" d="M-1804.723-346.352a1.583,1.583,0,0,1-1.127-.466l-7.035-7.035a1.605,1.605,0,0,1-.467-1.127v-6.778a1.6,1.6,0,0,1,1.594-1.594h6.778a1.6,1.6,0,0,1,1.127.467l3.886,3.886a6.5,6.5,0,0,0-4.384,6.148,6.438,6.438,0,0,0,2.051,4.739l-1.3,1.3A1.583,1.583,0,0,1-1804.723-346.352Zm-4.91-14.875a1.6,1.6,0,0,0-1.594,1.594,1.6,1.6,0,0,0,1.594,1.594,1.6,1.6,0,0,0,1.594-1.594A1.6,1.6,0,0,0-1809.634-361.228Z" transform="translate(1820 372)"/><path class="g" d="M-1808.852-354.352a4.505,4.505,0,0,1-4.5-4.5,4.506,4.506,0,0,1,4.5-4.5,4.505,4.505,0,0,1,4.5,4.5A4.5,4.5,0,0,1-1808.852-354.352Zm-2.243-5.247a.748.748,0,0,0-.747.747.748.748,0,0,0,.747.747h1.5v1.494a.748.748,0,0,0,.747.747.748.748,0,0,0,.747-.747V-358.1h1.494a.748.748,0,0,0,.747-.747.748.748,0,0,0-.747-.747h-1.494v-1.5a.748.748,0,0,0-.747-.747.748.748,0,0,0-.747.747v1.5Z" transform="translate(1831 378)"/><rect class="c" width="24" height="24" transform="translate(4.648 4.648)"/></g><g transform="translate(555.352 755.354)"><path class="h" d="M-1804.723-346.352a1.583,1.583,0,0,1-1.127-.466l-7.035-7.035a1.605,1.605,0,0,1-.467-1.127v-6.778a1.6,1.6,0,0,1,1.594-1.594h6.778a1.6,1.6,0,0,1,1.127.467l3.886,3.886a6.5,6.5,0,0,0-4.384,6.148,6.438,6.438,0,0,0,2.051,4.739l-1.3,1.3A1.583,1.583,0,0,1-1804.723-346.352Zm-4.91-14.875a1.6,1.6,0,0,0-1.594,1.594,1.6,1.6,0,0,0,1.594,1.594,1.6,1.6,0,0,0,1.594-1.594A1.6,1.6,0,0,0-1809.634-361.228Z" transform="translate(1820 372)"/><path class="i" d="M-1808.852-354.352a4.505,4.505,0,0,1-4.5-4.5,4.506,4.506,0,0,1,4.5-4.5,4.505,4.505,0,0,1,4.5,4.5A4.5,4.5,0,0,1-1808.852-354.352Zm-2.243-5.247a.748.748,0,0,0-.747.747.748.748,0,0,0,.747.747h1.5v1.494a.748.748,0,0,0,.747.747.748.748,0,0,0,.747-.747V-358.1h1.494a.748.748,0,0,0,.747-.747.748.748,0,0,0-.747-.747h-1.494v-1.5a.748.748,0,0,0-.747-.747.748.748,0,0,0-.747.747v1.5Z" transform="translate(1831 378)"/><rect class="c" width="24" height="24" transform="translate(4.648 4.648)"/></g></g></svg>