<svg xmlns="http://www.w3.org/2000/svg" width="96" height="24.001" viewBox="0 0 96 24.001"><defs><style>.a{fill:#55616d;}.b,.c,.e,.g{fill:none;}.b{stroke:#55616d;}.b,.e,.g{stroke-width:2.4px;}.d{fill:#818c98;}.e{stroke:#818c98;}.f{fill:#438dec;}.g{stroke:#438dec;}.h{opacity:0.3;}</style></defs><g transform="translate(-784 -526)"><g transform="translate(781.566 523.566)"><path class="a" d="M13.328,13.39a6.334,6.334,0,0,1,.651-5.636.725.725,0,0,1,1.285.154l3.506,9.632a6.334,6.334,0,0,1-5.441-4.15" transform="translate(-3.603 -2.068)"/><path class="a" d="M24.485,13.389a6.333,6.333,0,0,1-5.441,4.149L22.55,7.907a.725.725,0,0,1,1.285-.154,6.335,6.335,0,0,1,.651,5.637" transform="translate(-5.3 -2.068)"/><circle class="b" cx="3.248" cy="3.248" r="3.248" transform="translate(7.938 14.917)"/><circle class="b" cx="3.248" cy="3.248" r="3.248" transform="translate(14.433 14.917)"/><rect class="a" width="1.444" height="4.331" transform="translate(12.311 12.863) rotate(-19.993)"/><rect class="a" width="4.33" height="1.443" transform="matrix(0.342, -0.94, 0.94, 0.342, 13.754, 16.438)"/><rect class="c" width="24" height="24" transform="translate(2.433 2.433)"/></g><g transform="translate(805.566 523.566)"><path class="d" d="M13.328,13.39a6.334,6.334,0,0,1,.651-5.636.725.725,0,0,1,1.285.154l3.506,9.632a6.334,6.334,0,0,1-5.441-4.15" transform="translate(-3.603 -2.068)"/><path class="d" d="M24.485,13.389a6.333,6.333,0,0,1-5.441,4.149L22.55,7.907a.725.725,0,0,1,1.285-.154,6.335,6.335,0,0,1,.651,5.637" transform="translate(-5.3 -2.068)"/><circle class="e" cx="3.248" cy="3.248" r="3.248" transform="translate(7.938 14.917)"/><circle class="e" cx="3.248" cy="3.248" r="3.248" transform="translate(14.433 14.917)"/><rect class="d" width="1.444" height="4.331" transform="translate(12.311 12.863) rotate(-19.993)"/><rect class="d" width="4.33" height="1.443" transform="matrix(0.342, -0.94, 0.94, 0.342, 13.754, 16.438)"/><rect class="c" width="24" height="24" transform="translate(2.433 2.433)"/></g><g transform="translate(829.566 523.567)"><path class="f" d="M13.328,13.39a6.334,6.334,0,0,1,.651-5.636.725.725,0,0,1,1.285.154l3.506,9.632a6.334,6.334,0,0,1-5.441-4.15" transform="translate(-3.603 -2.068)"/><path class="f" d="M24.485,13.389a6.333,6.333,0,0,1-5.441,4.149L22.55,7.907a.725.725,0,0,1,1.285-.154,6.335,6.335,0,0,1,.651,5.637" transform="translate(-5.3 -2.068)"/><circle class="g" cx="3.248" cy="3.248" r="3.248" transform="translate(7.938 14.917)"/><circle class="g" cx="3.248" cy="3.248" r="3.248" transform="translate(14.433 14.917)"/><rect class="f" width="1.444" height="4.331" transform="translate(12.311 12.863) rotate(-19.993)"/><rect class="f" width="4.33" height="1.443" transform="matrix(0.342, -0.94, 0.94, 0.342, 13.754, 16.438)"/><rect class="c" width="24" height="24" transform="translate(2.433 2.433)"/></g><g class="h" transform="translate(853.566 523.567)"><path class="a" d="M13.328,13.39a6.334,6.334,0,0,1,.651-5.636.725.725,0,0,1,1.285.154l3.506,9.632a6.334,6.334,0,0,1-5.441-4.15" transform="translate(-3.603 -2.068)"/><path class="a" d="M24.485,13.389a6.333,6.333,0,0,1-5.441,4.149L22.55,7.907a.725.725,0,0,1,1.285-.154,6.335,6.335,0,0,1,.651,5.637" transform="translate(-5.3 -2.068)"/><circle class="b" cx="3.248" cy="3.248" r="3.248" transform="translate(7.938 14.917)"/><circle class="b" cx="3.248" cy="3.248" r="3.248" transform="translate(14.433 14.917)"/><rect class="a" width="1.444" height="4.331" transform="translate(12.311 12.863) rotate(-19.993)"/><rect class="a" width="4.33" height="1.443" transform="matrix(0.342, -0.94, 0.94, 0.342, 13.754, 16.438)"/><rect class="c" width="24" height="24" transform="translate(2.433 2.433)"/></g></g></svg>