<svg xmlns="http://www.w3.org/2000/svg" width="96" height="24" viewBox="0 0 96 24"><defs><style>.a{fill:#fff;}.a,.e{stroke:rgba(0,0,0,0);stroke-miterlimit:10;}.b{fill:none;}.c{fill:#aed1ff;}.d{fill:#438dec;}.e{fill:#cecece;opacity:0.5;}</style></defs><g transform="translate(-247.999 -824.001)"><g transform="translate(243.352 819.354)"><path class="a" d="M0,8.371V1.594A1.594,1.594,0,0,1,1.594,0H8.371A1.594,1.594,0,0,1,9.5.467L16.533,7.5a1.594,1.594,0,0,1,0,2.254L9.756,16.533a1.594,1.594,0,0,1-2.254,0L.467,9.5A1.594,1.594,0,0,1,0,8.371M3.719,2.125A1.594,1.594,0,1,0,5.313,3.719,1.594,1.594,0,0,0,3.719,2.125" transform="translate(8.648 8.648)"/><rect class="b" width="24" height="24" transform="translate(4.648 4.648)"/></g><g transform="translate(267.352 819.354)"><path class="c" d="M0,8.371V1.594A1.594,1.594,0,0,1,1.594,0H8.371A1.594,1.594,0,0,1,9.5.467L16.533,7.5a1.594,1.594,0,0,1,0,2.254L9.756,16.533a1.594,1.594,0,0,1-2.254,0L.467,9.5A1.594,1.594,0,0,1,0,8.371M3.719,2.125A1.594,1.594,0,1,0,5.313,3.719,1.594,1.594,0,0,0,3.719,2.125" transform="translate(8.648 8.648)"/><rect class="b" width="24" height="24" transform="translate(4.648 4.648)"/></g><g transform="translate(291.352 819.354)"><path class="d" d="M0,8.371V1.594A1.594,1.594,0,0,1,1.594,0H8.371A1.594,1.594,0,0,1,9.5.467L16.533,7.5a1.594,1.594,0,0,1,0,2.254L9.756,16.533a1.594,1.594,0,0,1-2.254,0L.467,9.5A1.594,1.594,0,0,1,0,8.371M3.719,2.125A1.594,1.594,0,1,0,5.313,3.719,1.594,1.594,0,0,0,3.719,2.125" transform="translate(8.648 8.648)"/><rect class="b" width="24" height="24" transform="translate(4.648 4.648)"/></g><g transform="translate(315.352 819.354)"><path class="e" d="M0,8.371V1.594A1.594,1.594,0,0,1,1.594,0H8.371A1.594,1.594,0,0,1,9.5.467L16.533,7.5a1.594,1.594,0,0,1,0,2.254L9.756,16.533a1.594,1.594,0,0,1-2.254,0L.467,9.5A1.594,1.594,0,0,1,0,8.371M3.719,2.125A1.594,1.594,0,1,0,5.313,3.719,1.594,1.594,0,0,0,3.719,2.125" transform="translate(8.648 8.648)"/><rect class="b" width="24" height="24" transform="translate(4.648 4.648)"/></g></g></svg>