<svg xmlns="http://www.w3.org/2000/svg" xmlns:xlink="http://www.w3.org/1999/xlink" width="96" height="24.001" viewBox="0 0 96 24.001"><defs><style>.a{fill:none;}.b{clip-path:url(#a);}.c{fill:#55616d;}.d{fill:#818c98;}.e{fill:#438dec;}.f{opacity:0.3;}</style><clipPath id="a"><rect class="a" width="24" height="24" transform="translate(2.288 2.288)"/></clipPath></defs><g transform="translate(-664.001 -590)"><g transform="translate(661.713 587.712)"><g class="b"><path class="c" d="M17.579,17.553,13.7,13.329a.786.786,0,0,1,.58-1.318l1.8,0V8.306a.786.786,0,0,1,.786-.786H19.3a.786.786,0,0,1,.786.786v3.722l1.924.005a.786.786,0,0,1,.577,1.317l-3.855,4.2a.786.786,0,0,1-1.158,0" transform="translate(-3.852 -2.148)"/><path class="c" d="M23.745,22.9H9.172A1.572,1.572,0,0,0,7.6,24.472v3.143a1.572,1.572,0,0,0,1.572,1.572H23.745a1.572,1.572,0,0,0,1.572-1.572V24.472A1.572,1.572,0,0,0,23.745,22.9M11.458,26.793a.786.786,0,0,1-.786.786h-.357a.785.785,0,0,1-.786-.786v-1.5a.785.785,0,0,1,.786-.786h.357a.786.786,0,0,1,.786.786Zm3.215,0a.785.785,0,0,1-.786.786h-.357a.785.785,0,0,1-.786-.786v-1.5a.785.785,0,0,1,.786-.786h.357a.785.785,0,0,1,.786.786Zm8.716-.643a.786.786,0,0,1-.786.786h-.357a.785.785,0,0,1-.786-.786v-.214a.785.785,0,0,1,.786-.786H22.6a.786.786,0,0,1,.786.786Z" transform="translate(-2.171 -6.54)"/></g></g><g transform="translate(685.713 587.712)"><path class="d" d="M17.579,17.553,13.7,13.329a.786.786,0,0,1,.58-1.318l1.8,0V8.306a.786.786,0,0,1,.786-.786H19.3a.786.786,0,0,1,.786.786v3.722l1.924.005a.786.786,0,0,1,.577,1.317l-3.855,4.2a.786.786,0,0,1-1.158,0" transform="translate(-3.854 -2.147)"/><path class="d" d="M23.745,22.9H9.172A1.572,1.572,0,0,0,7.6,24.472v3.143a1.572,1.572,0,0,0,1.572,1.572H23.745a1.572,1.572,0,0,0,1.572-1.572V24.472A1.572,1.572,0,0,0,23.745,22.9M11.458,26.793a.786.786,0,0,1-.786.786h-.357a.785.785,0,0,1-.786-.786v-1.5a.785.785,0,0,1,.786-.786h.357a.786.786,0,0,1,.786.786Zm3.215,0a.785.785,0,0,1-.786.786h-.357a.785.785,0,0,1-.786-.786v-1.5a.785.785,0,0,1,.786-.786h.357a.785.785,0,0,1,.786.786Zm8.716-.643a.786.786,0,0,1-.786.786h-.357a.785.785,0,0,1-.786-.786v-.214a.785.785,0,0,1,.786-.786H22.6a.786.786,0,0,1,.786.786Z" transform="translate(-2.172 -6.54)"/><rect class="a" width="24" height="24" transform="translate(2.287 2.288)"/></g><g transform="translate(709.713 587.713)"><g class="b"><path class="e" d="M17.579,17.553,13.7,13.329a.786.786,0,0,1,.58-1.318l1.8,0V8.306a.786.786,0,0,1,.786-.786H19.3a.786.786,0,0,1,.786.786v3.722l1.924.005a.786.786,0,0,1,.577,1.317l-3.855,4.2a.786.786,0,0,1-1.158,0" transform="translate(-3.852 -2.148)"/><path class="e" d="M23.745,22.9H9.172A1.572,1.572,0,0,0,7.6,24.472v3.143a1.572,1.572,0,0,0,1.572,1.572H23.745a1.572,1.572,0,0,0,1.572-1.572V24.472A1.572,1.572,0,0,0,23.745,22.9M11.458,26.793a.786.786,0,0,1-.786.786h-.357a.785.785,0,0,1-.786-.786v-1.5a.785.785,0,0,1,.786-.786h.357a.786.786,0,0,1,.786.786Zm3.215,0a.785.785,0,0,1-.786.786h-.357a.785.785,0,0,1-.786-.786v-1.5a.785.785,0,0,1,.786-.786h.357a.785.785,0,0,1,.786.786Zm8.716-.643a.786.786,0,0,1-.786.786h-.357a.785.785,0,0,1-.786-.786v-.214a.785.785,0,0,1,.786-.786H22.6a.786.786,0,0,1,.786.786Z" transform="translate(-2.171 -6.54)"/></g></g><g class="f" transform="translate(733.713 587.713)"><g class="b"><path class="c" d="M17.579,17.553,13.7,13.329a.786.786,0,0,1,.58-1.318l1.8,0V8.306a.786.786,0,0,1,.786-.786H19.3a.786.786,0,0,1,.786.786v3.722l1.924.005a.786.786,0,0,1,.577,1.317l-3.855,4.2a.786.786,0,0,1-1.158,0" transform="translate(-3.852 -2.148)"/><path class="c" d="M23.745,22.9H9.172A1.572,1.572,0,0,0,7.6,24.472v3.143a1.572,1.572,0,0,0,1.572,1.572H23.745a1.572,1.572,0,0,0,1.572-1.572V24.472A1.572,1.572,0,0,0,23.745,22.9M11.458,26.793a.786.786,0,0,1-.786.786h-.357a.785.785,0,0,1-.786-.786v-1.5a.785.785,0,0,1,.786-.786h.357a.786.786,0,0,1,.786.786Zm3.215,0a.785.785,0,0,1-.786.786h-.357a.785.785,0,0,1-.786-.786v-1.5a.785.785,0,0,1,.786-.786h.357a.785.785,0,0,1,.786.786Zm8.716-.643a.786.786,0,0,1-.786.786h-.357a.785.785,0,0,1-.786-.786v-.214a.785.785,0,0,1,.786-.786H22.6a.786.786,0,0,1,.786.786Z" transform="translate(-2.171 -6.54)"/></g></g></g></svg>