<?xml version="1.0" encoding="utf-8"?>
<!-- Generator: Adobe Illustrator 21.0.0, SVG Export Plug-In . SVG Version: 6.00 Build 0)  -->
<svg version="1.1" id="图层_1" xmlns="http://www.w3.org/2000/svg" xmlns:xlink="http://www.w3.org/1999/xlink" x="0px" y="0px"
	 viewBox="0 0 192 48" style="enable-background:new 0 0 192 48;" xml:space="preserve">
<style type="text/css">
	.st0{fill:none;}
	.st1{fill:#DCE8F6;}
	.st2{fill:#336ED3;}
	.st3{fill:#FFFFFF;}
</style>
<rect class="st0" width="48" height="48"/>
<rect x="48" class="st0" width="48" height="48"/>
<rect x="96" class="st0" width="48" height="48"/>
<rect x="144" class="st0" width="48" height="48"/>
<g>
	<path class="st1" d="M82,42H62c-4.4,0-8-3.6-8-8V14c0-4.4,3.6-8,8-8h20c4.4,0,8,3.6,8,8v20C90,38.4,86.4,42,82,42"/>
	<path class="st2" d="M130,42h-20c-4.4,0-8-3.6-8-8V14c0-4.4,3.6-8,8-8h20c4.4,0,8,3.6,8,8v20C138,38.4,134.4,42,130,42"/>
</g>
<g>
	<g>
		<g>
			<path class="st2" d="M21,23.6L21,23.6c0.8-0.4,1.5-1,1.9-1.6c0.4-0.7,0.7-1.3,0.7-2c0-1.1-0.5-2.1-1.4-2.8
				C21.2,16.4,20,16,18.5,16c-1.5,0-2.7,0.4-3.6,1.2c-1,0.8-1.4,1.7-1.4,2.9c0,0.8,0.2,1.4,0.6,2c0.4,0.5,1,1,1.8,1.4v0.1
				c-0.9,0.4-1.6,1-2.1,1.6c-0.5,0.7-0.7,1.5-0.7,2.3c0,1.3,0.5,2.4,1.5,3.3c1,0.9,2.3,1.3,4,1.3c1.6,0,2.9-0.4,3.9-1.3
				c1-0.9,1.6-2,1.6-3.3c0-0.9-0.3-1.7-0.8-2.3C22.7,24.5,21.9,24,21,23.6z M15.5,19.8c0-0.7,0.3-1.3,0.8-1.7
				c0.6-0.4,1.3-0.6,2.1-0.6c0.9,0,1.6,0.2,2.2,0.7c0.6,0.4,0.9,1,0.9,1.8c0,0.6-0.1,1.2-0.4,1.7c-0.3,0.5-0.7,1-1.4,1.4
				c-0.5-0.1-0.9-0.3-1.4-0.5c-0.5-0.2-0.8-0.4-1.1-0.5c-0.6-0.3-1-0.6-1.3-1C15.6,20.7,15.5,20.3,15.5,19.8z M20.9,29.7
				c-0.6,0.5-1.4,0.8-2.4,0.8c-1,0-1.8-0.3-2.4-0.9c-0.6-0.6-1-1.4-1-2.3c0-0.7,0.2-1.4,0.6-2c0.4-0.6,0.9-1,1.5-1.4
				c0.6,0.2,1.2,0.4,1.5,0.5c0.4,0.1,0.7,0.3,1.1,0.4c0.8,0.4,1.4,0.8,1.6,1.1c0.3,0.4,0.4,0.9,0.4,1.5
				C21.8,28.5,21.5,29.2,20.9,29.7z M35.4,21h-2.1l-3,4.6h0c-0.2-0.3-0.3-0.6-0.5-0.9L27.4,21h-2.2l3.9,5.6L25,32h2.2l2.4-3.6
				c0.3-0.5,0.5-0.8,0.6-0.8h0c0.2,0.3,0.4,0.6,0.5,0.8l2.4,3.6h2.2l-4-5.4L35.4,21z"/>
		</g>
	</g>
	<g>
		<g>
			<path class="st2" d="M69,23.6L69,23.6c0.8-0.4,1.5-1,1.9-1.6c0.4-0.7,0.7-1.3,0.7-2c0-1.1-0.5-2.1-1.4-2.8
				C69.2,16.4,68,16,66.5,16c-1.5,0-2.7,0.4-3.6,1.2c-1,0.8-1.4,1.7-1.4,2.9c0,0.8,0.2,1.4,0.6,2c0.4,0.5,1,1,1.8,1.4v0.1
				c-0.9,0.4-1.6,1-2.1,1.6c-0.5,0.7-0.7,1.5-0.7,2.3c0,1.3,0.5,2.4,1.5,3.3c1,0.9,2.3,1.3,4,1.3c1.6,0,2.9-0.4,3.9-1.3
				c1-0.9,1.6-2,1.6-3.3c0-0.9-0.3-1.7-0.8-2.3C70.7,24.5,69.9,24,69,23.6z M63.5,19.8c0-0.7,0.3-1.3,0.8-1.7
				c0.6-0.4,1.3-0.6,2.1-0.6c0.9,0,1.6,0.2,2.2,0.7c0.6,0.4,0.9,1,0.9,1.8c0,0.6-0.1,1.2-0.4,1.7c-0.3,0.5-0.7,1-1.4,1.4
				c-0.5-0.1-0.9-0.3-1.4-0.5c-0.5-0.2-0.8-0.4-1.1-0.5c-0.6-0.3-1-0.6-1.3-1C63.6,20.7,63.5,20.3,63.5,19.8z M68.9,29.7
				c-0.6,0.5-1.4,0.8-2.4,0.8c-1,0-1.8-0.3-2.4-0.9c-0.6-0.6-1-1.4-1-2.3c0-0.7,0.2-1.4,0.6-2c0.4-0.6,0.9-1,1.5-1.4
				c0.6,0.2,1.2,0.4,1.5,0.5c0.4,0.1,0.7,0.3,1.1,0.4c0.8,0.4,1.4,0.8,1.6,1.1c0.3,0.4,0.4,0.9,0.4,1.5
				C69.8,28.5,69.5,29.2,68.9,29.7z M83.4,21h-2.1l-3,4.6h0c-0.2-0.3-0.3-0.6-0.5-0.9L75.4,21h-2.2l3.9,5.6L73,32h2.2l2.4-3.6
				c0.3-0.5,0.5-0.8,0.6-0.8h0c0.2,0.3,0.4,0.6,0.5,0.8l2.4,3.6h2.2l-4-5.4L83.4,21z"/>
		</g>
	</g>
	<g>
		<g>
			<path class="st3" d="M117,23.6L117,23.6c0.8-0.4,1.5-1,1.9-1.6c0.4-0.7,0.7-1.3,0.7-2c0-1.1-0.5-2.1-1.4-2.8
				c-0.9-0.7-2.1-1.1-3.7-1.1c-1.5,0-2.7,0.4-3.6,1.2c-1,0.8-1.4,1.7-1.4,2.9c0,0.8,0.2,1.4,0.6,2c0.4,0.5,1,1,1.8,1.4v0.1
				c-0.9,0.4-1.6,1-2.1,1.6c-0.5,0.7-0.7,1.5-0.7,2.3c0,1.3,0.5,2.4,1.5,3.3c1,0.9,2.3,1.3,4,1.3c1.6,0,2.9-0.4,3.9-1.3
				c1-0.9,1.6-2,1.6-3.3c0-0.9-0.3-1.7-0.8-2.3C118.7,24.5,117.9,24,117,23.6z M111.5,19.8c0-0.7,0.3-1.3,0.8-1.7
				c0.6-0.4,1.3-0.6,2.1-0.6c0.9,0,1.6,0.2,2.2,0.7c0.6,0.4,0.9,1,0.9,1.8c0,0.6-0.1,1.2-0.4,1.7c-0.3,0.5-0.7,1-1.4,1.4
				c-0.5-0.1-0.9-0.3-1.4-0.5c-0.5-0.2-0.8-0.4-1.1-0.5c-0.6-0.3-1-0.6-1.3-1C111.6,20.7,111.5,20.3,111.5,19.8z M116.9,29.7
				c-0.6,0.5-1.4,0.8-2.4,0.8c-1,0-1.8-0.3-2.4-0.9c-0.6-0.6-1-1.4-1-2.3c0-0.7,0.2-1.4,0.6-2c0.4-0.6,0.9-1,1.5-1.4
				c0.6,0.2,1.2,0.4,1.5,0.5c0.4,0.1,0.7,0.3,1.1,0.4c0.8,0.4,1.4,0.8,1.6,1.1c0.3,0.4,0.4,0.9,0.4,1.5
				C117.8,28.5,117.5,29.2,116.9,29.7z M131.4,21h-2.1l-3,4.6h0c-0.2-0.3-0.3-0.6-0.5-0.9l-2.3-3.8h-2.2l3.9,5.6L121,32h2.2l2.4-3.6
				c0.3-0.5,0.5-0.8,0.6-0.8h0c0.2,0.3,0.4,0.6,0.5,0.8l2.4,3.6h2.2l-4-5.4L131.4,21z"/>
		</g>
	</g>
	<g>
		<g>
			<path class="st2" d="M165,23.6L165,23.6c0.8-0.4,1.5-1,1.9-1.6c0.4-0.7,0.7-1.3,0.7-2c0-1.1-0.5-2.1-1.4-2.8
				c-0.9-0.7-2.1-1.1-3.7-1.1c-1.5,0-2.7,0.4-3.6,1.2c-1,0.8-1.4,1.7-1.4,2.9c0,0.8,0.2,1.4,0.6,2c0.4,0.5,1,1,1.8,1.4v0.1
				c-0.9,0.4-1.6,1-2.1,1.6c-0.5,0.7-0.7,1.5-0.7,2.3c0,1.3,0.5,2.4,1.5,3.3c1,0.9,2.3,1.3,4,1.3c1.6,0,2.9-0.4,3.9-1.3
				c1-0.9,1.6-2,1.6-3.3c0-0.9-0.3-1.7-0.8-2.3C166.7,24.5,165.9,24,165,23.6z M159.5,19.8c0-0.7,0.3-1.3,0.8-1.7
				c0.6-0.4,1.3-0.6,2.1-0.6c0.9,0,1.6,0.2,2.2,0.7c0.6,0.4,0.9,1,0.9,1.8c0,0.6-0.1,1.2-0.4,1.7c-0.3,0.5-0.7,1-1.4,1.4
				c-0.5-0.1-0.9-0.3-1.4-0.5c-0.5-0.2-0.8-0.4-1.1-0.5c-0.6-0.3-1-0.6-1.3-1C159.6,20.7,159.5,20.3,159.5,19.8z M164.9,29.7
				c-0.6,0.5-1.4,0.8-2.4,0.8c-1,0-1.8-0.3-2.4-0.9c-0.6-0.6-1-1.4-1-2.3c0-0.7,0.2-1.4,0.6-2c0.4-0.6,0.9-1,1.5-1.4
				c0.6,0.2,1.2,0.4,1.5,0.5c0.4,0.1,0.7,0.3,1.1,0.4c0.8,0.4,1.4,0.8,1.6,1.1c0.3,0.4,0.4,0.9,0.4,1.5
				C165.8,28.5,165.5,29.2,164.9,29.7z M179.4,21h-2.1l-3,4.6h0c-0.2-0.3-0.3-0.6-0.5-0.9l-2.3-3.8h-2.2l3.9,5.6L169,32h2.2l2.4-3.6
				c0.3-0.5,0.5-0.8,0.6-0.8h0c0.2,0.3,0.4,0.6,0.5,0.8l2.4,3.6h2.2l-4-5.4L179.4,21z"/>
		</g>
	</g>
</g>
</svg>
