<?xml version="1.0" encoding="utf-8"?>
<!-- Generator: Adobe Illustrator 21.0.0, SVG Export Plug-In . SVG Version: 6.00 Build 0)  -->
<svg version="1.1" id="图层_1" xmlns="http://www.w3.org/2000/svg" xmlns:xlink="http://www.w3.org/1999/xlink" x="0px" y="0px"
	 viewBox="0 0 192 48" style="enable-background:new 0 0 192 48;" xml:space="preserve">
<style type="text/css">
	.st0{fill:none;}
	.st1{fill:#DCE8F6;}
	.st2{fill:#336ED3;}
	.st3{fill:#FFFFFF;}
	.st4{fill:#9C9C9C;}
</style>
<rect class="st0" width="48" height="48"/>
<rect x="48" class="st0" width="48" height="48"/>
<rect x="96" class="st0" width="48" height="48"/>
<rect x="144" class="st0" width="48" height="48"/>
<g>
	<path class="st1" d="M82,42H62c-4.4,0-8-3.6-8-8V14c0-4.4,3.6-8,8-8h20c4.4,0,8,3.6,8,8v20C90,38.4,86.4,42,82,42"/>
	<path class="st2" d="M130,42h-20c-4.4,0-8-3.6-8-8V14c0-4.4,3.6-8,8-8h20c4.4,0,8,3.6,8,8v20C138,38.4,134.4,42,130,42"/>
</g>
<g>
	<g>
		<g>
			<path class="st2" d="M21.9,16h-1.8L12,24.5V27h8v5h1.8v-5h2.2v-1.9h-2.2V16z M20,25.1h-6.6l6.6-6.7V25.1z M35,21h-2.1l-3,4.6h0
				c-0.2-0.3-0.3-0.6-0.5-0.9L26.9,21h-2.3l3.9,5.6L24.5,32h2.2l2.4-3.6c0.3-0.5,0.5-0.8,0.6-0.8h0c0.2,0.3,0.4,0.6,0.5,0.8l2.4,3.6
				h2.3l-4-5.4L35,21z"/>
		</g>
	</g>
	<g>
		<g>
			<path class="st2" d="M69.9,16h-1.8L60,24.5V27h8v5h1.8v-5h2.2v-1.9h-2.2V16z M68,25.1h-6.6l6.6-6.7V25.1z M83,21h-2.1l-3,4.6h0
				c-0.2-0.3-0.3-0.6-0.5-0.9L74.9,21h-2.3l3.9,5.6L72.5,32h2.2l2.4-3.6c0.3-0.5,0.5-0.8,0.6-0.8h0c0.2,0.3,0.4,0.6,0.5,0.8l2.4,3.6
				h2.3l-4-5.4L83,21z"/>
		</g>
	</g>
	<g>
		<g>
			<path class="st3" d="M117.9,16h-1.8l-8.1,8.5V27h8v5h1.8v-5h2.2v-1.9h-2.2V16z M116,25.1h-6.6l6.6-6.7V25.1z M131,21h-2.1l-3,4.6
				h0c-0.2-0.3-0.3-0.6-0.5-0.9l-2.3-3.8h-2.3l3.9,5.6l-4.1,5.4h2.2l2.4-3.6c0.3-0.5,0.5-0.8,0.6-0.8h0c0.2,0.3,0.4,0.6,0.5,0.8
				l2.4,3.6h2.3l-4-5.4L131,21z"/>
		</g>
	</g>
	<g>
		<g>
			<path class="st4" d="M165.9,16h-1.8l-8.1,8.5V27h8v5h1.8v-5h2.2v-1.9h-2.2V16z M164,25.1h-6.6l6.6-6.7V25.1z M179,21h-2.1l-3,4.6
				h0c-0.2-0.3-0.3-0.6-0.5-0.9l-2.3-3.8h-2.3l3.9,5.6l-4.1,5.4h2.2l2.4-3.6c0.3-0.5,0.5-0.8,0.6-0.8h0c0.2,0.3,0.4,0.6,0.5,0.8
				l2.4,3.6h2.3l-4-5.4L179,21z"/>
		</g>
	</g>
</g>
</svg>
