<?xml version="1.0" encoding="utf-8"?>
<!-- Generator: Adobe Illustrator 21.0.0, SVG Export Plug-In . SVG Version: 6.00 Build 0)  -->
<svg version="1.1" id="图层_1" xmlns="http://www.w3.org/2000/svg" xmlns:xlink="http://www.w3.org/1999/xlink" x="0px" y="0px"
	 viewBox="0 0 192 48" style="enable-background:new 0 0 192 48;" xml:space="preserve">
<style type="text/css">
	.st0{fill:none;}
	.st1{fill:#DCE8F6;}
	.st2{fill:#336ED3;}
	.st3{fill:#FFFFFF;}
	.st4{fill:#9C9C9C;}
</style>
<rect class="st0" width="48" height="48"/>
<rect x="48" class="st0" width="48" height="48"/>
<rect x="96" class="st0" width="48" height="48"/>
<rect x="144" class="st0" width="48" height="48"/>
<g>
	<path class="st1" d="M82,42H62c-4.4,0-8-3.6-8-8V14c0-4.4,3.6-8,8-8h20c4.4,0,8,3.6,8,8v20C90,38.4,86.4,42,82,42"/>
	<path class="st2" d="M130,42h-20c-4.4,0-8-3.6-8-8V14c0-4.4,3.6-8,8-8h20c4.4,0,8,3.6,8,8v20C138,38.4,134.4,42,130,42"/>
</g>
<g>
	<g>
		<g>
			<path class="st2" d="M13,16.7c-0.4,0.2-0.8,0.5-1.3,0.7c-0.5,0.2-0.9,0.4-1.4,0.6c-0.5,0.2-0.9,0.3-1.3,0.4v1.8
				c0.4-0.1,0.8-0.2,1.2-0.4c0.4-0.2,0.8-0.3,1.1-0.5c0.4-0.2,0.7-0.3,1-0.5c0.3-0.2,0.5-0.3,0.7-0.5v13.3h1.9V16h-0.7
				C13.8,16.2,13.4,16.5,13,16.7z M25.7,22.9c-0.5-0.4-1-0.6-1.5-0.7c-0.5-0.1-1-0.2-1.7-0.2c-0.7,0-1.3,0.1-1.9,0.3
				c-0.5,0.2-1.1,0.4-1.6,0.8c0.1-1.6,0.6-2.8,1.5-3.7c0.8-0.9,2-1.4,3.4-1.4c0.4,0,0.8,0,1.1,0.1c0.4,0.1,0.6,0.2,0.8,0.3H26v-2
				c-0.3-0.1-0.5-0.2-0.8-0.2c-0.3,0-0.6-0.1-1-0.1c-1.2,0-2.3,0.2-3.2,0.7c-0.9,0.4-1.7,1-2.2,1.8c-0.6,0.8-1.1,1.7-1.3,2.8
				c-0.3,1-0.4,2.2-0.4,3.6c0,1.3,0.2,2.4,0.5,3.4c0.3,0.9,0.7,1.7,1.3,2.3c0.5,0.5,1,0.8,1.6,1c0.6,0.2,1.2,0.3,2,0.3
				c1.4,0,2.6-0.5,3.6-1.5c1-1,1.5-2.2,1.5-3.8c0-0.9-0.1-1.7-0.4-2.3C26.7,23.8,26.3,23.3,25.7,22.9z M24.6,29.5
				c-0.5,0.6-1.3,0.9-2.2,0.9c-0.4,0-0.8-0.1-1.1-0.2c-0.4-0.1-0.7-0.4-1-0.7c-0.4-0.4-0.7-0.9-0.9-1.5c-0.2-0.6-0.3-1.5-0.3-2.6
				c0-0.2,0-0.4,0-0.5c0-0.1,0-0.3,0-0.4c0.5-0.3,1-0.5,1.5-0.6c0.5-0.1,1-0.2,1.6-0.2c0.4,0,0.8,0,1.2,0.1c0.4,0.1,0.7,0.2,1,0.4
				c0.4,0.3,0.7,0.7,0.9,1.1c0.2,0.4,0.3,0.9,0.3,1.6C25.4,28,25.1,28.9,24.6,29.5z M38.7,21h-2.1l-3,4.6h0
				c-0.2-0.3-0.3-0.6-0.5-0.9L30.7,21h-2.2l3.9,5.6L28.3,32h2.2l2.4-3.6c0.3-0.5,0.5-0.8,0.6-0.8h0c0.2,0.3,0.4,0.6,0.5,0.8l2.4,3.6
				h2.2l-4-5.4L38.7,21z"/>
		</g>
	</g>
	<g>
		<g>
			<path class="st2" d="M61,16.7c-0.4,0.2-0.8,0.5-1.3,0.7c-0.5,0.2-0.9,0.4-1.4,0.6c-0.5,0.2-0.9,0.3-1.3,0.4v1.8
				c0.4-0.1,0.8-0.2,1.2-0.4c0.4-0.2,0.8-0.3,1.1-0.5c0.4-0.2,0.7-0.3,1-0.5c0.3-0.2,0.5-0.3,0.7-0.5v13.3h1.9V16h-0.7
				C61.8,16.2,61.4,16.5,61,16.7z M73.7,22.9c-0.5-0.4-1-0.6-1.5-0.7c-0.5-0.1-1-0.2-1.7-0.2c-0.7,0-1.3,0.1-1.9,0.3
				c-0.5,0.2-1.1,0.4-1.6,0.8c0.1-1.6,0.6-2.8,1.5-3.7c0.8-0.9,2-1.4,3.4-1.4c0.4,0,0.8,0,1.1,0.1c0.4,0.1,0.6,0.2,0.8,0.3H74v-2
				c-0.3-0.1-0.5-0.2-0.8-0.2c-0.3,0-0.6-0.1-1-0.1c-1.2,0-2.3,0.2-3.2,0.7c-0.9,0.4-1.7,1-2.2,1.8c-0.6,0.8-1.1,1.7-1.3,2.8
				c-0.3,1-0.4,2.2-0.4,3.6c0,1.3,0.2,2.4,0.5,3.4c0.3,0.9,0.7,1.7,1.3,2.3c0.5,0.5,1,0.8,1.6,1c0.6,0.2,1.2,0.3,2,0.3
				c1.4,0,2.6-0.5,3.6-1.5c1-1,1.5-2.2,1.5-3.8c0-0.9-0.1-1.7-0.4-2.3C74.7,23.8,74.3,23.3,73.7,22.9z M72.6,29.5
				c-0.5,0.6-1.3,0.9-2.2,0.9c-0.4,0-0.8-0.1-1.1-0.2c-0.4-0.1-0.7-0.4-1-0.7c-0.4-0.4-0.7-0.9-0.9-1.5c-0.2-0.6-0.3-1.5-0.3-2.6
				c0-0.2,0-0.4,0-0.5c0-0.1,0-0.3,0-0.4c0.5-0.3,1-0.5,1.5-0.6c0.5-0.1,1-0.2,1.6-0.2c0.4,0,0.8,0,1.2,0.1c0.4,0.1,0.7,0.2,1,0.4
				c0.4,0.3,0.7,0.7,0.9,1.1c0.2,0.4,0.3,0.9,0.3,1.6C73.4,28,73.1,28.9,72.6,29.5z M86.7,21h-2.1l-3,4.6h0
				c-0.2-0.3-0.3-0.6-0.5-0.9L78.7,21h-2.2l3.9,5.6L76.3,32h2.2l2.4-3.6c0.3-0.5,0.5-0.8,0.6-0.8h0c0.2,0.3,0.4,0.6,0.5,0.8l2.4,3.6
				h2.2l-4-5.4L86.7,21z"/>
		</g>
	</g>
	<g>
		<g>
			<path class="st3" d="M109,16.7c-0.4,0.2-0.8,0.5-1.3,0.7c-0.5,0.2-0.9,0.4-1.4,0.6c-0.5,0.2-0.9,0.3-1.3,0.4v1.8
				c0.4-0.1,0.8-0.2,1.2-0.4c0.4-0.2,0.8-0.3,1.1-0.5c0.4-0.2,0.7-0.3,1-0.5c0.3-0.2,0.5-0.3,0.7-0.5v13.3h1.9V16h-0.7
				C109.8,16.2,109.4,16.5,109,16.7z M121.7,22.9c-0.5-0.4-1-0.6-1.5-0.7c-0.5-0.1-1-0.2-1.7-0.2c-0.7,0-1.3,0.1-1.9,0.3
				c-0.5,0.2-1.1,0.4-1.6,0.8c0.1-1.6,0.6-2.8,1.5-3.7c0.8-0.9,2-1.4,3.4-1.4c0.4,0,0.8,0,1.1,0.1c0.4,0.1,0.6,0.2,0.8,0.3h0.1v-2
				c-0.3-0.1-0.5-0.2-0.8-0.2c-0.3,0-0.6-0.1-1-0.1c-1.2,0-2.3,0.2-3.2,0.7c-0.9,0.4-1.7,1-2.2,1.8c-0.6,0.8-1.1,1.7-1.3,2.8
				c-0.3,1-0.4,2.2-0.4,3.6c0,1.3,0.2,2.4,0.5,3.4c0.3,0.9,0.7,1.7,1.3,2.3c0.5,0.5,1,0.8,1.6,1c0.6,0.2,1.2,0.3,2,0.3
				c1.4,0,2.6-0.5,3.6-1.5c1-1,1.5-2.2,1.5-3.8c0-0.9-0.1-1.7-0.4-2.3C122.7,23.8,122.3,23.3,121.7,22.9z M120.6,29.5
				c-0.5,0.6-1.3,0.9-2.2,0.9c-0.4,0-0.8-0.1-1.1-0.2c-0.4-0.1-0.7-0.4-1-0.7c-0.4-0.4-0.7-0.9-0.9-1.5c-0.2-0.6-0.3-1.5-0.3-2.6
				c0-0.2,0-0.4,0-0.5c0-0.1,0-0.3,0-0.4c0.5-0.3,1-0.5,1.5-0.6c0.5-0.1,1-0.2,1.6-0.2c0.4,0,0.8,0,1.2,0.1c0.4,0.1,0.7,0.2,1,0.4
				c0.4,0.3,0.7,0.7,0.9,1.1c0.2,0.4,0.3,0.9,0.3,1.6C121.4,28,121.1,28.9,120.6,29.5z M134.7,21h-2.1l-3,4.6h0
				c-0.2-0.3-0.3-0.6-0.5-0.9l-2.3-3.8h-2.2l3.9,5.6l-4.1,5.4h2.2l2.4-3.6c0.3-0.5,0.5-0.8,0.6-0.8h0c0.2,0.3,0.4,0.6,0.5,0.8
				l2.4,3.6h2.2l-4-5.4L134.7,21z"/>
		</g>
	</g>
	<g>
		<g>
			<path class="st4" d="M157,16.7c-0.4,0.2-0.8,0.5-1.3,0.7c-0.5,0.2-0.9,0.4-1.4,0.6c-0.5,0.2-0.9,0.3-1.3,0.4v1.8
				c0.4-0.1,0.8-0.2,1.2-0.4c0.4-0.2,0.8-0.3,1.1-0.5c0.4-0.2,0.7-0.3,1-0.5c0.3-0.2,0.5-0.3,0.7-0.5v13.3h1.9V16h-0.7
				C157.8,16.2,157.4,16.5,157,16.7z M169.7,22.9c-0.5-0.4-1-0.6-1.5-0.7c-0.5-0.1-1-0.2-1.7-0.2c-0.7,0-1.3,0.1-1.9,0.3
				c-0.5,0.2-1.1,0.4-1.6,0.8c0.1-1.6,0.6-2.8,1.5-3.7c0.8-0.9,2-1.4,3.4-1.4c0.4,0,0.8,0,1.1,0.1c0.4,0.1,0.6,0.2,0.8,0.3h0.1v-2
				c-0.3-0.1-0.5-0.2-0.8-0.2c-0.3,0-0.6-0.1-1-0.1c-1.2,0-2.3,0.2-3.2,0.7c-0.9,0.4-1.7,1-2.2,1.8c-0.6,0.8-1.1,1.7-1.3,2.8
				c-0.3,1-0.4,2.2-0.4,3.6c0,1.3,0.2,2.4,0.5,3.4c0.3,0.9,0.7,1.7,1.3,2.3c0.5,0.5,1,0.8,1.6,1c0.6,0.2,1.2,0.3,2,0.3
				c1.4,0,2.6-0.5,3.6-1.5c1-1,1.5-2.2,1.5-3.8c0-0.9-0.1-1.7-0.4-2.3C170.7,23.8,170.3,23.3,169.7,22.9z M168.6,29.5
				c-0.5,0.6-1.3,0.9-2.2,0.9c-0.4,0-0.8-0.1-1.1-0.2c-0.4-0.1-0.7-0.4-1-0.7c-0.4-0.4-0.7-0.9-0.9-1.5c-0.2-0.6-0.3-1.5-0.3-2.6
				c0-0.2,0-0.4,0-0.5c0-0.1,0-0.3,0-0.4c0.5-0.3,1-0.5,1.5-0.6c0.5-0.1,1-0.2,1.6-0.2c0.4,0,0.8,0,1.2,0.1c0.4,0.1,0.7,0.2,1,0.4
				c0.4,0.3,0.7,0.7,0.9,1.1c0.2,0.4,0.3,0.9,0.3,1.6C169.4,28,169.1,28.9,168.6,29.5z M182.7,21h-2.1l-3,4.6h0
				c-0.2-0.3-0.3-0.6-0.5-0.9l-2.3-3.8h-2.2l3.9,5.6l-4.1,5.4h2.2l2.4-3.6c0.3-0.5,0.5-0.8,0.6-0.8h0c0.2,0.3,0.4,0.6,0.5,0.8
				l2.4,3.6h2.2l-4-5.4L182.7,21z"/>
		</g>
	</g>
</g>
</svg>
