<?xml version="1.0" encoding="utf-8"?>
<!-- Generator: Adobe Illustrator 21.0.0, SVG Export Plug-In . SVG Version: 6.00 Build 0)  -->
<svg version="1.1" id="图层_1" xmlns="http://www.w3.org/2000/svg" xmlns:xlink="http://www.w3.org/1999/xlink" x="0px" y="0px"
	 viewBox="0 0 192 48" style="enable-background:new 0 0 192 48;" xml:space="preserve">
<style type="text/css">
	.st0{fill:none;}
	.st1{fill:#DCE8F6;}
	.st2{fill:#336ED3;}
	.st3{fill:#FFFFFF;}
	.st4{fill:#9C9C9C;}
</style>
<rect class="st0" width="48" height="48"/>
<rect x="48" class="st0" width="48" height="48"/>
<rect x="96" class="st0" width="48" height="48"/>
<rect x="144" class="st0" width="48" height="48"/>
<g>
	<path class="st1" d="M82,42H62c-4.4,0-8-3.6-8-8V14c0-4.4,3.6-8,8-8h20c4.4,0,8,3.6,8,8v20C90,38.4,86.4,42,82,42"/>
	<path class="st2" d="M130,42h-20c-4.4,0-8-3.6-8-8V14c0-4.4,3.6-8,8-8h20c4.4,0,8,3.6,8,8v20C138,38.4,134.4,42,130,42"/>
</g>
<g>
	<g>
		<g>
			<path class="st2" d="M17.1,28.5c0.7-0.6,1.4-1.3,2.1-2c0.5-0.5,0.9-0.9,1.2-1.3c0.3-0.4,0.6-0.8,0.9-1.2c0.3-0.4,0.5-0.9,0.6-1.4
				c0.1-0.5,0.2-1,0.2-1.6c0-1.2-0.4-2.2-1.2-3c-0.8-0.7-2-1.1-3.4-1.1c-0.7,0-1.4,0.1-2.2,0.3c-0.8,0.2-1.4,0.4-1.8,0.6V20h0.1
				c0.6-0.4,1.3-0.8,2-1c0.7-0.2,1.3-0.3,1.9-0.3c0.9,0,1.6,0.2,2.1,0.6c0.5,0.4,0.7,1,0.7,1.8c0,0.8-0.2,1.6-0.7,2.3
				c-0.5,0.7-1.3,1.7-2.5,2.9c-0.6,0.6-1.2,1.2-1.9,1.8c-0.7,0.6-1.3,1.2-2,1.8V32h9.7v-1.7H15C15.7,29.7,16.3,29.1,17.1,28.5z
				 M34.2,21h-2.1l-3,4.6h0c-0.2-0.3-0.3-0.6-0.5-0.9L26.2,21H24l3.9,5.6L23.8,32H26l2.4-3.6c0.3-0.5,0.5-0.8,0.6-0.8h0
				c0.2,0.3,0.4,0.6,0.5,0.8l2.4,3.6h2.2l-4-5.4L34.2,21z"/>
		</g>
	</g>
	<g>
		<g>
			<path class="st2" d="M65.1,28.5c0.7-0.6,1.4-1.3,2.1-2c0.5-0.5,0.9-0.9,1.2-1.3c0.3-0.4,0.6-0.8,0.9-1.2c0.3-0.4,0.5-0.9,0.6-1.4
				c0.1-0.5,0.2-1,0.2-1.6c0-1.2-0.4-2.2-1.2-3c-0.8-0.7-2-1.1-3.4-1.1c-0.7,0-1.4,0.1-2.2,0.3c-0.8,0.2-1.4,0.4-1.8,0.6V20h0.1
				c0.6-0.4,1.3-0.8,2-1c0.7-0.2,1.3-0.3,1.9-0.3c0.9,0,1.6,0.2,2.1,0.6c0.5,0.4,0.7,1,0.7,1.8c0,0.8-0.2,1.6-0.7,2.3
				c-0.5,0.7-1.3,1.7-2.5,2.9c-0.6,0.6-1.2,1.2-1.9,1.8c-0.7,0.6-1.3,1.2-2,1.8V32h9.7v-1.7H63C63.7,29.7,64.3,29.1,65.1,28.5z
				 M82.2,21h-2.1l-3,4.6h0c-0.2-0.3-0.3-0.6-0.5-0.9L74.2,21H72l3.9,5.6L71.8,32H74l2.4-3.6c0.3-0.5,0.5-0.8,0.6-0.8h0
				c0.2,0.3,0.4,0.6,0.5,0.8l2.4,3.6h2.2l-4-5.4L82.2,21z"/>
		</g>
	</g>
	<g>
		<g>
			<path class="st3" d="M113.1,28.5c0.7-0.6,1.4-1.3,2.1-2c0.5-0.5,0.9-0.9,1.2-1.3c0.3-0.4,0.6-0.8,0.9-1.2
				c0.3-0.4,0.5-0.9,0.6-1.4c0.1-0.5,0.2-1,0.2-1.6c0-1.2-0.4-2.2-1.2-3c-0.8-0.7-2-1.1-3.4-1.1c-0.7,0-1.4,0.1-2.2,0.3
				c-0.8,0.2-1.4,0.4-1.8,0.6V20h0.1c0.6-0.4,1.3-0.8,2-1c0.7-0.2,1.3-0.3,1.9-0.3c0.9,0,1.6,0.2,2.1,0.6c0.5,0.4,0.7,1,0.7,1.8
				c0,0.8-0.2,1.6-0.7,2.3c-0.5,0.7-1.3,1.7-2.5,2.9c-0.6,0.6-1.2,1.2-1.9,1.8c-0.7,0.6-1.3,1.2-2,1.8V32h9.7v-1.7H111
				C111.7,29.7,112.3,29.1,113.1,28.5z M130.2,21h-2.1l-3,4.6h0c-0.2-0.3-0.3-0.6-0.5-0.9l-2.3-3.8H120l3.9,5.6l-4.1,5.4h2.2
				l2.4-3.6c0.3-0.5,0.5-0.8,0.6-0.8h0c0.2,0.3,0.4,0.6,0.5,0.8l2.4,3.6h2.2l-4-5.4L130.2,21z"/>
		</g>
	</g>
	<g>
		<g>
			<path class="st4" d="M161.1,28.5c0.7-0.6,1.4-1.3,2.1-2c0.5-0.5,0.9-0.9,1.2-1.3c0.3-0.4,0.6-0.8,0.9-1.2
				c0.3-0.4,0.5-0.9,0.6-1.4c0.1-0.5,0.2-1,0.2-1.6c0-1.2-0.4-2.2-1.2-3c-0.8-0.7-2-1.1-3.4-1.1c-0.7,0-1.4,0.1-2.2,0.3
				c-0.8,0.2-1.4,0.4-1.8,0.6V20h0.1c0.6-0.4,1.3-0.8,2-1c0.7-0.2,1.3-0.3,1.9-0.3c0.9,0,1.6,0.2,2.1,0.6c0.5,0.4,0.7,1,0.7,1.8
				c0,0.8-0.2,1.6-0.7,2.3c-0.5,0.7-1.3,1.7-2.5,2.9c-0.6,0.6-1.2,1.2-1.9,1.8c-0.7,0.6-1.3,1.2-2,1.8V32h9.7v-1.7H159
				C159.7,29.7,160.3,29.1,161.1,28.5z M178.2,21h-2.1l-3,4.6h0c-0.2-0.3-0.3-0.6-0.5-0.9l-2.3-3.8H168l3.9,5.6l-4.1,5.4h2.2
				l2.4-3.6c0.3-0.5,0.5-0.8,0.6-0.8h0c0.2,0.3,0.4,0.6,0.5,0.8l2.4,3.6h2.2l-4-5.4L178.2,21z"/>
		</g>
	</g>
</g>
</svg>
