<svg xmlns="http://www.w3.org/2000/svg" width="20" height="20" viewBox="0 0 20 20"><defs><style>.a{fill:none;}.b{fill:#fff;}</style></defs><g transform="translate(-163.17 -1039.211)"><rect class="a" width="20" height="20" transform="translate(163.17 1039.211)"/><path class="b" d="M20.075,6.551H8.917a1.716,1.716,0,0,0-1.347,2.78l4.78,6.062V19.85a1.072,1.072,0,0,0,.429.858l2.146,1.609a1.073,1.073,0,0,0,1.716-.858V15.393l4.781-6.062a1.716,1.716,0,0,0-1.347-2.78m-.269,2.956-3,3.809a.749.749,0,0,1-.59.285.741.741,0,0,1-.465-.161.751.751,0,0,1-.124-1.055l3-3.809a.751.751,0,0,1,1.18.93" transform="translate(158.675 1035.418)"/></g></svg>