<svg xmlns="http://www.w3.org/2000/svg" width="96" height="24" viewBox="0 0 96 24"><defs><style>.a,.b{fill:#55616d;}.b,.e,.g{stroke:rgba(0,0,0,0);stroke-miterlimit:10;}.c{fill:none;}.d,.e{fill:#818c98;}.f,.g{fill:#438dec;}.h{opacity:0.3;}</style></defs><g transform="translate(-487.999 -792.001)"><g transform="translate(483.352 787.354)"><path class="a" d="M23.151,13.072a9.945,9.945,0,0,0-17.339,0,2.6,2.6,0,0,0,0,2.535,9.946,9.946,0,0,0,17.339,0,2.6,2.6,0,0,0,0-2.535m-8.67,5.795a4.528,4.528,0,1,1,4.528-4.528,4.528,4.528,0,0,1-4.528,4.528" transform="translate(-0.075 2.309)"/><path class="a" d="M16.862,14.145a2.717,2.717,0,1,1-2.716-2.716,2.716,2.716,0,0,1,2.716,2.716" transform="translate(0.261 2.503)"/><path class="b" d="M23.33,17.753l-3.836,2.806a.824.824,0,0,0,0,1.33L23.33,24.7a.824.824,0,0,0,1.31-.665V18.417a.823.823,0,0,0-1.31-.665" transform="translate(3.249 -4.575)"/><rect class="c" width="24" height="24" transform="translate(4.648 4.648)"/></g><g transform="translate(507.352 787.354)"><path class="d" d="M23.151,13.072a9.945,9.945,0,0,0-17.339,0,2.6,2.6,0,0,0,0,2.535,9.946,9.946,0,0,0,17.339,0,2.6,2.6,0,0,0,0-2.535m-8.67,5.795a4.528,4.528,0,1,1,4.528-4.528,4.528,4.528,0,0,1-4.528,4.528" transform="translate(-0.075 2.309)"/><path class="d" d="M16.862,14.145a2.717,2.717,0,1,1-2.716-2.716,2.716,2.716,0,0,1,2.716,2.716" transform="translate(0.261 2.503)"/><path class="e" d="M23.33,17.753l-3.836,2.806a.824.824,0,0,0,0,1.33L23.33,24.7a.824.824,0,0,0,1.31-.665V18.417a.823.823,0,0,0-1.31-.665" transform="translate(3.249 -4.575)"/><rect class="c" width="24" height="24" transform="translate(4.648 4.648)"/></g><g transform="translate(531.352 787.354)"><path class="f" d="M23.151,13.072a9.945,9.945,0,0,0-17.339,0,2.6,2.6,0,0,0,0,2.535,9.946,9.946,0,0,0,17.339,0,2.6,2.6,0,0,0,0-2.535m-8.67,5.795a4.528,4.528,0,1,1,4.528-4.528,4.528,4.528,0,0,1-4.528,4.528" transform="translate(-0.075 2.309)"/><path class="f" d="M16.862,14.145a2.717,2.717,0,1,1-2.716-2.716,2.716,2.716,0,0,1,2.716,2.716" transform="translate(0.261 2.503)"/><path class="g" d="M23.33,17.753l-3.836,2.806a.824.824,0,0,0,0,1.33L23.33,24.7a.824.824,0,0,0,1.31-.665V18.417a.823.823,0,0,0-1.31-.665" transform="translate(3.249 -4.575)"/><rect class="c" width="24" height="24" transform="translate(4.648 4.648)"/></g><g transform="translate(555.352 787.354)"><g class="h"><path class="a" d="M23.151,13.072a9.945,9.945,0,0,0-17.339,0,2.6,2.6,0,0,0,0,2.535,9.946,9.946,0,0,0,17.339,0,2.6,2.6,0,0,0,0-2.535m-8.67,5.795a4.528,4.528,0,1,1,4.528-4.528,4.528,4.528,0,0,1-4.528,4.528" transform="translate(-0.075 2.309)"/><path class="a" d="M16.862,14.145a2.717,2.717,0,1,1-2.716-2.716,2.716,2.716,0,0,1,2.716,2.716" transform="translate(0.261 2.503)"/><path class="b" d="M23.33,17.753l-3.836,2.806a.824.824,0,0,0,0,1.33L23.33,24.7a.824.824,0,0,0,1.31-.665V18.417a.823.823,0,0,0-1.31-.665" transform="translate(3.249 -4.575)"/></g><rect class="c" width="24" height="24" transform="translate(4.648 4.648)"/></g></g></svg>