<svg xmlns="http://www.w3.org/2000/svg" width="96" height="24.001" viewBox="0 0 96 24.001"><defs><style>.a{fill:none;}.b,.c{fill:#55616d;}.b,.d,.f{opacity:0.75;}.d,.e{fill:#818c98;}.f,.g{fill:#438dec;}.h{opacity:0.3;}</style></defs><g transform="translate(-183.999 -622)"><g transform="translate(182.078 620.079)"><rect class="a" width="24" height="24" transform="translate(1.921 1.921)"/><path class="b" d="M7.818,10.59l7,5.2a1.381,1.381,0,0,1,0,2.217l-7,5.2a1.381,1.381,0,0,1-2.2-1.108V11.7a1.381,1.381,0,0,1,2.2-1.109" transform="translate(8.483 -3.082)"/><path class="c" d="M19.631,9.549,27.71,15.46a1.381,1.381,0,0,1,0,2.229L19.631,23.6a1.381,1.381,0,0,1-2.2-1.115V10.664a1.381,1.381,0,0,1,2.2-1.115" transform="translate(-12.582 -2.762)"/></g><g transform="translate(206.078 620.079)"><rect class="a" width="24" height="24" transform="translate(1.921 1.921)"/><path class="d" d="M7.818,10.59l7,5.2a1.381,1.381,0,0,1,0,2.217l-7,5.2a1.381,1.381,0,0,1-2.2-1.108V11.7a1.381,1.381,0,0,1,2.2-1.109" transform="translate(8.483 -3.082)"/><path class="e" d="M19.631,9.549,27.71,15.46a1.381,1.381,0,0,1,0,2.229L19.631,23.6a1.381,1.381,0,0,1-2.2-1.115V10.664a1.381,1.381,0,0,1,2.2-1.115" transform="translate(-12.582 -2.762)"/></g><g transform="translate(230.078 620.08)"><rect class="a" width="24" height="24" transform="translate(1.921 1.921)"/><path class="f" d="M7.818,10.59l7,5.2a1.381,1.381,0,0,1,0,2.217l-7,5.2a1.381,1.381,0,0,1-2.2-1.108V11.7a1.381,1.381,0,0,1,2.2-1.109" transform="translate(8.483 -3.082)"/><path class="g" d="M19.631,9.549,27.71,15.46a1.381,1.381,0,0,1,0,2.229L19.631,23.6a1.381,1.381,0,0,1-2.2-1.115V10.664a1.381,1.381,0,0,1,2.2-1.115" transform="translate(-12.582 -2.762)"/></g><g class="h" transform="translate(254.078 620.08)"><rect class="a" width="24" height="24" transform="translate(1.921 1.921)"/><path class="b" d="M7.818,10.59l7,5.2a1.381,1.381,0,0,1,0,2.217l-7,5.2a1.381,1.381,0,0,1-2.2-1.108V11.7a1.381,1.381,0,0,1,2.2-1.109" transform="translate(8.483 -3.082)"/><path class="c" d="M19.631,9.549,27.71,15.46a1.381,1.381,0,0,1,0,2.229L19.631,23.6a1.381,1.381,0,0,1-2.2-1.115V10.664a1.381,1.381,0,0,1,2.2-1.115" transform="translate(-12.582 -2.762)"/></g></g></svg>