<svg xmlns="http://www.w3.org/2000/svg" width="96" height="24.001" viewBox="0 0 96 24.001"><defs><style>.a{fill:#55616d;}.b{fill:none;}.c{fill:#818c98;}.d{fill:#438dec;}.e{opacity:0.3;}</style></defs><g transform="translate(-424.001 -622)"><g transform="translate(421.508 619.507)"><path class="a" d="M15.111,15.038a1.187,1.187,0,0,1-1.681,0l-2.3-2.3L10.408,14.3a.725.725,0,0,1-1.38-.249l-.357-4.6a.724.724,0,0,1,.778-.778L14,9.025a.724.724,0,0,1,.244,1.381l-1.435.654,2.3,2.3a1.187,1.187,0,0,1,0,1.68" transform="translate(-2.387 -2.387)"/><path class="a" d="M27.952,28.759,23.4,28.406a.725.725,0,0,1-.244-1.382l1.435-.654-2.3-2.3a1.189,1.189,0,0,1,1.681-1.681l2.3,2.3.723-1.556a.725.725,0,0,1,1.38.249l.357,4.6a.724.724,0,0,1-.778.778" transform="translate(-6.042 -6.069)"/><path class="a" d="M22.292,13.358l2.3-2.3-1.435-.654A.725.725,0,0,1,23.4,9.025l4.554-.354a.724.724,0,0,1,.778.778l-.357,4.6a.725.725,0,0,1-1.38.249l-.724-1.556-2.3,2.3a1.189,1.189,0,0,1-1.681-1.681" transform="translate(-6.042 -2.387)"/><path class="a" d="M8.671,27.98l.357-4.6a.724.724,0,0,1,1.379-.249l.724,1.557,2.3-2.3a1.189,1.189,0,0,1,1.681,1.681l-2.3,2.3,1.435.654A.725.725,0,0,1,14,28.405l-4.554.353a.724.724,0,0,1-.778-.778" transform="translate(-2.387 -6.069)"/><rect class="b" width="24" height="24" transform="translate(2.493 2.493)"/></g><g transform="translate(445.508 619.507)"><path class="c" d="M15.111,15.038a1.187,1.187,0,0,1-1.681,0l-2.3-2.3L10.408,14.3a.725.725,0,0,1-1.38-.249l-.357-4.6a.724.724,0,0,1,.778-.778L14,9.025a.724.724,0,0,1,.244,1.381l-1.435.654,2.3,2.3a1.187,1.187,0,0,1,0,1.68" transform="translate(-2.387 -2.387)"/><path class="c" d="M27.952,28.759,23.4,28.406a.725.725,0,0,1-.244-1.382l1.435-.654-2.3-2.3a1.189,1.189,0,0,1,1.681-1.681l2.3,2.3.723-1.556a.725.725,0,0,1,1.38.249l.357,4.6a.724.724,0,0,1-.778.778" transform="translate(-6.042 -6.069)"/><path class="c" d="M22.292,13.358l2.3-2.3-1.435-.654A.725.725,0,0,1,23.4,9.025l4.554-.354a.724.724,0,0,1,.778.778l-.357,4.6a.725.725,0,0,1-1.38.249l-.724-1.556-2.3,2.3a1.189,1.189,0,0,1-1.681-1.681" transform="translate(-6.042 -2.387)"/><path class="c" d="M8.671,27.98l.357-4.6a.724.724,0,0,1,1.379-.249l.724,1.557,2.3-2.3a1.189,1.189,0,0,1,1.681,1.681l-2.3,2.3,1.435.654A.725.725,0,0,1,14,28.405l-4.554.353a.724.724,0,0,1-.778-.778" transform="translate(-2.387 -6.069)"/><rect class="b" width="24" height="24" transform="translate(2.493 2.493)"/></g><g transform="translate(469.508 619.508)"><path class="d" d="M15.111,15.038a1.187,1.187,0,0,1-1.681,0l-2.3-2.3L10.408,14.3a.725.725,0,0,1-1.38-.249l-.357-4.6a.724.724,0,0,1,.778-.778L14,9.025a.724.724,0,0,1,.244,1.381l-1.435.654,2.3,2.3a1.187,1.187,0,0,1,0,1.68" transform="translate(-2.387 -2.387)"/><path class="d" d="M27.952,28.759,23.4,28.406a.725.725,0,0,1-.244-1.382l1.435-.654-2.3-2.3a1.189,1.189,0,0,1,1.681-1.681l2.3,2.3.723-1.556a.725.725,0,0,1,1.38.249l.357,4.6a.724.724,0,0,1-.778.778" transform="translate(-6.042 -6.069)"/><path class="d" d="M22.292,13.358l2.3-2.3-1.435-.654A.725.725,0,0,1,23.4,9.025l4.554-.354a.724.724,0,0,1,.778.778l-.357,4.6a.725.725,0,0,1-1.38.249l-.724-1.556-2.3,2.3a1.189,1.189,0,0,1-1.681-1.681" transform="translate(-6.042 -2.387)"/><path class="d" d="M8.671,27.98l.357-4.6a.724.724,0,0,1,1.379-.249l.724,1.557,2.3-2.3a1.189,1.189,0,0,1,1.681,1.681l-2.3,2.3,1.435.654A.725.725,0,0,1,14,28.405l-4.554.353a.724.724,0,0,1-.778-.778" transform="translate(-2.387 -6.069)"/><rect class="b" width="24" height="24" transform="translate(2.493 2.493)"/></g><g class="e" transform="translate(493.508 619.508)"><path class="a" d="M15.111,15.038a1.187,1.187,0,0,1-1.681,0l-2.3-2.3L10.408,14.3a.725.725,0,0,1-1.38-.249l-.357-4.6a.724.724,0,0,1,.778-.778L14,9.025a.724.724,0,0,1,.244,1.381l-1.435.654,2.3,2.3a1.187,1.187,0,0,1,0,1.68" transform="translate(-2.387 -2.387)"/><path class="a" d="M27.952,28.759,23.4,28.406a.725.725,0,0,1-.244-1.382l1.435-.654-2.3-2.3a1.189,1.189,0,0,1,1.681-1.681l2.3,2.3.723-1.556a.725.725,0,0,1,1.38.249l.357,4.6a.724.724,0,0,1-.778.778" transform="translate(-6.042 -6.069)"/><path class="a" d="M22.292,13.358l2.3-2.3-1.435-.654A.725.725,0,0,1,23.4,9.025l4.554-.354a.724.724,0,0,1,.778.778l-.357,4.6a.725.725,0,0,1-1.38.249l-.724-1.556-2.3,2.3a1.189,1.189,0,0,1-1.681-1.681" transform="translate(-6.042 -2.387)"/><path class="a" d="M8.671,27.98l.357-4.6a.724.724,0,0,1,1.379-.249l.724,1.557,2.3-2.3a1.189,1.189,0,0,1,1.681,1.681l-2.3,2.3,1.435.654A.725.725,0,0,1,14,28.405l-4.554.353a.724.724,0,0,1-.778-.778" transform="translate(-2.387 -6.069)"/><rect class="b" width="24" height="24" transform="translate(2.493 2.493)"/></g></g></svg>