<svg xmlns="http://www.w3.org/2000/svg" width="80" height="20" viewBox="0 0 80 20"><defs><style>.a{fill:#55616d;}.b{fill:none;}.c{fill:#818c98;}.d{fill:#438dec;}.e{fill:#cbced2;}</style></defs><g transform="translate(-460 -1459.001)"><g transform="translate(392 1371.001)"><rect class="a" width="1.759" height="7.035" rx="0.879" transform="translate(79 93.025) rotate(45)"/><rect class="a" width="7.035" height="1.759" rx="0.879" transform="translate(75.27 96.756) rotate(45)"/><rect class="b" width="20" height="20" transform="translate(68 88)"/></g><g transform="translate(412 1371.001)"><rect class="c" width="1.759" height="7.035" rx="0.879" transform="translate(79 93.025) rotate(45)"/><rect class="c" width="7.035" height="1.759" rx="0.879" transform="translate(75.27 96.756) rotate(45)"/><rect class="b" width="20" height="20" transform="translate(68 88)"/></g><g transform="translate(432 1371.001)"><rect class="d" width="1.759" height="7.035" rx="0.879" transform="translate(79 93.025) rotate(45)"/><rect class="d" width="7.035" height="1.759" rx="0.879" transform="translate(75.27 96.756) rotate(45)"/><rect class="b" width="20" height="20" transform="translate(68 88)"/></g><g transform="translate(452 1371.001)"><rect class="e" width="1.759" height="7.035" rx="0.879" transform="translate(79 93.025) rotate(45)"/><rect class="e" width="7.035" height="1.759" rx="0.879" transform="translate(75.27 96.756) rotate(45)"/><rect class="b" width="20" height="20" transform="translate(68 88)"/></g></g></svg>