<?xml version="1.0" encoding="utf-8"?>
<!-- Generator: Adobe Illustrator 28.1.0, SVG Export Plug-In . SVG Version: 6.00 Build 0)  -->
<svg version="1.1" id="图层_1" xmlns="http://www.w3.org/2000/svg" xmlns:xlink="http://www.w3.org/1999/xlink" x="0px" y="0px"
	 viewBox="0 0 192 48" style="enable-background:new 0 0 192 48;" xml:space="preserve">
<style type="text/css">
	.st0{fill:none;}
	.st1{fill:#DCE8F6;}
	.st2{fill:#336ED3;}
	
		.st3{fill-rule:evenodd;clip-rule:evenodd;fill:none;stroke:#336ED3;stroke-width:2;stroke-linecap:round;stroke-linejoin:round;stroke-miterlimit:10;}
	.st4{fill-rule:evenodd;clip-rule:evenodd;fill:#336ED3;}
	.st5{fill-rule:evenodd;clip-rule:evenodd;fill:none;stroke:#9C9C9C;stroke-width:2;stroke-miterlimit:10;}
	.st6{fill-rule:evenodd;clip-rule:evenodd;fill:#9C9C9C;}
	
		.st7{fill-rule:evenodd;clip-rule:evenodd;fill:none;stroke:#FFFFFF;stroke-width:2;stroke-linecap:round;stroke-linejoin:round;stroke-miterlimit:10;}
	.st8{fill-rule:evenodd;clip-rule:evenodd;fill:#FFFFFF;}
</style>
<rect class="st0" width="48" height="48"/>
<rect x="48" class="st0" width="48" height="48"/>
<rect x="96" class="st0" width="48" height="48"/>
<rect x="144" class="st0" width="48" height="48"/>
<g>
	<path class="st1" d="M82,42H62c-4.4,0-8-3.6-8-8V14c0-4.4,3.6-8,8-8h20c4.4,0,8,3.6,8,8v20C90,38.4,86.4,42,82,42"/>
	<path class="st2" d="M130,42h-20c-4.4,0-8-3.6-8-8V14c0-4.4,3.6-8,8-8h20c4.4,0,8,3.6,8,8v20C138,38.4,134.4,42,130,42"/>
</g>
<g id="列表">
	<g>
		<path class="st3" d="M17.6,18.8h-2.2c-0.6,0-1.1-0.5-1.1-1.1v-2.2c0-0.6,0.5-1.1,1.1-1.1h2.2c0.6,0,1.1,0.5,1.1,1.1v2.2
			C18.8,18.2,18.2,18.8,17.6,18.8z"/>
		<path class="st3" d="M17.6,26.5h-2.2c-0.6,0-1.1-0.5-1.1-1.1v-2.2c0-0.6,0.5-1.1,1.1-1.1h2.2c0.6,0,1.1,0.5,1.1,1.1v2.2
			C18.8,26,18.2,26.5,17.6,26.5z"/>
		<path class="st3" d="M17.6,34.2h-2.2c-0.6,0-1.1-0.5-1.1-1.1v-2.2c0-0.6,0.5-1.1,1.1-1.1h2.2c0.6,0,1.1,0.5,1.1,1.1v2.2
			C18.8,33.7,18.2,34.2,17.6,34.2z"/>
		<path class="st4" d="M33.7,17.8h-11c-0.6,0-1-0.4-1-1v0c0-0.6,0.4-1,1-1h11c0.6,0,1,0.4,1,1v0C34.7,17.3,34.3,17.8,33.7,17.8z"/>
		<path class="st4" d="M33.7,25.5h-11c-0.6,0-1-0.4-1-1v0c0-0.6,0.4-1,1-1h11c0.6,0,1,0.4,1,1v0C34.7,25.1,34.3,25.5,33.7,25.5z"/>
		<path class="st4" d="M33.7,33.2h-11c-0.6,0-1-0.4-1-1l0,0c0-0.6,0.4-1,1-1h11c0.6,0,1,0.4,1,1l0,0C34.7,32.8,34.3,33.2,33.7,33.2z
			"/>
	</g>
	<g>
		<path class="st3" d="M65.6,18.8h-2.2c-0.6,0-1.1-0.5-1.1-1.1v-2.2c0-0.6,0.5-1.1,1.1-1.1h2.2c0.6,0,1.1,0.5,1.1,1.1v2.2
			C66.8,18.2,66.2,18.8,65.6,18.8z"/>
		<path class="st3" d="M65.6,26.5h-2.2c-0.6,0-1.1-0.5-1.1-1.1v-2.2c0-0.6,0.5-1.1,1.1-1.1h2.2c0.6,0,1.1,0.5,1.1,1.1v2.2
			C66.8,26,66.2,26.5,65.6,26.5z"/>
		<path class="st3" d="M65.6,34.2h-2.2c-0.6,0-1.1-0.5-1.1-1.1v-2.2c0-0.6,0.5-1.1,1.1-1.1h2.2c0.6,0,1.1,0.5,1.1,1.1v2.2
			C66.8,33.7,66.2,34.2,65.6,34.2z"/>
		<path class="st4" d="M81.7,17.8h-11c-0.6,0-1-0.4-1-1v0c0-0.6,0.4-1,1-1h11c0.6,0,1,0.4,1,1v0C82.7,17.3,82.3,17.8,81.7,17.8z"/>
		<path class="st4" d="M81.7,25.5h-11c-0.6,0-1-0.4-1-1v0c0-0.6,0.4-1,1-1h11c0.6,0,1,0.4,1,1v0C82.7,25.1,82.3,25.5,81.7,25.5z"/>
		<path class="st4" d="M81.7,33.2h-11c-0.6,0-1-0.4-1-1l0,0c0-0.6,0.4-1,1-1h11c0.6,0,1,0.4,1,1l0,0C82.7,32.8,82.3,33.2,81.7,33.2z
			"/>
	</g>
	<g>
		<path class="st5" d="M161.6,18.8h-2.2c-0.6,0-1.1-0.5-1.1-1.1v-2.2c0-0.6,0.5-1.1,1.1-1.1h2.2c0.6,0,1.1,0.5,1.1,1.1v2.2
			C162.8,18.2,162.2,18.8,161.6,18.8z"/>
		<path class="st5" d="M161.6,26.5h-2.2c-0.6,0-1.1-0.5-1.1-1.1v-2.2c0-0.6,0.5-1.1,1.1-1.1h2.2c0.6,0,1.1,0.5,1.1,1.1v2.2
			C162.8,26,162.2,26.5,161.6,26.5z"/>
		<path class="st5" d="M161.6,34.2h-2.2c-0.6,0-1.1-0.5-1.1-1.1v-2.2c0-0.6,0.5-1.1,1.1-1.1h2.2c0.6,0,1.1,0.5,1.1,1.1v2.2
			C162.8,33.7,162.2,34.2,161.6,34.2z"/>
		<path class="st6" d="M177.7,17.8h-11c-0.6,0-1-0.4-1-1v0c0-0.6,0.4-1,1-1h11c0.6,0,1,0.4,1,1v0C178.7,17.3,178.3,17.8,177.7,17.8z
			"/>
		<path class="st6" d="M177.7,25.5h-11c-0.6,0-1-0.4-1-1v0c0-0.6,0.4-1,1-1h11c0.6,0,1,0.4,1,1v0C178.7,25.1,178.3,25.5,177.7,25.5z
			"/>
		<path class="st6" d="M177.7,33.2h-11c-0.6,0-1-0.4-1-1l0,0c0-0.6,0.4-1,1-1h11c0.6,0,1,0.4,1,1l0,0
			C178.7,32.8,178.3,33.2,177.7,33.2z"/>
	</g>
	<g>
		<path class="st7" d="M113.6,18.8h-2.2c-0.6,0-1.1-0.5-1.1-1.1v-2.2c0-0.6,0.5-1.1,1.1-1.1h2.2c0.6,0,1.1,0.5,1.1,1.1v2.2
			C114.8,18.2,114.2,18.8,113.6,18.8z"/>
		<path class="st7" d="M113.6,26.5h-2.2c-0.6,0-1.1-0.5-1.1-1.1v-2.2c0-0.6,0.5-1.1,1.1-1.1h2.2c0.6,0,1.1,0.5,1.1,1.1v2.2
			C114.8,26,114.2,26.5,113.6,26.5z"/>
		<path class="st7" d="M113.6,34.2h-2.2c-0.6,0-1.1-0.5-1.1-1.1v-2.2c0-0.6,0.5-1.1,1.1-1.1h2.2c0.6,0,1.1,0.5,1.1,1.1v2.2
			C114.8,33.7,114.2,34.2,113.6,34.2z"/>
		<path class="st8" d="M129.7,17.8h-11c-0.6,0-1-0.4-1-1v0c0-0.6,0.4-1,1-1h11c0.6,0,1,0.4,1,1v0C130.7,17.3,130.3,17.8,129.7,17.8z
			"/>
		<path class="st8" d="M129.7,25.5h-11c-0.6,0-1-0.4-1-1v0c0-0.6,0.4-1,1-1h11c0.6,0,1,0.4,1,1v0C130.7,25.1,130.3,25.5,129.7,25.5z
			"/>
		<path class="st8" d="M129.7,33.2h-11c-0.6,0-1-0.4-1-1l0,0c0-0.6,0.4-1,1-1h11c0.6,0,1,0.4,1,1l0,0
			C130.7,32.8,130.3,33.2,129.7,33.2z"/>
	</g>
</g>
</svg>
