<svg xmlns="http://www.w3.org/2000/svg" width="80" height="20" viewBox="0 0 80 20"><defs><style>.a{fill:none;}.b{fill:#55616d;}.c{opacity:0.3;}.d{fill:#818c98;}.e{fill:#438dec;}</style></defs><g transform="translate(-1176 -940)"><g transform="translate(1173.715 937.71)"><rect class="a" width="20" height="20" transform="translate(2.285 2.29)"/><path class="b" d="M18108.689,9003.79h-10.8a1.6,1.6,0,0,1-1.6-1.6v-5.8a1.6,1.6,0,0,1,1.6-1.6h.9v-2.5a4,4,0,0,1,4-4h1a4,4,0,0,1,4,4v2.5h.9a1.6,1.6,0,0,1,1.6,1.6v5.8A1.6,1.6,0,0,1,18108.689,9003.79Zm-5.4-6.713a1.4,1.4,0,0,0-.709,2.6v1.113a.709.709,0,0,0,1.418,0v-1.113a1.4,1.4,0,0,0-.709-2.6Zm-.5-6.386a1.6,1.6,0,0,0-1.6,1.6v2.5h4.2v-2.5a1.6,1.6,0,0,0-1.6-1.6Z" transform="translate(-18091.002 -8983.499)"/></g><g class="c" transform="translate(1233.715 937.71)"><rect class="a" width="20" height="20" transform="translate(2.285 2.29)"/><path class="b" d="M18108.689,9003.79h-10.8a1.6,1.6,0,0,1-1.6-1.6v-5.8a1.6,1.6,0,0,1,1.6-1.6h.9v-2.5a4,4,0,0,1,4-4h1a4,4,0,0,1,4,4v2.5h.9a1.6,1.6,0,0,1,1.6,1.6v5.8A1.6,1.6,0,0,1,18108.689,9003.79Zm-5.4-6.713a1.4,1.4,0,0,0-.709,2.6v1.113a.709.709,0,0,0,1.418,0v-1.113a1.4,1.4,0,0,0-.709-2.6Zm-.5-6.386a1.6,1.6,0,0,0-1.6,1.6v2.5h4.2v-2.5a1.6,1.6,0,0,0-1.6-1.6Z" transform="translate(-18091.002 -8983.499)"/></g><g transform="translate(1193.715 937.71)"><rect class="a" width="20" height="20" transform="translate(2.285 2.29)"/><path class="d" d="M18088.689,9003.788h-10.8a1.6,1.6,0,0,1-1.6-1.6v-5.8a1.6,1.6,0,0,1,1.6-1.6h.9v-2.5a4,4,0,0,1,4-4h1a4,4,0,0,1,4,4v2.5h.9a1.6,1.6,0,0,1,1.6,1.6v5.8A1.6,1.6,0,0,1,18088.689,9003.788Zm-5.4-6.714a1.4,1.4,0,0,0-1.4,1.4,1.421,1.421,0,0,0,.693,1.213v1.107a.709.709,0,0,0,1.418,0v-1.112a1.4,1.4,0,0,0-.709-2.605Zm-.5-6.389a1.6,1.6,0,0,0-1.6,1.6v2.5h4.2v-2.5a1.6,1.6,0,0,0-1.6-1.6Z" transform="translate(-18071.002 -8983.497)"/></g><g transform="translate(1213.715 937.71)"><rect class="a" width="20" height="20" transform="translate(2.285 2.29)"/><path class="e" d="M18088.689,9003.788h-10.8a1.6,1.6,0,0,1-1.6-1.6v-5.8a1.6,1.6,0,0,1,1.6-1.6h.9v-2.5a4,4,0,0,1,4-4h1a4,4,0,0,1,4,4v2.5h.9a1.6,1.6,0,0,1,1.6,1.6v5.8A1.6,1.6,0,0,1,18088.689,9003.788Zm-5.4-6.714a1.4,1.4,0,0,0-1.4,1.4,1.421,1.421,0,0,0,.693,1.213v1.107a.709.709,0,0,0,1.418,0v-1.112a1.4,1.4,0,0,0-.709-2.605Zm-.5-6.389a1.6,1.6,0,0,0-1.6,1.6v2.5h4.2v-2.5a1.6,1.6,0,0,0-1.6-1.6Z" transform="translate(-18071.002 -8983.497)"/></g></g></svg>