<svg xmlns="http://www.w3.org/2000/svg" width="80.007" height="20" viewBox="0 0 80.007 20"><defs><style>.a{fill:#55616d;}.b{fill:none;}.c{opacity:0.3;}.d{fill:#818c98;}.e{fill:#438dec;}</style></defs><g transform="translate(-48 -1140)"><g transform="translate(48 1140)"><path class="a" d="M.106,10.154a.642.642,0,0,0,.534.287h9a.634.634,0,0,0,.584-.388l1.92-4.481a.635.635,0,0,0-.584-.892h-.64V3.56a1.282,1.282,0,0,0-1.28-1.28H5.982L4.745,1H1.28A1.281,1.281,0,0,0,0,2.28V9.8H0a.643.643,0,0,0,.1.353M9.642,3.56V4.68H2.56a.639.639,0,0,0-.588.388L1.28,6.683V3.56Z" transform="translate(4 4.279)"/><rect class="b" width="20.001" height="20"/></g><g class="c" transform="translate(108.006 1140)"><path class="a" d="M.106,10.154a.642.642,0,0,0,.534.287h9a.634.634,0,0,0,.584-.388l1.92-4.481a.635.635,0,0,0-.584-.892h-.64V3.56a1.282,1.282,0,0,0-1.28-1.28H5.982L4.745,1H1.28A1.281,1.281,0,0,0,0,2.28V9.8H0a.643.643,0,0,0,.1.353M9.642,3.56V4.68H2.56a.639.639,0,0,0-.588.388L1.28,6.683V3.56Z" transform="translate(4 4.279)"/><rect class="b" width="20.001" height="20"/></g><g transform="translate(68.002 1140)"><path class="d" d="M.106,10.154a.642.642,0,0,0,.534.287h9a.634.634,0,0,0,.584-.388l1.92-4.481a.635.635,0,0,0-.584-.892h-.64V3.56a1.282,1.282,0,0,0-1.28-1.28H5.982L4.745,1H1.28A1.281,1.281,0,0,0,0,2.28V9.8H0a.643.643,0,0,0,.1.353M9.642,3.56V4.68H2.56a.639.639,0,0,0-.588.388L1.28,6.683V3.56Z" transform="translate(4 4.279)"/><rect class="b" width="20.001" height="20"/></g><g transform="translate(88.004 1140)"><path class="e" d="M.106,10.154a.642.642,0,0,0,.534.287h9a.634.634,0,0,0,.584-.388l1.92-4.481a.635.635,0,0,0-.584-.892h-.64V3.56a1.282,1.282,0,0,0-1.28-1.28H5.982L4.745,1H1.28A1.281,1.281,0,0,0,0,2.28V9.8H0a.643.643,0,0,0,.1.353M9.642,3.56V4.68H2.56a.639.639,0,0,0-.588.388L1.28,6.683V3.56Z" transform="translate(4 4.279)"/><rect class="b" width="20.001" height="20"/></g></g></svg>