<svg xmlns="http://www.w3.org/2000/svg" width="20" height="20" viewBox="0 0 20 20"><defs><style>.a{opacity:0.8;}.b,.d{fill:none;}.b{stroke:#fff;stroke-miterlimit:10;stroke-width:2px;}.c{fill:#fff;}</style></defs><g class="a" transform="translate(2 3)"><rect class="b" width="16" height="11" rx="1" transform="translate(0 0)"/><path class="c" d="M7.071,19H13.5a1.071,1.071,0,1,1,0,2.143H7.071a1.071,1.071,0,1,1,0-2.143" transform="translate(-2.286 -6.286)"/><rect class="c" width="2.143" height="3.571" transform="translate(6.929 10.571)"/><path class="c" d="M13.84,7.778l-3.285,2.19a.357.357,0,0,1-.555-.3V5.291a.357.357,0,0,1,.555-.3l3.285,2.19a.357.357,0,0,1,0,.594" transform="translate(-3.429 -2.267)"/><rect class="d" width="20" height="20" transform="translate(-2 -3)"/></g></svg>