<svg xmlns="http://www.w3.org/2000/svg" width="20" height="20" viewBox="0 0 20 20"><defs><style>.a,.b,.d{fill:none;}.a,.b{stroke:#fff;stroke-width:2px;}.a{stroke-linecap:round;stroke-linejoin:round;}.b{stroke-miterlimit:10;}.c{fill:#fff;}</style></defs><g transform="translate(2.298 2.298)"><path class="a" d="M1,13.474,2.18,2.85A2.079,2.079,0,0,1,4.247,1H13a2.079,2.079,0,0,1,2.066,1.85l1.18,10.624" transform="translate(-0.921 -0.921)"/><path class="b" d="M13.82,20.851H3.425a2.425,2.425,0,1,1,0-4.851H13.82a2.425,2.425,0,0,1,0,4.851Z" transform="translate(-0.921 -5.526)"/><path class="c" d="M6.079,19.886H4.693a.693.693,0,1,1,0-1.386H6.079a.693.693,0,1,1,0,1.386" transform="translate(-1.842 -6.294)"/><path class="c" d="M15.9,19.886H15.49A.49.49,0,0,1,15,19.4V18.99a.49.49,0,0,1,.49-.49H15.9a.49.49,0,0,1,.49.49V19.4a.49.49,0,0,1-.49.49" transform="translate(-5.219 -6.294)"/><path class="c" d="M18.9,19.886H18.49A.49.49,0,0,1,18,19.4V18.99a.49.49,0,0,1,.49-.49H18.9a.49.49,0,0,1,.49.49V19.4a.49.49,0,0,1-.49.49" transform="translate(-6.14 -6.294)"/><path class="c" d="M13.426,7.693,10.239,9.818A.347.347,0,0,1,9.7,9.53V5.28a.347.347,0,0,1,.538-.288l3.187,2.125a.346.346,0,0,1,0,.577" transform="translate(-3.592 -2.129)"/><rect class="d" width="20" height="20" transform="translate(-2.298 -2.298)"/></g></svg>