<?xml version="1.0" encoding="utf-8"?>
<!-- Generator: Adobe Illustrator 21.0.0, SVG Export Plug-In . SVG Version: 6.00 Build 0)  -->
<svg version="1.1" id="图层_1" xmlns="http://www.w3.org/2000/svg" xmlns:xlink="http://www.w3.org/1999/xlink" x="0px" y="0px"
	 viewBox="0 0 192 48" style="enable-background:new 0 0 192 48;" xml:space="preserve">
<style type="text/css">
	.st0{fill:none;}
	.st1{fill:#DCE8F6;}
	.st2{fill:#336ED3;}
	.st3{fill:#FFFFFF;}
	.st4{fill:#9C9C9C;}
</style>
<rect class="st0" width="48" height="48"/>
<rect x="48" class="st0" width="48" height="48"/>
<rect x="96" class="st0" width="48" height="48"/>
<rect x="144" class="st0" width="48" height="48"/>
<g>
	<path class="st1" d="M82,42H62c-4.4,0-8-3.6-8-8V14c0-4.4,3.6-8,8-8h20c4.4,0,8,3.6,8,8v20C90,38.4,86.4,42,82,42"/>
	<path class="st2" d="M130,42h-20c-4.4,0-8-3.6-8-8V14c0-4.4,3.6-8,8-8h20c4.4,0,8,3.6,8,8v20C138,38.4,134.4,42,130,42"/>
</g>
<g>
	<g>
		<path class="st2" d="M33,14H15c-0.5,0-1,0.5-1,1v17c0,0.5,0.5,1,1,1h9v-2h-8v-4.6l3-3l1.6,1.6l-1.3,1.3c-0.4,0.4-0.4,1,0,1.4
			s1,0.4,1.4,0l6.3-6.3l4.3,4.3c0.2,0.2,0.5,0.3,0.7,0.3v0h2V15C34,14.5,33.5,14,33,14z M27.7,19.3c-0.4-0.4-1-0.4-1.4,0L22,23.6
			l-2.3-2.3c-0.4-0.4-1-0.4-1.4,0L16,23.6V16h16v7.6L27.7,19.3z"/>
		<circle class="st2" cx="19" cy="19" r="1.2"/>
		<path class="st2" d="M33.1,27.8l-4-2.5C28.7,25.1,28.4,25,28,25c-0.3,0-0.7,0.1-1,0.3c-0.6,0.4-1,1-1,1.7v5c0,0.7,0.4,1.4,1,1.7
			c0.3,0.2,0.6,0.3,1,0.3c0.4,0,0.7-0.1,1.1-0.3l4-2.5c0.6-0.4,0.9-1,0.9-1.7S33.6,28.2,33.1,27.8z M28,32v-5l4,2.5L28,32z"/>
	</g>
	<g>
		<path class="st2" d="M81,14H63c-0.5,0-1,0.5-1,1v17c0,0.5,0.5,1,1,1h9v-2h-8v-4.6l3-3l1.6,1.6l-1.3,1.3c-0.4,0.4-0.4,1,0,1.4
			s1,0.4,1.4,0l6.3-6.3l4.3,4.3c0.2,0.2,0.5,0.3,0.7,0.3v0h2V15C82,14.5,81.5,14,81,14z M75.7,19.3c-0.4-0.4-1-0.4-1.4,0L70,23.6
			l-2.3-2.3c-0.4-0.4-1-0.4-1.4,0L64,23.6V16h16v7.6L75.7,19.3z"/>
		<circle class="st2" cx="67" cy="19" r="1.2"/>
		<path class="st2" d="M81.1,27.8l-4-2.5C76.7,25.1,76.4,25,76,25c-0.3,0-0.7,0.1-1,0.3c-0.6,0.4-1,1-1,1.7v5c0,0.7,0.4,1.4,1,1.7
			c0.3,0.2,0.6,0.3,1,0.3c0.4,0,0.7-0.1,1.1-0.3l4-2.5c0.6-0.4,0.9-1,0.9-1.7S81.6,28.2,81.1,27.8z M76,32v-5l4,2.5L76,32z"/>
	</g>
	<g>
		<path class="st3" d="M129,14h-18c-0.5,0-1,0.5-1,1v17c0,0.5,0.5,1,1,1h9v-2h-8v-4.6l3-3l1.6,1.6l-1.3,1.3c-0.4,0.4-0.4,1,0,1.4
			s1,0.4,1.4,0l6.3-6.3l4.3,4.3c0.2,0.2,0.5,0.3,0.7,0.3v0h2V15C130,14.5,129.5,14,129,14z M123.7,19.3c-0.4-0.4-1-0.4-1.4,0
			l-4.3,4.3l-2.3-2.3c-0.4-0.4-1-0.4-1.4,0l-2.3,2.3V16h16v7.6L123.7,19.3z"/>
		<circle class="st3" cx="115" cy="19" r="1.2"/>
		<path class="st3" d="M129.1,27.8l-4-2.5c-0.3-0.2-0.7-0.3-1.1-0.3c-0.3,0-0.7,0.1-1,0.3c-0.6,0.4-1,1-1,1.7v5c0,0.7,0.4,1.4,1,1.7
			c0.3,0.2,0.6,0.3,1,0.3c0.4,0,0.7-0.1,1.1-0.3l4-2.5c0.6-0.4,0.9-1,0.9-1.7S129.6,28.2,129.1,27.8z M124,32v-5l4,2.5L124,32z"/>
	</g>
	<g>
		<path class="st4" d="M177,14h-18c-0.5,0-1,0.5-1,1v17c0,0.5,0.5,1,1,1h9v-2h-8v-4.6l3-3l1.6,1.6l-1.3,1.3c-0.4,0.4-0.4,1,0,1.4
			s1,0.4,1.4,0l6.3-6.3l4.3,4.3c0.2,0.2,0.5,0.3,0.7,0.3v0h2V15C178,14.5,177.5,14,177,14z M171.7,19.3c-0.4-0.4-1-0.4-1.4,0
			l-4.3,4.3l-2.3-2.3c-0.4-0.4-1-0.4-1.4,0l-2.3,2.3V16h16v7.6L171.7,19.3z"/>
		<circle class="st4" cx="163" cy="19" r="1.2"/>
		<path class="st4" d="M177.1,27.8l-4-2.5c-0.3-0.2-0.7-0.3-1.1-0.3c-0.3,0-0.7,0.1-1,0.3c-0.6,0.4-1,1-1,1.7v5c0,0.7,0.4,1.4,1,1.7
			c0.3,0.2,0.6,0.3,1,0.3c0.4,0,0.7-0.1,1.1-0.3l4-2.5c0.6-0.4,0.9-1,0.9-1.7S177.6,28.2,177.1,27.8z M172,32v-5l4,2.5L172,32z"/>
	</g>
</g>
</svg>
