<?xml version="1.0" encoding="utf-8"?>
<!-- Generator: Adobe Illustrator 27.0.0, SVG Export Plug-In . SVG Version: 6.00 Build 0)  -->
<svg version="1.1" id="图层_1" xmlns="http://www.w3.org/2000/svg" xmlns:xlink="http://www.w3.org/1999/xlink" x="0px" y="0px"
	 viewBox="0 0 66 66" style="enable-background:new 0 0 66 66;" xml:space="preserve">
<style type="text/css">
	.st0{fill:#03171F;}
	.st1{opacity:0.8;fill:#2B3F45;enable-background:new    ;}
	.st2{fill:#2B3F45;}
	.st3{opacity:0.6;}
	.st4{fill:#FFFFFF;}
</style>
<rect class="st0" width="66" height="66"/>
<rect x="10" class="st1" width="1" height="66"/>
<rect x="55" class="st1" width="1" height="66"/>
<rect x="10" y="32" class="st1" width="46" height="1"/>
<rect x="3.4" y="1" class="st2" width="3.2" height="4"/>
<rect x="3.4" y="11" class="st2" width="3.2" height="4"/>
<rect x="3.4" y="21" class="st2" width="3.2" height="4"/>
<rect x="3.4" y="31" class="st2" width="3.2" height="4"/>
<rect x="3.4" y="41" class="st2" width="3.2" height="4"/>
<rect x="3.4" y="51" class="st2" width="3.2" height="4"/>
<rect x="3.4" y="61" class="st2" width="3.2" height="4"/>
<rect x="59.4" y="1" class="st2" width="3.2" height="4"/>
<rect x="59.4" y="11" class="st2" width="3.2" height="4"/>
<rect x="59.4" y="21" class="st2" width="3.2" height="4"/>
<rect x="59.4" y="31" class="st2" width="3.2" height="4"/>
<rect x="59.4" y="41" class="st2" width="3.2" height="4"/>
<rect x="59.4" y="51" class="st2" width="3.2" height="4"/>
<rect x="59.4" y="61" class="st2" width="3.2" height="4"/>
<g class="st3">
	<path class="st4" d="M21,30.5v16.6h24V30.5H21z M34,38.5v5.5H32v-5.5c-0.9-0.3-1.4-1.1-1.4-1.9c0-1.2,1.1-2.1,2.5-2.1
		c1.4,0,2.5,0.9,2.5,2.1C35.5,37.5,34.9,38.2,34,38.5z"/>
	<path class="st4" d="M24.1,25.7v8.4h17.8v-8.4c0-4.9-4-8.9-8.9-8.9h0C28.1,16.9,24.1,20.8,24.1,25.7z M38.7,31.1H27.3v-5.4
		c0-3.2,2.6-5.7,5.7-5.7h0c3.2,0,5.7,2.6,5.7,5.7V31.1z"/>
</g>
</svg>
