<?xml version="1.0" encoding="utf-8"?>
<!-- Generator: Adobe Illustrator 23.0.0, SVG Export Plug-In . SVG Version: 6.00 Build 0)  -->
<svg version="1.1" id="图层_1" xmlns="http://www.w3.org/2000/svg" xmlns:xlink="http://www.w3.org/1999/xlink" x="0px" y="0px"
	 viewBox="0 0 66 66" style="enable-background:new 0 0 66 66;" xml:space="preserve">
<style type="text/css">
	.st0{fill:#03171F;}
	.st1{opacity:0.8;fill:#2B3F45;}
	.st2{fill:#2B3F45;}
</style>
<rect class="st0" width="66" height="66"/>
<rect x="10" class="st1" width="1" height="66"/>
<rect x="55" class="st1" width="1" height="66"/>
<rect x="10" y="32" class="st1" width="46" height="1"/>
<rect x="3.4" y="1" class="st2" width="3.2" height="4"/>
<rect x="3.4" y="11" class="st2" width="3.2" height="4"/>
<rect x="3.4" y="21" class="st2" width="3.2" height="4"/>
<rect x="3.4" y="31" class="st2" width="3.2" height="4"/>
<rect x="3.4" y="41" class="st2" width="3.2" height="4"/>
<rect x="3.4" y="51" class="st2" width="3.2" height="4"/>
<rect x="3.4" y="61" class="st2" width="3.2" height="4"/>
<rect x="59.4" y="1" class="st2" width="3.2" height="4"/>
<rect x="59.4" y="11" class="st2" width="3.2" height="4"/>
<rect x="59.4" y="21" class="st2" width="3.2" height="4"/>
<rect x="59.4" y="31" class="st2" width="3.2" height="4"/>
<rect x="59.4" y="41" class="st2" width="3.2" height="4"/>
<rect x="59.4" y="51" class="st2" width="3.2" height="4"/>
<rect x="59.4" y="61" class="st2" width="3.2" height="4"/>
</svg>
