<svg xmlns="http://www.w3.org/2000/svg" width="96" height="24" viewBox="0 0 96 24"><defs><style>.a,.c,.d,.f,.h,.i,.k{fill:none;}.a,.c{stroke:#55616d;}.a,.c,.f,.h,.i,.k{stroke-linecap:round;stroke-miterlimit:10;}.a,.f,.i{stroke-width:1.778px;}.b{fill:#55616d;}.c,.h,.k{stroke-width:1.2px;}.e{opacity:0.3;}.f,.h{stroke:#818c98;}.g{fill:#818c98;}.i,.k{stroke:#438dec;}.j{fill:#438dec;}</style></defs><g transform="translate(-275 -655)"><g transform="translate(-942.924 246.076)"><g transform="translate(-0.352 -0.352)"><path class="a" d="M2.908,4.084A8.635,8.635,0,0,1,9.694.889a8.8,8.8,0,1,1-8.8,8.8" transform="translate(1220.582 411.582)"/><path class="b" d="M10.779,11.252,7.918,8.39a.672.672,0,0,0-1.138.364L6.2,12.193a.672.672,0,0,0,.774.774l3.44-.578a.672.672,0,0,0,.364-1.138" transform="translate(1214.803 405.146)"/><path class="b" d="M-8.068-.078A3.525,3.525,0,0,1-9-.191,2.694,2.694,0,0,1-9.737-.51,2.544,2.544,0,0,1-10.3-.986l.716-.978a3.054,3.054,0,0,0,.638.45,1.519,1.519,0,0,0,.716.179A1.514,1.514,0,0,0-7.7-1.419a.733.733,0,0,0,.345-.249.673.673,0,0,0,.122-.411.86.86,0,0,0-.131-.48.838.838,0,0,0-.489-.306,3.922,3.922,0,0,0-1.04-.1v-1.1a2.873,2.873,0,0,0,.874-.1.861.861,0,0,0,.45-.3.754.754,0,0,0,.135-.446.664.664,0,0,0-.192-.511.778.778,0,0,0-.55-.179,1.276,1.276,0,0,0-.594.14,2.855,2.855,0,0,0-.568.4l-.786-.952a3.722,3.722,0,0,1,.948-.594,2.709,2.709,0,0,1,1.07-.21,3.092,3.092,0,0,1,1.175.205,1.7,1.7,0,0,1,.778.6,1.685,1.685,0,0,1,.275.983,1.44,1.44,0,0,1-.262.852,1.706,1.706,0,0,1-.778.581v.044a1.98,1.98,0,0,1,.642.319,1.529,1.529,0,0,1,.446.529,1.585,1.585,0,0,1,.162.734A1.614,1.614,0,0,1-6-.947,2.094,2.094,0,0,1-6.876-.3,3.127,3.127,0,0,1-8.068-.078Zm5.111,0a1.966,1.966,0,0,1-1.2-.384,2.487,2.487,0,0,1-.812-1.144,5.256,5.256,0,0,1-.293-1.878,5.112,5.112,0,0,1,.293-1.861,2.376,2.376,0,0,1,.812-1.109,2.03,2.03,0,0,1,1.2-.367,2.008,2.008,0,0,1,1.206.371,2.393,2.393,0,0,1,.8,1.109A5.146,5.146,0,0,1-.66-3.485,5.329,5.329,0,0,1-.949-1.607a2.475,2.475,0,0,1-.8,1.144A1.961,1.961,0,0,1-2.958-.078Zm0-1.206a.6.6,0,0,0,.424-.179,1.321,1.321,0,0,0,.3-.655,6.5,6.5,0,0,0,.109-1.367,6.307,6.307,0,0,0-.109-1.354,1.214,1.214,0,0,0-.3-.629.623.623,0,0,0-.424-.166.629.629,0,0,0-.419.166,1.212,1.212,0,0,0-.306.629A6.072,6.072,0,0,0-3.8-3.485a6.26,6.26,0,0,0,.114,1.367,1.318,1.318,0,0,0,.306.655A.6.6,0,0,0-2.958-1.283Z" transform="translate(1237.874 424.878)"/><line class="c" x2="4" transform="translate(1223.676 421.276)"/></g><rect class="d" width="24" height="24" transform="translate(1217.924 408.924)"/></g><g class="e" transform="translate(-870.924 246.076)"><g transform="translate(-0.352 -0.352)"><path class="a" d="M2.908,4.084A8.635,8.635,0,0,1,9.694.889a8.8,8.8,0,1,1-8.8,8.8" transform="translate(1220.582 411.582)"/><path class="b" d="M10.779,11.252,7.918,8.39a.672.672,0,0,0-1.138.364L6.2,12.193a.672.672,0,0,0,.774.774l3.44-.578a.672.672,0,0,0,.364-1.138" transform="translate(1214.803 405.146)"/><path class="b" d="M-8.068-.078A3.525,3.525,0,0,1-9-.191,2.694,2.694,0,0,1-9.737-.51,2.544,2.544,0,0,1-10.3-.986l.716-.978a3.054,3.054,0,0,0,.638.45,1.519,1.519,0,0,0,.716.179A1.514,1.514,0,0,0-7.7-1.419a.733.733,0,0,0,.345-.249.673.673,0,0,0,.122-.411.86.86,0,0,0-.131-.48.838.838,0,0,0-.489-.306,3.922,3.922,0,0,0-1.04-.1v-1.1a2.873,2.873,0,0,0,.874-.1.861.861,0,0,0,.45-.3.754.754,0,0,0,.135-.446.664.664,0,0,0-.192-.511.778.778,0,0,0-.55-.179,1.276,1.276,0,0,0-.594.14,2.855,2.855,0,0,0-.568.4l-.786-.952a3.722,3.722,0,0,1,.948-.594,2.709,2.709,0,0,1,1.07-.21,3.092,3.092,0,0,1,1.175.205,1.7,1.7,0,0,1,.778.6,1.685,1.685,0,0,1,.275.983,1.44,1.44,0,0,1-.262.852,1.706,1.706,0,0,1-.778.581v.044a1.98,1.98,0,0,1,.642.319,1.529,1.529,0,0,1,.446.529,1.585,1.585,0,0,1,.162.734A1.614,1.614,0,0,1-6-.947,2.094,2.094,0,0,1-6.876-.3,3.127,3.127,0,0,1-8.068-.078Zm5.111,0a1.966,1.966,0,0,1-1.2-.384,2.487,2.487,0,0,1-.812-1.144,5.256,5.256,0,0,1-.293-1.878,5.112,5.112,0,0,1,.293-1.861,2.376,2.376,0,0,1,.812-1.109,2.03,2.03,0,0,1,1.2-.367,2.008,2.008,0,0,1,1.206.371,2.393,2.393,0,0,1,.8,1.109A5.146,5.146,0,0,1-.66-3.485,5.329,5.329,0,0,1-.949-1.607a2.475,2.475,0,0,1-.8,1.144A1.961,1.961,0,0,1-2.958-.078Zm0-1.206a.6.6,0,0,0,.424-.179,1.321,1.321,0,0,0,.3-.655,6.5,6.5,0,0,0,.109-1.367,6.307,6.307,0,0,0-.109-1.354,1.214,1.214,0,0,0-.3-.629.623.623,0,0,0-.424-.166.629.629,0,0,0-.419.166,1.212,1.212,0,0,0-.306.629A6.072,6.072,0,0,0-3.8-3.485a6.26,6.26,0,0,0,.114,1.367,1.318,1.318,0,0,0,.306.655A.6.6,0,0,0-2.958-1.283Z" transform="translate(1237.874 424.878)"/><line class="c" x2="4" transform="translate(1223.676 421.276)"/></g><rect class="d" width="24" height="24" transform="translate(1217.924 408.924)"/></g><g transform="translate(-918.924 246.076)"><g transform="translate(-0.352 -0.352)"><path class="f" d="M2.908,4.084A8.635,8.635,0,0,1,9.694.889a8.8,8.8,0,1,1-8.8,8.8" transform="translate(1220.582 411.582)"/><path class="g" d="M10.779,11.252,7.918,8.39a.672.672,0,0,0-1.138.364L6.2,12.193a.672.672,0,0,0,.774.774l3.44-.578a.672.672,0,0,0,.364-1.138" transform="translate(1214.803 405.146)"/><path class="g" d="M-8.068-.078A3.525,3.525,0,0,1-9-.191,2.694,2.694,0,0,1-9.737-.51,2.544,2.544,0,0,1-10.3-.986l.716-.978a3.054,3.054,0,0,0,.638.45,1.519,1.519,0,0,0,.716.179A1.514,1.514,0,0,0-7.7-1.419a.733.733,0,0,0,.345-.249.673.673,0,0,0,.122-.411.86.86,0,0,0-.131-.48.838.838,0,0,0-.489-.306,3.922,3.922,0,0,0-1.04-.1v-1.1a2.873,2.873,0,0,0,.874-.1.861.861,0,0,0,.45-.3.754.754,0,0,0,.135-.446.664.664,0,0,0-.192-.511.778.778,0,0,0-.55-.179,1.276,1.276,0,0,0-.594.14,2.855,2.855,0,0,0-.568.4l-.786-.952a3.722,3.722,0,0,1,.948-.594,2.709,2.709,0,0,1,1.07-.21,3.092,3.092,0,0,1,1.175.205,1.7,1.7,0,0,1,.778.6,1.685,1.685,0,0,1,.275.983,1.44,1.44,0,0,1-.262.852,1.706,1.706,0,0,1-.778.581v.044a1.98,1.98,0,0,1,.642.319,1.529,1.529,0,0,1,.446.529,1.585,1.585,0,0,1,.162.734A1.614,1.614,0,0,1-6-.947,2.094,2.094,0,0,1-6.876-.3,3.127,3.127,0,0,1-8.068-.078Zm5.111,0a1.966,1.966,0,0,1-1.2-.384,2.487,2.487,0,0,1-.812-1.144,5.256,5.256,0,0,1-.293-1.878,5.112,5.112,0,0,1,.293-1.861,2.376,2.376,0,0,1,.812-1.109,2.03,2.03,0,0,1,1.2-.367,2.008,2.008,0,0,1,1.206.371,2.393,2.393,0,0,1,.8,1.109A5.146,5.146,0,0,1-.66-3.485,5.329,5.329,0,0,1-.949-1.607a2.475,2.475,0,0,1-.8,1.144A1.961,1.961,0,0,1-2.958-.078Zm0-1.206a.6.6,0,0,0,.424-.179,1.321,1.321,0,0,0,.3-.655,6.5,6.5,0,0,0,.109-1.367,6.307,6.307,0,0,0-.109-1.354,1.214,1.214,0,0,0-.3-.629.623.623,0,0,0-.424-.166.629.629,0,0,0-.419.166,1.212,1.212,0,0,0-.306.629A6.072,6.072,0,0,0-3.8-3.485a6.26,6.26,0,0,0,.114,1.367,1.318,1.318,0,0,0,.306.655A.6.6,0,0,0-2.958-1.283Z" transform="translate(1237.874 424.878)"/><line class="h" x2="4" transform="translate(1223.676 421.276)"/></g><rect class="d" width="24" height="24" transform="translate(1217.924 408.924)"/></g><g transform="translate(-894.924 246.076)"><g transform="translate(-0.352 -0.352)"><path class="i" d="M2.908,4.084A8.635,8.635,0,0,1,9.694.889a8.8,8.8,0,1,1-8.8,8.8" transform="translate(1220.582 411.582)"/><path class="j" d="M10.779,11.252,7.918,8.39a.672.672,0,0,0-1.138.364L6.2,12.193a.672.672,0,0,0,.774.774l3.44-.578a.672.672,0,0,0,.364-1.138" transform="translate(1214.803 405.146)"/><path class="j" d="M-8.068-.078A3.525,3.525,0,0,1-9-.191,2.694,2.694,0,0,1-9.737-.51,2.544,2.544,0,0,1-10.3-.986l.716-.978a3.054,3.054,0,0,0,.638.45,1.519,1.519,0,0,0,.716.179A1.514,1.514,0,0,0-7.7-1.419a.733.733,0,0,0,.345-.249.673.673,0,0,0,.122-.411.86.86,0,0,0-.131-.48.838.838,0,0,0-.489-.306,3.922,3.922,0,0,0-1.04-.1v-1.1a2.873,2.873,0,0,0,.874-.1.861.861,0,0,0,.45-.3.754.754,0,0,0,.135-.446.664.664,0,0,0-.192-.511.778.778,0,0,0-.55-.179,1.276,1.276,0,0,0-.594.14,2.855,2.855,0,0,0-.568.4l-.786-.952a3.722,3.722,0,0,1,.948-.594,2.709,2.709,0,0,1,1.07-.21,3.092,3.092,0,0,1,1.175.205,1.7,1.7,0,0,1,.778.6,1.685,1.685,0,0,1,.275.983,1.44,1.44,0,0,1-.262.852,1.706,1.706,0,0,1-.778.581v.044a1.98,1.98,0,0,1,.642.319,1.529,1.529,0,0,1,.446.529,1.585,1.585,0,0,1,.162.734A1.614,1.614,0,0,1-6-.947,2.094,2.094,0,0,1-6.876-.3,3.127,3.127,0,0,1-8.068-.078Zm5.111,0a1.966,1.966,0,0,1-1.2-.384,2.487,2.487,0,0,1-.812-1.144,5.256,5.256,0,0,1-.293-1.878,5.112,5.112,0,0,1,.293-1.861,2.376,2.376,0,0,1,.812-1.109,2.03,2.03,0,0,1,1.2-.367,2.008,2.008,0,0,1,1.206.371,2.393,2.393,0,0,1,.8,1.109A5.146,5.146,0,0,1-.66-3.485,5.329,5.329,0,0,1-.949-1.607a2.475,2.475,0,0,1-.8,1.144A1.961,1.961,0,0,1-2.958-.078Zm0-1.206a.6.6,0,0,0,.424-.179,1.321,1.321,0,0,0,.3-.655,6.5,6.5,0,0,0,.109-1.367,6.307,6.307,0,0,0-.109-1.354,1.214,1.214,0,0,0-.3-.629.623.623,0,0,0-.424-.166.629.629,0,0,0-.419.166,1.212,1.212,0,0,0-.306.629A6.072,6.072,0,0,0-3.8-3.485a6.26,6.26,0,0,0,.114,1.367,1.318,1.318,0,0,0,.306.655A.6.6,0,0,0-2.958-1.283Z" transform="translate(1237.874 424.878)"/><line class="k" x2="4" transform="translate(1223.676 421.276)"/></g><rect class="d" width="24" height="24" transform="translate(1217.924 408.924)"/></g></g></svg>