<?xml version="1.0" encoding="utf-8"?>
<!-- Generator: Adobe Illustrator 21.0.0, SVG Export Plug-In . SVG Version: 6.00 Build 0)  -->
<svg version="1.1" id="图层_1" xmlns="http://www.w3.org/2000/svg" xmlns:xlink="http://www.w3.org/1999/xlink" x="0px" y="0px"
	 viewBox="0 0 192 48" style="enable-background:new 0 0 192 48;" xml:space="preserve">
<style type="text/css">
	.st0{fill:none;}
	.st1{fill:#DCE8F6;}
	.st2{fill:#336ED3;}
	.st3{fill-rule:evenodd;clip-rule:evenodd;fill:#E43333;}
	.st4{fill:#FFFFFF;}
	.st5{fill:#9C9C9C;}
	.st6{fill-rule:evenodd;clip-rule:evenodd;fill:#E47B7B;}
</style>
<rect class="st0" width="48" height="48"/>
<rect x="48" class="st0" width="48" height="48"/>
<rect x="96" class="st0" width="48" height="48"/>
<rect x="144" class="st0" width="48" height="48"/>
<g>
	<path class="st1" d="M82,42H62c-4.4,0-8-3.6-8-8V14c0-4.4,3.6-8,8-8h20c4.4,0,8,3.6,8,8v20C90,38.4,86.4,42,82,42"/>
	<path class="st2" d="M130,42h-20c-4.4,0-8-3.6-8-8V14c0-4.4,3.6-8,8-8h20c4.4,0,8,3.6,8,8v20C138,38.4,134.4,42,130,42"/>
</g>
<g>
	<g>
		<path class="st2" d="M36,24l-4,1.8V24c0-0.9-0.6-1.6-1.4-1.9c0.8-1,1.4-2.2,1.4-3.6c0-3-2.5-5.5-5.5-5.5c-2,0-3.8,1.1-4.7,2.7
			C20.8,14.7,19.5,14,18,14c-2.8,0-5,2.2-5,5c0,1.2,0.5,2.3,1.2,3.2c-0.7,0.3-1.2,1-1.2,1.8v8c0,1.1,0.9,2,2,2h15c1.1,0,2-0.9,2-2
			v-2.1l4,1.9V24z M26.5,15c1.9,0,3.5,1.6,3.5,3.5S28.4,22,26.5,22S23,20.4,23,18.5S24.6,15,26.5,15z M22.3,22H22
			c0-0.1,0.1-0.1,0.1-0.2C22.2,21.9,22.2,21.9,22.3,22z M18,16c1.7,0,3,1.3,3,3s-1.3,3-3,3s-3-1.3-3-3S16.3,16,18,16z M30,32H15v-8
			h15V32z"/>
		<path class="st3" d="M20,30v-2c0-1.1-0.9-2-2-2h-3c-0.2,0-0.4,0-0.6,0.1C14.3,26,14.1,26,14,26c-0.6,0-1,0.4-1,1v1v2v5
			c0,0.6,0.4,1,1,1s1-0.4,1-1v-3h0.4l2.7,3.5c0.3,0.5,0.9,0.6,1.4,0.4c0.5-0.3,0.6-0.9,0.4-1.4l-2-2.5H18C19.1,32,20,31.1,20,30z
			 M15,28h3v2h-3V28z"/>
	</g>
	<g>
		<path class="st2" d="M84,24l-4,1.8V24c0-0.9-0.6-1.6-1.4-1.9c0.8-1,1.4-2.2,1.4-3.6c0-3-2.5-5.5-5.5-5.5c-2,0-3.8,1.1-4.7,2.7
			C68.8,14.7,67.5,14,66,14c-2.8,0-5,2.2-5,5c0,1.2,0.5,2.3,1.2,3.2c-0.7,0.3-1.2,1-1.2,1.8v8c0,1.1,0.9,2,2,2h15c1.1,0,2-0.9,2-2
			v-2.1l4,1.9V24z M74.5,15c1.9,0,3.5,1.6,3.5,3.5S76.4,22,74.5,22S71,20.4,71,18.5S72.6,15,74.5,15z M70.3,22H70
			c0-0.1,0.1-0.1,0.1-0.2C70.2,21.9,70.2,21.9,70.3,22z M66,16c1.7,0,3,1.3,3,3s-1.3,3-3,3s-3-1.3-3-3S64.3,16,66,16z M78,32H63v-8
			h15V32z"/>
		<path class="st3" d="M68,30v-2c0-1.1-0.9-2-2-2h-3c-0.2,0-0.4,0-0.6,0.1C62.3,26,62.1,26,62,26c-0.6,0-1,0.4-1,1v1v2v5
			c0,0.6,0.4,1,1,1s1-0.4,1-1v-3h0.4l2.7,3.5c0.3,0.5,0.9,0.6,1.4,0.4c0.5-0.3,0.6-0.9,0.4-1.4l-2-2.5H66C67.1,32,68,31.1,68,30z
			 M63,28h3v2h-3V28z"/>
	</g>
	<g>
		<path class="st4" d="M132,24l-4,1.8V24c0-0.9-0.6-1.6-1.4-1.9c0.8-1,1.4-2.2,1.4-3.6c0-3-2.5-5.5-5.5-5.5c-2,0-3.8,1.1-4.7,2.7
			c-0.9-1.1-2.2-1.7-3.8-1.7c-2.8,0-5,2.2-5,5c0,1.2,0.5,2.3,1.2,3.2c-0.7,0.3-1.2,1-1.2,1.8v8c0,1.1,0.9,2,2,2h15c1.1,0,2-0.9,2-2
			v-2.1l4,1.9V24z M122.5,15c1.9,0,3.5,1.6,3.5,3.5s-1.6,3.5-3.5,3.5s-3.5-1.6-3.5-3.5S120.6,15,122.5,15z M118.3,22H118
			c0-0.1,0.1-0.1,0.1-0.2C118.2,21.9,118.2,21.9,118.3,22z M114,16c1.7,0,3,1.3,3,3s-1.3,3-3,3s-3-1.3-3-3S112.3,16,114,16z M126,32
			h-15v-8h15V32z"/>
		<path class="st3" d="M116,30v-2c0-1.1-0.9-2-2-2h-3c-0.2,0-0.4,0-0.6,0.1c-0.1-0.1-0.3-0.1-0.4-0.1c-0.6,0-1,0.4-1,1v1v2v5
			c0,0.6,0.4,1,1,1s1-0.4,1-1v-3h0.4l2.7,3.5c0.3,0.5,0.9,0.6,1.4,0.4c0.5-0.3,0.6-0.9,0.4-1.4l-2-2.5h0.1C115.1,32,116,31.1,116,30
			z M111,28h3v2h-3V28z"/>
	</g>
	<g>
		<path class="st5" d="M180,24l-4,1.8V24c0-0.9-0.6-1.6-1.4-1.9c0.8-1,1.4-2.2,1.4-3.6c0-3-2.5-5.5-5.5-5.5c-2,0-3.8,1.1-4.7,2.7
			c-0.9-1.1-2.2-1.7-3.8-1.7c-2.8,0-5,2.2-5,5c0,1.2,0.5,2.3,1.2,3.2c-0.7,0.3-1.2,1-1.2,1.8v8c0,1.1,0.9,2,2,2h15c1.1,0,2-0.9,2-2
			v-2.1l4,1.9V24z M170.5,15c1.9,0,3.5,1.6,3.5,3.5s-1.6,3.5-3.5,3.5s-3.5-1.6-3.5-3.5S168.6,15,170.5,15z M166.3,22H166
			c0-0.1,0.1-0.1,0.1-0.2C166.2,21.9,166.2,21.9,166.3,22z M162,16c1.7,0,3,1.3,3,3s-1.3,3-3,3s-3-1.3-3-3S160.3,16,162,16z M174,32
			h-15v-8h15V32z"/>
		<path class="st6" d="M164,30v-2c0-1.1-0.9-2-2-2h-3c-0.2,0-0.4,0-0.6,0.1c-0.1-0.1-0.3-0.1-0.4-0.1c-0.6,0-1,0.4-1,1v1v2v5
			c0,0.6,0.4,1,1,1s1-0.4,1-1v-3h0.4l2.7,3.5c0.3,0.5,0.9,0.6,1.4,0.4c0.5-0.3,0.6-0.9,0.4-1.4l-2-2.5h0.1C163.1,32,164,31.1,164,30
			z M159,28h3v2h-3V28z"/>
	</g>
</g>
</svg>
