<svg xmlns="http://www.w3.org/2000/svg" width="95.996" height="24.003" viewBox="0 0 95.996 24.003"><defs><style>.a{fill:#55616d;}.b{fill:none;}.c{fill:#818c98;}.d{fill:#438dec;}.e{opacity:0.3;}</style></defs><g transform="translate(-303.997 -621.998)"><g transform="translate(299.57 617.574)"><path class="a" d="M11.443,21H22.985a1.442,1.442,0,0,1,1.443,1.443v5.771a1.442,1.442,0,0,1-1.443,1.443H11.443A1.442,1.442,0,0,1,10,28.214V22.443A1.442,1.442,0,0,1,11.443,21" transform="translate(-2.23 -4.934)"/><path class="a" d="M32,23.8l1.989-.5a.721.721,0,0,1,.9.7v3.2a.721.721,0,0,1-.9.7L32,27.406Z" transform="translate(-8.36 -5.569)"/><path class="a" d="M14.582,12.5a1.082,1.082,0,1,0,1.082,1.082A1.083,1.083,0,0,0,14.582,12.5" transform="translate(-3.205 -2.566)"/><path class="a" d="M13.328,8a4.328,4.328,0,1,0,4.328,4.328A4.328,4.328,0,0,0,13.328,8m0,6.853a2.525,2.525,0,1,1,2.525-2.525,2.528,2.528,0,0,1-2.525,2.525" transform="translate(-1.951 -1.312)"/><path class="a" d="M25.246,11a3.246,3.246,0,1,0,3.246,3.246A3.246,3.246,0,0,0,25.246,11m0,4.689a1.443,1.443,0,1,1,1.443-1.443,1.442,1.442,0,0,1-1.443,1.443" transform="translate(-5.573 -2.148)"/><rect class="b" width="24" height="24" transform="translate(4.427 4.427)"/></g><g transform="translate(323.57 617.571)"><path class="c" d="M11.443,21H22.985a1.442,1.442,0,0,1,1.443,1.443v5.771a1.442,1.442,0,0,1-1.443,1.443H11.443A1.442,1.442,0,0,1,10,28.214V22.443A1.442,1.442,0,0,1,11.443,21" transform="translate(-2.23 -4.934)"/><path class="c" d="M32,23.8l1.989-.5a.721.721,0,0,1,.9.7v3.2a.721.721,0,0,1-.9.7L32,27.406Z" transform="translate(-8.36 -5.569)"/><path class="c" d="M14.582,12.5a1.082,1.082,0,1,0,1.082,1.082A1.083,1.083,0,0,0,14.582,12.5" transform="translate(-3.205 -2.566)"/><path class="c" d="M13.328,8a4.328,4.328,0,1,0,4.328,4.328A4.328,4.328,0,0,0,13.328,8m0,6.853a2.525,2.525,0,1,1,2.525-2.525,2.528,2.528,0,0,1-2.525,2.525" transform="translate(-1.951 -1.312)"/><path class="c" d="M25.246,11a3.246,3.246,0,1,0,3.246,3.246A3.246,3.246,0,0,0,25.246,11m0,4.689a1.443,1.443,0,1,1,1.443-1.443,1.442,1.442,0,0,1-1.443,1.443" transform="translate(-5.573 -2.148)"/><rect class="b" width="24" height="24" transform="translate(4.427 4.427)"/></g><g transform="translate(347.57 617.571)"><path class="d" d="M11.443,21H22.985a1.442,1.442,0,0,1,1.443,1.443v5.771a1.442,1.442,0,0,1-1.443,1.443H11.443A1.442,1.442,0,0,1,10,28.214V22.443A1.442,1.442,0,0,1,11.443,21" transform="translate(-2.23 -4.934)"/><path class="d" d="M32,23.8l1.989-.5a.721.721,0,0,1,.9.7v3.2a.721.721,0,0,1-.9.7L32,27.406Z" transform="translate(-8.36 -5.569)"/><path class="d" d="M14.582,12.5a1.082,1.082,0,1,0,1.082,1.082A1.083,1.083,0,0,0,14.582,12.5" transform="translate(-3.205 -2.566)"/><path class="d" d="M13.328,8a4.328,4.328,0,1,0,4.328,4.328A4.328,4.328,0,0,0,13.328,8m0,6.853a2.525,2.525,0,1,1,2.525-2.525,2.528,2.528,0,0,1-2.525,2.525" transform="translate(-1.951 -1.312)"/><path class="d" d="M25.246,11a3.246,3.246,0,1,0,3.246,3.246A3.246,3.246,0,0,0,25.246,11m0,4.689a1.443,1.443,0,1,1,1.443-1.443,1.442,1.442,0,0,1-1.443,1.443" transform="translate(-5.573 -2.148)"/><rect class="b" width="24" height="24" transform="translate(4.427 4.427)"/></g><g class="e" transform="translate(371.566 617.572)"><path class="a" d="M11.443,21H22.985a1.442,1.442,0,0,1,1.443,1.443v5.771a1.442,1.442,0,0,1-1.443,1.443H11.443A1.442,1.442,0,0,1,10,28.214V22.443A1.442,1.442,0,0,1,11.443,21" transform="translate(-2.23 -4.934)"/><path class="a" d="M32,23.8l1.989-.5a.721.721,0,0,1,.9.7v3.2a.721.721,0,0,1-.9.7L32,27.406Z" transform="translate(-8.36 -5.569)"/><path class="a" d="M14.582,12.5a1.082,1.082,0,1,0,1.082,1.082A1.083,1.083,0,0,0,14.582,12.5" transform="translate(-3.205 -2.566)"/><path class="a" d="M13.328,8a4.328,4.328,0,1,0,4.328,4.328A4.328,4.328,0,0,0,13.328,8m0,6.853a2.525,2.525,0,1,1,2.525-2.525,2.528,2.528,0,0,1-2.525,2.525" transform="translate(-1.951 -1.312)"/><path class="a" d="M25.246,11a3.246,3.246,0,1,0,3.246,3.246A3.246,3.246,0,0,0,25.246,11m0,4.689a1.443,1.443,0,1,1,1.443-1.443,1.442,1.442,0,0,1-1.443,1.443" transform="translate(-5.573 -2.148)"/><rect class="b" width="24" height="24" transform="translate(4.427 4.427)"/></g></g></svg>