<svg xmlns="http://www.w3.org/2000/svg" width="80" height="20" viewBox="0 0 80 20"><defs><style>.a{fill:#55616d;}.b{fill:none;}.c{fill:#818c98;}.d{fill:#438dec;}.e{fill:#cbced2;}</style></defs><g transform="translate(-460 -1479.001)"><g transform="translate(176 1391.001)"><g transform="translate(297.975 98) rotate(135)"><rect class="a" width="1.758" height="7.035" rx="0.879" transform="translate(0 0)"/><rect class="a" width="7.035" height="1.758" rx="0.879" transform="translate(0 0.001)"/></g><rect class="b" width="20" height="20" transform="translate(284 88)"/></g><g transform="translate(196 1391.001)"><g transform="translate(297.975 98) rotate(135)"><rect class="c" width="1.758" height="7.035" rx="0.879" transform="translate(0 0)"/><rect class="c" width="7.035" height="1.758" rx="0.879" transform="translate(0 0.001)"/></g><rect class="b" width="20" height="20" transform="translate(284 88)"/></g><g transform="translate(216 1391.001)"><g transform="translate(297.975 98) rotate(135)"><rect class="d" width="1.758" height="7.035" rx="0.879" transform="translate(0 0)"/><rect class="d" width="7.035" height="1.758" rx="0.879" transform="translate(0 0.001)"/></g><rect class="b" width="20" height="20" transform="translate(284 88)"/></g><g transform="translate(236 1391.001)"><g transform="translate(297.975 98) rotate(135)"><rect class="e" width="1.758" height="7.035" rx="0.879" transform="translate(0 0)"/><rect class="e" width="7.035" height="1.758" rx="0.879" transform="translate(0 0.001)"/></g><rect class="b" width="20" height="20" transform="translate(284 88)"/></g></g></svg>