<svg xmlns="http://www.w3.org/2000/svg" width="20" height="20" viewBox="0 0 20 20"><defs><style>.a,.b{fill:#fff;}.b{stroke:rgba(0,0,0,0);stroke-miterlimit:10;}.c{fill:none;}</style></defs><g transform="translate(-2.153 -2.153)"><path class="a" d="M7.61,9h3.049v3.049H7V9.61A.61.61,0,0,1,7.61,9" transform="translate(4.705 3.916)"/><path class="a" d="M21,9h3.049a.61.61,0,0,1,.61.61v2.439H21Z" transform="translate(-4.795 3.916)"/><path class="a" d="M7,21h3.659v3.049H7.61a.61.61,0,0,1-.61-.61Z" transform="translate(4.705 -4.227)"/><path class="a" d="M21,21h3.659v2.439a.61.61,0,0,1-.61.61H21Z" transform="translate(-4.795 -4.227)"/><path class="b" d="M6.075,14.17H1.416A1.417,1.417,0,0,1,0,12.754V1.416A1.427,1.427,0,0,1,1.416,0h9.775a1.405,1.405,0,0,1,1,.415l2,2a1.405,1.405,0,0,1,.415,1V7.287H7.575a1.5,1.5,0,0,0-1.5,1.5v5.382ZM3.1,2.123V4.954a.709.709,0,0,0,.708.708h6.552a.709.709,0,0,0,.707-.708V2.123a.708.708,0,0,0-.707-.707H3.809a.708.708,0,0,0-.707.707H3.1Zm7.265,2.831H8.236l0-2.831h2.123v2.83Z" transform="translate(4.443 4.485)"/><rect class="c" width="20" height="20" transform="translate(2.153 2.153)"/></g></svg>