<?xml version="1.0" encoding="utf-8"?>
<!-- Generator: Adobe Illustrator 21.0.0, SVG Export Plug-In . SVG Version: 6.00 Build 0)  -->
<svg version="1.1" id="图层_1" xmlns="http://www.w3.org/2000/svg" xmlns:xlink="http://www.w3.org/1999/xlink" x="0px" y="0px"
	 viewBox="0 0 20 20" style="enable-background:new 0 0 20 20;" xml:space="preserve">
<style type="text/css">
	.st0{fill:#96A6BA;}
	.st1{fill:none;}
</style>
<path class="st0" d="M16.7,15.3l-2.9-2.9c0.7-1,1.1-2.2,1.1-3.5c0-3.3-2.7-6-6-6S3,5.7,3,9s2.7,6,6,6c1.3,0,2.5-0.4,3.5-1.1l2.9,2.9
	c0.4,0.4,1,0.4,1.4,0S17.1,15.7,16.7,15.3z M5,9c0-2.2,1.8-4,4-4c2.2,0,4,1.8,4,4c0,2.2-1.8,4-4,4C6.8,13,5,11.2,5,9z"/>
<rect class="st1" width="20" height="20"/>
</svg>
