<svg xmlns="http://www.w3.org/2000/svg" width="96" height="24" viewBox="0 0 96 24"><defs><style>.a{fill:#fff;}.b{fill:none;}.c{fill:#aed1ff;}.d{fill:#438dec;}.e{fill:#cecece;opacity:0.5;}</style></defs><g transform="translate(-487.999 -824.001)"><g transform="translate(483.352 819.354)"><path class="a" d="M17.866,12.507H14.889V5.36A1.193,1.193,0,0,0,13.7,4.169H6.551V1.191a1.191,1.191,0,1,0-2.382,0V4.169H1.191a1.191,1.191,0,0,0,0,2.382H4.169V13.7A1.193,1.193,0,0,0,5.36,14.889h7.147v2.978a1.191,1.191,0,0,0,2.382,0V14.889h2.977a1.191,1.191,0,1,0,0-2.382m-5.359,0H6.551V6.551h5.956Z" transform="translate(7.119 7.119)"/><rect class="b" width="24" height="24" transform="translate(4.648 4.648)"/></g><g transform="translate(507.352 819.354)"><path class="c" d="M17.866,12.507H14.889V5.36A1.193,1.193,0,0,0,13.7,4.169H6.551V1.191a1.191,1.191,0,1,0-2.382,0V4.169H1.191a1.191,1.191,0,0,0,0,2.382H4.169V13.7A1.193,1.193,0,0,0,5.36,14.889h7.147v2.978a1.191,1.191,0,0,0,2.382,0V14.889h2.977a1.191,1.191,0,1,0,0-2.382m-5.359,0H6.551V6.551h5.956Z" transform="translate(7.119 7.119)"/><rect class="b" width="24" height="24" transform="translate(4.648 4.648)"/></g><g transform="translate(531.352 819.354)"><path class="d" d="M17.866,12.507H14.889V5.36A1.193,1.193,0,0,0,13.7,4.169H6.551V1.191a1.191,1.191,0,1,0-2.382,0V4.169H1.191a1.191,1.191,0,0,0,0,2.382H4.169V13.7A1.193,1.193,0,0,0,5.36,14.889h7.147v2.978a1.191,1.191,0,0,0,2.382,0V14.889h2.977a1.191,1.191,0,1,0,0-2.382m-5.359,0H6.551V6.551h5.956Z" transform="translate(7.119 7.119)"/><rect class="b" width="24" height="24" transform="translate(4.648 4.648)"/></g><g transform="translate(555.352 819.354)"><path class="e" d="M17.866,12.507H14.889V5.36A1.193,1.193,0,0,0,13.7,4.169H6.551V1.191a1.191,1.191,0,1,0-2.382,0V4.169H1.191a1.191,1.191,0,0,0,0,2.382H4.169V13.7A1.193,1.193,0,0,0,5.36,14.889h7.147v2.978a1.191,1.191,0,0,0,2.382,0V14.889h2.977a1.191,1.191,0,1,0,0-2.382m-5.359,0H6.551V6.551h5.956Z" transform="translate(7.119 7.119)"/><rect class="b" width="24" height="24" transform="translate(4.648 4.648)"/></g></g></svg>