<?xml version="1.0" encoding="utf-8"?>
<!-- Generator: Adobe Illustrator 21.0.0, SVG Export Plug-In . SVG Version: 6.00 Build 0)  -->
<svg version="1.1" id="图层_1" xmlns="http://www.w3.org/2000/svg" xmlns:xlink="http://www.w3.org/1999/xlink" x="0px" y="0px"
	 viewBox="0 0 48 48" style="enable-background:new 0 0 48 48;" xml:space="preserve">
<style type="text/css">
	.st0{fill:none;}
	.st1{opacity:0.2;}
	.st2{fill:#508CD0;}
	.st3{fill:#336ED3;}
</style>
<rect x="0" class="st0" width="48" height="48"/>
<g class="st1">
	<path class="st2" d="M34,42H14c-4.4,0-8-3.6-8-8V14c0-4.4,3.6-8,8-8h20c4.4,0,8,3.6,8,8v20C42,38.4,38.4,42,34,42"/>
</g>
<path class="st3" d="M32,13h-4c-1.1,0-2,0.9-2,2v6.4l-9.7-8C15.9,13.2,15.5,13,15,13c-0.3,0-0.6,0.1-0.9,0.2c-0.7,0.3-1.1,1-1.1,1.8
	v18c0,0.8,0.4,1.5,1.1,1.8c0.3,0.1,0.6,0.2,0.9,0.2c0.5,0,0.9-0.2,1.3-0.5l9.7-8V33c0,1.1,0.9,2,2,2h4c1.1,0,2-0.9,2-2V15
	C34,13.9,33.1,13,32,13z M15,33V15l11,9L15,33z M32,33h-4V15h4V33z"/>
</svg>
