<svg xmlns="http://www.w3.org/2000/svg" width="96" height="24.001" viewBox="0 0 96 24.001"><defs><style>.a,.b{fill:#55616d;}.b,.e,.g{opacity:0.75;}.c{fill:none;}.d,.e{fill:#818c98;}.f,.g{fill:#438dec;}.h{opacity:0.3;}</style></defs><g transform="translate(-184.001 -590)"><g transform="translate(182.107 588.106)"><path class="a" d="M19.091,9.894l8.88,5.74a1.379,1.379,0,0,1,0,2.316l-8.88,5.74a1.379,1.379,0,0,1-2.128-1.158V11.052a1.379,1.379,0,0,1,2.128-1.158" transform="translate(-5.164 -2.899)"/><path class="b" d="M12.379,10h0a1.379,1.379,0,0,1,1.379,1.379V22.41a1.379,1.379,0,1,1-2.758,0V11.379A1.379,1.379,0,0,1,12.379,10" transform="translate(-3.312 -3.001)"/><path class="b" d="M7.689,11h0a.69.69,0,0,1,.689.689V22.721a.689.689,0,0,1-1.379,0V11.689A.69.69,0,0,1,7.689,11" transform="translate(-2.07 -3.312)"/><rect class="c" width="24" height="24" transform="translate(1.893 1.893)"/></g><g transform="translate(206.107 588.106)"><path class="d" d="M19.091,9.894l8.88,5.74a1.379,1.379,0,0,1,0,2.316l-8.88,5.74a1.379,1.379,0,0,1-2.128-1.158V11.052a1.379,1.379,0,0,1,2.128-1.158" transform="translate(-5.164 -2.899)"/><path class="e" d="M12.379,10h0a1.379,1.379,0,0,1,1.379,1.379V22.41a1.379,1.379,0,1,1-2.758,0V11.379A1.379,1.379,0,0,1,12.379,10" transform="translate(-3.312 -3.001)"/><path class="e" d="M7.689,11h0a.69.69,0,0,1,.689.689V22.721a.689.689,0,0,1-1.379,0V11.689A.69.69,0,0,1,7.689,11" transform="translate(-2.07 -3.312)"/><rect class="c" width="24" height="24" transform="translate(1.893 1.893)"/></g><g transform="translate(230.107 588.107)"><path class="f" d="M19.091,9.894l8.88,5.74a1.379,1.379,0,0,1,0,2.316l-8.88,5.74a1.379,1.379,0,0,1-2.128-1.158V11.052a1.379,1.379,0,0,1,2.128-1.158" transform="translate(-5.164 -2.899)"/><path class="g" d="M12.379,10h0a1.379,1.379,0,0,1,1.379,1.379V22.41a1.379,1.379,0,1,1-2.758,0V11.379A1.379,1.379,0,0,1,12.379,10" transform="translate(-3.312 -3.001)"/><path class="g" d="M7.689,11h0a.69.69,0,0,1,.689.689V22.721a.689.689,0,0,1-1.379,0V11.689A.69.69,0,0,1,7.689,11" transform="translate(-2.07 -3.312)"/><rect class="c" width="24" height="24" transform="translate(1.893 1.893)"/></g><g class="h" transform="translate(254.107 588.107)"><path class="a" d="M19.091,9.894l8.88,5.74a1.379,1.379,0,0,1,0,2.316l-8.88,5.74a1.379,1.379,0,0,1-2.128-1.158V11.052a1.379,1.379,0,0,1,2.128-1.158" transform="translate(-5.164 -2.899)"/><path class="b" d="M12.379,10h0a1.379,1.379,0,0,1,1.379,1.379V22.41a1.379,1.379,0,1,1-2.758,0V11.379A1.379,1.379,0,0,1,12.379,10" transform="translate(-3.312 -3.001)"/><path class="b" d="M7.689,11h0a.69.69,0,0,1,.689.689V22.721a.689.689,0,0,1-1.379,0V11.689A.69.69,0,0,1,7.689,11" transform="translate(-2.07 -3.312)"/><rect class="c" width="24" height="24" transform="translate(1.893 1.893)"/></g></g></svg>