<?xml version="1.0" encoding="utf-8"?>
<!-- Generator: Adobe Illustrator 21.0.0, SVG Export Plug-In . SVG Version: 6.00 Build 0)  -->
<svg version="1.1" id="图层_1" xmlns="http://www.w3.org/2000/svg" xmlns:xlink="http://www.w3.org/1999/xlink" x="0px" y="0px"
	 viewBox="0 0 192 48" style="enable-background:new 0 0 192 48;" xml:space="preserve">
<style type="text/css">
	.st0{fill:none;}
	.st1{fill:#DCE8F6;}
	.st2{fill:#336ED3;}
	.st3{fill:#FFFFFF;}
	.st4{fill:#9C9C9C;}
</style>
<rect class="st0" width="48" height="48"/>
<rect x="48" class="st0" width="48" height="48"/>
<rect x="96" class="st0" width="48" height="48"/>
<rect x="144" class="st0" width="48" height="48"/>
<g>
	<path class="st1" d="M82,42H62c-4.4,0-8-3.6-8-8V14c0-4.4,3.6-8,8-8h20c4.4,0,8,3.6,8,8v20C90,38.4,86.4,42,82,42"/>
	<path class="st2" d="M130,42h-20c-4.4,0-8-3.6-8-8V14c0-4.4,3.6-8,8-8h20c4.4,0,8,3.6,8,8v20C138,38.4,134.4,42,130,42"/>
</g>
<g>
	<g>
		<g>
			<path class="st2" d="M36.7,21h-2.1l-3,4.6h0c-0.2-0.3-0.3-0.6-0.5-0.9L28.7,21h-2.2l3.9,5.6L26.3,32h2.2l2.4-3.6
				c0.3-0.5,0.5-0.8,0.6-0.8h0c0.2,0.3,0.4,0.6,0.5,0.8l2.4,3.6h2.2l-4-5.4L36.7,21z M22.1,19.1h-2.2v-9h-2.4c0,0.3-0.1,0.5-0.2,0.7
				c-0.1,0.2-0.3,0.4-0.6,0.5c-0.2,0.1-0.5,0.2-0.8,0.2c-0.3,0-0.6,0.1-1,0.1v1.8h2.3v5.8h-2.3V21h7.2V19.1z M24.2,23H12.8
				c-0.5,0-0.8,0.4-0.8,0.8v0.1c0,0.5,0.4,0.8,0.8,0.8h11.3c0.5,0,0.8-0.4,0.8-0.8v-0.1C25,23.4,24.6,23,24.2,23z M21.5,27.1h-2.8
				l-5,6.3v2.1h5.2V38h2.6v-2.5h1.5v-2h-1.5V27.1z M18.8,33.5h-3.1l3.1-3.9V33.5z"/>
		</g>
	</g>
	<g>
		<g>
			<path class="st2" d="M84.7,21h-2.1l-3,4.6h0c-0.2-0.3-0.3-0.6-0.5-0.9L76.7,21h-2.2l3.9,5.6L74.3,32h2.2l2.4-3.6
				c0.3-0.5,0.5-0.8,0.6-0.8h0c0.2,0.3,0.4,0.6,0.5,0.8l2.4,3.6h2.2l-4-5.4L84.7,21z M70.1,19.1h-2.2v-9h-2.4c0,0.3-0.1,0.5-0.2,0.7
				c-0.1,0.2-0.3,0.4-0.6,0.5c-0.2,0.1-0.5,0.2-0.8,0.2c-0.3,0-0.6,0.1-1,0.1v1.8h2.3v5.8h-2.3V21h7.2V19.1z M72.2,23H60.8
				c-0.5,0-0.8,0.4-0.8,0.8v0.1c0,0.5,0.4,0.8,0.8,0.8h11.3c0.5,0,0.8-0.4,0.8-0.8v-0.1C73,23.4,72.6,23,72.2,23z M69.5,27.1h-2.8
				l-5,6.3v2.1h5.2V38h2.6v-2.5h1.5v-2h-1.5V27.1z M66.8,33.5h-3.1l3.1-3.9V33.5z"/>
		</g>
	</g>
	<g>
		<g>
			<path class="st3" d="M132.7,21h-2.1l-3,4.6h0c-0.2-0.3-0.3-0.6-0.5-0.9l-2.3-3.8h-2.2l3.9,5.6l-4.1,5.4h2.2l2.4-3.6
				c0.3-0.5,0.5-0.8,0.6-0.8h0c0.2,0.3,0.4,0.6,0.5,0.8l2.4,3.6h2.2l-4-5.4L132.7,21z M118.1,19.1h-2.2v-9h-2.4
				c0,0.3-0.1,0.5-0.2,0.7c-0.1,0.2-0.3,0.4-0.6,0.5c-0.2,0.1-0.5,0.2-0.8,0.2c-0.3,0-0.6,0.1-1,0.1v1.8h2.3v5.8h-2.3V21h7.2V19.1z
				 M120.2,23h-11.3c-0.5,0-0.8,0.4-0.8,0.8v0.1c0,0.5,0.4,0.8,0.8,0.8h11.3c0.5,0,0.8-0.4,0.8-0.8v-0.1C121,23.4,120.6,23,120.2,23
				z M117.5,27.1h-2.8l-5,6.3v2.1h5.2V38h2.6v-2.5h1.5v-2h-1.5V27.1z M114.8,33.5h-3.1l3.1-3.9V33.5z"/>
		</g>
	</g>
	<g>
		<g>
			<path class="st4" d="M180.7,21h-2.1l-3,4.6h0c-0.2-0.3-0.3-0.6-0.5-0.9l-2.3-3.8h-2.2l3.9,5.6l-4.1,5.4h2.2l2.4-3.6
				c0.3-0.5,0.5-0.8,0.6-0.8h0c0.2,0.3,0.4,0.6,0.5,0.8l2.4,3.6h2.2l-4-5.4L180.7,21z M166.1,19.1h-2.2v-9h-2.4
				c0,0.3-0.1,0.5-0.2,0.7c-0.1,0.2-0.3,0.4-0.6,0.5c-0.2,0.1-0.5,0.2-0.8,0.2c-0.3,0-0.6,0.1-1,0.1v1.8h2.3v5.8h-2.3V21h7.2V19.1z
				 M168.2,23h-11.3c-0.5,0-0.8,0.4-0.8,0.8v0.1c0,0.5,0.4,0.8,0.8,0.8h11.3c0.5,0,0.8-0.4,0.8-0.8v-0.1C169,23.4,168.6,23,168.2,23
				z M165.5,27.1h-2.8l-5,6.3v2.1h5.2V38h2.6v-2.5h1.5v-2h-1.5V27.1z M162.8,33.5h-3.1l3.1-3.9V33.5z"/>
		</g>
	</g>
</g>
</svg>
