<?xml version="1.0" encoding="utf-8"?>
<!-- Generator: Adobe Illustrator 21.0.0, SVG Export Plug-In . SVG Version: 6.00 Build 0)  -->
<svg version="1.1" id="图层_1" xmlns="http://www.w3.org/2000/svg" xmlns:xlink="http://www.w3.org/1999/xlink" x="0px" y="0px"
	 viewBox="0 0 192 48" style="enable-background:new 0 0 192 48;" xml:space="preserve">
<style type="text/css">
	.st0{fill:none;}
	.st1{fill:#DCE8F6;}
	.st2{fill:#336ED3;}
	.st3{fill:#FFFFFF;}
	.st4{fill:#9C9C9C;}
</style>
<rect class="st0" width="48" height="48"/>
<rect x="48" class="st0" width="48" height="48"/>
<rect x="96" class="st0" width="48" height="48"/>
<rect x="144" class="st0" width="48" height="48"/>
<g>
	<path class="st1" d="M82,42H62c-4.4,0-8-3.6-8-8V14c0-4.4,3.6-8,8-8h20c4.4,0,8,3.6,8,8v20C90,38.4,86.4,42,82,42"/>
	<path class="st2" d="M130,42h-20c-4.4,0-8-3.6-8-8V14c0-4.4,3.6-8,8-8h20c4.4,0,8,3.6,8,8v20C138,38.4,134.4,42,130,42"/>
</g>
<g>
	<g>
		<g>
			<path class="st2" d="M36.7,21h-2.1l-3,4.6h0c-0.2-0.3-0.3-0.6-0.5-0.9L28.7,21h-2.2l3.9,5.6L26.3,32h2.2l2.4-3.6
				c0.3-0.5,0.5-0.8,0.6-0.8h0c0.2,0.3,0.4,0.6,0.5,0.8l2.4,3.6h2.2l-4-5.4L36.7,21z M22.1,19.1h-2.2v-9h-2.4c0,0.3-0.1,0.5-0.2,0.7
				c-0.1,0.2-0.3,0.4-0.6,0.5c-0.2,0.1-0.5,0.2-0.8,0.2c-0.3,0-0.6,0.1-1,0.1v1.8h2.3v5.8h-2.3V21h7.2V19.1z M24.2,23H12.8
				c-0.5,0-0.8,0.4-0.8,0.8v0.1c0,0.5,0.4,0.8,0.8,0.8h11.3c0.5,0,0.8-0.4,0.8-0.8v-0.1C25,23.4,24.6,23,24.2,23z M18.9,35.2
				c0.4-0.3,0.9-0.7,1.3-1.1c0.7-0.7,1.2-1.3,1.6-1.9c0.3-0.6,0.5-1.3,0.5-2c0-1-0.4-1.9-1.1-2.4c-0.7-0.6-1.7-0.9-3.1-0.9
				c-0.7,0-1.3,0.1-2,0.2c-0.7,0.2-1.2,0.3-1.5,0.5V30h0.2c0.4-0.3,0.9-0.5,1.4-0.7c0.5-0.2,1-0.3,1.4-0.3c0.6,0,1,0.1,1.4,0.4
				c0.3,0.3,0.5,0.7,0.5,1.2c0,0.4-0.1,0.8-0.4,1.3c-0.2,0.4-0.7,0.9-1.2,1.5c-0.4,0.4-0.9,0.8-1.6,1.4c-0.6,0.5-1.3,1-1.9,1.5V38
				h8.4v-2.1H18C18.2,35.8,18.5,35.5,18.9,35.2z"/>
		</g>
	</g>
	<g>
		<g>
			<path class="st2" d="M84.7,21h-2.1l-3,4.6h0c-0.2-0.3-0.3-0.6-0.5-0.9L76.7,21h-2.2l3.9,5.6L74.3,32h2.2l2.4-3.6
				c0.3-0.5,0.5-0.8,0.6-0.8h0c0.2,0.3,0.4,0.6,0.5,0.8l2.4,3.6h2.2l-4-5.4L84.7,21z M70.1,19.1h-2.2v-9h-2.4c0,0.3-0.1,0.5-0.2,0.7
				c-0.1,0.2-0.3,0.4-0.6,0.5c-0.2,0.1-0.5,0.2-0.8,0.2c-0.3,0-0.6,0.1-1,0.1v1.8h2.3v5.8h-2.3V21h7.2V19.1z M72.2,23H60.8
				c-0.5,0-0.8,0.4-0.8,0.8v0.1c0,0.5,0.4,0.8,0.8,0.8h11.3c0.5,0,0.8-0.4,0.8-0.8v-0.1C73,23.4,72.6,23,72.2,23z M66.9,35.2
				c0.4-0.3,0.9-0.7,1.3-1.1c0.7-0.7,1.2-1.3,1.6-1.9c0.3-0.6,0.5-1.3,0.5-2c0-1-0.4-1.9-1.1-2.4c-0.7-0.6-1.7-0.9-3.1-0.9
				c-0.7,0-1.3,0.1-2,0.2c-0.7,0.2-1.2,0.3-1.5,0.5V30h0.2c0.4-0.3,0.9-0.5,1.4-0.7c0.5-0.2,1-0.3,1.4-0.3c0.6,0,1,0.1,1.4,0.4
				c0.3,0.3,0.5,0.7,0.5,1.2c0,0.4-0.1,0.8-0.4,1.3c-0.2,0.4-0.7,0.9-1.2,1.5c-0.4,0.4-0.9,0.8-1.6,1.4c-0.6,0.5-1.3,1-1.9,1.5V38
				h8.4v-2.1H66C66.2,35.8,66.5,35.5,66.9,35.2z"/>
		</g>
	</g>
	<g>
		<g>
			<path class="st3" d="M132.7,21h-2.1l-3,4.6h0c-0.2-0.3-0.3-0.6-0.5-0.9l-2.3-3.8h-2.2l3.9,5.6l-4.1,5.4h2.2l2.4-3.6
				c0.3-0.5,0.5-0.8,0.6-0.8h0c0.2,0.3,0.4,0.6,0.5,0.8l2.4,3.6h2.2l-4-5.4L132.7,21z M118.1,19.1h-2.2v-9h-2.4
				c0,0.3-0.1,0.5-0.2,0.7c-0.1,0.2-0.3,0.4-0.6,0.5c-0.2,0.1-0.5,0.2-0.8,0.2c-0.3,0-0.6,0.1-1,0.1v1.8h2.3v5.8h-2.3V21h7.2V19.1z
				 M120.2,23h-11.3c-0.5,0-0.8,0.4-0.8,0.8v0.1c0,0.5,0.4,0.8,0.8,0.8h11.3c0.5,0,0.8-0.4,0.8-0.8v-0.1C121,23.4,120.6,23,120.2,23
				z M114.9,35.2c0.4-0.3,0.9-0.7,1.3-1.1c0.7-0.7,1.2-1.3,1.6-1.9c0.3-0.6,0.5-1.3,0.5-2c0-1-0.4-1.9-1.1-2.4
				c-0.7-0.6-1.7-0.9-3.1-0.9c-0.7,0-1.3,0.1-2,0.2c-0.7,0.2-1.2,0.3-1.5,0.5V30h0.2c0.4-0.3,0.9-0.5,1.4-0.7c0.5-0.2,1-0.3,1.4-0.3
				c0.6,0,1,0.1,1.4,0.4c0.3,0.3,0.5,0.7,0.5,1.2c0,0.4-0.1,0.8-0.4,1.3c-0.2,0.4-0.7,0.9-1.2,1.5c-0.4,0.4-0.9,0.8-1.6,1.4
				c-0.6,0.5-1.3,1-1.9,1.5V38h8.4v-2.1H114C114.2,35.8,114.5,35.5,114.9,35.2z"/>
		</g>
	</g>
	<g>
		<g>
			<path class="st4" d="M180.7,21h-2.1l-3,4.6h0c-0.2-0.3-0.3-0.6-0.5-0.9l-2.3-3.8h-2.2l3.9,5.6l-4.1,5.4h2.2l2.4-3.6
				c0.3-0.5,0.5-0.8,0.6-0.8h0c0.2,0.3,0.4,0.6,0.5,0.8l2.4,3.6h2.2l-4-5.4L180.7,21z M166.1,19.1h-2.2v-9h-2.4
				c0,0.3-0.1,0.5-0.2,0.7c-0.1,0.2-0.3,0.4-0.6,0.5c-0.2,0.1-0.5,0.2-0.8,0.2c-0.3,0-0.6,0.1-1,0.1v1.8h2.3v5.8h-2.3V21h7.2V19.1z
				 M168.2,23h-11.3c-0.5,0-0.8,0.4-0.8,0.8v0.1c0,0.5,0.4,0.8,0.8,0.8h11.3c0.5,0,0.8-0.4,0.8-0.8v-0.1C169,23.4,168.6,23,168.2,23
				z M162.9,35.2c0.4-0.3,0.9-0.7,1.3-1.1c0.7-0.7,1.2-1.3,1.6-1.9c0.3-0.6,0.5-1.3,0.5-2c0-1-0.4-1.9-1.1-2.4
				c-0.7-0.6-1.7-0.9-3.1-0.9c-0.7,0-1.3,0.1-2,0.2c-0.7,0.2-1.2,0.3-1.5,0.5V30h0.2c0.4-0.3,0.9-0.5,1.4-0.7c0.5-0.2,1-0.3,1.4-0.3
				c0.6,0,1,0.1,1.4,0.4c0.3,0.3,0.5,0.7,0.5,1.2c0,0.4-0.1,0.8-0.4,1.3c-0.2,0.4-0.7,0.9-1.2,1.5c-0.4,0.4-0.9,0.8-1.6,1.4
				c-0.6,0.5-1.3,1-1.9,1.5V38h8.4v-2.1H162C162.2,35.8,162.5,35.5,162.9,35.2z"/>
		</g>
	</g>
</g>
</svg>
