<?xml version="1.0" encoding="utf-8"?>
<!-- Generator: Adobe Illustrator 21.0.0, SVG Export Plug-In . SVG Version: 6.00 Build 0)  -->
<svg version="1.1" id="图层_1" xmlns="http://www.w3.org/2000/svg" xmlns:xlink="http://www.w3.org/1999/xlink" x="0px" y="0px"
	 viewBox="0 0 192 48" style="enable-background:new 0 0 192 48;" xml:space="preserve">
<style type="text/css">
	.st0{fill:none;}
	.st1{fill:#DCE8F6;}
	.st2{fill:#336ED3;}
	.st3{fill:#9C9C9C;}
	.st4{fill:#FFFFFF;}
</style>
<rect class="st0" width="48" height="48"/>
<rect x="48" class="st0" width="48" height="48"/>
<rect x="96" class="st0" width="48" height="48"/>
<rect x="144" class="st0" width="48" height="48"/>
<g>
	<path class="st1" d="M82,42H62c-4.4,0-8-3.6-8-8V14c0-4.4,3.6-8,8-8h20c4.4,0,8,3.6,8,8v20C90,38.4,86.4,42,82,42"/>
	<path class="st2" d="M130,42h-20c-4.4,0-8-3.6-8-8V14c0-4.4,3.6-8,8-8h20c4.4,0,8,3.6,8,8v20C138,38.4,134.4,42,130,42"/>
</g>
<g>
	<g>
		<g>
			<g>
				<path class="st3" d="M180.7,20.9h-2.1l-3,4.6h0c-0.2-0.3-0.3-0.6-0.5-0.9l-2.3-3.8h-2.2l3.9,5.6l-4.1,5.4h2.2l2.4-3.6
					c0.3-0.5,0.5-0.8,0.6-0.8h0c0.2,0.3,0.4,0.6,0.5,0.8l2.4,3.6h2.2l-4-5.4L180.7,20.9z M166.1,19h-2.2v-9h-2.4
					c0,0.3-0.1,0.5-0.2,0.7c-0.1,0.2-0.3,0.4-0.6,0.5c-0.2,0.1-0.5,0.2-0.8,0.2c-0.3,0-0.6,0.1-1,0.1v1.8h2.3V19h-2.3v1.9h7.2V19z
					 M168.2,24.8c0.5,0,0.8-0.4,0.8-0.8v-0.1c0-0.5-0.4-0.8-0.8-0.8h-11.3c-0.5,0-0.8,0.4-0.8,0.8v0.1c0,0.5,0.4,0.8,0.8,0.8H168.2z
					 M158.2,28.1c-0.5,0.3-1.1,0.5-1.7,0.7v1.9c0.2,0,0.4-0.1,0.6-0.1c0.2-0.1,0.4-0.1,0.6-0.2c0.2-0.1,0.4-0.2,0.5-0.3
					c0.2-0.1,0.3-0.2,0.4-0.3v8.1h2.3V27.2h-1.4C159.2,27.5,158.8,27.8,158.2,28.1z M168.5,32.1c-0.2-0.3-0.5-0.5-0.9-0.7
					c-0.3-0.2-0.7-0.2-1.2-0.2c-1,0-1.7,0.3-2.2,1h0c0-0.5,0.1-0.9,0.2-1.3c0.1-0.4,0.3-0.7,0.5-1c0.2-0.3,0.5-0.5,0.8-0.6
					c0.3-0.2,0.7-0.2,1-0.2c0.6,0,1.2,0.2,1.7,0.5v-1.9c-0.4-0.2-1.1-0.3-1.9-0.3c-0.7,0-1.4,0.1-1.9,0.4c-0.6,0.3-1.1,0.7-1.5,1.2
					c-0.4,0.5-0.7,1.2-0.9,1.9c-0.2,0.7-0.3,1.6-0.3,2.5c0,0.8,0.1,1.5,0.3,2.1c0.2,0.6,0.4,1.1,0.7,1.5c0.3,0.4,0.7,0.7,1.2,1
					c0.5,0.2,1,0.3,1.6,0.3c0.5,0,1-0.1,1.4-0.3s0.8-0.4,1.1-0.8c0.3-0.3,0.6-0.7,0.7-1.2c0.2-0.4,0.3-0.9,0.3-1.5
					c0-0.5-0.1-0.9-0.2-1.3C169,32.7,168.8,32.4,168.5,32.1z M167,35.3c-0.1,0.2-0.2,0.4-0.3,0.6c-0.1,0.2-0.3,0.3-0.4,0.4
					c-0.2,0.1-0.4,0.1-0.6,0.1c-0.2,0-0.4,0-0.6-0.1c-0.2-0.1-0.3-0.2-0.4-0.4c-0.1-0.2-0.2-0.4-0.3-0.6c-0.1-0.2-0.1-0.5-0.1-0.7
					c0-0.2,0-0.4,0.1-0.6c0.1-0.2,0.2-0.4,0.3-0.5c0.1-0.1,0.3-0.3,0.4-0.3c0.2-0.1,0.4-0.1,0.6-0.1c0.9,0,1.4,0.6,1.4,1.7
					C167.1,34.8,167,35.1,167,35.3z"/>
			</g>
		</g>
	</g>
	<g>
		<g>
			<g>
				<path class="st4" d="M132.7,20.9h-2.1l-3,4.6h0c-0.2-0.3-0.3-0.6-0.5-0.9l-2.3-3.8h-2.2l3.9,5.6l-4.1,5.4h2.2l2.4-3.6
					c0.3-0.5,0.5-0.8,0.6-0.8h0c0.2,0.3,0.4,0.6,0.5,0.8l2.4,3.6h2.2l-4-5.4L132.7,20.9z M118.1,19h-2.2v-9h-2.4
					c0,0.3-0.1,0.5-0.2,0.7c-0.1,0.2-0.3,0.4-0.6,0.5c-0.2,0.1-0.5,0.2-0.8,0.2c-0.3,0-0.6,0.1-1,0.1v1.8h2.3V19h-2.3v1.9h7.2V19z
					 M120.2,24.8c0.5,0,0.8-0.4,0.8-0.8v-0.1c0-0.5-0.4-0.8-0.8-0.8h-11.3c-0.5,0-0.8,0.4-0.8,0.8v0.1c0,0.5,0.4,0.8,0.8,0.8H120.2z
					 M110.2,28.1c-0.5,0.3-1.1,0.5-1.7,0.7v1.9c0.2,0,0.4-0.1,0.6-0.1c0.2-0.1,0.4-0.1,0.6-0.2c0.2-0.1,0.4-0.2,0.5-0.3
					c0.2-0.1,0.3-0.2,0.4-0.3v8.1h2.3V27.2h-1.4C111.2,27.5,110.8,27.8,110.2,28.1z M120.5,32.1c-0.2-0.3-0.5-0.5-0.9-0.7
					c-0.3-0.2-0.7-0.2-1.2-0.2c-1,0-1.7,0.3-2.2,1h0c0-0.5,0.1-0.9,0.2-1.3c0.1-0.4,0.3-0.7,0.5-1c0.2-0.3,0.5-0.5,0.8-0.6
					c0.3-0.2,0.7-0.2,1-0.2c0.6,0,1.2,0.2,1.7,0.5v-1.9c-0.4-0.2-1.1-0.3-1.9-0.3c-0.7,0-1.4,0.1-1.9,0.4c-0.6,0.3-1.1,0.7-1.5,1.2
					c-0.4,0.5-0.7,1.2-0.9,1.9c-0.2,0.7-0.3,1.6-0.3,2.5c0,0.8,0.1,1.5,0.3,2.1c0.2,0.6,0.4,1.1,0.7,1.5c0.3,0.4,0.7,0.7,1.2,1
					c0.5,0.2,1,0.3,1.6,0.3c0.5,0,1-0.1,1.4-0.3s0.8-0.4,1.1-0.8c0.3-0.3,0.6-0.7,0.7-1.2c0.2-0.4,0.3-0.9,0.3-1.5
					c0-0.5-0.1-0.9-0.2-1.3C121,32.7,120.8,32.4,120.5,32.1z M119,35.3c-0.1,0.2-0.2,0.4-0.3,0.6c-0.1,0.2-0.3,0.3-0.4,0.4
					c-0.2,0.1-0.4,0.1-0.6,0.1c-0.2,0-0.4,0-0.6-0.1c-0.2-0.1-0.3-0.2-0.4-0.4c-0.1-0.2-0.2-0.4-0.3-0.6c-0.1-0.2-0.1-0.5-0.1-0.7
					c0-0.2,0-0.4,0.1-0.6c0.1-0.2,0.2-0.4,0.3-0.5c0.1-0.1,0.3-0.3,0.4-0.3c0.2-0.1,0.4-0.1,0.6-0.1c0.9,0,1.4,0.6,1.4,1.7
					C119.1,34.8,119,35.1,119,35.3z"/>
			</g>
		</g>
	</g>
	<g>
		<g>
			<g>
				<path class="st2" d="M84.7,20.9h-2.1l-3,4.6h0c-0.2-0.3-0.3-0.6-0.5-0.9l-2.3-3.8h-2.2l3.9,5.6l-4.1,5.4h2.2l2.4-3.6
					c0.3-0.5,0.5-0.8,0.6-0.8h0c0.2,0.3,0.4,0.6,0.5,0.8l2.4,3.6h2.2l-4-5.4L84.7,20.9z M70.1,19h-2.2v-9h-2.4
					c0,0.3-0.1,0.5-0.2,0.7c-0.1,0.2-0.3,0.4-0.6,0.5c-0.2,0.1-0.5,0.2-0.8,0.2c-0.3,0-0.6,0.1-1,0.1v1.8h2.3V19h-2.3v1.9h7.2V19z
					 M72.2,24.8c0.5,0,0.8-0.4,0.8-0.8v-0.1c0-0.5-0.4-0.8-0.8-0.8H60.8c-0.5,0-0.8,0.4-0.8,0.8v0.1c0,0.5,0.4,0.8,0.8,0.8H72.2z
					 M62.2,28.1c-0.5,0.3-1.1,0.5-1.7,0.7v1.9c0.2,0,0.4-0.1,0.6-0.1c0.2-0.1,0.4-0.1,0.6-0.2c0.2-0.1,0.4-0.2,0.5-0.3
					c0.2-0.1,0.3-0.2,0.4-0.3v8.1H65V27.2h-1.4C63.2,27.5,62.8,27.8,62.2,28.1z M72.5,32.1c-0.2-0.3-0.5-0.5-0.9-0.7
					c-0.3-0.2-0.7-0.2-1.2-0.2c-1,0-1.7,0.3-2.2,1h0c0-0.5,0.1-0.9,0.2-1.3c0.1-0.4,0.3-0.7,0.5-1c0.2-0.3,0.5-0.5,0.8-0.6
					c0.3-0.2,0.7-0.2,1-0.2c0.6,0,1.2,0.2,1.7,0.5v-1.9c-0.4-0.2-1.1-0.3-1.9-0.3c-0.7,0-1.4,0.1-1.9,0.4c-0.6,0.3-1.1,0.7-1.5,1.2
					c-0.4,0.5-0.7,1.2-0.9,1.9c-0.2,0.7-0.3,1.6-0.3,2.5c0,0.8,0.1,1.5,0.3,2.1c0.2,0.6,0.4,1.1,0.7,1.5c0.3,0.4,0.7,0.7,1.2,1
					c0.5,0.2,1,0.3,1.6,0.3c0.5,0,1-0.1,1.4-0.3s0.8-0.4,1.1-0.8c0.3-0.3,0.6-0.7,0.7-1.2c0.2-0.4,0.3-0.9,0.3-1.5
					c0-0.5-0.1-0.9-0.2-1.3C73,32.7,72.8,32.4,72.5,32.1z M71,35.3c-0.1,0.2-0.2,0.4-0.3,0.6c-0.1,0.2-0.3,0.3-0.4,0.4
					c-0.2,0.1-0.4,0.1-0.6,0.1c-0.2,0-0.4,0-0.6-0.1c-0.2-0.1-0.3-0.2-0.4-0.4c-0.1-0.2-0.2-0.4-0.3-0.6c-0.1-0.2-0.1-0.5-0.1-0.7
					c0-0.2,0-0.4,0.1-0.6c0.1-0.2,0.2-0.4,0.3-0.5c0.1-0.1,0.3-0.3,0.4-0.3c0.2-0.1,0.4-0.1,0.6-0.1c0.9,0,1.4,0.6,1.4,1.7
					C71.1,34.8,71,35.1,71,35.3z"/>
			</g>
		</g>
	</g>
	<g>
		<g>
			<g>
				<path class="st2" d="M36.7,20.9h-2.1l-3,4.6h0c-0.2-0.3-0.3-0.6-0.5-0.9l-2.3-3.8h-2.2l3.9,5.6l-4.1,5.4h2.2l2.4-3.6
					c0.3-0.5,0.5-0.8,0.6-0.8h0c0.2,0.3,0.4,0.6,0.5,0.8l2.4,3.6h2.2l-4-5.4L36.7,20.9z M22.1,19h-2.2v-9h-2.4
					c0,0.3-0.1,0.5-0.2,0.7c-0.1,0.2-0.3,0.4-0.6,0.5c-0.2,0.1-0.5,0.2-0.8,0.2c-0.3,0-0.6,0.1-1,0.1v1.8h2.3V19h-2.3v1.9h7.2V19z
					 M24.2,24.8c0.5,0,0.8-0.4,0.8-0.8v-0.1c0-0.5-0.4-0.8-0.8-0.8H12.8c-0.5,0-0.8,0.4-0.8,0.8v0.1c0,0.5,0.4,0.8,0.8,0.8H24.2z
					 M14.2,28.1c-0.5,0.3-1.1,0.5-1.7,0.7v1.9c0.2,0,0.4-0.1,0.6-0.1c0.2-0.1,0.4-0.1,0.6-0.2c0.2-0.1,0.4-0.2,0.5-0.3
					c0.2-0.1,0.3-0.2,0.4-0.3v8.1H17V27.2h-1.4C15.2,27.5,14.8,27.8,14.2,28.1z M24.5,32.1c-0.2-0.3-0.5-0.5-0.9-0.7
					c-0.3-0.2-0.7-0.2-1.2-0.2c-1,0-1.7,0.3-2.2,1h0c0-0.5,0.1-0.9,0.2-1.3c0.1-0.4,0.3-0.7,0.5-1c0.2-0.3,0.5-0.5,0.8-0.6
					c0.3-0.2,0.7-0.2,1-0.2c0.6,0,1.2,0.2,1.7,0.5v-1.9c-0.4-0.2-1.1-0.3-1.9-0.3c-0.7,0-1.4,0.1-1.9,0.4c-0.6,0.3-1.1,0.7-1.5,1.2
					c-0.4,0.5-0.7,1.2-0.9,1.9c-0.2,0.7-0.3,1.6-0.3,2.5c0,0.8,0.1,1.5,0.3,2.1c0.2,0.6,0.4,1.1,0.7,1.5c0.3,0.4,0.7,0.7,1.2,1
					c0.5,0.2,1,0.3,1.6,0.3c0.5,0,1-0.1,1.4-0.3s0.8-0.4,1.1-0.8c0.3-0.3,0.6-0.7,0.7-1.2c0.2-0.4,0.3-0.9,0.3-1.5
					c0-0.5-0.1-0.9-0.2-1.3C25,32.7,24.8,32.4,24.5,32.1z M23,35.3c-0.1,0.2-0.2,0.4-0.3,0.6c-0.1,0.2-0.3,0.3-0.4,0.4
					c-0.2,0.1-0.4,0.1-0.6,0.1c-0.2,0-0.4,0-0.6-0.1c-0.2-0.1-0.3-0.2-0.4-0.4c-0.1-0.2-0.2-0.4-0.3-0.6c-0.1-0.2-0.1-0.5-0.1-0.7
					c0-0.2,0-0.4,0.1-0.6c0.1-0.2,0.2-0.4,0.3-0.5c0.1-0.1,0.3-0.3,0.4-0.3c0.2-0.1,0.4-0.1,0.6-0.1c0.9,0,1.4,0.6,1.4,1.7
					C23.1,34.8,23,35.1,23,35.3z"/>
			</g>
		</g>
	</g>
</g>
</svg>
