<?xml version="1.0" encoding="utf-8"?>
<!-- Generator: Adobe Illustrator 21.0.0, SVG Export Plug-In . SVG Version: 6.00 Build 0)  -->
<svg version="1.1" id="图层_1" xmlns="http://www.w3.org/2000/svg" xmlns:xlink="http://www.w3.org/1999/xlink" x="0px" y="0px"
	 viewBox="0 0 192 48" style="enable-background:new 0 0 192 48;" xml:space="preserve">
<style type="text/css">
	.st0{fill:none;}
	.st1{fill:#DCE8F6;}
	.st2{fill:#336ED3;}
	.st3{fill:#FFFFFF;}
	.st4{fill:#9C9C9C;}
</style>
<rect class="st0" width="48" height="48"/>
<rect x="48" class="st0" width="48" height="48"/>
<rect x="96" class="st0" width="48" height="48"/>
<rect x="144" class="st0" width="48" height="48"/>
<g>
	<path class="st1" d="M82,42H62c-4.4,0-8-3.6-8-8V14c0-4.4,3.6-8,8-8h20c4.4,0,8,3.6,8,8v20C90,38.4,86.4,42,82,42"/>
	<path class="st2" d="M130,42h-20c-4.4,0-8-3.6-8-8V14c0-4.4,3.6-8,8-8h20c4.4,0,8,3.6,8,8v20C138,38.4,134.4,42,130,42"/>
</g>
<g>
	<g>
		<g>
			<path class="st2" d="M36.7,20.9h-2.1l-3,4.6h0c-0.2-0.3-0.3-0.6-0.5-0.9l-2.3-3.8h-2.2l3.9,5.6l-4.1,5.4h2.2l2.4-3.6
				c0.3-0.5,0.5-0.8,0.6-0.8h0c0.2,0.3,0.4,0.6,0.5,0.8l2.4,3.6h2.2l-4-5.4L36.7,20.9z M22.1,19h-2.2v-9h-2.4c0,0.3-0.1,0.5-0.2,0.7
				c-0.1,0.2-0.3,0.4-0.6,0.5c-0.2,0.1-0.5,0.2-0.8,0.2c-0.3,0-0.6,0.1-1,0.1v1.8h2.3V19h-2.3v1.9h7.2V19z M24.2,23H12.8
				c-0.5,0-0.8,0.4-0.8,0.8v0.1c0,0.5,0.4,0.8,0.8,0.8h11.3c0.5,0,0.8-0.4,0.8-0.8v-0.1C25,23.4,24.6,23,24.2,23z M20.6,32L20.6,32
				c0.7-0.3,1.1-0.7,1.5-1.1c0.3-0.4,0.5-0.9,0.5-1.4c0-0.8-0.4-1.5-1.1-2c-0.8-0.5-1.8-0.8-3.1-0.8c-1.3,0-2.3,0.3-3.1,0.8
				c-0.8,0.6-1.2,1.3-1.2,2.1c0,0.6,0.1,1.1,0.4,1.5c0.3,0.4,0.8,0.8,1.4,1.1v0c-0.8,0.3-1.3,0.7-1.6,1.1c-0.3,0.4-0.5,0.9-0.5,1.5
				c0,0.4,0.1,0.9,0.3,1.2c0.2,0.4,0.4,0.7,0.8,1c0.4,0.3,0.8,0.5,1.4,0.7c0.6,0.2,1.2,0.2,2,0.2c1.4,0,2.5-0.3,3.3-0.9
				c0.8-0.6,1.2-1.4,1.2-2.4c0-0.7-0.2-1.2-0.5-1.7C21.9,32.7,21.4,32.3,20.6,32z M16.9,29.2c0.1-0.1,0.2-0.2,0.3-0.3
				c0.1-0.1,0.3-0.1,0.5-0.2c0.2,0,0.4-0.1,0.5-0.1c0.5,0,0.8,0.1,1.1,0.3c0.3,0.2,0.4,0.5,0.4,0.9c0,0.3,0,0.6-0.1,0.8
				c-0.1,0.2-0.3,0.4-0.5,0.7c-0.3-0.1-0.6-0.2-0.8-0.3c-0.2-0.1-0.4-0.2-0.6-0.2c-0.4-0.2-0.6-0.3-0.8-0.5
				c-0.2-0.2-0.2-0.4-0.2-0.7C16.8,29.5,16.8,29.3,16.9,29.2z M19.9,35.6c-0.1,0.2-0.2,0.3-0.4,0.4c-0.1,0.1-0.3,0.2-0.5,0.2
				c-0.2,0-0.4,0.1-0.5,0.1c-0.6,0-1-0.2-1.4-0.5s-0.5-0.7-0.5-1.2c0-0.3,0.1-0.6,0.2-0.9s0.4-0.5,0.6-0.7c0.2,0.1,0.5,0.2,0.8,0.3
				c0.3,0.1,0.5,0.2,0.7,0.3c0.5,0.2,0.9,0.4,1.1,0.6c0.2,0.2,0.3,0.4,0.3,0.8C20.1,35.3,20,35.5,19.9,35.6z"/>
		</g>
	</g>
	<g>
		<g>
			<path class="st2" d="M84.7,20.9h-2.1l-3,4.6h0c-0.2-0.3-0.3-0.6-0.5-0.9l-2.3-3.8h-2.2l3.9,5.6l-4.1,5.4h2.2l2.4-3.6
				c0.3-0.5,0.5-0.8,0.6-0.8h0c0.2,0.3,0.4,0.6,0.5,0.8l2.4,3.6h2.2l-4-5.4L84.7,20.9z M70.1,19h-2.2v-9h-2.4c0,0.3-0.1,0.5-0.2,0.7
				c-0.1,0.2-0.3,0.4-0.6,0.5c-0.2,0.1-0.5,0.2-0.8,0.2c-0.3,0-0.6,0.1-1,0.1v1.8h2.3V19h-2.3v1.9h7.2V19z M72.2,23H60.8
				c-0.5,0-0.8,0.4-0.8,0.8v0.1c0,0.5,0.4,0.8,0.8,0.8h11.3c0.5,0,0.8-0.4,0.8-0.8v-0.1C73,23.4,72.6,23,72.2,23z M68.6,32L68.6,32
				c0.7-0.3,1.1-0.7,1.5-1.1c0.3-0.4,0.5-0.9,0.5-1.4c0-0.8-0.4-1.5-1.1-2c-0.8-0.5-1.8-0.8-3.1-0.8c-1.3,0-2.3,0.3-3.1,0.8
				c-0.8,0.6-1.2,1.3-1.2,2.1c0,0.6,0.1,1.1,0.4,1.5c0.3,0.4,0.8,0.8,1.4,1.1v0c-0.8,0.3-1.3,0.7-1.6,1.1c-0.3,0.4-0.5,0.9-0.5,1.5
				c0,0.4,0.1,0.9,0.3,1.2c0.2,0.4,0.4,0.7,0.8,1c0.4,0.3,0.8,0.5,1.4,0.7c0.6,0.2,1.2,0.2,2,0.2c1.4,0,2.5-0.3,3.3-0.9
				c0.8-0.6,1.2-1.4,1.2-2.4c0-0.7-0.2-1.2-0.5-1.7C69.9,32.7,69.4,32.3,68.6,32z M64.9,29.2c0.1-0.1,0.2-0.2,0.3-0.3
				c0.1-0.1,0.3-0.1,0.5-0.2c0.2,0,0.4-0.1,0.5-0.1c0.5,0,0.8,0.1,1.1,0.3c0.3,0.2,0.4,0.5,0.4,0.9c0,0.3,0,0.6-0.1,0.8
				c-0.1,0.2-0.3,0.4-0.5,0.7c-0.3-0.1-0.6-0.2-0.8-0.3c-0.2-0.1-0.4-0.2-0.6-0.2c-0.4-0.2-0.6-0.3-0.8-0.5
				c-0.2-0.2-0.2-0.4-0.2-0.7C64.8,29.5,64.8,29.3,64.9,29.2z M67.9,35.6c-0.1,0.2-0.2,0.3-0.4,0.4c-0.1,0.1-0.3,0.2-0.5,0.2
				c-0.2,0-0.4,0.1-0.5,0.1c-0.6,0-1-0.2-1.4-0.5s-0.5-0.7-0.5-1.2c0-0.3,0.1-0.6,0.2-0.9s0.4-0.5,0.6-0.7c0.2,0.1,0.5,0.2,0.8,0.3
				c0.3,0.1,0.5,0.2,0.7,0.3c0.5,0.2,0.9,0.4,1.1,0.6c0.2,0.2,0.3,0.4,0.3,0.8C68.1,35.3,68,35.5,67.9,35.6z"/>
		</g>
	</g>
	<g>
		<g>
			<path class="st3" d="M132.7,20.9h-2.1l-3,4.6h0c-0.2-0.3-0.3-0.6-0.5-0.9l-2.3-3.8h-2.2l3.9,5.6l-4.1,5.4h2.2l2.4-3.6
				c0.3-0.5,0.5-0.8,0.6-0.8h0c0.2,0.3,0.4,0.6,0.5,0.8l2.4,3.6h2.2l-4-5.4L132.7,20.9z M118.1,19h-2.2v-9h-2.4
				c0,0.3-0.1,0.5-0.2,0.7c-0.1,0.2-0.3,0.4-0.6,0.5c-0.2,0.1-0.5,0.2-0.8,0.2c-0.3,0-0.6,0.1-1,0.1v1.8h2.3V19h-2.3v1.9h7.2V19z
				 M120.2,23h-11.3c-0.5,0-0.8,0.4-0.8,0.8v0.1c0,0.5,0.4,0.8,0.8,0.8h11.3c0.5,0,0.8-0.4,0.8-0.8v-0.1C121,23.4,120.6,23,120.2,23
				z M116.6,32L116.6,32c0.7-0.3,1.1-0.7,1.5-1.1c0.3-0.4,0.5-0.9,0.5-1.4c0-0.8-0.4-1.5-1.1-2c-0.8-0.5-1.8-0.8-3.1-0.8
				c-1.3,0-2.3,0.3-3.1,0.8c-0.8,0.6-1.2,1.3-1.2,2.1c0,0.6,0.1,1.1,0.4,1.5c0.3,0.4,0.8,0.8,1.4,1.1v0c-0.8,0.3-1.3,0.7-1.6,1.1
				c-0.3,0.4-0.5,0.9-0.5,1.5c0,0.4,0.1,0.9,0.3,1.2c0.2,0.4,0.4,0.7,0.8,1c0.4,0.3,0.8,0.5,1.4,0.7c0.6,0.2,1.2,0.2,2,0.2
				c1.4,0,2.5-0.3,3.3-0.9c0.8-0.6,1.2-1.4,1.2-2.4c0-0.7-0.2-1.2-0.5-1.7C117.9,32.7,117.4,32.3,116.6,32z M112.9,29.2
				c0.1-0.1,0.2-0.2,0.3-0.3c0.1-0.1,0.3-0.1,0.5-0.2c0.2,0,0.4-0.1,0.5-0.1c0.5,0,0.8,0.1,1.1,0.3c0.3,0.2,0.4,0.5,0.4,0.9
				c0,0.3,0,0.6-0.1,0.8c-0.1,0.2-0.3,0.4-0.5,0.7c-0.3-0.1-0.6-0.2-0.8-0.3c-0.2-0.1-0.4-0.2-0.6-0.2c-0.4-0.2-0.6-0.3-0.8-0.5
				c-0.2-0.2-0.2-0.4-0.2-0.7C112.8,29.5,112.8,29.3,112.9,29.2z M115.9,35.6c-0.1,0.2-0.2,0.3-0.4,0.4c-0.1,0.1-0.3,0.2-0.5,0.2
				c-0.2,0-0.4,0.1-0.5,0.1c-0.6,0-1-0.2-1.4-0.5s-0.5-0.7-0.5-1.2c0-0.3,0.1-0.6,0.2-0.9s0.4-0.5,0.6-0.7c0.2,0.1,0.5,0.2,0.8,0.3
				c0.3,0.1,0.5,0.2,0.7,0.3c0.5,0.2,0.9,0.4,1.1,0.6c0.2,0.2,0.3,0.4,0.3,0.8C116.1,35.3,116,35.5,115.9,35.6z"/>
		</g>
	</g>
	<g>
		<g>
			<path class="st4" d="M180.7,20.9h-2.1l-3,4.6h0c-0.2-0.3-0.3-0.6-0.5-0.9l-2.3-3.8h-2.2l3.9,5.6l-4.1,5.4h2.2l2.4-3.6
				c0.3-0.5,0.5-0.8,0.6-0.8h0c0.2,0.3,0.4,0.6,0.5,0.8l2.4,3.6h2.2l-4-5.4L180.7,20.9z M166.1,19h-2.2v-9h-2.4
				c0,0.3-0.1,0.5-0.2,0.7c-0.1,0.2-0.3,0.4-0.6,0.5c-0.2,0.1-0.5,0.2-0.8,0.2c-0.3,0-0.6,0.1-1,0.1v1.8h2.3V19h-2.3v1.9h7.2V19z
				 M168.2,23h-11.3c-0.5,0-0.8,0.4-0.8,0.8v0.1c0,0.5,0.4,0.8,0.8,0.8h11.3c0.5,0,0.8-0.4,0.8-0.8v-0.1C169,23.4,168.6,23,168.2,23
				z M164.6,32L164.6,32c0.7-0.3,1.1-0.7,1.5-1.1c0.3-0.4,0.5-0.9,0.5-1.4c0-0.8-0.4-1.5-1.1-2c-0.8-0.5-1.8-0.8-3.1-0.8
				c-1.3,0-2.3,0.3-3.1,0.8c-0.8,0.6-1.2,1.3-1.2,2.1c0,0.6,0.1,1.1,0.4,1.5c0.3,0.4,0.8,0.8,1.4,1.1v0c-0.8,0.3-1.3,0.7-1.6,1.1
				c-0.3,0.4-0.5,0.9-0.5,1.5c0,0.4,0.1,0.9,0.3,1.2c0.2,0.4,0.4,0.7,0.8,1c0.4,0.3,0.8,0.5,1.4,0.7c0.6,0.2,1.2,0.2,2,0.2
				c1.4,0,2.5-0.3,3.3-0.9c0.8-0.6,1.2-1.4,1.2-2.4c0-0.7-0.2-1.2-0.5-1.7C165.9,32.7,165.4,32.3,164.6,32z M160.9,29.2
				c0.1-0.1,0.2-0.2,0.3-0.3c0.1-0.1,0.3-0.1,0.5-0.2c0.2,0,0.4-0.1,0.5-0.1c0.5,0,0.8,0.1,1.1,0.3c0.3,0.2,0.4,0.5,0.4,0.9
				c0,0.3,0,0.6-0.1,0.8c-0.1,0.2-0.3,0.4-0.5,0.7c-0.3-0.1-0.6-0.2-0.8-0.3c-0.2-0.1-0.4-0.2-0.6-0.2c-0.4-0.2-0.6-0.3-0.8-0.5
				c-0.2-0.2-0.2-0.4-0.2-0.7C160.8,29.5,160.8,29.3,160.9,29.2z M163.9,35.6c-0.1,0.2-0.2,0.3-0.4,0.4c-0.1,0.1-0.3,0.2-0.5,0.2
				c-0.2,0-0.4,0.1-0.5,0.1c-0.6,0-1-0.2-1.4-0.5s-0.5-0.7-0.5-1.2c0-0.3,0.1-0.6,0.2-0.9s0.4-0.5,0.6-0.7c0.2,0.1,0.5,0.2,0.8,0.3
				c0.3,0.1,0.5,0.2,0.7,0.3c0.5,0.2,0.9,0.4,1.1,0.6c0.2,0.2,0.3,0.4,0.3,0.8C164.1,35.3,164,35.5,163.9,35.6z"/>
		</g>
	</g>
</g>
</svg>
