<svg xmlns="http://www.w3.org/2000/svg" width="96" height="24" viewBox="0 0 96 24"><defs><style>.a{fill:#55616d;}.b{fill:none;}.c{fill:#818c98;}.d{fill:#438dec;}.e{opacity:0.3;}</style></defs><g transform="translate(-304 -590)"><g transform="translate(299.641 585.641)"><path class="a" d="M19.9,5.757H18.64L17.453,3.773a1.469,1.469,0,0,0-1.261-.716H9.245a1.469,1.469,0,0,0-1.261.716L6.8,5.757H4.1A1.434,1.434,0,0,0,2.669,7.191V18.462A1.434,1.434,0,0,0,4.1,19.9H19.9a1.434,1.434,0,0,0,1.434-1.434V7.193A1.436,1.436,0,0,0,19.9,5.757m-7.178,12.7A6.46,6.46,0,1,1,19.178,12a6.46,6.46,0,0,1-6.46,6.46" transform="translate(4.36 4.36)"/><path class="a" d="M12.718,7.693A4.307,4.307,0,1,0,17.025,12a4.307,4.307,0,0,0-4.307-4.307Zm2.476,5.084a.717.717,0,0,1-.718-.718,1.82,1.82,0,0,0-1.817-1.817.718.718,0,1,1,0-1.436,3.257,3.257,0,0,1,3.252,3.253.717.717,0,0,1-.718.718" transform="translate(4.36 4.36)"/><path class="a" d="M4.1,2.886H5.54a.718.718,0,0,1,0,1.436H4.1a.718.718,0,1,1,0-1.436" transform="translate(4.36 4.36)"/><rect class="b" width="24" height="24" transform="translate(4.36 4.36)"/></g><g transform="translate(323.641 585.641)"><path class="c" d="M19.9,5.757H18.64L17.453,3.773a1.469,1.469,0,0,0-1.261-.716H9.245a1.469,1.469,0,0,0-1.261.716L6.8,5.757H4.1A1.434,1.434,0,0,0,2.669,7.191V18.462A1.434,1.434,0,0,0,4.1,19.9H19.9a1.434,1.434,0,0,0,1.434-1.434V7.193A1.436,1.436,0,0,0,19.9,5.757m-7.178,12.7A6.46,6.46,0,1,1,19.178,12a6.46,6.46,0,0,1-6.46,6.46" transform="translate(4.36 4.36)"/><path class="c" d="M12.718,7.693A4.307,4.307,0,1,0,17.025,12a4.307,4.307,0,0,0-4.307-4.307Zm2.476,5.084a.717.717,0,0,1-.718-.718,1.82,1.82,0,0,0-1.817-1.817.718.718,0,1,1,0-1.436,3.257,3.257,0,0,1,3.252,3.253.717.717,0,0,1-.718.718" transform="translate(4.36 4.36)"/><path class="c" d="M4.1,2.886H5.54a.718.718,0,0,1,0,1.436H4.1a.718.718,0,1,1,0-1.436" transform="translate(4.36 4.36)"/><rect class="b" width="24" height="24" transform="translate(4.36 4.36)"/></g><g transform="translate(347.641 585.641)"><path class="d" d="M19.9,5.757H18.64L17.453,3.773a1.469,1.469,0,0,0-1.261-.716H9.245a1.469,1.469,0,0,0-1.261.716L6.8,5.757H4.1A1.434,1.434,0,0,0,2.669,7.191V18.462A1.434,1.434,0,0,0,4.1,19.9H19.9a1.434,1.434,0,0,0,1.434-1.434V7.193A1.436,1.436,0,0,0,19.9,5.757m-7.178,12.7A6.46,6.46,0,1,1,19.178,12a6.46,6.46,0,0,1-6.46,6.46" transform="translate(4.36 4.36)"/><path class="d" d="M12.718,7.693A4.307,4.307,0,1,0,17.025,12a4.307,4.307,0,0,0-4.307-4.307Zm2.476,5.084a.717.717,0,0,1-.718-.718,1.82,1.82,0,0,0-1.817-1.817.718.718,0,1,1,0-1.436,3.257,3.257,0,0,1,3.252,3.253.717.717,0,0,1-.718.718" transform="translate(4.36 4.36)"/><path class="d" d="M4.1,2.886H5.54a.718.718,0,0,1,0,1.436H4.1a.718.718,0,1,1,0-1.436" transform="translate(4.36 4.36)"/><rect class="b" width="24" height="24" transform="translate(4.36 4.36)"/></g><g class="e" transform="translate(371.641 585.641)"><path class="a" d="M19.9,5.757H18.64L17.453,3.773a1.469,1.469,0,0,0-1.261-.716H9.245a1.469,1.469,0,0,0-1.261.716L6.8,5.757H4.1A1.434,1.434,0,0,0,2.669,7.191V18.462A1.434,1.434,0,0,0,4.1,19.9H19.9a1.434,1.434,0,0,0,1.434-1.434V7.193A1.436,1.436,0,0,0,19.9,5.757m-7.178,12.7A6.46,6.46,0,1,1,19.178,12a6.46,6.46,0,0,1-6.46,6.46" transform="translate(4.36 4.36)"/><path class="a" d="M12.718,7.693A4.307,4.307,0,1,0,17.025,12a4.307,4.307,0,0,0-4.307-4.307Zm2.476,5.084a.717.717,0,0,1-.718-.718,1.82,1.82,0,0,0-1.817-1.817.718.718,0,1,1,0-1.436,3.257,3.257,0,0,1,3.252,3.253.717.717,0,0,1-.718.718" transform="translate(4.36 4.36)"/><path class="a" d="M4.1,2.886H5.54a.718.718,0,0,1,0,1.436H4.1a.718.718,0,1,1,0-1.436" transform="translate(4.36 4.36)"/><rect class="b" width="24" height="24" transform="translate(4.36 4.36)"/></g></g></svg>