<svg xmlns="http://www.w3.org/2000/svg" width="80" height="20" viewBox="0 0 80 20"><defs><style>.a{fill:#55616d;}.b{fill:none;}.c{opacity:0.3;}.d{fill:#818c98;}.e{fill:#438dec;}</style></defs><g transform="translate(-864.001 -971.999)"><g transform="translate(857.547 965.545)"><path class="a" d="M-1800.546-186.546h-9a3,3,0,0,1-3-3v-9a3,3,0,0,1,3-3h9a3,3,0,0,1,3,3v9A3,3,0,0,1-1800.546-186.546Zm-6.149-11.25a.855.855,0,0,0-.853.853v5.8a.855.855,0,0,0,.854.852.844.844,0,0,0,.5-.166l3.963-2.9a.842.842,0,0,0,.348-.687.842.842,0,0,0-.348-.687l-3.963-2.9A.84.84,0,0,0-1806.7-197.8Z" transform="translate(1821.499 210.5)"/><rect class="b" width="20" height="20" transform="translate(6.454 6.454)"/></g><g class="c" transform="translate(917.547 965.545)"><path class="a" d="M-1800.546-186.546h-9a3,3,0,0,1-3-3v-9a3,3,0,0,1,3-3h9a3,3,0,0,1,3,3v9A3,3,0,0,1-1800.546-186.546Zm-6.149-11.25a.855.855,0,0,0-.853.853v5.8a.855.855,0,0,0,.854.852.844.844,0,0,0,.5-.166l3.963-2.9a.842.842,0,0,0,.348-.687.842.842,0,0,0-.348-.687l-3.963-2.9A.84.84,0,0,0-1806.7-197.8Z" transform="translate(1821.499 210.5)"/><rect class="b" width="20" height="20" transform="translate(6.454 6.454)"/></g><g transform="translate(877.547 965.545)"><path class="d" d="M-1800.546-186.546h-9a3,3,0,0,1-3-3v-9a3,3,0,0,1,3-3h9a3,3,0,0,1,3,3v9A3,3,0,0,1-1800.546-186.546Zm-6.149-11.25a.855.855,0,0,0-.853.853v5.8a.855.855,0,0,0,.854.852.844.844,0,0,0,.5-.166l3.963-2.9a.842.842,0,0,0,.348-.687.842.842,0,0,0-.348-.687l-3.963-2.9A.84.84,0,0,0-1806.7-197.8Z" transform="translate(1821.499 210.5)"/><rect class="b" width="20" height="20" transform="translate(6.454 6.454)"/></g><g transform="translate(897.547 965.545)"><path class="e" d="M-1800.546-186.546h-9a3,3,0,0,1-3-3v-9a3,3,0,0,1,3-3h9a3,3,0,0,1,3,3v9A3,3,0,0,1-1800.546-186.546Zm-6.149-11.25a.855.855,0,0,0-.853.853v5.8a.855.855,0,0,0,.854.852.844.844,0,0,0,.5-.166l3.963-2.9a.842.842,0,0,0,.348-.687.842.842,0,0,0-.348-.687l-3.963-2.9A.84.84,0,0,0-1806.7-197.8Z" transform="translate(1821.499 210.5)"/><rect class="b" width="20" height="20" transform="translate(6.454 6.454)"/></g></g></svg>