<?xml version="1.0" encoding="utf-8"?>
<!-- Generator: Adobe Illustrator 26.2.1, SVG Export Plug-In . SVG Version: 6.00 Build 0)  -->
<svg version="1.1" id="图层_1" xmlns="http://www.w3.org/2000/svg" xmlns:xlink="http://www.w3.org/1999/xlink" x="0px" y="0px"
	 viewBox="0 0 32 32" style="enable-background:new 0 0 32 32;" xml:space="preserve">
<style type="text/css">
	.st0{fill:#95A5B9;}
</style>
<g>
	<polygon class="st0" points="18.2,10 14,13.2 14,6.8 	"/>
	<path class="st0" d="M24,1H8C6.9,1,6,1.9,6,3v14c0,1.1,0.9,2,2,2h16c1.1,0,2-0.9,2-2V3C26,1.9,25.1,1,24,1z M9,17H8v-2h1V17z M9,13
		H8v-2h1V13z M9,9H8V7h1V9z M9,5H8V3h1V5z M21,17H11V3h10V17z M24,17h-1v-2h1V17z M24,13h-1v-2h1V13z M24,9h-1V7h1V9z M24,5h-1V3h1
		V5z"/>
</g>
</svg>
