<?xml version="1.0" encoding="utf-8"?>
<!-- Generator: Adobe Illustrator 28.1.0, SVG Export Plug-In . SVG Version: 6.00 Build 0)  -->
<svg version="1.1" id="图层_1" xmlns="http://www.w3.org/2000/svg" xmlns:xlink="http://www.w3.org/1999/xlink" x="0px" y="0px"
	 viewBox="0 0 192 48" style="enable-background:new 0 0 192 48;" xml:space="preserve">
<style type="text/css">
	.st0{fill:none;}
	.st1{fill:#DCE8F6;}
	.st2{fill:#336ED3;}
	
		.st3{fill-rule:evenodd;clip-rule:evenodd;fill:none;stroke:#336ED3;stroke-width:2;stroke-linecap:round;stroke-linejoin:round;stroke-miterlimit:10;}
	.st4{fill-rule:evenodd;clip-rule:evenodd;fill:none;stroke:#9C9C9C;stroke-width:2;stroke-miterlimit:10;}
	
		.st5{fill-rule:evenodd;clip-rule:evenodd;fill:none;stroke:#FFFFFF;stroke-width:2;stroke-linecap:round;stroke-linejoin:round;stroke-miterlimit:10;}
</style>
<rect class="st0" width="48" height="48"/>
<rect x="48" class="st0" width="48" height="48"/>
<rect x="96" class="st0" width="48" height="48"/>
<rect x="144" class="st0" width="48" height="48"/>
<g>
	<path class="st1" d="M82,42H62c-4.4,0-8-3.6-8-8V14c0-4.4,3.6-8,8-8h20c4.4,0,8,3.6,8,8v20C90,38.4,86.4,42,82,42"/>
	<path class="st2" d="M130,42h-20c-4.4,0-8-3.6-8-8V14c0-4.4,3.6-8,8-8h20c4.4,0,8,3.6,8,8v20C138,38.4,134.4,42,130,42"/>
</g>
<g id="缩略图">
	<g>
		<path class="st3" d="M20.2,22.5h-4c-1.1,0-2-0.9-2-2v-4c0-1.1,0.9-2,2-2h4c1.1,0,2,0.9,2,2v4C22.2,21.6,21.4,22.5,20.2,22.5z"/>
		<path class="st3" d="M31.8,22.5h-4c-1.1,0-2-0.9-2-2v-4c0-1.1,0.9-2,2-2h4c1.1,0,2,0.9,2,2v4C33.8,21.6,32.9,22.5,31.8,22.5z"/>
		<path class="st3" d="M20.2,34h-4c-1.1,0-2-0.9-2-2v-4c0-1.1,0.9-2,2-2h4c1.1,0,2,0.9,2,2v4C22.2,33.1,21.4,34,20.2,34z"/>
		<path class="st3" d="M31.8,34h-4c-1.1,0-2-0.9-2-2v-4c0-1.1,0.9-2,2-2h4c1.1,0,2,0.9,2,2v4C33.8,33.1,32.9,34,31.8,34z"/>
	</g>
	<g>
		<path class="st3" d="M68.2,22.5h-4c-1.1,0-2-0.9-2-2v-4c0-1.1,0.9-2,2-2h4c1.1,0,2,0.9,2,2v4C70.2,21.6,69.4,22.5,68.2,22.5z"/>
		<path class="st3" d="M79.8,22.5h-4c-1.1,0-2-0.9-2-2v-4c0-1.1,0.9-2,2-2h4c1.1,0,2,0.9,2,2v4C81.8,21.6,80.9,22.5,79.8,22.5z"/>
		<path class="st3" d="M68.2,34h-4c-1.1,0-2-0.9-2-2v-4c0-1.1,0.9-2,2-2h4c1.1,0,2,0.9,2,2v4C70.2,33.1,69.4,34,68.2,34z"/>
		<path class="st3" d="M79.8,34h-4c-1.1,0-2-0.9-2-2v-4c0-1.1,0.9-2,2-2h4c1.1,0,2,0.9,2,2v4C81.8,33.1,80.9,34,79.8,34z"/>
	</g>
	<g>
		<path class="st4" d="M164.2,22.5h-4c-1.1,0-2-0.9-2-2v-4c0-1.1,0.9-2,2-2h4c1.1,0,2,0.9,2,2v4C166.2,21.6,165.4,22.5,164.2,22.5z"
			/>
		<path class="st4" d="M175.8,22.5h-4c-1.1,0-2-0.9-2-2v-4c0-1.1,0.9-2,2-2h4c1.1,0,2,0.9,2,2v4C177.8,21.6,176.9,22.5,175.8,22.5z"
			/>
		<path class="st4" d="M164.2,34h-4c-1.1,0-2-0.9-2-2v-4c0-1.1,0.9-2,2-2h4c1.1,0,2,0.9,2,2v4C166.2,33.1,165.4,34,164.2,34z"/>
		<path class="st4" d="M175.8,34h-4c-1.1,0-2-0.9-2-2v-4c0-1.1,0.9-2,2-2h4c1.1,0,2,0.9,2,2v4C177.8,33.1,176.9,34,175.8,34z"/>
	</g>
	<g>
		<path class="st5" d="M116.2,22.5h-4c-1.1,0-2-0.9-2-2v-4c0-1.1,0.9-2,2-2h4c1.1,0,2,0.9,2,2v4C118.2,21.6,117.4,22.5,116.2,22.5z"
			/>
		<path class="st5" d="M127.8,22.5h-4c-1.1,0-2-0.9-2-2v-4c0-1.1,0.9-2,2-2h4c1.1,0,2,0.9,2,2v4C129.8,21.6,128.9,22.5,127.8,22.5z"
			/>
		<path class="st5" d="M116.2,34h-4c-1.1,0-2-0.9-2-2v-4c0-1.1,0.9-2,2-2h4c1.1,0,2,0.9,2,2v4C118.2,33.1,117.4,34,116.2,34z"/>
		<path class="st5" d="M127.8,34h-4c-1.1,0-2-0.9-2-2v-4c0-1.1,0.9-2,2-2h4c1.1,0,2,0.9,2,2v4C129.8,33.1,128.9,34,127.8,34z"/>
	</g>
</g>
</svg>
