<svg xmlns="http://www.w3.org/2000/svg" xmlns:xlink="http://www.w3.org/1999/xlink" width="96" height="24" viewBox="0 0 96 24"><defs><style>.a{fill:none;}.b{clip-path:url(#a);}.c{fill:#55616d;}.d{fill:#818c98;}.e{fill:#438dec;}.f{opacity:0.3;}</style><clipPath id="a"><rect class="a" width="24" height="24" transform="translate(2.432 2.432)"/></clipPath></defs><g transform="translate(-664 -622)"><g transform="translate(661.568 619.568)"><g class="b"><rect class="c" width="2" height="15.875" rx="1" transform="translate(21.693 6.56)"/><path class="c" d="M15.544,2H13.738V0h1.806a1,1,0,0,1,0,2ZM11.3,2H-.456a1,1,0,0,1-1-1,1,1,0,0,1,1-1H11.3V2Z" transform="translate(6.588 9.101)"/><path class="c" d="M15.544,2H8.487V0h7.057a1,1,0,0,1,0,2Zm-9.5,0h-6.5a1,1,0,0,1-1-1,1,1,0,0,1,1-1h6.5V2Z" transform="translate(6.588 17.629)"/><path class="c" d="M3.506,1.2a1,1,0,0,1,1.648,0L7.582,4.731A1,1,0,0,1,6.758,6.3H1.9a1,1,0,0,1-.824-1.567Z" transform="translate(19.627 5.773) rotate(90)"/><path class="c" d="M3.506,1.2a1,1,0,0,1,1.648,0L7.582,4.731A1,1,0,0,1,6.758,6.3H1.9a1,1,0,0,1-.824-1.567Z" transform="translate(14.379 14.365) rotate(90)"/></g></g><g transform="translate(685.568 619.568)"><rect class="d" width="2" height="15.875" rx="1" transform="translate(21.691 6.56)"/><path class="d" d="M15.544,2H13.738V0h1.806a1,1,0,0,1,0,2ZM11.3,2H-.456a1,1,0,0,1-1-1,1,1,0,0,1,1-1H11.3V2Z" transform="translate(6.588 9.101)"/><path class="d" d="M15.544,2H8.487V0h7.057a1,1,0,0,1,0,2Zm-9.5,0h-6.5a1,1,0,0,1-1-1,1,1,0,0,1,1-1h6.5V2Z" transform="translate(6.588 17.628)"/><path class="d" d="M3.506,1.2a1,1,0,0,1,1.648,0L7.582,4.731A1,1,0,0,1,6.758,6.3H1.9a1,1,0,0,1-.824-1.567Z" transform="translate(19.627 5.772) rotate(90)"/><path class="d" d="M3.506,1.2a1,1,0,0,1,1.648,0L7.582,4.731A1,1,0,0,1,6.758,6.3H1.9a1,1,0,0,1-.824-1.567Z" transform="translate(14.379 14.364) rotate(90)"/><rect class="a" width="24" height="24" transform="translate(2.432 2.432)"/></g><g transform="translate(709.568 619.568)"><g class="b"><rect class="e" width="2" height="15.875" rx="1" transform="translate(21.693 6.56)"/><path class="e" d="M15.544,2H13.738V0h1.806a1,1,0,0,1,0,2ZM11.3,2H-.456a1,1,0,0,1-1-1,1,1,0,0,1,1-1H11.3V2Z" transform="translate(6.588 9.101)"/><path class="e" d="M15.544,2H8.487V0h7.057a1,1,0,0,1,0,2Zm-9.5,0h-6.5a1,1,0,0,1-1-1,1,1,0,0,1,1-1h6.5V2Z" transform="translate(6.588 17.629)"/><path class="e" d="M3.506,1.2a1,1,0,0,1,1.648,0L7.582,4.731A1,1,0,0,1,6.758,6.3H1.9a1,1,0,0,1-.824-1.567Z" transform="translate(19.627 5.773) rotate(90)"/><path class="e" d="M3.506,1.2a1,1,0,0,1,1.648,0L7.582,4.731A1,1,0,0,1,6.758,6.3H1.9a1,1,0,0,1-.824-1.567Z" transform="translate(14.379 14.365) rotate(90)"/></g></g><g class="f" transform="translate(733.568 619.568)"><g class="b"><rect class="c" width="2" height="15.875" rx="1" transform="translate(21.693 6.56)"/><path class="c" d="M15.544,2H13.738V0h1.806a1,1,0,0,1,0,2ZM11.3,2H-.456a1,1,0,0,1-1-1,1,1,0,0,1,1-1H11.3V2Z" transform="translate(6.588 9.101)"/><path class="c" d="M15.544,2H8.487V0h7.057a1,1,0,0,1,0,2Zm-9.5,0h-6.5a1,1,0,0,1-1-1,1,1,0,0,1,1-1h6.5V2Z" transform="translate(6.588 17.629)"/><path class="c" d="M3.506,1.2a1,1,0,0,1,1.648,0L7.582,4.731A1,1,0,0,1,6.758,6.3H1.9a1,1,0,0,1-.824-1.567Z" transform="translate(19.627 5.773) rotate(90)"/><path class="c" d="M3.506,1.2a1,1,0,0,1,1.648,0L7.582,4.731A1,1,0,0,1,6.758,6.3H1.9a1,1,0,0,1-.824-1.567Z" transform="translate(14.379 14.365) rotate(90)"/></g></g></g></svg>