<?xml version="1.0" encoding="utf-8"?>
<!-- Generator: Adobe Illustrator 26.4.1, SVG Export Plug-In . SVG Version: 6.00 Build 0)  -->
<svg version="1.1" id="图层_1" xmlns="http://www.w3.org/2000/svg" xmlns:xlink="http://www.w3.org/1999/xlink" x="0px" y="0px"
	 viewBox="0 0 192 48" style="enable-background:new 0 0 192 48;" xml:space="preserve">
<style type="text/css">
	.st0{fill:none;}
	.st1{fill:#DCE8F6;}
	.st2{fill:#336ED3;}
	.st3{fill:none;stroke:#FFFFFF;stroke-width:2;stroke-linecap:round;stroke-linejoin:round;}
	.st4{fill:none;stroke:#336ED3;stroke-width:2;stroke-linecap:round;stroke-linejoin:round;}
	.st5{fill:none;stroke:#9C9C9C;stroke-width:2;stroke-linecap:round;stroke-linejoin:round;}
</style>
<rect class="st0" width="48" height="48"/>
<rect x="48" class="st0" width="48" height="48"/>
<rect x="96" class="st0" width="48" height="48"/>
<rect x="144" class="st0" width="48" height="48"/>
<g>
	<path class="st1" d="M82,42H62c-4.4,0-8-3.6-8-8V14c0-4.4,3.6-8,8-8h20c4.4,0,8,3.6,8,8v20C90,38.4,86.4,42,82,42"/>
	<path class="st2" d="M130,42h-20c-4.4,0-8-3.6-8-8V14c0-4.4,3.6-8,8-8h20c4.4,0,8,3.6,8,8v20C138,38.4,134.4,42,130,42"/>
</g>
<g>
	<g>
		<rect id="矩形_424" x="102" y="6" class="st0" width="36" height="36"/>
		<line id="直线_450" class="st3" x1="109" y1="18.5" x2="116.3" y2="18.5"/>
		<line id="直线_452" class="st3" x1="109" y1="29.6" x2="117.3" y2="29.6"/>
		<line id="直线_453" class="st3" x1="123" y1="18.5" x2="131" y2="18.5"/>
		<line id="直线_455" class="st3" x1="123" y1="29.6" x2="131" y2="29.6"/>
		<line id="直线_453_00000089543301824202891510000006564132439829033612_" class="st3" x1="131" y1="33.9" x2="131" y2="14.2"/>
		<polygon class="st3" points="117.5,22.5 117.5,14.4 123.7,18.5 		"/>
		<polygon class="st3" points="117.7,33.6 117.7,25.6 123.9,29.6 		"/>
	</g>
	<g>
		<rect id="矩形_424_00000178205488891616547350000009171327118674359985_" x="54" y="6" class="st0" width="36" height="36"/>
		<line id="直线_450_00000099662729050340319420000011580863877218356615_" class="st4" x1="61" y1="18.5" x2="68.3" y2="18.5"/>
		<line id="直线_452_00000128443906928471931460000001758524166545097103_" class="st4" x1="61" y1="29.6" x2="69.3" y2="29.6"/>
		<line id="直线_453_00000106838903084486992970000010195664629494296471_" class="st4" x1="75" y1="18.5" x2="83" y2="18.5"/>
		<line id="直线_455_00000083801235973917511210000015904084964218815115_" class="st4" x1="75" y1="29.6" x2="83" y2="29.6"/>
		<line id="直线_453_00000072993452759776178590000014533831685270408343_" class="st4" x1="83" y1="33.9" x2="83" y2="14.2"/>
		<polygon class="st4" points="69.5,22.5 69.5,14.4 75.7,18.5 		"/>
		<polygon class="st4" points="69.7,33.6 69.7,25.6 75.9,29.6 		"/>
	</g>
	<g>
		<rect id="矩形_424_00000181766838987809116130000018257095908161486005_" x="6" y="6" class="st0" width="36" height="36"/>
		<line id="直线_450_00000170962140425628233650000006973093804491869616_" class="st4" x1="13" y1="18.5" x2="20.3" y2="18.5"/>
		<line id="直线_452_00000182521635003479108790000007620317790014111164_" class="st4" x1="13" y1="29.6" x2="21.3" y2="29.6"/>
		<line id="直线_453_00000174588751781450774900000007672165048796269452_" class="st4" x1="27" y1="18.5" x2="35" y2="18.5"/>
		<line id="直线_455_00000177463138840690548050000011425081054668886438_" class="st4" x1="27" y1="29.6" x2="35" y2="29.6"/>
		<line id="直线_453_00000068640413088621273950000002315045150115509931_" class="st4" x1="35" y1="33.9" x2="35" y2="14.2"/>
		<polygon class="st4" points="21.5,22.5 21.5,14.4 27.7,18.5 		"/>
		<polygon class="st4" points="21.7,33.6 21.7,25.6 27.9,29.6 		"/>
	</g>
	<g>
		<rect id="矩形_424_00000168822042281201230750000011836321674357016469_" x="150" y="6" class="st0" width="36" height="36"/>
		
			<line id="直线_450_00000158005964760473999720000005866178110164283264_" class="st5" x1="157" y1="18.5" x2="164.3" y2="18.5"/>
		
			<line id="直线_452_00000017506152453530736750000005666312895240082053_" class="st5" x1="157" y1="29.6" x2="165.3" y2="29.6"/>
		<line id="直线_453_00000160156570034700355380000009998574902213914537_" class="st5" x1="171" y1="18.5" x2="179" y2="18.5"/>
		<line id="直线_455_00000125573909244014929010000010357315821725734334_" class="st5" x1="171" y1="29.6" x2="179" y2="29.6"/>
		<line id="直线_453_00000032611390470440276100000003410460143595392942_" class="st5" x1="179" y1="33.9" x2="179" y2="14.2"/>
		<polygon class="st5" points="165.5,22.5 165.5,14.4 171.7,18.5 		"/>
		<polygon class="st5" points="165.7,33.6 165.7,25.6 171.9,29.6 		"/>
	</g>
</g>
</svg>
