<?xml version="1.0" encoding="utf-8"?>
<!-- Generator: Adobe Illustrator 21.0.0, SVG Export Plug-In . SVG Version: 6.00 Build 0)  -->
<svg version="1.1" id="图层_1" xmlns="http://www.w3.org/2000/svg" xmlns:xlink="http://www.w3.org/1999/xlink" x="0px" y="0px"
	 viewBox="0 0 192 48" style="enable-background:new 0 0 192 48;" xml:space="preserve">
<style type="text/css">
	.st0{fill:none;}
	.st1{fill:#DCE8F6;}
	.st2{fill:#336ED3;}
	.st3{fill-rule:evenodd;clip-rule:evenodd;fill:#336ED3;}
	.st4{fill:#FFFFFF;}
	.st5{fill-rule:evenodd;clip-rule:evenodd;fill:#FFFFFF;}
	.st6{fill:#9C9C9C;}
	.st7{fill-rule:evenodd;clip-rule:evenodd;fill:#9C9C9C;}
</style>
<rect class="st0" width="48" height="48"/>
<rect x="48" class="st0" width="48" height="48"/>
<rect x="96" class="st0" width="48" height="48"/>
<rect x="144" class="st0" width="48" height="48"/>
<g>
	<path class="st1" d="M82,42H62c-4.4,0-8-3.6-8-8V14c0-4.4,3.6-8,8-8h20c4.4,0,8,3.6,8,8v20C90,38.4,86.4,42,82,42"/>
	<path class="st2" d="M130,42h-20c-4.4,0-8-3.6-8-8V14c0-4.4,3.6-8,8-8h20c4.4,0,8,3.6,8,8v20C138,38.4,134.4,42,130,42"/>
</g>
<g>
	<g>
		<g>
			<path class="st2" d="M29,37.7c-0.2,0-0.3,0-0.5-0.1C28.2,37.4,28,37,28,36.7V25.3c0-0.4,0.2-0.7,0.5-0.9c0.3-0.2,0.7-0.2,1,0
				l8.7,5.7c0.3,0.2,0.5,0.5,0.5,0.8s-0.2,0.7-0.5,0.8l-8.7,5.7C29.4,37.6,29.2,37.7,29,37.7z M30,27.2v7.6l5.8-3.8L30,27.2z"/>
		</g>
		<path class="st3" d="M14,14h19c0.6,0,1,0.4,1,1s-0.4,1-1,1H14c-0.6,0-1-0.4-1-1S13.4,14,14,14z"/>
		<path class="st3" d="M14,26h10c0.6,0,1,0.4,1,1s-0.4,1-1,1H14c-0.6,0-1-0.4-1-1S13.4,26,14,26z"/>
		<path class="st3" d="M14,20h19c0.6,0,1,0.4,1,1s-0.4,1-1,1H14c-0.6,0-1-0.4-1-1S13.4,20,14,20z"/>
		<path class="st3" d="M14,32h10c0.6,0,1,0.4,1,1s-0.4,1-1,1H14c-0.6,0-1-0.4-1-1S13.4,32,14,32z"/>
	</g>
	<g>
		<g>
			<path class="st2" d="M77,37.7c-0.2,0-0.3,0-0.5-0.1C76.2,37.4,76,37,76,36.7V25.3c0-0.4,0.2-0.7,0.5-0.9c0.3-0.2,0.7-0.2,1,0
				l8.7,5.7c0.3,0.2,0.5,0.5,0.5,0.8s-0.2,0.7-0.5,0.8l-8.7,5.7C77.4,37.6,77.2,37.7,77,37.7z M78,27.2v7.6l5.8-3.8L78,27.2z"/>
		</g>
		<path class="st3" d="M62,14h19c0.6,0,1,0.4,1,1s-0.4,1-1,1H62c-0.6,0-1-0.4-1-1S61.4,14,62,14z"/>
		<path class="st3" d="M62,26h10c0.6,0,1,0.4,1,1s-0.4,1-1,1H62c-0.6,0-1-0.4-1-1S61.4,26,62,26z"/>
		<path class="st3" d="M62,20h19c0.6,0,1,0.4,1,1s-0.4,1-1,1H62c-0.6,0-1-0.4-1-1S61.4,20,62,20z"/>
		<path class="st3" d="M62,32h10c0.6,0,1,0.4,1,1s-0.4,1-1,1H62c-0.6,0-1-0.4-1-1S61.4,32,62,32z"/>
	</g>
	<g>
		<g>
			<path class="st4" d="M125,37.7c-0.2,0-0.3,0-0.5-0.1c-0.3-0.2-0.5-0.5-0.5-0.9V25.3c0-0.4,0.2-0.7,0.5-0.9c0.3-0.2,0.7-0.2,1,0
				l8.7,5.7c0.3,0.2,0.5,0.5,0.5,0.8s-0.2,0.7-0.5,0.8l-8.7,5.7C125.4,37.6,125.2,37.7,125,37.7z M126,27.2v7.6l5.8-3.8L126,27.2z"
				/>
		</g>
		<path class="st5" d="M110,14h19c0.6,0,1,0.4,1,1s-0.4,1-1,1h-19c-0.6,0-1-0.4-1-1S109.4,14,110,14z"/>
		<path class="st5" d="M110,26h10c0.6,0,1,0.4,1,1s-0.4,1-1,1h-10c-0.6,0-1-0.4-1-1S109.4,26,110,26z"/>
		<path class="st5" d="M110,20h19c0.6,0,1,0.4,1,1s-0.4,1-1,1h-19c-0.6,0-1-0.4-1-1S109.4,20,110,20z"/>
		<path class="st5" d="M110,32h10c0.6,0,1,0.4,1,1s-0.4,1-1,1h-10c-0.6,0-1-0.4-1-1S109.4,32,110,32z"/>
	</g>
	<g>
		<g>
			<path class="st6" d="M173,37.7c-0.2,0-0.3,0-0.5-0.1c-0.3-0.2-0.5-0.5-0.5-0.9V25.3c0-0.4,0.2-0.7,0.5-0.9c0.3-0.2,0.7-0.2,1,0
				l8.7,5.7c0.3,0.2,0.5,0.5,0.5,0.8s-0.2,0.7-0.5,0.8l-8.7,5.7C173.4,37.6,173.2,37.7,173,37.7z M174,27.2v7.6l5.8-3.8L174,27.2z"
				/>
		</g>
		<path class="st7" d="M158,14h19c0.6,0,1,0.4,1,1s-0.4,1-1,1h-19c-0.6,0-1-0.4-1-1S157.4,14,158,14z"/>
		<path class="st7" d="M158,26h10c0.6,0,1,0.4,1,1s-0.4,1-1,1h-10c-0.6,0-1-0.4-1-1S157.4,26,158,26z"/>
		<path class="st7" d="M158,20h19c0.6,0,1,0.4,1,1s-0.4,1-1,1h-19c-0.6,0-1-0.4-1-1S157.4,20,158,20z"/>
		<path class="st7" d="M158,32h10c0.6,0,1,0.4,1,1s-0.4,1-1,1h-10c-0.6,0-1-0.4-1-1S157.4,32,158,32z"/>
	</g>
</g>
</svg>
