<?xml version="1.0" encoding="utf-8"?>
<!-- Generator: Adobe Illustrator 21.0.0, SVG Export Plug-In . SVG Version: 6.00 Build 0)  -->
<svg version="1.1" id="图层_1" xmlns="http://www.w3.org/2000/svg" xmlns:xlink="http://www.w3.org/1999/xlink" x="0px" y="0px"
	 viewBox="0 0 32 32" style="enable-background:new 0 0 32 32;" xml:space="preserve">
<style type="text/css">
	.st0{fill:#336ED3;}
	.st1{fill:none;}
</style>
<g>
	<path class="st0" d="M17,17h-6V3h9v6.5h2V7h1v2.5h2V3c0-1.1-0.9-2-2-2H8C6.9,1,6,1.9,6,3v14c0,1.1,0.9,2,2,2h9V17z M22,3h1v2h-1V3z
		 M9,17H8v-2h1V17z M9,13H8v-2h1V13z M9,9H8V7h1V9z M9,5H8V3h1V5z"/>
	<polygon class="st0" points="18.2,10 14,6.8 14,13.2 	"/>
	<path class="st0" d="M26.7,18.4l-2.2-2.2c0.3-0.5,0.5-1.1,0.5-1.7c0-1.9-1.6-3.5-3.5-3.5S18,12.6,18,14.5s1.6,3.5,3.5,3.5
		c0.6,0,1.2-0.2,1.7-0.4l2.2,2.2c0.4,0.4,0.9,0.4,1.4-0.1C27.1,19.3,27.1,18.7,26.7,18.4z M21.5,16c-0.8,0-1.5-0.7-1.5-1.5
		s0.7-1.5,1.5-1.5s1.5,0.7,1.5,1.5S22.3,16,21.5,16z"/>
	<rect x="10" y="29" class="st0" width="12" height="2"/>
</g>
<rect class="st1" width="32" height="32"/>
</svg>
