<svg xmlns="http://www.w3.org/2000/svg" width="96" height="24.002" viewBox="0 0 96 24.002"><defs><style>.a{fill:#55616d;}.b,.c,.e,.g{fill:none;}.b{stroke:#55616d;}.b,.e,.g{stroke-width:2px;}.d{fill:#818c98;}.e{stroke:#818c98;}.f{fill:#438dec;}.g{stroke:#438dec;}.h{opacity:0.3;}</style></defs><g transform="translate(-303.999 -557.999)"><g transform="translate(299.352 553.352)"><path class="a" d="M26.635,27.7,28.7,25.637l3.619,3.618a1.462,1.462,0,0,1-2.067,2.068Z" transform="translate(-6.599 -6.33)"/><circle class="b" cx="6.945" cy="6.945" r="6.945" transform="translate(8.972 8.241)"/><path class="a" d="M20.883,16h0a.883.883,0,0,1,.883.883v5.3a.883.883,0,0,1-1.766,0v-5.3A.883.883,0,0,1,20.883,16" transform="translate(-4.966 -4.346)"/><path class="a" d="M24.063,19.883h0a.883.883,0,0,1-.883.883h-5.3a.883.883,0,1,1,0-1.766h5.3a.883.883,0,0,1,.883.883" transform="translate(-4.615 -4.697)"/><rect class="c" width="24" height="24" transform="translate(4.648 4.648)"/></g><g transform="translate(323.352 553.352)"><path class="d" d="M26.635,27.7,28.7,25.637l3.619,3.618a1.462,1.462,0,0,1-2.067,2.068Z" transform="translate(-6.599 -6.33)"/><circle class="e" cx="6.945" cy="6.945" r="6.945" transform="translate(8.972 8.241)"/><path class="d" d="M20.883,16h0a.883.883,0,0,1,.883.883v5.3a.883.883,0,0,1-1.766,0v-5.3A.883.883,0,0,1,20.883,16" transform="translate(-4.966 -4.346)"/><path class="d" d="M24.063,19.883h0a.883.883,0,0,1-.883.883h-5.3a.883.883,0,1,1,0-1.766h5.3a.883.883,0,0,1,.883.883" transform="translate(-4.615 -4.697)"/><rect class="c" width="24" height="24" transform="translate(4.648 4.648)"/></g><g transform="translate(347.352 553.354)"><path class="f" d="M26.635,27.7,28.7,25.637l3.619,3.618a1.462,1.462,0,0,1-2.067,2.068Z" transform="translate(-6.599 -6.33)"/><circle class="g" cx="6.945" cy="6.945" r="6.945" transform="translate(8.972 8.241)"/><path class="f" d="M20.883,16h0a.883.883,0,0,1,.883.883v5.3a.883.883,0,0,1-1.766,0v-5.3A.883.883,0,0,1,20.883,16" transform="translate(-4.966 -4.346)"/><path class="f" d="M24.063,19.883h0a.883.883,0,0,1-.883.883h-5.3a.883.883,0,1,1,0-1.766h5.3a.883.883,0,0,1,.883.883" transform="translate(-4.615 -4.697)"/><rect class="c" width="24" height="24" transform="translate(4.648 4.648)"/></g><g class="h" transform="translate(371.352 553.354)"><path class="a" d="M26.635,27.7,28.7,25.637l3.619,3.618a1.462,1.462,0,0,1-2.067,2.068Z" transform="translate(-6.599 -6.33)"/><circle class="b" cx="6.945" cy="6.945" r="6.945" transform="translate(8.972 8.241)"/><path class="a" d="M20.883,16h0a.883.883,0,0,1,.883.883v5.3a.883.883,0,0,1-1.766,0v-5.3A.883.883,0,0,1,20.883,16" transform="translate(-4.966 -4.346)"/><path class="a" d="M24.063,19.883h0a.883.883,0,0,1-.883.883h-5.3a.883.883,0,1,1,0-1.766h5.3a.883.883,0,0,1,.883.883" transform="translate(-4.615 -4.697)"/><rect class="c" width="24" height="24" transform="translate(4.648 4.648)"/></g></g></svg>