<svg xmlns="http://www.w3.org/2000/svg" width="80" height="20" viewBox="0 0 80 20"><defs><style>.a{fill:none;}.b{fill:#8b959f;}.c{opacity:0.5;}.d{fill:#707982;}</style></defs><g transform="translate(-1197 -398)"><g transform="translate(1197 398)"><rect class="a" width="20" height="20"/><rect class="b" width="2" height="16" rx="1" transform="translate(16.364 14.95) rotate(135)"/><rect class="b" width="2" height="16" rx="1" transform="translate(14.95 3.636) rotate(45)"/></g><g class="c" transform="translate(1257 398)"><rect class="a" width="20" height="20"/><rect class="b" width="2" height="16" rx="1" transform="translate(16.364 14.95) rotate(135)"/><rect class="b" width="2" height="16" rx="1" transform="translate(14.95 3.636) rotate(45)"/></g><g transform="translate(1217 398)"><rect class="a" width="20" height="20"/><rect class="d" width="2" height="16" rx="1" transform="translate(16.364 14.95) rotate(135)"/><rect class="d" width="2" height="16" rx="1" transform="translate(14.95 3.636) rotate(45)"/></g><g transform="translate(1237 398)"><rect class="a" width="20" height="20"/><rect class="d" width="2" height="16" rx="1" transform="translate(16.364 14.95) rotate(135)"/><rect class="d" width="2" height="16" rx="1" transform="translate(14.95 3.636) rotate(45)"/></g></g></svg>