<?xml version="1.0" encoding="utf-8"?>
<!-- Generator: Adobe Illustrator 21.0.0, SVG Export Plug-In . SVG Version: 6.00 Build 0)  -->
<svg version="1.1" id="图层_1" xmlns="http://www.w3.org/2000/svg" xmlns:xlink="http://www.w3.org/1999/xlink" x="0px" y="0px"
	 viewBox="0 0 20 20" style="enable-background:new 0 0 20 20;" xml:space="preserve">
<style type="text/css">
	.st0{fill:#95A5B9;}
	.st1{fill:none;}
</style>
<g>
	<path class="st0" d="M17,5H3C2.5,5,2,5.5,2,6v8c0,0.5,0.5,1,1,1h14c0.5,0,1-0.5,1-1V6C18,5.5,17.5,5,17,5z M16,13H4V7h12V13z"/>
	<path class="st0" d="M6,12L6,12c-0.6,0-1-0.4-1-1V9c0-0.5,0.4-1,1-1h0c0.5,0,1,0.4,1,1v2C7,11.6,6.6,12,6,12z"/>
	<rect x="9" y="9" class="st0" width="1" height="2"/>
	<rect x="11" y="9" class="st0" width="1" height="2"/>
	<rect x="13" y="9" class="st0" width="1" height="2"/>
</g>
<rect class="st1" width="20" height="20"/>
</svg>
