<svg xmlns="http://www.w3.org/2000/svg" width="20" height="20" viewBox="0 0 20 20"><defs><style>.a{fill:#55616d;}.b{fill:none;}</style></defs><g transform="translate(-4 -4)"><g transform="translate(-0.479 -0.392)"><path class="a" d="M21.434,21.434h0a1.086,1.086,0,0,1-1.537,0L7.35,8.887A1.087,1.087,0,0,1,8.887,7.35L21.434,19.9a1.086,1.086,0,0,1,0,1.537" transform="translate(0.087 0)"/><path class="a" d="M12.915,11.719a2.708,2.708,0,1,0,3.639,3.639Z" transform="translate(0.334 0.264)"/><path class="a" d="M13.851,9.836c.084,0,.164-.025.249-.025a4.527,4.527,0,0,1,4.527,4.527c0,.086-.021.165-.025.249l2.832,2.832A10.006,10.006,0,0,0,22.768,15.6a2.6,2.6,0,0,0,0-2.535A9.791,9.791,0,0,0,12.216,8.2Z" transform="translate(0.379 0.054)"/><path class="a" d="M18.213,16.841a4.525,4.525,0,1,1-6.289-6.288L10.271,8.9a10,10,0,0,0-4.46,4.12,2.6,2.6,0,0,0,0,2.535A9.9,9.9,0,0,0,20.175,18.8Z" transform="translate(0 0.105)"/></g><rect class="b" width="20" height="20" transform="translate(4 4)"/></g></svg>