<svg xmlns="http://www.w3.org/2000/svg" xmlns:xlink="http://www.w3.org/1999/xlink" width="18" height="18" viewBox="0 0 18 18"><defs><style>.a{fill:none;}.b{clip-path:url(#a);}.c{fill:#438dec;}.d{fill:#fff;}</style><clipPath id="a"><rect class="a" width="18" height="18"/></clipPath></defs><g class="b"><path class="c" d="M18,11a7,7,0,1,1-7-7,7,7,0,0,1,7,7" transform="translate(-2 -2)"/><path class="d" d="M-.75,3.5a.75.75,0,0,1-.75-.75V-.75A.75.75,0,0,1-.75-1.5.75.75,0,0,1,0-.75v3.5A.75.75,0,0,1-.75,3.5Z" transform="translate(9.75 6.25)"/><path class="d" d="M18,23.5a1,1,0,1,1-1-1,1,1,0,0,1,1,1" transform="translate(-8 -11.25)"/></g></svg>