<svg xmlns="http://www.w3.org/2000/svg" width="16" height="16" viewBox="0 0 16 16"><defs><style>.a{fill:none;}.b{fill:#ff5d5b;}</style></defs><g transform="translate(-0.521 -0.521)"><rect class="a" width="16" height="16" transform="translate(0.521 0.521)"/><path class="b" d="M6.3,7.1a.8.8,0,0,1-.568-.235L-.965.171a.8.8,0,0,1,0-1.136.8.8,0,0,1,1.136,0L6.866,5.73A.8.8,0,0,1,6.3,7.1Z" transform="translate(5.57 5.57)"/><path class="b" d="M-.4,7.1a.8.8,0,0,1-.568-.235.8.8,0,0,1,0-1.136L5.73-.965a.8.8,0,0,1,1.136,0,.8.8,0,0,1,0,1.136L.171,6.866A.8.8,0,0,1-.4,7.1Z" transform="translate(5.57 5.57)"/></g></svg>