<?xml version="1.0" encoding="utf-8"?>
<!-- Generator: Adobe Illustrator 21.0.0, SVG Export Plug-In . SVG Version: 6.00 Build 0)  -->
<svg version="1.1" id="图层_1" xmlns="http://www.w3.org/2000/svg" xmlns:xlink="http://www.w3.org/1999/xlink" x="0px" y="0px"
	 viewBox="0 0 20 20" style="enable-background:new 0 0 20 20;" xml:space="preserve">
<style type="text/css">
	.st0{fill:#95A5B9;}
	.st1{fill:none;}
</style>
<g>
	<path class="st0" d="M15,8H5c-1.1,0-2,0.9-2,2v6c0,1.1,0.9,2,2,2h10c1.1,0,2-0.9,2-2v-6C17,8.9,16.1,8,15,8z M15,16H5v-6h10V16z"/>
	<path class="st0" d="M10,2C7.8,2,6,3.8,6,6v3h2V6c0-1.1,0.9-2,2-2c1.1,0,2,0.9,2,2v3h2V6C14,3.8,12.2,2,10,2z"/>
	<path class="st0" d="M10,15L10,15c-0.6,0-1-0.4-1-1v-2c0-0.5,0.4-1,1-1h0c0.5,0,1,0.4,1,1v2C11,14.6,10.6,15,10,15z"/>
</g>
<rect class="st1" width="20" height="20"/>
</svg>
