<?xml version="1.0" encoding="utf-8"?>
<!-- Generator: Adobe Illustrator 21.0.0, SVG Export Plug-In . SVG Version: 6.00 Build 0)  -->
<svg version="1.1" id="图层_1" xmlns="http://www.w3.org/2000/svg" xmlns:xlink="http://www.w3.org/1999/xlink" x="0px" y="0px"
	 viewBox="0 0 20 20" style="enable-background:new 0 0 20 20;" xml:space="preserve">
<style type="text/css">
	.st0{fill:#95A5B9;}
	.st1{fill:none;}
</style>
<g>
	<path class="st0" d="M15,4H5C3.9,4,3,4.9,3,6v6c0,1.1,0.9,2,2,2h2v-2H5V6h10v6h-2v2h2c1.1,0,2-0.9,2-2V6C17,4.9,16.1,4,15,4z"/>
	<path class="st0" d="M7,10L7,10c-0.6,0-1-0.4-1-1V8c0-0.5,0.4-1,1-1h0c0.5,0,1,0.4,1,1v1C8,9.6,7.6,10,7,10z"/>
	<path class="st0" d="M10,10L10,10c-0.6,0-1-0.4-1-1V8c0-0.5,0.4-1,1-1h0c0.5,0,1,0.4,1,1v1C11,9.6,10.6,10,10,10z"/>
	<path class="st0" d="M13,10L13,10c-0.6,0-1-0.4-1-1V8c0-0.5,0.4-1,1-1h0c0.5,0,1,0.4,1,1v1C14,9.6,13.6,10,13,10z"/>
	<path class="st0" d="M13,16H7c-0.5,0-1-0.4-1-1v0c0-0.5,0.4-1,1-1h6c0.5,0,1,0.4,1,1v0C14,15.6,13.6,16,13,16z"/>
	<rect x="6" y="14" class="st0" width="8" height="1"/>
</g>
<rect class="st1" width="20" height="20"/>
</svg>
