<?xml version="1.0" encoding="utf-8"?>
<!-- Generator: Adobe Illustrator 21.0.0, SVG Export Plug-In . SVG Version: 6.00 Build 0)  -->
<svg version="1.1" id="图层_1" xmlns="http://www.w3.org/2000/svg" xmlns:xlink="http://www.w3.org/1999/xlink" x="0px" y="0px"
	 viewBox="0 0 20 20" style="enable-background:new 0 0 20 20;" xml:space="preserve">
<style type="text/css">
	.st0{fill:#95A5B9;}
	.st1{fill:none;}
</style>
<g>
	<path class="st0" d="M10,1C7.8,1,6,2.8,6,5c0,2.2,1.8,4,4,4c2.2,0,4-1.8,4-4C14,2.8,12.2,1,10,1z M10,7C8.9,7,8,6.1,8,5
		c0-1.1,0.9-2,2-2c1.1,0,2,0.9,2,2C12,6.1,11.1,7,10,7z"/>
	<path class="st0" d="M5,14c0.2-3.4,2.3-5,5-5s4.8,1.6,5,5h2c-0.2-4.5-3.3-7-7-7c-3.7,0-6.8,2.5-7,7H5z"/>
	<path class="st0" d="M4,18L4,18c-0.6,0-1-0.4-1-1v-3c0-0.5,0.4-1,1-1h0c0.5,0,1,0.4,1,1v3C5,17.6,4.6,18,4,18z"/>
	<path class="st0" d="M16,18L16,18c-0.6,0-1-0.4-1-1v-3c0-0.5,0.4-1,1-1h0c0.5,0,1,0.4,1,1v3C17,17.6,16.6,18,16,18z"/>
	<path class="st0" d="M16,18H4c-0.5,0-1-0.4-1-1v0c0-0.5,0.4-1,1-1h12c0.5,0,1,0.4,1,1v0C17,17.6,16.6,18,16,18z"/>
</g>
<rect class="st1" width="20" height="20"/>
</svg>
