<svg xmlns="http://www.w3.org/2000/svg" width="20" height="20" viewBox="0 0 20 20"><defs><style>.a{fill:#55616d;}.b{fill:none;}</style></defs><g transform="translate(-4 -4)"><g transform="translate(-0.483 -0.34)"><path class="a" d="M23.154,13.073a9.947,9.947,0,0,0-17.343,0,2.6,2.6,0,0,0,0,2.535,9.948,9.948,0,0,0,17.343,0,2.6,2.6,0,0,0,0-2.535m-8.671,5.8a4.529,4.529,0,1,1,4.529-4.529,4.529,4.529,0,0,1-4.529,4.529" transform="translate(0)"/><path class="a" d="M16.863,14.146a2.717,2.717,0,1,1-2.717-2.717,2.717,2.717,0,0,1,2.717,2.717" transform="translate(0.337 0.194)"/></g><rect class="b" width="20" height="20" transform="translate(4 4)"/></g></svg>