<?xml version="1.0" encoding="utf-8"?>
<!-- Generator: Adobe Illustrator 23.0.0, SVG Export Plug-In . SVG Version: 6.00 Build 0)  -->
<svg version="1.1" id="图层_1" xmlns="http://www.w3.org/2000/svg" xmlns:xlink="http://www.w3.org/1999/xlink" x="0px" y="0px"
	 viewBox="0 0 24 24" style="enable-background:new 0 0 24 24;" xml:space="preserve">
<style type="text/css">
	.st0{fill:none;}
	.st1{fill:#FFFFFF;}
</style>
<rect class="st0" width="24" height="24"/>
<g>
	<path class="st1" d="M12,2C6.5,2,2,6.5,2,12c0,3.3,1.6,6.2,4,8H3c-0.5,0-1,0.5-1,1s0.5,1,1,1h8.4c0,0,0.1,0,0.1,0
		c0.1,0,0.3,0,0.4,0c5.5,0,10-4.5,10-10S17.5,2,12,2z M12,20c-4.4,0-8-3.6-8-8s3.6-8,8-8s8,3.6,8,8S16.4,20,12,20z"/>
	<path class="st1" d="M15.1,11.1l-4.3-2.6c-0.7-0.4-1.5,0.1-1.5,0.9v5.1c0,0.8,0.8,1.3,1.5,0.9l4.3-2.6
		C15.8,12.5,15.8,11.5,15.1,11.1z"/>
</g>
</svg>
