<?xml version="1.0" encoding="utf-8"?>
<!-- Generator: Adobe Illustrator 21.0.0, SVG Export Plug-In . SVG Version: 6.00 Build 0)  -->
<svg version="1.1" id="图层_1" xmlns="http://www.w3.org/2000/svg" xmlns:xlink="http://www.w3.org/1999/xlink" x="0px" y="0px"
	 viewBox="0 0 24 24" style="enable-background:new 0 0 24 24;" xml:space="preserve">
<style type="text/css">
	.st0{fill:#FFFFFF;}
	.st1{fill:none;}
</style>
<g>
	<path class="st0" d="M12,2C6.5,2,2,6.5,2,12c0,5.5,4.5,10,10,10s10-4.5,10-10C22,6.5,17.5,2,12,2z M12,20c-4.4,0-8-3.6-8-8
		s3.6-8,8-8s8,3.6,8,8S16.4,20,12,20z"/>
	<path class="st0" d="M12,11c-0.5,0-1,0.5-1,1v3v1v1h2v-1v-1v-3C13,11.5,12.5,11,12,11z"/>
	<circle class="st0" cx="12" cy="8" r="1"/>
</g>
<rect class="st1" width="24" height="24"/>
</svg>
