<?xml version="1.0" encoding="utf-8"?>
<!-- Generator: Adobe Illustrator 21.0.0, SVG Export Plug-In . SVG Version: 6.00 Build 0)  -->
<svg version="1.1" id="图层_1" xmlns="http://www.w3.org/2000/svg" xmlns:xlink="http://www.w3.org/1999/xlink" x="0px" y="0px"
	 viewBox="0 0 72 72" style="enable-background:new 0 0 72 72;" xml:space="preserve">
<style type="text/css">
	.st0{fill-rule:evenodd;clip-rule:evenodd;fill:#336ED3;}
	.st1{fill-rule:evenodd;clip-rule:evenodd;fill:none;}
</style>
<g>
	<path class="st0" d="M36,12c-13.3,0-24,10.7-24,24c0,13.3,10.7,24,24,24c13.3,0,24-10.7,24-24C60,22.7,49.3,12,36,12z M36,58
		c-12.2,0-22-9.8-22-22c0-12.2,9.8-22,22-22c12.2,0,22,9.8,22,22C58,48.2,48.2,58,36,58z"/>
	<path class="st0" d="M45.7,29.4L33.4,41.8L26,34.4c-0.5-0.5-1.4-0.5-1.9,0c-0.5,0.5-0.5,1.4,0,1.9l8.3,8.3c0,0,0,0,0,0
		c0.1,0.1,0.3,0.2,0.4,0.3c0.5,0.2,1.1,0.1,1.5-0.3c0,0,13.3-13.3,13.3-13.3c0.5-0.5,0.5-1.4,0-1.9C47.1,28.9,46.2,28.9,45.7,29.4z"
		/>
</g>
<rect class="st1" width="72" height="72"/>
</svg>
