<?xml version="1.0" encoding="utf-8"?>
<!-- Generator: Adobe Illustrator 21.0.0, SVG Export Plug-In . SVG Version: 6.00 Build 0)  -->
<svg version="1.1" id="图层_1" xmlns="http://www.w3.org/2000/svg" xmlns:xlink="http://www.w3.org/1999/xlink" x="0px" y="0px"
	 viewBox="0 0 24 24" style="enable-background:new 0 0 24 24;" xml:space="preserve">
<style type="text/css">
	.st0{fill:#FFFFFF;}
	.st1{fill:none;}
</style>
<path class="st0" d="M12,3.1L3.5,18h17L12,3.1z M13,15.9c0,0.5-0.4,1-1,1H12c-0.5,0-1-0.4-1-1v-0.9c0-0.5,0.4-1,1-1H12
	c0.5,0,1,0.4,1,1V15.9z M12,14c-0.5,0-1-0.5-1-1V9c0-0.5,0.5-1,1-1s1,0.5,1,1v4C13,13.5,12.5,14,12,14z"/>
<rect class="st1" width="24" height="24"/>
</svg>
