<svg xmlns="http://www.w3.org/2000/svg" width="20" height="20" viewBox="0 0 20 20"><defs><style>.a{fill:#55616d;}.b{fill:none;}</style></defs><g transform="translate(-2.013 -2.013)"><g transform="translate(-0.277 0.081)"><path class="a" d="M17.889,5.779V4.667a.667.667,0,1,0-1.333,0V6.89a.667.667,0,1,1-1.333,0V5.779H9.889V4.667a.667.667,0,1,0-1.333,0V6.89a.667.667,0,1,1-1.333,0V5.779H6.778A1.777,1.777,0,0,0,5,7.556V18.222A1.777,1.777,0,0,0,6.778,20H19.222A1.777,1.777,0,0,0,21,18.222V7.556a1.777,1.777,0,0,0-1.778-1.778Zm1.333,12.444H6.778V9.334H19.222Z" transform="translate(-0.71 -0.568)"/><path class="a" d="M9.444,12h.889a.445.445,0,0,1,.444.444v.889a.445.445,0,0,1-.444.444H9.444A.445.445,0,0,1,9,13.333v-.889A.445.445,0,0,1,9.444,12" transform="translate(-1.154 -1.457)"/><path class="a" d="M13.444,12h.889a.445.445,0,0,1,.444.444v.889a.445.445,0,0,1-.444.444h-.889A.445.445,0,0,1,13,13.333v-.889A.445.445,0,0,1,13.444,12" transform="translate(-1.598 -1.457)"/><path class="a" d="M17.444,12h.889a.445.445,0,0,1,.444.444v.889a.445.445,0,0,1-.444.444h-.889A.445.445,0,0,1,17,13.333v-.889A.445.445,0,0,1,17.444,12" transform="translate(-2.043 -1.457)"/><path class="a" d="M9.444,16h.889a.445.445,0,0,1,.444.444v.889a.445.445,0,0,1-.444.444H9.444A.445.445,0,0,1,9,17.333v-.889A.445.445,0,0,1,9.444,16" transform="translate(-1.154 -1.901)"/><path class="a" d="M13.444,16h.889a.445.445,0,0,1,.444.444v.889a.445.445,0,0,1-.444.444h-.889A.445.445,0,0,1,13,17.333v-.889A.445.445,0,0,1,13.444,16" transform="translate(-1.598 -1.901)"/></g><rect class="b" width="20" height="20" transform="translate(2.013 2.013)"/></g></svg>