<?xml version="1.0" encoding="utf-8"?>
<!-- Generator: Adobe Illustrator 21.0.0, SVG Export Plug-In . SVG Version: 6.00 Build 0)  -->
<svg version="1.1" id="图层_1" xmlns="http://www.w3.org/2000/svg" xmlns:xlink="http://www.w3.org/1999/xlink" x="0px" y="0px"
	 viewBox="0 0 32 32" style="enable-background:new 0 0 32 32;" xml:space="preserve">
<style type="text/css">
	.st0{fill:#FFFFFF;}
	.st1{fill:none;}
</style>
<g>
	<g>
		<path class="st0" d="M16,22.5c-0.2,0-0.3-0.1-0.4-0.2l-7-9c-0.1-0.2-0.1-0.4-0.1-0.5s0.3-0.3,0.4-0.3h14c0.2,0,0.4,0.1,0.4,0.3
			s0.1,0.4-0.1,0.5l-7,9C16.3,22.4,16.2,22.5,16,22.5z"/>
		<path class="st0" d="M23,13l-7,9l-7-9H23 M23,12H9c-0.4,0-0.7,0.2-0.9,0.6c-0.2,0.3-0.1,0.8,0.1,1.1l7,9c0.2,0.2,0.5,0.4,0.8,0.4
			s0.6-0.1,0.8-0.4l7-9c0.2-0.3,0.3-0.7,0.1-1.1C23.7,12.2,23.4,12,23,12L23,12z M23,14L23,14L23,14L23,14z"/>
	</g>
	<path class="st0" d="M26,4H6C4.9,4,4,4.9,4,6v20c0,1.1,0.9,2,2,2h20c1.1,0,2-0.9,2-2V6C28,4.9,27.1,4,26,4z M26,26H6V6h20V26z"/>
</g>
<rect class="st1" width="32" height="32"/>
</svg>
