<?xml version="1.0" encoding="utf-8"?>
<!-- Generator: Adobe Illustrator 21.0.0, SVG Export Plug-In . SVG Version: 6.00 Build 0)  -->
<svg version="1.1" id="图层_1" xmlns="http://www.w3.org/2000/svg" xmlns:xlink="http://www.w3.org/1999/xlink" x="0px" y="0px"
	 viewBox="0 0 64 16" style="enable-background:new 0 0 64 16;" xml:space="preserve">
<style type="text/css">
	.st0{fill:none;}
	.st1{fill:#95A5B9;}
	.st2{fill:#336ED3;}
</style>
<rect y="0" class="st0" width="64" height="16"/>
<path class="st1" d="M9.6,8l3.1-3.1c0.4-0.4,0.4-1.1,0-1.6c-0.4-0.4-1.1-0.4-1.6,0L8,6.4L4.9,3.3c-0.4-0.4-1.1-0.4-1.6,0
	c-0.4,0.4-0.4,1.1,0,1.6L6.4,8l-3.1,3.1c-0.4,0.4-0.4,1.1,0,1.6c0.4,0.4,1.1,0.4,1.6,0L8,9.6l3.1,3.1c0.4,0.4,1.1,0.4,1.6,0
	c0.4-0.4,0.4-1.1,0-1.6L9.6,8z"/>
<path class="st2" d="M25.6,8l3.1-3.1c0.4-0.4,0.4-1.1,0-1.6c-0.4-0.4-1.1-0.4-1.6,0L24,6.4l-3.1-3.1c-0.4-0.4-1.1-0.4-1.6,0
	c-0.4,0.4-0.4,1.1,0,1.6L22.4,8l-3.1,3.1c-0.4,0.4-0.4,1.1,0,1.6c0.4,0.4,1.1,0.4,1.6,0L24,9.6l3.1,3.1c0.4,0.4,1.1,0.4,1.6,0
	c0.4-0.4,0.4-1.1,0-1.6L25.6,8z"/>
<path class="st2" d="M41.6,8l3.1-3.1c0.4-0.4,0.4-1.1,0-1.6c-0.4-0.4-1.1-0.4-1.6,0L40,6.4l-3.1-3.1c-0.4-0.4-1.1-0.4-1.6,0
	c-0.4,0.4-0.4,1.1,0,1.6L38.4,8l-3.1,3.1c-0.4,0.4-0.4,1.1,0,1.6c0.4,0.4,1.1,0.4,1.6,0L40,9.6l3.1,3.1c0.4,0.4,1.1,0.4,1.6,0
	c0.4-0.4,0.4-1.1,0-1.6L41.6,8z"/>
<path class="st1" d="M57.6,8l3.1-3.1c0.4-0.4,0.4-1.1,0-1.6c-0.4-0.4-1.1-0.4-1.6,0L56,6.4l-3.1-3.1c-0.4-0.4-1.1-0.4-1.6,0
	c-0.4,0.4-0.4,1.1,0,1.6L54.4,8l-3.1,3.1c-0.4,0.4-0.4,1.1,0,1.6c0.4,0.4,1.1,0.4,1.6,0L56,9.6l3.1,3.1c0.4,0.4,1.1,0.4,1.6,0
	c0.4-0.4,0.4-1.1,0-1.6L57.6,8z"/>
</svg>
