<svg xmlns="http://www.w3.org/2000/svg" width="80" height="20" viewBox="0 0 80 20"><defs><style>.a{fill:#55616d;}.b{fill:none;}.c{opacity:0.3;}.d{fill:#818c98;}.e{fill:#438dec;}</style></defs><g transform="translate(-714 -368)"><g transform="translate(430 280)"><rect class="a" width="1.758" height="10" rx="0.879" transform="translate(293.121 93)"/><rect class="b" width="20" height="20" transform="translate(284 88)"/><rect class="a" width="1.758" height="10" rx="0.879" transform="translate(299 97.121) rotate(90)"/></g><g class="c" transform="translate(490 280)"><rect class="a" width="1.758" height="10" rx="0.879" transform="translate(293.121 93)"/><rect class="b" width="20" height="20" transform="translate(284 88)"/><rect class="a" width="1.758" height="10" rx="0.879" transform="translate(299 97.121) rotate(90)"/></g><g transform="translate(450 280)"><rect class="d" width="1.758" height="10" rx="0.879" transform="translate(293.121 93)"/><rect class="b" width="20" height="20" transform="translate(284 88)"/><rect class="d" width="1.758" height="10" rx="0.879" transform="translate(299 97.121) rotate(90)"/></g><g transform="translate(470 280)"><rect class="e" width="1.758" height="10" rx="0.879" transform="translate(293.121 93)"/><rect class="b" width="20" height="20" transform="translate(284 88)"/><rect class="e" width="1.758" height="10" rx="0.879" transform="translate(299 97.121) rotate(90)"/></g></g></svg>