<?xml version="1.0" encoding="utf-8"?>
<!-- Generator: Adobe Illustrator 27.2.0, SVG Export Plug-In . SVG Version: 6.00 Build 0)  -->
<svg version="1.1" id="图层_1" xmlns="http://www.w3.org/2000/svg" xmlns:xlink="http://www.w3.org/1999/xlink" x="0px" y="0px"
	 viewBox="0 0 24 24" style="enable-background:new 0 0 24 24;" xml:space="preserve">
<style type="text/css">
	.st0{fill:none;}
	.st1{fill:#FFFFFF;}
</style>
<rect class="st0" width="24" height="24"/>
<g>
	<g>
		<path class="st1" d="M13.2,19H7.2C6,19,5,17.9,5,16.7V7.3C5,6.1,6,5,7.2,5h5.9c0.6,0,1.1,0.5,1.1,1.1s-0.5,1.1-1.1,1.1H7.2
			c-0.1,0-0.1,0-0.1,0.1v9.5c0,0.1,0,0.1,0.1,0.1h5.9c0.6,0,1.1,0.5,1.1,1.1S13.8,19,13.2,19z"/>
	</g>
	<path class="st1" d="M18.3,11.1h-3.7V9.4c0-0.6-0.7-0.9-1.2-0.6l-3.6,2.6c-0.4,0.2-0.4,0.8,0,1.2l3.6,2.6c0.5,0.4,1.2,0,1.2-0.6
		v-1.7h3.7c0.5,0,0.9-0.5,0.9-0.9S18.7,11.1,18.3,11.1z"/>
</g>
</svg>
