<?xml version="1.0" encoding="utf-8"?>
<!-- Generator: Adobe Illustrator 27.0.0, SVG Export Plug-In . SVG Version: 6.00 Build 0)  -->
<svg version="1.1" id="图层_1" xmlns="http://www.w3.org/2000/svg" xmlns:xlink="http://www.w3.org/1999/xlink" x="0px" y="0px"
	 viewBox="0 0 24 24" style="enable-background:new 0 0 24 24;" xml:space="preserve">
<style type="text/css">
	.st0{fill:none;}
	.st1{fill:#FFFFFF;}
</style>
<rect x="0" class="st0" width="24" height="24"/>
<g>
	<path class="st1" d="M14.8,13.3c0.5,0,1-0.5,1-1c0-0.2-0.1-0.4-0.2-0.6c0-0.1-0.1-0.2-0.2-0.3L10.5,5c-0.4-0.4-1-0.4-1.4,0
		l-4.9,6.4c-0.1,0.1-0.2,0.2-0.2,0.3c-0.1,0.2-0.2,0.4-0.2,0.6c0,0.5,0.5,1,1,1h2V18c0,0.5,0.5,1,1,1h4c0.5,0,1-0.5,1-1v-4.7H14.8z
		 M10.8,17h-2v-4.7c0-0.5-0.5-1-1-1H6.7l3.1-4.2l3.1,4.2h-1.1c-0.5,0-1,0.5-1,1V17z"/>
	<path class="st1" d="M20,11.7l-4.8-6.4c-0.3-0.4-1-0.5-1.4-0.2s-0.5,1-0.2,1.4l3.9,5.1h-0.1c-0.5,0-0.8,0.4-0.8,0.8
		c0,0.5,0.4,0.8,0.8,0.8h1.8c0,0,0.1,0,0.1,0c0.2,0,0.4-0.1,0.5-0.2C20.2,12.8,20.3,12.1,20,11.7z"/>
	<path class="st1" d="M15.8,14.3c-0.6,0-1,0.5-1,1V17c-0.5,0-0.8,0.4-0.8,0.9v0.2c0,0.5,0.4,0.9,0.9,0.9h1c0.5,0,0.9-0.4,0.9-0.9v0
		c0,0,0,0,0-0.1v-2.7C16.8,14.8,16.4,14.3,15.8,14.3z"/>
</g>
</svg>
