<svg xmlns="http://www.w3.org/2000/svg" width="30" height="36" viewBox="0 0 30 36"><defs><style>.a{fill:#999;}.b{fill:none;}</style></defs><g transform="translate(-92 -303)"><rect class="a" width="1" height="1.8" transform="translate(104 304.3)"/><rect class="a" width="1" height="1.8" transform="translate(104 311.5)"/><rect class="a" width="1" height="1.8" transform="translate(104 322.3)"/><rect class="a" width="1" height="1.8" transform="translate(104 318.7)"/><rect class="a" width="1" height="1.8" transform="translate(104 329.5)"/><rect class="a" width="1" height="1.8" transform="translate(104 307.9)"/><rect class="a" width="1" height="1.8" transform="translate(104 315.1)"/><rect class="a" width="1" height="1.8" transform="translate(104 325.9)"/><rect class="a" width="1" height="1.8" transform="translate(115 319.5) rotate(90)"/><rect class="a" width="1" height="1.8" transform="translate(122 319.5) rotate(90)"/><rect class="a" width="1" height="1.8" transform="translate(111.5 319.5) rotate(90)"/><rect class="a" width="1" height="1.8" transform="translate(118.5 319.5) rotate(90)"/><rect class="a" width="1" height="1.8" transform="translate(104 333.1)"/><rect class="a" width="1" height="1.8" transform="translate(104 336.7)"/><rect class="a" width="1" height="1.8" transform="translate(108 319.5) rotate(90)"/><rect class="b" width="30" height="36" transform="translate(92 303)"/></g></svg>