<svg xmlns="http://www.w3.org/2000/svg" width="20" height="20" viewBox="0 0 20 20"><defs><style>.a{fill:none;}.b{fill:#438dec;}</style></defs><g transform="translate(3.818 3.782)"><rect class="a" width="20" height="20" rx="4" transform="translate(-3.818 -3.782)"/><path class="b" d="M12.7,4.177,3.363.065A.764.764,0,0,0,2.356.452l0,.011L.063,5.807a.762.762,0,0,0,.4,1h0L5.779,9.092l-.947,2.369h-3.3V9.933A.764.764,0,0,0,0,9.933v4.584a.764.764,0,0,0,1.528,0V12.989h3.3a1.531,1.531,0,0,0,1.421-.962l.934-2.334L9.8,10.814a.763.763,0,0,0,1-.4L13.09,5.178A.765.765,0,0,0,12.7,4.173M12.99,10.7h0a.765.765,0,0,1-.427-.994l.961-2.4a.765.765,0,0,1,1.42.568l-.961,2.4a.764.764,0,0,1-.993.426" transform="translate(-1.429 -1.422)"/></g></svg>