<svg xmlns="http://www.w3.org/2000/svg" width="20" height="20" viewBox="0 0 20 20"><defs><style>.a{fill:#438dec;}.b,.c{fill:#fff;}.b{stroke:rgba(0,0,0,0);stroke-miterlimit:10;}.d{fill:none;}</style></defs><path class="a" d="M15,17A5,5,0,0,0,15,7c-.115,0-.231.005-.351.015A5.992,5.992,0,0,0,3,9c0,.042,0,.084,0,.126A4,4,0,0,0,4,17Z"/><g transform="translate(7.947 8.801)"><path class="b" d="M3.513,9.182H1.328A1.3,1.3,0,0,1,0,7.919V1.264A1.3,1.3,0,0,1,1.328,0H6.512A1.3,1.3,0,0,1,7.839,1.264V4.856H5.513a2,2,0,0,0-2,2V9.181ZM1.682,5.165a.344.344,0,0,0,0,.688H2.31a.344.344,0,0,0,0-.688Zm0-1.721a.344.344,0,0,0,0,.688H6.158a.344.344,0,0,0,0-.688Zm0-1.722a.344.344,0,0,0,0,.689H6.158a.344.344,0,0,0,0-.689Z" transform="translate(-1.99 -0.802)"/><path class="c" d="M8.3,10.329H10.4L7.328,13.4V11.305a.976.976,0,0,1,.976-.976" transform="translate(-4.829 -5.297)"/></g><rect class="d" width="20" height="20"/></svg>