<?xml version="1.0" encoding="utf-8"?>
<!-- Generator: Adobe Illustrator 28.1.0, SVG Export Plug-In . SVG Version: 6.00 Build 0)  -->
<svg version="1.1" id="图层_1" xmlns="http://www.w3.org/2000/svg" xmlns:xlink="http://www.w3.org/1999/xlink" x="0px" y="0px"
	 viewBox="0 0 20 20" style="enable-background:new 0 0 20 20;" xml:space="preserve">
<style type="text/css">
	.st0{fill:none;}
	.st1{fill:#A4A4A4;}
	.st2{fill:#336ED3;}
	.st3{fill:#FFFFFF;}
</style>
<rect class="st0" width="20" height="20"/>
<g id="cloud4">
	<path class="st1" d="M15,17c2.8,0,5-2.2,5-5s-2.2-5-5-5c-0.1,0-0.2,0-0.4,0C13.8,4.6,11.6,3,9,3C5.7,3,3,5.7,3,9c0,0,0,0.1,0,0.1
		c-1.7,0.4-3,2-3,3.9c0,2.2,1.8,4,4,4H15z"/>
</g>
<circle class="st2" cx="13.5" cy="14.5" r="4.5"/>
<circle class="st3" cx="10.9" cy="14.5" r="0.8"/>
<circle class="st3" cx="13.5" cy="14.5" r="0.8"/>
<circle class="st3" cx="16.1" cy="14.5" r="0.8"/>
</svg>
