<?xml version="1.0" encoding="utf-8"?>
<!-- Generator: Adobe Illustrator 28.1.0, SVG Export Plug-In . SVG Version: 6.00 Build 0)  -->
<svg version="1.1" id="图层_1" xmlns="http://www.w3.org/2000/svg" xmlns:xlink="http://www.w3.org/1999/xlink" x="0px" y="0px"
	 viewBox="0 0 20 20" style="enable-background:new 0 0 20 20;" xml:space="preserve">
<style type="text/css">
	.st0{fill:none;}
	.st1{fill:#FF3739;}
</style>
<rect class="st0" width="20" height="20"/>
<g>
	<g>
		<path class="st1" d="M4.4,5.1C3.5,6.2,3,7.5,3,9c0,0,0,0.1,0,0.1c-1.7,0.4-3,2-3,3.9c0,2.2,1.8,4,4,4h11c0.4,0,0.8-0.1,1.2-0.1
			L4.4,5.1z"/>
		<path class="st1" d="M18.4,15.7c1-0.9,1.6-2.2,1.6-3.7c0-2.8-2.2-5-5-5c-0.1,0-0.2,0-0.4,0C13.8,4.6,11.6,3,9,3
			C8,3,7.1,3.2,6.3,3.6L18.4,15.7z"/>
	</g>
	<g>
		<path class="st1" d="M16,19.2c-0.3,0-0.6-0.1-0.8-0.4l-14-14C0.9,4.6,0.8,4.3,0.8,4s0.1-0.6,0.4-0.8c0.5-0.5,1.2-0.5,1.7,0l14,14
			c0.2,0.2,0.4,0.5,0.4,0.8s-0.1,0.6-0.4,0.8S16.3,19.2,16,19.2z"/>
	</g>
</g>
</svg>
