<?xml version="1.0" encoding="utf-8"?>
<!-- Generator: Adobe Illustrator 28.1.0, SVG Export Plug-In . SVG Version: 6.00 Build 0)  -->
<svg version="1.1" id="图层_1" xmlns="http://www.w3.org/2000/svg" xmlns:xlink="http://www.w3.org/1999/xlink" x="0px" y="0px"
	 viewBox="0 0 20 20" style="enable-background:new 0 0 20 20;" xml:space="preserve">
<style type="text/css">
	.st0{fill:none;}
	.st1{fill:#A4A4A4;}
</style>
<rect class="st0" width="20" height="20"/>
<path class="st1" d="M15,7c-0.1,0-0.2,0-0.4,0C13.8,4.6,11.6,3,9,3C5.7,3,3,5.7,3,9c0,0,0,0.1,0,0.1c-1.7,0.4-3,2-3,3.9
	c0,2.2,1.8,4,4,4h5v-5.8l-1.4,1.4c-0.4,0.4-1,0.4-1.4,0s-0.4-1,0-1.4l3.1-3.1c0.4-0.4,1-0.4,1.4,0l3.1,3.1c0.4,0.4,0.4,1,0,1.4
	c-0.2,0.2-0.5,0.3-0.7,0.3s-0.5-0.1-0.7-0.3L11,11.2V17h4c2.8,0,5-2.2,5-5C20,9.2,17.8,7,15,7z"/>
</svg>
