<svg xmlns="http://www.w3.org/2000/svg" width="80" height="20" viewBox="0 0 80 20"><defs><style>.a{fill:#55616d;}.b{fill:none;}.c{opacity:0.3;}.d{fill:#818c98;}.e{fill:#438dec;}</style></defs><g transform="translate(-864 -1863.001)"><g transform="translate(860 1859.001)"><g transform="translate(0.188 0)"><path class="a" d="M15.266,7.7V6.969A.969.969,0,0,0,14.3,6h-.969a.969.969,0,0,0-.969.969V7.7H8.854a.962.962,0,0,0-.96.969v.969h11.84V8.664a.97.97,0,0,0-.97-.969Z" transform="translate(-0.111 0)"/><path class="a" d="M7.778,11.25v8.477a1.937,1.937,0,0,0,1.937,1.938h7.972a1.937,1.937,0,0,0,1.938-1.937V11.25Zm6.606,8.477H12.99V13.187h1.394ZM9.715,13.187h1.337v6.539H9.715Zm7.972,6.539H16.322V13.187h1.366Z" transform="translate(0 -0.164)"/></g><rect class="b" width="20" height="20" transform="translate(4 4)"/></g><g class="c" transform="translate(920 1859.001)"><g transform="translate(0.188 0)"><path class="a" d="M15.266,7.7V6.969A.969.969,0,0,0,14.3,6h-.969a.969.969,0,0,0-.969.969V7.7H8.854a.962.962,0,0,0-.96.969v.969h11.84V8.664a.97.97,0,0,0-.97-.969Z" transform="translate(-0.111 0)"/><path class="a" d="M7.778,11.25v8.477a1.937,1.937,0,0,0,1.937,1.938h7.972a1.937,1.937,0,0,0,1.938-1.937V11.25Zm6.606,8.477H12.99V13.187h1.394ZM9.715,13.187h1.337v6.539H9.715Zm7.972,6.539H16.322V13.187h1.366Z" transform="translate(0 -0.164)"/></g><rect class="b" width="20" height="20" transform="translate(4 4)"/></g><g transform="translate(880 1859.001)"><g transform="translate(0.188 0)"><path class="d" d="M15.266,7.7V6.969A.969.969,0,0,0,14.3,6h-.969a.969.969,0,0,0-.969.969V7.7H8.854a.962.962,0,0,0-.96.969v.969h11.84V8.664a.97.97,0,0,0-.97-.969Z" transform="translate(-0.111 0)"/><path class="d" d="M7.778,11.25v8.477a1.937,1.937,0,0,0,1.937,1.938h7.972a1.937,1.937,0,0,0,1.938-1.937V11.25Zm6.606,8.477H12.99V13.187h1.394ZM9.715,13.187h1.337v6.539H9.715Zm7.972,6.539H16.322V13.187h1.366Z" transform="translate(0 -0.164)"/></g><rect class="b" width="20" height="20" transform="translate(4 4)"/></g><g transform="translate(900 1859.001)"><g transform="translate(0.188 0)"><path class="e" d="M15.266,7.7V6.969A.969.969,0,0,0,14.3,6h-.969a.969.969,0,0,0-.969.969V7.7H8.854a.962.962,0,0,0-.96.969v.969h11.84V8.664a.97.97,0,0,0-.97-.969Z" transform="translate(-0.111 0)"/><path class="e" d="M7.778,11.25v8.477a1.937,1.937,0,0,0,1.937,1.938h7.972a1.937,1.937,0,0,0,1.938-1.937V11.25Zm6.606,8.477H12.99V13.187h1.394ZM9.715,13.187h1.337v6.539H9.715Zm7.972,6.539H16.322V13.187h1.366Z" transform="translate(0 -0.164)"/></g><rect class="b" width="20" height="20" transform="translate(4 4)"/></g></g></svg>