<svg xmlns="http://www.w3.org/2000/svg" width="20" height="20" viewBox="0 0 20 20"><defs><style>.a{fill:none;}.b{fill:#438dec;}</style></defs><g transform="translate(3.615 3.615)"><rect class="a" width="20" height="20" rx="4" transform="translate(-3.615 -3.615)"/><path class="b" d="M13.6,10.9H2.4A1.4,1.4,0,0,0,1,12.3v2.8a1.4,1.4,0,0,0,1.4,1.4H13.6A1.4,1.4,0,0,0,15,15.1V12.3a1.4,1.4,0,0,0-1.4-1.4m-2.722,3.578H9.322V12.922h1.556Zm2.8,0H12.122V12.922h1.556Z" transform="translate(-1.615 -3.815)"/><path class="b" d="M13.6,1.9H2.4A1.4,1.4,0,0,0,1,3.3V6.1A1.4,1.4,0,0,0,2.4,7.5H13.6A1.4,1.4,0,0,0,15,6.1V3.3a1.4,1.4,0,0,0-1.4-1.4M10.878,5.478H9.322V3.922h1.556Zm2.8,0H12.122V3.922h1.556Z" transform="translate(-1.615 -1.815)"/></g></svg>