<svg xmlns="http://www.w3.org/2000/svg" width="20" height="20" viewBox="0 0 20 20"><defs><style>.a,.d{fill:none;}.b,.c{fill:#fff;}.b,.c,.d{stroke:#fff;stroke-linecap:round;}.b{stroke-width:0.8px;}.d{stroke-linejoin:round;stroke-width:2px;}</style></defs><g transform="translate(-32 -80)"><rect class="a" width="20" height="20" transform="translate(32 80)"/><path class="b" d="M15.235,18.219H6.484A2.987,2.987,0,0,1,3.5,15.235V6.484A2.987,2.987,0,0,1,6.484,3.5H9.268a.6.6,0,0,1,0,1.193H6.484a1.792,1.792,0,0,0-1.79,1.79v8.752a1.792,1.792,0,0,0,1.79,1.79h8.752a1.792,1.792,0,0,0,1.79-1.79V12.451a.6.6,0,1,1,1.193,0v2.785A2.987,2.987,0,0,1,15.235,18.219Z" transform="translate(31.141 79.141)"/><path class="c" d="M15.788,13.316a.46.46,0,0,1-.389-.705,28.107,28.107,0,0,1,6.5-7.184.46.46,0,0,1,.566.725A27.19,27.19,0,0,0,16.178,13.1.46.46,0,0,1,15.788,13.316Z" transform="translate(25.471 78.67)"/><path class="d" d="M1,0H5.406V4.406" transform="translate(43.4 83.297)"/></g></svg>