<?xml version="1.0" encoding="utf-8"?>
<!-- Generator: Adobe Illustrator 21.0.0, SVG Export Plug-In . SVG Version: 6.00 Build 0)  -->
<svg version="1.1" id="图层_1" xmlns="http://www.w3.org/2000/svg" xmlns:xlink="http://www.w3.org/1999/xlink" x="0px" y="0px"
	 viewBox="0 0 16 16" style="enable-background:new 0 0 16 16;" xml:space="preserve">
<style type="text/css">
	.st0{fill:none;}
	.st1{fill:#95A5B9;}
</style>
<rect class="st0" width="16" height="16"/>
<g>
	<path class="st1" d="M13.3,4.5H7.9c-0.1,0-0.2,0-0.3-0.1L6.4,3.1C6.3,3,6.2,3,6.1,3H2.7C2.3,3,2,3.3,2,3.7v8.6
		C2,12.7,2.3,13,2.7,13h10.5c0.4,0,0.7-0.3,0.7-0.7V5.2C14,4.8,13.7,4.5,13.3,4.5z M3.5,4.4h2.2l0.9,1C7,5.8,7.4,5.9,7.9,5.9h4.6v1
		H5.7C5.3,7,5,7.3,5,7.7v3.9H3.5V4.4z M6.5,11.6V8.4h6.1v3.2H6.5z"/>
</g>
</svg>
