<?xml version="1.0" encoding="utf-8"?>
<!-- Generator: Adobe Illustrator 21.0.0, SVG Export Plug-In . SVG Version: 6.00 Build 0)  -->
<svg version="1.1" id="图层_1" xmlns="http://www.w3.org/2000/svg" xmlns:xlink="http://www.w3.org/1999/xlink" x="0px" y="0px"
	 viewBox="0 0 24 24" style="enable-background:new 0 0 24 24;" xml:space="preserve">
<style type="text/css">
	.st0{fill:#FFFFFF;}
	.st1{fill:none;}
</style>
<g>
	<path class="st0" d="M17,13v4H7V7h4V5H8C6.3,5,5,6.3,5,8v8c0,1.7,1.3,3,3,3h8c1.7,0,3-1.3,3-3v-3H17z"/>
	<path class="st0" d="M10,9c-0.5,0-1,0.5-1,1v4c0,0.6,0.5,1,1,1h4c0.6,0,1-0.4,1-1c0-0.5-0.4-1-1-1h-1.7l5.4-5.4
		c0.4-0.4,0.4-1,0-1.3c-0.4-0.4-1-0.4-1.3,0L11,11.6V10C11,9.4,10.6,9,10,9z"/>
</g>
<rect class="st1" width="24" height="24"/>
</svg>
