<svg xmlns="http://www.w3.org/2000/svg" width="80" height="20" viewBox="0 0 80 20"><defs><style>.a{fill:#b70e0e;}.b{fill:none;}.c{opacity:0.3;}.d{fill:#ff6161;}.e{fill:#ff2323;}</style></defs><g transform="translate(-864 -1196)"><g transform="translate(859.619 1192)"><g transform="translate(0.599 -0.029)"><rect class="a" width="11.52" height="4.856" transform="translate(9.019 15.412) rotate(-45)"/><path class="a" d="M7.988,16.559l3.434,3.434L7.961,21.267A.971.971,0,0,1,6.714,20.02Z" transform="translate(0 -0.118)"/><path class="a" d="M19.644,6.3l2.06,2.06a.971.971,0,0,1,0,1.374l-.343.343L17.927,6.641l.344-.344a.97.97,0,0,1,1.373,0" transform="translate(-1.078 0.939)"/></g><rect class="b" width="20" height="20" transform="translate(4.381 4)"/></g><g class="c" transform="translate(919.619 1192)"><g transform="translate(0.599 -0.029)"><rect class="a" width="11.52" height="4.856" transform="translate(9.019 15.412) rotate(-45)"/><path class="a" d="M7.988,16.559l3.434,3.434L7.961,21.267A.971.971,0,0,1,6.714,20.02Z" transform="translate(0 -0.118)"/><path class="a" d="M19.644,6.3l2.06,2.06a.971.971,0,0,1,0,1.374l-.343.343L17.927,6.641l.344-.344a.97.97,0,0,1,1.373,0" transform="translate(-1.078 0.939)"/></g><rect class="b" width="20" height="20" transform="translate(4.381 4)"/></g><g transform="translate(879.619 1192)"><g transform="translate(0.599 -0.029)"><rect class="d" width="11.52" height="4.856" transform="translate(9.019 15.412) rotate(-45)"/><path class="d" d="M7.988,16.559l3.434,3.434L7.961,21.267A.971.971,0,0,1,6.714,20.02Z" transform="translate(0 -0.118)"/><path class="d" d="M19.644,6.3l2.06,2.06a.971.971,0,0,1,0,1.374l-.343.343L17.927,6.641l.344-.344a.97.97,0,0,1,1.373,0" transform="translate(-1.078 0.939)"/></g><rect class="b" width="20" height="20" transform="translate(4.381 4)"/></g><g transform="translate(899.619 1192)"><g transform="translate(0.599 -0.029)"><rect class="e" width="11.52" height="4.856" transform="translate(9.019 15.412) rotate(-45)"/><path class="e" d="M7.988,16.559l3.434,3.434L7.961,21.267A.971.971,0,0,1,6.714,20.02Z" transform="translate(0 -0.118)"/><path class="e" d="M19.644,6.3l2.06,2.06a.971.971,0,0,1,0,1.374l-.343.343L17.927,6.641l.344-.344a.97.97,0,0,1,1.373,0" transform="translate(-1.078 0.939)"/></g><rect class="b" width="20" height="20" transform="translate(4.381 4)"/></g></g></svg>