<svg xmlns="http://www.w3.org/2000/svg" width="80" height="20" viewBox="0 0 80 20"><defs><style>.a{fill:#55616d;}.a,.d,.e{stroke:rgba(0,0,0,0);stroke-miterlimit:10;}.b{fill:none;}.c{opacity:0.3;}.d{fill:#818c98;}.e{fill:#438dec;}</style></defs><g transform="translate(-864 -1163.999)"><g transform="translate(864 1163.999)"><path class="a" d="M18452.17,10182.814c-.338,0-1.506-1.14-1.705-1.349a1.59,1.59,0,0,1-.465-.895.785.785,0,0,1,.266-.588c.354-.34,2.654-2.794,4.406-4.787a5.5,5.5,0,1,1,10.213-1.771,4.47,4.47,0,0,1-.746,1.965,5.5,5.5,0,0,1-6.617,2.252.512.512,0,0,1-.176.079l-.029,0a2.807,2.807,0,0,1-.551-.122l-.025-.007-.018,0a2.616,2.616,0,0,0-.5-.1.218.218,0,0,0-.045,0,1.476,1.476,0,0,0-.6.589,1.277,1.277,0,0,0,.205.706.994.994,0,0,1,.168.5,1.722,1.722,0,0,1-1.02.927l-.047,0a1.255,1.255,0,0,1-.482-.156l-.008,0a1.23,1.23,0,0,0-.5-.161.4.4,0,0,0-.293.124l-.307.375a1.021,1.021,0,0,0,.018.516v.009c.055.314.115.67-.109.89-.09.087-.164.164-.258.264-.15.158-.338.355-.715.723A.087.087,0,0,1,18452.17,10182.814Zm8.795-13.318a1.5,1.5,0,1,0,1.5,1.5A1.5,1.5,0,0,0,18460.965,10169.5Z" transform="translate(-18447.463 -10164.498)"/><rect class="b" width="20" height="20"/></g><g class="c" transform="translate(924 1163.999)"><path class="a" d="M18452.17,10182.814c-.338,0-1.506-1.14-1.705-1.349a1.59,1.59,0,0,1-.465-.895.785.785,0,0,1,.266-.588c.354-.34,2.654-2.794,4.406-4.787a5.5,5.5,0,1,1,10.213-1.771,4.47,4.47,0,0,1-.746,1.965,5.5,5.5,0,0,1-6.617,2.252.512.512,0,0,1-.176.079l-.029,0a2.807,2.807,0,0,1-.551-.122l-.025-.007-.018,0a2.616,2.616,0,0,0-.5-.1.218.218,0,0,0-.045,0,1.476,1.476,0,0,0-.6.589,1.277,1.277,0,0,0,.205.706.994.994,0,0,1,.168.5,1.722,1.722,0,0,1-1.02.927l-.047,0a1.255,1.255,0,0,1-.482-.156l-.008,0a1.23,1.23,0,0,0-.5-.161.4.4,0,0,0-.293.124l-.307.375a1.021,1.021,0,0,0,.018.516v.009c.055.314.115.67-.109.89-.09.087-.164.164-.258.264-.15.158-.338.355-.715.723A.087.087,0,0,1,18452.17,10182.814Zm8.795-13.318a1.5,1.5,0,1,0,1.5,1.5A1.5,1.5,0,0,0,18460.965,10169.5Z" transform="translate(-18447.463 -10164.498)"/><rect class="b" width="20" height="20"/></g><g transform="translate(884 1163.999)"><path class="d" d="M18452.17,10182.814c-.338,0-1.506-1.14-1.705-1.349a1.59,1.59,0,0,1-.465-.895.785.785,0,0,1,.266-.588c.354-.34,2.654-2.794,4.406-4.787a5.5,5.5,0,1,1,10.213-1.771,4.47,4.47,0,0,1-.746,1.965,5.5,5.5,0,0,1-6.617,2.252.512.512,0,0,1-.176.079l-.029,0a2.807,2.807,0,0,1-.551-.122l-.025-.007-.018,0a2.616,2.616,0,0,0-.5-.1.218.218,0,0,0-.045,0,1.476,1.476,0,0,0-.6.589,1.277,1.277,0,0,0,.205.706.994.994,0,0,1,.168.5,1.722,1.722,0,0,1-1.02.927l-.047,0a1.255,1.255,0,0,1-.482-.156l-.008,0a1.23,1.23,0,0,0-.5-.161.4.4,0,0,0-.293.124l-.307.375a1.021,1.021,0,0,0,.018.516v.009c.055.314.115.67-.109.89-.09.087-.164.164-.258.264-.15.158-.338.355-.715.723A.087.087,0,0,1,18452.17,10182.814Zm8.795-13.318a1.5,1.5,0,1,0,1.5,1.5A1.5,1.5,0,0,0,18460.965,10169.5Z" transform="translate(-18447.463 -10164.498)"/><rect class="b" width="20" height="20"/></g><g transform="translate(904 1163.999)"><path class="e" d="M18452.17,10182.814c-.338,0-1.506-1.14-1.705-1.349a1.59,1.59,0,0,1-.465-.895.785.785,0,0,1,.266-.588c.354-.34,2.654-2.794,4.406-4.787a5.5,5.5,0,1,1,10.213-1.771,4.47,4.47,0,0,1-.746,1.965,5.5,5.5,0,0,1-6.617,2.252.512.512,0,0,1-.176.079l-.029,0a2.807,2.807,0,0,1-.551-.122l-.025-.007-.018,0a2.616,2.616,0,0,0-.5-.1.218.218,0,0,0-.045,0,1.476,1.476,0,0,0-.6.589,1.277,1.277,0,0,0,.205.706.994.994,0,0,1,.168.5,1.722,1.722,0,0,1-1.02.927l-.047,0a1.255,1.255,0,0,1-.482-.156l-.008,0a1.23,1.23,0,0,0-.5-.161.4.4,0,0,0-.293.124l-.307.375a1.021,1.021,0,0,0,.018.516v.009c.055.314.115.67-.109.89-.09.087-.164.164-.258.264-.15.158-.338.355-.715.723A.087.087,0,0,1,18452.17,10182.814Zm8.795-13.318a1.5,1.5,0,1,0,1.5,1.5A1.5,1.5,0,0,0,18460.965,10169.5Z" transform="translate(-18447.463 -10164.498)"/><rect class="b" width="20" height="20"/></g></g></svg>