<svg xmlns="http://www.w3.org/2000/svg" width="80" height="20" viewBox="0 0 80 20"><defs><style>.a,.b,.c{fill:#55616d;stroke:#55616d;}.a,.f,.i{stroke-width:0.2px;}.b,.g,.j{stroke-width:0.4px;}.c,.h,.k{stroke-width:0.6px;}.d{fill:none;}.e{opacity:0.3;}.f,.g,.h{fill:#818c98;stroke:#818c98;}.i,.j,.k{fill:#438dec;stroke:#438dec;}</style></defs><g transform="translate(-864 -1003.999)"><g transform="translate(864 1003.999)"><path class="a" d="M17.016,10.351a.916.916,0,0,1,.222,0,.872.872,0,0,1-.222,1.73H11.581a.908.908,0,0,1-.221,0,.872.872,0,0,1,.221-1.73Z" transform="translate(-9.1 -1.15)"/><path class="b" d="M8.919,8.693v0a.274.274,0,0,1,.276-.271.267.267,0,0,1,.181.069l3.055,2.735a.2.2,0,0,1,.022.022.273.273,0,0,1-.022.386L9.375,14.366a.274.274,0,0,1-.456-.2V8.693" transform="translate(-1.815 -1.356)"/><path class="c" d="M3.773,7.98H3.355a.424.424,0,0,1-.424-.424V5.161A2.214,2.214,0,0,1,5.146,2.946h8.22a1.7,1.7,0,0,1,1.7,1.695v11.5l.011.416a1.7,1.7,0,0,1-1.695,1.7H5.155a2.213,2.213,0,0,1-2.213-2.213V13.9a.424.424,0,0,1,.424-.424h.418a.424.424,0,0,1,.424.424v2.134a.95.95,0,0,0,.95.95h8.123l-2.52-1.372a1.2,1.2,0,0,1-.626-1.053V6.8a1.2,1.2,0,0,1,.574-1.024L13.27,4.212H5.147a.95.95,0,0,0-.95.95V7.556a.424.424,0,0,1-.424.424" transform="translate(1.494 -0.646)"/><rect class="d" width="20" height="20"/></g><g class="e" transform="translate(924 1003.999)"><path class="a" d="M17.016,10.351a.916.916,0,0,1,.222,0,.872.872,0,0,1-.222,1.73H11.581a.908.908,0,0,1-.221,0,.872.872,0,0,1,.221-1.73Z" transform="translate(-9.1 -1.15)"/><path class="b" d="M8.919,8.693v0a.274.274,0,0,1,.276-.271.267.267,0,0,1,.181.069l3.055,2.735a.2.2,0,0,1,.022.022.273.273,0,0,1-.022.386L9.375,14.366a.274.274,0,0,1-.456-.2V8.693" transform="translate(-1.815 -1.356)"/><path class="c" d="M3.773,7.98H3.355a.424.424,0,0,1-.424-.424V5.161A2.214,2.214,0,0,1,5.146,2.946h8.22a1.7,1.7,0,0,1,1.7,1.695v11.5l.011.416a1.7,1.7,0,0,1-1.695,1.7H5.155a2.213,2.213,0,0,1-2.213-2.213V13.9a.424.424,0,0,1,.424-.424h.418a.424.424,0,0,1,.424.424v2.134a.95.95,0,0,0,.95.95h8.123l-2.52-1.372a1.2,1.2,0,0,1-.626-1.053V6.8a1.2,1.2,0,0,1,.574-1.024L13.27,4.212H5.147a.95.95,0,0,0-.95.95V7.556a.424.424,0,0,1-.424.424" transform="translate(1.494 -0.646)"/><rect class="d" width="20" height="20"/></g><g transform="translate(884 1003.999)"><path class="f" d="M17.016,10.351a.916.916,0,0,1,.222,0,.872.872,0,0,1-.222,1.73H11.581a.908.908,0,0,1-.221,0,.872.872,0,0,1,.221-1.73Z" transform="translate(-9.1 -1.15)"/><path class="g" d="M8.919,8.693v0a.274.274,0,0,1,.276-.271.267.267,0,0,1,.181.069l3.055,2.735a.2.2,0,0,1,.022.022.273.273,0,0,1-.022.386L9.375,14.366a.274.274,0,0,1-.456-.2V8.693" transform="translate(-1.815 -1.356)"/><path class="h" d="M3.773,7.98H3.355a.424.424,0,0,1-.424-.424V5.161A2.214,2.214,0,0,1,5.146,2.946h8.22a1.7,1.7,0,0,1,1.7,1.695v11.5l.011.416a1.7,1.7,0,0,1-1.695,1.7H5.155a2.213,2.213,0,0,1-2.213-2.213V13.9a.424.424,0,0,1,.424-.424h.418a.424.424,0,0,1,.424.424v2.134a.95.95,0,0,0,.95.95h8.123l-2.52-1.372a1.2,1.2,0,0,1-.626-1.053V6.8a1.2,1.2,0,0,1,.574-1.024L13.27,4.212H5.147a.95.95,0,0,0-.95.95V7.556a.424.424,0,0,1-.424.424" transform="translate(1.494 -0.646)"/><rect class="d" width="20" height="20"/></g><g transform="translate(904 1003.999)"><path class="i" d="M17.016,10.351a.916.916,0,0,1,.222,0,.872.872,0,0,1-.222,1.73H11.581a.908.908,0,0,1-.221,0,.872.872,0,0,1,.221-1.73Z" transform="translate(-9.1 -1.15)"/><path class="j" d="M8.919,8.693v0a.274.274,0,0,1,.276-.271.267.267,0,0,1,.181.069l3.055,2.735a.2.2,0,0,1,.022.022.273.273,0,0,1-.022.386L9.375,14.366a.274.274,0,0,1-.456-.2V8.693" transform="translate(-1.815 -1.356)"/><path class="k" d="M3.773,7.98H3.355a.424.424,0,0,1-.424-.424V5.161A2.214,2.214,0,0,1,5.146,2.946h8.22a1.7,1.7,0,0,1,1.7,1.695v11.5l.011.416a1.7,1.7,0,0,1-1.695,1.7H5.155a2.213,2.213,0,0,1-2.213-2.213V13.9a.424.424,0,0,1,.424-.424h.418a.424.424,0,0,1,.424.424v2.134a.95.95,0,0,0,.95.95h8.123l-2.52-1.372a1.2,1.2,0,0,1-.626-1.053V6.8a1.2,1.2,0,0,1,.574-1.024L13.27,4.212H5.147a.95.95,0,0,0-.95.95V7.556a.424.424,0,0,1-.424.424" transform="translate(1.494 -0.646)"/><rect class="d" width="20" height="20"/></g></g></svg>