<svg xmlns="http://www.w3.org/2000/svg" width="80.003" height="20" viewBox="0 0 80.003 20"><defs><style>.a,.b,.c{fill:#55616d;stroke:#55616d;}.a,.f,.i{stroke-width:0.2px;}.b,.g,.j{stroke-width:0.4px;}.c,.h,.k{stroke-width:0.6px;}.d{fill:none;}.e{opacity:0.3;}.f,.g,.h{fill:#818c98;stroke:#818c98;}.i,.j,.k{fill:#438dec;stroke:#438dec;}</style></defs><g transform="translate(-864 -1035.999)"><g transform="translate(864.445 1036.444)"><path class="a" d="M1.927,10.353a.819.819,0,1,0-.221,1.623.792.792,0,0,0,.221,0h5.1a.819.819,0,1,0,.221-1.623.792.792,0,0,0-.221,0Z" transform="translate(9.559 -1.546)"/><path class="b" d="M6.722,8.693v5.482a.274.274,0,0,0,.457.2l3.061-2.741a.274.274,0,0,0,.02-.387l-.02-.02L7.179,8.489A.269.269,0,0,0,7,8.419a.274.274,0,0,0-.276.272v0" transform="translate(9 -1.815)"/><path class="c" d="M5.3,16.543a1.6,1.6,0,0,1-.669-1.3l0-11.778A1.6,1.6,0,0,1,5.7,1.962l-.04.007L9.29.548a.679.679,0,0,1,.926.632v.682H13.98A2.087,2.087,0,0,1,16.067,3.95v2.4a.4.4,0,0,1-.4.4h-.4a.4.4,0,0,1-.4-.4h0V3.95a.9.9,0,0,0-.9-.9H10.216V16.033H13.98a.894.894,0,0,0,.9-.893h0V13.121a.4.4,0,0,1,.4-.4h.4a.4.4,0,0,1,.4.4v2.017a2.088,2.088,0,0,1-2.088,2.088H10.222v.9a.678.678,0,0,1-1.007.593Z" transform="translate(-1.81 -0.035)"/><rect class="d" width="20" height="20" transform="translate(-0.445 -0.445)"/></g><g class="e" transform="translate(924.445 1036.444)"><path class="a" d="M1.927,10.353a.819.819,0,1,0-.221,1.623.792.792,0,0,0,.221,0h5.1a.819.819,0,1,0,.221-1.623.792.792,0,0,0-.221,0Z" transform="translate(9.559 -1.546)"/><path class="b" d="M6.722,8.693v5.482a.274.274,0,0,0,.457.2l3.061-2.741a.274.274,0,0,0,.02-.387l-.02-.02L7.179,8.489A.269.269,0,0,0,7,8.419a.274.274,0,0,0-.276.272v0" transform="translate(9 -1.815)"/><path class="c" d="M5.3,16.543a1.6,1.6,0,0,1-.669-1.3l0-11.778A1.6,1.6,0,0,1,5.7,1.962l-.04.007L9.29.548a.679.679,0,0,1,.926.632v.682H13.98A2.087,2.087,0,0,1,16.067,3.95v2.4a.4.4,0,0,1-.4.4h-.4a.4.4,0,0,1-.4-.4h0V3.95a.9.9,0,0,0-.9-.9H10.216V16.033H13.98a.894.894,0,0,0,.9-.893h0V13.121a.4.4,0,0,1,.4-.4h.4a.4.4,0,0,1,.4.4v2.017a2.088,2.088,0,0,1-2.088,2.088H10.222v.9a.678.678,0,0,1-1.007.593Z" transform="translate(-1.81 -0.035)"/><rect class="d" width="20" height="20" transform="translate(-0.445 -0.445)"/></g><g transform="translate(884.445 1036.444)"><path class="f" d="M1.927,10.353a.819.819,0,1,0-.221,1.623.792.792,0,0,0,.221,0h5.1a.819.819,0,1,0,.221-1.623.792.792,0,0,0-.221,0Z" transform="translate(9.559 -1.546)"/><path class="g" d="M6.722,8.693v5.482a.274.274,0,0,0,.457.2l3.061-2.741a.274.274,0,0,0,.02-.387l-.02-.02L7.179,8.489A.269.269,0,0,0,7,8.419a.274.274,0,0,0-.276.272v0" transform="translate(9 -1.815)"/><path class="h" d="M5.3,16.543a1.6,1.6,0,0,1-.669-1.3l0-11.778A1.6,1.6,0,0,1,5.7,1.962l-.04.007L9.29.548a.679.679,0,0,1,.926.632v.682H13.98A2.087,2.087,0,0,1,16.067,3.95v2.4a.4.4,0,0,1-.4.4h-.4a.4.4,0,0,1-.4-.4h0V3.95a.9.9,0,0,0-.9-.9H10.216V16.033H13.98a.894.894,0,0,0,.9-.893h0V13.121a.4.4,0,0,1,.4-.4h.4a.4.4,0,0,1,.4.4v2.017a2.088,2.088,0,0,1-2.088,2.088H10.222v.9a.678.678,0,0,1-1.007.593Z" transform="translate(-1.81 -0.035)"/><rect class="d" width="20" height="20" transform="translate(-0.445 -0.445)"/></g><g transform="translate(904.445 1036.444)"><path class="i" d="M1.927,10.353a.819.819,0,1,0-.221,1.623.792.792,0,0,0,.221,0h5.1a.819.819,0,1,0,.221-1.623.792.792,0,0,0-.221,0Z" transform="translate(9.559 -1.546)"/><path class="j" d="M6.722,8.693v5.482a.274.274,0,0,0,.457.2l3.061-2.741a.274.274,0,0,0,.02-.387l-.02-.02L7.179,8.489A.269.269,0,0,0,7,8.419a.274.274,0,0,0-.276.272v0" transform="translate(9 -1.815)"/><path class="k" d="M5.3,16.543a1.6,1.6,0,0,1-.669-1.3l0-11.778A1.6,1.6,0,0,1,5.7,1.962l-.04.007L9.29.548a.679.679,0,0,1,.926.632v.682H13.98A2.087,2.087,0,0,1,16.067,3.95v2.4a.4.4,0,0,1-.4.4h-.4a.4.4,0,0,1-.4-.4h0V3.95a.9.9,0,0,0-.9-.9H10.216V16.033H13.98a.894.894,0,0,0,.9-.893h0V13.121a.4.4,0,0,1,.4-.4h.4a.4.4,0,0,1,.4.4v2.017a2.088,2.088,0,0,1-2.088,2.088H10.222v.9a.678.678,0,0,1-1.007.593Z" transform="translate(-1.81 -0.035)"/><rect class="d" width="20" height="20" transform="translate(-0.445 -0.445)"/></g></g></svg>