<svg xmlns="http://www.w3.org/2000/svg" width="80" height="20" viewBox="0 0 80 20"><defs><style>.a{fill:#55616d;}.b{fill:none;}.c{opacity:0.3;}.d{fill:#818c98;}.e{fill:#438dec;}</style></defs><g transform="translate(-864 -1131.999)"><g transform="translate(198 -309.001)"><path class="a" d="M19,10a1.075,1.075,0,0,0,1-1V5a1,1,0,0,0-1-1H15a.945.945,0,0,0-1,1,1,1,0,0,0,1,1h1.7l-4.4,4.4a.919.919,0,0,0,1.3,1.3L18,7.4V9a.945.945,0,0,0,1,1" transform="translate(664 1439)"/><path class="a" d="M18,13v3a1,1,0,0,1-1,1H6a1,1,0,0,1-1-1V12a1,1,0,0,1,1-1H8.5a1,1,0,0,0,0-2H6a3,3,0,0,0-3,3v4a3,3,0,0,0,3,3H17a3,3,0,0,0,3-3V13a1,1,0,0,0-2,0" transform="translate(664 1439)"/><path class="a" d="M7.9,15.2H7.1a.5.5,0,0,1-.5-.5V13.3a.5.5,0,0,1,.5-.5h.8a.5.5,0,0,1,.5.5v1.4a.5.5,0,0,1-.5.5" transform="translate(664 1439)"/><path class="a" d="M11.363,14.7h-.726a.337.337,0,0,1-.337-.337v-.726a.337.337,0,0,1,.337-.337h.726a.337.337,0,0,1,.337.337v.726a.337.337,0,0,1-.337.337" transform="translate(664 1439)"/><path class="a" d="M13.863,14.7h-.726a.337.337,0,0,1-.337-.337v-.726a.337.337,0,0,1,.337-.337h.726a.337.337,0,0,1,.337.337v.726a.337.337,0,0,1-.337.337" transform="translate(664 1439)"/><path class="a" d="M16.363,14.7h-.726a.337.337,0,0,1-.337-.337v-.726a.337.337,0,0,1,.337-.337h.726a.337.337,0,0,1,.337.337v.726a.337.337,0,0,1-.337.337" transform="translate(664 1439)"/><path class="a" d="M18,13v3a1,1,0,0,1-1,1H6a1,1,0,0,1-1-1V12a1,1,0,0,1,1-1H9.5a1,1,0,0,0,0-2H6a3,3,0,0,0-3,3v4a3,3,0,0,0,3,3H17a3,3,0,0,0,3-3V13a1,1,0,0,0-2,0" transform="translate(664 1439)"/><path class="a" d="M7.9,15.2H7.1a.5.5,0,0,1-.5-.5V13.3a.5.5,0,0,1,.5-.5h.8a.5.5,0,0,1,.5.5v1.4a.5.5,0,0,1-.5.5" transform="translate(664 1439)"/><path class="a" d="M11.363,14.7h-.726a.337.337,0,0,1-.337-.337v-.726a.337.337,0,0,1,.337-.337h.726a.337.337,0,0,1,.337.337v.726a.337.337,0,0,1-.337.337" transform="translate(664 1439)"/><path class="a" d="M13.863,14.7h-.726a.337.337,0,0,1-.337-.337v-.726a.337.337,0,0,1,.337-.337h.726a.337.337,0,0,1,.337.337v.726a.337.337,0,0,1-.337.337" transform="translate(664 1439)"/><path class="a" d="M16.363,14.7h-.726a.337.337,0,0,1-.337-.337v-.726a.337.337,0,0,1,.337-.337h.726a.337.337,0,0,1,.337.337v.726a.337.337,0,0,1-.337.337" transform="translate(664 1439)"/><rect class="b" width="20" height="20" transform="translate(666 1441)"/></g><g class="c" transform="translate(258 -309.001)"><path class="a" d="M19,10a1.075,1.075,0,0,0,1-1V5a1,1,0,0,0-1-1H15a.945.945,0,0,0-1,1,1,1,0,0,0,1,1h1.7l-4.4,4.4a.919.919,0,0,0,1.3,1.3L18,7.4V9a.945.945,0,0,0,1,1" transform="translate(664 1439)"/><path class="a" d="M18,13v3a1,1,0,0,1-1,1H6a1,1,0,0,1-1-1V12a1,1,0,0,1,1-1H8.5a1,1,0,0,0,0-2H6a3,3,0,0,0-3,3v4a3,3,0,0,0,3,3H17a3,3,0,0,0,3-3V13a1,1,0,0,0-2,0" transform="translate(664 1439)"/><path class="a" d="M7.9,15.2H7.1a.5.5,0,0,1-.5-.5V13.3a.5.5,0,0,1,.5-.5h.8a.5.5,0,0,1,.5.5v1.4a.5.5,0,0,1-.5.5" transform="translate(664 1439)"/><path class="a" d="M11.363,14.7h-.726a.337.337,0,0,1-.337-.337v-.726a.337.337,0,0,1,.337-.337h.726a.337.337,0,0,1,.337.337v.726a.337.337,0,0,1-.337.337" transform="translate(664 1439)"/><path class="a" d="M13.863,14.7h-.726a.337.337,0,0,1-.337-.337v-.726a.337.337,0,0,1,.337-.337h.726a.337.337,0,0,1,.337.337v.726a.337.337,0,0,1-.337.337" transform="translate(664 1439)"/><path class="a" d="M16.363,14.7h-.726a.337.337,0,0,1-.337-.337v-.726a.337.337,0,0,1,.337-.337h.726a.337.337,0,0,1,.337.337v.726a.337.337,0,0,1-.337.337" transform="translate(664 1439)"/><path class="a" d="M18,13v3a1,1,0,0,1-1,1H6a1,1,0,0,1-1-1V12a1,1,0,0,1,1-1H9.5a1,1,0,0,0,0-2H6a3,3,0,0,0-3,3v4a3,3,0,0,0,3,3H17a3,3,0,0,0,3-3V13a1,1,0,0,0-2,0" transform="translate(664 1439)"/><path class="a" d="M7.9,15.2H7.1a.5.5,0,0,1-.5-.5V13.3a.5.5,0,0,1,.5-.5h.8a.5.5,0,0,1,.5.5v1.4a.5.5,0,0,1-.5.5" transform="translate(664 1439)"/><path class="a" d="M11.363,14.7h-.726a.337.337,0,0,1-.337-.337v-.726a.337.337,0,0,1,.337-.337h.726a.337.337,0,0,1,.337.337v.726a.337.337,0,0,1-.337.337" transform="translate(664 1439)"/><path class="a" d="M13.863,14.7h-.726a.337.337,0,0,1-.337-.337v-.726a.337.337,0,0,1,.337-.337h.726a.337.337,0,0,1,.337.337v.726a.337.337,0,0,1-.337.337" transform="translate(664 1439)"/><path class="a" d="M16.363,14.7h-.726a.337.337,0,0,1-.337-.337v-.726a.337.337,0,0,1,.337-.337h.726a.337.337,0,0,1,.337.337v.726a.337.337,0,0,1-.337.337" transform="translate(664 1439)"/><rect class="b" width="20" height="20" transform="translate(666 1441)"/></g><g transform="translate(218 -309.001)"><path class="d" d="M19,10a1.075,1.075,0,0,0,1-1V5a1,1,0,0,0-1-1H15a.945.945,0,0,0-1,1,1,1,0,0,0,1,1h1.7l-4.4,4.4a.919.919,0,0,0,1.3,1.3L18,7.4V9a.945.945,0,0,0,1,1" transform="translate(664 1439)"/><path class="d" d="M18,13v3a1,1,0,0,1-1,1H6a1,1,0,0,1-1-1V12a1,1,0,0,1,1-1H8.5a1,1,0,0,0,0-2H6a3,3,0,0,0-3,3v4a3,3,0,0,0,3,3H17a3,3,0,0,0,3-3V13a1,1,0,0,0-2,0" transform="translate(664 1439)"/><path class="d" d="M7.9,15.2H7.1a.5.5,0,0,1-.5-.5V13.3a.5.5,0,0,1,.5-.5h.8a.5.5,0,0,1,.5.5v1.4a.5.5,0,0,1-.5.5" transform="translate(664 1439)"/><path class="d" d="M11.363,14.7h-.726a.337.337,0,0,1-.337-.337v-.726a.337.337,0,0,1,.337-.337h.726a.337.337,0,0,1,.337.337v.726a.337.337,0,0,1-.337.337" transform="translate(664 1439)"/><path class="d" d="M13.863,14.7h-.726a.337.337,0,0,1-.337-.337v-.726a.337.337,0,0,1,.337-.337h.726a.337.337,0,0,1,.337.337v.726a.337.337,0,0,1-.337.337" transform="translate(664 1439)"/><path class="d" d="M16.363,14.7h-.726a.337.337,0,0,1-.337-.337v-.726a.337.337,0,0,1,.337-.337h.726a.337.337,0,0,1,.337.337v.726a.337.337,0,0,1-.337.337" transform="translate(664 1439)"/><path class="d" d="M18,13v3a1,1,0,0,1-1,1H6a1,1,0,0,1-1-1V12a1,1,0,0,1,1-1H9.5a1,1,0,0,0,0-2H6a3,3,0,0,0-3,3v4a3,3,0,0,0,3,3H17a3,3,0,0,0,3-3V13a1,1,0,0,0-2,0" transform="translate(664 1439)"/><path class="d" d="M7.9,15.2H7.1a.5.5,0,0,1-.5-.5V13.3a.5.5,0,0,1,.5-.5h.8a.5.5,0,0,1,.5.5v1.4a.5.5,0,0,1-.5.5" transform="translate(664 1439)"/><path class="d" d="M11.363,14.7h-.726a.337.337,0,0,1-.337-.337v-.726a.337.337,0,0,1,.337-.337h.726a.337.337,0,0,1,.337.337v.726a.337.337,0,0,1-.337.337" transform="translate(664 1439)"/><path class="d" d="M13.863,14.7h-.726a.337.337,0,0,1-.337-.337v-.726a.337.337,0,0,1,.337-.337h.726a.337.337,0,0,1,.337.337v.726a.337.337,0,0,1-.337.337" transform="translate(664 1439)"/><path class="d" d="M16.363,14.7h-.726a.337.337,0,0,1-.337-.337v-.726a.337.337,0,0,1,.337-.337h.726a.337.337,0,0,1,.337.337v.726a.337.337,0,0,1-.337.337" transform="translate(664 1439)"/><rect class="b" width="20" height="20" transform="translate(666 1441)"/></g><g transform="translate(238 -309.001)"><path class="e" d="M19,10a1.075,1.075,0,0,0,1-1V5a1,1,0,0,0-1-1H15a.945.945,0,0,0-1,1,1,1,0,0,0,1,1h1.7l-4.4,4.4a.919.919,0,0,0,1.3,1.3L18,7.4V9a.945.945,0,0,0,1,1" transform="translate(664 1439)"/><path class="e" d="M18,13v3a1,1,0,0,1-1,1H6a1,1,0,0,1-1-1V12a1,1,0,0,1,1-1H8.5a1,1,0,0,0,0-2H6a3,3,0,0,0-3,3v4a3,3,0,0,0,3,3H17a3,3,0,0,0,3-3V13a1,1,0,0,0-2,0" transform="translate(664 1439)"/><path class="e" d="M7.9,15.2H7.1a.5.5,0,0,1-.5-.5V13.3a.5.5,0,0,1,.5-.5h.8a.5.5,0,0,1,.5.5v1.4a.5.5,0,0,1-.5.5" transform="translate(664 1439)"/><path class="e" d="M11.363,14.7h-.726a.337.337,0,0,1-.337-.337v-.726a.337.337,0,0,1,.337-.337h.726a.337.337,0,0,1,.337.337v.726a.337.337,0,0,1-.337.337" transform="translate(664 1439)"/><path class="e" d="M13.863,14.7h-.726a.337.337,0,0,1-.337-.337v-.726a.337.337,0,0,1,.337-.337h.726a.337.337,0,0,1,.337.337v.726a.337.337,0,0,1-.337.337" transform="translate(664 1439)"/><path class="e" d="M16.363,14.7h-.726a.337.337,0,0,1-.337-.337v-.726a.337.337,0,0,1,.337-.337h.726a.337.337,0,0,1,.337.337v.726a.337.337,0,0,1-.337.337" transform="translate(664 1439)"/><path class="e" d="M18,13v3a1,1,0,0,1-1,1H6a1,1,0,0,1-1-1V12a1,1,0,0,1,1-1H9.5a1,1,0,0,0,0-2H6a3,3,0,0,0-3,3v4a3,3,0,0,0,3,3H17a3,3,0,0,0,3-3V13a1,1,0,0,0-2,0" transform="translate(664 1439)"/><path class="e" d="M7.9,15.2H7.1a.5.5,0,0,1-.5-.5V13.3a.5.5,0,0,1,.5-.5h.8a.5.5,0,0,1,.5.5v1.4a.5.5,0,0,1-.5.5" transform="translate(664 1439)"/><path class="e" d="M11.363,14.7h-.726a.337.337,0,0,1-.337-.337v-.726a.337.337,0,0,1,.337-.337h.726a.337.337,0,0,1,.337.337v.726a.337.337,0,0,1-.337.337" transform="translate(664 1439)"/><path class="e" d="M13.863,14.7h-.726a.337.337,0,0,1-.337-.337v-.726a.337.337,0,0,1,.337-.337h.726a.337.337,0,0,1,.337.337v.726a.337.337,0,0,1-.337.337" transform="translate(664 1439)"/><path class="e" d="M16.363,14.7h-.726a.337.337,0,0,1-.337-.337v-.726a.337.337,0,0,1,.337-.337h.726a.337.337,0,0,1,.337.337v.726a.337.337,0,0,1-.337.337" transform="translate(664 1439)"/><rect class="b" width="20" height="20" transform="translate(666 1441)"/></g></g></svg>