<?xml version="1.0" encoding="utf-8"?>
<!-- Generator: Adobe Illustrator 28.1.0, SVG Export Plug-In . SVG Version: 6.00 Build 0)  -->
<svg version="1.1" id="图层_1" xmlns="http://www.w3.org/2000/svg" xmlns:xlink="http://www.w3.org/1999/xlink" x="0px" y="0px"
	 viewBox="0 0 24 24" style="enable-background:new 0 0 24 24;" xml:space="preserve">
<style type="text/css">
	.st0{fill:#FFFFFF;}
	.st1{fill:none;}
</style>
<path class="st0" d="M18,13v3c0,0.6-0.4,1-1,1H6c-0.6,0-1-0.4-1-1v-4c0-0.6,0.4-1,1-1h2.5c0.6,0,1-0.4,1-1v0c0-0.6-0.4-1-1-1H6
	c-1.7,0-3,1.3-3,3v4c0,1.7,1.3,3,3,3h11c1.7,0,3-1.3,3-3v-3c0-0.6-0.4-1-1-1h0C18.4,12,18,12.4,18,13z"/>
<path class="st0" d="M12,6c-0.5,0-1,0.5-1,1v4c0,0.6,0.5,1,1,1h4c0.6,0,1-0.4,1-1c0-0.5-0.4-1-1-1h-1.7l4.4-4.4c0.4-0.4,0.4-1,0-1.3
	c-0.4-0.4-1-0.4-1.3,0L13,8.6V7C13,6.4,12.6,6,12,6z"/>
<rect class="st1" width="24" height="24"/>
<path class="st0" d="M7.9,15.2H7.1c-0.3,0-0.5-0.2-0.5-0.5v-1.4c0-0.3,0.2-0.5,0.5-0.5h0.8c0.3,0,0.5,0.2,0.5,0.5v1.4
	C8.4,15,8.2,15.2,7.9,15.2z"/>
<path class="st0" d="M11.4,14.7h-0.7c-0.2,0-0.3-0.2-0.3-0.3v-0.7c0-0.2,0.2-0.3,0.3-0.3h0.7c0.2,0,0.3,0.2,0.3,0.3v0.7
	C11.7,14.5,11.5,14.7,11.4,14.7z"/>
<path class="st0" d="M13.9,14.7h-0.7c-0.2,0-0.3-0.2-0.3-0.3v-0.7c0-0.2,0.2-0.3,0.3-0.3h0.7c0.2,0,0.3,0.2,0.3,0.3v0.7
	C14.2,14.5,14,14.7,13.9,14.7z"/>
<path class="st0" d="M16.4,14.7h-0.7c-0.2,0-0.3-0.2-0.3-0.3v-0.7c0-0.2,0.2-0.3,0.3-0.3h0.7c0.2,0,0.3,0.2,0.3,0.3v0.7
	C16.7,14.5,16.5,14.7,16.4,14.7z"/>
</svg>
