<?xml version="1.0" encoding="utf-8"?>
<!-- Generator: Adobe Illustrator 21.0.0, SVG Export Plug-In . SVG Version: 6.00 Build 0)  -->
<svg version="1.1" id="图层_1" xmlns="http://www.w3.org/2000/svg" xmlns:xlink="http://www.w3.org/1999/xlink" x="0px" y="0px"
	 viewBox="0 0 20 20" style="enable-background:new 0 0 20 20;" xml:space="preserve">
<style type="text/css">
	.st0{fill-rule:evenodd;clip-rule:evenodd;fill:#35444C;}
	.st1{fill:none;}
</style>
<g>
	<path class="st0" d="M6.9,2H2v4.9h4.9V2z M5.9,5.9H3V3h2.8V5.9z"/>
	<rect x="4" y="4" class="st0" width="1" height="1"/>
	<path class="st0" d="M13.1,2v4.9H18V2H13.1z M17,5.9h-2.8V3H17V5.9z"/>
	<rect x="15" y="4" class="st0" width="1" height="1"/>
	<path class="st0" d="M2,18h4.9v-4.9H2V18z M3,14.1h2.8V17H3V14.1z"/>
	<rect x="4" y="15" class="st0" width="1" height="1"/>
	<rect x="8.2" y="2" class="st0" width="1.8" height="1.2"/>
	<polygon class="st0" points="11.2,5.7 12.5,5.7 12.5,4.5 11.2,4.5 11.2,3.2 10,3.2 10,4.5 8.2,4.5 8.2,6.9 10,6.9 10,5.7 	"/>
	<polygon class="st0" points="4.5,7.5 3.2,7.5 3.2,8.8 3.2,9.4 2,9.4 2,11.2 3.2,11.2 3.2,12.5 4.5,12.5 4.5,8.8 5.7,8.8 5.7,7.5 	
		"/>
	<polygon class="st0" points="10,6.9 10,7.5 7.5,7.5 7.5,8.8 10,8.8 10,10 11.2,10 11.2,6.9 	"/>
	<polygon class="st0" points="6.9,10 6.9,8.8 5.7,8.8 5.7,11.8 6.9,11.8 6.9,11.2 8.8,11.2 8.8,10 	"/>
	<polygon class="st0" points="16.8,8.2 15.5,8.2 15.5,9.4 14.3,9.4 14.3,11.2 18,11.2 18,9.4 16.8,9.4 	"/>
	<rect x="8.8" y="11.2" class="st0" width="1.2" height="1.8"/>
	<rect x="8.2" y="14.3" class="st0" width="1.2" height="2.5"/>
	<rect x="9.4" y="16.8" class="st0" width="1.2" height="1.2"/>
	<rect x="10" y="13.1" class="st0" width="2.5" height="2.5"/>
	<polygon class="st0" points="16.8,11.8 12.5,11.8 12.5,13.1 16.2,13.1 16.2,15.5 15.5,15.5 15.5,16.8 14.9,16.8 14.9,18 16.2,18 
		16.2,16.8 16.8,16.8 16.8,15.5 18,15.5 18,13.1 16.8,13.1 	"/>
	<polygon class="st0" points="13.7,14.3 13.7,15.5 12.5,15.5 12.5,18 13.7,18 13.7,16.8 14.9,16.8 14.9,14.3 	"/>
	<rect x="16.8" y="16.8" class="st0" width="1.2" height="1.2"/>
	<polygon class="st0" points="13.7,10 13.7,8.2 11.8,8.2 11.8,10 11.2,10 11.2,11.8 12.5,11.8 12.5,10 	"/>
</g>
<rect class="st1" width="20" height="20"/>
</svg>
