<?xml version="1.0" encoding="utf-8"?>
<!-- Generator: Adobe Illustrator 21.0.0, SVG Export Plug-In . SVG Version: 6.00 Build 0)  -->
<svg version="1.1" id="图层_1" xmlns="http://www.w3.org/2000/svg" xmlns:xlink="http://www.w3.org/1999/xlink" x="0px" y="0px"
	 viewBox="0 0 20 20" style="enable-background:new 0 0 20 20;" xml:space="preserve">
<style type="text/css">
	.st0{fill-rule:evenodd;clip-rule:evenodd;fill:#A4A4A4;}
	.st1{fill-rule:evenodd;clip-rule:evenodd;fill:#E43333;}
	.st2{fill-rule:evenodd;clip-rule:evenodd;fill:#FBE4E4;}
	.st3{fill:none;}
</style>
<g>
	<g>
		<path class="st0" d="M6.5,11C7.9,11,9,9.9,9,8.5C9,8.2,9,8,8.9,7.8h1.2C10,8,10,8.2,10,8.5c0,1.4,1.1,2.5,2.5,2.5S15,9.9,15,8.5
			S13.9,6,12.5,6c-0.1,0-0.2,0-0.3,0c0,0-0.1,0-0.1,0H6.9c0,0-0.1,0-0.1,0C6.7,6,6.6,6,6.5,6C5.1,6,4,7.1,4,8.5S5.1,11,6.5,11z
			 M12.5,7.8c0.4,0,0.7,0.3,0.7,0.7c0,0.4-0.3,0.7-0.7,0.7c-0.4,0-0.7-0.3-0.7-0.7C11.8,8.1,12.1,7.8,12.5,7.8z M6.5,7.8
			c0.4,0,0.7,0.3,0.7,0.7c0,0.4-0.3,0.7-0.7,0.7c-0.4,0-0.7-0.3-0.7-0.7C5.8,8.1,6.1,7.8,6.5,7.8z M16,2H3C1.9,2,1,2.9,1,4v9
			c0,1.1,0.9,2,2,2h13c1.1,0,2-0.9,2-2V4C18,2.9,17.1,2,16,2z M16,13H3V4h13V13z"/>
	</g>
	<circle class="st1" cx="16" cy="13" r="4"/>
	<path class="st2" d="M18,14h-4c-0.5,0-1-0.4-1-1v0c0-0.5,0.4-1,1-1h4c0.5,0,1,0.4,1,1v0C19,13.6,18.6,14,18,14z"/>
</g>
<rect class="st3" width="20" height="20"/>
</svg>
