<?xml version="1.0" encoding="utf-8"?>
<!-- Generator: Adobe Illustrator 21.0.0, SVG Export Plug-In . SVG Version: 6.00 Build 0)  -->
<svg version="1.1" id="图层_1" xmlns="http://www.w3.org/2000/svg" xmlns:xlink="http://www.w3.org/1999/xlink" x="0px" y="0px"
	 viewBox="0 0 20 20" style="enable-background:new 0 0 20 20;" xml:space="preserve">
<style type="text/css">
	.st0{fill-rule:evenodd;clip-rule:evenodd;fill:#50C664;}
	.st1{fill:none;}
</style>
<g>
	<path class="st0" d="M6.5,11C7.9,11,9,9.9,9,8.5C9,8.2,9,8,8.9,7.8h1.2C10,8,10,8.2,10,8.5c0,1.4,1.1,2.5,2.5,2.5S15,9.9,15,8.5
		C15,7.1,13.9,6,12.5,6c-0.1,0-0.2,0-0.3,0c0,0-0.1,0-0.1,0H6.9c0,0-0.1,0-0.1,0C6.7,6,6.6,6,6.5,6C5.1,6,4,7.1,4,8.5
		C4,9.9,5.1,11,6.5,11z M12.5,7.8c0.4,0,0.7,0.3,0.7,0.7c0,0.4-0.3,0.7-0.7,0.7c-0.4,0-0.7-0.3-0.7-0.7C11.8,8.1,12.1,7.8,12.5,7.8z
		 M6.5,7.8c0.4,0,0.7,0.3,0.7,0.7c0,0.4-0.3,0.7-0.7,0.7c-0.4,0-0.7-0.3-0.7-0.7C5.8,8.1,6.1,7.8,6.5,7.8z M16,2H3C1.9,2,1,2.9,1,4
		v9c0,1.1,0.9,2,2,2h13c1.1,0,2-0.9,2-2V4C18,2.9,17.1,2,16,2z M16,13H3V4h13V13z"/>
</g>
<rect class="st1" width="20" height="20"/>
</svg>
