<svg xmlns="http://www.w3.org/2000/svg" width="20" height="20" viewBox="0 0 20 20"><defs><style>.a{fill:#fff;}.b{fill:none;}</style></defs><g transform="translate(-4 -4)"><g transform="translate(-0.001 -0.001)"><path class="a" d="M15.5,7.75V7a1,1,0,0,0-1-1h-1a1,1,0,0,0-1,1v.75H9a1,1,0,0,0-1,1v1H20v-1a1,1,0,0,0-1-1Z" transform="translate(0 0)"/><path class="a" d="M8,11.25V20a2,2,0,0,0,2,2h8a2,2,0,0,0,2-2V11.25ZM14.591,20h-1.21V13.25h1.21ZM10,13.25h1.38V20H10ZM18,20h-1.41V13.25H18Z" transform="translate(0 0.001)"/></g><rect class="b" width="20" height="20" transform="translate(4 4)"/></g></svg>