<svg xmlns="http://www.w3.org/2000/svg" width="80" height="20" viewBox="0 0 80 20"><defs><style>.a,.b{fill:none;}.c{opacity:0.3;}.d,.e,.f,.g{stroke:none;}.e{fill:#55616d;}.f{fill:#818c98;}.g{fill:#438dec;}</style></defs><g transform="translate(-864 -1831.001)"><g transform="translate(700.83 791.789)"><g class="a" transform="translate(-18587.115 -10165.199)"><path class="d" d="M18759.234,11222.61a1,1,0,0,1-1-1v-1.4a6.156,6.156,0,0,1-1.941-1.123l-1.219.7a1.012,1.012,0,0,1-.5.132,1,1,0,0,1-.867-.5l-1.051-1.818a1,1,0,0,1,.367-1.366l1.215-.7a6.285,6.285,0,0,1-.1-1.125,6.06,6.06,0,0,1,.1-1.121l-1.215-.7a1,1,0,0,1-.367-1.366l1.051-1.817a1,1,0,0,1,1.365-.363l1.213.7a6.157,6.157,0,0,1,1.947-1.128v-1.4a1,1,0,0,1,1-1h2.1a1,1,0,0,1,1,1v1.4a6.135,6.135,0,0,1,1.947,1.128l1.213-.7a1,1,0,0,1,1.361.368l1.051,1.817a1,1,0,0,1-.363,1.366l-1.213.7a6.244,6.244,0,0,1,.1,1.122,6.113,6.113,0,0,1-.1,1.126l1.215.7a1,1,0,0,1,.363,1.366l-1.051,1.818a1,1,0,0,1-1.361.367l-1.217-.7a6.125,6.125,0,0,1-1.943,1.124v1.4a1,1,0,0,1-1,1Z"/><path class="e" d="M 18760.287109375 11216.6923828125 L 18761.005859375 11216.439453125 C 18761.251953125 11216.3525390625 18761.478515625 11216.2216796875 18761.677734375 11216.0498046875 L 18762.259765625 11215.5517578125 L 18762.400390625 11214.80078125 C 18762.423828125 11214.67578125 18762.435546875 11214.5439453125 18762.435546875 11214.41015625 C 18762.435546875 11214.2734375 18762.423828125 11214.140625 18762.3984375 11214.005859375 L 18762.265625 11213.2734375 L 18761.681640625 11212.7734375 C 18761.478515625 11212.599609375 18761.25 11212.466796875 18761.00390625 11212.3798828125 L 18760.287109375 11212.1259765625 L 18759.5703125 11212.3798828125 C 18759.322265625 11212.46875 18759.09375 11212.6015625 18758.890625 11212.775390625 L 18758.314453125 11213.26953125 L 18758.171875 11214.0283203125 C 18758.1484375 11214.150390625 18758.13671875 11214.279296875 18758.13671875 11214.41015625 C 18758.13671875 11214.5390625 18758.150390625 11214.677734375 18758.17578125 11214.8193359375 L 18758.30859375 11215.546875 L 18758.890625 11216.0439453125 C 18759.09375 11216.21875 18759.32421875 11216.3515625 18759.5703125 11216.4384765625 L 18760.287109375 11216.6923828125 M 18761.333984375 11222.6103515625 L 18759.234375 11222.6103515625 C 18758.68359375 11222.6103515625 18758.234375 11222.1630859375 18758.234375 11221.611328125 L 18758.234375 11220.208984375 C 18757.517578125 11219.955078125 18756.861328125 11219.5712890625 18756.29296875 11219.0859375 L 18755.07421875 11219.7890625 C 18754.9140625 11219.87890625 18754.744140625 11219.9208984375 18754.576171875 11219.9208984375 C 18754.232421875 11219.9208984375 18753.892578125 11219.7421875 18753.708984375 11219.421875 L 18752.658203125 11217.603515625 C 18752.384765625 11217.123046875 18752.544921875 11216.515625 18753.025390625 11216.2373046875 L 18754.240234375 11215.53515625 C 18754.173828125 11215.169921875 18754.13671875 11214.7939453125 18754.13671875 11214.41015625 C 18754.13671875 11214.02734375 18754.171875 11213.65234375 18754.240234375 11213.2890625 L 18753.025390625 11212.5869140625 C 18752.544921875 11212.3134765625 18752.384765625 11211.701171875 18752.658203125 11211.220703125 L 18753.708984375 11209.4033203125 C 18753.986328125 11208.9267578125 18754.59375 11208.7607421875 18755.07421875 11209.0400390625 L 18756.287109375 11209.73828125 C 18756.85546875 11209.2509765625 18757.515625 11208.865234375 18758.234375 11208.6103515625 L 18758.234375 11207.212890625 C 18758.234375 11206.6572265625 18758.68359375 11206.208984375 18759.234375 11206.208984375 L 18761.333984375 11206.208984375 C 18761.884765625 11206.208984375 18762.337890625 11206.6572265625 18762.337890625 11207.212890625 L 18762.337890625 11208.6083984375 C 18763.05859375 11208.86328125 18763.716796875 11209.2490234375 18764.28515625 11209.736328125 L 18765.498046875 11209.03515625 C 18765.96875 11208.763671875 18766.583984375 11208.9208984375 18766.859375 11209.4033203125 L 18767.91015625 11211.220703125 C 18768.1875 11211.701171875 18768.0234375 11212.3134765625 18767.546875 11212.5869140625 L 18766.333984375 11213.2880859375 C 18766.400390625 11213.65234375 18766.435546875 11214.0263671875 18766.435546875 11214.41015625 C 18766.435546875 11214.794921875 18766.400390625 11215.1708984375 18766.33203125 11215.5361328125 L 18767.546875 11216.2373046875 C 18768.0234375 11216.515625 18768.1875 11217.123046875 18767.91015625 11217.603515625 L 18766.859375 11219.421875 C 18766.67578125 11219.7421875 18766.341796875 11219.9208984375 18765.9921875 11219.9208984375 C 18765.82421875 11219.9208984375 18765.654296875 11219.87890625 18765.498046875 11219.7890625 L 18764.28125 11219.0869140625 C 18763.71484375 11219.572265625 18763.056640625 11219.95703125 18762.337890625 11220.2109375 L 18762.337890625 11221.611328125 C 18762.337890625 11222.1630859375 18761.884765625 11222.6103515625 18761.333984375 11222.6103515625 Z"/></g><rect class="b" width="20" height="20" transform="translate(163.17 1039.212)"/></g><g class="c" transform="translate(760.83 791.789)"><g class="a" transform="translate(-18587.115 -10165.199)"><path class="d" d="M18759.234,11222.61a1,1,0,0,1-1-1v-1.4a6.156,6.156,0,0,1-1.941-1.123l-1.219.7a1.012,1.012,0,0,1-.5.132,1,1,0,0,1-.867-.5l-1.051-1.818a1,1,0,0,1,.367-1.366l1.215-.7a6.285,6.285,0,0,1-.1-1.125,6.06,6.06,0,0,1,.1-1.121l-1.215-.7a1,1,0,0,1-.367-1.366l1.051-1.817a1,1,0,0,1,1.365-.363l1.213.7a6.157,6.157,0,0,1,1.947-1.128v-1.4a1,1,0,0,1,1-1h2.1a1,1,0,0,1,1,1v1.4a6.135,6.135,0,0,1,1.947,1.128l1.213-.7a1,1,0,0,1,1.361.368l1.051,1.817a1,1,0,0,1-.363,1.366l-1.213.7a6.244,6.244,0,0,1,.1,1.122,6.113,6.113,0,0,1-.1,1.126l1.215.7a1,1,0,0,1,.363,1.366l-1.051,1.818a1,1,0,0,1-1.361.367l-1.217-.7a6.125,6.125,0,0,1-1.943,1.124v1.4a1,1,0,0,1-1,1Z"/><path class="e" d="M 18760.287109375 11216.6923828125 L 18761.005859375 11216.439453125 C 18761.251953125 11216.3525390625 18761.478515625 11216.2216796875 18761.677734375 11216.0498046875 L 18762.259765625 11215.5517578125 L 18762.400390625 11214.80078125 C 18762.423828125 11214.67578125 18762.435546875 11214.5439453125 18762.435546875 11214.41015625 C 18762.435546875 11214.2734375 18762.423828125 11214.140625 18762.3984375 11214.005859375 L 18762.265625 11213.2734375 L 18761.681640625 11212.7734375 C 18761.478515625 11212.599609375 18761.25 11212.466796875 18761.00390625 11212.3798828125 L 18760.287109375 11212.1259765625 L 18759.5703125 11212.3798828125 C 18759.322265625 11212.46875 18759.09375 11212.6015625 18758.890625 11212.775390625 L 18758.314453125 11213.26953125 L 18758.171875 11214.0283203125 C 18758.1484375 11214.150390625 18758.13671875 11214.279296875 18758.13671875 11214.41015625 C 18758.13671875 11214.5390625 18758.150390625 11214.677734375 18758.17578125 11214.8193359375 L 18758.30859375 11215.546875 L 18758.890625 11216.0439453125 C 18759.09375 11216.21875 18759.32421875 11216.3515625 18759.5703125 11216.4384765625 L 18760.287109375 11216.6923828125 M 18761.333984375 11222.6103515625 L 18759.234375 11222.6103515625 C 18758.68359375 11222.6103515625 18758.234375 11222.1630859375 18758.234375 11221.611328125 L 18758.234375 11220.208984375 C 18757.517578125 11219.955078125 18756.861328125 11219.5712890625 18756.29296875 11219.0859375 L 18755.07421875 11219.7890625 C 18754.9140625 11219.87890625 18754.744140625 11219.9208984375 18754.576171875 11219.9208984375 C 18754.232421875 11219.9208984375 18753.892578125 11219.7421875 18753.708984375 11219.421875 L 18752.658203125 11217.603515625 C 18752.384765625 11217.123046875 18752.544921875 11216.515625 18753.025390625 11216.2373046875 L 18754.240234375 11215.53515625 C 18754.173828125 11215.169921875 18754.13671875 11214.7939453125 18754.13671875 11214.41015625 C 18754.13671875 11214.02734375 18754.171875 11213.65234375 18754.240234375 11213.2890625 L 18753.025390625 11212.5869140625 C 18752.544921875 11212.3134765625 18752.384765625 11211.701171875 18752.658203125 11211.220703125 L 18753.708984375 11209.4033203125 C 18753.986328125 11208.9267578125 18754.59375 11208.7607421875 18755.07421875 11209.0400390625 L 18756.287109375 11209.73828125 C 18756.85546875 11209.2509765625 18757.515625 11208.865234375 18758.234375 11208.6103515625 L 18758.234375 11207.212890625 C 18758.234375 11206.6572265625 18758.68359375 11206.208984375 18759.234375 11206.208984375 L 18761.333984375 11206.208984375 C 18761.884765625 11206.208984375 18762.337890625 11206.6572265625 18762.337890625 11207.212890625 L 18762.337890625 11208.6083984375 C 18763.05859375 11208.86328125 18763.716796875 11209.2490234375 18764.28515625 11209.736328125 L 18765.498046875 11209.03515625 C 18765.96875 11208.763671875 18766.583984375 11208.9208984375 18766.859375 11209.4033203125 L 18767.91015625 11211.220703125 C 18768.1875 11211.701171875 18768.0234375 11212.3134765625 18767.546875 11212.5869140625 L 18766.333984375 11213.2880859375 C 18766.400390625 11213.65234375 18766.435546875 11214.0263671875 18766.435546875 11214.41015625 C 18766.435546875 11214.794921875 18766.400390625 11215.1708984375 18766.33203125 11215.5361328125 L 18767.546875 11216.2373046875 C 18768.0234375 11216.515625 18768.1875 11217.123046875 18767.91015625 11217.603515625 L 18766.859375 11219.421875 C 18766.67578125 11219.7421875 18766.341796875 11219.9208984375 18765.9921875 11219.9208984375 C 18765.82421875 11219.9208984375 18765.654296875 11219.87890625 18765.498046875 11219.7890625 L 18764.28125 11219.0869140625 C 18763.71484375 11219.572265625 18763.056640625 11219.95703125 18762.337890625 11220.2109375 L 18762.337890625 11221.611328125 C 18762.337890625 11222.1630859375 18761.884765625 11222.6103515625 18761.333984375 11222.6103515625 Z"/></g><rect class="b" width="20" height="20" transform="translate(163.17 1039.212)"/></g><g transform="translate(720.83 791.789)"><g class="a" transform="translate(-18587.115 -10165.199)"><path class="d" d="M18759.234,11222.61a1,1,0,0,1-1-1v-1.4a6.156,6.156,0,0,1-1.941-1.123l-1.219.7a1.012,1.012,0,0,1-.5.132,1,1,0,0,1-.867-.5l-1.051-1.818a1,1,0,0,1,.367-1.366l1.215-.7a6.285,6.285,0,0,1-.1-1.125,6.06,6.06,0,0,1,.1-1.121l-1.215-.7a1,1,0,0,1-.367-1.366l1.051-1.817a1,1,0,0,1,1.365-.363l1.213.7a6.157,6.157,0,0,1,1.947-1.128v-1.4a1,1,0,0,1,1-1h2.1a1,1,0,0,1,1,1v1.4a6.135,6.135,0,0,1,1.947,1.128l1.213-.7a1,1,0,0,1,1.361.368l1.051,1.817a1,1,0,0,1-.363,1.366l-1.213.7a6.244,6.244,0,0,1,.1,1.122,6.113,6.113,0,0,1-.1,1.126l1.215.7a1,1,0,0,1,.363,1.366l-1.051,1.818a1,1,0,0,1-1.361.367l-1.217-.7a6.125,6.125,0,0,1-1.943,1.124v1.4a1,1,0,0,1-1,1Z"/><path class="f" d="M 18760.287109375 11216.6923828125 L 18761.005859375 11216.439453125 C 18761.251953125 11216.3525390625 18761.478515625 11216.2216796875 18761.677734375 11216.0498046875 L 18762.259765625 11215.5517578125 L 18762.400390625 11214.80078125 C 18762.423828125 11214.67578125 18762.435546875 11214.5439453125 18762.435546875 11214.41015625 C 18762.435546875 11214.2734375 18762.423828125 11214.140625 18762.3984375 11214.005859375 L 18762.265625 11213.2734375 L 18761.681640625 11212.7734375 C 18761.478515625 11212.599609375 18761.25 11212.466796875 18761.00390625 11212.3798828125 L 18760.287109375 11212.1259765625 L 18759.5703125 11212.3798828125 C 18759.322265625 11212.46875 18759.09375 11212.6015625 18758.890625 11212.775390625 L 18758.314453125 11213.26953125 L 18758.171875 11214.0283203125 C 18758.1484375 11214.150390625 18758.13671875 11214.279296875 18758.13671875 11214.41015625 C 18758.13671875 11214.5390625 18758.150390625 11214.677734375 18758.17578125 11214.8193359375 L 18758.30859375 11215.546875 L 18758.890625 11216.0439453125 C 18759.09375 11216.21875 18759.32421875 11216.3515625 18759.5703125 11216.4384765625 L 18760.287109375 11216.6923828125 M 18761.333984375 11222.6103515625 L 18759.234375 11222.6103515625 C 18758.68359375 11222.6103515625 18758.234375 11222.1630859375 18758.234375 11221.611328125 L 18758.234375 11220.208984375 C 18757.517578125 11219.955078125 18756.861328125 11219.5712890625 18756.29296875 11219.0859375 L 18755.07421875 11219.7890625 C 18754.9140625 11219.87890625 18754.744140625 11219.9208984375 18754.576171875 11219.9208984375 C 18754.232421875 11219.9208984375 18753.892578125 11219.7421875 18753.708984375 11219.421875 L 18752.658203125 11217.603515625 C 18752.384765625 11217.123046875 18752.544921875 11216.515625 18753.025390625 11216.2373046875 L 18754.240234375 11215.53515625 C 18754.173828125 11215.169921875 18754.13671875 11214.7939453125 18754.13671875 11214.41015625 C 18754.13671875 11214.02734375 18754.171875 11213.65234375 18754.240234375 11213.2890625 L 18753.025390625 11212.5869140625 C 18752.544921875 11212.3134765625 18752.384765625 11211.701171875 18752.658203125 11211.220703125 L 18753.708984375 11209.4033203125 C 18753.986328125 11208.9267578125 18754.59375 11208.7607421875 18755.07421875 11209.0400390625 L 18756.287109375 11209.73828125 C 18756.85546875 11209.2509765625 18757.515625 11208.865234375 18758.234375 11208.6103515625 L 18758.234375 11207.212890625 C 18758.234375 11206.6572265625 18758.68359375 11206.208984375 18759.234375 11206.208984375 L 18761.333984375 11206.208984375 C 18761.884765625 11206.208984375 18762.337890625 11206.6572265625 18762.337890625 11207.212890625 L 18762.337890625 11208.6083984375 C 18763.05859375 11208.86328125 18763.716796875 11209.2490234375 18764.28515625 11209.736328125 L 18765.498046875 11209.03515625 C 18765.96875 11208.763671875 18766.583984375 11208.9208984375 18766.859375 11209.4033203125 L 18767.91015625 11211.220703125 C 18768.1875 11211.701171875 18768.0234375 11212.3134765625 18767.546875 11212.5869140625 L 18766.333984375 11213.2880859375 C 18766.400390625 11213.65234375 18766.435546875 11214.0263671875 18766.435546875 11214.41015625 C 18766.435546875 11214.794921875 18766.400390625 11215.1708984375 18766.33203125 11215.5361328125 L 18767.546875 11216.2373046875 C 18768.0234375 11216.515625 18768.1875 11217.123046875 18767.91015625 11217.603515625 L 18766.859375 11219.421875 C 18766.67578125 11219.7421875 18766.341796875 11219.9208984375 18765.9921875 11219.9208984375 C 18765.82421875 11219.9208984375 18765.654296875 11219.87890625 18765.498046875 11219.7890625 L 18764.28125 11219.0869140625 C 18763.71484375 11219.572265625 18763.056640625 11219.95703125 18762.337890625 11220.2109375 L 18762.337890625 11221.611328125 C 18762.337890625 11222.1630859375 18761.884765625 11222.6103515625 18761.333984375 11222.6103515625 Z"/></g><rect class="b" width="20" height="20" transform="translate(163.17 1039.212)"/></g><g transform="translate(740.83 791.789)"><g class="a" transform="translate(-18587.115 -10165.199)"><path class="d" d="M18759.234,11222.61a1,1,0,0,1-1-1v-1.4a6.156,6.156,0,0,1-1.941-1.123l-1.219.7a1.012,1.012,0,0,1-.5.132,1,1,0,0,1-.867-.5l-1.051-1.818a1,1,0,0,1,.367-1.366l1.215-.7a6.285,6.285,0,0,1-.1-1.125,6.06,6.06,0,0,1,.1-1.121l-1.215-.7a1,1,0,0,1-.367-1.366l1.051-1.817a1,1,0,0,1,1.365-.363l1.213.7a6.157,6.157,0,0,1,1.947-1.128v-1.4a1,1,0,0,1,1-1h2.1a1,1,0,0,1,1,1v1.4a6.135,6.135,0,0,1,1.947,1.128l1.213-.7a1,1,0,0,1,1.361.368l1.051,1.817a1,1,0,0,1-.363,1.366l-1.213.7a6.244,6.244,0,0,1,.1,1.122,6.113,6.113,0,0,1-.1,1.126l1.215.7a1,1,0,0,1,.363,1.366l-1.051,1.818a1,1,0,0,1-1.361.367l-1.217-.7a6.125,6.125,0,0,1-1.943,1.124v1.4a1,1,0,0,1-1,1Z"/><path class="g" d="M 18760.287109375 11216.6923828125 L 18761.005859375 11216.439453125 C 18761.251953125 11216.3525390625 18761.478515625 11216.2216796875 18761.677734375 11216.0498046875 L 18762.259765625 11215.5517578125 L 18762.400390625 11214.80078125 C 18762.423828125 11214.67578125 18762.435546875 11214.5439453125 18762.435546875 11214.41015625 C 18762.435546875 11214.2734375 18762.423828125 11214.140625 18762.3984375 11214.005859375 L 18762.265625 11213.2734375 L 18761.681640625 11212.7734375 C 18761.478515625 11212.599609375 18761.25 11212.466796875 18761.00390625 11212.3798828125 L 18760.287109375 11212.1259765625 L 18759.5703125 11212.3798828125 C 18759.322265625 11212.46875 18759.09375 11212.6015625 18758.890625 11212.775390625 L 18758.314453125 11213.26953125 L 18758.171875 11214.0283203125 C 18758.1484375 11214.150390625 18758.13671875 11214.279296875 18758.13671875 11214.41015625 C 18758.13671875 11214.5390625 18758.150390625 11214.677734375 18758.17578125 11214.8193359375 L 18758.30859375 11215.546875 L 18758.890625 11216.0439453125 C 18759.09375 11216.21875 18759.32421875 11216.3515625 18759.5703125 11216.4384765625 L 18760.287109375 11216.6923828125 M 18761.333984375 11222.6103515625 L 18759.234375 11222.6103515625 C 18758.68359375 11222.6103515625 18758.234375 11222.1630859375 18758.234375 11221.611328125 L 18758.234375 11220.208984375 C 18757.517578125 11219.955078125 18756.861328125 11219.5712890625 18756.29296875 11219.0859375 L 18755.07421875 11219.7890625 C 18754.9140625 11219.87890625 18754.744140625 11219.9208984375 18754.576171875 11219.9208984375 C 18754.232421875 11219.9208984375 18753.892578125 11219.7421875 18753.708984375 11219.421875 L 18752.658203125 11217.603515625 C 18752.384765625 11217.123046875 18752.544921875 11216.515625 18753.025390625 11216.2373046875 L 18754.240234375 11215.53515625 C 18754.173828125 11215.169921875 18754.13671875 11214.7939453125 18754.13671875 11214.41015625 C 18754.13671875 11214.02734375 18754.171875 11213.65234375 18754.240234375 11213.2890625 L 18753.025390625 11212.5869140625 C 18752.544921875 11212.3134765625 18752.384765625 11211.701171875 18752.658203125 11211.220703125 L 18753.708984375 11209.4033203125 C 18753.986328125 11208.9267578125 18754.59375 11208.7607421875 18755.07421875 11209.0400390625 L 18756.287109375 11209.73828125 C 18756.85546875 11209.2509765625 18757.515625 11208.865234375 18758.234375 11208.6103515625 L 18758.234375 11207.212890625 C 18758.234375 11206.6572265625 18758.68359375 11206.208984375 18759.234375 11206.208984375 L 18761.333984375 11206.208984375 C 18761.884765625 11206.208984375 18762.337890625 11206.6572265625 18762.337890625 11207.212890625 L 18762.337890625 11208.6083984375 C 18763.05859375 11208.86328125 18763.716796875 11209.2490234375 18764.28515625 11209.736328125 L 18765.498046875 11209.03515625 C 18765.96875 11208.763671875 18766.583984375 11208.9208984375 18766.859375 11209.4033203125 L 18767.91015625 11211.220703125 C 18768.1875 11211.701171875 18768.0234375 11212.3134765625 18767.546875 11212.5869140625 L 18766.333984375 11213.2880859375 C 18766.400390625 11213.65234375 18766.435546875 11214.0263671875 18766.435546875 11214.41015625 C 18766.435546875 11214.794921875 18766.400390625 11215.1708984375 18766.33203125 11215.5361328125 L 18767.546875 11216.2373046875 C 18768.0234375 11216.515625 18768.1875 11217.123046875 18767.91015625 11217.603515625 L 18766.859375 11219.421875 C 18766.67578125 11219.7421875 18766.341796875 11219.9208984375 18765.9921875 11219.9208984375 C 18765.82421875 11219.9208984375 18765.654296875 11219.87890625 18765.498046875 11219.7890625 L 18764.28125 11219.0869140625 C 18763.71484375 11219.572265625 18763.056640625 11219.95703125 18762.337890625 11220.2109375 L 18762.337890625 11221.611328125 C 18762.337890625 11222.1630859375 18761.884765625 11222.6103515625 18761.333984375 11222.6103515625 Z"/></g><rect class="b" width="20" height="20" transform="translate(163.17 1039.212)"/></g></g></svg>