<svg xmlns="http://www.w3.org/2000/svg" width="80" height="20" viewBox="0 0 80 20"><defs><style>.a{fill:#55616d;}.b{fill:none;}.c{opacity:0.3;}.d{fill:#818c98;}.e{fill:#438dec;}</style></defs><g transform="translate(-48 -1161.999)"><circle class="a" cx="3" cy="3" r="3" transform="translate(50 1169)"/><circle class="a" cx="3" cy="3" r="3" transform="translate(60 1163)"/><rect class="a" width="1.836" height="12.05" rx="0.918" transform="translate(62.936 1165) rotate(60)"/><rect class="b" width="20" height="20" transform="translate(48 1161.999)"/><circle class="a" cx="3" cy="3" r="3" transform="translate(60 1175)"/><rect class="a" width="1.836" height="12.05" rx="0.918" transform="translate(52.5 1172.975) rotate(-60)"/><g class="c" transform="translate(60)"><circle class="a" cx="3" cy="3" r="3" transform="translate(50 1169)"/><circle class="a" cx="3" cy="3" r="3" transform="translate(60 1163)"/><rect class="a" width="1.836" height="12.05" rx="0.918" transform="translate(62.936 1165) rotate(60)"/><rect class="b" width="20" height="20" transform="translate(48 1161.999)"/><circle class="a" cx="3" cy="3" r="3" transform="translate(60 1175)"/><rect class="a" width="1.836" height="12.05" rx="0.918" transform="translate(52.5 1172.975) rotate(-60)"/></g><g transform="translate(20)"><circle class="d" cx="3" cy="3" r="3" transform="translate(50 1169)"/><circle class="d" cx="3" cy="3" r="3" transform="translate(60 1163)"/><rect class="d" width="1.836" height="12.05" rx="0.918" transform="translate(62.936 1165) rotate(60)"/><rect class="b" width="20" height="20" transform="translate(48 1161.999)"/><circle class="d" cx="3" cy="3" r="3" transform="translate(60 1175)"/><rect class="d" width="1.836" height="12.05" rx="0.918" transform="translate(52.5 1172.975) rotate(-60)"/></g><g transform="translate(40)"><circle class="e" cx="3" cy="3" r="3" transform="translate(50 1169)"/><circle class="e" cx="3" cy="3" r="3" transform="translate(60 1163)"/><rect class="e" width="1.836" height="12.05" rx="0.918" transform="translate(62.936 1165) rotate(60)"/><rect class="b" width="20" height="20" transform="translate(48 1161.999)"/><circle class="e" cx="3" cy="3" r="3" transform="translate(60 1175)"/><rect class="e" width="1.836" height="12.05" rx="0.918" transform="translate(52.5 1172.975) rotate(-60)"/></g></g></svg>