<?xml version="1.0" encoding="utf-8"?>
<!-- Generator: Adobe Illustrator 21.0.0, SVG Export Plug-In . SVG Version: 6.00 Build 0)  -->
<svg version="1.1" id="图层_1" xmlns="http://www.w3.org/2000/svg" xmlns:xlink="http://www.w3.org/1999/xlink" x="0px" y="0px"
	 viewBox="0 0 24 24" style="enable-background:new 0 0 24 24;" xml:space="preserve">
<style type="text/css">
	.st0{fill:none;}
	.st1{fill:#C7D6DE;}
</style>
<rect class="st0" width="24" height="24"/>
<g>
	<path class="st1" d="M13,3L6,7H5H4H1C0.5,7,0,7.5,0,8v8c0,0.5,0.5,1,1,1h3h1h1l7,4c0.5,0,1-0.5,1-1V4C14,3.5,13.5,3,13,3z M4,15H2
		V9h2V15z M12,18l-6-3.2V9.2L12,6V18z"/>
	<path class="st1" d="M21.4,12l2.4-2.4c0.4-0.4,0.4-1,0-1.4c-0.4-0.4-1-0.4-1.4,0L20,10.6l-2.4-2.4c-0.4-0.4-1-0.4-1.4,0
		c-0.4,0.4-0.4,1,0,1.4l2.4,2.4l-2.4,2.4c-0.4,0.4-0.4,1,0,1.4c0.4,0.4,1,0.4,1.4,0l2.4-2.4l2.4,2.4c0.4,0.4,1,0.4,1.4,0
		c0.4-0.4,0.4-1,0-1.4L21.4,12z"/>
</g>
</svg>
