<svg xmlns="http://www.w3.org/2000/svg" width="28" height="20" viewBox="0 0 28 20"><defs><style>.a{fill:#438dec;}.b{fill:none;}</style></defs><g transform="translate(-6.454 -6.454)"><path class="a" d="M-1799.546-185.546h-10a3,3,0,0,1-3-3v-10a3,3,0,0,1,3-3h10a3,3,0,0,1,3,3v10A3,3,0,0,1-1799.546-185.546Zm-6.76-12a.912.912,0,0,0-.91.909v6.183a.912.912,0,0,0,.911.909.9.9,0,0,0,.532-.176l4.226-3.092a.9.9,0,0,0,.372-.732.9.9,0,0,0-.372-.732l-4.226-3.092A.9.9,0,0,0-1806.305-197.546Z" transform="translate(1821 210)"/><rect class="b" width="28" height="20" transform="translate(6.454 6.454)"/><path class="a" d="M25.155,21.4h0V16.571a2.412,2.412,0,1,1,0,4.825" transform="translate(1.299 -2.529)"/><path class="a" d="M27.691,22.59h0A.91.91,0,0,0,29,23.407a6.67,6.67,0,0,0,0-11.928.91.91,0,0,0-1.312.817.888.888,0,0,0,.493.8,4.826,4.826,0,0,1,0,8.689.89.89,0,0,0-.494.8" transform="translate(0.547 -0.989)"/></g></svg>