<?xml version="1.0" encoding="utf-8"?>
<!-- Generator: Adobe Illustrator 21.0.0, SVG Export Plug-In . SVG Version: 6.00 Build 0)  -->
<svg version="1.1" id="图层_1" xmlns="http://www.w3.org/2000/svg" xmlns:xlink="http://www.w3.org/1999/xlink" x="0px" y="0px"
	 viewBox="0 0 24 24" style="enable-background:new 0 0 24 24;" xml:space="preserve">
<style type="text/css">
	.st0{fill:none;}
	.st1{fill:#C7D6DE;}
</style>
<rect class="st0" width="24" height="24"/>
<g>
	<path class="st1" d="M13,3L6,7H5H4H1C0.5,7,0,7.5,0,8v8c0,0.5,0.5,1,1,1h3h1h1l7,4c0.5,0,1-0.5,1-1V4C14,3.5,13.5,3,13,3z M4,15H2
		V9h2V15z M12,18l-6-3.2V9.2L12,6V18z"/>
	<path class="st1" d="M16.1,9.4c-0.3-0.3-0.7-0.3-0.9,0c-0.3,0.3-0.3,0.9,0,1.2c0.6,0.8,0.6,2,0,2.8c-0.3,0.3-0.3,0.9,0,1.2
		c0.3,0.3,0.7,0.3,0.9,0C17.3,13.2,17.3,10.8,16.1,9.4z"/>
	<path class="st1" d="M20.7,4.2c-0.4-0.4-1-0.4-1.4,0c-0.4,0.4-0.4,1,0,1.4c3.5,3.5,3.5,9.2,0,12.7c-0.4,0.4-0.4,1,0,1.4
		c0.4,0.4,1,0.4,1.4,0C25,15.5,25,8.5,20.7,4.2z"/>
	<path class="st1" d="M18.3,7.1c-0.3-0.4-0.8-0.4-1.1,0c-0.3,0.4-0.3,1,0,1.4c1.6,2,1.6,5.1,0,7.1c-0.3,0.4-0.3,1,0,1.4
		c0.3,0.4,0.8,0.4,1.1,0C20.5,14.2,20.5,9.8,18.3,7.1z"/>
</g>
</svg>
