<?xml version="1.0" encoding="utf-8"?>
<!-- Generator: Adobe Illustrator 21.0.0, SVG Export Plug-In . SVG Version: 6.00 Build 0)  -->
<svg version="1.1" id="图层_1" xmlns="http://www.w3.org/2000/svg" xmlns:xlink="http://www.w3.org/1999/xlink" x="0px" y="0px"
	 viewBox="0 0 24 24" style="enable-background:new 0 0 24 24;" xml:space="preserve">
<style type="text/css">
	.st0{fill:#C7D6DE;}
	.st1{fill:none;}
</style>
<g>
	<path class="st0" d="M7.6,11.7L12,7.3l4.4,4.4c0.4,0.4,1,0.4,1.3,0c0.4-0.4,0.4-1,0-1.3l-5-5c-0.4-0.4-1-0.4-1.3,0l-5,5
		c-0.4,0.4-0.4,1,0,1.3C6.6,12,7.3,12,7.6,11.7z"/>
	<path class="st0" d="M12.7,12.3c-0.4-0.4-1-0.4-1.3,0l-5,5c-0.4,0.4-0.4,1,0,1.3c0.4,0.4,1,0.4,1.3,0l4.4-4.4l4.4,4.4
		c0.4,0.4,1,0.4,1.3,0c0.4-0.4,0.4-1,0-1.3L12.7,12.3z"/>
</g>
<rect class="st1" width="24" height="24"/>
</svg>
