<?xml version="1.0" encoding="utf-8"?>
<!-- Generator: Adobe Illustrator 21.0.0, SVG Export Plug-In . SVG Version: 6.00 Build 0)  -->
<svg version="1.1" id="图层_1" xmlns="http://www.w3.org/2000/svg" xmlns:xlink="http://www.w3.org/1999/xlink" x="0px" y="0px"
	 viewBox="0 0 24 24" style="enable-background:new 0 0 24 24;" xml:space="preserve">
<style type="text/css">
	.st0{fill:#C7D6DE;}
</style>
<g>
	<path class="st0" d="M20,18H5v-0.1l1.8-1.8c0,0,0-0.1,0.1-0.1c0,0,0.1,0,0.1,0h3c0.5,0,1-0.5,1-1s-0.5-1-1-1H7v-3
		c0-1.8,1-3.4,2.5-4.3C10.1,7.5,11,8,12,8c1,0,1.9-0.5,2.5-1.3C15.1,7,15.6,7.5,16,8h0c0.1,0.5,0.5,1,1.1,1c0.6,0,1.1-0.5,1.1-1.1
		c0-0.2-0.1-0.4-0.2-0.5v0c0,0,0-0.1-0.1-0.1c0-0.1-0.1-0.1-0.1-0.2C17.1,6,16.1,5.2,15,4.6C14.8,3.2,13.5,2,12,2
		c-1.5,0-2.8,1.2-3,2.6c-2.4,1.1-4,3.5-4,6.2V15h0l-1.8,1.8C3.1,16.9,3,17.2,3,17.4h0V19c0,0.5,0.5,1,1,1h16c0.5,0,1-0.5,1-1
		S20.5,18,20,18z M12,3.8c0.7,0,1.2,0.5,1.2,1.2c0,0.7-0.5,1.2-1.2,1.2S10.8,5.7,10.8,5C10.8,4.3,11.3,3.8,12,3.8z"/>
	<path class="st0" d="M18.4,13l2.4-2.4c0.4-0.4,0.4-1,0-1.4c-0.4-0.4-1-0.4-1.4,0L17,11.6l-2.4-2.4c-0.4-0.4-1-0.4-1.4,0
		c-0.4,0.4-0.4,1,0,1.4l2.4,2.4l-2.4,2.4c-0.4,0.4-0.4,1,0,1.4c0.4,0.4,1,0.4,1.4,0l2.4-2.4l2.4,2.4c0.4,0.4,1,0.4,1.4,0
		c0.4-0.4,0.4-1,0-1.4L18.4,13z"/>
</g>
</svg>
