<?xml version="1.0" encoding="utf-8"?>
<!-- Generator: Adobe Illustrator 21.0.0, SVG Export Plug-In . SVG Version: 6.00 Build 0)  -->
<svg version="1.1" id="图层_1" xmlns="http://www.w3.org/2000/svg" xmlns:xlink="http://www.w3.org/1999/xlink" x="0px" y="0px"
	 viewBox="0 0 24 24" style="enable-background:new 0 0 24 24;" xml:space="preserve">
<style type="text/css">
	.st0{fill:#C7D6DE;}
</style>
<g>
	<polygon class="st0" points="16.1,14 10,9.9 10,18.1 	"/>
	<path class="st0" d="M13,20H4V8h16v4c0,0.6,0.4,1,1,1s1-0.4,1-1V3c0-0.5-0.5-1-1-1H3C2.5,2,2,2.5,2,3v18c0,0.5,0.5,1,1,1h10
		c0.6,0,1-0.4,1-1C14,20.4,13.6,20,13,20z M20,4v2H4V4H20z"/>
	<path class="st0" d="M21.4,19l2.4-2.4c0.4-0.4,0.4-1,0-1.4c-0.4-0.4-1-0.4-1.4,0L20,17.6l-2.4-2.4c-0.4-0.4-1-0.4-1.4,0
		c-0.4,0.4-0.4,1,0,1.4l2.4,2.4l-2.4,2.4c-0.4,0.4-0.4,1,0,1.4c0.4,0.4,1,0.4,1.4,0l2.4-2.4l2.4,2.4c0.4,0.4,1,0.4,1.4,0
		c0.4-0.4,0.4-1,0-1.4L21.4,19z"/>
</g>
</svg>
