<svg xmlns="http://www.w3.org/2000/svg" width="20" height="20" viewBox="0 0 20 20"><defs><style>.a{fill:#55616d;}.b{fill:none;}</style></defs><g transform="translate(-6.454 -6.454)"><path class="a" d="M-1799.546-185.546h-10a3,3,0,0,1-3-3v-10a3,3,0,0,1,3-3h10a3,3,0,0,1,3,3v10A3,3,0,0,1-1799.546-185.546Zm-6.76-12a.912.912,0,0,0-.91.909v6.183a.912.912,0,0,0,.911.909.9.9,0,0,0,.532-.176l4.226-3.092a.9.9,0,0,0,.372-.732.9.9,0,0,0-.372-.732l-4.226-3.092A.9.9,0,0,0-1806.305-197.546Z" transform="translate(1821 210)"/><rect class="b" width="20" height="20" transform="translate(6.454 6.454)"/></g></svg>