<?xml version="1.0" encoding="utf-8"?>
<!-- Generator: Adobe Illustrator 21.0.0, SVG Export Plug-In . SVG Version: 6.00 Build 0)  -->
<svg version="1.1" id="图层_1" xmlns="http://www.w3.org/2000/svg" xmlns:xlink="http://www.w3.org/1999/xlink" x="0px" y="0px"
	 viewBox="0 0 24 24" style="enable-background:new 0 0 24 24;" xml:space="preserve">
<style type="text/css">
	.st0{fill:#C7D6DE;}
	.st1{fill:none;}
</style>
<g>
	<path class="st0" d="M16.4,12.3L12,16.7l-4.4-4.4c-0.4-0.4-1-0.4-1.3,0c-0.4,0.4-0.4,1,0,1.3l5,5c0.4,0.4,1,0.4,1.3,0l5-5
		c0.4-0.4,0.4-1,0-1.3C17.4,11.9,16.7,11.9,16.4,12.3z"/>
	<path class="st0" d="M11.3,11.7c0.4,0.4,1,0.4,1.3,0l5-5c0.4-0.4,0.4-1,0-1.3c-0.4-0.4-1-0.4-1.3,0L12,9.7L7.6,5.3
		c-0.4-0.4-1-0.4-1.3,0c-0.4,0.4-0.4,1,0,1.3L11.3,11.7z"/>
</g>
<rect class="st1" width="24" height="24"/>
</svg>
