<?xml version="1.0" encoding="utf-8"?>
<!-- Generator: Adobe Illustrator 21.0.0, SVG Export Plug-In . SVG Version: 6.00 Build 0)  -->
<svg version="1.1" id="图层_1" xmlns="http://www.w3.org/2000/svg" xmlns:xlink="http://www.w3.org/1999/xlink" x="0px" y="0px"
	 viewBox="0 0 24 24" style="enable-background:new 0 0 24 24;" xml:space="preserve">
<style type="text/css">
	.st0{fill:none;}
	.st1{fill:#C7D6DE;}
</style>
<rect class="st0" width="24" height="24"/>
<path class="st1" d="M19.2,9.9l-5.7-5.7c-0.4-0.4-1-0.4-1.4,0L9.3,8.5L4.3,9.2c-0.4,0.4-0.4,1,0,1.4l3.5,3.5l-4.2,4.2
	c-0.4,0.4-0.4,1,0,1.4c0.4,0.4,1,0.4,1.4,0l4.2-4.2l3.5,3.5c0.4,0.4,1,0.4,1.4,0l0.7-4.9l4.2-2.8C19.6,11,19.6,10.3,19.2,9.9z
	 M13.5,12.8l-0.7,3.5l-5.7-5.7l3.5-0.7l2.1-3.5l4.2,4.2L13.5,12.8z"/>
</svg>
