<?xml version="1.0" encoding="utf-8"?>
<!-- Generator: Adobe Illustrator 21.0.0, SVG Export Plug-In . SVG Version: 6.00 Build 0)  -->
<svg version="1.1" id="图层_1" xmlns="http://www.w3.org/2000/svg" xmlns:xlink="http://www.w3.org/1999/xlink" x="0px" y="0px"
	 viewBox="0 0 24 24" style="enable-background:new 0 0 24 24;" xml:space="preserve">
<style type="text/css">
	.st0{fill:#C7D6DE;}
	.st1{fill:none;}
</style>
<path class="st0" d="M20,7l-5,1l-4-3c-0.5,0-1,0.5-1,1v5H4c-0.5,0-1,0.5-1,1s0.5,1,1,1h6v5c0,0.5,0.5,1,1,1l4-3l5,1c0.5,0,1-0.5,1-1
	V8C21,7.5,20.5,7,20,7z M19,15l-4-1l-3,2V8l3,2l4-1V15z"/>
<rect class="st1" width="24" height="24"/>
</svg>
