<?xml version="1.0" encoding="utf-8"?>
<!-- Generator: Adobe Illustrator 27.7.0, SVG Export Plug-In . SVG Version: 6.00 Build 0)  -->
<svg version="1.1" id="图层_1" xmlns="http://www.w3.org/2000/svg" xmlns:xlink="http://www.w3.org/1999/xlink" x="0px" y="0px"
	 viewBox="0 0 48 48" style="enable-background:new 0 0 48 48;" xml:space="preserve">
<style type="text/css">
	.st0{fill:none;}
	.st1{fill:#BEBEBE;}
</style>
<rect class="st0" width="48" height="48"/>
<g>
	<path class="st1" d="M38,12H10c-0.6,0-1,0.4-1,1v22c0,0.6,0.4,1,1,1h28c0.6,0,1-0.4,1-1V13C39,12.4,38.6,12,38,12z M37,34H11V14h26
		V34z"/>
	<path class="st1" d="M36,15H12v18h24V15z M18,18.2c1.2,0,2.2,1,2.2,2.2s-1,2.2-2.2,2.2c-1.2,0-2.2-1-2.2-2.2S16.8,18.2,18,18.2z
		 M14.3,31c0.4-1.2,1.1-3.3,1.8-4.6c1.1-2,3.7-2,4.7,0c0.3,0.6,1.1,2.8,1.4,3.4c0.3-1.2,1.7-4.5,2.3-5.8c1.9-4,3.2-3.8,3.2-3.8
		s3.2-1.2,5.3,4.8c1.8,5.1,2.1,6,2.1,6H14.3z"/>
</g>
</svg>
