<?xml version="1.0" encoding="utf-8"?>
<!-- Generator: Adobe Illustrator 27.7.0, SVG Export Plug-In . SVG Version: 6.00 Build 0)  -->
<svg version="1.1" id="图层_1" xmlns="http://www.w3.org/2000/svg" xmlns:xlink="http://www.w3.org/1999/xlink" x="0px" y="0px"
	 viewBox="0 0 48 48" style="enable-background:new 0 0 48 48;" xml:space="preserve">
<style type="text/css">
	.st0{fill:none;}
	.st1{fill:#BEBEBE;}
</style>
<rect class="st0" width="48" height="48"/>
<path class="st1" d="M38,14v-1H10v1h3v2h-3v16h3v2h-3v1h28v-1h-3v-2h3V16h-3v-2H38z M25,14h3v2h-3V14z M20,14h3v2h-3V14z M18,34h-3
	v-2h3V34z M18,16h-3v-2h3V16z M23,34h-3v-2h3V34z M28,34h-3v-2h3V34z M28.8,24.8L22.6,29c-0.7,0.4-1.6,0-1.6-0.8v-8.3
	c0-0.8,0.9-1.3,1.6-0.8l6.2,4.1C29.3,23.6,29.3,24.4,28.8,24.8z M33,34h-3v-2h3V34z M33,16h-3v-2h3V16z"/>
</svg>
