<?xml version="1.0" encoding="utf-8"?>
<!-- Generator: Adobe Illustrator 27.7.0, SVG Export Plug-In . SVG Version: 6.00 Build 0)  -->
<svg version="1.1" id="图层_1" xmlns="http://www.w3.org/2000/svg" xmlns:xlink="http://www.w3.org/1999/xlink" x="0px" y="0px"
	 viewBox="0 0 24 24" style="enable-background:new 0 0 24 24;" xml:space="preserve">
<style type="text/css">
	.st0{fill:none;}
	.st1{fill:#FFFFFF;}
</style>
<rect class="st0" width="24" height="24"/>
<g>
	<g>
		<path class="st1" d="M11.9,19.1c-0.6,0-1.2-0.1-1.9-0.2c-3.8-1-6-4.9-5-8.7c0.5-1.8,1.7-3.4,3.3-4.3c1.6-1,3.6-1.2,5.4-0.7
			c0.5,0.1,0.8,0.7,0.7,1.2c-0.1,0.5-0.7,0.9-1.2,0.7c-1.3-0.4-2.7-0.2-3.9,0.5c-1.2,0.7-2,1.8-2.4,3.1c-0.7,2.7,0.9,5.5,3.6,6.3
			c1.3,0.4,2.7,0.2,3.9-0.5s2-1.8,2.4-3.1c0.1-0.5,0.7-0.8,1.2-0.7c0.5,0.1,0.8,0.7,0.7,1.2c-0.5,1.8-1.7,3.4-3.3,4.3
			C14.3,18.8,13.1,19.1,11.9,19.1z"/>
	</g>
	<g>
		<path class="st1" d="M12.2,14.6c-0.3,0-0.5-0.1-0.7-0.3l-2.7-2.7c-0.4-0.4-0.4-1,0-1.4s1-0.4,1.4,0l1.9,1.9l5.4-5.4
			c0.4-0.4,1-0.4,1.4,0s0.4,1,0,1.4l-6.1,6.1C12.7,14.5,12.4,14.6,12.2,14.6z"/>
	</g>
</g>
</svg>
