<?xml version="1.0" encoding="utf-8"?>
<!-- Generator: Adobe Illustrator 27.7.0, SVG Export Plug-In . SVG Version: 6.00 Build 0)  -->
<svg version="1.1" id="图层_1" xmlns="http://www.w3.org/2000/svg" xmlns:xlink="http://www.w3.org/1999/xlink" x="0px" y="0px"
	 viewBox="0 0 24 24" style="enable-background:new 0 0 24 24;" xml:space="preserve">
<style type="text/css">
	.st0{fill:none;}
	.st1{fill:#FFFFFF;}
</style>
<rect class="st0" width="24" height="24"/>
<g>
	<g>
		<path class="st1" d="M18,19H6c-1.1,0-2-0.9-2-2V7c0-1.1,0.9-2,2-2h12c1.1,0,2,0.9,2,2v10C20,18.1,19.1,19,18,19z M6,7v10h12l0-10
			H6z"/>
	</g>
	<g>
		<path class="st1" d="M12,14c-0.2,0-0.4,0-0.5-0.1l-7-4.3C4,9.3,3.9,8.7,4.1,8.2C4.4,7.8,5,7.6,5.5,7.9l6.5,3.9l6.5-3.9
			c0.5-0.3,1.1-0.1,1.4,0.3c0.3,0.5,0.1,1.1-0.3,1.4l-7,4.3C12.4,14,12.2,14,12,14z"/>
	</g>
</g>
</svg>
