<?xml version="1.0" encoding="utf-8"?>
<!-- Generator: Adobe Illustrator 27.7.0, SVG Export Plug-In . SVG Version: 6.00 Build 0)  -->
<svg version="1.1" id="图层_1" xmlns="http://www.w3.org/2000/svg" xmlns:xlink="http://www.w3.org/1999/xlink" x="0px" y="0px"
	 viewBox="0 0 20 20" style="enable-background:new 0 0 20 20;" xml:space="preserve">
<style type="text/css">
	.st0{fill:none;}
	.st1{fill:#FFBF0B;}
	.st2{fill:#FFFFFF;}
</style>
<rect class="st0" width="20" height="20"/>
<g>
	<path class="st1" d="M18.9,18.9H1.1c-0.8,0-1.3-0.9-0.9-1.6L9.1,1.2c0.4-0.7,1.5-0.7,1.9,0l8.9,16.1C20.3,18,19.7,18.9,18.9,18.9z"
		/>
	<path class="st2" d="M10,13.6L10,13.6c-0.7,0-1.2-0.5-1.2-1.2V7.6c0-0.7,0.5-1.2,1.2-1.2h0c0.7,0,1.2,0.5,1.2,1.2v4.8
		C11.2,13.1,10.7,13.6,10,13.6z"/>
	<path class="st2" d="M10.4,17H9.6C9.3,17,9,16.7,9,16.4v-0.8C9,15.3,9.3,15,9.6,15h0.8c0.3,0,0.6,0.3,0.6,0.6v0.8
		C11,16.7,10.7,17,10.4,17z"/>
</g>
</svg>
