<?xml version="1.0" encoding="utf-8"?>
<!-- Generator: Adobe Illustrator 21.0.0, SVG Export Plug-In . SVG Version: 6.00 Build 0)  -->
<svg version="1.1" id="图层_1" xmlns="http://www.w3.org/2000/svg" xmlns:xlink="http://www.w3.org/1999/xlink" x="0px" y="0px"
	 viewBox="0 0 24 24" style="enable-background:new 0 0 24 24;" xml:space="preserve">
<style type="text/css">
	.st0{fill-rule:evenodd;clip-rule:evenodd;fill:#FFFFFF;}
	.st1{fill:none;}
</style>
<g>
	<path class="st0" d="M17,11h-4V7c0-0.6-0.4-1-1-1c-0.6,0-1,0.4-1,1v4H7c-0.6,0-1,0.4-1,1c0,0.6,0.4,1,1,1h4v4c0,0.6,0.4,1,1,1
		c0.6,0,1-0.4,1-1v-4h4c0.6,0,1-0.4,1-1C18,11.4,17.6,11,17,11z"/>
</g>
<rect class="st1" width="24" height="24"/>
</svg>
