<svg xmlns="http://www.w3.org/2000/svg" width="48" height="48" viewBox="0 0 48 48"><defs><style>.a{fill:rgba(255,255,255,0.3);}.b{fill:none;}</style></defs><g transform="translate(-0.614 -0.187)"><path class="a" d="M15978.614,12383.187a21,21,0,1,1,14.849-6.151A20.864,20.864,0,0,1,15978.614,12383.187Zm-7.128-29.628a1.5,1.5,0,0,0-1.06,2.561l6.067,6.067-6.067,6.067a1.5,1.5,0,1,0,2.12,2.12l6.067-6.067,6.066,6.067a1.5,1.5,0,1,0,2.124-2.12l-6.066-6.067,6.066-6.067a1.5,1.5,0,0,0-2.12-2.124l-6.066,6.071-6.071-6.071A1.5,1.5,0,0,0,15971.486,12353.559Z" transform="translate(-15954 -12338)"/><rect class="b" width="48" height="48" transform="translate(0.614 0.187)"/></g></svg>