<svg xmlns="http://www.w3.org/2000/svg" width="96" height="24.002" viewBox="0 0 96 24.002"><defs><style>.a{fill:#55616d;}.b,.c,.e,.g{fill:none;}.b{stroke:#55616d;}.b,.e,.g{stroke-width:2px;}.d{fill:#818c98;}.e{stroke:#818c98;}.f{fill:#438dec;}.g{stroke:#438dec;}.h{opacity:0.3;}</style></defs><g transform="translate(-303.999 -557.999)"><g transform="translate(299.352 553.352)"><path class="a" d="M26.635,27.7,28.7,25.637l3.619,3.618a1.462,1.462,0,0,1-2.067,2.068Z" transform="translate(-6.599 -6.33)"/><circle class="b" cx="6.945" cy="6.945" r="6.945" transform="translate(8.972 8.241)"/><rect class="c" width="24" height="24" transform="translate(4.648 4.648)"/><path class="a" d="M-2.708.385A3.373,3.373,0,0,1-3.6.277,2.578,2.578,0,0,1-4.3-.028,2.434,2.434,0,0,1-4.84-.484l.686-.936a2.922,2.922,0,0,0,.61.431,1.453,1.453,0,0,0,.686.171,1.523,1.523,0,0,0,.506-.075.7.7,0,0,0,.33-.226.581.581,0,0,0,.117-.368.748.748,0,0,0-.125-.439A.819.819,0,0,0-2.5-2.2a3.909,3.909,0,0,0-.995-.1V-3.352a2.749,2.749,0,0,0,.836-.1.865.865,0,0,0,.431-.272.64.64,0,0,0,.13-.4.6.6,0,0,0-.184-.472.769.769,0,0,0-.527-.163,1.191,1.191,0,0,0-.568.138,2.889,2.889,0,0,0-.543.389l-.752-.911a3.9,3.9,0,0,1,.907-.568,2.5,2.5,0,0,1,1.024-.209,2.959,2.959,0,0,1,1.124.2,1.635,1.635,0,0,1,.744.573,1.549,1.549,0,0,1,.263.911,1.286,1.286,0,0,1-.251.794A1.761,1.761,0,0,1-1.6-2.9v.042a2,2,0,0,1,.614.3,1.409,1.409,0,0,1,.426.489,1.447,1.447,0,0,1,.155.686,1.5,1.5,0,0,1-.318.966,1.971,1.971,0,0,1-.84.6A3.1,3.1,0,0,1-2.708.385ZM.1.268V-5.96H1.89a3.971,3.971,0,0,1,1.659.322,2.388,2.388,0,0,1,1.1,1,3.489,3.489,0,0,1,.393,1.764A3.622,3.622,0,0,1,4.653-1.1,2.426,2.426,0,0,1,3.574-.066a3.629,3.629,0,0,1-1.6.334Zm1.5-1.2h.2a2.142,2.142,0,0,0,.89-.176,1.257,1.257,0,0,0,.606-.6,2.586,2.586,0,0,0,.217-1.162,2.5,2.5,0,0,0-.217-1.154A1.207,1.207,0,0,0,2.688-4.6a2.285,2.285,0,0,0-.89-.163H1.6Z" transform="translate(15.816 17.973)"/></g><g transform="translate(323.352 553.352)"><path class="d" d="M26.635,27.7,28.7,25.637l3.619,3.618a1.462,1.462,0,0,1-2.067,2.068Z" transform="translate(-6.599 -6.33)"/><circle class="e" cx="6.945" cy="6.945" r="6.945" transform="translate(8.972 8.241)"/><rect class="c" width="24" height="24" transform="translate(4.648 4.648)"/><path class="d" d="M-2.708.385A3.373,3.373,0,0,1-3.6.277,2.578,2.578,0,0,1-4.3-.028,2.434,2.434,0,0,1-4.84-.484l.686-.936a2.922,2.922,0,0,0,.61.431,1.453,1.453,0,0,0,.686.171,1.523,1.523,0,0,0,.506-.075.7.7,0,0,0,.33-.226.581.581,0,0,0,.117-.368.748.748,0,0,0-.125-.439A.819.819,0,0,0-2.5-2.2a3.909,3.909,0,0,0-.995-.1V-3.352a2.749,2.749,0,0,0,.836-.1.865.865,0,0,0,.431-.272.64.64,0,0,0,.13-.4.6.6,0,0,0-.184-.472.769.769,0,0,0-.527-.163,1.191,1.191,0,0,0-.568.138,2.889,2.889,0,0,0-.543.389l-.752-.911a3.9,3.9,0,0,1,.907-.568,2.5,2.5,0,0,1,1.024-.209,2.959,2.959,0,0,1,1.124.2,1.635,1.635,0,0,1,.744.573,1.549,1.549,0,0,1,.263.911,1.286,1.286,0,0,1-.251.794A1.761,1.761,0,0,1-1.6-2.9v.042a2,2,0,0,1,.614.3,1.409,1.409,0,0,1,.426.489,1.447,1.447,0,0,1,.155.686,1.5,1.5,0,0,1-.318.966,1.971,1.971,0,0,1-.84.6A3.1,3.1,0,0,1-2.708.385ZM.1.268V-5.96H1.89a3.971,3.971,0,0,1,1.659.322,2.388,2.388,0,0,1,1.1,1,3.489,3.489,0,0,1,.393,1.764A3.622,3.622,0,0,1,4.653-1.1,2.426,2.426,0,0,1,3.574-.066a3.629,3.629,0,0,1-1.6.334Zm1.5-1.2h.2a2.142,2.142,0,0,0,.89-.176,1.257,1.257,0,0,0,.606-.6,2.586,2.586,0,0,0,.217-1.162,2.5,2.5,0,0,0-.217-1.154A1.207,1.207,0,0,0,2.688-4.6a2.285,2.285,0,0,0-.89-.163H1.6Z" transform="translate(15.816 17.974)"/></g><g transform="translate(347.352 553.354)"><path class="f" d="M26.635,27.7,28.7,25.637l3.619,3.618a1.462,1.462,0,0,1-2.067,2.068Z" transform="translate(-6.599 -6.33)"/><circle class="g" cx="6.945" cy="6.945" r="6.945" transform="translate(8.972 8.241)"/><rect class="c" width="24" height="24" transform="translate(4.648 4.648)"/><path class="f" d="M-2.708.385A3.373,3.373,0,0,1-3.6.277,2.578,2.578,0,0,1-4.3-.028,2.434,2.434,0,0,1-4.84-.484l.686-.936a2.922,2.922,0,0,0,.61.431,1.453,1.453,0,0,0,.686.171,1.523,1.523,0,0,0,.506-.075.7.7,0,0,0,.33-.226.581.581,0,0,0,.117-.368.748.748,0,0,0-.125-.439A.819.819,0,0,0-2.5-2.2a3.909,3.909,0,0,0-.995-.1V-3.352a2.749,2.749,0,0,0,.836-.1.865.865,0,0,0,.431-.272.64.64,0,0,0,.13-.4.6.6,0,0,0-.184-.472.769.769,0,0,0-.527-.163,1.191,1.191,0,0,0-.568.138,2.889,2.889,0,0,0-.543.389l-.752-.911a3.9,3.9,0,0,1,.907-.568,2.5,2.5,0,0,1,1.024-.209,2.959,2.959,0,0,1,1.124.2,1.635,1.635,0,0,1,.744.573,1.549,1.549,0,0,1,.263.911,1.286,1.286,0,0,1-.251.794A1.761,1.761,0,0,1-1.6-2.9v.042a2,2,0,0,1,.614.3,1.409,1.409,0,0,1,.426.489,1.447,1.447,0,0,1,.155.686,1.5,1.5,0,0,1-.318.966,1.971,1.971,0,0,1-.84.6A3.1,3.1,0,0,1-2.708.385ZM.1.268V-5.96H1.89a3.971,3.971,0,0,1,1.659.322,2.388,2.388,0,0,1,1.1,1,3.489,3.489,0,0,1,.393,1.764A3.622,3.622,0,0,1,4.653-1.1,2.426,2.426,0,0,1,3.574-.066a3.629,3.629,0,0,1-1.6.334Zm1.5-1.2h.2a2.142,2.142,0,0,0,.89-.176,1.257,1.257,0,0,0,.606-.6,2.586,2.586,0,0,0,.217-1.162,2.5,2.5,0,0,0-.217-1.154A1.207,1.207,0,0,0,2.688-4.6a2.285,2.285,0,0,0-.89-.163H1.6Z" transform="translate(15.816 17.972)"/></g><g class="h" transform="translate(371.352 553.354)"><path class="a" d="M26.635,27.7,28.7,25.637l3.619,3.618a1.462,1.462,0,0,1-2.067,2.068Z" transform="translate(-6.599 -6.33)"/><circle class="b" cx="6.945" cy="6.945" r="6.945" transform="translate(8.972 8.241)"/><rect class="c" width="24" height="24" transform="translate(4.648 4.648)"/><path class="a" d="M-2.708.385A3.373,3.373,0,0,1-3.6.277,2.578,2.578,0,0,1-4.3-.028,2.434,2.434,0,0,1-4.84-.484l.686-.936a2.922,2.922,0,0,0,.61.431,1.453,1.453,0,0,0,.686.171,1.523,1.523,0,0,0,.506-.075.7.7,0,0,0,.33-.226.581.581,0,0,0,.117-.368.748.748,0,0,0-.125-.439A.819.819,0,0,0-2.5-2.2a3.909,3.909,0,0,0-.995-.1V-3.352a2.749,2.749,0,0,0,.836-.1.865.865,0,0,0,.431-.272.64.64,0,0,0,.13-.4.6.6,0,0,0-.184-.472.769.769,0,0,0-.527-.163,1.191,1.191,0,0,0-.568.138,2.889,2.889,0,0,0-.543.389l-.752-.911a3.9,3.9,0,0,1,.907-.568,2.5,2.5,0,0,1,1.024-.209,2.959,2.959,0,0,1,1.124.2,1.635,1.635,0,0,1,.744.573,1.549,1.549,0,0,1,.263.911,1.286,1.286,0,0,1-.251.794A1.761,1.761,0,0,1-1.6-2.9v.042a2,2,0,0,1,.614.3,1.409,1.409,0,0,1,.426.489,1.447,1.447,0,0,1,.155.686,1.5,1.5,0,0,1-.318.966,1.971,1.971,0,0,1-.84.6A3.1,3.1,0,0,1-2.708.385ZM.1.268V-5.96H1.89a3.971,3.971,0,0,1,1.659.322,2.388,2.388,0,0,1,1.1,1,3.489,3.489,0,0,1,.393,1.764A3.622,3.622,0,0,1,4.653-1.1,2.426,2.426,0,0,1,3.574-.066a3.629,3.629,0,0,1-1.6.334Zm1.5-1.2h.2a2.142,2.142,0,0,0,.89-.176,1.257,1.257,0,0,0,.606-.6,2.586,2.586,0,0,0,.217-1.162,2.5,2.5,0,0,0-.217-1.154A1.207,1.207,0,0,0,2.688-4.6a2.285,2.285,0,0,0-.89-.163H1.6Z" transform="translate(15.816 17.972)"/></g></g></svg>