<?xml version="1.0" encoding="utf-8"?>
<!-- Generator: Adobe Illustrator 27.5.0, SVG Export Plug-In . SVG Version: 6.00 Build 0)  -->
<svg version="1.1" id="图层_1" xmlns="http://www.w3.org/2000/svg" xmlns:xlink="http://www.w3.org/1999/xlink" x="0px" y="0px"
	 viewBox="0 0 32 32" style="enable-background:new 0 0 32 32;" xml:space="preserve">
<style type="text/css">
	.st0{fill:#FFFFFF;}
</style>
<path class="st0" d="M23.9,17H8.1C7.5,17,7,16.5,7,15.9s0.5-1.1,1.1-1.1h15.9c0.6,0,1.1,0.5,1.1,1.1S24.5,17,23.9,17L23.9,17z"/>
<path class="st0" d="M16.1,25c-0.6,0-1.1-0.5-1.1-1l0,0v-16C15,7.5,15.5,7,16.1,7c0.6,0,1.1,0.5,1.1,1.1l0,0v16
	C17,24.4,16.6,24.9,16.1,25L16.1,25z"/>
</svg>
