<svg xmlns="http://www.w3.org/2000/svg" width="20" height="20" viewBox="0 0 20 20"><defs><style>.a{fill:#55616d;}.b{fill:none;}</style></defs><g transform="translate(-2.493 -2.493)"><path class="a" d="M14.037,13.976a.989.989,0,0,1-1.4,0l-1.914-1.914-.6,1.3a.6.6,0,0,1-1.15-.208l-.3-3.832a.6.6,0,0,1,.649-.649l3.795.295a.6.6,0,0,1,.2,1.151l-1.2.545,1.914,1.914a.99.99,0,0,1,0,1.4" transform="translate(-3.019 -3.018)"/><path class="a" d="M26.95,27.64l-3.795-.295a.6.6,0,0,1-.2-1.152l1.2-.545-1.914-1.914a.991.991,0,1,1,1.4-1.4l1.915,1.914.6-1.3a.6.6,0,0,1,1.15.208l.3,3.832a.6.6,0,0,1-.649.649" transform="translate(-8.277 -8.316)"/><path class="a" d="M22.234,12.576l1.914-1.914-1.2-.545a.6.6,0,0,1,.2-1.152l3.795-.295a.6.6,0,0,1,.649.649l-.3,3.832a.6.6,0,0,1-1.15.208l-.6-1.3-1.914,1.914a.991.991,0,1,1-1.4-1.4" transform="translate(-8.277 -3.018)"/><path class="a" d="M8.671,26.991l.3-3.832a.6.6,0,0,1,1.149-.208l.6,1.3,1.914-1.915a.991.991,0,0,1,1.4,1.4l-1.914,1.915,1.2.545a.6.6,0,0,1-.2,1.152l-3.795.294a.6.6,0,0,1-.649-.649" transform="translate(-3.018 -8.316)"/><rect class="b" width="20" height="20" transform="translate(2.493 2.493)"/></g></svg>