<svg xmlns="http://www.w3.org/2000/svg" width="20" height="20" viewBox="0 0 20 20"><defs><style>.a{fill:none;}.b{fill:#55616d;}</style></defs><g transform="translate(-1.357 -1.357)"><rect class="a" width="20" height="20" transform="translate(1.357 1.357)"/><path class="b" d="M5.534,14.732A7.466,7.466,0,0,0,7.5,15H7.6a2.254,2.254,0,0,0,2-3.228l-.148-.311a1.5,1.5,0,0,1,2-2h0l.31.149A2.255,2.255,0,0,0,15,7.6a7.421,7.421,0,0,0-.265-2.07A7.5,7.5,0,0,0,.072,8.548a7.552,7.552,0,0,0,5.462,6.184M10.124,3A1.125,1.125,0,1,1,9,4.124,1.125,1.125,0,0,1,10.124,3m-3.75-.75A1.125,1.125,0,1,1,5.249,3.374,1.125,1.125,0,0,1,6.374,2.249M5.249,10.128A1.125,1.125,0,1,1,4.125,9a1.125,1.125,0,0,1,1.125,1.125M3.375,5.253A1.125,1.125,0,1,1,2.249,6.378,1.125,1.125,0,0,1,3.375,5.253" transform="translate(3.859 3.859)"/></g></svg>