<svg xmlns="http://www.w3.org/2000/svg" width="20" height="20" viewBox="0 0 20 20"><defs><style>.a{fill:#55616d;}.b{fill:none;}</style></defs><g transform="translate(-4.427 -4.427)"><path class="a" d="M11.2,21h9.618a1.2,1.2,0,0,1,1.2,1.2v4.809a1.2,1.2,0,0,1-1.2,1.2H11.2a1.2,1.2,0,0,1-1.2-1.2V22.2A1.2,1.2,0,0,1,11.2,21" transform="translate(-2.787 -6.874)"/><path class="a" d="M32,23.713l1.657-.414a.6.6,0,0,1,.747.583V26.55a.6.6,0,0,1-.747.583L32,26.719Z" transform="translate(-11.562 -7.783)"/><path class="a" d="M14.4,12.5a.9.9,0,1,0,.9.9.9.9,0,0,0-.9-.9" transform="translate(-4.183 -3.484)"/><path class="a" d="M12.607,8a3.607,3.607,0,1,0,3.607,3.607A3.607,3.607,0,0,0,12.607,8m0,5.711a2.1,2.1,0,1,1,2.1-2.1,2.106,2.106,0,0,1-2.1,2.1" transform="translate(-2.388 -1.689)"/><path class="a" d="M24.705,11a2.705,2.705,0,1,0,2.705,2.705A2.705,2.705,0,0,0,24.705,11m0,3.908a1.2,1.2,0,1,1,1.2-1.2,1.2,1.2,0,0,1-1.2,1.2" transform="translate(-7.573 -2.885)"/><rect class="b" width="20" height="20" transform="translate(4.427 4.427)"/></g></svg>