<svg xmlns="http://www.w3.org/2000/svg" width="20" height="20" viewBox="0 0 20 20"><defs><style>.a{fill:#55616d;stroke:rgba(0,0,0,0);stroke-miterlimit:10;}.b{fill:none;}</style></defs><g transform="translate(-2.188 -2.188)"><path class="a" d="M14.2,13.013H1.188A1.188,1.188,0,0,1,0,11.829V1.181A1.186,1.186,0,0,1,1.188,0H14.2a1.183,1.183,0,0,1,1.184,1.181V11.829A1.185,1.185,0,0,1,14.2,13.013ZM3.249,7.871l-.706.85a3.207,3.207,0,0,0,1.04.668,3.308,3.308,0,0,0,1.21.231,2.621,2.621,0,0,0,1.223-.258A1.954,1.954,0,0,0,6.79,8.68a1.721,1.721,0,0,0,.269-.927A1.693,1.693,0,0,0,6.9,6.987a1.557,1.557,0,0,0-.433-.539,2.449,2.449,0,0,0-.653-.376L5.01,5.746l-.022-.01-.023-.01c-.154-.066-.3-.128-.428-.193a1.174,1.174,0,0,1-.35-.243.5.5,0,0,1-.137-.36.555.555,0,0,1,.239-.478,1.083,1.083,0,0,1,.638-.171,1.754,1.754,0,0,1,.71.133,2.3,2.3,0,0,1,.606.376l.622-.767a2.477,2.477,0,0,0-.881-.593,2.748,2.748,0,0,0-1.058-.208,2.5,2.5,0,0,0-1.1.235,1.935,1.935,0,0,0-.761.637A1.574,1.574,0,0,0,2.793,5a1.53,1.53,0,0,0,.188.775,1.767,1.767,0,0,0,.474.538,2.744,2.744,0,0,0,.6.338l.82.356c.174.069.335.142.481.217a1.24,1.24,0,0,1,.33.246.545.545,0,0,1,.117.369.615.615,0,0,1-.25.52,1.2,1.2,0,0,1-.732.189A2.024,2.024,0,0,1,4,8.368,2.7,2.7,0,0,1,3.249,7.871Zm4.9-4.543h0V9.5H9.909a3.394,3.394,0,0,0,1.583-.346,2.383,2.383,0,0,0,1.032-1.036,3.657,3.657,0,0,0,.367-1.734,3.575,3.575,0,0,0-.371-1.715,2.341,2.341,0,0,0-1.048-1.009,3.715,3.715,0,0,0-1.632-.335ZM9.758,8.5H9.387V4.322h.371a2.291,2.291,0,0,1,1,.205,1.356,1.356,0,0,1,.645.657,2.671,2.671,0,0,1,.225,1.2,2.793,2.793,0,0,1-.225,1.223,1.4,1.4,0,0,1-.645.683A2.233,2.233,0,0,1,9.758,8.5Z" transform="translate(4.497 5.683)"/><rect class="b" width="20" height="20" transform="translate(2.188 2.188)"/></g></svg>