<svg xmlns="http://www.w3.org/2000/svg" width="20" height="20" viewBox="0 0 20 20"><defs><style>.a{fill:#55616d;}.b{fill:none;}</style></defs><g transform="translate(-4.36 -4.36)"><path class="a" d="M17.025,5.307H15.978l-.989-1.653a1.224,1.224,0,0,0-1.051-.6H8.149a1.224,1.224,0,0,0-1.051.6L6.109,5.307H3.864A1.2,1.2,0,0,0,2.669,6.5v9.392a1.2,1.2,0,0,0,1.195,1.195H17.026a1.2,1.2,0,0,0,1.195-1.195V6.5a1.2,1.2,0,0,0-1.2-1.2M11.043,15.89a5.383,5.383,0,1,1,5.383-5.383,5.383,5.383,0,0,1-5.383,5.383" transform="translate(3.915 3.85)"/><path class="a" d="M12,7.693a3.589,3.589,0,1,0,3.589,3.589A3.589,3.589,0,0,0,12,7.693Zm2.063,4.237a.6.6,0,0,1-.6-.6,1.517,1.517,0,0,0-1.514-1.514.6.6,0,1,1,0-1.2,2.714,2.714,0,0,1,2.71,2.711.6.6,0,0,1-.6.6" transform="translate(2.958 3.078)"/><path class="a" d="M3.984,2.886h1.2a.6.6,0,1,1,0,1.2h-1.2a.6.6,0,1,1,0-1.2" transform="translate(3.795 3.879)"/><rect class="b" width="20" height="20" transform="translate(4.36 4.36)"/></g></svg>