<svg xmlns="http://www.w3.org/2000/svg" width="20" height="20" viewBox="0 0 20 20"><defs><style>.a,.b{fill:#438dec;}.a{stroke:rgba(0,0,0,0);stroke-miterlimit:10;}.c{fill:none;}.d{fill:#ff0300;}</style></defs><g transform="translate(-4.427 -4.427)"><path class="a" d="M10.821,7.213H5.227L4.543,6a2.592,2.592,0,0,0,.277-.32,2.669,2.669,0,0,0,.464-1.589,2.548,2.548,0,0,0-.483-1.6A2.494,2.494,0,0,0,3.576,1.64a4.506,4.506,0,0,0-1.382-.2H0V1.2A1.2,1.2,0,0,1,1.2,0h9.618a1.2,1.2,0,0,1,1.2,1.2V6.013A1.2,1.2,0,0,1,10.821,7.213Z" transform="translate(7.213 14.127)"/><path class="b" d="M32,23.713l1.657-.414a.6.6,0,0,1,.747.583V26.55a.6.6,0,0,1-.747.583L32,26.719Z" transform="translate(-11.561 -7.783)"/><path class="b" d="M14.4,12.5a.9.9,0,1,0,.9.9.9.9,0,0,0-.9-.9" transform="translate(-4.183 -3.483)"/><path class="b" d="M12.607,8a3.607,3.607,0,1,0,3.607,3.607A3.607,3.607,0,0,0,12.607,8m0,5.711a2.1,2.1,0,1,1,2.1-2.1,2.106,2.106,0,0,1-2.1,2.1" transform="translate(-2.388 -1.689)"/><path class="b" d="M24.705,11a2.705,2.705,0,1,0,2.705,2.705A2.706,2.706,0,0,0,24.705,11m0,3.908a1.2,1.2,0,1,1,1.2-1.2,1.2,1.2,0,0,1-1.2,1.2" transform="translate(-7.573 -2.885)"/><rect class="c" width="20" height="20" transform="translate(4.427 4.427)"/><path class="d" d="M.86-1.675V-7.45H2.976a3.719,3.719,0,0,1,1.132.163,1.621,1.621,0,0,1,.818.562,1.762,1.762,0,0,1,.306,1.1,1.843,1.843,0,0,1-.306,1.1,1.765,1.765,0,0,1-.818.624,3.117,3.117,0,0,1-1.132.2H2.248v2.031ZM2.248-4.8h.62a1.166,1.166,0,0,0,.756-.213.752.752,0,0,0,.26-.616.6.6,0,0,0-.26-.566,1.493,1.493,0,0,0-.756-.155h-.62ZM3.976-1.675,2.728-4.062l.938-.907L5.527-1.675Z" transform="translate(6.426 23.851)"/></g></svg>