<svg xmlns="http://www.w3.org/2000/svg" width="20" height="20" viewBox="0 0 20 20"><defs><style>.a{fill:none;}.b{fill:#55616d;}</style></defs><g transform="translate(-2.188 -2.188)"><rect class="a" width="20" height="20" transform="translate(2.188 2.188)"/><path class="b" d="M19127.686,9844.729a.5.5,0,0,1-.494-.5v-2.166a3.994,3.994,0,0,1-3-3.871v-4a4.005,4.005,0,0,1,4-4h7a4.005,4.005,0,0,1,4,4v4a4,4,0,0,1-4,4h-3.719l-3.5,2.449A.51.51,0,0,1,19127.686,9844.729Zm8.205-12.042a.8.8,0,0,0-.8.8v5.4a.8.8,0,1,0,1.6,0v-5.4A.8.8,0,0,0,19135.891,9832.687Zm-6,0a.8.8,0,0,0-.8.8v5.4a.8.8,0,1,0,1.6,0v-5.4A.8.8,0,0,0,19129.891,9832.687Zm3.1,1.5a.8.8,0,0,0-.8.8v2.4a.8.8,0,0,0,1.6,0v-2.4A.8.8,0,0,0,19132.988,9834.189Zm-6,0a.8.8,0,0,0-.8.8v2.4a.8.8,0,0,0,1.6,0v-2.4A.8.8,0,0,0,19126.99,9834.189Z" transform="translate(-19119.5 -9824.5)"/></g></svg>