<svg xmlns="http://www.w3.org/2000/svg" width="20" height="20" viewBox="0 0 20 20"><defs><style>.a,.b{fill:#55616d;}.b{stroke:rgba(0,0,0,0);stroke-miterlimit:10;}.c{fill:none;}</style></defs><g transform="translate(-4.647 -4.646)"><path class="a" d="M20.205,12.227a8.287,8.287,0,0,0-14.448,0,2.163,2.163,0,0,0,0,2.112,8.288,8.288,0,0,0,14.448,0,2.163,2.163,0,0,0,0-2.112m-7.224,4.829a3.773,3.773,0,1,1,3.773-3.773,3.773,3.773,0,0,1-3.773,3.773" transform="translate(-0.202 1.365)"/><path class="a" d="M15.956,13.692a2.264,2.264,0,1,1-2.263-2.263,2.263,2.263,0,0,1,2.263,2.263" transform="translate(-0.913 0.955)"/><path class="b" d="M22.635,17.726l-3.2,2.339a.686.686,0,0,0,0,1.108l3.2,2.339a.686.686,0,0,0,1.091-.554V18.28a.686.686,0,0,0-1.091-.554" transform="translate(0.289 -5.971)"/><rect class="c" width="20" height="20" transform="translate(4.647 4.646)"/></g></svg>