<svg xmlns="http://www.w3.org/2000/svg" width="20" height="20" viewBox="0 0 20 20"><defs><style>.a{fill:#55616d;stroke:rgba(0,0,0,0);stroke-miterlimit:10;}.b{fill:none;}</style></defs><g transform="translate(-2.188 -2.188)"><path class="a" d="M14.2,13.018H1.188A1.188,1.188,0,0,1,0,11.833V1.185A1.188,1.188,0,0,1,1.188,0H14.2a1.185,1.185,0,0,1,1.184,1.184V11.833A1.186,1.186,0,0,1,14.2,13.018ZM8.509,3.333h0V9.507h1.758a3.4,3.4,0,0,0,1.582-.345,2.388,2.388,0,0,0,1.035-1.04,3.683,3.683,0,0,0,.364-1.731,3.583,3.583,0,0,0-.367-1.719,2.394,2.394,0,0,0-1.052-1A3.645,3.645,0,0,0,10.2,3.333Zm-5.074,3.5h0l2.328.009.012,2.667H6.99V3.34L5.765,3.333l.012,2.439H3.435V3.34L2.2,3.333l.007,6.174H3.435V6.832ZM10.119,8.5H9.743V4.323h.376a2.248,2.248,0,0,1,1,.205,1.406,1.406,0,0,1,.649.66,2.755,2.755,0,0,1,.225,1.2,2.865,2.865,0,0,1-.225,1.219,1.433,1.433,0,0,1-.649.684A2.154,2.154,0,0,1,10.119,8.5Z" transform="translate(4.497 5.681)"/><rect class="b" width="20" height="20" transform="translate(2.188 2.188)"/></g></svg>