<svg xmlns="http://www.w3.org/2000/svg" xmlns:xlink="http://www.w3.org/1999/xlink" width="20.001" height="20" viewBox="0 0 20.001 20"><defs><style>.a{fill:#fff;}.b{fill:#438dec;}.c,.e{fill:none;}.d{clip-path:url(#a);}.e{stroke:#438dec;stroke-linecap:round;stroke-width:1.4px;}</style><clipPath id="a"><rect class="a" width="20" height="20" transform="translate(0 -0.001)"/></clipPath></defs><g transform="translate(-4.648 -4.646)"><g transform="translate(8.899 9.102)"><path class="b" d="M10.635,10h0a.884.884,0,0,0-.862.862v.172a4.154,4.154,0,0,1-3.507,4.139A4.066,4.066,0,0,1,1.725,11.15v-.287A.884.884,0,0,0,.862,10,.884.884,0,0,0,0,10.862v.287a5.52,5.52,0,0,0,4.6,5.633v.69a1.15,1.15,0,1,0,2.3,0v-.69a5.743,5.743,0,0,0,4.6-5.806v-.115A.884.884,0,0,0,10.635,10" transform="translate(0 -4.612)"/><path class="b" d="M7.874,9.2a2.846,2.846,0,0,0,2.874-2.874V2.874A2.874,2.874,0,1,0,5,2.874V6.323A2.846,2.846,0,0,0,7.874,9.2" transform="translate(-2.126 0)"/></g><rect class="c" width="20" height="20" transform="translate(4.648 4.647)"/><g class="d" transform="translate(4.648 4.647)"><path class="e" d="M4.508,4.508A4.508,4.508,0,0,1,0,0" transform="translate(13.148 4.267) rotate(135)"/><path class="e" d="M6.745,6.745A6.745,6.745,0,0,1,0,0" transform="translate(14.729 2.686) rotate(135)"/></g></g></svg>