<svg xmlns="http://www.w3.org/2000/svg" width="20" height="20" viewBox="0 0 20 20"><defs><style>.a{fill:#55616d;}.b{fill:none;}</style></defs><g transform="translate(-4.65 -4.648)"><g transform="translate(8.164 7.372)"><path class="a" d="M12,10h0a1,1,0,0,0-.973.973v.195a4.687,4.687,0,0,1-3.956,4.669A4.587,4.587,0,0,1,1.946,11.3v-.324A1,1,0,0,0,.973,10,1,1,0,0,0,0,10.973V11.3a6.228,6.228,0,0,0,5.188,6.356v.778a1.3,1.3,0,1,0,2.594,0v-.778a6.479,6.479,0,0,0,5.188-6.55v-.13A1,1,0,0,0,12,10" transform="translate(0 -3.922)"/><path class="a" d="M8.243,10.376a3.211,3.211,0,0,0,3.243-3.243V3.243A3.243,3.243,0,1,0,5,3.243V7.134a3.211,3.211,0,0,0,3.243,3.243" transform="translate(-1.757 0)"/></g><rect class="b" width="20" height="20" transform="translate(4.65 4.648)"/></g></svg>