<svg xmlns="http://www.w3.org/2000/svg" width="20" height="20" viewBox="0 0 20 20"><defs><style>.a{fill:#55616d;}.b{fill:none;}</style></defs><g transform="translate(132.848 13.5)"><path class="a" d="M12.9,13H1.4A1.4,1.4,0,0,1,0,11.6V1.4A1.4,1.4,0,0,1,1.4,0H12.9a1.4,1.4,0,0,1,1.4,1.4V11.6A1.4,1.4,0,0,1,12.9,13ZM4.32,4.562A4.052,4.052,0,0,1,7.839,6.618h.009a3.171,3.171,0,0,0,2.516,1.241A3.092,3.092,0,0,0,12.8,6.665l.2-.3V1.69a.391.391,0,0,0-.39-.391H1.688a.391.391,0,0,0-.39.391V5.925A4.052,4.052,0,0,1,4.32,4.562Z" transform="translate(-129.998 -10)"/><rect class="b" width="20" height="20" transform="translate(-132.848 -13.5)"/></g></svg>