<svg xmlns="http://www.w3.org/2000/svg" width="96" height="24" viewBox="0 0 96 24"><defs><style>.a{fill:none;}.b{fill:#55616d;}.c{fill:#818c98;}.d{fill:#438dec;}.e{opacity:0.3;}</style></defs><g transform="translate(-183.999 -622)"><g transform="translate(183.999 622)"><rect class="a" width="24" height="24"/><path class="b" d="M6.692,13.28.4,7.691A1.2,1.2,0,0,1,.4,5.9L6.692.307a1.2,1.2,0,0,1,2,.9V5.244h8.78a1.549,1.549,0,0,1,0,3.1H8.689v4.041a1.2,1.2,0,0,1-1.207,1.2A1.178,1.178,0,0,1,6.692,13.28Z" transform="translate(21.507 18.795) rotate(180)"/></g><g transform="translate(207.999 622)"><rect class="a" width="24" height="24"/><path class="c" d="M6.692,13.28.4,7.691A1.2,1.2,0,0,1,.4,5.9L6.692.307a1.2,1.2,0,0,1,2,.9V5.244h8.78a1.549,1.549,0,0,1,0,3.1H8.689v4.041a1.2,1.2,0,0,1-1.207,1.2A1.178,1.178,0,0,1,6.692,13.28Z" transform="translate(21.507 18.795) rotate(180)"/></g><g transform="translate(231.999 622)"><rect class="a" width="24" height="24"/><path class="d" d="M6.692,13.28.4,7.691A1.2,1.2,0,0,1,.4,5.9L6.692.307a1.2,1.2,0,0,1,2,.9V5.244h8.78a1.549,1.549,0,0,1,0,3.1H8.689v4.041a1.2,1.2,0,0,1-1.207,1.2A1.178,1.178,0,0,1,6.692,13.28Z" transform="translate(21.507 18.795) rotate(180)"/></g><g class="e" transform="translate(255.999 622)"><rect class="a" width="24" height="24"/><path class="b" d="M6.692,13.28.4,7.691A1.2,1.2,0,0,1,.4,5.9L6.692.307a1.2,1.2,0,0,1,2,.9V5.244h8.78a1.549,1.549,0,0,1,0,3.1H8.689v4.041a1.2,1.2,0,0,1-1.207,1.2A1.178,1.178,0,0,1,6.692,13.28Z" transform="translate(21.507 18.795) rotate(180)"/></g></g></svg>