<svg xmlns="http://www.w3.org/2000/svg" width="20" height="20" viewBox="0 0 20 20"><defs><style>.a,.c{fill:none;}.b{fill:#438dec;}.c{stroke:#438dec;stroke-width:1.6px;}.d{stroke:none;}</style></defs><g transform="translate(-2.497 -2.496)"><rect class="a" width="20" height="20" transform="translate(2.497 2.496)"/><path class="b" d="M9.661,15.027H1.205c-.664,0-1.206-.75-1.206-1.67V1.67C0,.749.541,0,1.205,0H9.661c.668,0,1.211.749,1.211,1.67V13.357C10.872,14.277,10.329,15.027,9.661,15.027ZM5.436,6.259A3.749,3.749,0,1,0,9.187,10.01,3.757,3.757,0,0,0,5.436,6.259Zm0-5a2.083,2.083,0,1,0,2.08,2.085A2.087,2.087,0,0,0,5.436,1.258Z" transform="translate(7.062 4.983)"/><g class="c" transform="translate(10.413 12.909)"><circle class="d" cx="2.083" cy="2.083" r="2.083"/><circle class="a" cx="2.083" cy="2.083" r="1.283"/></g></g></svg>