<svg xmlns="http://www.w3.org/2000/svg" width="96" height="24.001" viewBox="0 0 96 24.001"><defs><style>.a{fill:#55616d;}.b{fill:none;}.c{fill:#818c98;}.d{fill:#438dec;}.e{opacity:0.3;}</style></defs><g transform="translate(-544 -558)"><g transform="translate(542 556)"><path class="a" d="M0,4.167v-2.5A1.666,1.666,0,0,1,1.667,0h2.5a.833.833,0,0,1,0,1.667H2.5a.834.834,0,0,0-.833.833V4.167A.833.833,0,0,1,0,4.167" transform="translate(5 5)"/><path class="a" d="M0,.833v2.5A1.666,1.666,0,0,0,1.667,5h2.5a.833.833,0,0,0,0-1.667H2.5A.834.834,0,0,1,1.667,2.5V.833A.833.833,0,0,0,0,.833" transform="translate(5 18)"/><path class="a" d="M5,4.167v-2.5A1.666,1.666,0,0,0,3.333,0H.833a.833.833,0,0,0,0,1.667H2.5a.834.834,0,0,1,.833.833V4.167A.833.833,0,0,0,5,4.167" transform="translate(18 5)"/><path class="a" d="M5,.833v2.5A1.666,1.666,0,0,1,3.333,5H.833a.833.833,0,0,1,0-1.667H2.5A.834.834,0,0,0,3.333,2.5V.833A.833.833,0,0,1,5,.833" transform="translate(18 18)"/><rect class="b" width="24" height="24" transform="translate(2 2)"/><path class="a" d="M19.207,11.94a7.725,7.725,0,0,0-13.469,0,2.016,2.016,0,0,0,0,1.969,7.726,7.726,0,0,0,13.469,0,2.016,2.016,0,0,0,0-1.969m-6.735,4.5a3.517,3.517,0,1,1,3.517-3.517,3.518,3.518,0,0,1-3.517,3.517" transform="translate(1.527 1.076)"/><path class="a" d="M15.649,13.539a2.11,2.11,0,1,1-2.11-2.11,2.11,2.11,0,0,1,2.11,2.11" transform="translate(0.46 0.461)"/></g><g transform="translate(566 556)"><path class="c" d="M0,4.167v-2.5A1.666,1.666,0,0,1,1.667,0h2.5a.833.833,0,0,1,0,1.667H2.5a.834.834,0,0,0-.833.833V4.167A.833.833,0,0,1,0,4.167" transform="translate(5 5)"/><path class="c" d="M0,.833v2.5A1.666,1.666,0,0,0,1.667,5h2.5a.833.833,0,0,0,0-1.667H2.5A.834.834,0,0,1,1.667,2.5V.833A.833.833,0,0,0,0,.833" transform="translate(5 18)"/><path class="c" d="M5,4.167v-2.5A1.666,1.666,0,0,0,3.333,0H.833a.833.833,0,0,0,0,1.667H2.5a.834.834,0,0,1,.833.833V4.167A.833.833,0,0,0,5,4.167" transform="translate(18 5)"/><path class="c" d="M5,.833v2.5A1.666,1.666,0,0,1,3.333,5H.833a.833.833,0,0,1,0-1.667H2.5A.834.834,0,0,0,3.333,2.5V.833A.833.833,0,0,1,5,.833" transform="translate(18 18)"/><rect class="b" width="24" height="24" transform="translate(2 2)"/><path class="c" d="M19.207,11.94a7.725,7.725,0,0,0-13.469,0,2.016,2.016,0,0,0,0,1.969,7.726,7.726,0,0,0,13.469,0,2.016,2.016,0,0,0,0-1.969m-6.735,4.5a3.517,3.517,0,1,1,3.517-3.517,3.518,3.518,0,0,1-3.517,3.517" transform="translate(1.527 1.076)"/><path class="c" d="M15.649,13.539a2.11,2.11,0,1,1-2.11-2.11,2.11,2.11,0,0,1,2.11,2.11" transform="translate(0.461 0.461)"/></g><g transform="translate(590 556.001)"><path class="d" d="M0,4.167v-2.5A1.666,1.666,0,0,1,1.667,0h2.5a.833.833,0,0,1,0,1.667H2.5a.834.834,0,0,0-.833.833V4.167A.833.833,0,0,1,0,4.167" transform="translate(5 5)"/><path class="d" d="M0,.833v2.5A1.666,1.666,0,0,0,1.667,5h2.5a.833.833,0,0,0,0-1.667H2.5A.834.834,0,0,1,1.667,2.5V.833A.833.833,0,0,0,0,.833" transform="translate(5 18)"/><path class="d" d="M5,4.167v-2.5A1.666,1.666,0,0,0,3.333,0H.833a.833.833,0,0,0,0,1.667H2.5a.834.834,0,0,1,.833.833V4.167A.833.833,0,0,0,5,4.167" transform="translate(18 5)"/><path class="d" d="M5,.833v2.5A1.666,1.666,0,0,1,3.333,5H.833a.833.833,0,0,1,0-1.667H2.5A.834.834,0,0,0,3.333,2.5V.833A.833.833,0,0,1,5,.833" transform="translate(18 18)"/><rect class="b" width="24" height="24" transform="translate(2 2)"/><path class="d" d="M19.207,11.94a7.725,7.725,0,0,0-13.469,0,2.016,2.016,0,0,0,0,1.969,7.726,7.726,0,0,0,13.469,0,2.016,2.016,0,0,0,0-1.969m-6.735,4.5a3.517,3.517,0,1,1,3.517-3.517,3.518,3.518,0,0,1-3.517,3.517" transform="translate(1.527 1.075)"/><path class="d" d="M15.649,13.539a2.11,2.11,0,1,1-2.11-2.11,2.11,2.11,0,0,1,2.11,2.11" transform="translate(0.461 0.46)"/></g><g class="e" transform="translate(614 556.001)"><path class="a" d="M0,4.167v-2.5A1.666,1.666,0,0,1,1.667,0h2.5a.833.833,0,0,1,0,1.667H2.5a.834.834,0,0,0-.833.833V4.167A.833.833,0,0,1,0,4.167" transform="translate(5 5)"/><path class="a" d="M0,.833v2.5A1.666,1.666,0,0,0,1.667,5h2.5a.833.833,0,0,0,0-1.667H2.5A.834.834,0,0,1,1.667,2.5V.833A.833.833,0,0,0,0,.833" transform="translate(5 18)"/><path class="a" d="M5,4.167v-2.5A1.666,1.666,0,0,0,3.333,0H.833a.833.833,0,0,0,0,1.667H2.5a.834.834,0,0,1,.833.833V4.167A.833.833,0,0,0,5,4.167" transform="translate(18 5)"/><path class="a" d="M5,.833v2.5A1.666,1.666,0,0,1,3.333,5H.833a.833.833,0,0,1,0-1.667H2.5A.834.834,0,0,0,3.333,2.5V.833A.833.833,0,0,1,5,.833" transform="translate(18 18)"/><rect class="b" width="24" height="24" transform="translate(2 2)"/><path class="a" d="M19.207,11.94a7.725,7.725,0,0,0-13.469,0,2.016,2.016,0,0,0,0,1.969,7.726,7.726,0,0,0,13.469,0,2.016,2.016,0,0,0,0-1.969m-6.735,4.5a3.517,3.517,0,1,1,3.517-3.517,3.518,3.518,0,0,1-3.517,3.517" transform="translate(1.527 1.075)"/><path class="a" d="M15.649,13.539a2.11,2.11,0,1,1-2.11-2.11,2.11,2.11,0,0,1,2.11,2.11" transform="translate(0.461 0.46)"/></g></g></svg>