<svg xmlns="http://www.w3.org/2000/svg" width="96" height="24.001" viewBox="0 0 96 24.001"><defs><style>.a{fill:#55616d;}.b{fill:none;}.c{fill:#818c98;}.d{fill:#438dec;}.e{opacity:0.3;}</style></defs><g transform="translate(-544 -558)"><g transform="translate(542 556)"><g transform="translate(1.528 1.25)"><path class="a" d="M18.222,18.222h0a.844.844,0,0,1-1.194,0L7.279,8.473A.844.844,0,0,1,8.473,7.279l9.749,9.749a.844.844,0,0,1,0,1.194" transform="translate(-0.278 0)"/><path class="a" d="M12.584,11.719a2.1,2.1,0,1,0,2.827,2.827Z" transform="translate(-1.067 -0.841)"/><path class="a" d="M13.486,9.426c.066,0,.127-.02.194-.02A3.517,3.517,0,0,1,17.2,12.924c0,.066-.016.128-.02.194l2.2,2.2a7.774,7.774,0,0,0,1.036-1.409,2.018,2.018,0,0,0,0-1.97,7.607,7.607,0,0,0-8.2-3.783Z" transform="translate(-1.208 -0.174)"/><path class="a" d="M15.373,15.069a3.515,3.515,0,1,1-4.886-4.885L9.2,8.9a7.773,7.773,0,0,0-3.466,3.2,2.022,2.022,0,0,0,0,1.97A7.694,7.694,0,0,0,16.9,16.6Z" transform="translate(0 -0.335)"/></g><path class="a" d="M0,4.167v-2.5A1.666,1.666,0,0,1,1.667,0h2.5a.833.833,0,0,1,0,1.667H2.5a.834.834,0,0,0-.833.833V4.167A.833.833,0,0,1,0,4.167" transform="translate(5 5)"/><path class="a" d="M0,.833v2.5A1.666,1.666,0,0,0,1.667,5h2.5a.833.833,0,0,0,0-1.667H2.5A.834.834,0,0,1,1.667,2.5V.833A.833.833,0,0,0,0,.833" transform="translate(5 18)"/><path class="a" d="M5,4.167v-2.5A1.666,1.666,0,0,0,3.333,0H.833a.833.833,0,0,0,0,1.667H2.5a.834.834,0,0,1,.833.833V4.167A.833.833,0,0,0,5,4.167" transform="translate(18 5)"/><path class="a" d="M5,.833v2.5A1.666,1.666,0,0,1,3.333,5H.833a.833.833,0,0,1,0-1.667H2.5A.834.834,0,0,0,3.333,2.5V.833A.833.833,0,0,1,5,.833" transform="translate(18 18)"/><rect class="b" width="24" height="24" transform="translate(2 2)"/></g><g transform="translate(566 556)"><g transform="translate(1.528 1.25)"><path class="c" d="M18.222,18.222h0a.844.844,0,0,1-1.194,0L7.279,8.473A.844.844,0,0,1,8.473,7.279l9.749,9.749a.844.844,0,0,1,0,1.194" transform="translate(-0.278 0)"/><path class="c" d="M12.584,11.719a2.1,2.1,0,1,0,2.827,2.827Z" transform="translate(-1.067 -0.841)"/><path class="c" d="M13.486,9.426c.066,0,.127-.02.194-.02A3.517,3.517,0,0,1,17.2,12.924c0,.066-.016.128-.02.194l2.2,2.2a7.774,7.774,0,0,0,1.036-1.409,2.018,2.018,0,0,0,0-1.97,7.607,7.607,0,0,0-8.2-3.783Z" transform="translate(-1.208 -0.174)"/><path class="c" d="M15.373,15.069a3.515,3.515,0,1,1-4.886-4.885L9.2,8.9a7.773,7.773,0,0,0-3.466,3.2,2.022,2.022,0,0,0,0,1.97A7.694,7.694,0,0,0,16.9,16.6Z" transform="translate(0 -0.335)"/></g><path class="c" d="M0,4.167v-2.5A1.666,1.666,0,0,1,1.667,0h2.5a.833.833,0,0,1,0,1.667H2.5a.834.834,0,0,0-.833.833V4.167A.833.833,0,0,1,0,4.167" transform="translate(5 5)"/><path class="c" d="M0,.833v2.5A1.666,1.666,0,0,0,1.667,5h2.5a.833.833,0,0,0,0-1.667H2.5A.834.834,0,0,1,1.667,2.5V.833A.833.833,0,0,0,0,.833" transform="translate(5 18)"/><path class="c" d="M5,4.167v-2.5A1.666,1.666,0,0,0,3.333,0H.833a.833.833,0,0,0,0,1.667H2.5a.834.834,0,0,1,.833.833V4.167A.833.833,0,0,0,5,4.167" transform="translate(18 5)"/><path class="c" d="M5,.833v2.5A1.666,1.666,0,0,1,3.333,5H.833a.833.833,0,0,1,0-1.667H2.5A.834.834,0,0,0,3.333,2.5V.833A.833.833,0,0,1,5,.833" transform="translate(18 18)"/><rect class="b" width="24" height="24" transform="translate(2 2)"/></g><g transform="translate(590 556.001)"><g transform="translate(1.528 1.25)"><path class="d" d="M18.222,18.222h0a.844.844,0,0,1-1.194,0L7.279,8.473A.844.844,0,0,1,8.473,7.279l9.749,9.749a.844.844,0,0,1,0,1.194" transform="translate(-0.278 0)"/><path class="d" d="M12.584,11.719a2.1,2.1,0,1,0,2.827,2.827Z" transform="translate(-1.067 -0.841)"/><path class="d" d="M13.486,9.426c.066,0,.127-.02.194-.02A3.517,3.517,0,0,1,17.2,12.924c0,.066-.016.128-.02.194l2.2,2.2a7.774,7.774,0,0,0,1.036-1.409,2.018,2.018,0,0,0,0-1.97,7.607,7.607,0,0,0-8.2-3.783Z" transform="translate(-1.208 -0.174)"/><path class="d" d="M15.373,15.069a3.515,3.515,0,1,1-4.886-4.885L9.2,8.9a7.773,7.773,0,0,0-3.466,3.2,2.022,2.022,0,0,0,0,1.97A7.694,7.694,0,0,0,16.9,16.6Z" transform="translate(0 -0.335)"/></g><path class="d" d="M0,4.167v-2.5A1.666,1.666,0,0,1,1.667,0h2.5a.833.833,0,0,1,0,1.667H2.5a.834.834,0,0,0-.833.833V4.167A.833.833,0,0,1,0,4.167" transform="translate(5 5)"/><path class="d" d="M0,.833v2.5A1.666,1.666,0,0,0,1.667,5h2.5a.833.833,0,0,0,0-1.667H2.5A.834.834,0,0,1,1.667,2.5V.833A.833.833,0,0,0,0,.833" transform="translate(5 18)"/><path class="d" d="M5,4.167v-2.5A1.666,1.666,0,0,0,3.333,0H.833a.833.833,0,0,0,0,1.667H2.5a.834.834,0,0,1,.833.833V4.167A.833.833,0,0,0,5,4.167" transform="translate(18 5)"/><path class="d" d="M5,.833v2.5A1.666,1.666,0,0,1,3.333,5H.833a.833.833,0,0,1,0-1.667H2.5A.834.834,0,0,0,3.333,2.5V.833A.833.833,0,0,1,5,.833" transform="translate(18 18)"/><rect class="b" width="24" height="24" transform="translate(2 2)"/></g><g class="e" transform="translate(614 556.001)"><g transform="translate(1.528 1.25)"><path class="a" d="M18.222,18.222h0a.844.844,0,0,1-1.194,0L7.279,8.473A.844.844,0,0,1,8.473,7.279l9.749,9.749a.844.844,0,0,1,0,1.194" transform="translate(-0.278 0)"/><path class="a" d="M12.584,11.719a2.1,2.1,0,1,0,2.827,2.827Z" transform="translate(-1.067 -0.841)"/><path class="a" d="M13.486,9.426c.066,0,.127-.02.194-.02A3.517,3.517,0,0,1,17.2,12.924c0,.066-.016.128-.02.194l2.2,2.2a7.774,7.774,0,0,0,1.036-1.409,2.018,2.018,0,0,0,0-1.97,7.607,7.607,0,0,0-8.2-3.783Z" transform="translate(-1.208 -0.174)"/><path class="a" d="M15.373,15.069a3.515,3.515,0,1,1-4.886-4.885L9.2,8.9a7.773,7.773,0,0,0-3.466,3.2,2.022,2.022,0,0,0,0,1.97A7.694,7.694,0,0,0,16.9,16.6Z" transform="translate(0 -0.335)"/></g><path class="a" d="M0,4.167v-2.5A1.666,1.666,0,0,1,1.667,0h2.5a.833.833,0,0,1,0,1.667H2.5a.834.834,0,0,0-.833.833V4.167A.833.833,0,0,1,0,4.167" transform="translate(5 5)"/><path class="a" d="M0,.833v2.5A1.666,1.666,0,0,0,1.667,5h2.5a.833.833,0,0,0,0-1.667H2.5A.834.834,0,0,1,1.667,2.5V.833A.833.833,0,0,0,0,.833" transform="translate(5 18)"/><path class="a" d="M5,4.167v-2.5A1.666,1.666,0,0,0,3.333,0H.833a.833.833,0,0,0,0,1.667H2.5a.834.834,0,0,1,.833.833V4.167A.833.833,0,0,0,5,4.167" transform="translate(18 5)"/><path class="a" d="M5,.833v2.5A1.666,1.666,0,0,1,3.333,5H.833a.833.833,0,0,1,0-1.667H2.5A.834.834,0,0,0,3.333,2.5V.833A.833.833,0,0,1,5,.833" transform="translate(18 18)"/><rect class="b" width="24" height="24" transform="translate(2 2)"/></g></g></svg>