<svg xmlns="http://www.w3.org/2000/svg" width="96" height="24" viewBox="0 0 96 24"><defs><style>.a,.c{fill:#55616d;}.a,.d,.f{stroke:rgba(0,0,0,0);stroke-miterlimit:10;}.b{fill:none;}.d,.e{fill:#818c98;}.f,.g{fill:#3486ec;}.h{opacity:0.3;}</style></defs><g transform="translate(-424 -558)"><g transform="translate(421.811 555.811)"><path class="a" d="M18610.877,11014.559a2.836,2.836,0,0,1-2.689-2.246h2.473a7.6,7.6,0,0,0,1.723,1.769,2.684,2.684,0,0,1-.793.377A2.608,2.608,0,0,1,18610.877,11014.559Z" transform="translate(-18596.693 -10990.559)"/><path class="a" d="M18615.762,11019.529h-6.266a1.308,1.308,0,0,1-1.3-1.309v-.215a2.91,2.91,0,0,1,1.1-2.287l.285-.229a.645.645,0,0,0,.242-.51v-3.095a6.824,6.824,0,0,1,5.49-6.677,1.368,1.368,0,0,1,.977-.978,1.385,1.385,0,0,1,.34-.043,1.365,1.365,0,0,1,1.32,1.021,6.822,6.822,0,0,1,5.484,6.677v1.412a7.488,7.488,0,0,0-2.834.238l-.271-.271a2.167,2.167,0,0,0-3.418,2.6,7.645,7.645,0,0,0-.887,1.258,3.127,3.127,0,0,0-.264,2.406Z" transform="translate(-18602.439 -10999)"/><rect class="b" width="24" height="24" transform="translate(2.189 2.189)"/><g transform="translate(9.209 8.1)"><path class="c" d="M15.838,15.838h0a.664.664,0,0,1-.94,0L7.226,8.166a.664.664,0,0,1,.94-.94L15.838,14.9a.664.664,0,0,1,0,.94" transform="translate(-0.549 0)"/><path class="c" d="M12.338,11.719a1.656,1.656,0,1,0,2.225,2.225Z" transform="translate(-2.107 -1.66)"/><path class="c" d="M13.216,9.122c.052,0,.1-.016.152-.016a2.768,2.768,0,0,1,2.768,2.768c0,.052-.013.1-.015.152l1.731,1.731a6.118,6.118,0,0,0,.816-1.109,1.588,1.588,0,0,0,0-1.55,5.986,5.986,0,0,0-6.452-2.977Z" transform="translate(-2.385 -0.343)"/><path class="c" d="M13.266,13.755A2.767,2.767,0,1,1,9.421,9.91L8.41,8.9a6.117,6.117,0,0,0-2.727,2.519,1.591,1.591,0,0,0,0,1.55,6.055,6.055,0,0,0,8.783,1.987Z" transform="translate(0 -0.661)"/></g></g><g transform="translate(445.811 555.811)"><path class="d" d="M18610.877,11014.559a2.836,2.836,0,0,1-2.689-2.246h2.473a7.6,7.6,0,0,0,1.723,1.769,2.684,2.684,0,0,1-.793.377A2.608,2.608,0,0,1,18610.877,11014.559Z" transform="translate(-18596.693 -10990.559)"/><path class="d" d="M18615.762,11019.529h-6.266a1.308,1.308,0,0,1-1.3-1.309v-.215a2.91,2.91,0,0,1,1.1-2.287l.285-.229a.645.645,0,0,0,.242-.51v-3.095a6.824,6.824,0,0,1,5.49-6.677,1.368,1.368,0,0,1,.977-.978,1.385,1.385,0,0,1,.34-.043,1.365,1.365,0,0,1,1.32,1.021,6.822,6.822,0,0,1,5.484,6.677v1.412a7.488,7.488,0,0,0-2.834.238l-.271-.271a2.167,2.167,0,0,0-3.418,2.6,7.645,7.645,0,0,0-.887,1.258,3.127,3.127,0,0,0-.264,2.406Z" transform="translate(-18602.439 -10999)"/><rect class="b" width="24" height="24" transform="translate(2.189 2.189)"/><g transform="translate(9.209 8.1)"><path class="e" d="M15.838,15.838h0a.664.664,0,0,1-.94,0L7.226,8.166a.664.664,0,0,1,.94-.94L15.838,14.9a.664.664,0,0,1,0,.94" transform="translate(-0.549 0)"/><path class="e" d="M12.338,11.719a1.656,1.656,0,1,0,2.225,2.225Z" transform="translate(-2.107 -1.66)"/><path class="e" d="M13.216,9.122c.052,0,.1-.016.152-.016a2.768,2.768,0,0,1,2.768,2.768c0,.052-.013.1-.015.152l1.731,1.731a6.118,6.118,0,0,0,.816-1.109,1.588,1.588,0,0,0,0-1.55,5.986,5.986,0,0,0-6.452-2.977Z" transform="translate(-2.385 -0.343)"/><path class="e" d="M13.266,13.755A2.767,2.767,0,1,1,9.421,9.91L8.41,8.9a6.117,6.117,0,0,0-2.727,2.519,1.591,1.591,0,0,0,0,1.55,6.055,6.055,0,0,0,8.783,1.987Z" transform="translate(0 -0.661)"/></g></g><g transform="translate(469.811 555.811)"><path class="f" d="M18610.877,11014.559a2.836,2.836,0,0,1-2.689-2.246h2.473a7.6,7.6,0,0,0,1.723,1.769,2.684,2.684,0,0,1-.793.377A2.608,2.608,0,0,1,18610.877,11014.559Z" transform="translate(-18596.693 -10990.559)"/><path class="f" d="M18615.762,11019.529h-6.266a1.308,1.308,0,0,1-1.3-1.309v-.215a2.91,2.91,0,0,1,1.1-2.287l.285-.229a.645.645,0,0,0,.242-.51v-3.095a6.824,6.824,0,0,1,5.49-6.677,1.368,1.368,0,0,1,.977-.978,1.385,1.385,0,0,1,.34-.043,1.365,1.365,0,0,1,1.32,1.021,6.822,6.822,0,0,1,5.484,6.677v1.412a7.488,7.488,0,0,0-2.834.238l-.271-.271a2.167,2.167,0,0,0-3.418,2.6,7.645,7.645,0,0,0-.887,1.258,3.127,3.127,0,0,0-.264,2.406Z" transform="translate(-18602.439 -10999)"/><rect class="b" width="24" height="24" transform="translate(2.189 2.189)"/><g transform="translate(9.209 8.1)"><path class="g" d="M15.838,15.838h0a.664.664,0,0,1-.94,0L7.226,8.166a.664.664,0,0,1,.94-.94L15.838,14.9a.664.664,0,0,1,0,.94" transform="translate(-0.549 0)"/><path class="g" d="M12.338,11.719a1.656,1.656,0,1,0,2.225,2.225Z" transform="translate(-2.107 -1.66)"/><path class="g" d="M13.216,9.122c.052,0,.1-.016.152-.016a2.768,2.768,0,0,1,2.768,2.768c0,.052-.013.1-.015.152l1.731,1.731a6.118,6.118,0,0,0,.816-1.109,1.588,1.588,0,0,0,0-1.55,5.986,5.986,0,0,0-6.452-2.977Z" transform="translate(-2.385 -0.343)"/><path class="g" d="M13.266,13.755A2.767,2.767,0,1,1,9.421,9.91L8.41,8.9a6.117,6.117,0,0,0-2.727,2.519,1.591,1.591,0,0,0,0,1.55,6.055,6.055,0,0,0,8.783,1.987Z" transform="translate(0 -0.661)"/></g></g><g class="h" transform="translate(493.811 555.811)"><path class="a" d="M18610.877,11014.559a2.836,2.836,0,0,1-2.689-2.246h2.473a7.6,7.6,0,0,0,1.723,1.769,2.684,2.684,0,0,1-.793.377A2.608,2.608,0,0,1,18610.877,11014.559Z" transform="translate(-18596.693 -10990.559)"/><path class="a" d="M18615.762,11019.529h-6.266a1.308,1.308,0,0,1-1.3-1.309v-.215a2.91,2.91,0,0,1,1.1-2.287l.285-.229a.645.645,0,0,0,.242-.51v-3.095a6.824,6.824,0,0,1,5.49-6.677,1.368,1.368,0,0,1,.977-.978,1.385,1.385,0,0,1,.34-.043,1.365,1.365,0,0,1,1.32,1.021,6.822,6.822,0,0,1,5.484,6.677v1.412a7.488,7.488,0,0,0-2.834.238l-.271-.271a2.167,2.167,0,0,0-3.418,2.6,7.645,7.645,0,0,0-.887,1.258,3.127,3.127,0,0,0-.264,2.406Z" transform="translate(-18602.439 -10999)"/><rect class="b" width="24" height="24" transform="translate(2.189 2.189)"/><g transform="translate(9.209 8.1)"><path class="c" d="M15.838,15.838h0a.664.664,0,0,1-.94,0L7.226,8.166a.664.664,0,0,1,.94-.94L15.838,14.9a.664.664,0,0,1,0,.94" transform="translate(-0.549 0)"/><path class="c" d="M12.338,11.719a1.656,1.656,0,1,0,2.225,2.225Z" transform="translate(-2.107 -1.66)"/><path class="c" d="M13.216,9.122c.052,0,.1-.016.152-.016a2.768,2.768,0,0,1,2.768,2.768c0,.052-.013.1-.015.152l1.731,1.731a6.118,6.118,0,0,0,.816-1.109,1.588,1.588,0,0,0,0-1.55,5.986,5.986,0,0,0-6.452-2.977Z" transform="translate(-2.385 -0.343)"/><path class="c" d="M13.266,13.755A2.767,2.767,0,1,1,9.421,9.91L8.41,8.9a6.117,6.117,0,0,0-2.727,2.519,1.591,1.591,0,0,0,0,1.55,6.055,6.055,0,0,0,8.783,1.987Z" transform="translate(0 -0.661)"/></g></g></g></svg>