<svg xmlns="http://www.w3.org/2000/svg" width="96" height="24" viewBox="0 0 96 24"><defs><style>.a,.c{fill:#55616d;}.a,.d,.f{stroke:rgba(0,0,0,0);stroke-miterlimit:10;}.b{fill:none;}.d,.e{fill:#818c98;}.f,.g{fill:#3486ec;}.h{opacity:0.3;}</style></defs><g transform="translate(-424 -558)"><g transform="translate(421.811 555.811)"><path class="a" d="M18610.879,11045.936a2.836,2.836,0,0,1-2.691-2.246h2.475a7.582,7.582,0,0,0,1.723,1.766,2.68,2.68,0,0,1-.795.38A2.626,2.626,0,0,1,18610.879,11045.936Z" transform="translate(-18596.693 -11021.934)"/><path class="a" d="M18615.762,11051.528h-6.266a1.306,1.306,0,0,1-1.3-1.3v-.215a2.9,2.9,0,0,1,1.1-2.286l.285-.229a.655.655,0,0,0,.242-.509v-3.1a6.814,6.814,0,0,1,5.49-6.672,1.353,1.353,0,0,1,.977-.977,1.326,1.326,0,0,1,.348-.045,1.359,1.359,0,0,1,1.313,1.021,6.8,6.8,0,0,1,5.484,6.672v1.413a7.521,7.521,0,0,0-.8-.043,7.6,7.6,0,0,0-6.611,3.866,3.129,3.129,0,0,0-.264,2.407Z" transform="translate(-18602.439 -11031)"/><rect class="b" width="24" height="24" transform="translate(2.189 2.189)"/><g transform="translate(14.689 15.757)"><path class="c" d="M16.282,11.1a6.079,6.079,0,0,0-10.6,0,1.586,1.586,0,0,0,0,1.549,6.08,6.08,0,0,0,10.6,0,1.586,1.586,0,0,0,0-1.549m-5.3,3.542a2.767,2.767,0,1,1,2.768-2.768,2.768,2.768,0,0,1-2.768,2.768" transform="translate(-5.48 -8)"/><path class="c" d="M14.749,13.089a1.661,1.661,0,1,1-1.66-1.66,1.66,1.66,0,0,1,1.66,1.66" transform="translate(-7.587 -9.215)"/></g></g><g transform="translate(445.811 555.811)"><path class="d" d="M18610.879,11045.936a2.836,2.836,0,0,1-2.691-2.246h2.475a7.582,7.582,0,0,0,1.723,1.766,2.68,2.68,0,0,1-.795.38A2.626,2.626,0,0,1,18610.879,11045.936Z" transform="translate(-18596.693 -11021.934)"/><path class="d" d="M18615.762,11051.528h-6.266a1.306,1.306,0,0,1-1.3-1.3v-.215a2.9,2.9,0,0,1,1.1-2.286l.285-.229a.655.655,0,0,0,.242-.509v-3.1a6.814,6.814,0,0,1,5.49-6.672,1.353,1.353,0,0,1,.977-.977,1.326,1.326,0,0,1,.348-.045,1.359,1.359,0,0,1,1.313,1.021,6.8,6.8,0,0,1,5.484,6.672v1.413a7.521,7.521,0,0,0-.8-.043,7.6,7.6,0,0,0-6.611,3.866,3.129,3.129,0,0,0-.264,2.407Z" transform="translate(-18602.439 -11031)"/><rect class="b" width="24" height="24" transform="translate(2.189 2.189)"/><g transform="translate(14.689 15.757)"><path class="e" d="M16.282,11.1a6.079,6.079,0,0,0-10.6,0,1.586,1.586,0,0,0,0,1.549,6.08,6.08,0,0,0,10.6,0,1.586,1.586,0,0,0,0-1.549m-5.3,3.542a2.767,2.767,0,1,1,2.768-2.768,2.768,2.768,0,0,1-2.768,2.768" transform="translate(-5.48 -8)"/><path class="e" d="M14.749,13.089a1.661,1.661,0,1,1-1.66-1.66,1.66,1.66,0,0,1,1.66,1.66" transform="translate(-7.587 -9.215)"/></g></g><g transform="translate(469.811 555.811)"><path class="f" d="M18610.879,11045.936a2.836,2.836,0,0,1-2.691-2.246h2.475a7.582,7.582,0,0,0,1.723,1.766,2.68,2.68,0,0,1-.795.38A2.626,2.626,0,0,1,18610.879,11045.936Z" transform="translate(-18596.693 -11021.934)"/><path class="f" d="M18615.762,11051.528h-6.266a1.306,1.306,0,0,1-1.3-1.3v-.215a2.9,2.9,0,0,1,1.1-2.286l.285-.229a.655.655,0,0,0,.242-.509v-3.1a6.814,6.814,0,0,1,5.49-6.672,1.353,1.353,0,0,1,.977-.977,1.326,1.326,0,0,1,.348-.045,1.359,1.359,0,0,1,1.313,1.021,6.8,6.8,0,0,1,5.484,6.672v1.413a7.521,7.521,0,0,0-.8-.043,7.6,7.6,0,0,0-6.611,3.866,3.129,3.129,0,0,0-.264,2.407Z" transform="translate(-18602.439 -11031)"/><rect class="b" width="24" height="24" transform="translate(2.189 2.189)"/><g transform="translate(14.689 15.757)"><path class="g" d="M16.282,11.1a6.079,6.079,0,0,0-10.6,0,1.586,1.586,0,0,0,0,1.549,6.08,6.08,0,0,0,10.6,0,1.586,1.586,0,0,0,0-1.549m-5.3,3.542a2.767,2.767,0,1,1,2.768-2.768,2.768,2.768,0,0,1-2.768,2.768" transform="translate(-5.48 -8)"/><path class="g" d="M14.749,13.089a1.661,1.661,0,1,1-1.66-1.66,1.66,1.66,0,0,1,1.66,1.66" transform="translate(-7.587 -9.215)"/></g></g><g class="h" transform="translate(493.811 555.811)"><path class="a" d="M18610.879,11045.936a2.836,2.836,0,0,1-2.691-2.246h2.475a7.582,7.582,0,0,0,1.723,1.766,2.68,2.68,0,0,1-.795.38A2.626,2.626,0,0,1,18610.879,11045.936Z" transform="translate(-18596.693 -11021.934)"/><path class="a" d="M18615.762,11051.528h-6.266a1.306,1.306,0,0,1-1.3-1.3v-.215a2.9,2.9,0,0,1,1.1-2.286l.285-.229a.655.655,0,0,0,.242-.509v-3.1a6.814,6.814,0,0,1,5.49-6.672,1.353,1.353,0,0,1,.977-.977,1.326,1.326,0,0,1,.348-.045,1.359,1.359,0,0,1,1.313,1.021,6.8,6.8,0,0,1,5.484,6.672v1.413a7.521,7.521,0,0,0-.8-.043,7.6,7.6,0,0,0-6.611,3.866,3.129,3.129,0,0,0-.264,2.407Z" transform="translate(-18602.439 -11031)"/><rect class="b" width="24" height="24" transform="translate(2.189 2.189)"/><g transform="translate(14.689 15.757)"><path class="c" d="M16.282,11.1a6.079,6.079,0,0,0-10.6,0,1.586,1.586,0,0,0,0,1.549,6.08,6.08,0,0,0,10.6,0,1.586,1.586,0,0,0,0-1.549m-5.3,3.542a2.767,2.767,0,1,1,2.768-2.768,2.768,2.768,0,0,1-2.768,2.768" transform="translate(-5.48 -8)"/><path class="c" d="M14.749,13.089a1.661,1.661,0,1,1-1.66-1.66,1.66,1.66,0,0,1,1.66,1.66" transform="translate(-7.587 -9.215)"/></g></g></g></svg>