<svg xmlns="http://www.w3.org/2000/svg" width="96.001" height="24" viewBox="0 0 96.001 24"><defs><style>.a{fill:#55616d;}.b{fill:none;}.c{fill:#818c98;}.d{fill:#3486ec;}.e{opacity:0.3;}</style></defs><g transform="translate(-275 -631)"><g transform="translate(277.296 634.289)"><path class="a" d="M0,4.167v-2.5A1.666,1.666,0,0,1,1.667,0h3.5a.833.833,0,0,1,0,1.667H2.5a.834.834,0,0,0-.833.833V4.167A.833.833,0,0,1,0,4.167" transform="translate(0.703 0.711)"/><path class="a" d="M0,.833v2.5A1.666,1.666,0,0,0,1.667,5h3.5a.833.833,0,0,0,0-1.667H2.5A.834.834,0,0,1,1.667,2.5V.833A.833.833,0,0,0,0,.833" transform="translate(0.703 11.711)"/><path class="a" d="M5,4.167v-2.5A1.666,1.666,0,0,0,3.333,0h-3.5A.834.834,0,0,0-1,.833a.834.834,0,0,0,.833.833H2.5a.834.834,0,0,1,.833.833V4.167A.833.833,0,0,0,5,4.167" transform="translate(13.703 0.711)"/><path class="a" d="M5,.833v2.5A1.666,1.666,0,0,1,3.333,5h-3.5A.834.834,0,0,1-1,4.167a.834.834,0,0,1,.833-.833H2.5A.834.834,0,0,0,3.333,2.5V.833A.833.833,0,0,1,5,.833" transform="translate(13.703 11.711)"/><path class="a" d="M12,9.024A2.091,2.091,0,1,1,9.913,6.933,2.091,2.091,0,0,1,12,9.024" transform="translate(-0.211 -0.314)"/><rect class="b" width="24" height="24" transform="translate(-2.296 -3.289)"/></g><g transform="translate(301.296 634.289)"><path class="c" d="M0,4.167v-2.5A1.666,1.666,0,0,1,1.667,0h3.5a.833.833,0,0,1,0,1.667H2.5a.834.834,0,0,0-.833.833V4.167A.833.833,0,0,1,0,4.167" transform="translate(0.703 0.711)"/><path class="c" d="M0,.833v2.5A1.666,1.666,0,0,0,1.667,5h3.5a.833.833,0,0,0,0-1.667H2.5A.834.834,0,0,1,1.667,2.5V.833A.833.833,0,0,0,0,.833" transform="translate(0.703 11.711)"/><path class="c" d="M5,4.167v-2.5A1.666,1.666,0,0,0,3.333,0h-3.5A.834.834,0,0,0-1,.833a.834.834,0,0,0,.833.833H2.5a.834.834,0,0,1,.833.833V4.167A.833.833,0,0,0,5,4.167" transform="translate(13.703 0.711)"/><path class="c" d="M5,.833v2.5A1.666,1.666,0,0,1,3.333,5h-3.5A.834.834,0,0,1-1,4.167a.834.834,0,0,1,.833-.833H2.5A.834.834,0,0,0,3.333,2.5V.833A.833.833,0,0,1,5,.833" transform="translate(13.703 11.711)"/><path class="c" d="M12,9.024A2.091,2.091,0,1,1,9.913,6.933,2.091,2.091,0,0,1,12,9.024" transform="translate(-0.211 -0.314)"/><rect class="b" width="24" height="24" transform="translate(-2.296 -3.289)"/></g><g transform="translate(325.296 634.289)"><path class="d" d="M0,4.167v-2.5A1.666,1.666,0,0,1,1.667,0h3.5a.833.833,0,0,1,0,1.667H2.5a.834.834,0,0,0-.833.833V4.167A.833.833,0,0,1,0,4.167" transform="translate(0.703 0.711)"/><path class="d" d="M0,.833v2.5A1.666,1.666,0,0,0,1.667,5h3.5a.833.833,0,0,0,0-1.667H2.5A.834.834,0,0,1,1.667,2.5V.833A.833.833,0,0,0,0,.833" transform="translate(0.703 11.711)"/><path class="d" d="M5,4.167v-2.5A1.666,1.666,0,0,0,3.333,0h-3.5A.834.834,0,0,0-1,.833a.834.834,0,0,0,.833.833H2.5a.834.834,0,0,1,.833.833V4.167A.833.833,0,0,0,5,4.167" transform="translate(13.703 0.711)"/><path class="d" d="M5,.833v2.5A1.666,1.666,0,0,1,3.333,5h-3.5A.834.834,0,0,1-1,4.167a.834.834,0,0,1,.833-.833H2.5A.834.834,0,0,0,3.333,2.5V.833A.833.833,0,0,1,5,.833" transform="translate(13.703 11.711)"/><path class="d" d="M12,9.024A2.091,2.091,0,1,1,9.913,6.933,2.091,2.091,0,0,1,12,9.024" transform="translate(-0.211 -0.314)"/><rect class="b" width="24" height="24" transform="translate(-2.296 -3.289)"/></g><g class="e" transform="translate(349.297 634.289)"><path class="a" d="M0,4.167v-2.5A1.666,1.666,0,0,1,1.667,0h3.5a.833.833,0,0,1,0,1.667H2.5a.834.834,0,0,0-.833.833V4.167A.833.833,0,0,1,0,4.167" transform="translate(0.703 0.711)"/><path class="a" d="M0,.833v2.5A1.666,1.666,0,0,0,1.667,5h3.5a.833.833,0,0,0,0-1.667H2.5A.834.834,0,0,1,1.667,2.5V.833A.833.833,0,0,0,0,.833" transform="translate(0.703 11.711)"/><path class="a" d="M5,4.167v-2.5A1.666,1.666,0,0,0,3.333,0h-3.5A.834.834,0,0,0-1,.833a.834.834,0,0,0,.833.833H2.5a.834.834,0,0,1,.833.833V4.167A.833.833,0,0,0,5,4.167" transform="translate(13.703 0.711)"/><path class="a" d="M5,.833v2.5A1.666,1.666,0,0,1,3.333,5h-3.5A.834.834,0,0,1-1,4.167a.834.834,0,0,1,.833-.833H2.5A.834.834,0,0,0,3.333,2.5V.833A.833.833,0,0,1,5,.833" transform="translate(13.703 11.711)"/><path class="a" d="M12,9.024A2.091,2.091,0,1,1,9.913,6.933,2.091,2.091,0,0,1,12,9.024" transform="translate(-0.211 -0.314)"/><rect class="b" width="24" height="24" transform="translate(-2.296 -3.289)"/></g></g></svg>