<svg xmlns="http://www.w3.org/2000/svg" width="96" height="24.001" viewBox="0 0 96 24.001"><defs><style>.a,.c,.d,.f{fill:none;}.a{stroke:#55616d;}.a,.d,.f{stroke-linecap:round;stroke-linejoin:round;stroke-width:2px;}.b{fill:#55616d;}.d{stroke:#818c98;}.e{fill:#818c98;}.f{stroke:#438dec;}.g{fill:#438dec;}.h{opacity:0.3;}</style></defs><g transform="translate(-664.001 -558)"><g transform="translate(661.914 555.913)"><g transform="translate(4.804 5.348)"><path class="a" d="M9.952,10.194a8.74,8.74,0,0,1,15.494,5.545" transform="translate(-7.424 -7)"/><path class="a" d="M22.833,25.106A8.74,8.74,0,0,1,7,20" transform="translate(-6.456 -11.261)"/><path class="b" d="M10.779,11.252,7.918,8.39a.672.672,0,0,0-1.138.364L6.2,12.193a.672.672,0,0,0,.774.774l3.44-.578a.672.672,0,0,0,.364-1.138" transform="translate(-6.192 -7.392)"/><path class="b" d="M29.75,29.051,26.888,26.19a.672.672,0,0,1,.364-1.138l3.439-.578a.672.672,0,0,1,.774.774l-.578,3.44a.672.672,0,0,1-1.138.364" transform="translate(-12.91 -12.724)"/></g><rect class="c" width="24" height="24" transform="translate(2.087 2.087)"/><path class="b" d="M10.706,10.085l4.2,3.07a.762.762,0,0,1,0,1.23l-4.2,3.07a.762.762,0,0,1-1.212-.615V10.7a.762.762,0,0,1,1.212-.615" transform="translate(2.368 0.317)"/></g><g transform="translate(685.914 555.913)"><g transform="translate(4.804 5.348)"><path class="d" d="M9.952,10.194a8.74,8.74,0,0,1,15.494,5.545" transform="translate(-7.424 -7)"/><path class="d" d="M22.833,25.106A8.74,8.74,0,0,1,7,20" transform="translate(-6.456 -11.261)"/><path class="e" d="M10.779,11.252,7.918,8.39a.672.672,0,0,0-1.138.364L6.2,12.193a.672.672,0,0,0,.774.774l3.44-.578a.672.672,0,0,0,.364-1.138" transform="translate(-6.192 -7.392)"/><path class="e" d="M29.75,29.051,26.888,26.19a.672.672,0,0,1,.364-1.138l3.439-.578a.672.672,0,0,1,.774.774l-.578,3.44a.672.672,0,0,1-1.138.364" transform="translate(-12.91 -12.724)"/></g><rect class="c" width="24" height="24" transform="translate(2.087 2.087)"/><path class="e" d="M10.706,10.085l4.2,3.07a.762.762,0,0,1,0,1.23l-4.2,3.07a.762.762,0,0,1-1.212-.615V10.7a.762.762,0,0,1,1.212-.615" transform="translate(2.368 0.317)"/></g><g transform="translate(709.914 555.914)"><g transform="translate(4.804 5.348)"><path class="f" d="M9.952,10.194a8.74,8.74,0,0,1,15.494,5.545" transform="translate(-7.424 -7)"/><path class="f" d="M22.833,25.106A8.74,8.74,0,0,1,7,20" transform="translate(-6.456 -11.261)"/><path class="g" d="M10.779,11.252,7.918,8.39a.672.672,0,0,0-1.138.364L6.2,12.193a.672.672,0,0,0,.774.774l3.44-.578a.672.672,0,0,0,.364-1.138" transform="translate(-6.192 -7.392)"/><path class="g" d="M29.75,29.051,26.888,26.19a.672.672,0,0,1,.364-1.138l3.439-.578a.672.672,0,0,1,.774.774l-.578,3.44a.672.672,0,0,1-1.138.364" transform="translate(-12.91 -12.724)"/></g><rect class="c" width="24" height="24" transform="translate(2.087 2.087)"/><path class="g" d="M10.706,10.085l4.2,3.07a.762.762,0,0,1,0,1.23l-4.2,3.07a.762.762,0,0,1-1.212-.615V10.7a.762.762,0,0,1,1.212-.615" transform="translate(2.368 0.317)"/></g><g class="h" transform="translate(733.914 555.914)"><g transform="translate(4.804 5.348)"><path class="a" d="M9.952,10.194a8.74,8.74,0,0,1,15.494,5.545" transform="translate(-7.424 -7)"/><path class="a" d="M22.833,25.106A8.74,8.74,0,0,1,7,20" transform="translate(-6.456 -11.261)"/><path class="b" d="M10.779,11.252,7.918,8.39a.672.672,0,0,0-1.138.364L6.2,12.193a.672.672,0,0,0,.774.774l3.44-.578a.672.672,0,0,0,.364-1.138" transform="translate(-6.192 -7.392)"/><path class="b" d="M29.75,29.051,26.888,26.19a.672.672,0,0,1,.364-1.138l3.439-.578a.672.672,0,0,1,.774.774l-.578,3.44a.672.672,0,0,1-1.138.364" transform="translate(-12.91 -12.724)"/></g><rect class="c" width="24" height="24" transform="translate(2.087 2.087)"/><path class="b" d="M10.706,10.085l4.2,3.07a.762.762,0,0,1,0,1.23l-4.2,3.07a.762.762,0,0,1-1.212-.615V10.7a.762.762,0,0,1,1.212-.615" transform="translate(2.368 0.317)"/></g></g></svg>