<?xml version="1.0" encoding="utf-8"?>
<!-- Generator: Adobe Illustrator 21.0.0, SVG Export Plug-In . SVG Version: 6.00 Build 0)  -->
<svg version="1.1" id="图层_1" xmlns="http://www.w3.org/2000/svg" xmlns:xlink="http://www.w3.org/1999/xlink" x="0px" y="0px"
	 viewBox="0 0 24 24" style="enable-background:new 0 0 24 24;" xml:space="preserve">
<style type="text/css">
	.st0{fill-rule:evenodd;clip-rule:evenodd;fill:#1F4E6A;}
	.st1{fill:none;}
</style>
<g>
	<path class="st0" d="M6.3,16.2l-1.4,1.4c-0.4,0.4-0.4,1,0,1.4c0.4,0.4,1,0.4,1.4,0l1.4-1.4c0.4-0.4,0.4-1,0-1.4
		C7.4,15.9,6.7,15.9,6.3,16.2z M6,12c0-0.6-0.4-1-1-1H3c-0.6,0-1,0.4-1,1s0.4,1,1,1h2C5.6,13,6,12.6,6,12z M12,6c0.6,0,1-0.4,1-1V3
		c0-0.6-0.4-1-1-1s-1,0.4-1,1v2C11,5.6,11.4,6,12,6z M17.7,7.8l1.4-1.4c0.4-0.4,0.4-1,0-1.4c-0.4-0.4-1-0.4-1.4,0l-1.4,1.4
		c-0.4,0.4-0.4,1,0,1.4C16.6,8.1,17.3,8.1,17.7,7.8z M21,11h-2c-0.6,0-1,0.4-1,1s0.4,1,1,1h2c0.6,0,1-0.4,1-1S21.6,11,21,11z
		 M17.7,16.2c-0.4-0.4-1-0.4-1.4,0c-0.4,0.4-0.4,1,0,1.4l1.4,1.4c0.4,0.4,1,0.4,1.4,0c0.4-0.4,0.4-1,0-1.4L17.7,16.2z M12,7
		c-2.8,0-5,2.2-5,5s2.2,5,5,5s5-2.2,5-5S14.8,7,12,7z M12,15c-1.7,0-3-1.3-3-3c0-1.7,1.3-3,3-3s3,1.3,3,3C15,13.7,13.7,15,12,15z
		 M12,18c-0.6,0-1,0.4-1,1v2c0,0.6,0.4,1,1,1s1-0.4,1-1v-2C13,18.4,12.6,18,12,18z M6.3,7.8c0.4,0.4,1,0.4,1.4,0
		c0.4-0.4,0.4-1,0-1.4L6.3,4.9c-0.4-0.4-1-0.4-1.4,0c-0.4,0.4-0.4,1,0,1.4L6.3,7.8z"/>
</g>
<rect class="st1" width="24" height="24"/>
</svg>
