<svg xmlns="http://www.w3.org/2000/svg" width="96" height="24.001" viewBox="0 0 96 24.001"><defs><style>.a{fill:#55616d;}.b{fill:none;}.c{fill:#818c98;}.d{fill:#438dec;}.e{opacity:0.3;}</style></defs><g transform="translate(-424 -558)"><g transform="translate(421.811 555.811)"><g transform="translate(5.848 4.284)"><path class="a" d="M12.6,38.957A2.769,2.769,0,0,0,16,41.1a2.909,2.909,0,0,0,1.98-2.145Z" transform="translate(-6.946 -21.486)"/><path class="a" d="M15.572,16.34a1.306,1.306,0,0,0,1.307-1.307v-.209a2.938,2.938,0,0,0-1.1-2.293L15.49,12.3a.653.653,0,0,1-.245-.51V8.7A6.806,6.806,0,0,0,9.76,2.022a1.361,1.361,0,0,0-2.636,0A6.806,6.806,0,0,0,1.633,8.7v3.1a.653.653,0,0,1-.245.51l-.284.229A2.938,2.938,0,0,0,0,14.818v.216A1.306,1.306,0,0,0,1.307,16.34Z" transform="translate(-0.098 -0.095)"/></g><rect class="b" width="24" height="24" transform="translate(2.189 2.189)"/></g><g transform="translate(445.811 555.811)"><g transform="translate(5.848 4.284)"><path class="c" d="M12.6,38.957A2.769,2.769,0,0,0,16,41.1a2.909,2.909,0,0,0,1.98-2.145Z" transform="translate(-6.946 -21.486)"/><path class="c" d="M15.572,16.34a1.306,1.306,0,0,0,1.307-1.307v-.209a2.938,2.938,0,0,0-1.1-2.293L15.49,12.3a.653.653,0,0,1-.245-.51V8.7A6.806,6.806,0,0,0,9.76,2.022a1.361,1.361,0,0,0-2.636,0A6.806,6.806,0,0,0,1.633,8.7v3.1a.653.653,0,0,1-.245.51l-.284.229A2.938,2.938,0,0,0,0,14.818v.216A1.306,1.306,0,0,0,1.307,16.34Z" transform="translate(-0.098 -0.095)"/></g><rect class="b" width="24" height="24" transform="translate(2.189 2.189)"/></g><g transform="translate(469.811 555.812)"><g transform="translate(5.848 4.284)"><path class="d" d="M12.6,38.957A2.769,2.769,0,0,0,16,41.1a2.909,2.909,0,0,0,1.98-2.145Z" transform="translate(-6.946 -21.486)"/><path class="d" d="M15.572,16.34a1.306,1.306,0,0,0,1.307-1.307v-.209a2.938,2.938,0,0,0-1.1-2.293L15.49,12.3a.653.653,0,0,1-.245-.51V8.7A6.806,6.806,0,0,0,9.76,2.022a1.361,1.361,0,0,0-2.636,0A6.806,6.806,0,0,0,1.633,8.7v3.1a.653.653,0,0,1-.245.51l-.284.229A2.938,2.938,0,0,0,0,14.818v.216A1.306,1.306,0,0,0,1.307,16.34Z" transform="translate(-0.098 -0.095)"/></g><rect class="b" width="24" height="24" transform="translate(2.189 2.189)"/></g><g class="e" transform="translate(493.811 555.812)"><g transform="translate(5.848 4.284)"><path class="a" d="M12.6,38.957A2.769,2.769,0,0,0,16,41.1a2.909,2.909,0,0,0,1.98-2.145Z" transform="translate(-6.946 -21.486)"/><path class="a" d="M15.572,16.34a1.306,1.306,0,0,0,1.307-1.307v-.209a2.938,2.938,0,0,0-1.1-2.293L15.49,12.3a.653.653,0,0,1-.245-.51V8.7A6.806,6.806,0,0,0,9.76,2.022a1.361,1.361,0,0,0-2.636,0A6.806,6.806,0,0,0,1.633,8.7v3.1a.653.653,0,0,1-.245.51l-.284.229A2.938,2.938,0,0,0,0,14.818v.216A1.306,1.306,0,0,0,1.307,16.34Z" transform="translate(-0.098 -0.095)"/></g><rect class="b" width="24" height="24" transform="translate(2.189 2.189)"/></g></g></svg>