<svg xmlns="http://www.w3.org/2000/svg" width="96.049" height="24" viewBox="0 0 96.049 24"><defs><style>.a{fill:#55616d;}.b,.c,.e,.g{fill:none;}.c{stroke:#55616d;}.c,.e,.g{stroke-linecap:round;stroke-width:1.4px;}.d{fill:#818c98;}.e{stroke:#818c98;}.f{fill:#438dec;}.g{stroke:#438dec;}.h{opacity:0.3;}</style></defs><g transform="translate(-423.951 -558)"><g transform="translate(421.811 555.811)"><g transform="translate(6.486 4.995)"><path class="a" d="M12.6,38.957a2.56,2.56,0,0,0,3.144,1.983,2.689,2.689,0,0,0,1.831-1.983Z" transform="translate(-7.381 -22.739)"/><path class="a" d="M14.394,15.18A1.208,1.208,0,0,0,15.6,13.972v-.193a2.716,2.716,0,0,0-1.021-2.12l-.263-.211a.6.6,0,0,1-.226-.471V8.114A6.291,6.291,0,0,0,9.021,1.945a1.258,1.258,0,0,0-2.437,0A6.291,6.291,0,0,0,1.51,8.114v2.862a.6.6,0,0,1-.226.471l-.263.211A2.716,2.716,0,0,0,0,13.773v.2A1.208,1.208,0,0,0,1.208,15.18Z" transform="translate(-0.098 -0.095)"/></g><rect class="b" width="24" height="24" transform="translate(2.189 2.189)"/><path class="c" d="M1.93,6.782A4.292,4.292,0,0,1,1.943.374" transform="translate(2.34 10.381)"/><path class="c" d="M4.479,6.447A2.489,2.489,0,0,1,4.487,2.73" transform="translate(1.845 9.374)"/><path class="c" d="M.513,6.783a4.282,4.282,0,0,0,1.43-3.2A4.281,4.281,0,0,0,.5.374" transform="translate(23.539 10.381)"/><path class="c" d="M3.657,6.447A2.489,2.489,0,0,0,3.65,2.73" transform="translate(18.34 9.374)"/></g><g transform="translate(445.811 555.811)"><g transform="translate(6.486 4.995)"><path class="d" d="M12.6,38.957a2.56,2.56,0,0,0,3.144,1.983,2.689,2.689,0,0,0,1.831-1.983Z" transform="translate(-7.381 -22.739)"/><path class="d" d="M14.394,15.18A1.208,1.208,0,0,0,15.6,13.972v-.193a2.716,2.716,0,0,0-1.021-2.12l-.263-.211a.6.6,0,0,1-.226-.471V8.114A6.291,6.291,0,0,0,9.021,1.945a1.258,1.258,0,0,0-2.437,0A6.291,6.291,0,0,0,1.51,8.114v2.862a.6.6,0,0,1-.226.471l-.263.211A2.716,2.716,0,0,0,0,13.773v.2A1.208,1.208,0,0,0,1.208,15.18Z" transform="translate(-0.098 -0.095)"/></g><rect class="b" width="24" height="24" transform="translate(2.189 2.189)"/><path class="e" d="M1.93,6.782A4.292,4.292,0,0,1,1.943.374" transform="translate(2.34 10.381)"/><path class="e" d="M4.479,6.447A2.489,2.489,0,0,1,4.487,2.73" transform="translate(1.845 9.374)"/><path class="e" d="M.513,6.783a4.282,4.282,0,0,0,1.43-3.2A4.281,4.281,0,0,0,.5.374" transform="translate(23.539 10.381)"/><path class="e" d="M3.657,6.447A2.489,2.489,0,0,0,3.65,2.73" transform="translate(18.34 9.374)"/></g><g transform="translate(469.811 555.811)"><g transform="translate(6.486 4.995)"><path class="f" d="M12.6,38.957a2.56,2.56,0,0,0,3.144,1.983,2.689,2.689,0,0,0,1.831-1.983Z" transform="translate(-7.381 -22.739)"/><path class="f" d="M14.394,15.18A1.208,1.208,0,0,0,15.6,13.972v-.193a2.716,2.716,0,0,0-1.021-2.12l-.263-.211a.6.6,0,0,1-.226-.471V8.114A6.291,6.291,0,0,0,9.021,1.945a1.258,1.258,0,0,0-2.437,0A6.291,6.291,0,0,0,1.51,8.114v2.862a.6.6,0,0,1-.226.471l-.263.211A2.716,2.716,0,0,0,0,13.773v.2A1.208,1.208,0,0,0,1.208,15.18Z" transform="translate(-0.098 -0.095)"/></g><rect class="b" width="24" height="24" transform="translate(2.189 2.189)"/><path class="g" d="M1.93,6.782A4.292,4.292,0,0,1,1.943.374" transform="translate(2.34 10.381)"/><path class="g" d="M4.479,6.447A2.489,2.489,0,0,1,4.487,2.73" transform="translate(1.845 9.374)"/><path class="g" d="M.513,6.783a4.282,4.282,0,0,0,1.43-3.2A4.281,4.281,0,0,0,.5.374" transform="translate(23.539 10.381)"/><path class="g" d="M3.657,6.447A2.489,2.489,0,0,0,3.65,2.73" transform="translate(18.34 9.374)"/></g><g class="h" transform="translate(493.811 555.811)"><g transform="translate(6.486 4.995)"><path class="d" d="M12.6,38.957a2.56,2.56,0,0,0,3.144,1.983,2.689,2.689,0,0,0,1.831-1.983Z" transform="translate(-7.381 -22.739)"/><path class="d" d="M14.394,15.18A1.208,1.208,0,0,0,15.6,13.972v-.193a2.716,2.716,0,0,0-1.021-2.12l-.263-.211a.6.6,0,0,1-.226-.471V8.114A6.291,6.291,0,0,0,9.021,1.945a1.258,1.258,0,0,0-2.437,0A6.291,6.291,0,0,0,1.51,8.114v2.862a.6.6,0,0,1-.226.471l-.263.211A2.716,2.716,0,0,0,0,13.773v.2A1.208,1.208,0,0,0,1.208,15.18Z" transform="translate(-0.098 -0.095)"/></g><rect class="b" width="24" height="24" transform="translate(2.189 2.189)"/><path class="e" d="M1.93,6.782A4.292,4.292,0,0,1,1.943.374" transform="translate(2.34 10.381)"/><path class="e" d="M4.479,6.447A2.489,2.489,0,0,1,4.487,2.73" transform="translate(1.845 9.374)"/><path class="e" d="M.513,6.783a4.282,4.282,0,0,0,1.43-3.2A4.281,4.281,0,0,0,.5.374" transform="translate(23.539 10.381)"/><path class="e" d="M3.657,6.447A2.489,2.489,0,0,0,3.65,2.73" transform="translate(18.34 9.374)"/></g></g></svg>