<?xml version="1.0" encoding="utf-8"?>
<!-- Generator: Adobe Illustrator 21.0.0, SVG Export Plug-In . SVG Version: 6.00 Build 0)  -->
<svg version="1.1" id="图层_1" xmlns="http://www.w3.org/2000/svg" xmlns:xlink="http://www.w3.org/1999/xlink" x="0px" y="0px"
	 viewBox="0 0 16 16" style="enable-background:new 0 0 16 16;" xml:space="preserve">
<style type="text/css">
	.st0{fill:none;}
	.st1{fill-rule:evenodd;clip-rule:evenodd;fill:#96A6BA;}
</style>
<rect class="st0" width="16" height="16"/>
<g>
	<path class="st1" d="M8,4.4C6.6,4.4,5.4,5.6,5.4,7c0,1.4,1.2,2.6,2.6,2.6c1.4,0,2.6-1.2,2.6-2.6C10.6,5.6,9.4,4.4,8,4.4z M8,7.9
		C7.5,7.9,7.1,7.5,7.1,7c0-0.5,0.4-0.9,0.9-0.9c0.5,0,0.9,0.4,0.9,0.9C8.9,7.5,8.5,7.9,8,7.9z M8,1C4.7,1,2,3.7,2,7s6,8.6,6,8.6
		s6-5.3,6-8.6S11.3,1,8,1z M8,13c0,0-4.3-3.6-4.3-6c0-2.4,1.9-4.3,4.3-4.3c2.4,0,4.3,1.9,4.3,4.3C12.3,9.4,8,13,8,13z"/>
</g>
</svg>
