<?xml version="1.0" encoding="utf-8"?>
<!-- Generator: Adobe Illustrator 21.0.0, SVG Export Plug-In . SVG Version: 6.00 Build 0)  -->
<svg version="1.1" id="图层_1" xmlns="http://www.w3.org/2000/svg" xmlns:xlink="http://www.w3.org/1999/xlink" x="0px" y="0px"
	 viewBox="0 0 24 24" style="enable-background:new 0 0 24 24;" xml:space="preserve">
<style type="text/css">
	.st0{fill-rule:evenodd;clip-rule:evenodd;fill:#1F4E6A;}
	.st1{fill:none;}
</style>
<path class="st0" d="M18,8.8C17.9,5.6,15.2,3,12,3S6.1,5.6,6,8.8c-1.8,1-3,3-3,5.2c0,3.3,2.7,6,6,6c1.1,0,2.1-0.3,3-0.8
	c0.9,0.5,1.9,0.8,3,0.8c3.3,0,6-2.7,6-6C21,11.8,19.8,9.8,18,8.8z M14.6,12c-0.2-0.6-0.6-1.2-1-1.7c0.4-0.1,0.9-0.2,1.3-0.2
	c0.3,0,0.6,0,0.8,0.1C15.6,10.8,15.2,11.5,14.6,12z M12,16.6c-0.4-0.5-0.7-1.1-0.9-1.7c0.3,0,0.6,0.1,0.9,0.1s0.6,0,0.9-0.1
	C12.7,15.6,12.4,16.1,12,16.6z M8.2,10.1C8.4,10,8.7,10,9,10c0.5,0,0.9,0.1,1.3,0.2c-0.4,0.5-0.7,1.1-1,1.7
	C8.8,11.5,8.4,10.8,8.2,10.1z M12,13c-0.3,0-0.6,0-0.8-0.1c0.2-0.6,0.4-1.1,0.8-1.5c0.4,0.4,0.7,1,0.8,1.5C12.6,13,12.3,13,12,13z
	 M12,5c1.9,0,3.5,1.3,3.9,3.1C15.6,8,15.3,8,15,8c-1.1,0-2.1,0.3-3,0.8C11.1,8.3,10.1,8,9,8C8.7,8,8.4,8,8.1,8.1
	C8.5,6.3,10.1,5,12,5z M5,14c0-1.2,0.5-2.2,1.4-3c0.5,1.3,1.4,2.5,2.7,3.2c0,1.3,0.5,2.6,1.3,3.6C9.9,17.9,9.5,18,9,18
	C6.8,18,5,16.2,5,14z M15,18c-0.5,0-0.9-0.1-1.3-0.2c0.8-1,1.3-2.2,1.3-3.6c1.2-0.7,2.2-1.8,2.7-3.2c0.8,0.7,1.4,1.8,1.4,3
	C19,16.2,17.2,18,15,18z"/>
<rect class="st1" width="24" height="24"/>
</svg>
