<svg xmlns="http://www.w3.org/2000/svg" xmlns:xlink="http://www.w3.org/1999/xlink" width="96" height="24" viewBox="0 0 96 24"><defs><style>.a{fill:none;}.b{clip-path:url(#a);}.c{fill:#55616d;}.d{fill:#818c98;}.e{fill:#438dec;}.f{opacity:0.3;}</style><clipPath id="a"><rect class="a" width="24" height="24" transform="translate(2.435 2.435)"/></clipPath></defs><g transform="translate(-784 -590.001)"><g transform="translate(781.811 587.812)"><g class="b" transform="translate(-0.246 -0.246)"><path class="c" d="M8.42,9h7.1v7.1H7V10.42A1.419,1.419,0,0,1,8.42,9" transform="translate(-1.794 -2.374)"/><path class="c" d="M21,9h7.1a1.419,1.419,0,0,1,1.42,1.42V16.1H21Z" transform="translate(-5.855 -2.374)"/><path class="c" d="M7,21h8.519v7.1H8.42A1.419,1.419,0,0,1,7,26.679Z" transform="translate(-1.794 -5.855)"/><path class="c" d="M21,21h8.519v5.679A1.419,1.419,0,0,1,28.1,28.1H21Z" transform="translate(-5.855 -5.855)"/></g></g><g transform="translate(805.811 587.812)"><path class="d" d="M8.42,9h7.1v7.1H7V10.42A1.419,1.419,0,0,1,8.42,9" transform="translate(-2.039 -2.62)"/><path class="d" d="M21,9h7.1a1.419,1.419,0,0,1,1.42,1.42V16.1H21Z" transform="translate(-6.102 -2.62)"/><path class="d" d="M7,21h8.519v7.1H8.42A1.419,1.419,0,0,1,7,26.679Z" transform="translate(-2.039 -6.101)"/><path class="d" d="M21,21h8.519v5.679A1.419,1.419,0,0,1,28.1,28.1H21Z" transform="translate(-6.102 -6.101)"/><rect class="a" width="24" height="24" transform="translate(2.189 2.189)"/></g><g transform="translate(829.811 587.812)"><g class="b" transform="translate(-0.246 -0.246)"><path class="e" d="M8.42,9h7.1v7.1H7V10.42A1.419,1.419,0,0,1,8.42,9" transform="translate(-1.794 -2.374)"/><path class="e" d="M21,9h7.1a1.419,1.419,0,0,1,1.42,1.42V16.1H21Z" transform="translate(-5.855 -2.374)"/><path class="e" d="M7,21h8.519v7.1H8.42A1.419,1.419,0,0,1,7,26.679Z" transform="translate(-1.794 -5.855)"/><path class="e" d="M21,21h8.519v5.679A1.419,1.419,0,0,1,28.1,28.1H21Z" transform="translate(-5.855 -5.855)"/></g></g><g class="f" transform="translate(853.811 587.812)"><g class="b" transform="translate(-0.246 -0.246)"><path class="c" d="M8.42,9h7.1v7.1H7V10.42A1.419,1.419,0,0,1,8.42,9" transform="translate(-1.794 -2.374)"/><path class="c" d="M21,9h7.1a1.419,1.419,0,0,1,1.42,1.42V16.1H21Z" transform="translate(-5.855 -2.374)"/><path class="c" d="M7,21h8.519v7.1H8.42A1.419,1.419,0,0,1,7,26.679Z" transform="translate(-1.794 -5.855)"/><path class="c" d="M21,21h8.519v5.679A1.419,1.419,0,0,1,28.1,28.1H21Z" transform="translate(-5.855 -5.855)"/></g></g></g></svg>