<?xml version="1.0" encoding="utf-8"?>
<!-- Generator: Adobe Illustrator 21.0.0, SVG Export Plug-In . SVG Version: 6.00 Build 0)  -->
<svg version="1.1" id="图层_1" xmlns="http://www.w3.org/2000/svg" xmlns:xlink="http://www.w3.org/1999/xlink" x="0px" y="0px"
	 viewBox="0 0 24 24" style="enable-background:new 0 0 24 24;" xml:space="preserve">
<style type="text/css">
	.st0{fill-rule:evenodd;clip-rule:evenodd;fill:#1F4E6A;}
	.st1{fill:none;}
</style>
<g>
	<path class="st0" d="M12,7c-0.6,0-1,0.4-1,1v8c0,0.6,0.4,1,1,1c2.8,0,5-2.2,5-5S14.8,7,12,7z M13,14.8V9.2c1.2,0.4,2,1.5,2,2.8
		C15,13.3,14.2,14.4,13,14.8z M12,3c-5,0-9,4-9,9c0,5,4,9,9,9s9-4,9-9C21,7,17,3,12,3z M12,19c-3.9,0-7-3.1-7-7c0-3.9,3.1-7,7-7
		s7,3.1,7,7C19,15.9,15.9,19,12,19z"/>
</g>
<rect class="st1" width="24" height="24"/>
</svg>
