<svg xmlns="http://www.w3.org/2000/svg" width="96" height="24" viewBox="0 0 96 24"><defs><style>.a,.b{fill:#55616d;}.b{stroke:#55616d;}.b,.f,.h{stroke-width:0.6px;}.c{fill:none;}.d{opacity:0.3;}.e,.f{fill:#818c98;}.f{stroke:#818c98;}.g,.h{fill:#438dec;}.h{stroke:#438dec;}</style></defs><g transform="translate(-1263.999 -710)"><g transform="translate(1259.967 705.968)"><path class="a" d="M19.379,16.081A2.629,2.629,0,1,1,16.75,18.71a2.628,2.628,0,0,1,2.629-2.629" transform="translate(-4.731 -4.531)"/><path class="b" d="M15.76,21.53a3.135,3.135,0,0,1,.08-.414A4.778,4.778,0,1,1,20.1,13.768,2.918,2.918,0,0,1,21.68,13.3l.119,0a2.928,2.928,0,0,1,1.587-.674,9.806,9.806,0,0,0-2.242-1.9s-.319-.187-.333-.193a9.6,9.6,0,0,0-3.018-1.081l-.035-.006A9.731,9.731,0,0,0,6.838,16.09a.841.841,0,0,0,0,.5,9.619,9.619,0,0,0,.983,2.162c.026.067.252.391.252.391.12.176.248.349.405.546.116.147.237.292.387.461l.057.064a9.738,9.738,0,0,0,5.453,3.015.74.74,0,0,0,.095.011,9.649,9.649,0,0,0,1.581.131h.025l.049,0a3.493,3.493,0,0,1-.366-1.842" transform="translate(-1.426 -2.173)"/><path class="a" d="M32.631,30.247c1.22-.147,1.417-1.305,1.449-2.565a1.063,1.063,0,0,0,.008-.12V19.589a.9.9,0,1,0-1.808,0V22.36c-.117-.043-.238-.081-.363-.113V18.279a.9.9,0,0,0-1.808,0v3.794h-.363V17.9a.9.9,0,1,0-1.8,0v4.274c-.126.025-.248.054-.368.09V18.655a.9.9,0,0,0-1.807,0v6.159l-.031.515-1.426-1.5a1.065,1.065,0,0,0-1.384,0,1.335,1.335,0,0,0,.1,1.939s2.111,3.2,2.929,4.173a.876.876,0,0,0,.819.311,56.277,56.277,0,0,0,5.855,0" transform="translate(-6.527 -4.927)"/><rect class="c" width="24" height="24" transform="translate(4.032 4.032)"/></g><g class="d" transform="translate(1331.967 705.968)"><path class="a" d="M19.379,16.081A2.629,2.629,0,1,1,16.75,18.71a2.628,2.628,0,0,1,2.629-2.629" transform="translate(-4.731 -4.531)"/><path class="b" d="M15.76,21.53a3.135,3.135,0,0,1,.08-.414A4.778,4.778,0,1,1,20.1,13.768,2.918,2.918,0,0,1,21.68,13.3l.119,0a2.928,2.928,0,0,1,1.587-.674,9.806,9.806,0,0,0-2.242-1.9s-.319-.187-.333-.193a9.6,9.6,0,0,0-3.018-1.081l-.035-.006A9.731,9.731,0,0,0,6.838,16.09a.841.841,0,0,0,0,.5,9.619,9.619,0,0,0,.983,2.162c.026.067.252.391.252.391.12.176.248.349.405.546.116.147.237.292.387.461l.057.064a9.738,9.738,0,0,0,5.453,3.015.74.74,0,0,0,.095.011,9.649,9.649,0,0,0,1.581.131h.025l.049,0a3.493,3.493,0,0,1-.366-1.842" transform="translate(-1.426 -2.173)"/><path class="a" d="M32.631,30.247c1.22-.147,1.417-1.305,1.449-2.565a1.063,1.063,0,0,0,.008-.12V19.589a.9.9,0,1,0-1.808,0V22.36c-.117-.043-.238-.081-.363-.113V18.279a.9.9,0,0,0-1.808,0v3.794h-.363V17.9a.9.9,0,1,0-1.8,0v4.274c-.126.025-.248.054-.368.09V18.655a.9.9,0,0,0-1.807,0v6.159l-.031.515-1.426-1.5a1.065,1.065,0,0,0-1.384,0,1.335,1.335,0,0,0,.1,1.939s2.111,3.2,2.929,4.173a.876.876,0,0,0,.819.311,56.277,56.277,0,0,0,5.855,0" transform="translate(-6.527 -4.927)"/><rect class="c" width="24" height="24" transform="translate(4.032 4.032)"/></g><g transform="translate(1283.967 705.968)"><path class="e" d="M19.379,16.081A2.629,2.629,0,1,1,16.75,18.71a2.628,2.628,0,0,1,2.629-2.629" transform="translate(-4.731 -4.531)"/><path class="f" d="M15.76,21.53a3.135,3.135,0,0,1,.08-.414A4.778,4.778,0,1,1,20.1,13.768,2.918,2.918,0,0,1,21.68,13.3l.119,0a2.928,2.928,0,0,1,1.587-.674,9.806,9.806,0,0,0-2.242-1.9s-.319-.187-.333-.193a9.6,9.6,0,0,0-3.018-1.081l-.035-.006A9.731,9.731,0,0,0,6.838,16.09a.841.841,0,0,0,0,.5,9.619,9.619,0,0,0,.983,2.162c.026.067.252.391.252.391.12.176.248.349.405.546.116.147.237.292.387.461l.057.064a9.738,9.738,0,0,0,5.453,3.015.74.74,0,0,0,.095.011,9.649,9.649,0,0,0,1.581.131h.025l.049,0a3.493,3.493,0,0,1-.366-1.842" transform="translate(-1.426 -2.173)"/><path class="e" d="M32.631,30.247c1.22-.147,1.417-1.305,1.449-2.565a1.063,1.063,0,0,0,.008-.12V19.589a.9.9,0,1,0-1.808,0V22.36c-.117-.043-.238-.081-.363-.113V18.279a.9.9,0,0,0-1.808,0v3.794h-.363V17.9a.9.9,0,1,0-1.8,0v4.274c-.126.025-.248.054-.368.09V18.655a.9.9,0,0,0-1.807,0v6.159l-.031.515-1.426-1.5a1.065,1.065,0,0,0-1.384,0,1.335,1.335,0,0,0,.1,1.939s2.111,3.2,2.929,4.173a.876.876,0,0,0,.819.311,56.277,56.277,0,0,0,5.855,0" transform="translate(-6.527 -4.927)"/><rect class="c" width="24" height="24" transform="translate(4.032 4.032)"/></g><g transform="translate(1307.967 705.968)"><path class="g" d="M19.379,16.081A2.629,2.629,0,1,1,16.75,18.71a2.628,2.628,0,0,1,2.629-2.629" transform="translate(-4.731 -4.531)"/><path class="h" d="M15.76,21.53a3.135,3.135,0,0,1,.08-.414A4.778,4.778,0,1,1,20.1,13.768,2.918,2.918,0,0,1,21.68,13.3l.119,0a2.928,2.928,0,0,1,1.587-.674,9.806,9.806,0,0,0-2.242-1.9s-.319-.187-.333-.193a9.6,9.6,0,0,0-3.018-1.081l-.035-.006A9.731,9.731,0,0,0,6.838,16.09a.841.841,0,0,0,0,.5,9.619,9.619,0,0,0,.983,2.162c.026.067.252.391.252.391.12.176.248.349.405.546.116.147.237.292.387.461l.057.064a9.738,9.738,0,0,0,5.453,3.015.74.74,0,0,0,.095.011,9.649,9.649,0,0,0,1.581.131h.025l.049,0a3.493,3.493,0,0,1-.366-1.842" transform="translate(-1.426 -2.173)"/><path class="g" d="M32.631,30.247c1.22-.147,1.417-1.305,1.449-2.565a1.063,1.063,0,0,0,.008-.12V19.589a.9.9,0,1,0-1.808,0V22.36c-.117-.043-.238-.081-.363-.113V18.279a.9.9,0,0,0-1.808,0v3.794h-.363V17.9a.9.9,0,1,0-1.8,0v4.274c-.126.025-.248.054-.368.09V18.655a.9.9,0,0,0-1.807,0v6.159l-.031.515-1.426-1.5a1.065,1.065,0,0,0-1.384,0,1.335,1.335,0,0,0,.1,1.939s2.111,3.2,2.929,4.173a.876.876,0,0,0,.819.311,56.277,56.277,0,0,0,5.855,0" transform="translate(-6.527 -4.927)"/><rect class="c" width="24" height="24" transform="translate(4.032 4.032)"/></g></g></svg>