<svg xmlns="http://www.w3.org/2000/svg" width="96" height="24.001" viewBox="0 0 96 24.001"><defs><style>.a{fill:#55616d;}.b{fill:none;}.c{fill:#818c98;}.d{fill:#438dec;}.e{opacity:0.3;}</style></defs><g transform="translate(-64.001 -590)"><g transform="translate(62.107 588.106)"><path class="a" d="M19.332,9.919l9.886,6.391a1.535,1.535,0,0,1,0,2.578l-9.886,6.391a1.535,1.535,0,0,1-2.369-1.29V11.208a1.535,1.535,0,0,1,2.369-1.29" transform="translate(-8.823 -3.706)"/><rect class="b" width="24" height="24" transform="translate(1.893 1.893)"/></g><g transform="translate(86.107 588.106)"><path class="c" d="M19.332,9.919l9.886,6.391a1.535,1.535,0,0,1,0,2.578l-9.886,6.391a1.535,1.535,0,0,1-2.369-1.29V11.208a1.535,1.535,0,0,1,2.369-1.29" transform="translate(-8.823 -3.706)"/><rect class="b" width="24" height="24" transform="translate(1.893 1.893)"/></g><g transform="translate(110.107 588.107)"><path class="d" d="M19.332,9.919l9.886,6.391a1.535,1.535,0,0,1,0,2.578l-9.886,6.391a1.535,1.535,0,0,1-2.369-1.29V11.208a1.535,1.535,0,0,1,2.369-1.29" transform="translate(-8.823 -3.706)"/><rect class="b" width="24" height="24" transform="translate(1.893 1.893)"/></g><g class="e" transform="translate(134.107 588.107)"><path class="a" d="M19.332,9.919l9.886,6.391a1.535,1.535,0,0,1,0,2.578l-9.886,6.391a1.535,1.535,0,0,1-2.369-1.29V11.208a1.535,1.535,0,0,1,2.369-1.29" transform="translate(-8.823 -3.706)"/><rect class="b" width="24" height="24" transform="translate(1.893 1.893)"/></g></g></svg>