<svg xmlns="http://www.w3.org/2000/svg" width="96" height="24.001" viewBox="0 0 96 24.001"><defs><style>.a{fill:none;}.b{fill:#fff;}.c{fill:#aed1ff;}.d{fill:#438dec;}.e{opacity:0.5;}.f{fill:#cecece;}</style></defs><g transform="translate(-543.999 -622)"><g transform="translate(542.641 620.642)"><rect class="a" width="24" height="24" transform="translate(1.358 1.358)"/><path class="b" d="M6.642,17.68A8.961,8.961,0,0,0,9,18h.127a2.7,2.7,0,0,0,2.4-3.874l-.178-.373a1.8,1.8,0,0,1,2.4-2.4h0l.372.179A2.706,2.706,0,0,0,18,9.126a8.906,8.906,0,0,0-.318-2.484,9,9,0,0,0-17.6,3.617A9.063,9.063,0,0,0,6.642,17.68M12.15,3.6a1.35,1.35,0,1,1-1.35,1.35A1.35,1.35,0,0,1,12.15,3.6m-4.5-.9A1.35,1.35,0,1,1,6.3,4.049,1.35,1.35,0,0,1,7.65,2.7M6.3,12.154A1.35,1.35,0,1,1,4.95,10.8a1.35,1.35,0,0,1,1.35,1.35M4.05,6.3A1.35,1.35,0,1,1,2.7,7.654,1.35,1.35,0,0,1,4.05,6.3" transform="translate(4.359 4.359)"/></g><g transform="translate(566.641 620.642)"><rect class="a" width="24" height="24" transform="translate(1.358 1.358)"/><path class="c" d="M6.642,17.68A8.961,8.961,0,0,0,9,18h.127a2.7,2.7,0,0,0,2.4-3.874l-.178-.373a1.8,1.8,0,0,1,2.4-2.4h0l.372.179A2.706,2.706,0,0,0,18,9.126a8.906,8.906,0,0,0-.318-2.484,9,9,0,0,0-17.6,3.617A9.063,9.063,0,0,0,6.642,17.68M12.15,3.6a1.35,1.35,0,1,1-1.35,1.35A1.35,1.35,0,0,1,12.15,3.6m-4.5-.9A1.35,1.35,0,1,1,6.3,4.049,1.35,1.35,0,0,1,7.65,2.7M6.3,12.154A1.35,1.35,0,1,1,4.95,10.8a1.35,1.35,0,0,1,1.35,1.35M4.05,6.3A1.35,1.35,0,1,1,2.7,7.654,1.35,1.35,0,0,1,4.05,6.3" transform="translate(4.359 4.359)"/></g><g transform="translate(590.641 620.643)"><rect class="a" width="24" height="24" transform="translate(1.358 1.358)"/><path class="d" d="M6.642,17.68A8.961,8.961,0,0,0,9,18h.127a2.7,2.7,0,0,0,2.4-3.874l-.178-.373a1.8,1.8,0,0,1,2.4-2.4h0l.372.179A2.706,2.706,0,0,0,18,9.126a8.906,8.906,0,0,0-.318-2.484,9,9,0,0,0-17.6,3.617A9.063,9.063,0,0,0,6.642,17.68M12.15,3.6a1.35,1.35,0,1,1-1.35,1.35A1.35,1.35,0,0,1,12.15,3.6m-4.5-.9A1.35,1.35,0,1,1,6.3,4.049,1.35,1.35,0,0,1,7.65,2.7M6.3,12.154A1.35,1.35,0,1,1,4.95,10.8a1.35,1.35,0,0,1,1.35,1.35M4.05,6.3A1.35,1.35,0,1,1,2.7,7.654,1.35,1.35,0,0,1,4.05,6.3" transform="translate(4.359 4.359)"/></g><g class="e" transform="translate(614.641 620.643)"><rect class="a" width="24" height="24" transform="translate(1.358 1.358)"/><path class="f" d="M6.642,17.68A8.961,8.961,0,0,0,9,18h.127a2.7,2.7,0,0,0,2.4-3.874l-.178-.373a1.8,1.8,0,0,1,2.4-2.4h0l.372.179A2.706,2.706,0,0,0,18,9.126a8.906,8.906,0,0,0-.318-2.484,9,9,0,0,0-17.6,3.617A9.063,9.063,0,0,0,6.642,17.68M12.15,3.6a1.35,1.35,0,1,1-1.35,1.35A1.35,1.35,0,0,1,12.15,3.6m-4.5-.9A1.35,1.35,0,1,1,6.3,4.049,1.35,1.35,0,0,1,7.65,2.7M6.3,12.154A1.35,1.35,0,1,1,4.95,10.8a1.35,1.35,0,0,1,1.35,1.35M4.05,6.3A1.35,1.35,0,1,1,2.7,7.654,1.35,1.35,0,0,1,4.05,6.3" transform="translate(4.359 4.359)"/></g></g></svg>