<svg xmlns="http://www.w3.org/2000/svg" width="96" height="24" viewBox="0 0 96 24"><defs><style>.a{fill:#fff;}.b,.c,.e,.g,.j{fill:none;}.b{stroke:#fff;}.b,.e,.g,.j{stroke-width:2px;}.d{fill:#aed1ff;}.e{stroke:#aed1ff;}.f{fill:#438dec;}.g{stroke:#438dec;}.h{opacity:0.5;}.i{fill:#cecece;}.j{stroke:#cecece;}</style></defs><g transform="translate(-127.999 -824.001)"><g transform="translate(123.352 819.354)"><path class="a" d="M26.635,27.7,28.7,25.637l3.619,3.618a1.462,1.462,0,0,1-2.067,2.068Z" transform="translate(-6.599 -6.33)"/><circle class="b" cx="6.945" cy="6.945" r="6.945" transform="translate(8.972 8.241)"/><path class="a" d="M20.883,16h0a.883.883,0,0,1,.883.883v5.3a.883.883,0,0,1-1.766,0v-5.3A.883.883,0,0,1,20.883,16" transform="translate(-4.966 -4.346)"/><path class="a" d="M24.063,19.883h0a.883.883,0,0,1-.883.883h-5.3a.883.883,0,1,1,0-1.766h5.3a.883.883,0,0,1,.883.883" transform="translate(-4.615 -4.697)"/><rect class="c" width="24" height="24" transform="translate(4.648 4.648)"/></g><g transform="translate(147.352 819.354)"><path class="d" d="M26.635,27.7,28.7,25.637l3.619,3.618a1.462,1.462,0,0,1-2.067,2.068Z" transform="translate(-6.599 -6.33)"/><circle class="e" cx="6.945" cy="6.945" r="6.945" transform="translate(8.972 8.241)"/><path class="d" d="M20.883,16h0a.883.883,0,0,1,.883.883v5.3a.883.883,0,0,1-1.766,0v-5.3A.883.883,0,0,1,20.883,16" transform="translate(-4.966 -4.346)"/><path class="d" d="M24.063,19.883h0a.883.883,0,0,1-.883.883h-5.3a.883.883,0,1,1,0-1.766h5.3a.883.883,0,0,1,.883.883" transform="translate(-4.615 -4.697)"/><rect class="c" width="24" height="24" transform="translate(4.648 4.648)"/></g><g transform="translate(171.352 819.354)"><path class="f" d="M26.635,27.7,28.7,25.637l3.619,3.618a1.462,1.462,0,0,1-2.067,2.068Z" transform="translate(-6.599 -6.33)"/><circle class="g" cx="6.945" cy="6.945" r="6.945" transform="translate(8.972 8.241)"/><path class="f" d="M20.883,16h0a.883.883,0,0,1,.883.883v5.3a.883.883,0,0,1-1.766,0v-5.3A.883.883,0,0,1,20.883,16" transform="translate(-4.966 -4.346)"/><path class="f" d="M24.063,19.883h0a.883.883,0,0,1-.883.883h-5.3a.883.883,0,1,1,0-1.766h5.3a.883.883,0,0,1,.883.883" transform="translate(-4.615 -4.697)"/><rect class="c" width="24" height="24" transform="translate(4.648 4.648)"/></g><g transform="translate(195.352 819.354)"><g class="h"><path class="i" d="M26.635,27.7,28.7,25.637l3.619,3.618a1.462,1.462,0,0,1-2.067,2.068Z" transform="translate(-6.599 -6.33)"/><circle class="j" cx="6.945" cy="6.945" r="6.945" transform="translate(8.972 8.241)"/><path class="i" d="M20.883,16h0a.883.883,0,0,1,.883.883v5.3a.883.883,0,0,1-1.766,0v-5.3A.883.883,0,0,1,20.883,16" transform="translate(-4.966 -4.346)"/><path class="i" d="M24.063,19.883h0a.883.883,0,0,1-.883.883h-5.3a.883.883,0,1,1,0-1.766h5.3a.883.883,0,0,1,.883.883" transform="translate(-4.615 -4.697)"/></g><rect class="c" width="24" height="24" transform="translate(4.648 4.648)"/></g></g></svg>