<svg xmlns="http://www.w3.org/2000/svg" width="96" height="24" viewBox="0 0 96 24"><defs><style>.a{fill:#fff;}.b{fill:none;}.c{fill:#aed1ff;}.d{fill:#438dec;}.e{fill:#cecece;opacity:0.5;}</style></defs><g transform="translate(-247.999 -792.001)"><g transform="translate(246.641 790.643)"><path class="a" d="M-1851.662-348.682a8.99,8.99,0,0,1-8.98-8.98,8.99,8.99,0,0,1,8.98-8.98,8.99,8.99,0,0,1,8.98,8.98A8.99,8.99,0,0,1-1851.662-348.682Zm-1.386-4.155a.594.594,0,0,0-.543.346.6.6,0,0,0,.083.639l1.373,1.647a.6.6,0,0,0,.461.216.6.6,0,0,0,.461-.216l1.373-1.647a.6.6,0,0,0,.083-.639.594.594,0,0,0-.543-.346Zm1.386-7.174a2.352,2.352,0,0,0-2.349,2.349,2.352,2.352,0,0,0,2.349,2.349,2.352,2.352,0,0,0,2.349-2.349A2.352,2.352,0,0,0-1851.662-360.011Zm5.435.368a.6.6,0,0,0-.6.6v2.745a.6.6,0,0,0,.6.6.589.589,0,0,0,.382-.14l1.646-1.372a.6.6,0,0,0,.216-.462.6.6,0,0,0-.216-.46l-1.646-1.372A.591.591,0,0,0-1846.227-359.643Zm-10.869-.013a.588.588,0,0,0-.381.14l-1.647,1.372a.6.6,0,0,0-.216.461.6.6,0,0,0,.216.461l1.647,1.372a.591.591,0,0,0,.381.139.6.6,0,0,0,.6-.6v-2.745a.59.59,0,0,0-.185-.435A.615.615,0,0,0-1857.1-359.656Zm5.433-5.683a.6.6,0,0,0-.461.216l-1.373,1.647a.594.594,0,0,0-.083.638.6.6,0,0,0,.544.346h2.745a.6.6,0,0,0,.543-.346.594.594,0,0,0-.083-.638l-1.373-1.647A.6.6,0,0,0-1851.662-365.339Z" transform="translate(1865.02 371.02)"/><rect class="b" width="24" height="24" transform="translate(1.358 1.358)"/></g><g transform="translate(270.641 790.643)"><path class="c" d="M-1851.662-348.682a8.99,8.99,0,0,1-8.98-8.98,8.99,8.99,0,0,1,8.98-8.98,8.99,8.99,0,0,1,8.98,8.98A8.99,8.99,0,0,1-1851.662-348.682Zm-1.386-4.155a.594.594,0,0,0-.543.346.6.6,0,0,0,.083.639l1.373,1.647a.6.6,0,0,0,.461.216.6.6,0,0,0,.461-.216l1.373-1.647a.6.6,0,0,0,.083-.639.594.594,0,0,0-.543-.346Zm1.386-7.174a2.352,2.352,0,0,0-2.349,2.349,2.352,2.352,0,0,0,2.349,2.349,2.352,2.352,0,0,0,2.349-2.349A2.352,2.352,0,0,0-1851.662-360.011Zm5.435.368a.6.6,0,0,0-.6.6v2.745a.6.6,0,0,0,.6.6.589.589,0,0,0,.382-.14l1.646-1.372a.6.6,0,0,0,.216-.462.6.6,0,0,0-.216-.46l-1.646-1.372A.591.591,0,0,0-1846.227-359.643Zm-10.869-.013a.588.588,0,0,0-.381.14l-1.647,1.372a.6.6,0,0,0-.216.461.6.6,0,0,0,.216.461l1.647,1.372a.591.591,0,0,0,.381.139.6.6,0,0,0,.6-.6v-2.745a.59.59,0,0,0-.185-.435A.615.615,0,0,0-1857.1-359.656Zm5.433-5.683a.6.6,0,0,0-.461.216l-1.373,1.647a.594.594,0,0,0-.083.638.6.6,0,0,0,.544.346h2.745a.6.6,0,0,0,.543-.346.594.594,0,0,0-.083-.638l-1.373-1.647A.6.6,0,0,0-1851.662-365.339Z" transform="translate(1865.02 371.02)"/><rect class="b" width="24" height="24" transform="translate(1.358 1.358)"/></g><g transform="translate(294.641 790.643)"><path class="d" d="M-1851.662-348.682a8.99,8.99,0,0,1-8.98-8.98,8.99,8.99,0,0,1,8.98-8.98,8.99,8.99,0,0,1,8.98,8.98A8.99,8.99,0,0,1-1851.662-348.682Zm-1.386-4.155a.594.594,0,0,0-.543.346.6.6,0,0,0,.083.639l1.373,1.647a.6.6,0,0,0,.461.216.6.6,0,0,0,.461-.216l1.373-1.647a.6.6,0,0,0,.083-.639.594.594,0,0,0-.543-.346Zm1.386-7.174a2.352,2.352,0,0,0-2.349,2.349,2.352,2.352,0,0,0,2.349,2.349,2.352,2.352,0,0,0,2.349-2.349A2.352,2.352,0,0,0-1851.662-360.011Zm5.435.368a.6.6,0,0,0-.6.6v2.745a.6.6,0,0,0,.6.6.589.589,0,0,0,.382-.14l1.646-1.372a.6.6,0,0,0,.216-.462.6.6,0,0,0-.216-.46l-1.646-1.372A.591.591,0,0,0-1846.227-359.643Zm-10.869-.013a.588.588,0,0,0-.381.14l-1.647,1.372a.6.6,0,0,0-.216.461.6.6,0,0,0,.216.461l1.647,1.372a.591.591,0,0,0,.381.139.6.6,0,0,0,.6-.6v-2.745a.59.59,0,0,0-.185-.435A.615.615,0,0,0-1857.1-359.656Zm5.433-5.683a.6.6,0,0,0-.461.216l-1.373,1.647a.594.594,0,0,0-.083.638.6.6,0,0,0,.544.346h2.745a.6.6,0,0,0,.543-.346.594.594,0,0,0-.083-.638l-1.373-1.647A.6.6,0,0,0-1851.662-365.339Z" transform="translate(1865.02 371.02)"/><rect class="b" width="24" height="24" transform="translate(1.358 1.358)"/></g><g transform="translate(318.641 790.643)"><path class="e" d="M-1851.662-348.682a8.99,8.99,0,0,1-8.98-8.98,8.99,8.99,0,0,1,8.98-8.98,8.99,8.99,0,0,1,8.98,8.98A8.99,8.99,0,0,1-1851.662-348.682Zm-1.386-4.155a.594.594,0,0,0-.543.346.6.6,0,0,0,.083.639l1.373,1.647a.6.6,0,0,0,.461.216.6.6,0,0,0,.461-.216l1.373-1.647a.6.6,0,0,0,.083-.639.594.594,0,0,0-.543-.346Zm1.386-7.174a2.352,2.352,0,0,0-2.349,2.349,2.352,2.352,0,0,0,2.349,2.349,2.352,2.352,0,0,0,2.349-2.349A2.352,2.352,0,0,0-1851.662-360.011Zm5.435.368a.6.6,0,0,0-.6.6v2.745a.6.6,0,0,0,.6.6.589.589,0,0,0,.382-.14l1.646-1.372a.6.6,0,0,0,.216-.462.6.6,0,0,0-.216-.46l-1.646-1.372A.591.591,0,0,0-1846.227-359.643Zm-10.869-.013a.588.588,0,0,0-.381.14l-1.647,1.372a.6.6,0,0,0-.216.461.6.6,0,0,0,.216.461l1.647,1.372a.591.591,0,0,0,.381.139.6.6,0,0,0,.6-.6v-2.745a.59.59,0,0,0-.185-.435A.615.615,0,0,0-1857.1-359.656Zm5.433-5.683a.6.6,0,0,0-.461.216l-1.373,1.647a.594.594,0,0,0-.083.638.6.6,0,0,0,.544.346h2.745a.6.6,0,0,0,.543-.346.594.594,0,0,0-.083-.638l-1.373-1.647A.6.6,0,0,0-1851.662-365.339Z" transform="translate(1865.02 371.02)"/><rect class="b" width="24" height="24" transform="translate(1.358 1.358)"/></g></g></svg>