<svg xmlns="http://www.w3.org/2000/svg" width="96" height="24" viewBox="0 0 96 24"><defs><style>.a{fill:#fff;}.b{fill:none;}.c{fill:#aed1ff;}.d{fill:#438dec;}.e{opacity:0.5;}.f{fill:#cecece;}</style></defs><g transform="translate(-128 -760.001)"><g transform="translate(123.641 755.642)"><path class="a" d="M26.227,13.153H24.971l-1.184-1.579A1.435,1.435,0,0,0,22.638,11H15.46a1.435,1.435,0,0,0-1.148.574l-1.184,1.579H10.436A1.435,1.435,0,0,0,9,14.589V25.356a1.435,1.435,0,0,0,1.436,1.436H26.227a1.435,1.435,0,0,0,1.436-1.436V14.589a1.435,1.435,0,0,0-1.436-1.436m-7.178,12.2a6.46,6.46,0,1,1,6.46-6.46,6.46,6.46,0,0,1-6.46,6.46" transform="translate(-1.971 -2.536)"/><path class="a" d="M21.307,16a4.307,4.307,0,1,0,4.307,4.307A4.306,4.306,0,0,0,21.307,16m2.476,5.084a.718.718,0,0,1-.718-.718,1.82,1.82,0,0,0-1.817-1.817.718.718,0,1,1,0-1.436A3.257,3.257,0,0,1,24.5,20.366a.718.718,0,0,1-.718.718" transform="translate(-4.229 -3.947)"/><path class="a" d="M10.718,10h1.436a.718.718,0,0,1,0,1.436H10.718a.718.718,0,0,1,0-1.436" transform="translate(-2.254 -2.254)"/><rect class="b" width="24" height="24" transform="translate(4.36 4.36)"/></g><g transform="translate(147.641 755.642)"><path class="c" d="M26.227,13.153H24.971l-1.184-1.579A1.435,1.435,0,0,0,22.638,11H15.46a1.435,1.435,0,0,0-1.148.574l-1.184,1.579H10.436A1.435,1.435,0,0,0,9,14.589V25.356a1.435,1.435,0,0,0,1.436,1.436H26.227a1.435,1.435,0,0,0,1.436-1.436V14.589a1.435,1.435,0,0,0-1.436-1.436m-7.178,12.2a6.46,6.46,0,1,1,6.46-6.46,6.46,6.46,0,0,1-6.46,6.46" transform="translate(-1.971 -2.536)"/><path class="c" d="M21.307,16a4.307,4.307,0,1,0,4.307,4.307A4.306,4.306,0,0,0,21.307,16m2.476,5.084a.718.718,0,0,1-.718-.718,1.82,1.82,0,0,0-1.817-1.817.718.718,0,1,1,0-1.436A3.257,3.257,0,0,1,24.5,20.366a.718.718,0,0,1-.718.718" transform="translate(-4.229 -3.947)"/><path class="c" d="M10.718,10h1.436a.718.718,0,0,1,0,1.436H10.718a.718.718,0,0,1,0-1.436" transform="translate(-2.254 -2.254)"/><rect class="b" width="24" height="24" transform="translate(4.36 4.36)"/></g><g transform="translate(171.641 755.642)"><path class="d" d="M26.227,13.153H24.971l-1.184-1.579A1.435,1.435,0,0,0,22.638,11H15.46a1.435,1.435,0,0,0-1.148.574l-1.184,1.579H10.436A1.435,1.435,0,0,0,9,14.589V25.356a1.435,1.435,0,0,0,1.436,1.436H26.227a1.435,1.435,0,0,0,1.436-1.436V14.589a1.435,1.435,0,0,0-1.436-1.436m-7.178,12.2a6.46,6.46,0,1,1,6.46-6.46,6.46,6.46,0,0,1-6.46,6.46" transform="translate(-1.971 -2.536)"/><path class="d" d="M21.307,16a4.307,4.307,0,1,0,4.307,4.307A4.306,4.306,0,0,0,21.307,16m2.476,5.084a.718.718,0,0,1-.718-.718,1.82,1.82,0,0,0-1.817-1.817.718.718,0,1,1,0-1.436A3.257,3.257,0,0,1,24.5,20.366a.718.718,0,0,1-.718.718" transform="translate(-4.229 -3.947)"/><path class="d" d="M10.718,10h1.436a.718.718,0,0,1,0,1.436H10.718a.718.718,0,0,1,0-1.436" transform="translate(-2.254 -2.254)"/><rect class="b" width="24" height="24" transform="translate(4.36 4.36)"/></g><g transform="translate(195.641 755.642)"><g class="e"><path class="f" d="M26.227,13.153H24.971l-1.184-1.579A1.435,1.435,0,0,0,22.638,11H15.46a1.435,1.435,0,0,0-1.148.574l-1.184,1.579H10.436A1.435,1.435,0,0,0,9,14.589V25.356a1.435,1.435,0,0,0,1.436,1.436H26.227a1.435,1.435,0,0,0,1.436-1.436V14.589a1.435,1.435,0,0,0-1.436-1.436m-7.178,12.2a6.46,6.46,0,1,1,6.46-6.46,6.46,6.46,0,0,1-6.46,6.46" transform="translate(-1.971 -2.536)"/><path class="f" d="M21.307,16a4.307,4.307,0,1,0,4.307,4.307A4.306,4.306,0,0,0,21.307,16m2.476,5.084a.718.718,0,0,1-.718-.718,1.82,1.82,0,0,0-1.817-1.817.718.718,0,1,1,0-1.436A3.257,3.257,0,0,1,24.5,20.366a.718.718,0,0,1-.718.718" transform="translate(-4.229 -3.947)"/><path class="f" d="M10.718,10h1.436a.718.718,0,0,1,0,1.436H10.718a.718.718,0,0,1,0-1.436" transform="translate(-2.254 -2.254)"/></g><rect class="b" width="24" height="24" transform="translate(4.36 4.36)"/></g></g></svg>