<svg xmlns="http://www.w3.org/2000/svg" width="95.999" height="24" viewBox="0 0 95.999 24"><defs><style>.a{fill:#fff;stroke:rgba(0,0,0,0);stroke-miterlimit:10;}.b,.c,.e,.g,.j{fill:none;}.b{stroke:#fff;}.b,.e,.g,.j{stroke-width:1.6px;}.d{fill:#aed1ff;}.e{stroke:#aed1ff;}.f{fill:#438dec;}.g{stroke:#438dec;}.h{opacity:0.5;}.i{fill:#cecece;}.j{stroke:#cecece;}.k{stroke:none;}</style></defs><g transform="translate(-368.002 -824.001)"><g transform="translate(365.504 821.504)"><path class="a" d="M18916.092,10596.521h-10.146c-.8,0-1.447-.9-1.447-2v-14.024c0-1.1.65-2,1.447-2h10.146c.8,0,1.453.9,1.453,2v14.024C18917.545,10595.621,18916.893,10596.521,18916.092,10596.521Zm-5.07-10.521a4.5,4.5,0,1,0,4.5,4.5A4.507,4.507,0,0,0,18911.021,10586Zm0-6a2.5,2.5,0,1,0,2.5,2.5A2.5,2.5,0,0,0,18911.021,10580Z" transform="translate(-18896.523 -10573.008)"/><g class="b" transform="translate(11.997 14.99)"><circle class="k" cx="2.5" cy="2.5" r="2.5"/><circle class="c" cx="2.5" cy="2.5" r="1.7"/></g><rect class="c" width="24" height="24" transform="translate(2.498 2.497)"/></g><g transform="translate(389.504 821.504)"><rect class="c" width="24" height="24" transform="translate(2.497 2.497)"/><path class="d" d="M18916.092,10596.521h-10.146c-.8,0-1.447-.9-1.447-2v-14.024c0-1.1.65-2,1.447-2h10.146c.8,0,1.453.9,1.453,2v14.024C18917.545,10595.621,18916.893,10596.521,18916.092,10596.521Zm-5.07-10.521a4.5,4.5,0,1,0,4.5,4.5A4.507,4.507,0,0,0,18911.021,10586Zm0-6a2.5,2.5,0,1,0,2.5,2.5A2.5,2.5,0,0,0,18911.021,10580Z" transform="translate(-18896.523 -10573.008)"/><g class="e" transform="translate(11.996 14.99)"><circle class="k" cx="2.5" cy="2.5" r="2.5"/><circle class="c" cx="2.5" cy="2.5" r="1.7"/></g></g><g transform="translate(413.504 821.504)"><rect class="c" width="24" height="24" transform="translate(2.497 2.497)"/><path class="f" d="M18916.092,10596.521h-10.146c-.8,0-1.447-.9-1.447-2v-14.024c0-1.1.65-2,1.447-2h10.146c.8,0,1.453.9,1.453,2v14.024C18917.545,10595.621,18916.893,10596.521,18916.092,10596.521Zm-5.07-10.521a4.5,4.5,0,1,0,4.5,4.5A4.507,4.507,0,0,0,18911.021,10586Zm0-6a2.5,2.5,0,1,0,2.5,2.5A2.5,2.5,0,0,0,18911.021,10580Z" transform="translate(-18896.523 -10573.008)"/><g class="g" transform="translate(11.996 14.99)"><circle class="k" cx="2.5" cy="2.5" r="2.5"/><circle class="c" cx="2.5" cy="2.5" r="1.7"/></g></g><g class="h" transform="translate(437.504 821.504)"><rect class="c" width="24" height="24" transform="translate(2.497 2.497)"/><path class="i" d="M18916.092,10596.521h-10.146c-.8,0-1.447-.9-1.447-2v-14.024c0-1.1.65-2,1.447-2h10.146c.8,0,1.453.9,1.453,2v14.024C18917.545,10595.621,18916.893,10596.521,18916.092,10596.521Zm-5.07-10.521a4.5,4.5,0,1,0,4.5,4.5A4.507,4.507,0,0,0,18911.021,10586Zm0-6a2.5,2.5,0,1,0,2.5,2.5A2.5,2.5,0,0,0,18911.021,10580Z" transform="translate(-18896.523 -10573.008)"/><g class="j" transform="translate(11.996 14.99)"><circle class="k" cx="2.5" cy="2.5" r="2.5"/><circle class="c" cx="2.5" cy="2.5" r="1.7"/></g></g></g></svg>