<svg xmlns="http://www.w3.org/2000/svg" width="96" height="24" viewBox="0 0 96 24"><defs><style>.a,.b{fill:none;}.a{stroke-miterlimit:10;}.c{fill:#55616d;}.d{fill:#818c98;}.e{fill:#438dec;}.f{opacity:0.3;}.g,.h,.i,.j{stroke:none;}.h{fill:#55616d;}.i{fill:#818c98;}.j{fill:#438dec;}</style></defs><g transform="translate(-1024 -654.001)"><g transform="translate(1021.811 651.812)"><g class="a" transform="translate(-18643.229 -11029.81)"><path class="g" d="M18660.42,11051.809h-10.809a1.422,1.422,0,0,1-1.424-1.42v-12.779a1.423,1.423,0,0,1,1.424-1.42h15.619a1.423,1.423,0,0,1,1.42,1.42v12.779a1.422,1.422,0,0,1-1.42,1.42Z"/><path class="h" d="M 18665.05078125 11050.208984375 L 18665.05078125 11037.7890625 L 18649.787109375 11037.7890625 L 18649.787109375 11050.208984375 L 18665.05078125 11050.208984375 M 18665.23046875 11051.80859375 L 18649.611328125 11051.80859375 C 18648.82421875 11051.80859375 18648.1875 11051.171875 18648.1875 11050.388671875 L 18648.1875 11037.609375 C 18648.1875 11036.8271484375 18648.82421875 11036.189453125 18649.611328125 11036.189453125 L 18665.23046875 11036.189453125 C 18666.01171875 11036.189453125 18666.650390625 11036.8271484375 18666.650390625 11037.609375 L 18666.650390625 11050.388671875 C 18666.650390625 11051.171875 18666.01171875 11051.80859375 18665.23046875 11051.80859375 Z"/></g><rect class="b" width="24" height="24" transform="translate(2.189 2.189)"/><path class="c" d="M18740.4,10855.19h-4.8v-4.4h5.8v3.4A1,1,0,0,1,18740.4,10855.19Zm-6,0h-4.8a1,1,0,0,1-1-1v-3.4h5.8v4.4Zm7-5.6h-5.8v-4.4h4.8a1,1,0,0,1,1,1v3.4Zm-7,0h-5.8v-3.4a1,1,0,0,1,1-1h4.8v4.4Z" transform="translate(-18720.807 -10835.999)"/></g><g transform="translate(1045.811 651.812)"><g class="a" transform="translate(-18643.229 -11029.81)"><path class="g" d="M18660.42,11051.809h-10.809a1.422,1.422,0,0,1-1.424-1.42v-12.779a1.423,1.423,0,0,1,1.424-1.42h15.619a1.423,1.423,0,0,1,1.42,1.42v12.779a1.422,1.422,0,0,1-1.42,1.42Z"/><path class="i" d="M 18665.05078125 11050.208984375 L 18665.05078125 11037.7890625 L 18649.787109375 11037.7890625 L 18649.787109375 11050.208984375 L 18665.05078125 11050.208984375 M 18665.23046875 11051.80859375 L 18649.611328125 11051.80859375 C 18648.82421875 11051.80859375 18648.1875 11051.171875 18648.1875 11050.388671875 L 18648.1875 11037.609375 C 18648.1875 11036.8271484375 18648.82421875 11036.189453125 18649.611328125 11036.189453125 L 18665.23046875 11036.189453125 C 18666.01171875 11036.189453125 18666.650390625 11036.8271484375 18666.650390625 11037.609375 L 18666.650390625 11050.388671875 C 18666.650390625 11051.171875 18666.01171875 11051.80859375 18665.23046875 11051.80859375 Z"/></g><rect class="b" width="24" height="24" transform="translate(2.189 2.189)"/><path class="d" d="M18740.4,10855.19h-4.8v-4.4h5.8v3.4A1,1,0,0,1,18740.4,10855.19Zm-6,0h-4.8a1,1,0,0,1-1-1v-3.4h5.8v4.4Zm7-5.6h-5.8v-4.4h4.8a1,1,0,0,1,1,1v3.4Zm-7,0h-5.8v-3.4a1,1,0,0,1,1-1h4.8v4.4Z" transform="translate(-18720.807 -10835.999)"/></g><g transform="translate(1069.811 651.812)"><g class="a" transform="translate(-18643.229 -11029.811)"><path class="g" d="M18660.42,11051.809h-10.809a1.422,1.422,0,0,1-1.424-1.42v-12.779a1.423,1.423,0,0,1,1.424-1.42h15.619a1.423,1.423,0,0,1,1.42,1.42v12.779a1.422,1.422,0,0,1-1.42,1.42Z"/><path class="j" d="M 18665.05078125 11050.208984375 L 18665.05078125 11037.7890625 L 18649.787109375 11037.7890625 L 18649.787109375 11050.208984375 L 18665.05078125 11050.208984375 M 18665.23046875 11051.80859375 L 18649.611328125 11051.80859375 C 18648.82421875 11051.80859375 18648.1875 11051.171875 18648.1875 11050.388671875 L 18648.1875 11037.609375 C 18648.1875 11036.8271484375 18648.82421875 11036.189453125 18649.611328125 11036.189453125 L 18665.23046875 11036.189453125 C 18666.01171875 11036.189453125 18666.650390625 11036.8271484375 18666.650390625 11037.609375 L 18666.650390625 11050.388671875 C 18666.650390625 11051.171875 18666.01171875 11051.80859375 18665.23046875 11051.80859375 Z"/></g><rect class="b" width="24" height="24" transform="translate(2.189 2.189)"/><path class="e" d="M18740.4,10855.19h-4.8v-4.4h5.8v3.4A1,1,0,0,1,18740.4,10855.19Zm-6,0h-4.8a1,1,0,0,1-1-1v-3.4h5.8v4.4Zm7-5.6h-5.8v-4.4h4.8a1,1,0,0,1,1,1v3.4Zm-7,0h-5.8v-3.4a1,1,0,0,1,1-1h4.8v4.4Z" transform="translate(-18720.807 -10835.999)"/></g><g class="f" transform="translate(1093.811 651.812)"><g class="a" transform="translate(-18643.229 -11029.811)"><path class="g" d="M18660.42,11051.809h-10.809a1.422,1.422,0,0,1-1.424-1.42v-12.779a1.423,1.423,0,0,1,1.424-1.42h15.619a1.423,1.423,0,0,1,1.42,1.42v12.779a1.422,1.422,0,0,1-1.42,1.42Z"/><path class="h" d="M 18665.05078125 11050.208984375 L 18665.05078125 11037.7890625 L 18649.787109375 11037.7890625 L 18649.787109375 11050.208984375 L 18665.05078125 11050.208984375 M 18665.23046875 11051.80859375 L 18649.611328125 11051.80859375 C 18648.82421875 11051.80859375 18648.1875 11051.171875 18648.1875 11050.388671875 L 18648.1875 11037.609375 C 18648.1875 11036.8271484375 18648.82421875 11036.189453125 18649.611328125 11036.189453125 L 18665.23046875 11036.189453125 C 18666.01171875 11036.189453125 18666.650390625 11036.8271484375 18666.650390625 11037.609375 L 18666.650390625 11050.388671875 C 18666.650390625 11051.171875 18666.01171875 11051.80859375 18665.23046875 11051.80859375 Z"/></g><rect class="b" width="24" height="24" transform="translate(2.189 2.189)"/><path class="c" d="M18740.4,10855.19h-4.8v-4.4h5.8v3.4A1,1,0,0,1,18740.4,10855.19Zm-6,0h-4.8a1,1,0,0,1-1-1v-3.4h5.8v4.4Zm7-5.6h-5.8v-4.4h4.8a1,1,0,0,1,1,1v3.4Zm-7,0h-5.8v-3.4a1,1,0,0,1,1-1h4.8v4.4Z" transform="translate(-18720.807 -10835.999)"/></g></g></svg>