<?xml version="1.0" encoding="utf-8"?>
<!-- Generator: Adobe Illustrator 21.0.0, SVG Export Plug-In . SVG Version: 6.00 Build 0)  -->
<svg version="1.1" id="图层_1" xmlns="http://www.w3.org/2000/svg" xmlns:xlink="http://www.w3.org/1999/xlink" x="0px" y="0px"
	 viewBox="0 0 32 32" style="enable-background:new 0 0 32 32;" xml:space="preserve">
<style type="text/css">
	.st0{fill:#FFFFFF;}
</style>
<path class="st0" d="M27,22h-3V10c0-1.1-0.9-2-2-2H10V5c0-0.6-0.4-1-1-1S8,4.4,8,5v3H5C4.4,8,4,8.4,4,9c0,0.6,0.4,1,1,1h3v12
	c0,1.1,0.9,2,2,2h12v3c0,0.6,0.4,1,1,1s1-0.4,1-1v-3h3c0.6,0,1-0.4,1-1C28,22.4,27.6,22,27,22z M10,22V10h12v12H10z"/>
</svg>
