<svg xmlns="http://www.w3.org/2000/svg" width="20" height="20" viewBox="0 0 20 20"><defs><style>.a,.b{fill:#55616d;}.b{stroke:rgba(0,0,0,0);stroke-miterlimit:10;}.c{fill:none;}</style></defs><g transform="translate(-4.648 -4.648)"><g transform="translate(8.164 7.372)"><path class="a" d="M12,10h0a1,1,0,0,0-.973.973v.195a4.686,4.686,0,0,1-3.956,4.669A4.587,4.587,0,0,1,1.945,11.3v-.324A1,1,0,0,0,.973,10,1,1,0,0,0,0,10.973V11.3a6.227,6.227,0,0,0,5.188,6.355v.778a1.3,1.3,0,1,0,2.594,0v-.778A6.478,6.478,0,0,0,12.97,11.1v-.13A1,1,0,0,0,12,10" transform="translate(0 -3.922)"/><path class="b" d="M3.241,10.375A3.208,3.208,0,0,1,0,7.133V3.242A3.208,3.208,0,0,1,3.241,0,3.221,3.221,0,0,1,6.468,2.921H4.008a.6.6,0,1,0,0,1.2H6.484V6.254H4.008a.6.6,0,1,0,0,1.2H6.468A3.221,3.221,0,0,1,3.241,10.375Z" transform="translate(3.244)"/></g><rect class="c" width="20" height="20" transform="translate(4.648 4.648)"/></g></svg>