<svg xmlns="http://www.w3.org/2000/svg" xmlns:xlink="http://www.w3.org/1999/xlink" width="20.001" height="20" viewBox="0 0 20.001 20"><defs><style>.a{fill:#fff;}.b,.c{fill:#438dec;}.c{stroke:rgba(0,0,0,0);stroke-miterlimit:10;}.d,.f{fill:none;}.e{clip-path:url(#a);}.f{stroke:#438dec;stroke-linecap:round;stroke-width:1.4px;}</style><clipPath id="a"><rect class="a" width="20" height="20" transform="translate(0 -0.001)"/></clipPath></defs><g transform="translate(-4.648 -4.646)"><g transform="translate(8.898 9.103)"><path class="b" d="M10.683,10h0a.888.888,0,0,0-.866.866v.173A4.173,4.173,0,0,1,6.294,15.2a4.085,4.085,0,0,1-4.562-4.042v-.289A.888.888,0,0,0,.866,10,.888.888,0,0,0,0,10.866v.289a5.545,5.545,0,0,0,4.62,5.659v.693a1.155,1.155,0,1,0,2.31,0v-.693a5.769,5.769,0,0,0,4.62-5.832v-.115A.888.888,0,0,0,10.683,10" transform="translate(0 -4.588)"/><path class="c" d="M2.887,9.239A2.856,2.856,0,0,1,0,6.352V2.887A2.856,2.856,0,0,1,2.887,0,2.844,2.844,0,0,1,5.754,2.535H3.745a.6.6,0,0,0,0,1.2h2.03V5.5H3.745a.6.6,0,0,0,0,1.2H5.754A2.844,2.844,0,0,1,2.887,9.239Z" transform="translate(2.887 -0.001)"/></g><rect class="d" width="20" height="20" transform="translate(4.648 4.647)"/><g class="e" transform="translate(4.648 4.647)"><path class="f" d="M4.508,4.508A4.508,4.508,0,0,1,0,0" transform="translate(13.148 4.267) rotate(135)"/><path class="f" d="M6.745,6.745A6.745,6.745,0,0,1,0,0" transform="translate(14.729 2.686) rotate(135)"/></g></g></svg>