<svg xmlns="http://www.w3.org/2000/svg" width="96" height="24" viewBox="0 0 96 24"><defs><style>.a,.b{fill:#fff;}.b,.e,.g,.j{stroke:rgba(0,0,0,0);stroke-miterlimit:10;}.c{fill:none;}.d,.e{fill:#aed1ff;}.f,.g{fill:#fe4848;}.h{opacity:0.5;}.i,.j{fill:#cecece;}</style></defs><g transform="translate(-247.999 -760.001)"><g transform="translate(243.352 755.354)"><g transform="translate(0.22 0.268)"><path class="a" d="M14.4,10h0a1.2,1.2,0,0,0-1.167,1.167V11.4A5.623,5.623,0,0,1,8.482,17a5.5,5.5,0,0,1-6.147-5.447v-.389A1.2,1.2,0,0,0,1.167,10,1.2,1.2,0,0,0,0,11.167v.389a7.472,7.472,0,0,0,6.225,7.626v.934a1.556,1.556,0,1,0,3.113,0v-.934a7.774,7.774,0,0,0,6.225-7.859v-.156A1.2,1.2,0,0,0,14.4,10" transform="translate(8.646 4.941)"/><path class="b" d="M18790.318,10688.826a3.847,3.847,0,0,1-3.891-3.887v-4.67a3.849,3.849,0,0,1,3.891-3.892,3.909,3.909,0,0,1,2.535.92,3.85,3.85,0,0,1,1.3,2.311h-3.838a1,1,0,0,0,0,2h3.891v2h-3.891a1,1,0,0,0,0,2h3.836a3.851,3.851,0,0,1-1.3,2.3A3.923,3.923,0,0,1,18790.318,10688.826Z" transform="translate(-18773.891 -10668.73)"/></g><rect class="c" width="24" height="24" transform="translate(4.648 4.648)"/></g><g transform="translate(267.352 755.354)"><g transform="translate(0.22 0.268)"><path class="d" d="M14.4,10h0a1.2,1.2,0,0,0-1.167,1.167V11.4A5.623,5.623,0,0,1,8.482,17a5.5,5.5,0,0,1-6.147-5.447v-.389A1.2,1.2,0,0,0,1.167,10,1.2,1.2,0,0,0,0,11.167v.389a7.472,7.472,0,0,0,6.225,7.626v.934a1.556,1.556,0,1,0,3.113,0v-.934a7.774,7.774,0,0,0,6.225-7.859v-.156A1.2,1.2,0,0,0,14.4,10" transform="translate(8.646 4.941)"/><path class="e" d="M18766.316,10688.83a3.847,3.847,0,0,1-3.887-3.892v-4.668a3.847,3.847,0,0,1,3.887-3.892,3.913,3.913,0,0,1,2.537.919,3.851,3.851,0,0,1,1.3,2.313h-3.838a1,1,0,1,0,0,2h3.891v2h-3.891a1,1,0,1,0,0,2h3.836a3.868,3.868,0,0,1-1.3,2.3A3.915,3.915,0,0,1,18766.316,10688.83Z" transform="translate(-18749.891 -10668.73)"/></g><rect class="c" width="24" height="24" transform="translate(4.648 4.648)"/></g><g transform="translate(291.352 755.354)"><g transform="translate(0.22 0.268)"><path class="f" d="M14.4,10h0a1.2,1.2,0,0,0-1.167,1.167V11.4A5.623,5.623,0,0,1,8.482,17a5.5,5.5,0,0,1-6.147-5.447v-.389A1.2,1.2,0,0,0,1.167,10,1.2,1.2,0,0,0,0,11.167v.389a7.472,7.472,0,0,0,6.225,7.626v.934a1.556,1.556,0,1,0,3.113,0v-.934a7.774,7.774,0,0,0,6.225-7.859v-.156A1.2,1.2,0,0,0,14.4,10" transform="translate(8.646 4.941)"/><path class="g" d="M18742.316,10688.826a3.849,3.849,0,0,1-3.891-3.891v-4.668a3.849,3.849,0,0,1,3.891-3.891,3.906,3.906,0,0,1,2.537.92,3.851,3.851,0,0,1,1.3,2.313h-3.838a1,1,0,0,0,0,2h3.891v2h-3.891a1,1,0,0,0,0,2h3.836a3.855,3.855,0,0,1-1.3,2.3A3.915,3.915,0,0,1,18742.316,10688.826Z" transform="translate(-18725.891 -10668.73)"/></g><rect class="c" width="24" height="24" transform="translate(4.648 4.648)"/></g><g transform="translate(315.352 755.354)"><g class="h" transform="translate(0.22 0.268)"><path class="i" d="M14.4,10h0a1.2,1.2,0,0,0-1.167,1.167V11.4A5.623,5.623,0,0,1,8.482,17a5.5,5.5,0,0,1-6.147-5.447v-.389A1.2,1.2,0,0,0,1.167,10,1.2,1.2,0,0,0,0,11.167v.389a7.472,7.472,0,0,0,6.225,7.626v.934a1.556,1.556,0,1,0,3.113,0v-.934a7.774,7.774,0,0,0,6.225-7.859v-.156A1.2,1.2,0,0,0,14.4,10" transform="translate(8.646 4.941)"/><path class="j" d="M18718.318,10688.826a3.849,3.849,0,0,1-3.891-3.891v-4.666a3.849,3.849,0,0,1,3.891-3.891,3.913,3.913,0,0,1,2.537.919,3.852,3.852,0,0,1,1.3,2.31h-3.838a1,1,0,0,0,0,2h3.891v2h-3.891a1,1,0,1,0,0,2h3.836a3.86,3.86,0,0,1-1.3,2.3A3.915,3.915,0,0,1,18718.318,10688.826Z" transform="translate(-18701.891 -10668.73)"/></g><rect class="c" width="24" height="24" transform="translate(4.648 4.648)"/></g></g></svg>