<svg xmlns="http://www.w3.org/2000/svg" xmlns:xlink="http://www.w3.org/1999/xlink" width="96.001" height="24" viewBox="0 0 96.001 24"><defs><style>.a{fill:#fff;}.b{fill:#55616d;}.c,.e,.g,.i{fill:none;}.d{clip-path:url(#a);}.e{stroke:#55616d;}.e,.g,.i{stroke-linecap:round;stroke-width:1.4px;}.f{fill:#818c98;}.g{stroke:#818c98;}.h{fill:#438dec;}.i{stroke:#438dec;}.j{opacity:0.3;}</style><clipPath id="a"><rect class="a" width="24" height="24" transform="translate(4.648 4.647)"/></clipPath></defs><g transform="translate(-247.999 -760.001)"><g transform="translate(243.352 755.354)"><g transform="translate(1.103 2.345)"><path class="b" d="M12.761,10h0a1.061,1.061,0,0,0-1.035,1.035v.207a4.985,4.985,0,0,1-4.208,4.967,4.879,4.879,0,0,1-5.45-4.829v-.345A1.061,1.061,0,0,0,1.035,10,1.061,1.061,0,0,0,0,11.035v.345a6.624,6.624,0,0,0,5.518,6.76v.828a1.38,1.38,0,1,0,2.759,0V18.14A6.891,6.891,0,0,0,13.8,11.173v-.138A1.061,1.061,0,0,0,12.761,10" transform="translate(8.646 4.113)"/><path class="b" d="M8.449,11.037A3.416,3.416,0,0,0,11.9,7.588V3.449a3.449,3.449,0,1,0-6.9,0V7.588a3.416,3.416,0,0,0,3.449,3.449" transform="translate(7.095 7.648)"/></g><rect class="c" width="24" height="24" transform="translate(4.648 4.648)"/><g class="d"><path class="e" d="M5.41,10.82A5.41,5.41,0,0,1,0,5.41" transform="translate(24.252 13.594) rotate(135)"/><path class="e" d="M8.094,16.188A8.094,8.094,0,0,1,0,8.094" transform="translate(28.047 13.594) rotate(135)"/></g></g><g transform="translate(267.352 755.354)"><g transform="translate(1.103 2.345)"><path class="f" d="M12.761,10h0a1.061,1.061,0,0,0-1.035,1.035v.207a4.985,4.985,0,0,1-4.208,4.967,4.879,4.879,0,0,1-5.45-4.829v-.345A1.061,1.061,0,0,0,1.035,10,1.061,1.061,0,0,0,0,11.035v.345a6.624,6.624,0,0,0,5.518,6.76v.828a1.38,1.38,0,1,0,2.759,0V18.14A6.891,6.891,0,0,0,13.8,11.173v-.138A1.061,1.061,0,0,0,12.761,10" transform="translate(8.646 4.113)"/><path class="f" d="M8.449,11.037A3.416,3.416,0,0,0,11.9,7.588V3.449a3.449,3.449,0,1,0-6.9,0V7.588a3.416,3.416,0,0,0,3.449,3.449" transform="translate(7.095 7.648)"/></g><rect class="c" width="24" height="24" transform="translate(4.648 4.648)"/><g class="d"><path class="g" d="M5.41,10.82A5.41,5.41,0,0,1,0,5.41" transform="translate(24.252 13.594) rotate(135)"/><path class="g" d="M8.094,16.188A8.094,8.094,0,0,1,0,8.094" transform="translate(28.047 13.594) rotate(135)"/></g></g><g transform="translate(291.352 755.354)"><g transform="translate(1.103 2.345)"><path class="h" d="M12.761,10h0a1.061,1.061,0,0,0-1.035,1.035v.207a4.985,4.985,0,0,1-4.208,4.967,4.879,4.879,0,0,1-5.45-4.829v-.345A1.061,1.061,0,0,0,1.035,10,1.061,1.061,0,0,0,0,11.035v.345a6.624,6.624,0,0,0,5.518,6.76v.828a1.38,1.38,0,1,0,2.759,0V18.14A6.891,6.891,0,0,0,13.8,11.173v-.138A1.061,1.061,0,0,0,12.761,10" transform="translate(8.646 4.113)"/><path class="h" d="M8.449,11.037A3.416,3.416,0,0,0,11.9,7.588V3.449a3.449,3.449,0,1,0-6.9,0V7.588a3.416,3.416,0,0,0,3.449,3.449" transform="translate(7.095 7.648)"/></g><rect class="c" width="24" height="24" transform="translate(4.648 4.648)"/><g class="d"><path class="i" d="M5.41,10.82A5.41,5.41,0,0,1,0,5.41" transform="translate(24.252 13.594) rotate(135)"/><path class="i" d="M8.094,16.188A8.094,8.094,0,0,1,0,8.094" transform="translate(28.047 13.594) rotate(135)"/></g></g><g class="j" transform="translate(315.352 755.354)"><g transform="translate(1.103 2.345)"><path class="b" d="M12.761,10h0a1.061,1.061,0,0,0-1.035,1.035v.207a4.985,4.985,0,0,1-4.208,4.967,4.879,4.879,0,0,1-5.45-4.829v-.345A1.061,1.061,0,0,0,1.035,10,1.061,1.061,0,0,0,0,11.035v.345a6.624,6.624,0,0,0,5.518,6.76v.828a1.38,1.38,0,1,0,2.759,0V18.14A6.891,6.891,0,0,0,13.8,11.173v-.138A1.061,1.061,0,0,0,12.761,10" transform="translate(8.646 4.113)"/><path class="b" d="M8.449,11.037A3.416,3.416,0,0,0,11.9,7.588V3.449a3.449,3.449,0,1,0-6.9,0V7.588a3.416,3.416,0,0,0,3.449,3.449" transform="translate(7.095 7.648)"/></g><rect class="c" width="24" height="24" transform="translate(4.648 4.648)"/><g class="d"><path class="e" d="M5.41,10.82A5.41,5.41,0,0,1,0,5.41" transform="translate(24.252 13.594) rotate(135)"/><path class="e" d="M8.094,16.188A8.094,8.094,0,0,1,0,8.094" transform="translate(28.047 13.594) rotate(135)"/></g></g></g></svg>