<svg xmlns="http://www.w3.org/2000/svg" width="96" height="24" viewBox="0 0 96 24"><defs><style>.a{fill:#55616d;}.b{fill:none;}.c{fill:#818c98;}.d{fill:#438dec;}.e{opacity:0.3;}</style></defs><g transform="translate(-247.999 -760.001)"><g transform="translate(243.352 755.354)"><g transform="translate(0.22 0.268)"><path class="a" d="M14.4,10h0a1.2,1.2,0,0,0-1.167,1.167V11.4A5.623,5.623,0,0,1,8.482,17a5.5,5.5,0,0,1-6.147-5.447v-.389A1.2,1.2,0,0,0,1.167,10,1.2,1.2,0,0,0,0,11.167v.389a7.472,7.472,0,0,0,6.225,7.626v.934a1.556,1.556,0,1,0,3.113,0v-.934a7.774,7.774,0,0,0,6.225-7.859v-.156A1.2,1.2,0,0,0,14.4,10" transform="translate(8.646 4.941)"/><path class="a" d="M8.891,12.45a3.853,3.853,0,0,0,3.891-3.891V3.891A3.891,3.891,0,1,0,5,3.891V8.559A3.853,3.853,0,0,0,8.891,12.45" transform="translate(7.537 7.648)"/></g><rect class="b" width="24" height="24" transform="translate(4.648 4.648)"/></g><g transform="translate(267.352 755.354)"><g transform="translate(0.22 0.268)"><path class="c" d="M14.4,10h0a1.2,1.2,0,0,0-1.167,1.167V11.4A5.623,5.623,0,0,1,8.482,17a5.5,5.5,0,0,1-6.147-5.447v-.389A1.2,1.2,0,0,0,1.167,10,1.2,1.2,0,0,0,0,11.167v.389a7.472,7.472,0,0,0,6.225,7.626v.934a1.556,1.556,0,1,0,3.113,0v-.934a7.774,7.774,0,0,0,6.225-7.859v-.156A1.2,1.2,0,0,0,14.4,10" transform="translate(8.646 4.941)"/><path class="c" d="M8.891,12.45a3.853,3.853,0,0,0,3.891-3.891V3.891A3.891,3.891,0,1,0,5,3.891V8.559A3.853,3.853,0,0,0,8.891,12.45" transform="translate(7.537 7.648)"/></g><rect class="b" width="24" height="24" transform="translate(4.648 4.648)"/></g><g transform="translate(291.352 755.354)"><g transform="translate(0.22 0.268)"><path class="d" d="M14.4,10h0a1.2,1.2,0,0,0-1.167,1.167V11.4A5.623,5.623,0,0,1,8.482,17a5.5,5.5,0,0,1-6.147-5.447v-.389A1.2,1.2,0,0,0,1.167,10,1.2,1.2,0,0,0,0,11.167v.389a7.472,7.472,0,0,0,6.225,7.626v.934a1.556,1.556,0,1,0,3.113,0v-.934a7.774,7.774,0,0,0,6.225-7.859v-.156A1.2,1.2,0,0,0,14.4,10" transform="translate(8.646 4.941)"/><path class="d" d="M8.891,12.45a3.853,3.853,0,0,0,3.891-3.891V3.891A3.891,3.891,0,1,0,5,3.891V8.559A3.853,3.853,0,0,0,8.891,12.45" transform="translate(7.537 7.648)"/></g><rect class="b" width="24" height="24" transform="translate(4.648 4.648)"/></g><g transform="translate(315.352 755.354)"><g class="e" transform="translate(0.22 0.268)"><path class="a" d="M14.4,10h0a1.2,1.2,0,0,0-1.167,1.167V11.4A5.623,5.623,0,0,1,8.482,17a5.5,5.5,0,0,1-6.147-5.447v-.389A1.2,1.2,0,0,0,1.167,10,1.2,1.2,0,0,0,0,11.167v.389a7.472,7.472,0,0,0,6.225,7.626v.934a1.556,1.556,0,1,0,3.113,0v-.934a7.774,7.774,0,0,0,6.225-7.859v-.156A1.2,1.2,0,0,0,14.4,10" transform="translate(8.646 4.941)"/><path class="a" d="M8.891,12.45a3.853,3.853,0,0,0,3.891-3.891V3.891A3.891,3.891,0,1,0,5,3.891V8.559A3.853,3.853,0,0,0,8.891,12.45" transform="translate(7.537 7.648)"/></g><rect class="b" width="24" height="24" transform="translate(4.648 4.648)"/></g></g></svg>