<?xml version="1.0" encoding="utf-8"?>
<!-- Generator: Adobe Illustrator 21.0.0, SVG Export Plug-In . SVG Version: 6.00 Build 0)  -->
<svg version="1.1" id="图层_1" xmlns="http://www.w3.org/2000/svg" xmlns:xlink="http://www.w3.org/1999/xlink" x="0px" y="0px"
	 viewBox="0 0 32 32" style="enable-background:new 0 0 32 32;" xml:space="preserve">
<style type="text/css">
	.st0{fill-rule:evenodd;clip-rule:evenodd;fill:#95A5B9;}
	.st1{fill:none;}
</style>
<g>
	<path class="st0" d="M8,7c0.6,0,1-0.4,1-1V3h3c0.6,0,1-0.4,1-1c0-0.6-0.4-1-1-1H8C7.5,1,7,1.5,7,2v4C7,6.6,7.4,7,8,7z"/>
	<path class="st0" d="M12,17H9v-3c0-0.6-0.4-1-1-1s-1,0.4-1,1v4c0,0.5,0.5,1,1,1h4c0.6,0,1-0.4,1-1C13,17.4,12.6,17,12,17z"/>
	<path class="st0" d="M24,13c-0.6,0-1,0.4-1,1v3h-3c-0.6,0-1,0.4-1,1c0,0.6,0.4,1,1,1h4c0.5,0,1-0.5,1-1v-4C25,13.4,24.6,13,24,13z"
		/>
	<path class="st0" d="M12,6c-0.5,0-1,0.5-1,1v1c0,0.5,0.5,1,1,1s1-0.5,1-1V7C13,6.5,12.5,6,12,6z"/>
	<path class="st0" d="M20,9c0.5,0,1-0.5,1-1V7c0-0.5-0.5-1-1-1s-1,0.5-1,1v1C19,8.5,19.5,9,20,9z"/>
	<path class="st0" d="M16,11h1c0.5,0,1-0.5,1-1s-0.5-1-1-1V7c0-0.5-0.5-1-1-1s-1,0.5-1,1v3C15,10.5,15.5,11,16,11z"/>
	<path class="st0" d="M20.4,12.9L20.4,12.9c0.2-0.2,0.3-0.4,0.3-0.7c0-0.5-0.5-1-1.1-1c-0.3,0-0.6,0.1-0.8,0.3l0,0
		c0,0,0,0.1-0.1,0.1c-0.1,0.1-0.1,0.2-0.2,0.3c-0.6,0.7-1.5,1.2-2.6,1.2s-2-0.5-2.6-1.2c0-0.1-0.1-0.2-0.2-0.3c0,0,0-0.1-0.1-0.1
		l0,0c-0.2-0.2-0.5-0.3-0.8-0.3c-0.6,0-1.1,0.4-1.1,1c0,0.3,0.1,0.5,0.3,0.7l0,0c0.9,1.3,2.6,2.1,4.4,2.1S19.5,14.2,20.4,12.9z"/>
	<path class="st0" d="M24,1h-4c-0.6,0-1,0.4-1,1c0,0.6,0.4,1,1,1h3v3c0,0.6,0.4,1,1,1s1-0.4,1-1V2C25,1.5,24.5,1,24,1z"/>
</g>
<rect class="st1" width="32" height="32"/>
</svg>
