<svg xmlns="http://www.w3.org/2000/svg" width="96" height="24" viewBox="0 0 96 24"><defs><style>.a{fill:#fff;}.a,.e{stroke:rgba(0,0,0,0);stroke-miterlimit:10;}.b{fill:none;}.c{fill:#aed1ff;}.d{fill:#438dec;}.e{fill:#cecece;opacity:0.5;}</style></defs><g transform="translate(-368.001 -760.001)"><g transform="translate(363.547 755.547)"><path class="a" d="M-1946.451-346.233h-14.189a1.834,1.834,0,0,1-1.828-1.829v-13.581a1.832,1.832,0,0,1,1.828-1.828h14.189a1.833,1.833,0,0,1,1.827,1.828v13.582A1.835,1.835,0,0,1-1946.451-346.233Zm-2.634-3.316h0v1.828h2.291a.688.688,0,0,0,.683-.681v-1.147Zm-3.964,0h0v1.828h2.975v-1.828Zm-3.973,0h0v1.828h2.974v-1.828Zm-3.96,0h0v1.147a.682.682,0,0,0,.68.681h2.295v-1.828Zm6.13-8.445a.716.716,0,0,0-.715.714v4.855a.716.716,0,0,0,.716.714.7.7,0,0,0,.418-.139l3.318-2.428a.7.7,0,0,0,.292-.575.7.7,0,0,0-.292-.575l-3.318-2.427A.705.705,0,0,0-1954.852-357.994Zm5.766-3.99h0v1.829h2.977v-1.15a.682.682,0,0,0-.679-.679Zm-3.965,0h0v1.829h2.974v-1.829Zm-.991,0h-2.974v1.828h2.974v-1.829Zm-6.26,0h0a.678.678,0,0,0-.481.2.675.675,0,0,0-.2.481v1.147h2.974v-1.829h-2.3Z" transform="translate(1970 371.307)"/><rect class="b" width="24" height="24" transform="translate(4.454 4.454)"/></g><g transform="translate(387.547 755.547)"><path class="c" d="M-1946.451-346.233h-14.189a1.834,1.834,0,0,1-1.828-1.829v-13.581a1.832,1.832,0,0,1,1.828-1.828h14.189a1.833,1.833,0,0,1,1.827,1.828v13.582A1.835,1.835,0,0,1-1946.451-346.233Zm-2.634-3.316h0v1.828h2.291a.688.688,0,0,0,.683-.681v-1.147Zm-3.964,0h0v1.828h2.975v-1.828Zm-3.973,0h0v1.828h2.974v-1.828Zm-3.96,0h0v1.147a.682.682,0,0,0,.68.681h2.295v-1.828Zm6.13-8.445a.716.716,0,0,0-.715.714v4.855a.716.716,0,0,0,.716.714.7.7,0,0,0,.418-.139l3.318-2.428a.7.7,0,0,0,.292-.575.7.7,0,0,0-.292-.575l-3.318-2.427A.705.705,0,0,0-1954.852-357.994Zm5.766-3.99h0v1.829h2.977v-1.15a.682.682,0,0,0-.679-.679Zm-3.965,0h0v1.829h2.974v-1.829Zm-.991,0h-2.974v1.828h2.974v-1.829Zm-6.26,0h0a.678.678,0,0,0-.481.2.675.675,0,0,0-.2.481v1.147h2.974v-1.829h-2.3Z" transform="translate(1970 371.307)"/><rect class="b" width="24" height="24" transform="translate(4.454 4.454)"/></g><g transform="translate(411.547 755.547)"><path class="d" d="M-1946.451-346.233h-14.189a1.834,1.834,0,0,1-1.828-1.829v-13.581a1.832,1.832,0,0,1,1.828-1.828h14.189a1.833,1.833,0,0,1,1.827,1.828v13.582A1.835,1.835,0,0,1-1946.451-346.233Zm-2.634-3.316h0v1.828h2.291a.688.688,0,0,0,.683-.681v-1.147Zm-3.964,0h0v1.828h2.975v-1.828Zm-3.973,0h0v1.828h2.974v-1.828Zm-3.96,0h0v1.147a.682.682,0,0,0,.68.681h2.295v-1.828Zm6.13-8.445a.716.716,0,0,0-.715.714v4.855a.716.716,0,0,0,.716.714.7.7,0,0,0,.418-.139l3.318-2.428a.7.7,0,0,0,.292-.575.7.7,0,0,0-.292-.575l-3.318-2.427A.705.705,0,0,0-1954.852-357.994Zm5.766-3.99h0v1.829h2.977v-1.15a.682.682,0,0,0-.679-.679Zm-3.965,0h0v1.829h2.974v-1.829Zm-.991,0h-2.974v1.828h2.974v-1.829Zm-6.26,0h0a.678.678,0,0,0-.481.2.675.675,0,0,0-.2.481v1.147h2.974v-1.829h-2.3Z" transform="translate(1970 371.307)"/><rect class="b" width="24" height="24" transform="translate(4.454 4.454)"/></g><g transform="translate(435.547 755.547)"><path class="e" d="M-1946.451-346.233h-14.189a1.834,1.834,0,0,1-1.828-1.829v-13.581a1.832,1.832,0,0,1,1.828-1.828h14.189a1.833,1.833,0,0,1,1.827,1.828v13.582A1.835,1.835,0,0,1-1946.451-346.233Zm-2.634-3.316h0v1.828h2.291a.688.688,0,0,0,.683-.681v-1.147Zm-3.964,0h0v1.828h2.975v-1.828Zm-3.973,0h0v1.828h2.974v-1.828Zm-3.96,0h0v1.147a.682.682,0,0,0,.68.681h2.295v-1.828Zm6.13-8.445a.716.716,0,0,0-.715.714v4.855a.716.716,0,0,0,.716.714.7.7,0,0,0,.418-.139l3.318-2.428a.7.7,0,0,0,.292-.575.7.7,0,0,0-.292-.575l-3.318-2.427A.705.705,0,0,0-1954.852-357.994Zm5.766-3.99h0v1.829h2.977v-1.15a.682.682,0,0,0-.679-.679Zm-3.965,0h0v1.829h2.974v-1.829Zm-.991,0h-2.974v1.828h2.974v-1.829Zm-6.26,0h0a.678.678,0,0,0-.481.2.675.675,0,0,0-.2.481v1.147h2.974v-1.829h-2.3Z" transform="translate(1970 371.307)"/><rect class="b" width="24" height="24" transform="translate(4.454 4.454)"/></g></g></svg>