<svg xmlns="http://www.w3.org/2000/svg" width="224" height="36" viewBox="0 0 224 36"><defs><style>.a{fill:#f4f6f8;stroke:#e3e8ee;}.b,.c,.e{fill:none;}.c{stroke:#55616d;}.c,.e{stroke-width:1.6px;}.d{fill:#55616d;}.e{stroke:#438dec;}.f{fill:#438dec;}.g{opacity:0.3;}.h{stroke:none;}</style></defs><g transform="translate(-912 -1617)"><g transform="translate(929.053 1625.206)"><g class="a" transform="translate(-17.053 -8.206)"><rect class="h" width="56" height="36" rx="4"/><rect class="b" x="0.5" y="0.5" width="55" height="35" rx="3.5"/></g><rect class="b" width="24" height="24" transform="translate(-1.053 -2.206)"/><g class="c" transform="translate(8.347 1.054)"><rect class="h" width="12.4" height="10.48" rx="2.4"/><rect class="b" x="0.8" y="0.8" width="10.8" height="8.88" rx="1.6"/></g><rect class="d" width="14.123" height="12.24" rx="2.4" transform="translate(1.147 6.294)"/></g><g transform="translate(985.053 1625.206)"><g class="a" transform="translate(-17.053 -8.206)"><rect class="h" width="56" height="36" rx="4"/><rect class="b" x="0.5" y="0.5" width="55" height="35" rx="3.5"/></g><rect class="b" width="24" height="24" transform="translate(-1.053 -2.206)"/><g class="e" transform="translate(8.348 1.054)"><rect class="h" width="12.4" height="10.48" rx="2.4"/><rect class="b" x="0.8" y="0.8" width="10.8" height="8.88" rx="1.6"/></g><rect class="f" width="14.123" height="12.24" rx="2.4" transform="translate(1.146 6.294)"/></g><g transform="translate(1041.053 1625.206)"><g class="a" transform="translate(-17.053 -8.206)"><rect class="h" width="56" height="36" rx="4"/><rect class="b" x="0.5" y="0.5" width="55" height="35" rx="3.5"/></g><rect class="b" width="24" height="24" transform="translate(-1.053 -2.206)"/><g class="e" transform="translate(8.348 1.054)"><rect class="h" width="12.4" height="10.48" rx="2.4"/><rect class="b" x="0.8" y="0.8" width="10.8" height="8.88" rx="1.6"/></g><rect class="f" width="14.123" height="12.24" rx="2.4" transform="translate(1.146 6.294)"/></g><g transform="translate(1097.053 1625.206)"><g class="a" transform="translate(-17.053 -8.206)"><rect class="h" width="56" height="36" rx="4"/><rect class="b" x="0.5" y="0.5" width="55" height="35" rx="3.5"/></g><g class="g"><rect class="b" width="24" height="24" transform="translate(-1.053 -2.206)"/><g class="c" transform="translate(8.346 1.054)"><rect class="h" width="12.4" height="10.48" rx="2.4"/><rect class="b" x="0.8" y="0.8" width="10.8" height="8.88" rx="1.6"/></g><rect class="d" width="14.123" height="12.24" rx="2.4" transform="translate(1.146 6.294)"/></g></g></g></svg>