<svg xmlns="http://www.w3.org/2000/svg" width="224" height="36" viewBox="0 0 224 36"><defs><style>.a{fill:#f4f6f8;stroke:#e3e8ee;}.b,.c,.e{fill:none;}.c{stroke:#55616d;}.c,.e{stroke-width:1.6px;}.d{fill:#55616d;}.e{stroke:#438dec;}.f{fill:#438dec;}.g{opacity:0.3;}.h{stroke:none;}</style></defs><g transform="translate(-912 -1581)"><g transform="translate(929.053 1588.206)"><g class="a" transform="translate(-17.053 -7.206)"><rect class="h" width="56" height="36" rx="4"/><rect class="b" x="0.5" y="0.5" width="55" height="35" rx="3.5"/></g><rect class="b" width="24" height="24" transform="translate(-1.053 -1.206)"/><g class="c" transform="translate(1.347 7.293)"><rect class="h" width="14.12" height="12.24" rx="2.4"/><rect class="b" x="0.8" y="0.8" width="12.52" height="10.64" rx="1.6"/></g><path class="d" d="M-4301.053-1409.726h-3.679v-3.24a1,1,0,0,0-1-1h-5.319v-3.84a2.4,2.4,0,0,1,2.4-2.4h7.6a2.4,2.4,0,0,1,2.4,2.4v5.68A2.4,2.4,0,0,1-4301.053-1409.726Z" transform="translate(4319.199 1422.26)"/></g><g transform="translate(985.053 1588.206)"><g class="a" transform="translate(-17.053 -7.206)"><rect class="h" width="56" height="36" rx="4"/><rect class="b" x="0.5" y="0.5" width="55" height="35" rx="3.5"/></g><rect class="b" width="24" height="24" transform="translate(-1.053 -1.206)"/><g class="e" transform="translate(1.348 7.294)"><rect class="h" width="14.12" height="12.24" rx="2.4"/><rect class="b" x="0.8" y="0.8" width="12.52" height="10.64" rx="1.6"/></g><path class="f" d="M-4301.053-1409.726h-3.679v-3.24a1,1,0,0,0-1-1h-5.319v-3.84a2.4,2.4,0,0,1,2.4-2.4h7.6a2.4,2.4,0,0,1,2.4,2.4v5.68A2.4,2.4,0,0,1-4301.053-1409.726Z" transform="translate(4319.199 1422.261)"/></g><g transform="translate(1041.053 1588.206)"><g class="a" transform="translate(-17.053 -7.206)"><rect class="h" width="56" height="36" rx="4"/><rect class="b" x="0.5" y="0.5" width="55" height="35" rx="3.5"/></g><rect class="b" width="24" height="24" transform="translate(-1.053 -1.206)"/><g class="e" transform="translate(1.348 7.294)"><rect class="h" width="14.12" height="12.24" rx="2.4"/><rect class="b" x="0.8" y="0.8" width="12.52" height="10.64" rx="1.6"/></g><path class="f" d="M-4301.053-1409.726h-3.679v-3.24a1,1,0,0,0-1-1h-5.319v-3.84a2.4,2.4,0,0,1,2.4-2.4h7.6a2.4,2.4,0,0,1,2.4,2.4v5.68A2.4,2.4,0,0,1-4301.053-1409.726Z" transform="translate(4319.199 1422.261)"/></g><g transform="translate(1097.053 1588.206)"><g class="a" transform="translate(-17.053 -7.206)"><rect class="h" width="56" height="36" rx="4"/><rect class="b" x="0.5" y="0.5" width="55" height="35" rx="3.5"/></g><g class="g"><rect class="b" width="24" height="24" transform="translate(-1.053 -1.206)"/><g class="c" transform="translate(1.346 7.294)"><rect class="h" width="14.12" height="12.24" rx="2.4"/><rect class="b" x="0.8" y="0.8" width="12.52" height="10.64" rx="1.6"/></g><path class="d" d="M-4301.053-1409.726h-3.679v-3.24a1,1,0,0,0-1-1h-5.319v-3.84a2.4,2.4,0,0,1,2.4-2.4h7.6a2.4,2.4,0,0,1,2.4,2.4v5.68A2.4,2.4,0,0,1-4301.053-1409.726Z" transform="translate(4319.199 1422.261)"/></g></g></g></svg>