<svg xmlns="http://www.w3.org/2000/svg" width="96" height="24" viewBox="0 0 96 24"><defs><style>.a{fill:#55616d;}.a,.d,.e{stroke:rgba(0,0,0,0);stroke-miterlimit:10;}.b{fill:none;}.c{opacity:0.3;}.d{fill:#818c98;}.e{fill:#438dec;}</style></defs><g transform="translate(-784 -558.001)"><g transform="translate(781.811 555.812)"><path class="a" d="M18145.232,11019.81h-15.617a1.426,1.426,0,0,1-1.426-1.421v-12.779a1.426,1.426,0,0,1,1.426-1.421h15.617a1.422,1.422,0,0,1,1.42,1.421v12.779A1.422,1.422,0,0,1,18145.232,11019.81Zm-6.832-11.622h0v7.409h2.109a4.083,4.083,0,0,0,1.9-.414,2.862,2.862,0,0,0,1.242-1.248,4.414,4.414,0,0,0,.438-2.077,4.3,4.3,0,0,0-.441-2.062,2.871,2.871,0,0,0-1.262-1.207,4.38,4.38,0,0,0-1.953-.4Zm-6.09,4.2h0l2.795.01.014,3.2h1.457v-7.4l-1.471-.009.014,2.928h-2.811v-2.919l-1.479-.009.008,7.409h1.471v-3.21Zm8.021,2.009h-.451v-5.019h.451a2.7,2.7,0,0,1,1.2.246,1.69,1.69,0,0,1,.779.792,3.314,3.314,0,0,1,.27,1.443,3.443,3.443,0,0,1-.27,1.462,1.715,1.715,0,0,1-.779.82A2.589,2.589,0,0,1,18140.332,11014.395Z" transform="translate(-18123.23 -10997.809)"/><rect class="b" width="24" height="24" transform="translate(2.189 2.189)"/></g><g class="c" transform="translate(853.811 555.812)"><path class="a" d="M18145.232,11019.81h-15.617a1.426,1.426,0,0,1-1.426-1.421v-12.779a1.426,1.426,0,0,1,1.426-1.421h15.617a1.422,1.422,0,0,1,1.42,1.421v12.779A1.422,1.422,0,0,1,18145.232,11019.81Zm-6.832-11.622h0v7.409h2.109a4.083,4.083,0,0,0,1.9-.414,2.862,2.862,0,0,0,1.242-1.248,4.414,4.414,0,0,0,.438-2.077,4.3,4.3,0,0,0-.441-2.062,2.871,2.871,0,0,0-1.262-1.207,4.38,4.38,0,0,0-1.953-.4Zm-6.09,4.2h0l2.795.01.014,3.2h1.457v-7.4l-1.471-.009.014,2.928h-2.811v-2.919l-1.479-.009.008,7.409h1.471v-3.21Zm8.021,2.009h-.451v-5.019h.451a2.7,2.7,0,0,1,1.2.246,1.69,1.69,0,0,1,.779.792,3.314,3.314,0,0,1,.27,1.443,3.443,3.443,0,0,1-.27,1.462,1.715,1.715,0,0,1-.779.82A2.589,2.589,0,0,1,18140.332,11014.395Z" transform="translate(-18123.23 -10997.809)"/><rect class="b" width="24" height="24" transform="translate(2.189 2.189)"/></g><g transform="translate(805.811 555.812)"><path class="d" d="M18145.232,11019.81h-15.617a1.426,1.426,0,0,1-1.426-1.421v-12.779a1.426,1.426,0,0,1,1.426-1.421h15.617a1.422,1.422,0,0,1,1.42,1.421v12.779A1.422,1.422,0,0,1,18145.232,11019.81Zm-6.832-11.622h0v7.409h2.109a4.083,4.083,0,0,0,1.9-.414,2.862,2.862,0,0,0,1.242-1.248,4.414,4.414,0,0,0,.438-2.077,4.3,4.3,0,0,0-.441-2.062,2.871,2.871,0,0,0-1.262-1.207,4.38,4.38,0,0,0-1.953-.4Zm-6.09,4.2h0l2.795.01.014,3.2h1.457v-7.4l-1.471-.009.014,2.928h-2.811v-2.919l-1.479-.009.008,7.409h1.471v-3.21Zm8.021,2.009h-.451v-5.019h.451a2.7,2.7,0,0,1,1.2.246,1.69,1.69,0,0,1,.779.792,3.314,3.314,0,0,1,.27,1.443,3.443,3.443,0,0,1-.27,1.462,1.715,1.715,0,0,1-.779.82A2.589,2.589,0,0,1,18140.332,11014.395Z" transform="translate(-18123.23 -10997.809)"/><rect class="b" width="24" height="24" transform="translate(2.189 2.189)"/></g><g transform="translate(829.811 555.812)"><path class="e" d="M18145.232,11019.81h-15.617a1.426,1.426,0,0,1-1.426-1.421v-12.779a1.426,1.426,0,0,1,1.426-1.421h15.617a1.422,1.422,0,0,1,1.42,1.421v12.779A1.422,1.422,0,0,1,18145.232,11019.81Zm-6.832-11.622h0v7.409h2.109a4.083,4.083,0,0,0,1.9-.414,2.862,2.862,0,0,0,1.242-1.248,4.414,4.414,0,0,0,.438-2.077,4.3,4.3,0,0,0-.441-2.062,2.871,2.871,0,0,0-1.262-1.207,4.38,4.38,0,0,0-1.953-.4Zm-6.09,4.2h0l2.795.01.014,3.2h1.457v-7.4l-1.471-.009.014,2.928h-2.811v-2.919l-1.479-.009.008,7.409h1.471v-3.21Zm8.021,2.009h-.451v-5.019h.451a2.7,2.7,0,0,1,1.2.246,1.69,1.69,0,0,1,.779.792,3.314,3.314,0,0,1,.27,1.443,3.443,3.443,0,0,1-.27,1.462,1.715,1.715,0,0,1-.779.82A2.589,2.589,0,0,1,18140.332,11014.395Z" transform="translate(-18123.23 -10997.809)"/><rect class="b" width="24" height="24" transform="translate(2.189 2.189)"/></g></g></svg>