<svg xmlns="http://www.w3.org/2000/svg" width="96" height="24" viewBox="0 0 96 24"><defs><style>.a{fill:#55616d;}.b{fill:none;}.c{fill:#818c98;}.d{fill:#438dec;}.e{fill:#cbced2;}</style></defs><g transform="translate(-184 -396)"><g transform="translate(182 394.463)"><path class="a" d="M27.048,23.449A.64.64,0,0,1,26.4,22.8V4.648a.648.648,0,1,1,1.3,0V22.8A.64.64,0,0,1,27.048,23.449Z" transform="translate(-13.131 -0.105)"/><path class="a" d="M-712.76-1940.387a.692.692,0,0,1-.284-.04l-5.187-1.5a1.127,1.127,0,0,1-.77-1.053v-8.874a1.092,1.092,0,0,1,.77-1.054l5.187-1.5a.876.876,0,0,1,.31-.057,1.067,1.067,0,0,1,.621.219,1.342,1.342,0,0,1,.445.851v11.953a1.052,1.052,0,0,1-.445.851A1.218,1.218,0,0,1-712.76-1940.387Zm-2.918-9.655a.458.458,0,0,0-.442.34l-.891,3.363a.454.454,0,0,0,.047.347.455.455,0,0,0,.278.212.473.473,0,0,0,.117.015.457.457,0,0,0,.442-.34l.891-3.363a.454.454,0,0,0-.046-.347.454.454,0,0,0-.279-.212A.454.454,0,0,0-715.679-1950.042Zm1.5,1.3a.457.457,0,0,0-.443.347l-.405,1.621a.453.453,0,0,0,.052.346.455.455,0,0,0,.281.208.417.417,0,0,0,.111.014.457.457,0,0,0,.444-.346l.405-1.621a.454.454,0,0,0-.052-.346.454.454,0,0,0-.281-.208A.458.458,0,0,0-714.179-1948.745Z" transform="translate(734.903 1961.097)"/><path class="a" d="M11.664,12.3,6.478,10.843A1.071,1.071,0,0,0,5.546,11a1.057,1.057,0,0,0-.446.851V23.687a1.057,1.057,0,0,0,.446.851.953.953,0,0,0,.648.2.69.69,0,0,0,.284-.041l5.186-1.5a1.094,1.094,0,0,0,.77-1.053V13.355A1.094,1.094,0,0,0,11.664,12.3Z" transform="translate(-0.462 -4.152)"/><rect class="b" width="24" height="24" transform="translate(2 1.537)"/></g><g transform="translate(206 394.463)"><path class="c" d="M27.048,23.449A.64.64,0,0,1,26.4,22.8V4.648a.648.648,0,1,1,1.3,0V22.8A.64.64,0,0,1,27.048,23.449Z" transform="translate(-13.131 -0.105)"/><path class="c" d="M-712.76-1940.387a.692.692,0,0,1-.284-.04l-5.187-1.5a1.127,1.127,0,0,1-.77-1.053v-8.874a1.092,1.092,0,0,1,.77-1.054l5.187-1.5a.876.876,0,0,1,.31-.057,1.067,1.067,0,0,1,.621.219,1.342,1.342,0,0,1,.445.851v11.953a1.052,1.052,0,0,1-.445.851A1.218,1.218,0,0,1-712.76-1940.387Zm-2.918-9.655a.458.458,0,0,0-.442.34l-.891,3.363a.454.454,0,0,0,.047.347.455.455,0,0,0,.278.212.473.473,0,0,0,.117.015.457.457,0,0,0,.442-.34l.891-3.363a.454.454,0,0,0-.046-.347.454.454,0,0,0-.279-.212A.454.454,0,0,0-715.679-1950.042Zm1.5,1.3a.457.457,0,0,0-.443.347l-.405,1.621a.453.453,0,0,0,.052.346.455.455,0,0,0,.281.208.417.417,0,0,0,.111.014.457.457,0,0,0,.444-.346l.405-1.621a.454.454,0,0,0-.052-.346.454.454,0,0,0-.281-.208A.458.458,0,0,0-714.179-1948.745Z" transform="translate(734.903 1961.097)"/><path class="c" d="M11.664,12.3,6.478,10.843A1.071,1.071,0,0,0,5.546,11a1.057,1.057,0,0,0-.446.851V23.687a1.057,1.057,0,0,0,.446.851.953.953,0,0,0,.648.2.69.69,0,0,0,.284-.041l5.186-1.5a1.094,1.094,0,0,0,.77-1.053V13.355A1.094,1.094,0,0,0,11.664,12.3Z" transform="translate(-0.462 -4.152)"/><rect class="b" width="24" height="24" transform="translate(2 1.537)"/></g><g transform="translate(230 394.463)"><path class="d" d="M27.048,23.449A.64.64,0,0,1,26.4,22.8V4.648a.648.648,0,1,1,1.3,0V22.8A.64.64,0,0,1,27.048,23.449Z" transform="translate(-13.131 -0.105)"/><path class="d" d="M-712.76-1940.387a.692.692,0,0,1-.284-.04l-5.187-1.5a1.127,1.127,0,0,1-.77-1.053v-8.874a1.092,1.092,0,0,1,.77-1.054l5.187-1.5a.876.876,0,0,1,.31-.057,1.067,1.067,0,0,1,.621.219,1.342,1.342,0,0,1,.445.851v11.953a1.052,1.052,0,0,1-.445.851A1.218,1.218,0,0,1-712.76-1940.387Zm-2.918-9.655a.458.458,0,0,0-.442.34l-.891,3.363a.454.454,0,0,0,.047.347.455.455,0,0,0,.278.212.473.473,0,0,0,.117.015.457.457,0,0,0,.442-.34l.891-3.363a.454.454,0,0,0-.046-.347.454.454,0,0,0-.279-.212A.454.454,0,0,0-715.679-1950.042Zm1.5,1.3a.457.457,0,0,0-.443.347l-.405,1.621a.453.453,0,0,0,.052.346.455.455,0,0,0,.281.208.417.417,0,0,0,.111.014.457.457,0,0,0,.444-.346l.405-1.621a.454.454,0,0,0-.052-.346.454.454,0,0,0-.281-.208A.458.458,0,0,0-714.179-1948.745Z" transform="translate(734.903 1961.097)"/><path class="d" d="M11.664,12.3,6.478,10.843A1.071,1.071,0,0,0,5.546,11a1.057,1.057,0,0,0-.446.851V23.687a1.057,1.057,0,0,0,.446.851.953.953,0,0,0,.648.2.69.69,0,0,0,.284-.041l5.186-1.5a1.094,1.094,0,0,0,.77-1.053V13.355A1.094,1.094,0,0,0,11.664,12.3Z" transform="translate(-0.462 -4.152)"/><rect class="b" width="24" height="24" transform="translate(2 1.537)"/></g><g transform="translate(254 394.463)"><path class="e" d="M27.048,23.449A.64.64,0,0,1,26.4,22.8V4.648a.648.648,0,1,1,1.3,0V22.8A.64.64,0,0,1,27.048,23.449Z" transform="translate(-13.131 -0.105)"/><path class="e" d="M-712.76-1940.387a.692.692,0,0,1-.284-.04l-5.187-1.5a1.127,1.127,0,0,1-.77-1.053v-8.874a1.092,1.092,0,0,1,.77-1.054l5.187-1.5a.876.876,0,0,1,.31-.057,1.067,1.067,0,0,1,.621.219,1.342,1.342,0,0,1,.445.851v11.953a1.052,1.052,0,0,1-.445.851A1.218,1.218,0,0,1-712.76-1940.387Zm-2.918-9.655a.458.458,0,0,0-.442.34l-.891,3.363a.454.454,0,0,0,.047.347.455.455,0,0,0,.278.212.473.473,0,0,0,.117.015.457.457,0,0,0,.442-.34l.891-3.363a.454.454,0,0,0-.046-.347.454.454,0,0,0-.279-.212A.454.454,0,0,0-715.679-1950.042Zm1.5,1.3a.457.457,0,0,0-.443.347l-.405,1.621a.453.453,0,0,0,.052.346.455.455,0,0,0,.281.208.417.417,0,0,0,.111.014.457.457,0,0,0,.444-.346l.405-1.621a.454.454,0,0,0-.052-.346.454.454,0,0,0-.281-.208A.458.458,0,0,0-714.179-1948.745Z" transform="translate(734.903 1961.097)"/><path class="e" d="M11.664,12.3,6.478,10.843A1.071,1.071,0,0,0,5.546,11a1.057,1.057,0,0,0-.446.851V23.687a1.057,1.057,0,0,0,.446.851.953.953,0,0,0,.648.2.69.69,0,0,0,.284-.041l5.186-1.5a1.094,1.094,0,0,0,.77-1.053V13.355A1.094,1.094,0,0,0,11.664,12.3Z" transform="translate(-0.462 -4.152)"/><rect class="b" width="24" height="24" transform="translate(2 1.537)"/></g></g></svg>