<svg xmlns="http://www.w3.org/2000/svg" width="96" height="24.002" viewBox="0 0 96 24.002"><defs><style>.a,.d{fill:#55616d;}.b,.c,.f,.i{fill:none;}.b,.d{stroke:#55616d;}.b,.f,.i{stroke-width:2px;}.d,.g,.j{stroke-linecap:round;stroke-linejoin:round;stroke-width:0.2px;}.e,.g{fill:#818c98;}.f,.g{stroke:#818c98;}.h,.j{fill:#438dec;}.i,.j{stroke:#438dec;}.k{opacity:0.3;}</style></defs><g transform="translate(-303.999 -557.999)"><g transform="translate(299.352 553.352)"><path class="a" d="M26.635,27.7,28.7,25.637l3.619,3.618a1.462,1.462,0,0,1-2.067,2.068Z" transform="translate(-6.599 -6.33)"/><circle class="b" cx="6.945" cy="6.945" r="6.945" transform="translate(8.972 8.241)"/><rect class="c" width="24" height="24" transform="translate(4.648 4.648)"/><path class="a" d="M5.562,0A1.182,1.182,0,1,1,4.38,1.182,1.181,1.181,0,0,1,5.562,0" transform="translate(11.338 9.694)"/><path class="d" d="M7.8,5.163,6.071,4.709,5.253,3.345a.931.931,0,0,0-.545-.455A1.152,1.152,0,0,0,4.162,2.8l-1.818.545a1.255,1.255,0,0,0-.364.273L.8,5.345a.542.542,0,0,0,.234.823c.236.215.529.078.783-.186L2.981,4.345l.364-.091L2.981,5.8,2.163,7.981.345,8.709a.624.624,0,0,0-.273.818.749.749,0,0,0,.545.364A.334.334,0,0,0,.891,9.8L2.77,8.927a.866.866,0,0,0,.393-.4L3.8,6.981,5.071,8.618l.545,1.636a.671.671,0,0,0,.545.455h.182c.364-.091.454-.455.364-.818-.545-1.818-.484-1.667-.636-1.909L4.708,6.254l.273-.909.182.273c.091.182.123.184.364.273l2.181.545a.632.632,0,0,0,.636-.455A.736.736,0,0,0,7.8,5.163" transform="translate(11.737 9.44)"/></g><g transform="translate(323.352 553.352)"><path class="e" d="M26.635,27.7,28.7,25.637l3.619,3.618a1.462,1.462,0,0,1-2.067,2.068Z" transform="translate(-6.599 -6.33)"/><circle class="f" cx="6.945" cy="6.945" r="6.945" transform="translate(8.972 8.241)"/><rect class="c" width="24" height="24" transform="translate(4.648 4.648)"/><path class="e" d="M5.562,0A1.182,1.182,0,1,1,4.38,1.182,1.181,1.181,0,0,1,5.562,0" transform="translate(11.338 9.694)"/><path class="g" d="M7.8,5.163,6.071,4.709,5.253,3.345a.931.931,0,0,0-.545-.455A1.152,1.152,0,0,0,4.162,2.8l-1.818.545a1.255,1.255,0,0,0-.364.273L.8,5.345a.542.542,0,0,0,.234.823c.236.215.529.078.783-.186L2.981,4.345l.364-.091L2.981,5.8,2.163,7.981.345,8.709a.624.624,0,0,0-.273.818.749.749,0,0,0,.545.364A.334.334,0,0,0,.891,9.8L2.77,8.927a.866.866,0,0,0,.393-.4L3.8,6.981,5.071,8.618l.545,1.636a.671.671,0,0,0,.545.455h.182c.364-.091.454-.455.364-.818-.545-1.818-.484-1.667-.636-1.909L4.708,6.254l.273-.909.182.273c.091.182.123.184.364.273l2.181.545a.632.632,0,0,0,.636-.455A.736.736,0,0,0,7.8,5.163" transform="translate(11.738 9.44)"/></g><g transform="translate(347.352 553.354)"><path class="h" d="M26.635,27.7,28.7,25.637l3.619,3.618a1.462,1.462,0,0,1-2.067,2.068Z" transform="translate(-6.599 -6.33)"/><circle class="i" cx="6.945" cy="6.945" r="6.945" transform="translate(8.972 8.241)"/><rect class="c" width="24" height="24" transform="translate(4.648 4.648)"/><path class="h" d="M5.562,0A1.182,1.182,0,1,1,4.38,1.182,1.181,1.181,0,0,1,5.562,0" transform="translate(11.338 9.692)"/><path class="j" d="M7.8,5.163,6.071,4.709,5.253,3.345a.931.931,0,0,0-.545-.455A1.152,1.152,0,0,0,4.162,2.8l-1.818.545a1.255,1.255,0,0,0-.364.273L.8,5.345a.542.542,0,0,0,.234.823c.236.215.529.078.783-.186L2.981,4.345l.364-.091L2.981,5.8,2.163,7.981.345,8.709a.624.624,0,0,0-.273.818.749.749,0,0,0,.545.364A.334.334,0,0,0,.891,9.8L2.77,8.927a.866.866,0,0,0,.393-.4L3.8,6.981,5.071,8.618l.545,1.636a.671.671,0,0,0,.545.455h.182c.364-.091.454-.455.364-.818-.545-1.818-.484-1.667-.636-1.909L4.708,6.254l.273-.909.182.273c.091.182.123.184.364.273l2.181.545a.632.632,0,0,0,.636-.455A.736.736,0,0,0,7.8,5.163" transform="translate(11.738 9.438)"/></g><g class="k" transform="translate(371.352 553.354)"><path class="a" d="M26.635,27.7,28.7,25.637l3.619,3.618a1.462,1.462,0,0,1-2.067,2.068Z" transform="translate(-6.599 -6.33)"/><circle class="b" cx="6.945" cy="6.945" r="6.945" transform="translate(8.972 8.241)"/><rect class="c" width="24" height="24" transform="translate(4.648 4.648)"/><path class="a" d="M5.562,0A1.182,1.182,0,1,1,4.38,1.182,1.181,1.181,0,0,1,5.562,0" transform="translate(11.338 9.692)"/><path class="d" d="M7.8,5.163,6.071,4.709,5.253,3.345a.931.931,0,0,0-.545-.455A1.152,1.152,0,0,0,4.162,2.8l-1.818.545a1.255,1.255,0,0,0-.364.273L.8,5.345a.542.542,0,0,0,.234.823c.236.215.529.078.783-.186L2.981,4.345l.364-.091L2.981,5.8,2.163,7.981.345,8.709a.624.624,0,0,0-.273.818.749.749,0,0,0,.545.364A.334.334,0,0,0,.891,9.8L2.77,8.927a.866.866,0,0,0,.393-.4L3.8,6.981,5.071,8.618l.545,1.636a.671.671,0,0,0,.545.455h.182c.364-.091.454-.455.364-.818-.545-1.818-.484-1.667-.636-1.909L4.708,6.254l.273-.909.182.273c.091.182.123.184.364.273l2.181.545a.632.632,0,0,0,.636-.455A.736.736,0,0,0,7.8,5.163" transform="translate(11.738 9.438)"/></g></g></svg>