<svg xmlns="http://www.w3.org/2000/svg" width="224" height="36" viewBox="0 0 224 36"><defs><style>.a{fill:#f4f6f8;stroke:#e3e8ee;}.b,.e{fill:none;}.c{fill:#55616d;}.d{fill:#438dec;}.e,.f{opacity:0.3;}.g{stroke:none;}</style></defs><g transform="translate(-912 -1689)"><g transform="translate(929.053 1696.206)"><g class="a" transform="translate(-17.053 -7.206)"><rect class="g" width="56" height="36" rx="4"/><rect class="b" x="0.5" y="0.5" width="55" height="35" rx="3.5"/></g><rect class="b" width="24" height="24" transform="translate(-1.053 -1.206)"/><g transform="translate(0.393 0.391)"><path class="c" d="M19.108,13.343a9.521,9.521,0,0,0-.258-7.687H14.772Z" transform="translate(0.367 0.572)"/><path class="c" d="M8.69,3.512H17.4A9.589,9.589,0,0,0,10.728,0Z" transform="translate(0.606 0.794)"/><path class="c" d="M15.846,11.973l-4.755,7.613a9.594,9.594,0,0,0,6.79-4Z" transform="translate(0.512 0.324)"/><path class="c" d="M.573,6.586a9.49,9.49,0,0,0,.373,7.376H4.972Z" transform="translate(0.947 0.535)"/><path class="c" d="M10.659,16.263H2.241a9.587,9.587,0,0,0,6.253,3.468Z" transform="translate(0.859 0.156)"/><path class="c" d="M3.728,7.763,8.179.092A9.594,9.594,0,0,0,1.655,4.285Z" transform="translate(0.882 0.79)"/></g></g><g transform="translate(985.053 1696.206)"><g class="a" transform="translate(-17.053 -7.206)"><rect class="g" width="56" height="36" rx="4"/><rect class="b" x="0.5" y="0.5" width="55" height="35" rx="3.5"/></g><rect class="b" width="24" height="24" transform="translate(-1.053 -1.206)"/><g transform="translate(0.393 0.391)"><path class="d" d="M19.108,13.343a9.521,9.521,0,0,0-.258-7.687H14.772Z" transform="translate(0.367 0.572)"/><path class="d" d="M8.69,3.512H17.4A9.589,9.589,0,0,0,10.728,0Z" transform="translate(0.606 0.794)"/><path class="d" d="M15.846,11.973l-4.755,7.613a9.594,9.594,0,0,0,6.79-4Z" transform="translate(0.512 0.324)"/><path class="d" d="M.573,6.586a9.49,9.49,0,0,0,.373,7.376H4.972Z" transform="translate(0.947 0.535)"/><path class="d" d="M10.659,16.263H2.241a9.587,9.587,0,0,0,6.253,3.468Z" transform="translate(0.859 0.156)"/><path class="d" d="M3.728,7.763,8.179.092A9.594,9.594,0,0,0,1.655,4.285Z" transform="translate(0.882 0.79)"/></g></g><g transform="translate(1041.053 1696.206)"><g class="a" transform="translate(-17.053 -7.206)"><rect class="g" width="56" height="36" rx="4"/><rect class="b" x="0.5" y="0.5" width="55" height="35" rx="3.5"/></g><rect class="b" width="24" height="24" transform="translate(-1.053 -1.206)"/><g transform="translate(0.393 0.391)"><path class="d" d="M19.108,13.343a9.521,9.521,0,0,0-.258-7.687H14.772Z" transform="translate(0.367 0.572)"/><path class="d" d="M8.69,3.512H17.4A9.589,9.589,0,0,0,10.728,0Z" transform="translate(0.606 0.794)"/><path class="d" d="M15.846,11.973l-4.755,7.613a9.594,9.594,0,0,0,6.79-4Z" transform="translate(0.512 0.324)"/><path class="d" d="M.573,6.586a9.49,9.49,0,0,0,.373,7.376H4.972Z" transform="translate(0.947 0.535)"/><path class="d" d="M10.659,16.263H2.241a9.587,9.587,0,0,0,6.253,3.468Z" transform="translate(0.859 0.156)"/><path class="d" d="M3.728,7.763,8.179.092A9.594,9.594,0,0,0,1.655,4.285Z" transform="translate(0.882 0.79)"/></g></g><g transform="translate(1097.053 1696.206)"><g class="a" transform="translate(-17.053 -7.206)"><rect class="g" width="56" height="36" rx="4"/><rect class="b" x="0.5" y="0.5" width="55" height="35" rx="3.5"/></g><rect class="e" width="24" height="24" transform="translate(-1.053 -1.206)"/><g class="f" transform="translate(0.393 0.391)"><path class="c" d="M19.108,13.343a9.521,9.521,0,0,0-.258-7.687H14.772Z" transform="translate(0.367 0.572)"/><path class="c" d="M8.69,3.512H17.4A9.589,9.589,0,0,0,10.728,0Z" transform="translate(0.606 0.794)"/><path class="c" d="M15.846,11.973l-4.755,7.613a9.594,9.594,0,0,0,6.79-4Z" transform="translate(0.512 0.324)"/><path class="c" d="M.573,6.586a9.49,9.49,0,0,0,.373,7.376H4.972Z" transform="translate(0.947 0.535)"/><path class="c" d="M10.659,16.263H2.241a9.587,9.587,0,0,0,6.253,3.468Z" transform="translate(0.859 0.156)"/><path class="c" d="M3.728,7.763,8.179.092A9.594,9.594,0,0,0,1.655,4.285Z" transform="translate(0.882 0.79)"/></g></g></g></svg>