<svg xmlns="http://www.w3.org/2000/svg" width="224" height="36" viewBox="0 0 224 36"><defs><style>.a{fill:#f4f6f8;stroke:#e3e8ee;}.b,.e{fill:none;}.c{fill:#55616d;}.d{fill:#438dec;}.e,.f{opacity:0.3;}.g{stroke:none;}</style></defs><g transform="translate(-912 -1653)"><g transform="translate(929.053 1660.206)"><g class="a" transform="translate(-17.053 -7.206)"><rect class="g" width="56" height="36" rx="4"/><rect class="b" x="0.5" y="0.5" width="55" height="35" rx="3.5"/></g><rect class="b" width="24" height="24" transform="translate(-1.053 -1.206)"/><g transform="translate(0.4 0.4)"><path class="c" d="M10.093,6.07h8.824A9.613,9.613,0,0,0,13.151.561Z" transform="translate(0.544 0.771)"/><path class="c" d="M6.466,11.377,2.207,3.622A9.481,9.481,0,0,0,.149,11.377Z" transform="translate(0.947 0.649)"/><path class="c" d="M6.8,7.573,10.954.084a9.428,9.428,0,0,0-7.169,2Z" transform="translate(0.796 0.794)"/><path class="c" d="M9.2,13.7H.715a9.621,9.621,0,0,0,5.076,5.245Z" transform="translate(0.919 0.246)"/><path class="c" d="M13.265,8.3l4.259,7.755A9.481,9.481,0,0,0,19.582,8.3Z" transform="translate(0.417 0.462)"/><path class="c" d="M12.829,12.03,7.977,19.484a9.657,9.657,0,0,0,1.942.2,9.548,9.548,0,0,0,5.966-2.087Z" transform="translate(0.628 0.313)"/></g></g><g transform="translate(985.053 1660.206)"><g class="a" transform="translate(-17.053 -7.206)"><rect class="g" width="56" height="36" rx="4"/><rect class="b" x="0.5" y="0.5" width="55" height="35" rx="3.5"/></g><rect class="b" width="24" height="24" transform="translate(-1.053 -1.206)"/><g transform="translate(0.4 0.4)"><path class="d" d="M10.093,6.07h8.824A9.613,9.613,0,0,0,13.151.561Z" transform="translate(0.544 0.771)"/><path class="d" d="M6.466,11.377,2.207,3.622A9.481,9.481,0,0,0,.149,11.377Z" transform="translate(0.947 0.649)"/><path class="d" d="M6.8,7.573,10.954.084a9.428,9.428,0,0,0-7.169,2Z" transform="translate(0.796 0.794)"/><path class="d" d="M9.2,13.7H.715a9.621,9.621,0,0,0,5.076,5.245Z" transform="translate(0.919 0.246)"/><path class="d" d="M13.265,8.3l4.259,7.755A9.481,9.481,0,0,0,19.582,8.3Z" transform="translate(0.417 0.462)"/><path class="d" d="M12.829,12.03,7.977,19.484a9.657,9.657,0,0,0,1.942.2,9.548,9.548,0,0,0,5.966-2.087Z" transform="translate(0.628 0.313)"/></g></g><g transform="translate(1041.053 1660.206)"><g class="a" transform="translate(-17.053 -7.206)"><rect class="g" width="56" height="36" rx="4"/><rect class="b" x="0.5" y="0.5" width="55" height="35" rx="3.5"/></g><rect class="b" width="24" height="24" transform="translate(-1.053 -1.206)"/><g transform="translate(0.4 0.4)"><path class="d" d="M10.093,6.07h8.824A9.613,9.613,0,0,0,13.151.561Z" transform="translate(0.544 0.771)"/><path class="d" d="M6.466,11.377,2.207,3.622A9.481,9.481,0,0,0,.149,11.377Z" transform="translate(0.947 0.649)"/><path class="d" d="M6.8,7.573,10.954.084a9.428,9.428,0,0,0-7.169,2Z" transform="translate(0.796 0.794)"/><path class="d" d="M9.2,13.7H.715a9.621,9.621,0,0,0,5.076,5.245Z" transform="translate(0.919 0.246)"/><path class="d" d="M13.265,8.3l4.259,7.755A9.481,9.481,0,0,0,19.582,8.3Z" transform="translate(0.417 0.462)"/><path class="d" d="M12.829,12.03,7.977,19.484a9.657,9.657,0,0,0,1.942.2,9.548,9.548,0,0,0,5.966-2.087Z" transform="translate(0.628 0.313)"/></g></g><g transform="translate(1097.053 1660.206)"><g class="a" transform="translate(-17.053 -7.206)"><rect class="g" width="56" height="36" rx="4"/><rect class="b" x="0.5" y="0.5" width="55" height="35" rx="3.5"/></g><rect class="e" width="24" height="24" transform="translate(-1.053 -1.206)"/><g class="f" transform="translate(0.4 0.4)"><path class="c" d="M10.093,6.07h8.824A9.613,9.613,0,0,0,13.151.561Z" transform="translate(0.544 0.771)"/><path class="c" d="M6.466,11.377,2.207,3.622A9.481,9.481,0,0,0,.149,11.377Z" transform="translate(0.947 0.649)"/><path class="c" d="M6.8,7.573,10.954.084a9.428,9.428,0,0,0-7.169,2Z" transform="translate(0.796 0.794)"/><path class="c" d="M9.2,13.7H.715a9.621,9.621,0,0,0,5.076,5.245Z" transform="translate(0.919 0.246)"/><path class="c" d="M13.265,8.3l4.259,7.755A9.481,9.481,0,0,0,19.582,8.3Z" transform="translate(0.417 0.462)"/><path class="c" d="M12.829,12.03,7.977,19.484a9.657,9.657,0,0,0,1.942.2,9.548,9.548,0,0,0,5.966-2.087Z" transform="translate(0.628 0.313)"/></g></g></g></svg>