<?xml version="1.0" encoding="utf-8"?>
<!-- Generator: Adobe Illustrator 21.0.0, SVG Export Plug-In . SVG Version: 6.00 Build 0)  -->
<svg version="1.1" id="图层_1" xmlns="http://www.w3.org/2000/svg" xmlns:xlink="http://www.w3.org/1999/xlink" x="0px" y="0px"
	 viewBox="0 0 720 576" style="enable-background:new 0 0 720 576;" xml:space="preserve">
<style type="text/css">
	.st0{fill:none;}
	.st1{fill:#FFFFFF;}
</style>
<rect class="st0" width="720" height="576"/>
<g>
	<path class="st1" d="M150.4,305v-68.2h13.9v56.6h34.5V305H150.4z"/>
	<path class="st1" d="M205.5,279.4c0-4.4,1.1-8.6,3.2-12.7s5.2-7.2,9.2-9.4c4-2.2,8.4-3.2,13.2-3.2c7.5,0,13.7,2.4,18.5,7.3
		c4.8,4.9,7.2,11.1,7.2,18.5c0,7.5-2.4,13.8-7.3,18.7c-4.9,5-11,7.4-18.4,7.4c-4.6,0-8.9-1-13.1-3.1c-4.1-2.1-7.3-5.1-9.4-9.1
		S205.5,285.1,205.5,279.4z M219,280.1c0,4.9,1.2,8.7,3.5,11.3s5.2,3.9,8.7,3.9c3.4,0,6.3-1.3,8.6-3.9c2.3-2.6,3.5-6.4,3.5-11.4
		c0-4.9-1.2-8.6-3.5-11.3c-2.3-2.6-5.2-3.9-8.6-3.9c-3.4,0-6.3,1.3-8.7,3.9S219,275.2,219,280.1z"/>
	<path class="st1" d="M277,270.4l-12-2.2c1.3-4.8,3.7-8.4,6.9-10.7s8.2-3.5,14.6-3.5c5.9,0,10.2,0.7,13.1,2.1
		c2.9,1.4,4.9,3.2,6.1,5.3s1.8,6.1,1.8,11.8l-0.1,15.4c0,4.4,0.2,7.6,0.6,9.7s1.2,4.3,2.4,6.7h-13c-0.3-0.9-0.8-2.2-1.3-3.9
		c-0.2-0.8-0.4-1.3-0.5-1.5c-2.3,2.2-4.7,3.8-7.2,4.9c-2.6,1.1-5.3,1.6-8.2,1.6c-5.1,0-9.2-1.4-12.1-4.2s-4.4-6.3-4.4-10.5
		c0-2.8,0.7-5.3,2-7.5c1.3-2.2,3.2-3.9,5.6-5.1c2.4-1.2,5.9-2.2,10.5-3.1c6.2-1.2,10.4-2.2,12.8-3.2v-1.3c0-2.5-0.6-4.3-1.9-5.4
		c-1.3-1.1-3.6-1.6-7.1-1.6c-2.3,0-4.2,0.5-5.5,1.4S277.8,268.1,277,270.4z M294.6,281.1c-1.7,0.6-4.4,1.2-8,2s-6,1.5-7.2,2.3
		c-1.7,1.2-2.6,2.8-2.6,4.6c0,1.8,0.7,3.4,2.1,4.8c1.4,1.3,3.1,2,5.3,2c2.4,0,4.6-0.8,6.8-2.3c1.6-1.2,2.6-2.6,3.1-4.4
		c0.3-1.1,0.5-3.3,0.5-6.4V281.1z"/>
	<path class="st1" d="M366.2,305H354v-7.3c-2,2.8-4.4,5-7.2,6.4s-5.6,2.1-8.4,2.1c-5.7,0-10.6-2.3-14.7-6.9s-6.1-11-6.1-19.3
		c0-8.4,2-14.9,6-19.2c4-4.4,9-6.6,15-6.6c5.6,0,10.4,2.3,14.4,6.9v-24.8h13.2V305z M331.1,279c0,5.3,0.7,9.2,2.2,11.5
		c2.1,3.4,5.1,5.2,8.9,5.2c3,0,5.6-1.3,7.7-3.9c2.1-2.6,3.2-6.4,3.2-11.6c0-5.7-1-9.8-3.1-12.4s-4.7-3.8-7.9-3.8
		c-3.1,0-5.7,1.2-7.9,3.7S331.1,274.1,331.1,279z"/>
	<path class="st1" d="M379.2,248.5v-12.2h13.2v12.2H379.2z M379.2,305v-49.8h13.2V305H379.2z"/>
	<path class="st1" d="M451.2,305H438v-25.4c0-5.4-0.3-8.9-0.8-10.4s-1.5-2.8-2.7-3.7s-2.8-1.3-4.6-1.3c-2.3,0-4.3,0.6-6.1,1.9
		s-3.1,2.9-3.7,5s-1,5.9-1,11.4V305h-13.2v-49.8H418v7.3c4.3-5.6,9.8-8.4,16.4-8.4c2.9,0,5.6,0.5,8,1.6s4.2,2.4,5.5,4
		s2.1,3.5,2.6,5.5s0.7,5,0.7,8.9V305z"/>
	<path class="st1" d="M463.3,308.3l15,1.8c0.3,1.8,0.8,3,1.7,3.6c1.3,0.9,3.2,1.4,5.9,1.4c3.4,0,6-0.5,7.7-1.5
		c1.2-0.7,2-1.8,2.6-3.3c0.4-1.1,0.6-3.1,0.6-6v-7.3c-3.9,5.4-8.9,8.1-14.9,8.1c-6.7,0-12-2.8-15.9-8.5c-3.1-4.5-4.6-10-4.6-16.7
		c0-8.3,2-14.7,6-19.1s9-6.6,15-6.6c6.2,0,11.2,2.7,15.2,8.1v-7h12.3v44.7c0,5.9-0.5,10.3-1.5,13.2s-2.3,5.2-4.1,6.8s-4.1,3-7,3.9
		s-6.6,1.4-11.1,1.4c-8.4,0-14.4-1.4-18-4.3s-5.3-6.6-5.3-11C463.3,309.4,463.3,308.9,463.3,308.3z M475.1,279.1
		c0,5.3,1,9.1,3.1,11.6s4.6,3.7,7.6,3.7c3.2,0,5.9-1.3,8.2-3.8s3.3-6.2,3.3-11.2c0-5.2-1.1-9-3.2-11.5s-4.8-3.8-8.1-3.8
		c-3.2,0-5.8,1.2-7.8,3.7S475.1,274,475.1,279.1z"/>
	<path class="st1" d="M523.2,305v-13.2h13.2V305H523.2z"/>
	<path class="st1" d="M549.8,305v-13.2H563V305H549.8z"/>
	<path class="st1" d="M576.5,305v-13.2h13.2V305H576.5z"/>
</g>
</svg>
