<svg xmlns="http://www.w3.org/2000/svg" width="96" height="24.001" viewBox="0 0 96 24.001"><defs><style>.a,.c,.d,.f{fill:none;}.a{stroke:#55616d;}.a,.d,.f{stroke-linecap:round;stroke-width:2px;}.b{fill:#55616d;}.d{stroke:#818c98;}.e{fill:#818c98;}.f{stroke:#438dec;}.g{fill:#438dec;}.h{opacity:0.3;}</style></defs><g transform="translate(-544.001 -590)"><g transform="translate(541.738 587.737)"><path class="a" d="M11.994,13.221a3.975,3.975,0,1,1,6.694.106" transform="translate(-2.706 -2.523)"/><path class="b" d="M9.507,21.9A1.527,1.527,0,0,1,9.8,19.773a1.516,1.516,0,0,1,2.019.375c-.049-.063.677.766.727.837l.793.8V12.333a1.465,1.465,0,0,1,1.175-1.469,1.413,1.413,0,0,1,1.65,1.393h0V16.6l4.271,1.383c1.755.581,2.825.962,2.825,2.854l-.45,5.12a1.427,1.427,0,0,1-1.422,1.3H13.57a1.427,1.427,0,0,1-1.219-.685Z" transform="translate(-2.077 -3.581)"/><rect class="c" width="24" height="24" transform="translate(2.263 2.263)"/></g><g transform="translate(565.738 587.737)"><path class="d" d="M11.994,13.221a3.975,3.975,0,1,1,6.694.106" transform="translate(-2.706 -2.523)"/><path class="e" d="M9.507,21.9A1.527,1.527,0,0,1,9.8,19.773a1.516,1.516,0,0,1,2.019.375c-.049-.063.677.766.727.837l.793.8V12.333a1.465,1.465,0,0,1,1.175-1.469,1.413,1.413,0,0,1,1.65,1.393h0V16.6l4.271,1.383c1.755.581,2.825.962,2.825,2.854l-.45,5.12a1.427,1.427,0,0,1-1.422,1.3H13.57a1.427,1.427,0,0,1-1.219-.685Z" transform="translate(-2.077 -3.581)"/><rect class="c" width="24" height="24" transform="translate(2.263 2.263)"/></g><g transform="translate(589.738 587.738)"><path class="f" d="M11.994,13.221a3.975,3.975,0,1,1,6.694.106" transform="translate(-2.706 -2.523)"/><path class="g" d="M9.507,21.9A1.527,1.527,0,0,1,9.8,19.773a1.516,1.516,0,0,1,2.019.375c-.049-.063.677.766.727.837l.793.8V12.333a1.465,1.465,0,0,1,1.175-1.469,1.413,1.413,0,0,1,1.65,1.393h0V16.6l4.271,1.383c1.755.581,2.825.962,2.825,2.854l-.45,5.12a1.427,1.427,0,0,1-1.422,1.3H13.57a1.427,1.427,0,0,1-1.219-.685Z" transform="translate(-2.077 -3.581)"/><rect class="c" width="24" height="24" transform="translate(2.263 2.263)"/></g><g class="h" transform="translate(613.738 587.738)"><path class="a" d="M11.994,13.221a3.975,3.975,0,1,1,6.694.106" transform="translate(-2.706 -2.523)"/><path class="b" d="M9.507,21.9A1.527,1.527,0,0,1,9.8,19.773a1.516,1.516,0,0,1,2.019.375c-.049-.063.677.766.727.837l.793.8V12.333a1.465,1.465,0,0,1,1.175-1.469,1.413,1.413,0,0,1,1.65,1.393h0V16.6l4.271,1.383c1.755.581,2.825.962,2.825,2.854l-.45,5.12a1.427,1.427,0,0,1-1.422,1.3H13.57a1.427,1.427,0,0,1-1.219-.685Z" transform="translate(-2.077 -3.581)"/><rect class="c" width="24" height="24" transform="translate(2.263 2.263)"/></g></g></svg>