<svg xmlns="http://www.w3.org/2000/svg" width="96" height="24" viewBox="0 0 96 24"><defs><style>.a{fill:#55616d;}.b{fill:none;}.c{fill:#818c98;}.d{fill:#438dec;}.e{opacity:0.3;}</style></defs><g transform="translate(-544 -742)"><g transform="translate(544 742)"><path class="a" d="M18763,10869.5a9.5,9.5,0,1,1,9.5-9.5A9.511,9.511,0,0,1,18763,10869.5Zm4.5-10.751a1.249,1.249,0,1,0,1.254,1.249A1.249,1.249,0,0,0,18767.5,10858.751Zm-4.5,0a1.249,1.249,0,1,0,1.254,1.249A1.249,1.249,0,0,0,18763,10858.751Zm-4.5,0a1.249,1.249,0,1,0,1.248,1.249A1.251,1.251,0,0,0,18758.5,10858.751Z" transform="translate(-18751 -10848)"/><rect class="b" width="24" height="24"/></g><g transform="translate(568 742)"><path class="c" d="M18763,10869.5a9.5,9.5,0,1,1,9.5-9.5A9.511,9.511,0,0,1,18763,10869.5Zm4.5-10.751a1.249,1.249,0,1,0,1.254,1.249A1.249,1.249,0,0,0,18767.5,10858.751Zm-4.5,0a1.249,1.249,0,1,0,1.254,1.249A1.249,1.249,0,0,0,18763,10858.751Zm-4.5,0a1.249,1.249,0,1,0,1.248,1.249A1.251,1.251,0,0,0,18758.5,10858.751Z" transform="translate(-18751 -10848)"/><rect class="b" width="24" height="24"/></g><g transform="translate(592 742)"><path class="d" d="M18763,10869.5a9.5,9.5,0,1,1,9.5-9.5A9.511,9.511,0,0,1,18763,10869.5Zm4.5-10.751a1.249,1.249,0,1,0,1.254,1.249A1.249,1.249,0,0,0,18767.5,10858.751Zm-4.5,0a1.249,1.249,0,1,0,1.254,1.249A1.249,1.249,0,0,0,18763,10858.751Zm-4.5,0a1.249,1.249,0,1,0,1.248,1.249A1.251,1.251,0,0,0,18758.5,10858.751Z" transform="translate(-18751 -10848)"/><rect class="b" width="24" height="24"/></g><g class="e" transform="translate(616 742)"><path class="a" d="M18763,10869.5a9.5,9.5,0,1,1,9.5-9.5A9.511,9.511,0,0,1,18763,10869.5Zm4.5-10.751a1.249,1.249,0,1,0,1.254,1.249A1.249,1.249,0,0,0,18767.5,10858.751Zm-4.5,0a1.249,1.249,0,1,0,1.254,1.249A1.249,1.249,0,0,0,18763,10858.751Zm-4.5,0a1.249,1.249,0,1,0,1.248,1.249A1.251,1.251,0,0,0,18758.5,10858.751Z" transform="translate(-18751 -10848)"/><rect class="b" width="24" height="24"/></g></g></svg>