<?xml version="1.0" encoding="utf-8"?>
<!-- Generator: Adobe Illustrator 27.5.0, SVG Export Plug-In . SVG Version: 6.00 Build 0)  -->
<svg version="1.1" id="图层_1" xmlns="http://www.w3.org/2000/svg" xmlns:xlink="http://www.w3.org/1999/xlink" x="0px" y="0px"
	 viewBox="0 0 24 24" style="enable-background:new 0 0 24 24;" xml:space="preserve">
<style type="text/css">
	.st0{fill:#1F4E6A;}
	.st1{fill-rule:evenodd;clip-rule:evenodd;fill:#1F4E6A;}
</style>
<g>
	<g>
		<path class="st0" d="M12.4,22.5c-0.5,0-0.9,0-1.2-0.1c-5-0.4-9.2-4.6-9.6-9.6c-0.2-3,0.8-6,2.9-8.1c2.1-2.2,4.9-3.4,8-3.3
			c3.9,0.1,7.6,2.6,9.3,6.3c0.4,0.9,0.6,1.9,0.7,3.1c0.1,1.5-0.4,2.9-1.5,3.9c-1.1,1-2.5,1.5-4,1.2L16.4,16c-0.7-0.1-1,0.4-1,0.5
			c-0.1,0.1-0.3,0.7,0.1,1.1l0.1,0.1c1.1,1.1,1.5,2.2,1.1,3.1C16.1,22.2,13.9,22.5,12.4,22.5z M12.1,3.5c-2.3,0-4.6,1-6.2,2.7
			c-1.7,1.8-2.5,4.1-2.3,6.6c0.3,3.9,3.8,7.4,7.8,7.7c1.8,0.2,3.3-0.2,3.6-0.4c0,0-0.1-0.3-0.7-0.9L14.1,19c-0.9-0.9-1-2.3-0.4-3.4
			c0.6-1.2,1.8-1.8,3.1-1.6v0l0.5,0.1c0.9,0.1,1.7-0.1,2.3-0.7c0.6-0.6,0.9-1.4,0.9-2.2c-0.1-0.9-0.3-1.8-0.6-2.4
			c-1.4-3-4.3-5.1-7.5-5.2C12.3,3.5,12.2,3.5,12.1,3.5z"/>
	</g>
	<g>
		<circle class="st1" cx="12.1" cy="7" r="1.5"/>
	</g>
	<g>
		<circle class="st1" cx="7.6" cy="10.2" r="1.5"/>
	</g>
	<g>
		<circle class="st1" cx="9.1" cy="15.2" r="1.5"/>
	</g>
	<g>
		<circle class="st1" cx="16.6" cy="10.2" r="1.5"/>
	</g>
</g>
</svg>
