<svg xmlns="http://www.w3.org/2000/svg" width="96" height="24" viewBox="0 0 96 24"><defs><style>.a{fill:none;}.b,.c,.d{fill:#55616d;}.b,.c{stroke:#55616d;}.b,.f,.i{stroke-linecap:round;}.b,.c,.f,.g,.i,.j{stroke-width:0.4px;}.e{opacity:0.3;}.f,.g,.h{fill:#818c98;}.f,.g{stroke:#818c98;}.i,.j,.k{fill:#438dec;}.i,.j{stroke:#438dec;}</style></defs><g transform="translate(-424 -742)"><g transform="translate(424 742)"><rect class="a" width="24" height="24"/><g transform="translate(0.331 0.693)"><path class="b" d="M37.364,27.084a.729.729,0,0,1-.251-1.414c2.216-.812,3.539-1.977,3.539-3.116a2.522,2.522,0,0,0-1.065-1.785.729.729,0,1,1,.927-1.126,3.825,3.825,0,0,1,1.6,2.911,3.674,3.674,0,0,1-1.323,2.674,9.4,9.4,0,0,1-3.173,1.812A.728.728,0,0,1,37.364,27.084Z" transform="translate(-18.823 -9.889)"/><path class="b" d="M11.719,27.881a20.043,20.043,0,0,1-8-1.5C1.385,25.332.1,23.865.1,22.252a4.065,4.065,0,0,1,2.025-3.229.729.729,0,1,1,.84,1.193,2.819,2.819,0,0,0-1.406,2.037c0,.99,1.006,2.011,2.759,2.8a18.573,18.573,0,0,0,7.4,1.371,22.575,22.575,0,0,0,3.242-.229.729.729,0,1,1,.21,1.443A24.038,24.038,0,0,1,11.719,27.881Z" transform="translate(-0.051 -9.588)"/><path class="c" d="M30.069,13.335a5.15,5.15,0,0,1,.623-2.849,2.433,2.433,0,0,1,3.839.043,5,5,0,0,1,.65,2.806,5.073,5.073,0,0,1-.631,2.835,2.189,2.189,0,0,1-1.941.92,2.141,2.141,0,0,1-1.9-.95,5.031,5.031,0,0,1-.64-2.8m1.524,0a5.755,5.755,0,0,0,.233,1.94.807.807,0,0,0,.784.586.815.815,0,0,0,.782-.594,5.582,5.582,0,0,0,.241-1.932,5.57,5.57,0,0,0-.243-1.945.81.81,0,0,0-1.56,0,5.734,5.734,0,0,0-.235,1.945" transform="translate(-15.451 -4.797)"/><path class="c" d="M18.559,13.92a4.845,4.845,0,0,1,.915-3.229,3.429,3.429,0,0,1,2.742-1.059c.153,0,.293,0,.422.01a.611.611,0,0,1,.577.614h0a.608.608,0,0,1-.637.613c-.087-.005-.174-.008-.26-.008a3.078,3.078,0,0,0-1.3.237,1.61,1.61,0,0,0-.754.7,3.166,3.166,0,0,0-.3,1.315h.065a1.687,1.687,0,0,1,1.587-.882,1.988,1.988,0,0,1,1.557.628,2.5,2.5,0,0,1,.563,1.733,2.528,2.528,0,0,1-.668,1.85,2.478,2.478,0,0,1-1.853.682,2.6,2.6,0,0,1-1.408-.375,2.43,2.43,0,0,1-.927-1.094,4.177,4.177,0,0,1-.326-1.733m1.524.556a1.616,1.616,0,0,0,.313,1.006.96.96,0,0,0,.794.411.916.916,0,0,0,.761-.333,1.487,1.487,0,0,0,.265-.949,1.3,1.3,0,0,0-.248-.842.9.9,0,0,0-.749-.309,1.149,1.149,0,0,0-.8.305.939.939,0,0,0-.333.712" transform="translate(-9.535 -4.83)"/><path class="c" d="M11.7,13.7a2.122,2.122,0,0,0-1.3-.545v-.031a2.152,2.152,0,0,0,1.164-.65,1.682,1.682,0,0,0,.415-1.148,1.471,1.471,0,0,0-.659-1.278,3.087,3.087,0,0,0-1.794-.46,4.257,4.257,0,0,0-1.751.348.637.637,0,0,0-.252.934.647.647,0,0,0,.831.21,2.58,2.58,0,0,1,.329-.138,2.326,2.326,0,0,1,.733-.124q1.039,0,1.039.84a.769.769,0,0,1-.391.735,2.681,2.681,0,0,1-1.227.214l-.01,0a.616.616,0,0,0-.012,1.231,6.209,6.209,0,0,1,1.336.214.754.754,0,0,1,.419.729.948.948,0,0,1-.365.832,1.965,1.965,0,0,1-1.129.26,3.977,3.977,0,0,1-1.01-.134L7.914,15.7a.608.608,0,0,0-.784.583.622.622,0,0,0,.446.591,5.613,5.613,0,0,0,1.663.232,3.364,3.364,0,0,0,2.147-.589,1.987,1.987,0,0,0,.732-1.642A1.61,1.61,0,0,0,11.7,13.7" transform="translate(-3.662 -4.808)"/><path class="c" d="M42.763,9.586a.972.972,0,1,1-.972-.972.972.972,0,0,1,.972.972" transform="translate(-20.973 -4.307)"/><path class="d" d="M3.829.673a.8.8,0,0,1,1.2,0L7.671,3.649a.8.8,0,0,1-.6,1.331H1.781a.8.8,0,0,1-.6-1.331Z" transform="translate(16.553 12.998) rotate(90)"/></g></g><g class="e" transform="translate(496 742)"><rect class="a" width="24" height="24"/><g transform="translate(0.331 0.693)"><path class="b" d="M37.364,27.084a.729.729,0,0,1-.251-1.414c2.216-.812,3.539-1.977,3.539-3.116a2.522,2.522,0,0,0-1.065-1.785.729.729,0,1,1,.927-1.126,3.825,3.825,0,0,1,1.6,2.911,3.674,3.674,0,0,1-1.323,2.674,9.4,9.4,0,0,1-3.173,1.812A.728.728,0,0,1,37.364,27.084Z" transform="translate(-18.823 -9.889)"/><path class="b" d="M11.719,27.881a20.043,20.043,0,0,1-8-1.5C1.385,25.332.1,23.865.1,22.252a4.065,4.065,0,0,1,2.025-3.229.729.729,0,1,1,.84,1.193,2.819,2.819,0,0,0-1.406,2.037c0,.99,1.006,2.011,2.759,2.8a18.573,18.573,0,0,0,7.4,1.371,22.575,22.575,0,0,0,3.242-.229.729.729,0,1,1,.21,1.443A24.038,24.038,0,0,1,11.719,27.881Z" transform="translate(-0.051 -9.588)"/><path class="c" d="M30.069,13.335a5.15,5.15,0,0,1,.623-2.849,2.433,2.433,0,0,1,3.839.043,5,5,0,0,1,.65,2.806,5.073,5.073,0,0,1-.631,2.835,2.189,2.189,0,0,1-1.941.92,2.141,2.141,0,0,1-1.9-.95,5.031,5.031,0,0,1-.64-2.8m1.524,0a5.755,5.755,0,0,0,.233,1.94.807.807,0,0,0,.784.586.815.815,0,0,0,.782-.594,5.582,5.582,0,0,0,.241-1.932,5.57,5.57,0,0,0-.243-1.945.81.81,0,0,0-1.56,0,5.734,5.734,0,0,0-.235,1.945" transform="translate(-15.451 -4.797)"/><path class="c" d="M18.559,13.92a4.845,4.845,0,0,1,.915-3.229,3.429,3.429,0,0,1,2.742-1.059c.153,0,.293,0,.422.01a.611.611,0,0,1,.577.614h0a.608.608,0,0,1-.637.613c-.087-.005-.174-.008-.26-.008a3.078,3.078,0,0,0-1.3.237,1.61,1.61,0,0,0-.754.7,3.166,3.166,0,0,0-.3,1.315h.065a1.687,1.687,0,0,1,1.587-.882,1.988,1.988,0,0,1,1.557.628,2.5,2.5,0,0,1,.563,1.733,2.528,2.528,0,0,1-.668,1.85,2.478,2.478,0,0,1-1.853.682,2.6,2.6,0,0,1-1.408-.375,2.43,2.43,0,0,1-.927-1.094,4.177,4.177,0,0,1-.326-1.733m1.524.556a1.616,1.616,0,0,0,.313,1.006.96.96,0,0,0,.794.411.916.916,0,0,0,.761-.333,1.487,1.487,0,0,0,.265-.949,1.3,1.3,0,0,0-.248-.842.9.9,0,0,0-.749-.309,1.149,1.149,0,0,0-.8.305.939.939,0,0,0-.333.712" transform="translate(-9.535 -4.83)"/><path class="c" d="M11.7,13.7a2.122,2.122,0,0,0-1.3-.545v-.031a2.152,2.152,0,0,0,1.164-.65,1.682,1.682,0,0,0,.415-1.148,1.471,1.471,0,0,0-.659-1.278,3.087,3.087,0,0,0-1.794-.46,4.257,4.257,0,0,0-1.751.348.637.637,0,0,0-.252.934.647.647,0,0,0,.831.21,2.58,2.58,0,0,1,.329-.138,2.326,2.326,0,0,1,.733-.124q1.039,0,1.039.84a.769.769,0,0,1-.391.735,2.681,2.681,0,0,1-1.227.214l-.01,0a.616.616,0,0,0-.012,1.231,6.209,6.209,0,0,1,1.336.214.754.754,0,0,1,.419.729.948.948,0,0,1-.365.832,1.965,1.965,0,0,1-1.129.26,3.977,3.977,0,0,1-1.01-.134L7.914,15.7a.608.608,0,0,0-.784.583.622.622,0,0,0,.446.591,5.613,5.613,0,0,0,1.663.232,3.364,3.364,0,0,0,2.147-.589,1.987,1.987,0,0,0,.732-1.642A1.61,1.61,0,0,0,11.7,13.7" transform="translate(-3.662 -4.808)"/><path class="c" d="M42.763,9.586a.972.972,0,1,1-.972-.972.972.972,0,0,1,.972.972" transform="translate(-20.973 -4.307)"/><path class="d" d="M3.829.673a.8.8,0,0,1,1.2,0L7.671,3.649a.8.8,0,0,1-.6,1.331H1.781a.8.8,0,0,1-.6-1.331Z" transform="translate(16.553 12.998) rotate(90)"/></g></g><g transform="translate(448 742)"><rect class="a" width="24" height="24"/><g transform="translate(0.331 0.693)"><path class="f" d="M37.364,27.084a.729.729,0,0,1-.251-1.414c2.216-.812,3.539-1.977,3.539-3.116a2.522,2.522,0,0,0-1.065-1.785.729.729,0,1,1,.927-1.126,3.825,3.825,0,0,1,1.6,2.911,3.674,3.674,0,0,1-1.323,2.674,9.4,9.4,0,0,1-3.173,1.812A.728.728,0,0,1,37.364,27.084Z" transform="translate(-18.823 -9.889)"/><path class="f" d="M11.719,27.881a20.043,20.043,0,0,1-8-1.5C1.385,25.332.1,23.865.1,22.252a4.065,4.065,0,0,1,2.025-3.229.729.729,0,1,1,.84,1.193,2.819,2.819,0,0,0-1.406,2.037c0,.99,1.006,2.011,2.759,2.8a18.573,18.573,0,0,0,7.4,1.371,22.575,22.575,0,0,0,3.242-.229.729.729,0,1,1,.21,1.443A24.038,24.038,0,0,1,11.719,27.881Z" transform="translate(-0.051 -9.588)"/><path class="g" d="M30.069,13.335a5.15,5.15,0,0,1,.623-2.849,2.433,2.433,0,0,1,3.839.043,5,5,0,0,1,.65,2.806,5.073,5.073,0,0,1-.631,2.835,2.189,2.189,0,0,1-1.941.92,2.141,2.141,0,0,1-1.9-.95,5.031,5.031,0,0,1-.64-2.8m1.524,0a5.755,5.755,0,0,0,.233,1.94.807.807,0,0,0,.784.586.815.815,0,0,0,.782-.594,5.582,5.582,0,0,0,.241-1.932,5.57,5.57,0,0,0-.243-1.945.81.81,0,0,0-1.56,0,5.734,5.734,0,0,0-.235,1.945" transform="translate(-15.451 -4.797)"/><path class="g" d="M18.559,13.92a4.845,4.845,0,0,1,.915-3.229,3.429,3.429,0,0,1,2.742-1.059c.153,0,.293,0,.422.01a.611.611,0,0,1,.577.614h0a.608.608,0,0,1-.637.613c-.087-.005-.174-.008-.26-.008a3.078,3.078,0,0,0-1.3.237,1.61,1.61,0,0,0-.754.7,3.166,3.166,0,0,0-.3,1.315h.065a1.687,1.687,0,0,1,1.587-.882,1.988,1.988,0,0,1,1.557.628,2.5,2.5,0,0,1,.563,1.733,2.528,2.528,0,0,1-.668,1.85,2.478,2.478,0,0,1-1.853.682,2.6,2.6,0,0,1-1.408-.375,2.43,2.43,0,0,1-.927-1.094,4.177,4.177,0,0,1-.326-1.733m1.524.556a1.616,1.616,0,0,0,.313,1.006.96.96,0,0,0,.794.411.916.916,0,0,0,.761-.333,1.487,1.487,0,0,0,.265-.949,1.3,1.3,0,0,0-.248-.842.9.9,0,0,0-.749-.309,1.149,1.149,0,0,0-.8.305.939.939,0,0,0-.333.712" transform="translate(-9.535 -4.83)"/><path class="g" d="M11.7,13.7a2.122,2.122,0,0,0-1.3-.545v-.031a2.152,2.152,0,0,0,1.164-.65,1.682,1.682,0,0,0,.415-1.148,1.471,1.471,0,0,0-.659-1.278,3.087,3.087,0,0,0-1.794-.46,4.257,4.257,0,0,0-1.751.348.637.637,0,0,0-.252.934.647.647,0,0,0,.831.21,2.58,2.58,0,0,1,.329-.138,2.326,2.326,0,0,1,.733-.124q1.039,0,1.039.84a.769.769,0,0,1-.391.735,2.681,2.681,0,0,1-1.227.214l-.01,0a.616.616,0,0,0-.012,1.231,6.209,6.209,0,0,1,1.336.214.754.754,0,0,1,.419.729.948.948,0,0,1-.365.832,1.965,1.965,0,0,1-1.129.26,3.977,3.977,0,0,1-1.01-.134L7.914,15.7a.608.608,0,0,0-.784.583.622.622,0,0,0,.446.591,5.613,5.613,0,0,0,1.663.232,3.364,3.364,0,0,0,2.147-.589,1.987,1.987,0,0,0,.732-1.642A1.61,1.61,0,0,0,11.7,13.7" transform="translate(-3.662 -4.808)"/><path class="g" d="M42.763,9.586a.972.972,0,1,1-.972-.972.972.972,0,0,1,.972.972" transform="translate(-20.973 -4.307)"/><path class="h" d="M3.829.673a.8.8,0,0,1,1.2,0L7.671,3.649a.8.8,0,0,1-.6,1.331H1.781a.8.8,0,0,1-.6-1.331Z" transform="translate(16.553 12.998) rotate(90)"/></g></g><g transform="translate(472 742)"><rect class="a" width="24" height="24"/><g transform="translate(0.331 0.693)"><path class="i" d="M37.364,27.084a.729.729,0,0,1-.251-1.414c2.216-.812,3.539-1.977,3.539-3.116a2.522,2.522,0,0,0-1.065-1.785.729.729,0,1,1,.927-1.126,3.825,3.825,0,0,1,1.6,2.911,3.674,3.674,0,0,1-1.323,2.674,9.4,9.4,0,0,1-3.173,1.812A.728.728,0,0,1,37.364,27.084Z" transform="translate(-18.823 -9.889)"/><path class="i" d="M11.719,27.881a20.043,20.043,0,0,1-8-1.5C1.385,25.332.1,23.865.1,22.252a4.065,4.065,0,0,1,2.025-3.229.729.729,0,1,1,.84,1.193,2.819,2.819,0,0,0-1.406,2.037c0,.99,1.006,2.011,2.759,2.8a18.573,18.573,0,0,0,7.4,1.371,22.575,22.575,0,0,0,3.242-.229.729.729,0,1,1,.21,1.443A24.038,24.038,0,0,1,11.719,27.881Z" transform="translate(-0.051 -9.588)"/><path class="j" d="M30.069,13.335a5.15,5.15,0,0,1,.623-2.849,2.433,2.433,0,0,1,3.839.043,5,5,0,0,1,.65,2.806,5.073,5.073,0,0,1-.631,2.835,2.189,2.189,0,0,1-1.941.92,2.141,2.141,0,0,1-1.9-.95,5.031,5.031,0,0,1-.64-2.8m1.524,0a5.755,5.755,0,0,0,.233,1.94.807.807,0,0,0,.784.586.815.815,0,0,0,.782-.594,5.582,5.582,0,0,0,.241-1.932,5.57,5.57,0,0,0-.243-1.945.81.81,0,0,0-1.56,0,5.734,5.734,0,0,0-.235,1.945" transform="translate(-15.451 -4.797)"/><path class="j" d="M18.559,13.92a4.845,4.845,0,0,1,.915-3.229,3.429,3.429,0,0,1,2.742-1.059c.153,0,.293,0,.422.01a.611.611,0,0,1,.577.614h0a.608.608,0,0,1-.637.613c-.087-.005-.174-.008-.26-.008a3.078,3.078,0,0,0-1.3.237,1.61,1.61,0,0,0-.754.7,3.166,3.166,0,0,0-.3,1.315h.065a1.687,1.687,0,0,1,1.587-.882,1.988,1.988,0,0,1,1.557.628,2.5,2.5,0,0,1,.563,1.733,2.528,2.528,0,0,1-.668,1.85,2.478,2.478,0,0,1-1.853.682,2.6,2.6,0,0,1-1.408-.375,2.43,2.43,0,0,1-.927-1.094,4.177,4.177,0,0,1-.326-1.733m1.524.556a1.616,1.616,0,0,0,.313,1.006.96.96,0,0,0,.794.411.916.916,0,0,0,.761-.333,1.487,1.487,0,0,0,.265-.949,1.3,1.3,0,0,0-.248-.842.9.9,0,0,0-.749-.309,1.149,1.149,0,0,0-.8.305.939.939,0,0,0-.333.712" transform="translate(-9.535 -4.83)"/><path class="j" d="M11.7,13.7a2.122,2.122,0,0,0-1.3-.545v-.031a2.152,2.152,0,0,0,1.164-.65,1.682,1.682,0,0,0,.415-1.148,1.471,1.471,0,0,0-.659-1.278,3.087,3.087,0,0,0-1.794-.46,4.257,4.257,0,0,0-1.751.348.637.637,0,0,0-.252.934.647.647,0,0,0,.831.21,2.58,2.58,0,0,1,.329-.138,2.326,2.326,0,0,1,.733-.124q1.039,0,1.039.84a.769.769,0,0,1-.391.735,2.681,2.681,0,0,1-1.227.214l-.01,0a.616.616,0,0,0-.012,1.231,6.209,6.209,0,0,1,1.336.214.754.754,0,0,1,.419.729.948.948,0,0,1-.365.832,1.965,1.965,0,0,1-1.129.26,3.977,3.977,0,0,1-1.01-.134L7.914,15.7a.608.608,0,0,0-.784.583.622.622,0,0,0,.446.591,5.613,5.613,0,0,0,1.663.232,3.364,3.364,0,0,0,2.147-.589,1.987,1.987,0,0,0,.732-1.642A1.61,1.61,0,0,0,11.7,13.7" transform="translate(-3.662 -4.808)"/><path class="j" d="M42.763,9.586a.972.972,0,1,1-.972-.972.972.972,0,0,1,.972.972" transform="translate(-20.973 -4.307)"/><path class="k" d="M3.829.673a.8.8,0,0,1,1.2,0L7.671,3.649a.8.8,0,0,1-.6,1.331H1.781a.8.8,0,0,1-.6-1.331Z" transform="translate(16.553 12.998) rotate(90)"/></g></g></g></svg>