<svg xmlns="http://www.w3.org/2000/svg" width="95.996" height="24.002" viewBox="0 0 95.996 24.002"><defs><style>.a,.c{fill:#55616d;}.a,.d,.f{stroke:rgba(0,0,0,0);stroke-miterlimit:10;}.b{fill:none;}.d,.e{fill:#818c98;}.f,.g{fill:#438dec;}.h{opacity:0.3;}</style></defs><g transform="translate(-183.997 -525.999)"><g transform="translate(181.5 523.503)"><path class="a" d="M18489.992,10889.543h-.047a1.451,1.451,0,0,1-1.449-1.449v-10.148a1.45,1.45,0,0,1,1.449-1.448h10.148a1.45,1.45,0,0,1,1.449,1.448v.052h-8.6a2.952,2.952,0,0,0-2.949,2.949v8.6Z" transform="translate(-18483.521 -10870.521)"/><path class="a" d="M18496.518,10889.545h-6.576a1.453,1.453,0,0,1-1.449-1.453v-10.147a1.451,1.451,0,0,1,1.449-1.449h10.152a1.451,1.451,0,0,1,1.449,1.449v5.339l-1.611-1.043a2.214,2.214,0,0,0-3.414,1.857v5.446Z" transform="translate(-18480.521 -10867.521)"/><rect class="b" width="24" height="24" transform="translate(2.497 2.497)"/><path class="c" d="M18.06,9.785l4.578,2.96a.711.711,0,0,1,0,1.194L18.06,16.9a.711.711,0,0,1-1.1-.6V10.383a.711.711,0,0,1,1.1-.6" transform="translate(0.531 6.195)"/></g><g transform="translate(205.5 523.504)"><rect class="b" width="24" height="24" transform="translate(2.497 2.497)"/><path class="d" d="M18489.992,10889.543h-.047a1.451,1.451,0,0,1-1.449-1.449v-10.148a1.45,1.45,0,0,1,1.449-1.448h10.148a1.45,1.45,0,0,1,1.449,1.448v.052h-8.6a2.952,2.952,0,0,0-2.949,2.949v8.6Z" transform="translate(-18483.521 -10870.521)"/><path class="d" d="M18496.518,10889.545h-6.576a1.453,1.453,0,0,1-1.449-1.453v-10.147a1.451,1.451,0,0,1,1.449-1.449h10.152a1.451,1.451,0,0,1,1.449,1.449v5.339l-1.611-1.043a2.214,2.214,0,0,0-3.414,1.857v5.446Z" transform="translate(-18480.521 -10867.521)"/><path class="e" d="M18.06,9.785l4.578,2.96a.711.711,0,0,1,0,1.194L18.06,16.9a.711.711,0,0,1-1.1-.6V10.383a.711.711,0,0,1,1.1-.6" transform="translate(0.531 6.194)"/></g><g transform="translate(229.5 523.504)"><rect class="b" width="24" height="24" transform="translate(2.497 2.497)"/><path class="f" d="M18489.992,10889.543h-.047a1.451,1.451,0,0,1-1.449-1.449v-10.148a1.45,1.45,0,0,1,1.449-1.448h10.148a1.45,1.45,0,0,1,1.449,1.448v.052h-8.6a2.952,2.952,0,0,0-2.949,2.949v8.6Z" transform="translate(-18483.521 -10870.521)"/><path class="f" d="M18496.518,10889.545h-6.576a1.453,1.453,0,0,1-1.449-1.453v-10.147a1.451,1.451,0,0,1,1.449-1.449h10.152a1.451,1.451,0,0,1,1.449,1.449v5.339l-1.611-1.043a2.214,2.214,0,0,0-3.414,1.857v5.446Z" transform="translate(-18480.521 -10867.521)"/><path class="g" d="M18.06,9.785l4.578,2.96a.711.711,0,0,1,0,1.194L18.06,16.9a.711.711,0,0,1-1.1-.6V10.383a.711.711,0,0,1,1.1-.6" transform="translate(0.531 6.194)"/></g><g class="h" transform="translate(253.496 523.502)"><rect class="b" width="24" height="24" transform="translate(2.497 2.497)"/><path class="a" d="M18489.992,10889.543h-.047a1.451,1.451,0,0,1-1.449-1.449v-10.148a1.45,1.45,0,0,1,1.449-1.448h10.148a1.45,1.45,0,0,1,1.449,1.448v.052h-8.6a2.952,2.952,0,0,0-2.949,2.949v8.6Z" transform="translate(-18483.518 -10870.52)"/><path class="a" d="M18496.518,10889.545h-6.576a1.453,1.453,0,0,1-1.449-1.453v-10.147a1.451,1.451,0,0,1,1.449-1.449h10.152a1.451,1.451,0,0,1,1.449,1.449v5.339l-1.611-1.043a2.214,2.214,0,0,0-3.414,1.857v5.446Z" transform="translate(-18480.518 -10867.52)"/><path class="c" d="M18.06,9.785l4.578,2.96a.711.711,0,0,1,0,1.194L18.06,16.9a.711.711,0,0,1-1.1-.6V10.383a.711.711,0,0,1,1.1-.6" transform="translate(0.535 6.196)"/></g></g></svg>