<svg xmlns="http://www.w3.org/2000/svg" width="80" height="20" viewBox="0 0 80 20"><defs><style>.a{fill:#55616d;}.b{fill:none;}.c{opacity:0.3;}.d{fill:#818c98;}.e{fill:#438dec;}</style></defs><g transform="translate(-864 -1799)"><g transform="translate(883.617 1801.633)"><path class="a" d="M9.685,0,2.468.256a.741.741,0,0,0-.5,1.264L4.044,3.593A12.31,12.31,0,0,0,.2,15.025a.573.573,0,0,0,1.112.066C2.081,12.609,3.822,8.809,7.548,7.1L9.7,9.248a.741.741,0,0,0,1.264-.5l.254-7.217A1.481,1.481,0,0,0,9.685,0" transform="translate(-15.127 0.619)"/><rect class="b" width="20" height="20" transform="translate(-19.618 -2.632)"/></g><g class="c" transform="translate(943.617 1801.633)"><path class="a" d="M9.685,0,2.468.256a.741.741,0,0,0-.5,1.264L4.044,3.593A12.31,12.31,0,0,0,.2,15.025a.573.573,0,0,0,1.112.066C2.081,12.609,3.822,8.809,7.548,7.1L9.7,9.248a.741.741,0,0,0,1.264-.5l.254-7.217A1.481,1.481,0,0,0,9.685,0" transform="translate(-15.127 0.619)"/><rect class="b" width="20" height="20" transform="translate(-19.618 -2.632)"/></g><g transform="translate(903.617 1801.633)"><path class="d" d="M9.685,0,2.468.256a.741.741,0,0,0-.5,1.264L4.044,3.593A12.31,12.31,0,0,0,.2,15.025a.573.573,0,0,0,1.112.066C2.081,12.609,3.822,8.809,7.548,7.1L9.7,9.248a.741.741,0,0,0,1.264-.5l.254-7.217A1.481,1.481,0,0,0,9.685,0" transform="translate(-15.127 0.619)"/><rect class="b" width="20" height="20" transform="translate(-19.618 -2.632)"/></g><g transform="translate(923.617 1801.633)"><path class="e" d="M9.685,0,2.468.256a.741.741,0,0,0-.5,1.264L4.044,3.593A12.31,12.31,0,0,0,.2,15.025a.573.573,0,0,0,1.112.066C2.081,12.609,3.822,8.809,7.548,7.1L9.7,9.248a.741.741,0,0,0,1.264-.5l.254-7.217A1.481,1.481,0,0,0,9.685,0" transform="translate(-15.127 0.619)"/><rect class="b" width="20" height="20" transform="translate(-19.618 -2.632)"/></g></g></svg>