<?xml version="1.0" encoding="utf-8"?>
<!-- Generator: Adobe Illustrator 21.0.0, SVG Export Plug-In . SVG Version: 6.00 Build 0)  -->
<svg version="1.1" id="图层_1" xmlns="http://www.w3.org/2000/svg" xmlns:xlink="http://www.w3.org/1999/xlink" x="0px" y="0px"
	 viewBox="0 0 32 32" style="enable-background:new 0 0 32 32;" xml:space="preserve">
<style type="text/css">
	.st0{fill-rule:evenodd;clip-rule:evenodd;fill:#336ED3;}
	.st1{fill:none;}
</style>
<g>
	<g>
		<path class="st0" d="M9.8,7.2c-0.4-0.4-1.1-0.4-1.5,0l-2,2c-0.4,0.4-0.4,1.1,0,1.5l2,2c0.4,0.4,1.1,0.4,1.5,0
			c0.4-0.4,0.4-1.1,0-1.5L8.5,10l1.2-1.2C10.2,8.3,10.2,7.7,9.8,7.2z M17.2,16.2L16,17.5l-1.2-1.2c-0.4-0.4-1.1-0.4-1.5,0
			c-0.4,0.4-0.4,1.1,0,1.5l2,2c0.4,0.4,1.1,0.4,1.5,0l2-2c0.4-0.4,0.4-1.1,0-1.5C18.3,15.8,17.6,15.8,17.2,16.2z M14.7,3.8L16,2.5
			l1.2,1.2c0.4,0.4,1.1,0.4,1.5,0c0.4-0.4,0.4-1.1,0-1.5l-2-2c-0.4-0.4-1.1-0.4-1.5,0l-2,2c-0.4,0.4-0.4,1.1,0,1.5
			C13.7,4.2,14.3,4.2,14.7,3.8z M16,6c-2.2,0-4,1.8-4,4c0,2.2,1.8,4,4,4c2.2,0,4-1.8,4-4C20,7.8,18.2,6,16,6z M16,12
			c-1.1,0-2-0.9-2-2c0-1.1,0.9-2,2-2c1.1,0,2,0.9,2,2C18,11.1,17.1,12,16,12z M25.7,9.2l-2-2c-0.4-0.4-1.1-0.4-1.5,0
			c-0.4,0.4-0.4,1.1,0,1.5l1.2,1.2l-1.2,1.2c-0.4,0.4-0.4,1.1,0,1.5s1.1,0.4,1.5,0l2-2C26.1,10.3,26.1,9.6,25.7,9.2z"/>
	</g>
</g>
<rect x="10" y="29" class="st0" width="12" height="2"/>
<rect class="st1" width="32" height="32"/>
</svg>
