<svg xmlns="http://www.w3.org/2000/svg" xmlns:xlink="http://www.w3.org/1999/xlink" width="760" height="304" viewBox="0 0 760 304"><defs><style>.a{fill:#fff;}.b,.g,.j{fill:none;}.c{fill:#d1d6dc;}.d,.h{fill:#55616d;}.e,.k{fill:#fafbfc;}.f{clip-path:url(#a);}.g,.h{stroke:#55616d;}.g,.j{stroke-linecap:round;stroke-width:2.4px;}.i{fill:#438dec;}.j,.k{stroke:#fafbfc;}</style><clipPath id="a"><rect class="a" width="24" height="24" transform="translate(0.344 0.344)"/></clipPath></defs><g transform="translate(-180 -833)"><g transform="translate(-56 2)"><rect class="b" width="152" height="152" transform="translate(236 831)"/><circle class="c" cx="72" cy="72" r="72" transform="translate(240 835)"/><g transform="translate(246 841)"><path class="d" d="M66,132a65.657,65.657,0,0,1-24.338-4.634l7.66-18.487a46.18,46.18,0,0,0,33.353,0l7.66,18.489A65.66,65.66,0,0,1,66,132"/><path class="d" d="M92.183,126.6h0l-7.661-18.489a45.976,45.976,0,0,0,23.588-23.58l18.49,7.657A66.236,66.236,0,0,1,92.184,126.6Z"/><path class="d" d="M39.813,126.6h0A66.245,66.245,0,0,1,5.4,92.186l18.489-7.654a45.946,45.946,0,0,0,23.584,23.58L39.814,126.6Z"/><path class="d" d="M4.633,90.343h0a66.265,66.265,0,0,1-.006-48.672l18.488,7.656a46.178,46.178,0,0,0,0,33.36L4.63,90.344Z"/><path class="d" d="M127.367,90.343h0l-18.489-7.662a46.159,46.159,0,0,0,0-33.353l18.49-7.66a66.241,66.241,0,0,1,0,48.674Z"/><path class="d" d="M108.116,47.479A45.968,45.968,0,0,0,84.525,23.885L92.187,5.4a66.237,66.237,0,0,1,34.418,34.421l-18.488,7.658Z"/><path class="d" d="M23.883,47.472h0L5.4,39.815A66.242,66.242,0,0,1,39.814,5.4l7.655,18.486A45.982,45.982,0,0,0,23.881,47.473Z"/><path class="d" d="M82.676,23.118h0a46.206,46.206,0,0,0-33.359,0L41.662,4.633a66.238,66.238,0,0,1,48.673,0L82.677,23.118Z"/></g><circle class="e" cx="20" cy="20" r="20" transform="translate(292 887)"/><g transform="translate(410 773) rotate(90)"><rect class="b" width="20" height="20" transform="translate(68 88)"/><path class="e" d="M4.186,1.139a1,1,0,0,1,1.627,0l3.057,4.28A1,1,0,0,1,8.057,7H1.943a1,1,0,0,1-.814-1.581Z" transform="translate(73 103) rotate(-90)"/></g><g transform="translate(322 953) rotate(90)"><rect class="b" width="20" height="20"/><path class="e" d="M4.186,1.139a1,1,0,0,1,1.627,0l3.057,4.28A1,1,0,0,1,8.057,7H1.943a1,1,0,0,1-.814-1.581Z" transform="translate(15 5) rotate(90)"/></g><g class="f" transform="translate(299.656 894.656)"><path class="g" d="M13.417.314A9.7,9.7,0,1,1,0,9.278,9.781,9.781,0,0,1,7.03,0" transform="translate(2.26 21.201) rotate(-85)"/><path class="h" d="M2.565.912a.6.6,0,0,1,1.042,0L5.659,4.5a.6.6,0,0,1-.521.9h-4.1a.6.6,0,0,1-.521-.9Z" transform="matrix(0.914, -0.407, 0.407, 0.914, 0.243, 4.854)"/></g><rect class="b" width="24" height="24" transform="translate(300 895)"/><g transform="translate(446 1005) rotate(180)"><rect class="b" width="20" height="20" transform="translate(68 88)"/><path class="e" d="M4.186,1.139a1,1,0,0,1,1.627,0l3.057,4.28A1,1,0,0,1,8.057,7H1.943a1,1,0,0,1-.814-1.581Z" transform="translate(73 103) rotate(-90)"/></g><g transform="translate(266 917) rotate(180)"><rect class="b" width="20" height="20"/><path class="e" d="M4.186,1.139a1,1,0,0,1,1.627,0l3.057,4.28A1,1,0,0,1,8.057,7H1.943a1,1,0,0,1-.814-1.581Z" transform="translate(15 5) rotate(90)"/></g></g><g transform="translate(248 2)"><rect class="b" width="152" height="152" transform="translate(236 831)"/><circle class="c" cx="72" cy="72" r="72" transform="translate(240 835)"/><g transform="translate(246 841)"><path class="d" d="M66,132a65.657,65.657,0,0,1-24.338-4.634l7.66-18.487a46.18,46.18,0,0,0,33.353,0l7.66,18.489A65.66,65.66,0,0,1,66,132"/><path class="d" d="M92.183,126.6h0l-7.661-18.489a45.976,45.976,0,0,0,23.588-23.58l18.49,7.657A66.236,66.236,0,0,1,92.184,126.6Z"/><path class="d" d="M39.813,126.6h0A66.245,66.245,0,0,1,5.4,92.186l18.489-7.654a45.946,45.946,0,0,0,23.584,23.58L39.814,126.6Z"/><path class="d" d="M4.633,90.343h0a66.265,66.265,0,0,1-.006-48.672l18.488,7.656a46.178,46.178,0,0,0,0,33.36L4.63,90.344Z"/><path class="d" d="M127.367,90.343h0l-18.489-7.662a46.159,46.159,0,0,0,0-33.353l18.49-7.66a66.241,66.241,0,0,1,0,48.674Z"/><path class="d" d="M108.116,47.479A45.968,45.968,0,0,0,84.525,23.885L92.187,5.4a66.237,66.237,0,0,1,34.418,34.421l-18.488,7.658Z"/><path class="d" d="M23.883,47.472h0L5.4,39.815A66.242,66.242,0,0,1,39.814,5.4l7.655,18.486A45.982,45.982,0,0,0,23.881,47.473Z"/><path class="d" d="M82.676,23.118h0a46.206,46.206,0,0,0-33.359,0L41.662,4.633a66.238,66.238,0,0,1,48.673,0L82.677,23.118Z"/></g><circle class="e" cx="20" cy="20" r="20" transform="translate(292 887)"/><g transform="translate(410 773) rotate(90)"><rect class="b" width="20" height="20" transform="translate(68 88)"/><path class="e" d="M4.186,1.139a1,1,0,0,1,1.627,0l3.057,4.28A1,1,0,0,1,8.057,7H1.943a1,1,0,0,1-.814-1.581Z" transform="translate(73 103) rotate(-90)"/></g><g transform="translate(322 953) rotate(90)"><rect class="b" width="20" height="20"/><path class="e" d="M4.186,1.139a1,1,0,0,1,1.627,0l3.057,4.28A1,1,0,0,1,8.057,7H1.943a1,1,0,0,1-.814-1.581Z" transform="translate(15 5) rotate(90)"/></g><g class="f" transform="translate(299.656 894.656)"><path class="g" d="M13.417.314A9.7,9.7,0,1,1,0,9.278,9.781,9.781,0,0,1,7.03,0" transform="translate(2.26 21.201) rotate(-85)"/><path class="h" d="M2.565.912a.6.6,0,0,1,1.042,0L5.659,4.5a.6.6,0,0,1-.521.9h-4.1a.6.6,0,0,1-.521-.9Z" transform="matrix(0.914, -0.407, 0.407, 0.914, 0.243, 4.854)"/></g><rect class="b" width="24" height="24" transform="translate(300 895)"/><g transform="translate(446 1005) rotate(180)"><rect class="b" width="20" height="20" transform="translate(68 88)"/><path class="e" d="M4.186,1.139a1,1,0,0,1,1.627,0l3.057,4.28A1,1,0,0,1,8.057,7H1.943a1,1,0,0,1-.814-1.581Z" transform="translate(73 103) rotate(-90)"/></g><g transform="translate(266 917) rotate(180)"><rect class="b" width="20" height="20"/><path class="e" d="M4.186,1.139a1,1,0,0,1,1.627,0l3.057,4.28A1,1,0,0,1,8.057,7H1.943a1,1,0,0,1-.814-1.581Z" transform="translate(15 5) rotate(90)"/></g></g><g transform="translate(552 2)"><rect class="b" width="152" height="152" transform="translate(236 831)"/><circle class="c" cx="72" cy="72" r="72" transform="translate(240 835)"/><g transform="translate(246 841)"><path class="d" d="M66,132a65.657,65.657,0,0,1-24.338-4.634l7.66-18.487a46.18,46.18,0,0,0,33.353,0l7.66,18.489A65.66,65.66,0,0,1,66,132"/><path class="d" d="M92.183,126.6h0l-7.661-18.489a45.976,45.976,0,0,0,23.588-23.58l18.49,7.657A66.236,66.236,0,0,1,92.184,126.6Z"/><path class="d" d="M39.813,126.6h0A66.245,66.245,0,0,1,5.4,92.186l18.489-7.654a45.946,45.946,0,0,0,23.584,23.58L39.814,126.6Z"/><path class="d" d="M4.633,90.343h0a66.265,66.265,0,0,1-.006-48.672l18.488,7.656a46.178,46.178,0,0,0,0,33.36L4.63,90.344Z"/><path class="d" d="M127.367,90.343h0l-18.489-7.662a46.159,46.159,0,0,0,0-33.353l18.49-7.66a66.241,66.241,0,0,1,0,48.674Z"/><path class="d" d="M108.116,47.479A45.968,45.968,0,0,0,84.525,23.885L92.187,5.4a66.237,66.237,0,0,1,34.418,34.421l-18.488,7.658Z"/><path class="d" d="M23.883,47.472h0L5.4,39.815A66.242,66.242,0,0,1,39.814,5.4l7.655,18.486A45.982,45.982,0,0,0,23.881,47.473Z"/><path class="d" d="M82.676,23.118h0a46.206,46.206,0,0,0-33.359,0L41.662,4.633a66.238,66.238,0,0,1,48.673,0L82.677,23.118Z"/></g><circle class="e" cx="20" cy="20" r="20" transform="translate(292 887)"/><g transform="translate(410 773) rotate(90)"><rect class="b" width="20" height="20" transform="translate(68 88)"/><path class="e" d="M4.186,1.139a1,1,0,0,1,1.627,0l3.057,4.28A1,1,0,0,1,8.057,7H1.943a1,1,0,0,1-.814-1.581Z" transform="translate(73 103) rotate(-90)"/></g><g transform="translate(322 953) rotate(90)"><rect class="b" width="20" height="20"/><path class="e" d="M4.186,1.139a1,1,0,0,1,1.627,0l3.057,4.28A1,1,0,0,1,8.057,7H1.943a1,1,0,0,1-.814-1.581Z" transform="translate(15 5) rotate(90)"/></g><g class="f" transform="translate(299.656 894.656)"><path class="g" d="M13.417.314A9.7,9.7,0,1,1,0,9.278,9.781,9.781,0,0,1,7.03,0" transform="translate(2.26 21.201) rotate(-85)"/><path class="h" d="M2.565.912a.6.6,0,0,1,1.042,0L5.659,4.5a.6.6,0,0,1-.521.9h-4.1a.6.6,0,0,1-.521-.9Z" transform="matrix(0.914, -0.407, 0.407, 0.914, 0.243, 4.854)"/></g><rect class="b" width="24" height="24" transform="translate(300 895)"/><g transform="translate(446 1005) rotate(180)"><rect class="b" width="20" height="20" transform="translate(68 88)"/><path class="e" d="M4.186,1.139a1,1,0,0,1,1.627,0l3.057,4.28A1,1,0,0,1,8.057,7H1.943a1,1,0,0,1-.814-1.581Z" transform="translate(73 103) rotate(-90)"/></g><g transform="translate(266 917) rotate(180)"><rect class="b" width="20" height="20"/><path class="e" d="M4.186,1.139a1,1,0,0,1,1.627,0l3.057,4.28A1,1,0,0,1,8.057,7H1.943a1,1,0,0,1-.814-1.581Z" transform="translate(15 5) rotate(90)"/></g></g><g transform="translate(248 154)"><rect class="b" width="152" height="152" transform="translate(236 831)"/><circle class="c" cx="72" cy="72" r="72" transform="translate(240 835)"/><g transform="translate(246 841)"><path class="d" d="M66,132a65.657,65.657,0,0,1-24.338-4.634l7.66-18.487a46.18,46.18,0,0,0,33.353,0l7.66,18.489A65.66,65.66,0,0,1,66,132"/><path class="d" d="M92.183,126.6h0l-7.661-18.489a45.976,45.976,0,0,0,23.588-23.58l18.49,7.657A66.236,66.236,0,0,1,92.184,126.6Z"/><path class="d" d="M39.813,126.6h0A66.245,66.245,0,0,1,5.4,92.186l18.489-7.654a45.946,45.946,0,0,0,23.584,23.58L39.814,126.6Z"/><path class="d" d="M4.633,90.343h0a66.265,66.265,0,0,1-.006-48.672l18.488,7.656a46.178,46.178,0,0,0,0,33.36L4.63,90.344Z"/><path class="d" d="M127.367,90.343h0l-18.489-7.662a46.159,46.159,0,0,0,0-33.353l18.49-7.66a66.241,66.241,0,0,1,0,48.674Z"/><path class="d" d="M108.116,47.479A45.968,45.968,0,0,0,84.525,23.885L92.187,5.4a66.237,66.237,0,0,1,34.418,34.421l-18.488,7.658Z"/><path class="d" d="M23.883,47.472h0L5.4,39.815A66.242,66.242,0,0,1,39.814,5.4l7.655,18.486A45.982,45.982,0,0,0,23.881,47.473Z"/><path class="d" d="M82.676,23.118h0a46.206,46.206,0,0,0-33.359,0L41.662,4.633a66.238,66.238,0,0,1,48.673,0L82.677,23.118Z"/></g><circle class="e" cx="20" cy="20" r="20" transform="translate(292 887)"/><g transform="translate(410 773) rotate(90)"><rect class="b" width="20" height="20" transform="translate(68 88)"/><path class="e" d="M4.186,1.139a1,1,0,0,1,1.627,0l3.057,4.28A1,1,0,0,1,8.057,7H1.943a1,1,0,0,1-.814-1.581Z" transform="translate(73 103) rotate(-90)"/></g><g transform="translate(322 953) rotate(90)"><rect class="b" width="20" height="20"/><path class="e" d="M4.186,1.139a1,1,0,0,1,1.627,0l3.057,4.28A1,1,0,0,1,8.057,7H1.943a1,1,0,0,1-.814-1.581Z" transform="translate(15 5) rotate(90)"/></g><g class="f" transform="translate(299.656 894.656)"><path class="g" d="M13.417.314A9.7,9.7,0,1,1,0,9.278,9.781,9.781,0,0,1,7.03,0" transform="translate(2.26 21.201) rotate(-85)"/><path class="h" d="M2.565.912a.6.6,0,0,1,1.042,0L5.659,4.5a.6.6,0,0,1-.521.9h-4.1a.6.6,0,0,1-.521-.9Z" transform="matrix(0.914, -0.407, 0.407, 0.914, 0.243, 4.854)"/></g><rect class="b" width="24" height="24" transform="translate(300 895)"/><g transform="translate(446 1005) rotate(180)"><rect class="b" width="20" height="20" transform="translate(68 88)"/><path class="e" d="M4.186,1.139a1,1,0,0,1,1.627,0l3.057,4.28A1,1,0,0,1,8.057,7H1.943a1,1,0,0,1-.814-1.581Z" transform="translate(73 103) rotate(-90)"/></g><g transform="translate(266 917) rotate(180)"><rect class="b" width="20" height="20"/><path class="e" d="M4.186,1.139a1,1,0,0,1,1.627,0l3.057,4.28A1,1,0,0,1,8.057,7H1.943a1,1,0,0,1-.814-1.581Z" transform="translate(15 5) rotate(90)"/></g></g><g transform="translate(552 154)"><rect class="b" width="152" height="152" transform="translate(236 831)"/><circle class="c" cx="72" cy="72" r="72" transform="translate(240 835)"/><g transform="translate(246 841)"><path class="d" d="M66,132a65.657,65.657,0,0,1-24.338-4.634l7.66-18.487a46.18,46.18,0,0,0,33.353,0l7.66,18.489A65.66,65.66,0,0,1,66,132"/><path class="d" d="M92.183,126.6h0l-7.661-18.489a45.976,45.976,0,0,0,23.588-23.58l18.49,7.657A66.236,66.236,0,0,1,92.184,126.6Z"/><path class="d" d="M39.813,126.6h0A66.245,66.245,0,0,1,5.4,92.186l18.489-7.654a45.946,45.946,0,0,0,23.584,23.58L39.814,126.6Z"/><path class="d" d="M4.633,90.343h0a66.265,66.265,0,0,1-.006-48.672l18.488,7.656a46.178,46.178,0,0,0,0,33.36L4.63,90.344Z"/><path class="d" d="M127.367,90.343h0l-18.489-7.662a46.159,46.159,0,0,0,0-33.353l18.49-7.66a66.241,66.241,0,0,1,0,48.674Z"/><path class="d" d="M108.116,47.479A45.968,45.968,0,0,0,84.525,23.885L92.187,5.4a66.237,66.237,0,0,1,34.418,34.421l-18.488,7.658Z"/><path class="d" d="M23.883,47.472h0L5.4,39.815A66.242,66.242,0,0,1,39.814,5.4l7.655,18.486A45.982,45.982,0,0,0,23.881,47.473Z"/><path class="d" d="M82.676,23.118h0a46.206,46.206,0,0,0-33.359,0L41.662,4.633a66.238,66.238,0,0,1,48.673,0L82.677,23.118Z"/></g><circle class="e" cx="20" cy="20" r="20" transform="translate(292 887)"/><g transform="translate(410 773) rotate(90)"><rect class="b" width="20" height="20" transform="translate(68 88)"/><path class="e" d="M4.186,1.139a1,1,0,0,1,1.627,0l3.057,4.28A1,1,0,0,1,8.057,7H1.943a1,1,0,0,1-.814-1.581Z" transform="translate(73 103) rotate(-90)"/></g><g transform="translate(322 953) rotate(90)"><rect class="b" width="20" height="20"/><path class="e" d="M4.186,1.139a1,1,0,0,1,1.627,0l3.057,4.28A1,1,0,0,1,8.057,7H1.943a1,1,0,0,1-.814-1.581Z" transform="translate(15 5) rotate(90)"/></g><g class="f" transform="translate(299.656 894.656)"><path class="g" d="M13.417.314A9.7,9.7,0,1,1,0,9.278,9.781,9.781,0,0,1,7.03,0" transform="translate(2.26 21.201) rotate(-85)"/><path class="h" d="M2.565.912a.6.6,0,0,1,1.042,0L5.659,4.5a.6.6,0,0,1-.521.9h-4.1a.6.6,0,0,1-.521-.9Z" transform="matrix(0.914, -0.407, 0.407, 0.914, 0.243, 4.854)"/></g><rect class="b" width="24" height="24" transform="translate(300 895)"/><g transform="translate(446 1005) rotate(180)"><rect class="b" width="20" height="20" transform="translate(68 88)"/><path class="e" d="M4.186,1.139a1,1,0,0,1,1.627,0l3.057,4.28A1,1,0,0,1,8.057,7H1.943a1,1,0,0,1-.814-1.581Z" transform="translate(73 103) rotate(-90)"/></g><g transform="translate(266 917) rotate(180)"><rect class="b" width="20" height="20"/><path class="e" d="M4.186,1.139a1,1,0,0,1,1.627,0l3.057,4.28A1,1,0,0,1,8.057,7H1.943a1,1,0,0,1-.814-1.581Z" transform="translate(15 5) rotate(90)"/></g></g><g transform="translate(400 154)"><rect class="b" width="152" height="152" transform="translate(236 831)"/><circle class="c" cx="72" cy="72" r="72" transform="translate(240 835)"/><g transform="translate(246 841)"><path class="d" d="M66,132a65.657,65.657,0,0,1-24.338-4.634l7.66-18.487a46.18,46.18,0,0,0,33.353,0l7.66,18.489A65.66,65.66,0,0,1,66,132"/><path class="d" d="M92.183,126.6h0l-7.661-18.489a45.976,45.976,0,0,0,23.588-23.58l18.49,7.657A66.236,66.236,0,0,1,92.184,126.6Z"/><path class="d" d="M39.813,126.6h0A66.245,66.245,0,0,1,5.4,92.186l18.489-7.654a45.946,45.946,0,0,0,23.584,23.58L39.814,126.6Z"/><path class="i" d="M4.633,90.343h0a66.265,66.265,0,0,1-.006-48.672l18.488,7.656a46.178,46.178,0,0,0,0,33.36L4.63,90.344Z"/><path class="d" d="M127.367,90.343h0l-18.489-7.662a46.159,46.159,0,0,0,0-33.353l18.49-7.66a66.241,66.241,0,0,1,0,48.674Z"/><path class="d" d="M108.116,47.479A45.968,45.968,0,0,0,84.525,23.885L92.187,5.4a66.237,66.237,0,0,1,34.418,34.421l-18.488,7.658Z"/><path class="d" d="M23.883,47.472h0L5.4,39.815A66.242,66.242,0,0,1,39.814,5.4l7.655,18.486A45.982,45.982,0,0,0,23.881,47.473Z"/><path class="d" d="M82.676,23.118h0a46.206,46.206,0,0,0-33.359,0L41.662,4.633a66.238,66.238,0,0,1,48.673,0L82.677,23.118Z"/></g><circle class="e" cx="20" cy="20" r="20" transform="translate(292 887)"/><g transform="translate(410 773) rotate(90)"><rect class="b" width="20" height="20" transform="translate(68 88)"/><path class="e" d="M4.186,1.139a1,1,0,0,1,1.627,0l3.057,4.28A1,1,0,0,1,8.057,7H1.943a1,1,0,0,1-.814-1.581Z" transform="translate(73 103) rotate(-90)"/></g><g transform="translate(322 953) rotate(90)"><rect class="b" width="20" height="20"/><path class="e" d="M4.186,1.139a1,1,0,0,1,1.627,0l3.057,4.28A1,1,0,0,1,8.057,7H1.943a1,1,0,0,1-.814-1.581Z" transform="translate(15 5) rotate(90)"/></g><g class="f" transform="translate(299.656 894.656)"><path class="g" d="M13.417.314A9.7,9.7,0,1,1,0,9.278,9.781,9.781,0,0,1,7.03,0" transform="translate(2.26 21.201) rotate(-85)"/><path class="h" d="M2.565.912a.6.6,0,0,1,1.042,0L5.659,4.5a.6.6,0,0,1-.521.9h-4.1a.6.6,0,0,1-.521-.9Z" transform="matrix(0.914, -0.407, 0.407, 0.914, 0.243, 4.854)"/></g><rect class="b" width="24" height="24" transform="translate(300 895)"/><g transform="translate(446 1005) rotate(180)"><rect class="b" width="20" height="20" transform="translate(68 88)"/><path class="e" d="M4.186,1.139a1,1,0,0,1,1.627,0l3.057,4.28A1,1,0,0,1,8.057,7H1.943a1,1,0,0,1-.814-1.581Z" transform="translate(73 103) rotate(-90)"/></g><g transform="translate(266 917) rotate(180)"><rect class="b" width="20" height="20"/><path class="e" d="M4.186,1.139a1,1,0,0,1,1.627,0l3.057,4.28A1,1,0,0,1,8.057,7H1.943a1,1,0,0,1-.814-1.581Z" transform="translate(15 5) rotate(90)"/></g></g><g transform="translate(400 2)"><rect class="b" width="152" height="152" transform="translate(236 831)"/><circle class="c" cx="72" cy="72" r="72" transform="translate(240 835)"/><g transform="translate(246 841)"><path class="d" d="M66,132a65.657,65.657,0,0,1-24.338-4.634l7.66-18.487a46.18,46.18,0,0,0,33.353,0l7.66,18.489A65.66,65.66,0,0,1,66,132"/><path class="d" d="M92.183,126.6h0l-7.661-18.489a45.976,45.976,0,0,0,23.588-23.58l18.49,7.657A66.236,66.236,0,0,1,92.184,126.6Z"/><path class="d" d="M39.813,126.6h0A66.245,66.245,0,0,1,5.4,92.186l18.489-7.654a45.946,45.946,0,0,0,23.584,23.58L39.814,126.6Z"/><path class="d" d="M4.633,90.343h0a66.265,66.265,0,0,1-.006-48.672l18.488,7.656a46.178,46.178,0,0,0,0,33.36L4.63,90.344Z"/><path class="i" d="M127.367,90.343h0l-18.489-7.662a46.159,46.159,0,0,0,0-33.353l18.49-7.66a66.241,66.241,0,0,1,0,48.674Z"/><path class="d" d="M108.116,47.479A45.968,45.968,0,0,0,84.525,23.885L92.187,5.4a66.237,66.237,0,0,1,34.418,34.421l-18.488,7.658Z"/><path class="d" d="M23.883,47.472h0L5.4,39.815A66.242,66.242,0,0,1,39.814,5.4l7.655,18.486A45.982,45.982,0,0,0,23.881,47.473Z"/><path class="d" d="M82.676,23.118h0a46.206,46.206,0,0,0-33.359,0L41.662,4.633a66.238,66.238,0,0,1,48.673,0L82.677,23.118Z"/></g><circle class="e" cx="20" cy="20" r="20" transform="translate(292 887)"/><g transform="translate(410 773) rotate(90)"><rect class="b" width="20" height="20" transform="translate(68 88)"/><path class="e" d="M4.186,1.139a1,1,0,0,1,1.627,0l3.057,4.28A1,1,0,0,1,8.057,7H1.943a1,1,0,0,1-.814-1.581Z" transform="translate(73 103) rotate(-90)"/></g><g transform="translate(322 953) rotate(90)"><rect class="b" width="20" height="20"/><path class="e" d="M4.186,1.139a1,1,0,0,1,1.627,0l3.057,4.28A1,1,0,0,1,8.057,7H1.943a1,1,0,0,1-.814-1.581Z" transform="translate(15 5) rotate(90)"/></g><g class="f" transform="translate(299.656 894.656)"><path class="g" d="M13.417.314A9.7,9.7,0,1,1,0,9.278,9.781,9.781,0,0,1,7.03,0" transform="translate(2.26 21.201) rotate(-85)"/><path class="h" d="M2.565.912a.6.6,0,0,1,1.042,0L5.659,4.5a.6.6,0,0,1-.521.9h-4.1a.6.6,0,0,1-.521-.9Z" transform="matrix(0.914, -0.407, 0.407, 0.914, 0.243, 4.854)"/></g><rect class="b" width="24" height="24" transform="translate(300 895)"/><g transform="translate(446 1005) rotate(180)"><rect class="b" width="20" height="20" transform="translate(68 88)"/><path class="e" d="M4.186,1.139a1,1,0,0,1,1.627,0l3.057,4.28A1,1,0,0,1,8.057,7H1.943a1,1,0,0,1-.814-1.581Z" transform="translate(73 103) rotate(-90)"/></g><g transform="translate(266 917) rotate(180)"><rect class="b" width="20" height="20"/><path class="e" d="M4.186,1.139a1,1,0,0,1,1.627,0l3.057,4.28A1,1,0,0,1,8.057,7H1.943a1,1,0,0,1-.814-1.581Z" transform="translate(15 5) rotate(90)"/></g></g><g transform="translate(96 154)"><rect class="b" width="152" height="152" transform="translate(236 831)"/><circle class="c" cx="72" cy="72" r="72" transform="translate(240 835)"/><g transform="translate(246 841)"><path class="i" d="M66,132a65.657,65.657,0,0,1-24.338-4.634l7.66-18.487a46.18,46.18,0,0,0,33.353,0l7.66,18.489A65.66,65.66,0,0,1,66,132"/><path class="d" d="M92.183,126.6h0l-7.661-18.489a45.976,45.976,0,0,0,23.588-23.58l18.49,7.657A66.236,66.236,0,0,1,92.184,126.6Z"/><path class="d" d="M39.813,126.6h0A66.245,66.245,0,0,1,5.4,92.186l18.489-7.654a45.946,45.946,0,0,0,23.584,23.58L39.814,126.6Z"/><path class="d" d="M4.633,90.343h0a66.265,66.265,0,0,1-.006-48.672l18.488,7.656a46.178,46.178,0,0,0,0,33.36L4.63,90.344Z"/><path class="d" d="M127.367,90.343h0l-18.489-7.662a46.159,46.159,0,0,0,0-33.353l18.49-7.66a66.241,66.241,0,0,1,0,48.674Z"/><path class="d" d="M108.116,47.479A45.968,45.968,0,0,0,84.525,23.885L92.187,5.4a66.237,66.237,0,0,1,34.418,34.421l-18.488,7.658Z"/><path class="d" d="M23.883,47.472h0L5.4,39.815A66.242,66.242,0,0,1,39.814,5.4l7.655,18.486A45.982,45.982,0,0,0,23.881,47.473Z"/><path class="d" d="M82.676,23.118h0a46.206,46.206,0,0,0-33.359,0L41.662,4.633a66.238,66.238,0,0,1,48.673,0L82.677,23.118Z"/></g><circle class="e" cx="20" cy="20" r="20" transform="translate(292 887)"/><g transform="translate(410 773) rotate(90)"><rect class="b" width="20" height="20" transform="translate(68 88)"/><path class="e" d="M4.186,1.139a1,1,0,0,1,1.627,0l3.057,4.28A1,1,0,0,1,8.057,7H1.943a1,1,0,0,1-.814-1.581Z" transform="translate(73 103) rotate(-90)"/></g><g transform="translate(322 953) rotate(90)"><rect class="b" width="20" height="20"/><path class="e" d="M4.186,1.139a1,1,0,0,1,1.627,0l3.057,4.28A1,1,0,0,1,8.057,7H1.943a1,1,0,0,1-.814-1.581Z" transform="translate(15 5) rotate(90)"/></g><g class="f" transform="translate(299.656 894.656)"><path class="g" d="M13.417.314A9.7,9.7,0,1,1,0,9.278,9.781,9.781,0,0,1,7.03,0" transform="translate(2.26 21.201) rotate(-85)"/><path class="h" d="M2.565.912a.6.6,0,0,1,1.042,0L5.659,4.5a.6.6,0,0,1-.521.9h-4.1a.6.6,0,0,1-.521-.9Z" transform="matrix(0.914, -0.407, 0.407, 0.914, 0.243, 4.854)"/></g><rect class="b" width="24" height="24" transform="translate(300 895)"/><g transform="translate(446 1005) rotate(180)"><rect class="b" width="20" height="20" transform="translate(68 88)"/><path class="e" d="M4.186,1.139a1,1,0,0,1,1.627,0l3.057,4.28A1,1,0,0,1,8.057,7H1.943a1,1,0,0,1-.814-1.581Z" transform="translate(73 103) rotate(-90)"/></g><g transform="translate(266 917) rotate(180)"><rect class="b" width="20" height="20"/><path class="e" d="M4.186,1.139a1,1,0,0,1,1.627,0l3.057,4.28A1,1,0,0,1,8.057,7H1.943a1,1,0,0,1-.814-1.581Z" transform="translate(15 5) rotate(90)"/></g></g><g transform="translate(96 2)"><rect class="b" width="152" height="152" transform="translate(236 831)"/><circle class="c" cx="72" cy="72" r="72" transform="translate(240 835)"/><g transform="translate(246 841)"><path class="d" d="M66,132a65.657,65.657,0,0,1-24.338-4.634l7.66-18.487a46.18,46.18,0,0,0,33.353,0l7.66,18.489A65.66,65.66,0,0,1,66,132"/><path class="d" d="M92.183,126.6h0l-7.661-18.489a45.976,45.976,0,0,0,23.588-23.58l18.49,7.657A66.236,66.236,0,0,1,92.184,126.6Z"/><path class="d" d="M39.813,126.6h0A66.245,66.245,0,0,1,5.4,92.186l18.489-7.654a45.946,45.946,0,0,0,23.584,23.58L39.814,126.6Z"/><path class="d" d="M4.633,90.343h0a66.265,66.265,0,0,1-.006-48.672l18.488,7.656a46.178,46.178,0,0,0,0,33.36L4.63,90.344Z"/><path class="d" d="M127.367,90.343h0l-18.489-7.662a46.159,46.159,0,0,0,0-33.353l18.49-7.66a66.241,66.241,0,0,1,0,48.674Z"/><path class="d" d="M108.116,47.479A45.968,45.968,0,0,0,84.525,23.885L92.187,5.4a66.237,66.237,0,0,1,34.418,34.421l-18.488,7.658Z"/><path class="d" d="M23.883,47.472h0L5.4,39.815A66.242,66.242,0,0,1,39.814,5.4l7.655,18.486A45.982,45.982,0,0,0,23.881,47.473Z"/><path class="i" d="M82.676,23.118h0a46.206,46.206,0,0,0-33.359,0L41.662,4.633a66.238,66.238,0,0,1,48.673,0L82.677,23.118Z"/></g><circle class="e" cx="20" cy="20" r="20" transform="translate(292 887)"/><g transform="translate(410 773) rotate(90)"><rect class="b" width="20" height="20" transform="translate(68 88)"/><path class="e" d="M4.186,1.139a1,1,0,0,1,1.627,0l3.057,4.28A1,1,0,0,1,8.057,7H1.943a1,1,0,0,1-.814-1.581Z" transform="translate(73 103) rotate(-90)"/></g><g transform="translate(322 953) rotate(90)"><rect class="b" width="20" height="20"/><path class="e" d="M4.186,1.139a1,1,0,0,1,1.627,0l3.057,4.28A1,1,0,0,1,8.057,7H1.943a1,1,0,0,1-.814-1.581Z" transform="translate(15 5) rotate(90)"/></g><g class="f" transform="translate(299.656 894.656)"><path class="g" d="M13.417.314A9.7,9.7,0,1,1,0,9.278,9.781,9.781,0,0,1,7.03,0" transform="translate(2.26 21.201) rotate(-85)"/><path class="h" d="M2.565.912a.6.6,0,0,1,1.042,0L5.659,4.5a.6.6,0,0,1-.521.9h-4.1a.6.6,0,0,1-.521-.9Z" transform="matrix(0.914, -0.407, 0.407, 0.914, 0.243, 4.854)"/></g><rect class="b" width="24" height="24" transform="translate(300 895)"/><g transform="translate(446 1005) rotate(180)"><rect class="b" width="20" height="20" transform="translate(68 88)"/><path class="e" d="M4.186,1.139a1,1,0,0,1,1.627,0l3.057,4.28A1,1,0,0,1,8.057,7H1.943a1,1,0,0,1-.814-1.581Z" transform="translate(73 103) rotate(-90)"/></g><g transform="translate(266 917) rotate(180)"><rect class="b" width="20" height="20"/><path class="e" d="M4.186,1.139a1,1,0,0,1,1.627,0l3.057,4.28A1,1,0,0,1,8.057,7H1.943a1,1,0,0,1-.814-1.581Z" transform="translate(15 5) rotate(90)"/></g></g><g transform="translate(-56 154)"><rect class="b" width="152" height="152" transform="translate(236 831)"/><circle class="c" cx="72" cy="72" r="72" transform="translate(240 835)"/><g transform="translate(246 841)"><path class="d" d="M66,132a65.657,65.657,0,0,1-24.338-4.634l7.66-18.487a46.18,46.18,0,0,0,33.353,0l7.66,18.489A65.66,65.66,0,0,1,66,132"/><path class="d" d="M92.183,126.6h0l-7.661-18.489a45.976,45.976,0,0,0,23.588-23.58l18.49,7.657A66.236,66.236,0,0,1,92.184,126.6Z"/><path class="d" d="M39.813,126.6h0A66.245,66.245,0,0,1,5.4,92.186l18.489-7.654a45.946,45.946,0,0,0,23.584,23.58L39.814,126.6Z"/><path class="d" d="M4.633,90.343h0a66.265,66.265,0,0,1-.006-48.672l18.488,7.656a46.178,46.178,0,0,0,0,33.36L4.63,90.344Z"/><path class="d" d="M127.367,90.343h0l-18.489-7.662a46.159,46.159,0,0,0,0-33.353l18.49-7.66a66.241,66.241,0,0,1,0,48.674Z"/><path class="d" d="M108.116,47.479A45.968,45.968,0,0,0,84.525,23.885L92.187,5.4a66.237,66.237,0,0,1,34.418,34.421l-18.488,7.658Z"/><path class="d" d="M23.883,47.472h0L5.4,39.815A66.242,66.242,0,0,1,39.814,5.4l7.655,18.486A45.982,45.982,0,0,0,23.881,47.473Z"/><path class="d" d="M82.676,23.118h0a46.206,46.206,0,0,0-33.359,0L41.662,4.633a66.238,66.238,0,0,1,48.673,0L82.677,23.118Z"/></g><circle class="i" cx="20" cy="20" r="20" transform="translate(292 887)"/><g transform="translate(410 773) rotate(90)"><rect class="b" width="20" height="20" transform="translate(68 88)"/><path class="e" d="M4.186,1.139a1,1,0,0,1,1.627,0l3.057,4.28A1,1,0,0,1,8.057,7H1.943a1,1,0,0,1-.814-1.581Z" transform="translate(73 103) rotate(-90)"/></g><g transform="translate(322 953) rotate(90)"><rect class="b" width="20" height="20"/><path class="e" d="M4.186,1.139a1,1,0,0,1,1.627,0l3.057,4.28A1,1,0,0,1,8.057,7H1.943a1,1,0,0,1-.814-1.581Z" transform="translate(15 5) rotate(90)"/></g><g class="f" transform="translate(299.656 894.656)"><path class="j" d="M13.417.314A9.7,9.7,0,1,1,0,9.278,9.781,9.781,0,0,1,7.03,0" transform="translate(2.26 21.201) rotate(-85)"/><path class="k" d="M2.565.912a.6.6,0,0,1,1.042,0L5.659,4.5a.6.6,0,0,1-.521.9h-4.1a.6.6,0,0,1-.521-.9Z" transform="matrix(0.914, -0.407, 0.407, 0.914, 0.243, 4.854)"/></g><rect class="b" width="24" height="24" transform="translate(300 895)"/><g transform="translate(446 1005) rotate(180)"><rect class="b" width="20" height="20" transform="translate(68 88)"/><path class="e" d="M4.186,1.139a1,1,0,0,1,1.627,0l3.057,4.28A1,1,0,0,1,8.057,7H1.943a1,1,0,0,1-.814-1.581Z" transform="translate(73 103) rotate(-90)"/></g><g transform="translate(266 917) rotate(180)"><rect class="b" width="20" height="20"/><path class="e" d="M4.186,1.139a1,1,0,0,1,1.627,0l3.057,4.28A1,1,0,0,1,8.057,7H1.943a1,1,0,0,1-.814-1.581Z" transform="translate(15 5) rotate(90)"/></g></g></g></svg>