<svg xmlns="http://www.w3.org/2000/svg" width="96" height="24" viewBox="0 0 96 24"><defs><style>.a{fill:#55616d;}.b{fill:none;}.c{fill:#438dec;}.d{fill:#818c98;}.e{opacity:0.3;}</style></defs><g transform="translate(-664 -686)"><g transform="translate(660.213 682.213)"><g transform="translate(8.665 6.346)"><path class="a" d="M16.593,8V7.143A1.144,1.144,0,0,0,15.45,6H14.307a1.144,1.144,0,0,0-1.143,1.143V8H9.026A1.135,1.135,0,0,0,7.894,9.144v1.143H21.866V9.144A1.145,1.145,0,0,0,20.721,8Z" transform="translate(-7.888 -6)"/><path class="a" d="M7.778,11.25v10a2.286,2.286,0,0,0,2.286,2.286h9.408a2.286,2.286,0,0,0,2.286-2.286v-10Zm7.8,10H13.928V13.536h1.646Zm-5.51-7.717h1.578v7.717H10.064Zm9.408,7.717H17.86V13.536h1.612Z" transform="translate(-7.778 -5.248)"/></g><rect class="b" width="24" height="24" transform="translate(3.787 3.787)"/></g><g transform="translate(708.213 682.213)"><g transform="translate(8.665 6.346)"><path class="c" d="M16.593,8V7.143A1.144,1.144,0,0,0,15.45,6H14.307a1.144,1.144,0,0,0-1.143,1.143V8H9.026A1.135,1.135,0,0,0,7.894,9.144v1.143H21.866V9.144A1.145,1.145,0,0,0,20.721,8Z" transform="translate(-7.888 -6)"/><path class="c" d="M7.778,11.25v10a2.286,2.286,0,0,0,2.286,2.286h9.408a2.286,2.286,0,0,0,2.286-2.286v-10Zm7.8,10H13.928V13.536h1.646Zm-5.51-7.717h1.578v7.717H10.064Zm9.408,7.717H17.86V13.536h1.612Z" transform="translate(-7.778 -5.248)"/></g><rect class="b" width="24" height="24" transform="translate(3.787 3.787)"/></g><g transform="translate(684.213 682.213)"><g transform="translate(8.665 6.346)"><path class="d" d="M16.593,8V7.143A1.144,1.144,0,0,0,15.45,6H14.307a1.144,1.144,0,0,0-1.143,1.143V8H9.026A1.135,1.135,0,0,0,7.894,9.144v1.143H21.866V9.144A1.145,1.145,0,0,0,20.721,8Z" transform="translate(-7.888 -6)"/><path class="d" d="M7.778,11.25v10a2.286,2.286,0,0,0,2.286,2.286h9.408a2.286,2.286,0,0,0,2.286-2.286v-10Zm7.8,10H13.928V13.536h1.646Zm-5.51-7.717h1.578v7.717H10.064Zm9.408,7.717H17.86V13.536h1.612Z" transform="translate(-7.778 -5.248)"/></g><rect class="b" width="24" height="24" transform="translate(3.787 3.787)"/></g><g class="e" transform="translate(732.213 682.213)"><g transform="translate(8.665 6.346)"><path class="a" d="M16.593,8V7.143A1.144,1.144,0,0,0,15.45,6H14.307a1.144,1.144,0,0,0-1.143,1.143V8H9.026A1.135,1.135,0,0,0,7.894,9.144v1.143H21.866V9.144A1.145,1.145,0,0,0,20.721,8Z" transform="translate(-7.888 -6)"/><path class="a" d="M7.778,11.25v10a2.286,2.286,0,0,0,2.286,2.286h9.408a2.286,2.286,0,0,0,2.286-2.286v-10Zm7.8,10H13.928V13.536h1.646Zm-5.51-7.717h1.578v7.717H10.064Zm9.408,7.717H17.86V13.536h1.612Z" transform="translate(-7.778 -5.248)"/></g><rect class="b" width="24" height="24" transform="translate(3.787 3.787)"/></g></g></svg>