<svg xmlns="http://www.w3.org/2000/svg" width="95.996" height="24.002" viewBox="0 0 95.996 24.002"><defs><style>.a{fill:#55616d;}.b{fill:none;}.c{fill:#818c98;}.d{fill:#438dec;}.e{opacity:0.3;}</style></defs><g transform="translate(-183.997 -525.999)"><g transform="translate(181.5 523.503)"><path class="a" d="M12.45,11H22.6a1.449,1.449,0,0,1,1.45,1.45V22.6a1.449,1.449,0,0,1-1.45,1.45H12.45A1.449,1.449,0,0,1,11,22.6V12.45A1.449,1.449,0,0,1,12.45,11" transform="translate(-3.027 -3.027)"/><rect class="b" width="24" height="24" transform="translate(2.497 2.497)"/></g><g transform="translate(205.5 523.504)"><path class="c" d="M12.45,11H22.6a1.449,1.449,0,0,1,1.45,1.45V22.6a1.449,1.449,0,0,1-1.45,1.45H12.45A1.449,1.449,0,0,1,11,22.6V12.45A1.449,1.449,0,0,1,12.45,11" transform="translate(-3.027 -3.027)"/><rect class="b" width="24" height="24" transform="translate(2.497 2.497)"/></g><g transform="translate(229.5 523.504)"><path class="d" d="M12.45,11H22.6a1.449,1.449,0,0,1,1.45,1.45V22.6a1.449,1.449,0,0,1-1.45,1.45H12.45A1.449,1.449,0,0,1,11,22.6V12.45A1.449,1.449,0,0,1,12.45,11" transform="translate(-3.027 -3.027)"/><rect class="b" width="24" height="24" transform="translate(2.497 2.497)"/></g><g class="e" transform="translate(253.496 523.502)"><path class="a" d="M12.45,11H22.6a1.449,1.449,0,0,1,1.45,1.45V22.6a1.449,1.449,0,0,1-1.45,1.45H12.45A1.449,1.449,0,0,1,11,22.6V12.45A1.449,1.449,0,0,1,12.45,11" transform="translate(-3.027 -3.027)"/><rect class="b" width="24" height="24" transform="translate(2.497 2.497)"/></g></g></svg>