<svg xmlns="http://www.w3.org/2000/svg" width="96" height="24.592" viewBox="0 0 96 24.592"><defs><style>.a,.c{fill:#7090b2;}.a,.f,.i{stroke:rgba(0,0,0,0);stroke-miterlimit:10;}.b{fill:none;}.d{fill:#6f555f;}.e{opacity:0.35;}.f,.g{fill:#438dec;}.h{fill:#fe4848;}.i,.j{fill:#904a53;}.k{fill:#6194c5;}</style></defs><g transform="translate(-424 -525.408)"><g transform="translate(423.998 525.998)"><path class="a" d="M18133.006,11056.251H18132v-1.994h2v1A1,1,0,0,1,18133.006,11056.251Zm.615-2.595H18132v-1.206h1.621a.406.406,0,0,1,.4.4v.405A.406.406,0,0,1,18133.621,11053.656Zm-.236-1.743H18132v-13.087a5.8,5.8,0,0,1,3.547,10.392c-.207.229-.373.423-.506.592a3.311,3.311,0,0,0-.658,1.225A1,1,0,0,1,18133.385,11051.913Zm-1.379-14.931H18132V11034h.006a.752.752,0,0,1,.75.751v1.479A.752.752,0,0,1,18132.006,11036.982Z" transform="translate(-18120 -11034)"/><rect class="b" width="24" height="24" transform="translate(0.002 0.002)"/><path class="c" d="M120.75,10.98a.75.75,0,0,0,.75-.75V8.75a.75.75,0,1,0-1.5,0v1.48a.75.75,0,0,0,.75.75" transform="translate(30.592 -110.158) rotate(90)"/><path class="d" d="M120.75,10.98a.75.75,0,0,0,.75-.75V8.75a.75.75,0,1,0-1.5,0v1.48a.75.75,0,0,0,.75.75" transform="translate(12.392 -110.158) rotate(90)"/><path class="c" d="M120.75,10.98a.75.75,0,0,0,.75-.75V8.75a.75.75,0,1,0-1.5,0v1.48a.75.75,0,0,0,.75.75" transform="translate(-60.237 -87.936) rotate(45)"/><path class="d" d="M120.75,10.98a.75.75,0,0,0,.75-.75V8.75a.75.75,0,1,0-1.5,0v1.48a.75.75,0,0,0,.75.75" transform="translate(-73.106 -75.067) rotate(45)"/><path class="c" d="M120.75,10.98a.75.75,0,0,0,.75-.75V8.75a.75.75,0,1,0-1.5,0v1.48a.75.75,0,0,0,.75.75" transform="translate(110.53 -61.646) rotate(135)"/><path class="d" d="M120.75,10.98a.75.75,0,0,0,.75-.75V8.75a.75.75,0,1,0-1.5,0v1.48a.75.75,0,0,0,.75.75" transform="translate(97.661 -74.516) rotate(135)"/><path class="d" d="M18131.8,11056.255h-1a1,1,0,0,1-1.006-1v-1h2v2Zm0-2.6h-1.584a.4.4,0,0,1-.4-.4v-.4a.4.4,0,0,1,.4-.4h1.584v1.2Zm0-1.738h-1.424a.971.971,0,0,1-1-.884,3.173,3.173,0,0,0-.643-1.211c-.18-.221-.4-.473-.619-.71a5.8,5.8,0,0,1,3.678-10.282l0,13.086Zm0-14.936h0a.75.75,0,0,1-.748-.746v-1.484a.75.75,0,0,1,.75-.746v2.976Z" transform="translate(-18119.801 -11034)"/></g><g class="e" transform="translate(495.998 525.998)"><path class="a" d="M18133.006,11056.251H18132v-1.994h2v1A1,1,0,0,1,18133.006,11056.251Zm.615-2.595H18132v-1.206h1.621a.406.406,0,0,1,.4.4v.405A.406.406,0,0,1,18133.621,11053.656Zm-.236-1.743H18132v-13.087a5.8,5.8,0,0,1,3.547,10.392c-.207.229-.373.423-.506.592a3.311,3.311,0,0,0-.658,1.225A1,1,0,0,1,18133.385,11051.913Zm-1.379-14.931H18132V11034h.006a.752.752,0,0,1,.75.751v1.479A.752.752,0,0,1,18132.006,11036.982Z" transform="translate(-18120 -11034)"/><rect class="b" width="24" height="24" transform="translate(0.002 0.002)"/><path class="c" d="M120.75,10.98a.75.75,0,0,0,.75-.75V8.75a.75.75,0,1,0-1.5,0v1.48a.75.75,0,0,0,.75.75" transform="translate(30.592 -110.158) rotate(90)"/><path class="d" d="M120.75,10.98a.75.75,0,0,0,.75-.75V8.75a.75.75,0,1,0-1.5,0v1.48a.75.75,0,0,0,.75.75" transform="translate(12.392 -110.158) rotate(90)"/><path class="c" d="M120.75,10.98a.75.75,0,0,0,.75-.75V8.75a.75.75,0,1,0-1.5,0v1.48a.75.75,0,0,0,.75.75" transform="translate(-60.237 -87.936) rotate(45)"/><path class="d" d="M120.75,10.98a.75.75,0,0,0,.75-.75V8.75a.75.75,0,1,0-1.5,0v1.48a.75.75,0,0,0,.75.75" transform="translate(-73.106 -75.067) rotate(45)"/><path class="c" d="M120.75,10.98a.75.75,0,0,0,.75-.75V8.75a.75.75,0,1,0-1.5,0v1.48a.75.75,0,0,0,.75.75" transform="translate(110.53 -61.646) rotate(135)"/><path class="d" d="M120.75,10.98a.75.75,0,0,0,.75-.75V8.75a.75.75,0,1,0-1.5,0v1.48a.75.75,0,0,0,.75.75" transform="translate(97.661 -74.516) rotate(135)"/><path class="d" d="M18131.8,11056.255h-1a1,1,0,0,1-1.006-1v-1h2v2Zm0-2.6h-1.584a.4.4,0,0,1-.4-.4v-.4a.4.4,0,0,1,.4-.4h1.584v1.2Zm0-1.738h-1.424a.971.971,0,0,1-1-.884,3.173,3.173,0,0,0-.643-1.211c-.18-.221-.4-.473-.619-.71a5.8,5.8,0,0,1,3.678-10.282l0,13.086Zm0-14.936h0a.75.75,0,0,1-.748-.746v-1.484a.75.75,0,0,1,.75-.746v2.976Z" transform="translate(-18119.801 -11034)"/></g><g transform="translate(471.998 525.998)"><path class="f" d="M18133.006,11056.251H18132v-1.994h2v1A1,1,0,0,1,18133.006,11056.251Zm.615-2.595H18132v-1.206h1.621a.406.406,0,0,1,.4.4v.405A.406.406,0,0,1,18133.621,11053.656Zm-.236-1.743H18132v-13.087a5.8,5.8,0,0,1,3.547,10.392c-.207.229-.373.423-.506.592a3.311,3.311,0,0,0-.658,1.225A1,1,0,0,1,18133.385,11051.913Zm-1.379-14.931H18132V11034h.006a.752.752,0,0,1,.75.751v1.479A.752.752,0,0,1,18132.006,11036.982Z" transform="translate(-18120 -11034)"/><rect class="b" width="24" height="24" transform="translate(0.002 0.002)"/><path class="g" d="M120.75,10.98a.75.75,0,0,0,.75-.75V8.75a.75.75,0,1,0-1.5,0v1.48a.75.75,0,0,0,.75.75" transform="translate(30.592 -110.158) rotate(90)"/><path class="h" d="M120.75,10.98a.75.75,0,0,0,.75-.75V8.75a.75.75,0,1,0-1.5,0v1.48a.75.75,0,0,0,.75.75" transform="translate(12.392 -110.158) rotate(90)"/><path class="g" d="M120.75,10.98a.75.75,0,0,0,.75-.75V8.75a.75.75,0,1,0-1.5,0v1.48a.75.75,0,0,0,.75.75" transform="translate(-60.237 -87.936) rotate(45)"/><path class="h" d="M120.75,10.98a.75.75,0,0,0,.75-.75V8.75a.75.75,0,1,0-1.5,0v1.48a.75.75,0,0,0,.75.75" transform="translate(-73.106 -75.067) rotate(45)"/><path class="g" d="M120.75,10.98a.75.75,0,0,0,.75-.75V8.75a.75.75,0,1,0-1.5,0v1.48a.75.75,0,0,0,.75.75" transform="translate(110.53 -61.646) rotate(135)"/><path class="h" d="M120.75,10.98a.75.75,0,0,0,.75-.75V8.75a.75.75,0,1,0-1.5,0v1.48a.75.75,0,0,0,.75.75" transform="translate(97.661 -74.516) rotate(135)"/><path class="h" d="M18131.8,11056.255h-1a1,1,0,0,1-1.006-1v-1h2v2Zm0-2.6h-1.584a.4.4,0,0,1-.4-.4v-.4a.4.4,0,0,1,.4-.4h1.584v1.2Zm0-1.738h-1.424a.971.971,0,0,1-1-.884,3.173,3.173,0,0,0-.643-1.211c-.18-.221-.4-.473-.619-.71a5.8,5.8,0,0,1,3.678-10.282l0,13.086Zm0-14.936h0a.75.75,0,0,1-.748-.746v-1.484a.75.75,0,0,1,.75-.746v2.976Z" transform="translate(-18119.801 -11034)"/></g><g transform="translate(448 525.998)"><path class="i" d="M0,22.25H0V19.269a.752.752,0,0,1,.752.751V21.5A.751.751,0,0,1,0,22.25Zm0-4.825H0V4.337H1.383a1,1,0,0,1,1,.883,3.245,3.245,0,0,0,.66,1.225c.145.184.319.387.5.589A5.762,5.762,0,0,1,5.8,11.625,5.807,5.807,0,0,1,0,17.425ZM1.62,3.8H0V2.6H1.62a.4.4,0,0,1,.4.4v.4A.4.4,0,0,1,1.62,3.8ZM2,2H0V0H1A1,1,0,0,1,2,1V2Z" transform="translate(12.002 22.251) rotate(180)"/><rect class="b" width="24" height="24" transform="translate(0 0.002)"/><path class="j" d="M.75,0A.75.75,0,0,1,1.5.75V2.23a.75.75,0,0,1-1.5,0V.75A.75.75,0,0,1,.75,0" transform="translate(4.39 9.842) rotate(90)"/><path class="k" d="M.75,0A.75.75,0,0,1,1.5.75V2.23a.75.75,0,0,1-1.5,0V.75A.75.75,0,0,1,.75,0" transform="translate(22.59 9.842) rotate(90)"/><path class="j" d="M.75,0A.75.75,0,0,1,1.5.75V2.23a.75.75,0,1,1-1.5,0V.75A.75.75,0,0,1,.75,0" transform="translate(7.149 4.68) rotate(135)"/><path class="k" d="M.75,0A.75.75,0,0,1,1.5.75V2.23a.75.75,0,1,1-1.5,0V.75A.75.75,0,0,1,.75,0" transform="translate(20.019 17.55) rotate(135)"/><path class="j" d="M.75,0A.75.75,0,0,1,1.5.75V2.23a.75.75,0,1,1-1.5,0V.75A.75.75,0,0,1,.75,0" transform="translate(6.089 15.443) rotate(45)"/><path class="k" d="M.75,0A.75.75,0,0,1,1.5.75V2.23a.75.75,0,1,1-1.5,0V.75A.75.75,0,0,1,.75,0" transform="translate(18.958 2.573) rotate(45)"/><path class="k" d="M5.8,22.253h0a.752.752,0,0,1-.747-.751v-1.48a.752.752,0,0,1,.748-.751v2.98Zm0-4.825h0A5.8,5.8,0,0,1,2.125,7.142c.272-.3.469-.524.619-.708a3.154,3.154,0,0,0,.639-1.211.972.972,0,0,1,1-.883H5.8V17.427ZM5.8,3.8H4.22a.4.4,0,0,1-.4-.4V3a.4.4,0,0,1,.4-.4H5.8V3.8ZM5.8,2h-2V1a1,1,0,0,1,1-1h1V2Z" transform="translate(17.802 22.255) rotate(180)"/></g></g></svg>