<svg xmlns="http://www.w3.org/2000/svg" width="96" height="24" viewBox="0 0 96 24"><defs><style>.a,.b,.d,.e,.g,.h,.j{fill:none;}.a,.b{stroke:#55616d;}.a,.b,.e,.g,.h,.j{stroke-linecap:round;stroke-miterlimit:10;}.a,.g,.j{stroke-width:1.778px;}.b,.e,.h{stroke-width:1.6px;}.c{fill:#55616d;}.e,.g{stroke:#818c98;}.f{fill:#818c98;}.h,.j{stroke:#3486ec;}.i{fill:#3486ec;}.k{opacity:0.3;}</style></defs><g transform="translate(-275 -655)"><g transform="translate(-942.924 246.076)"><g transform="translate(-0.352 -0.352)"><path class="a" d="M2.908,4.084A8.635,8.635,0,0,1,9.694.889a8.8,8.8,0,1,1-8.8,8.8" transform="translate(1220.582 411.582)"/><line class="b" y2="8.915" transform="translate(1230.218 416.323)"/><path class="c" d="M10.594,4.857h0Zm-.9-1.39a.5.5,0,0,0-.351.145L7.743,5.218a.5.5,0,0,0,.351.845H11.3a.5.5,0,0,0,.351-.845L10.05,3.612A.5.5,0,0,0,9.7,3.467" transform="translate(1220.519 411.558)"/><path class="c" d="M11.3,13.156H8.092a.5.5,0,0,0-.35.846l1.606,1.606a.5.5,0,0,0,.7,0L11.655,14a.5.5,0,0,0-.351-.846" transform="translate(1220.519 411.466)"/><line class="b" x2="8.915" transform="translate(1225.419 421.122)"/><path class="c" d="M6.559,8.892h0ZM5.661,7.5a.488.488,0,0,0-.347.146L3.709,9.252a.494.494,0,0,0,0,.7l1.606,1.606a.485.485,0,0,0,.347.147.5.5,0,0,0,.5-.5V8a.5.5,0,0,0-.5-.5" transform="translate(1220.557 411.52)"/><path class="c" d="M13.752,7.5a.5.5,0,0,0-.5.5v3.212a.5.5,0,0,0,.5.5.485.485,0,0,0,.347-.147L15.7,9.953a.494.494,0,0,0,0-.7L14.1,7.646a.488.488,0,0,0-.347-.146" transform="translate(1220.465 411.52)"/><path class="c" d="M10.779,11.252,7.918,8.39a.672.672,0,0,0-1.138.364L6.2,12.193a.672.672,0,0,0,.774.774l3.44-.578a.672.672,0,0,0,.364-1.138" transform="translate(1214.803 405.146)"/></g><rect class="d" width="24" height="24" transform="translate(1217.924 408.924)"/></g><g transform="translate(-918.924 246.076)"><line class="e" y2="8.915" transform="translate(1229.866 415.971)"/><path class="f" d="M10.594,4.857h0Zm-.9-1.39a.5.5,0,0,0-.351.145L7.743,5.218a.5.5,0,0,0,.351.845H11.3a.5.5,0,0,0,.351-.845L10.05,3.612A.5.5,0,0,0,9.7,3.467" transform="translate(1220.167 411.206)"/><path class="f" d="M11.3,13.156H8.092a.5.5,0,0,0-.35.846l1.606,1.606a.5.5,0,0,0,.7,0L11.655,14a.5.5,0,0,0-.351-.846" transform="translate(1220.167 411.114)"/><line class="e" x2="8.915" transform="translate(1225.066 420.77)"/><path class="f" d="M6.559,8.892h0ZM5.661,7.5a.488.488,0,0,0-.347.146L3.709,9.252a.494.494,0,0,0,0,.7l1.606,1.606a.485.485,0,0,0,.347.147.5.5,0,0,0,.5-.5V8a.5.5,0,0,0-.5-.5" transform="translate(1220.205 411.167)"/><path class="f" d="M13.752,7.5a.5.5,0,0,0-.5.5v3.212a.5.5,0,0,0,.5.5.485.485,0,0,0,.347-.147L15.7,9.953a.494.494,0,0,0,0-.7L14.1,7.646a.488.488,0,0,0-.347-.146" transform="translate(1220.113 411.167)"/><rect class="d" width="24" height="24" transform="translate(1217.924 408.924)"/><path class="g" d="M2.908,4.084A8.635,8.635,0,0,1,9.694.889a8.8,8.8,0,1,1-8.8,8.8" transform="translate(1220.23 411.229)"/><path class="f" d="M10.779,11.252,7.918,8.39a.672.672,0,0,0-1.138.364L6.2,12.193a.672.672,0,0,0,.774.774l3.44-.578a.672.672,0,0,0,.364-1.138" transform="translate(1214.451 404.793)"/></g><g transform="translate(-894.924 246.076)"><line class="h" y2="8.915" transform="translate(1229.866 415.971)"/><path class="i" d="M10.594,4.857h0Zm-.9-1.39a.5.5,0,0,0-.351.145L7.743,5.218a.5.5,0,0,0,.351.845H11.3a.5.5,0,0,0,.351-.845L10.05,3.612A.5.5,0,0,0,9.7,3.467" transform="translate(1220.167 411.206)"/><path class="i" d="M11.3,13.156H8.092a.5.5,0,0,0-.35.846l1.606,1.606a.5.5,0,0,0,.7,0L11.655,14a.5.5,0,0,0-.351-.846" transform="translate(1220.167 411.114)"/><line class="h" x2="8.915" transform="translate(1225.066 420.77)"/><path class="i" d="M6.559,8.892h0ZM5.661,7.5a.488.488,0,0,0-.347.146L3.709,9.252a.494.494,0,0,0,0,.7l1.606,1.606a.485.485,0,0,0,.347.147.5.5,0,0,0,.5-.5V8a.5.5,0,0,0-.5-.5" transform="translate(1220.205 411.167)"/><path class="i" d="M13.752,7.5a.5.5,0,0,0-.5.5v3.212a.5.5,0,0,0,.5.5.485.485,0,0,0,.347-.147L15.7,9.953a.494.494,0,0,0,0-.7L14.1,7.646a.488.488,0,0,0-.347-.146" transform="translate(1220.113 411.167)"/><rect class="d" width="24" height="24" transform="translate(1217.924 408.924)"/><path class="j" d="M2.908,4.084A8.635,8.635,0,0,1,9.694.889a8.8,8.8,0,1,1-8.8,8.8" transform="translate(1220.23 411.229)"/><path class="i" d="M10.779,11.252,7.918,8.39a.672.672,0,0,0-1.138.364L6.2,12.193a.672.672,0,0,0,.774.774l3.44-.578a.672.672,0,0,0,.364-1.138" transform="translate(1214.451 404.793)"/></g><g class="k" transform="translate(-870.924 246.076)"><line class="b" y2="8.915" transform="translate(1229.866 415.971)"/><path class="c" d="M10.594,4.857h0Zm-.9-1.39a.5.5,0,0,0-.351.145L7.743,5.218a.5.5,0,0,0,.351.845H11.3a.5.5,0,0,0,.351-.845L10.05,3.612A.5.5,0,0,0,9.7,3.467" transform="translate(1220.167 411.206)"/><path class="c" d="M11.3,13.156H8.092a.5.5,0,0,0-.35.846l1.606,1.606a.5.5,0,0,0,.7,0L11.655,14a.5.5,0,0,0-.351-.846" transform="translate(1220.167 411.114)"/><line class="b" x2="8.915" transform="translate(1225.066 420.77)"/><path class="c" d="M6.559,8.892h0ZM5.661,7.5a.488.488,0,0,0-.347.146L3.709,9.252a.494.494,0,0,0,0,.7l1.606,1.606a.485.485,0,0,0,.347.147.5.5,0,0,0,.5-.5V8a.5.5,0,0,0-.5-.5" transform="translate(1220.205 411.167)"/><path class="c" d="M13.752,7.5a.5.5,0,0,0-.5.5v3.212a.5.5,0,0,0,.5.5.485.485,0,0,0,.347-.147L15.7,9.953a.494.494,0,0,0,0-.7L14.1,7.646a.488.488,0,0,0-.347-.146" transform="translate(1220.113 411.167)"/><rect class="d" width="24" height="24" transform="translate(1217.924 408.924)"/><path class="a" d="M2.908,4.084A8.635,8.635,0,0,1,9.694.889a8.8,8.8,0,1,1-8.8,8.8" transform="translate(1220.23 411.229)"/><path class="c" d="M10.779,11.252,7.918,8.39a.672.672,0,0,0-1.138.364L6.2,12.193a.672.672,0,0,0,.774.774l3.44-.578a.672.672,0,0,0,.364-1.138" transform="translate(1214.451 404.793)"/></g></g></svg>