<?xml version="1.0" encoding="utf-8"?>
<!-- Generator: Adobe Illustrator 21.0.0, SVG Export Plug-In . SVG Version: 6.00 Build 0)  -->
<svg version="1.1" id="图层_1" xmlns="http://www.w3.org/2000/svg" xmlns:xlink="http://www.w3.org/1999/xlink" x="0px" y="0px"
	 viewBox="0 0 24 24" style="enable-background:new 0 0 24 24;" xml:space="preserve">
<style type="text/css">
	.st0{fill-rule:evenodd;clip-rule:evenodd;fill:#1F4E6A;}
	.st1{fill:none;}
</style>
<g>
	<path class="st0" d="M12,3c-1.1,0-2,0.9-2,2s0.9,2,2,2s2-0.9,2-2S13.1,3,12,3z M12,17c-1.1,0-2,0.9-2,2s0.9,2,2,2s2-0.9,2-2
		S13.1,17,12,17z M19,10c-1.1,0-2,0.9-2,2s0.9,2,2,2s2-0.9,2-2S20.1,10,19,10z M7,12c0-1.1-0.9-2-2-2s-2,0.9-2,2s0.9,2,2,2
		S7,13.1,7,12z M18.4,8.5c0.8-0.8,0.8-2,0-2.8c-0.8-0.8-2-0.8-2.8,0c-0.8,0.8-0.8,2,0,2.8C16.3,9.2,17.6,9.2,18.4,8.5z M5.6,15.5
		c-0.8,0.8-0.8,2,0,2.8c0.8,0.8,2,0.8,2.8,0c0.8-0.8,0.8-2,0-2.8C7.7,14.8,6.4,14.8,5.6,15.5z M15.5,15.5c-0.8,0.8-0.8,2,0,2.8
		c0.8,0.8,2,0.8,2.8,0c0.8-0.8,0.8-2,0-2.8C17.6,14.8,16.3,14.8,15.5,15.5z M5.6,5.6c-0.8,0.8-0.8,2,0,2.8c0.8,0.8,2,0.8,2.8,0
		c0.8-0.8,0.8-2,0-2.8C7.7,4.9,6.4,4.9,5.6,5.6z"/>
</g>
<rect class="st1" width="24" height="24"/>
</svg>
