<svg xmlns="http://www.w3.org/2000/svg" width="96" height="24.001" viewBox="0 0 96 24.001"><defs><style>.a,.b{fill:#55616d;}.b,.e,.g{stroke:rgba(0,0,0,0);stroke-miterlimit:10;}.c{fill:none;}.d,.e{fill:#818c98;}.f,.g{fill:#438dec;}.h{opacity:0.3;}</style></defs><g transform="translate(-424 -590)"><g transform="translate(422.322 588.322)"><path class="a" d="M7.7,9h3.493v3.493H7V9.7A.7.7,0,0,1,7.7,9" transform="translate(6.164 5.551)"/><path class="a" d="M21,9h3.493a.7.7,0,0,1,.7.7v2.794H21Z" transform="translate(-2.681 5.551)"/><path class="a" d="M7,21h4.191v3.493H7.7a.7.7,0,0,1-.7-.7Z" transform="translate(6.164 -2.03)"/><path class="a" d="M21,21h4.191v2.794a.7.7,0,0,1-.7.7H21Z" transform="translate(-2.681 -2.03)"/><path class="b" d="M6.96,16.232H1.622A1.624,1.624,0,0,1,0,14.61V1.622A1.635,1.635,0,0,1,1.622,0h11.2a1.609,1.609,0,0,1,1.148.475l2.3,2.295a1.635,1.635,0,0,1,.475,1.148V8.347H8.459a1.5,1.5,0,0,0-1.5,1.5v6.383ZM3.547,2.432h0V5.675a.812.812,0,0,0,.811.811h7.506a.811.811,0,0,0,.81-.811V2.432a.811.811,0,0,0-.81-.81h-7.5a.811.811,0,0,0-.81.81Zm8.321,3.243H9.435l0-3.243h2.432V5.674Z" transform="translate(4.846 4.894)"/><rect class="c" width="24" height="24" transform="translate(1.678 1.678)"/></g><g transform="translate(446.322 588.322)"><path class="d" d="M7.7,9h3.493v3.493H7V9.7A.7.7,0,0,1,7.7,9" transform="translate(6.164 5.551)"/><path class="d" d="M21,9h3.493a.7.7,0,0,1,.7.7v2.794H21Z" transform="translate(-2.681 5.551)"/><path class="d" d="M7,21h4.191v3.493H7.7a.7.7,0,0,1-.7-.7Z" transform="translate(6.164 -2.03)"/><path class="d" d="M21,21h4.191v2.794a.7.7,0,0,1-.7.7H21Z" transform="translate(-2.681 -2.03)"/><path class="e" d="M6.96,16.232H1.622A1.624,1.624,0,0,1,0,14.61V1.622A1.635,1.635,0,0,1,1.622,0h11.2a1.609,1.609,0,0,1,1.148.475l2.3,2.295a1.635,1.635,0,0,1,.475,1.148V8.347H8.459a1.5,1.5,0,0,0-1.5,1.5v6.383ZM3.547,2.432h0V5.675a.812.812,0,0,0,.811.811h7.506a.811.811,0,0,0,.81-.811V2.432a.811.811,0,0,0-.81-.81h-7.5a.811.811,0,0,0-.81.81Zm8.321,3.243H9.435l0-3.243h2.432V5.674Z" transform="translate(4.846 4.894)"/><rect class="c" width="24" height="24" transform="translate(1.678 1.678)"/></g><g transform="translate(470.322 588.323)"><path class="f" d="M7.7,9h3.493v3.493H7V9.7A.7.7,0,0,1,7.7,9" transform="translate(6.164 5.551)"/><path class="f" d="M21,9h3.493a.7.7,0,0,1,.7.7v2.794H21Z" transform="translate(-2.681 5.551)"/><path class="f" d="M7,21h4.191v3.493H7.7a.7.7,0,0,1-.7-.7Z" transform="translate(6.164 -2.03)"/><path class="f" d="M21,21h4.191v2.794a.7.7,0,0,1-.7.7H21Z" transform="translate(-2.681 -2.03)"/><path class="g" d="M6.96,16.232H1.622A1.624,1.624,0,0,1,0,14.61V1.622A1.635,1.635,0,0,1,1.622,0h11.2a1.609,1.609,0,0,1,1.148.475l2.3,2.295a1.635,1.635,0,0,1,.475,1.148V8.347H8.459a1.5,1.5,0,0,0-1.5,1.5v6.383ZM3.547,2.432h0V5.675a.812.812,0,0,0,.811.811h7.506a.811.811,0,0,0,.81-.811V2.432a.811.811,0,0,0-.81-.81h-7.5a.811.811,0,0,0-.81.81Zm8.321,3.243H9.435l0-3.243h2.432V5.674Z" transform="translate(4.846 4.894)"/><rect class="c" width="24" height="24" transform="translate(1.678 1.678)"/></g><g class="h" transform="translate(494.322 588.323)"><path class="a" d="M7.7,9h3.493v3.493H7V9.7A.7.7,0,0,1,7.7,9" transform="translate(6.164 5.551)"/><path class="a" d="M21,9h3.493a.7.7,0,0,1,.7.7v2.794H21Z" transform="translate(-2.681 5.551)"/><path class="a" d="M7,21h4.191v3.493H7.7a.7.7,0,0,1-.7-.7Z" transform="translate(6.164 -2.03)"/><path class="a" d="M21,21h4.191v2.794a.7.7,0,0,1-.7.7H21Z" transform="translate(-2.681 -2.03)"/><path class="b" d="M6.96,16.232H1.622A1.624,1.624,0,0,1,0,14.61V1.622A1.635,1.635,0,0,1,1.622,0h11.2a1.609,1.609,0,0,1,1.148.475l2.3,2.295a1.635,1.635,0,0,1,.475,1.148V8.347H8.459a1.5,1.5,0,0,0-1.5,1.5v6.383ZM3.547,2.432h0V5.675a.812.812,0,0,0,.811.811h7.506a.811.811,0,0,0,.81-.811V2.432a.811.811,0,0,0-.81-.81h-7.5a.811.811,0,0,0-.81.81Zm8.321,3.243H9.435l0-3.243h2.432V5.674Z" transform="translate(4.846 4.894)"/><rect class="c" width="24" height="24" transform="translate(1.678 1.678)"/></g></g></svg>