<svg xmlns="http://www.w3.org/2000/svg" width="95.996" height="24.002" viewBox="0 0 95.996 24.002"><defs><style>.a{fill:none;}.b{fill:#fff;}.c{fill:#aed1ff;}.d{fill:#438dec;}.e{opacity:0.5;}.f{fill:#cecece;}</style></defs><g transform="translate(-183.997 -525.999)"><g transform="translate(181.5 523.503)"><rect class="a" width="24" height="24" transform="translate(2.497 2.497)"/><path class="b" d="M19.449,9.418a1.889,1.889,0,0,0,0-2.656l-5.215-5.25A2.168,2.168,0,0,0,12.84,1a1.743,1.743,0,0,0-1.293.546l-10,9.966A2.009,2.009,0,0,0,1,12.84a1.941,1.941,0,0,0,.546,1.328l2.715,2.75a1.871,1.871,0,0,0,1.322.547L19.5,17.5A.486.486,0,0,0,20,17c0-1.122-.431-1.414-1.553-1.414l-4.979-.038Zm-13.2.27,5.268,4.96-.906.906-4.87-.01-2.667-2.7Z" transform="translate(3.998 5.493)"/></g><g transform="translate(205.5 523.504)"><rect class="a" width="24" height="24" transform="translate(2.497 2.497)"/><path class="c" d="M19.449,9.418a1.889,1.889,0,0,0,0-2.656l-5.215-5.25A2.168,2.168,0,0,0,12.84,1a1.743,1.743,0,0,0-1.293.546l-10,9.966A2.009,2.009,0,0,0,1,12.84a1.941,1.941,0,0,0,.546,1.328l2.715,2.75a1.871,1.871,0,0,0,1.322.547L19.5,17.5A.486.486,0,0,0,20,17c0-1.122-.431-1.414-1.553-1.414l-4.979-.038Zm-13.2.27,5.268,4.96-.906.906-4.87-.01-2.667-2.7Z" transform="translate(3.998 5.492)"/></g><g transform="translate(229.5 523.504)"><rect class="a" width="24" height="24" transform="translate(2.497 2.497)"/><path class="d" d="M19.449,9.418a1.889,1.889,0,0,0,0-2.656l-5.215-5.25A2.168,2.168,0,0,0,12.84,1a1.743,1.743,0,0,0-1.293.546l-10,9.966A2.009,2.009,0,0,0,1,12.84a1.941,1.941,0,0,0,.546,1.328l2.715,2.75a1.871,1.871,0,0,0,1.322.547L19.5,17.5A.486.486,0,0,0,20,17c0-1.122-.431-1.414-1.553-1.414l-4.979-.038Zm-13.2.27,5.268,4.96-.906.906-4.87-.01-2.667-2.7Z" transform="translate(3.998 5.492)"/></g><g class="e" transform="translate(253.496 523.502)"><rect class="a" width="24" height="24" transform="translate(2.497 2.497)"/><path class="f" d="M19.449,9.418a1.889,1.889,0,0,0,0-2.656l-5.215-5.25A2.168,2.168,0,0,0,12.84,1a1.743,1.743,0,0,0-1.293.546l-10,9.966A2.009,2.009,0,0,0,1,12.84a1.941,1.941,0,0,0,.546,1.328l2.715,2.75a1.871,1.871,0,0,0,1.322.547L19.5,17.5A.486.486,0,0,0,20,17c0-1.122-.431-1.414-1.553-1.414l-4.979-.038Zm-13.2.27,5.268,4.96-.906.906-4.87-.01-2.667-2.7Z" transform="translate(4.002 5.494)"/></g></g></svg>