<svg xmlns="http://www.w3.org/2000/svg" width="96" height="24" viewBox="0 0 96 24"><defs><style>.a{fill:#55616d;}.a,.c,.d{stroke:rgba(0,0,0,0);stroke-miterlimit:10;}.b{fill:none;}.c{fill:#818c98;}.d{fill:#438dec;}.e{opacity:0.3;}</style></defs><g transform="translate(-784 -558.001)"><g transform="translate(781.811 555.812)"><path class="a" d="M18145.232,10987.807h-15.617a1.426,1.426,0,0,1-1.426-1.421v-12.778a1.424,1.424,0,0,1,1.426-1.417h15.617a1.42,1.42,0,0,1,1.42,1.417v12.778A1.422,1.422,0,0,1,18145.232,10987.807Zm-13.145-6.17-.848,1.02a3.856,3.856,0,0,0,1.248.8,3.983,3.983,0,0,0,1.453.277,3.139,3.139,0,0,0,1.467-.31,2.348,2.348,0,0,0,.93-.819,2.068,2.068,0,0,0,.322-1.111,2.043,2.043,0,0,0-.186-.92,1.866,1.866,0,0,0-.52-.646,2.947,2.947,0,0,0-.783-.451l-.971-.392-.027-.012-.027-.012c-.186-.079-.361-.153-.514-.231a1.423,1.423,0,0,1-.42-.292.6.6,0,0,1-.164-.433.667.667,0,0,1,.287-.573,1.3,1.3,0,0,1,.766-.205,2.11,2.11,0,0,1,.852.159,2.814,2.814,0,0,1,.729.451l.746-.92a2.98,2.98,0,0,0-1.057-.711,3.291,3.291,0,0,0-1.27-.25,3.011,3.011,0,0,0-1.32.282,2.326,2.326,0,0,0-.912.765,1.888,1.888,0,0,0-.328,1.093,1.838,1.838,0,0,0,.225.93,2.129,2.129,0,0,0,.568.646,3.352,3.352,0,0,0,.715.405l.984.428c.209.083.4.17.578.26a1.471,1.471,0,0,1,.4.3.652.652,0,0,1,.141.442.737.737,0,0,1-.3.624,1.433,1.433,0,0,1-.879.228,2.421,2.421,0,0,1-.984-.224A3.22,3.22,0,0,1,18132.088,10981.637Zm5.885-5.452h0v7.41h2.107a4.073,4.073,0,0,0,1.9-.415,2.857,2.857,0,0,0,1.238-1.243,4.389,4.389,0,0,0,.441-2.081,4.3,4.3,0,0,0-.445-2.059,2.813,2.813,0,0,0-1.258-1.211,4.47,4.47,0,0,0-1.959-.4Zm1.926,6.212h-.445v-5.019h.445a2.752,2.752,0,0,1,1.207.246,1.631,1.631,0,0,1,.773.788,3.207,3.207,0,0,1,.27,1.443,3.352,3.352,0,0,1-.27,1.467,1.688,1.688,0,0,1-.773.819A2.683,2.683,0,0,1,18139.9,10982.4Z" transform="translate(-18123.23 -10965.809)"/><rect class="b" width="24" height="24" transform="translate(2.189 2.189)"/></g><g transform="translate(805.811 555.812)"><path class="c" d="M18145.232,10987.807h-15.617a1.426,1.426,0,0,1-1.426-1.421v-12.778a1.424,1.424,0,0,1,1.426-1.417h15.617a1.42,1.42,0,0,1,1.42,1.417v12.778A1.422,1.422,0,0,1,18145.232,10987.807Zm-13.145-6.17-.848,1.02a3.856,3.856,0,0,0,1.248.8,3.983,3.983,0,0,0,1.453.277,3.139,3.139,0,0,0,1.467-.31,2.348,2.348,0,0,0,.93-.819,2.068,2.068,0,0,0,.322-1.111,2.043,2.043,0,0,0-.186-.92,1.866,1.866,0,0,0-.52-.646,2.947,2.947,0,0,0-.783-.451l-.971-.392-.027-.012-.027-.012c-.186-.079-.361-.153-.514-.231a1.423,1.423,0,0,1-.42-.292.6.6,0,0,1-.164-.433.667.667,0,0,1,.287-.573,1.3,1.3,0,0,1,.766-.205,2.11,2.11,0,0,1,.852.159,2.814,2.814,0,0,1,.729.451l.746-.92a2.98,2.98,0,0,0-1.057-.711,3.291,3.291,0,0,0-1.27-.25,3.011,3.011,0,0,0-1.32.282,2.326,2.326,0,0,0-.912.765,1.888,1.888,0,0,0-.328,1.093,1.838,1.838,0,0,0,.225.93,2.129,2.129,0,0,0,.568.646,3.352,3.352,0,0,0,.715.405l.984.428c.209.083.4.17.578.26a1.471,1.471,0,0,1,.4.3.652.652,0,0,1,.141.442.737.737,0,0,1-.3.624,1.433,1.433,0,0,1-.879.228,2.421,2.421,0,0,1-.984-.224A3.22,3.22,0,0,1,18132.088,10981.637Zm5.885-5.452h0v7.41h2.107a4.073,4.073,0,0,0,1.9-.415,2.857,2.857,0,0,0,1.238-1.243,4.389,4.389,0,0,0,.441-2.081,4.3,4.3,0,0,0-.445-2.059,2.813,2.813,0,0,0-1.258-1.211,4.47,4.47,0,0,0-1.959-.4Zm1.926,6.212h-.445v-5.019h.445a2.752,2.752,0,0,1,1.207.246,1.631,1.631,0,0,1,.773.788,3.207,3.207,0,0,1,.27,1.443,3.352,3.352,0,0,1-.27,1.467,1.688,1.688,0,0,1-.773.819A2.683,2.683,0,0,1,18139.9,10982.4Z" transform="translate(-18123.23 -10965.809)"/><rect class="b" width="24" height="24" transform="translate(2.189 2.189)"/></g><g transform="translate(829.811 555.812)"><path class="d" d="M18145.232,10987.807h-15.617a1.426,1.426,0,0,1-1.426-1.421v-12.778a1.424,1.424,0,0,1,1.426-1.417h15.617a1.42,1.42,0,0,1,1.42,1.417v12.778A1.422,1.422,0,0,1,18145.232,10987.807Zm-13.145-6.17-.848,1.02a3.856,3.856,0,0,0,1.248.8,3.983,3.983,0,0,0,1.453.277,3.139,3.139,0,0,0,1.467-.31,2.348,2.348,0,0,0,.93-.819,2.068,2.068,0,0,0,.322-1.111,2.043,2.043,0,0,0-.186-.92,1.866,1.866,0,0,0-.52-.646,2.947,2.947,0,0,0-.783-.451l-.971-.392-.027-.012-.027-.012c-.186-.079-.361-.153-.514-.231a1.423,1.423,0,0,1-.42-.292.6.6,0,0,1-.164-.433.667.667,0,0,1,.287-.573,1.3,1.3,0,0,1,.766-.205,2.11,2.11,0,0,1,.852.159,2.814,2.814,0,0,1,.729.451l.746-.92a2.98,2.98,0,0,0-1.057-.711,3.291,3.291,0,0,0-1.27-.25,3.011,3.011,0,0,0-1.32.282,2.326,2.326,0,0,0-.912.765,1.888,1.888,0,0,0-.328,1.093,1.838,1.838,0,0,0,.225.93,2.129,2.129,0,0,0,.568.646,3.352,3.352,0,0,0,.715.405l.984.428c.209.083.4.17.578.26a1.471,1.471,0,0,1,.4.3.652.652,0,0,1,.141.442.737.737,0,0,1-.3.624,1.433,1.433,0,0,1-.879.228,2.421,2.421,0,0,1-.984-.224A3.22,3.22,0,0,1,18132.088,10981.637Zm5.885-5.452h0v7.41h2.107a4.073,4.073,0,0,0,1.9-.415,2.857,2.857,0,0,0,1.238-1.243,4.389,4.389,0,0,0,.441-2.081,4.3,4.3,0,0,0-.445-2.059,2.813,2.813,0,0,0-1.258-1.211,4.47,4.47,0,0,0-1.959-.4Zm1.926,6.212h-.445v-5.019h.445a2.752,2.752,0,0,1,1.207.246,1.631,1.631,0,0,1,.773.788,3.207,3.207,0,0,1,.27,1.443,3.352,3.352,0,0,1-.27,1.467,1.688,1.688,0,0,1-.773.819A2.683,2.683,0,0,1,18139.9,10982.4Z" transform="translate(-18123.23 -10965.809)"/><rect class="b" width="24" height="24" transform="translate(2.189 2.189)"/></g><g class="e" transform="translate(853.811 555.812)"><path class="a" d="M18145.232,10987.807h-15.617a1.426,1.426,0,0,1-1.426-1.421v-12.778a1.424,1.424,0,0,1,1.426-1.417h15.617a1.42,1.42,0,0,1,1.42,1.417v12.778A1.422,1.422,0,0,1,18145.232,10987.807Zm-13.145-6.17-.848,1.02a3.856,3.856,0,0,0,1.248.8,3.983,3.983,0,0,0,1.453.277,3.139,3.139,0,0,0,1.467-.31,2.348,2.348,0,0,0,.93-.819,2.068,2.068,0,0,0,.322-1.111,2.043,2.043,0,0,0-.186-.92,1.866,1.866,0,0,0-.52-.646,2.947,2.947,0,0,0-.783-.451l-.971-.392-.027-.012-.027-.012c-.186-.079-.361-.153-.514-.231a1.423,1.423,0,0,1-.42-.292.6.6,0,0,1-.164-.433.667.667,0,0,1,.287-.573,1.3,1.3,0,0,1,.766-.205,2.11,2.11,0,0,1,.852.159,2.814,2.814,0,0,1,.729.451l.746-.92a2.98,2.98,0,0,0-1.057-.711,3.291,3.291,0,0,0-1.27-.25,3.011,3.011,0,0,0-1.32.282,2.326,2.326,0,0,0-.912.765,1.888,1.888,0,0,0-.328,1.093,1.838,1.838,0,0,0,.225.93,2.129,2.129,0,0,0,.568.646,3.352,3.352,0,0,0,.715.405l.984.428c.209.083.4.17.578.26a1.471,1.471,0,0,1,.4.3.652.652,0,0,1,.141.442.737.737,0,0,1-.3.624,1.433,1.433,0,0,1-.879.228,2.421,2.421,0,0,1-.984-.224A3.22,3.22,0,0,1,18132.088,10981.637Zm5.885-5.452h0v7.41h2.107a4.073,4.073,0,0,0,1.9-.415,2.857,2.857,0,0,0,1.238-1.243,4.389,4.389,0,0,0,.441-2.081,4.3,4.3,0,0,0-.445-2.059,2.813,2.813,0,0,0-1.258-1.211,4.47,4.47,0,0,0-1.959-.4Zm1.926,6.212h-.445v-5.019h.445a2.752,2.752,0,0,1,1.207.246,1.631,1.631,0,0,1,.773.788,3.207,3.207,0,0,1,.27,1.443,3.352,3.352,0,0,1-.27,1.467,1.688,1.688,0,0,1-.773.819A2.683,2.683,0,0,1,18139.9,10982.4Z" transform="translate(-18123.23 -10965.809)"/><rect class="b" width="24" height="24" transform="translate(2.189 2.189)"/></g></g></svg>