<svg xmlns="http://www.w3.org/2000/svg" width="24" height="24" viewBox="0 0 24 24"><defs><style>.a{fill:#55616d;}.b{fill:none;}</style></defs><g transform="translate(-2.139 -2.139)"><path class="a" d="M5.914,14.926h1.81v7.137H5.914a1.406,1.406,0,0,1-1.407-1.407V16.333a1.406,1.406,0,0,1,1.407-1.407" transform="translate(-1.264 -4.355)"/><path class="a" d="M11.431,12.45l5.83-4.079a1.407,1.407,0,0,1,2.213,1.153v13.9a1.407,1.407,0,0,1-2.213,1.153L11.431,20.5Z" transform="translate(-3.318 -2.335)"/><path class="a" d="M25.155,21.4h0V16.571a2.412,2.412,0,1,1,0,4.825" transform="translate(-7.39 -4.843)"/><path class="a" d="M27.691,22.59h0A.91.91,0,0,0,29,23.407a6.67,6.67,0,0,0,0-11.928.91.91,0,0,0-1.312.817.888.888,0,0,0,.493.8,4.826,4.826,0,0,1,0,8.689.89.89,0,0,0-.494.8" transform="translate(-8.142 -3.304)"/><rect class="b" width="24" height="24" transform="translate(2.139 2.139)"/></g></svg>