<svg xmlns="http://www.w3.org/2000/svg" xmlns:xlink="http://www.w3.org/1999/xlink" width="24" height="24" viewBox="0 0 24 24"><defs><style>.a{fill:none;}.b{clip-path:url(#a);}.c{fill:#55616d;}</style><clipPath id="a"><rect class="a" width="24" height="24" transform="translate(2.451 2.451)"/></clipPath></defs><g transform="translate(-2.306 -2.306)"><g class="b" transform="translate(-0.145 -0.145)"><path class="c" d="M9.3,14.926H11.14v7.256H9.3a1.43,1.43,0,0,1-1.43-1.43v-4.4a1.43,1.43,0,0,1,1.43-1.43" transform="translate(-2.092 -4.103)"/><path class="c" d="M24.692,25.122,8.964,9.393A1.267,1.267,0,0,1,10.755,7.6L26.484,23.33a1.267,1.267,0,0,1-1.791,1.791" transform="translate(-2.724 -1.911)"/><path class="c" d="M15.779,13.315,14.794,14v8.18l5.927,4.149a1.43,1.43,0,0,0,2.25-1.171V20.507Z" transform="translate(-4.065 -3.644)"/><path class="c" d="M24.2,15.442V9.548a1.43,1.43,0,0,0-2.25-1.172l-2.834,1.982Z" transform="translate(-5.298 -2.163)"/><path class="c" d="M29.9,20.917a2.442,2.442,0,0,0-1.54-4.346v2.806Z" transform="translate(-7.931 -4.572)"/></g></g></svg>