<svg xmlns="http://www.w3.org/2000/svg" width="95.996" height="24.002" viewBox="0 0 95.996 24.002"><defs><style>.a,.c{fill:#55616d;}.a,.d,.f{stroke:rgba(0,0,0,0);stroke-miterlimit:10;}.b{fill:none;}.d,.e{fill:#818c98;}.f,.g{fill:#438dec;}.h{opacity:0.3;}</style></defs><g transform="translate(-183.997 -525.999)"><g transform="translate(181.5 523.503)"><path class="a" d="M18489.992,10889.543h-.047a1.451,1.451,0,0,1-1.449-1.449v-10.148a1.45,1.45,0,0,1,1.449-1.448h10.148a1.45,1.45,0,0,1,1.449,1.448v.052h-8.6a2.952,2.952,0,0,0-2.949,2.949v8.6Z" transform="translate(-18483.521 -10870.521)"/><path class="a" d="M18376.275,10889.544h-6.33a1.451,1.451,0,0,1-1.449-1.449v-10.151a1.45,1.45,0,0,1,1.449-1.448h10.15a1.45,1.45,0,0,1,1.449,1.448v4.573h-3.119a2.163,2.163,0,0,0-2.158,2.164v4.669c0,.07,0,.129.008.193Z" transform="translate(-18360.525 -10867.521)"/><rect class="b" width="24" height="24" transform="translate(2.497 2.497)"/><path class="c" d="M11.667,11h4.667a.666.666,0,0,1,.667.667v4.667a.666.666,0,0,1-.667.667H11.667A.666.666,0,0,1,11,16.333V11.667A.666.666,0,0,1,11.667,11" transform="translate(6.236 5.495)"/></g><g transform="translate(205.5 523.504)"><rect class="b" width="24" height="24" transform="translate(2.497 2.497)"/><path class="d" d="M18489.992,10889.543h-.047a1.451,1.451,0,0,1-1.449-1.449v-10.148a1.45,1.45,0,0,1,1.449-1.448h10.148a1.45,1.45,0,0,1,1.449,1.448v.052h-8.6a2.952,2.952,0,0,0-2.949,2.949v8.6Z" transform="translate(-18483.521 -10870.521)"/><path class="d" d="M18376.275,10889.544h-6.33a1.451,1.451,0,0,1-1.449-1.449v-10.151a1.45,1.45,0,0,1,1.449-1.448h10.15a1.45,1.45,0,0,1,1.449,1.448v4.573h-3.119a2.163,2.163,0,0,0-2.158,2.164v4.669c0,.07,0,.129.008.193Z" transform="translate(-18360.525 -10867.521)"/><path class="e" d="M11.667,11h4.667a.666.666,0,0,1,.667.667v4.667a.666.666,0,0,1-.667.667H11.667A.666.666,0,0,1,11,16.333V11.667A.666.666,0,0,1,11.667,11" transform="translate(6.236 5.494)"/></g><g transform="translate(229.5 523.504)"><rect class="b" width="24" height="24" transform="translate(2.497 2.497)"/><path class="f" d="M18489.992,10889.543h-.047a1.451,1.451,0,0,1-1.449-1.449v-10.148a1.45,1.45,0,0,1,1.449-1.448h10.148a1.45,1.45,0,0,1,1.449,1.448v.052h-8.6a2.952,2.952,0,0,0-2.949,2.949v8.6Z" transform="translate(-18483.521 -10870.521)"/><path class="f" d="M18376.275,10889.544h-6.33a1.451,1.451,0,0,1-1.449-1.449v-10.151a1.45,1.45,0,0,1,1.449-1.448h10.15a1.45,1.45,0,0,1,1.449,1.448v4.573h-3.119a2.163,2.163,0,0,0-2.158,2.164v4.669c0,.07,0,.129.008.193Z" transform="translate(-18360.525 -10867.521)"/><path class="g" d="M11.667,11h4.667a.666.666,0,0,1,.667.667v4.667a.666.666,0,0,1-.667.667H11.667A.666.666,0,0,1,11,16.333V11.667A.666.666,0,0,1,11.667,11" transform="translate(6.236 5.494)"/></g><g class="h" transform="translate(253.496 523.502)"><rect class="b" width="24" height="24" transform="translate(2.497 2.497)"/><path class="a" d="M18489.992,10889.543h-.047a1.451,1.451,0,0,1-1.449-1.449v-10.148a1.45,1.45,0,0,1,1.449-1.448h10.148a1.45,1.45,0,0,1,1.449,1.448v.052h-8.6a2.952,2.952,0,0,0-2.949,2.949v8.6Z" transform="translate(-18483.518 -10870.52)"/><path class="a" d="M18376.275,10889.544h-6.33a1.451,1.451,0,0,1-1.449-1.449v-10.151a1.45,1.45,0,0,1,1.449-1.448h10.15a1.45,1.45,0,0,1,1.449,1.448v4.573h-3.119a2.163,2.163,0,0,0-2.158,2.164v4.669c0,.07,0,.129.008.193Z" transform="translate(-18360.521 -10867.52)"/><path class="c" d="M11.667,11h4.667a.666.666,0,0,1,.667.667v4.667a.666.666,0,0,1-.667.667H11.667A.666.666,0,0,1,11,16.333V11.667A.666.666,0,0,1,11.667,11" transform="translate(6.24 5.496)"/></g></g></svg>