<svg xmlns="http://www.w3.org/2000/svg" width="96" height="24.001" viewBox="0 0 96 24.001"><defs><style>.a{fill:#55616d;}.b{fill:none;}.c{fill:#818c98;}.d{fill:#438dec;}.e{opacity:0.3;}</style></defs><g transform="translate(-664 -526)"><g transform="translate(661.811 523.811)"><path class="a" d="M18425.25,11051.809h-15.658a1.4,1.4,0,0,1-1.4-1.4v-12.819a1.4,1.4,0,0,1,1.4-1.4h15.658a1.4,1.4,0,0,1,1.4,1.4v12.819A1.4,1.4,0,0,1,18425.25,11051.809Zm-4.8-3.876a.833.833,0,0,0,0,1.665h2.771a1.4,1.4,0,0,0,1.4-1.4v-2.77a.835.835,0,0,0-1.67,0v2a.5.5,0,0,1-.5.5Zm-8.832-9.933a1.4,1.4,0,0,0-1.4,1.4v2.766a.832.832,0,1,0,1.664,0v-2a.5.5,0,0,1,.5-.5h2a.832.832,0,0,0,0-1.664h-2.77Z" transform="translate(-18403.229 -11029.81)"/><rect class="b" width="24" height="24" transform="translate(2.189 2.189)"/></g><g transform="translate(685.811 523.811)"><path class="c" d="M18425.25,11051.809h-15.658a1.4,1.4,0,0,1-1.4-1.4v-12.819a1.4,1.4,0,0,1,1.4-1.4h15.658a1.4,1.4,0,0,1,1.4,1.4v12.819A1.4,1.4,0,0,1,18425.25,11051.809Zm-4.8-3.876a.833.833,0,0,0,0,1.665h2.771a1.4,1.4,0,0,0,1.4-1.4v-2.77a.835.835,0,0,0-1.67,0v2a.5.5,0,0,1-.5.5Zm-8.832-9.933a1.4,1.4,0,0,0-1.4,1.4v2.766a.832.832,0,1,0,1.664,0v-2a.5.5,0,0,1,.5-.5h2a.832.832,0,0,0,0-1.664h-2.77Z" transform="translate(-18403.229 -11029.81)"/><rect class="b" width="24" height="24" transform="translate(2.189 2.189)"/></g><g transform="translate(709.811 523.812)"><path class="d" d="M18425.25,11019.807h-15.658a1.4,1.4,0,0,1-1.4-1.4v-12.819a1.4,1.4,0,0,1,1.4-1.4h15.658a1.4,1.4,0,0,1,1.4,1.4v12.819A1.4,1.4,0,0,1,18425.25,11019.807Zm-4.8-3.875a.833.833,0,0,0,0,1.665h2.771a1.4,1.4,0,0,0,1.4-1.4v-2.771a.835.835,0,0,0-1.67,0v2a.493.493,0,0,1-.5.5Zm-8.832-9.934a1.4,1.4,0,0,0-1.4,1.4v2.766a.832.832,0,0,0,1.664,0v-2a.5.5,0,0,1,.5-.5h2a.835.835,0,0,0,0-1.67h-2.77Z" transform="translate(-18403.229 -10997.81)"/><rect class="b" width="24" height="24" transform="translate(2.189 2.189)"/></g><g class="e" transform="translate(733.811 523.812)"><path class="a" d="M18425.25,10987.811h-15.658a1.4,1.4,0,0,1-1.4-1.4v-12.819a1.4,1.4,0,0,1,1.4-1.4h15.658a1.4,1.4,0,0,1,1.4,1.4v12.819A1.4,1.4,0,0,1,18425.25,10987.811Zm-4.8-3.88a.834.834,0,0,0,0,1.669h2.771a1.4,1.4,0,0,0,1.4-1.4v-2.766a.835.835,0,0,0-1.67,0v2a.5.5,0,0,1-.5.5Zm-8.832-9.934a1.4,1.4,0,0,0-1.4,1.4v2.77a.832.832,0,1,0,1.664,0v-2a.5.5,0,0,1,.5-.5h2a.834.834,0,0,0,0-1.669h-2.77Z" transform="translate(-18403.229 -10965.81)"/><rect class="b" width="24" height="24" transform="translate(2.189 2.189)"/></g></g></svg>