<svg xmlns="http://www.w3.org/2000/svg" width="95.996" height="24.002" viewBox="0 0 95.996 24.002"><defs><style>.a,.b,.d,.f{fill:none;}.b{stroke:#55616d;}.b,.d,.f{stroke-linecap:round;stroke-linejoin:round;stroke-width:2.4px;}.c{fill:#55616d;}.d{stroke:#818c98;}.e{fill:#818c98;}.f{stroke:#438dec;}.g{fill:#438dec;}.h{opacity:0.3;}</style></defs><g transform="translate(-183.997 -525.999)"><g transform="translate(181.5 523.503)"><rect class="a" width="24" height="24" transform="translate(2.497 2.497)"/><g transform="translate(6.494 7.058)"><path class="b" d="M18.336,6.254a7.535,7.535,0,0,0-13.36,4.781" transform="translate(-4.508 -3.476)"/><path class="b" d="M3.5,14.4A7.536,7.536,0,0,0,17.152,10" transform="translate(-1.613 -2.44)"/><path class="c" d="M3.311,6.981,6.422,3.87a.731.731,0,0,1,1.238.4L8.288,8a.732.732,0,0,1-.841.843L3.706,8.219a.731.731,0,0,1-.4-1.238" transform="translate(7.709 -4.016)"/><path class="c" d="M14.786,17.234l3.12-3.12a.734.734,0,0,0-.4-1.242l-3.75-.63a.734.734,0,0,0-.845.844l.63,3.751a.734.734,0,0,0,1.242.4" transform="translate(-12.904 -2.085)"/></g></g><g transform="translate(205.5 523.504)"><rect class="a" width="24" height="24" transform="translate(2.497 2.497)"/><g transform="translate(6.494 7.057)"><path class="d" d="M18.336,6.254a7.535,7.535,0,0,0-13.36,4.781" transform="translate(-4.508 -3.476)"/><path class="d" d="M3.5,14.4A7.536,7.536,0,0,0,17.152,10" transform="translate(-1.613 -2.44)"/><path class="e" d="M3.311,6.981,6.422,3.87a.731.731,0,0,1,1.238.4L8.288,8a.732.732,0,0,1-.841.843L3.706,8.219a.731.731,0,0,1-.4-1.238" transform="translate(7.709 -4.016)"/><path class="e" d="M14.786,17.234l3.12-3.12a.734.734,0,0,0-.4-1.242l-3.75-.63a.734.734,0,0,0-.845.844l.63,3.751a.734.734,0,0,0,1.242.4" transform="translate(-12.904 -2.085)"/></g></g><g transform="translate(229.5 523.504)"><rect class="a" width="24" height="24" transform="translate(2.497 2.497)"/><g transform="translate(6.494 7.057)"><path class="f" d="M18.336,6.254a7.535,7.535,0,0,0-13.36,4.781" transform="translate(-4.508 -3.476)"/><path class="f" d="M3.5,14.4A7.536,7.536,0,0,0,17.152,10" transform="translate(-1.613 -2.44)"/><path class="g" d="M3.311,6.981,6.422,3.87a.731.731,0,0,1,1.238.4L8.288,8a.732.732,0,0,1-.841.843L3.706,8.219a.731.731,0,0,1-.4-1.238" transform="translate(7.709 -4.016)"/><path class="g" d="M14.786,17.234l3.12-3.12a.734.734,0,0,0-.4-1.242l-3.75-.63a.734.734,0,0,0-.845.844l.63,3.751a.734.734,0,0,0,1.242.4" transform="translate(-12.904 -2.085)"/></g></g><g class="h" transform="translate(253.496 523.502)"><rect class="a" width="24" height="24" transform="translate(2.497 2.497)"/><g transform="translate(6.498 7.059)"><path class="b" d="M18.336,6.254a7.535,7.535,0,0,0-13.36,4.781" transform="translate(-4.508 -3.476)"/><path class="b" d="M3.5,14.4A7.536,7.536,0,0,0,17.152,10" transform="translate(-1.613 -2.44)"/><path class="c" d="M3.311,6.981,6.422,3.87a.731.731,0,0,1,1.238.4L8.288,8a.732.732,0,0,1-.841.843L3.706,8.219a.731.731,0,0,1-.4-1.238" transform="translate(7.709 -4.016)"/><path class="c" d="M14.786,17.234l3.12-3.12a.734.734,0,0,0-.4-1.242l-3.75-.63a.734.734,0,0,0-.845.844l.63,3.751a.734.734,0,0,0,1.242.4" transform="translate(-12.904 -2.085)"/></g></g></g></svg>