<svg xmlns="http://www.w3.org/2000/svg" width="96" height="24" viewBox="0 0 96 24"><defs><style>.a{fill:none;}.b{fill:#55616d;}.c{fill:#818c98;}.d{fill:#438dec;}.e{opacity:0.3;}</style></defs><g transform="translate(-183.999 -622)"><g transform="translate(209.92 620.079) rotate(90)"><rect class="a" width="24" height="24" transform="translate(1.921 1.921)"/><path class="b" d="M18495.2,11006.623l-6.289-5.592a1.2,1.2,0,0,1,0-1.793l6.289-5.593a1.2,1.2,0,0,1,2,.9v4.041h8.779a1.549,1.549,0,1,1,0,3.1h-8.779v4.041a1.2,1.2,0,0,1-1.205,1.2A1.182,1.182,0,0,1,18495.2,11006.623Z" transform="translate(-18484.094 -10986.213)"/></g><g transform="translate(233.92 620.079) rotate(90)"><rect class="a" width="24" height="24" transform="translate(1.921 1.921)"/><path class="c" d="M18495.2,11006.623l-6.289-5.592a1.2,1.2,0,0,1,0-1.793l6.289-5.593a1.2,1.2,0,0,1,2,.9v4.041h8.779a1.549,1.549,0,1,1,0,3.1h-8.779v4.041a1.2,1.2,0,0,1-1.205,1.2A1.182,1.182,0,0,1,18495.2,11006.623Z" transform="translate(-18484.094 -10986.213)"/></g><g transform="translate(257.92 620.079) rotate(90)"><rect class="a" width="24" height="24" transform="translate(1.921 1.921)"/><path class="d" d="M18495.2,11006.623l-6.289-5.592a1.2,1.2,0,0,1,0-1.793l6.289-5.593a1.2,1.2,0,0,1,2,.9v4.041h8.779a1.549,1.549,0,1,1,0,3.1h-8.779v4.041a1.2,1.2,0,0,1-1.205,1.2A1.182,1.182,0,0,1,18495.2,11006.623Z" transform="translate(-18484.094 -10986.213)"/></g><g class="e" transform="translate(281.92 620.079) rotate(90)"><rect class="a" width="24" height="24" transform="translate(1.921 1.921)"/><path class="b" d="M18495.2,11006.623l-6.289-5.592a1.2,1.2,0,0,1,0-1.793l6.289-5.593a1.2,1.2,0,0,1,2,.9v4.041h8.779a1.549,1.549,0,1,1,0,3.1h-8.779v4.041a1.2,1.2,0,0,1-1.205,1.2A1.182,1.182,0,0,1,18495.2,11006.623Z" transform="translate(-18484.094 -10986.213)"/></g></g></svg>