<svg xmlns="http://www.w3.org/2000/svg" width="96" height="24" viewBox="0 0 96 24"><defs><style>.a{fill:none;}.b{fill:#55616d;}.c{fill:#818c98;}.d{fill:#438dec;}.e{opacity:0.3;}</style></defs><g transform="translate(0 24) rotate(-90)"><rect class="a" width="24" height="24" transform="translate(0)"/><rect class="b" width="20" height="3" rx="1.5" transform="translate(20.132 5.992) rotate(135)"/><rect class="b" width="20" height="3" rx="1.5" transform="translate(5.99 3.869) rotate(45)"/></g><g transform="translate(24 24) rotate(-90)"><rect class="a" width="24" height="24" transform="translate(0)"/><rect class="c" width="20" height="3" rx="1.5" transform="translate(20.132 5.99) rotate(135)"/><rect class="c" width="20" height="3" rx="1.5" transform="translate(5.989 3.867) rotate(45)"/></g><g transform="translate(48 24) rotate(-90)"><rect class="a" width="24" height="24" transform="translate(0)"/><rect class="d" width="20" height="3" rx="1.5" transform="translate(20.132 5.99) rotate(135)"/><rect class="d" width="20" height="3" rx="1.5" transform="translate(5.989 3.867) rotate(45)"/></g><g class="e" transform="translate(72 24) rotate(-90)"><rect class="a" width="24" height="24" transform="translate(0)"/><rect class="b" width="20" height="3" rx="1.5" transform="translate(20.132 5.99) rotate(135)"/><rect class="b" width="20" height="3" rx="1.5" transform="translate(5.989 3.867) rotate(45)"/></g></svg>