<?xml version="1.0" encoding="utf-8"?>
<!-- Generator: Adobe Illustrator 21.0.0, SVG Export Plug-In . SVG Version: 6.00 Build 0)  -->
<svg version="1.1" id="图层_1" xmlns="http://www.w3.org/2000/svg" xmlns:xlink="http://www.w3.org/1999/xlink" x="0px" y="0px"
	 viewBox="0 0 32 32" style="enable-background:new 0 0 32 32;" xml:space="preserve">
<style type="text/css">
	.st0{fill-rule:evenodd;clip-rule:evenodd;fill:#95A5B9;}
	.st1{fill:none;}
</style>
<g>
	<path class="st0" d="M24,14H13c-1.1,0-2,0.9-2,2v1c0,1.1,0.9,2,2,2h11c1.1,0,2-0.9,2-2v-1C26,14.9,25.1,14,24,14z M24,17H13v-1h11
		V17z"/>
	<path class="st0" d="M8,7h11c1.1,0,2-0.9,2-2V3c0-1.1-0.9-2-2-2H8C6.9,1,6,1.9,6,3v2C6,6.1,6.9,7,8,7z M8,3h11v2H8V3z"/>
	<path class="st0" d="M9,10v1c0,1.1,0.9,2,2,2h11c1.1,0,2-0.9,2-2v-1c0-1.1-0.9-2-2-2H11C9.9,8,9,8.9,9,10z M22,11H11v-1h11V11z"/>
	<path class="st0" d="M8,14V8H6v6c0,2.2,1.8,4,4,4v-2C8.9,16,8,15.1,8,14z"/>
</g>
<rect class="st1" width="32" height="32"/>
</svg>
