<?xml version="1.0" encoding="utf-8"?>
<!-- Generator: Adobe Illustrator 21.0.0, SVG Export Plug-In . SVG Version: 6.00 Build 0)  -->
<svg version="1.1" id="图层_1" xmlns="http://www.w3.org/2000/svg" xmlns:xlink="http://www.w3.org/1999/xlink" x="0px" y="0px"
	 viewBox="0 0 96 96" style="enable-background:new 0 0 96 96;" xml:space="preserve">
<style type="text/css">
	.st0{fill:#D6E2EC;}
	.st1{fill:#95A5B9;}
</style>
<rect class="st0" width="96" height="96"/>
<g>
	<path class="st1" d="M37.6,40.5c0-1.7,0.2-3.2,0.7-4.6c0.5-1.4,1.2-2.6,2.1-3.6c0.9-1,2-1.7,3.4-2.3c1.4-0.5,2.9-0.8,4.6-0.8
		c1.3,0,2.6,0.2,3.8,0.6c1.2,0.4,2.2,1,3.1,1.8s1.6,1.7,2.1,2.8c0.5,1.1,0.8,2.3,0.8,3.7c0,1.8-0.4,3.3-1.2,4.6
		c-0.8,1.2-1.8,2.4-3,3.6c-1,1-1.8,1.8-2.4,2.4s-1,1.1-1.3,1.7c-0.3,0.6-0.5,1.2-0.6,2c-0.1,0.8-0.2,1.9-0.2,3.4h-3
		c0-1.5,0-2.7,0.2-3.7s0.5-1.9,1-2.7c0.4-0.8,1-1.5,1.7-2.3c0.7-0.7,1.6-1.6,2.6-2.5c0.9-0.8,1.6-1.8,2.2-2.8c0.6-1,0.9-2.2,0.9-3.4
		c0-1-0.2-1.8-0.6-2.6c-0.4-0.8-0.9-1.5-1.5-2c-0.6-0.6-1.4-1-2.2-1.3c-0.8-0.3-1.7-0.5-2.6-0.5c-1.3,0-2.5,0.2-3.4,0.7
		c-1,0.4-1.8,1.1-2.4,1.8c-0.6,0.8-1.1,1.7-1.4,2.8c-0.3,1.1-0.5,2.2-0.4,3.5H37.6z M46.1,58.4h4v5.1h-4V58.4z"/>
</g>
</svg>
