<?xml version="1.0" encoding="utf-8"?>
<!-- Generator: Adobe Illustrator 21.0.0, SVG Export Plug-In . SVG Version: 6.00 Build 0)  -->
<svg version="1.1" id="图层_1" xmlns="http://www.w3.org/2000/svg" xmlns:xlink="http://www.w3.org/1999/xlink" x="0px" y="0px"
	 viewBox="0 0 32 32" style="enable-background:new 0 0 32 32;" xml:space="preserve">
<style type="text/css">
	.st0{fill-rule:evenodd;clip-rule:evenodd;fill:#95A5B9;}
	.st1{fill:none;}
</style>
<g>
	<path class="st0" d="M21,1H11C8.8,1,7,2.8,7,5v10c0,2.2,1.8,4,4,4h10c2.2,0,4-1.8,4-4V5C25,2.8,23.2,1,21,1z M21,3c1.1,0,2,0.9,2,2
		v4h-6V3H21z M11,3h4v6H9V5C9,3.9,9.9,3,11,3z M11,17c-1.1,0-2-0.9-2-2v-4h6v6H11z M21,17h-4v-6h6v4C23,16.1,22.1,17,21,17z"/>
</g>
<rect class="st1" width="32" height="32"/>
</svg>
