<?xml version="1.0" encoding="utf-8"?>
<!-- Generator: Adobe Illustrator 21.0.0, SVG Export Plug-In . SVG Version: 6.00 Build 0)  -->
<svg version="1.1" id="图层_1" xmlns="http://www.w3.org/2000/svg" xmlns:xlink="http://www.w3.org/1999/xlink" x="0px" y="0px"
	 viewBox="0 0 32 32" style="enable-background:new 0 0 32 32;" xml:space="preserve">
<style type="text/css">
	.st0{fill-rule:evenodd;clip-rule:evenodd;fill:#336ED3;}
	.st1{fill:none;}
</style>
<g>
	<path class="st0" d="M21,1H11C8.8,1,7,2.8,7,5v10c0,2.2,1.8,4,4,4h10c2.2,0,4-1.8,4-4V5C25,2.8,23.2,1,21,1z M15,17h-4
		c-1.1,0-2-0.9-2-2v-4h6V17z M15,9H9V5c0-1.1,0.9-2,2-2h4V9z M23,15c0,1.1-0.9,2-2,2h-4v-6h6V15z M23,9h-6V3h4c1.1,0,2,0.9,2,2V9z
		 M10,31h12v-2H10V31z"/>
</g>
<rect class="st1" width="32" height="32"/>
</svg>
