<svg xmlns="http://www.w3.org/2000/svg" width="96" height="24" viewBox="0 0 96 24"><defs><style>.a,.c,.d,.f{fill:none;}.a{stroke:#55616d;}.a,.d,.f{stroke-linecap:round;stroke-linejoin:bevel;stroke-width:1.2px;}.b{fill:#55616d;}.d{stroke:#818c98;}.e{fill:#818c98;}.f{stroke:#3486ec;}.g{fill:#3486ec;}.h{opacity:0.3;}</style></defs><g transform="translate(-275 -679)"><g transform="translate(276.512 681.512)"><line class="a" x2="2.403" y2="1.387" transform="translate(1.008 1.912)"/><line class="a" x1="2.403" y2="1.387" transform="translate(1.009 8.388)"/><line class="a" x1="1.85" transform="translate(0.822 5.844)"/><line class="a" x1="2.403" y2="1.387" transform="translate(17.566 1.912)"/><line class="a" x2="2.403" y2="1.387" transform="translate(17.566 8.388)"/><line class="a" x2="1.85" transform="translate(18.305 5.844)"/><rect class="b" width="4.04" height="2.981" transform="translate(8.562 5.278)"/><path class="b" d="M14.31,15.434l-.8-3.58,1.439-2.575H5.406l1.439,2.575-.8,3.58-.93,2.215a.924.924,0,0,0,.853,1.283h8.418a.924.924,0,0,0,.852-1.283Z" transform="translate(0.403 0.209)"/><path class="b" d="M14.822,4.218,10.737.2A.925.925,0,0,0,9.582.2L5.5,4.218Z" transform="translate(0.421 -0.169)"/><rect class="b" width="2.081" height="2.981" transform="translate(13.634 5.278)"/><rect class="b" width="2.081" height="2.981" transform="translate(5.448 5.278)"/><rect class="c" width="24" height="24" transform="translate(-1.512 -2.512)"/></g><g transform="translate(300.512 681.512)"><line class="d" x2="2.403" y2="1.387" transform="translate(1.008 1.912)"/><line class="d" x1="2.403" y2="1.387" transform="translate(1.009 8.388)"/><line class="d" x1="1.85" transform="translate(0.822 5.844)"/><line class="d" x1="2.403" y2="1.387" transform="translate(17.566 1.912)"/><line class="d" x2="2.403" y2="1.387" transform="translate(17.566 8.388)"/><line class="d" x2="1.85" transform="translate(18.305 5.844)"/><rect class="e" width="4.04" height="2.981" transform="translate(8.562 5.278)"/><path class="e" d="M14.31,15.434l-.8-3.58,1.439-2.575H5.406l1.439,2.575-.8,3.58-.93,2.215a.924.924,0,0,0,.853,1.283h8.418a.924.924,0,0,0,.852-1.283Z" transform="translate(0.403 0.209)"/><path class="e" d="M14.822,4.218,10.737.2A.925.925,0,0,0,9.582.2L5.5,4.218Z" transform="translate(0.421 -0.169)"/><rect class="e" width="2.081" height="2.981" transform="translate(13.634 5.278)"/><rect class="e" width="2.081" height="2.981" transform="translate(5.448 5.278)"/><rect class="c" width="24" height="24" transform="translate(-1.512 -2.512)"/></g><g transform="translate(324.512 681.512)"><line class="f" x2="2.403" y2="1.387" transform="translate(1.008 1.912)"/><line class="f" x1="2.403" y2="1.387" transform="translate(1.009 8.388)"/><line class="f" x1="1.85" transform="translate(0.822 5.844)"/><line class="f" x1="2.403" y2="1.387" transform="translate(17.566 1.912)"/><line class="f" x2="2.403" y2="1.387" transform="translate(17.566 8.388)"/><line class="f" x2="1.85" transform="translate(18.305 5.844)"/><rect class="g" width="4.04" height="2.981" transform="translate(8.562 5.278)"/><path class="g" d="M14.31,15.434l-.8-3.58,1.439-2.575H5.406l1.439,2.575-.8,3.58-.93,2.215a.924.924,0,0,0,.853,1.283h8.418a.924.924,0,0,0,.852-1.283Z" transform="translate(0.403 0.209)"/><path class="g" d="M14.822,4.218,10.737.2A.925.925,0,0,0,9.582.2L5.5,4.218Z" transform="translate(0.421 -0.169)"/><rect class="g" width="2.081" height="2.981" transform="translate(13.634 5.278)"/><rect class="g" width="2.081" height="2.981" transform="translate(5.448 5.278)"/><rect class="c" width="24" height="24" transform="translate(-1.512 -2.512)"/></g><g class="h" transform="translate(348.512 681.512)"><line class="a" x2="2.403" y2="1.387" transform="translate(1.008 1.912)"/><line class="a" x1="2.403" y2="1.387" transform="translate(1.009 8.388)"/><line class="a" x1="1.85" transform="translate(0.822 5.844)"/><line class="a" x1="2.403" y2="1.387" transform="translate(17.566 1.912)"/><line class="a" x2="2.403" y2="1.387" transform="translate(17.566 8.388)"/><line class="a" x2="1.85" transform="translate(18.305 5.844)"/><rect class="b" width="4.04" height="2.981" transform="translate(8.562 5.278)"/><path class="b" d="M14.31,15.434l-.8-3.58,1.439-2.575H5.406l1.439,2.575-.8,3.58-.93,2.215a.924.924,0,0,0,.853,1.283h8.418a.924.924,0,0,0,.852-1.283Z" transform="translate(0.403 0.209)"/><path class="b" d="M14.822,4.218,10.737.2A.925.925,0,0,0,9.582.2L5.5,4.218Z" transform="translate(0.421 -0.169)"/><rect class="b" width="2.081" height="2.981" transform="translate(13.634 5.278)"/><rect class="b" width="2.081" height="2.981" transform="translate(5.448 5.278)"/><rect class="c" width="24" height="24" transform="translate(-1.512 -2.512)"/></g></g></svg>