<?xml version="1.0" encoding="utf-8"?>
<!-- Generator: Adobe Illustrator 21.0.0, SVG Export Plug-In . SVG Version: 6.00 Build 0)  -->
<svg version="1.1" id="图层_1" xmlns="http://www.w3.org/2000/svg" xmlns:xlink="http://www.w3.org/1999/xlink" x="0px" y="0px"
	 viewBox="0 0 32 32" style="enable-background:new 0 0 32 32;" xml:space="preserve">
<style type="text/css">
	.st0{fill:#FFFFFF;}
	.st1{fill:none;}
</style>
<g>
	<path class="st0" d="M25.8,23.9l-3.5-3.5C23.3,18.8,24,17,24,15c0-5-4-9-9-9s-9,4-9,9s4,9,9,9c2,0,3.8-0.7,5.3-1.8l3.5,3.5
		c0.5,0.5,1.3,0.5,1.8,0l0.1-0.1C26.3,25.2,26.3,24.3,25.8,23.9z M8,15c0-3.9,3.1-7,7-7s7,3.1,7,7c0,3.9-3.1,7-7,7S8,18.9,8,15z"/>
	<path class="st0" d="M18,14h-2v-2c0-0.5-0.5-1-1-1s-1,0.5-1,1v2h-2c-0.5,0-1,0.5-1,1s0.5,1,1,1h2v2c0,0.5,0.5,1,1,1s1-0.5,1-1v-2h2
		c0.5,0,1-0.5,1-1S18.5,14,18,14z"/>
</g>
<rect class="st1" width="32" height="32"/>
</svg>
