<svg xmlns="http://www.w3.org/2000/svg" width="224" height="36" viewBox="0 0 224 36"><defs><style>.a{fill:#f4f6f8;stroke:#e3e8ee;}.b{fill:#55616d;}.c,.d,.f{fill:none;}.c{stroke:#55616d;}.c,.f{stroke-width:2px;}.e{fill:#438dec;}.f{stroke:#438dec;}.g{opacity:0.3;}.h{stroke:none;}</style></defs><g transform="translate(-912 -1509)"><g transform="translate(931.053 1518.206)"><g class="a" transform="translate(-19.053 -9.206)"><rect class="h" width="56" height="36" rx="4"/><rect class="d" x="0.5" y="0.5" width="55" height="35" rx="3.5"/></g><path class="b" d="M25.635,26.506,27.5,24.637l4.377,4.377a1.322,1.322,0,0,1-1.869,1.87Z" transform="translate(-14.283 -13.6)"/><circle class="c" cx="7" cy="7" r="7" transform="translate(0.945 0.794)"/><rect class="d" width="24" height="24" transform="translate(-3.053 -3.206)"/><rect class="b" width="1.8" height="7.3" rx="0.9" transform="translate(11.595 6.894) rotate(90)"/></g><g transform="translate(987.053 1518.206)"><g class="a" transform="translate(-19.053 -9.206)"><rect class="h" width="56" height="36" rx="4"/><rect class="d" x="0.5" y="0.5" width="55" height="35" rx="3.5"/></g><path class="e" d="M25.635,26.506,27.5,24.637l4.377,4.377a1.322,1.322,0,0,1-1.869,1.87Z" transform="translate(-14.283 -13.601)"/><circle class="f" cx="7" cy="7" r="7" transform="translate(0.945 0.794)"/><rect class="d" width="24" height="24" transform="translate(-3.053 -3.206)"/><rect class="e" width="1.8" height="7.3" rx="0.9" transform="translate(11.596 6.895) rotate(90)"/></g><g transform="translate(1043.053 1518.206)"><g class="a" transform="translate(-19.053 -9.206)"><rect class="h" width="56" height="36" rx="4"/><rect class="d" x="0.5" y="0.5" width="55" height="35" rx="3.5"/></g><path class="e" d="M25.635,26.506,27.5,24.637l4.377,4.377a1.322,1.322,0,0,1-1.869,1.87Z" transform="translate(-14.283 -13.601)"/><circle class="f" cx="7" cy="7" r="7" transform="translate(0.945 0.794)"/><rect class="d" width="24" height="24" transform="translate(-3.053 -3.206)"/><rect class="e" width="1.8" height="7.3" rx="0.9" transform="translate(11.596 6.895) rotate(90)"/></g><g transform="translate(1099.053 1518.206)"><g class="a" transform="translate(-19.053 -9.206)"><rect class="h" width="56" height="36" rx="4"/><rect class="d" x="0.5" y="0.5" width="55" height="35" rx="3.5"/></g><g class="g"><path class="b" d="M25.635,26.506,27.5,24.637l4.377,4.377a1.322,1.322,0,0,1-1.869,1.87Z" transform="translate(-14.283 -13.601)"/><circle class="c" cx="7" cy="7" r="7" transform="translate(0.945 0.794)"/><rect class="d" width="24" height="24" transform="translate(-3.053 -3.206)"/><rect class="b" width="1.8" height="7.3" rx="0.9" transform="translate(11.596 6.895) rotate(90)"/></g></g></g></svg>